%TF.GenerationSoftware,KiCad,Pcbnew,7.0.10*%
%TF.CreationDate,2024-04-09T11:26:51+02:00*%
%TF.ProjectId,SolarCurveTracer,536f6c61-7243-4757-9276-655472616365,v1.0*%
%TF.SameCoordinates,Original*%
%TF.FileFunction,Legend,Top*%
%TF.FilePolarity,Positive*%
%FSLAX46Y46*%
G04 Gerber Fmt 4.6, Leading zero omitted, Abs format (unit mm)*
G04 Created by KiCad (PCBNEW 7.0.10) date 2024-04-09 11:26:51*
%MOMM*%
%LPD*%
G01*
G04 APERTURE LIST*
G04 Aperture macros list*
%AMRoundRect*
0 Rectangle with rounded corners*
0 $1 Rounding radius*
0 $2 $3 $4 $5 $6 $7 $8 $9 X,Y pos of 4 corners*
0 Add a 4 corners polygon primitive as box body*
4,1,4,$2,$3,$4,$5,$6,$7,$8,$9,$2,$3,0*
0 Add four circle primitives for the rounded corners*
1,1,$1+$1,$2,$3*
1,1,$1+$1,$4,$5*
1,1,$1+$1,$6,$7*
1,1,$1+$1,$8,$9*
0 Add four rect primitives between the rounded corners*
20,1,$1+$1,$2,$3,$4,$5,0*
20,1,$1+$1,$4,$5,$6,$7,0*
20,1,$1+$1,$6,$7,$8,$9,0*
20,1,$1+$1,$8,$9,$2,$3,0*%
%AMFreePoly0*
4,1,6,1.000000,0.000000,0.500000,-0.750000,-0.500000,-0.750000,-0.500000,0.750000,0.500000,0.750000,1.000000,0.000000,1.000000,0.000000,$1*%
%AMFreePoly1*
4,1,6,0.500000,-0.750000,-0.650000,-0.750000,-0.150000,0.000000,-0.650000,0.750000,0.500000,0.750000,0.500000,-0.750000,0.500000,-0.750000,$1*%
G04 Aperture macros list end*
%ADD10C,0.150000*%
%ADD11C,0.120000*%
%ADD12C,0.100000*%
%ADD13C,0.200000*%
%ADD14C,0.250000*%
%ADD15C,0.325000*%
%ADD16RoundRect,0.135000X-0.135000X-0.185000X0.135000X-0.185000X0.135000X0.185000X-0.135000X0.185000X0*%
%ADD17R,1.050000X1.300000*%
%ADD18RoundRect,0.200000X-0.200000X-0.275000X0.200000X-0.275000X0.200000X0.275000X-0.200000X0.275000X0*%
%ADD19RoundRect,0.135000X0.185000X-0.135000X0.185000X0.135000X-0.185000X0.135000X-0.185000X-0.135000X0*%
%ADD20RoundRect,0.200000X0.275000X-0.200000X0.275000X0.200000X-0.275000X0.200000X-0.275000X-0.200000X0*%
%ADD21RoundRect,0.225000X0.250000X-0.225000X0.250000X0.225000X-0.250000X0.225000X-0.250000X-0.225000X0*%
%ADD22RoundRect,0.140000X-0.140000X-0.170000X0.140000X-0.170000X0.140000X0.170000X-0.140000X0.170000X0*%
%ADD23RoundRect,0.140000X0.140000X0.170000X-0.140000X0.170000X-0.140000X-0.170000X0.140000X-0.170000X0*%
%ADD24RoundRect,0.200000X0.200000X0.275000X-0.200000X0.275000X-0.200000X-0.275000X0.200000X-0.275000X0*%
%ADD25RoundRect,0.250000X0.262500X0.450000X-0.262500X0.450000X-0.262500X-0.450000X0.262500X-0.450000X0*%
%ADD26RoundRect,0.135000X0.135000X0.185000X-0.135000X0.185000X-0.135000X-0.185000X0.135000X-0.185000X0*%
%ADD27R,0.900000X0.300000*%
%ADD28R,0.250000X1.650000*%
%ADD29RoundRect,0.140000X-0.170000X0.140000X-0.170000X-0.140000X0.170000X-0.140000X0.170000X0.140000X0*%
%ADD30FreePoly0,270.000000*%
%ADD31FreePoly1,270.000000*%
%ADD32C,0.650000*%
%ADD33RoundRect,0.102000X-0.575000X0.300000X-0.575000X-0.300000X0.575000X-0.300000X0.575000X0.300000X0*%
%ADD34RoundRect,0.102000X-0.575000X0.150000X-0.575000X-0.150000X0.575000X-0.150000X0.575000X0.150000X0*%
%ADD35O,2.304000X1.204000*%
%ADD36RoundRect,0.301000X-0.701000X0.301000X-0.701000X-0.301000X0.701000X-0.301000X0.701000X0.301000X0*%
%ADD37C,6.400000*%
%ADD38RoundRect,0.250000X-0.450000X0.262500X-0.450000X-0.262500X0.450000X-0.262500X0.450000X0.262500X0*%
%ADD39RoundRect,0.225000X-0.250000X0.225000X-0.250000X-0.225000X0.250000X-0.225000X0.250000X0.225000X0*%
%ADD40RoundRect,0.250000X-0.262500X-0.450000X0.262500X-0.450000X0.262500X0.450000X-0.262500X0.450000X0*%
%ADD41R,1.525000X0.700000*%
%ADD42RoundRect,0.225000X0.225000X0.250000X-0.225000X0.250000X-0.225000X-0.250000X0.225000X-0.250000X0*%
%ADD43RoundRect,0.050000X0.050000X-0.387500X0.050000X0.387500X-0.050000X0.387500X-0.050000X-0.387500X0*%
%ADD44RoundRect,0.050000X0.387500X-0.050000X0.387500X0.050000X-0.387500X0.050000X-0.387500X-0.050000X0*%
%ADD45R,3.200000X3.200000*%
%ADD46RoundRect,0.140000X0.170000X-0.140000X0.170000X0.140000X-0.170000X0.140000X-0.170000X-0.140000X0*%
%ADD47R,0.350000X0.850000*%
%ADD48R,0.850000X0.350000*%
%ADD49R,2.700000X2.700000*%
%ADD50RoundRect,0.102000X-0.700000X-0.950000X0.700000X-0.950000X0.700000X0.950000X-0.700000X0.950000X0*%
%ADD51RoundRect,0.102000X-0.600000X-0.700000X0.600000X-0.700000X0.600000X0.700000X-0.600000X0.700000X0*%
%ADD52RoundRect,0.102000X-0.650000X-0.700000X0.650000X-0.700000X0.650000X0.700000X-0.650000X0.700000X0*%
%ADD53RoundRect,0.102000X-0.400000X-0.750000X0.400000X-0.750000X0.400000X0.750000X-0.400000X0.750000X0*%
%ADD54RoundRect,0.102000X-0.500000X-0.520000X0.500000X-0.520000X0.500000X0.520000X-0.500000X0.520000X0*%
%ADD55RoundRect,0.200000X-0.275000X0.200000X-0.275000X-0.200000X0.275000X-0.200000X0.275000X0.200000X0*%
%ADD56RoundRect,0.135000X-0.185000X0.135000X-0.185000X-0.135000X0.185000X-0.135000X0.185000X0.135000X0*%
%ADD57R,1.200000X0.600000*%
%ADD58R,1.050000X0.750000*%
%ADD59C,1.803400*%
%ADD60R,1.700000X1.700000*%
%ADD61O,1.700000X1.700000*%
%ADD62R,1.600000X1.600000*%
%ADD63C,1.600000*%
G04 APERTURE END LIST*
D10*
X133256569Y-115014219D02*
X133827998Y-115014219D01*
X133417284Y-116014219D02*
X133542284Y-115014219D01*
X134036331Y-116014219D02*
X134161331Y-115014219D01*
X134464903Y-116014219D02*
X134530379Y-115490409D01*
X134530379Y-115490409D02*
X134494665Y-115395171D01*
X134494665Y-115395171D02*
X134405379Y-115347552D01*
X134405379Y-115347552D02*
X134262522Y-115347552D01*
X134262522Y-115347552D02*
X134161331Y-115395171D01*
X134161331Y-115395171D02*
X134107760Y-115442790D01*
X135327998Y-115966600D02*
X135226808Y-116014219D01*
X135226808Y-116014219D02*
X135036331Y-116014219D01*
X135036331Y-116014219D02*
X134947046Y-115966600D01*
X134947046Y-115966600D02*
X134911331Y-115871361D01*
X134911331Y-115871361D02*
X134958951Y-115490409D01*
X134958951Y-115490409D02*
X135018474Y-115395171D01*
X135018474Y-115395171D02*
X135119665Y-115347552D01*
X135119665Y-115347552D02*
X135310141Y-115347552D01*
X135310141Y-115347552D02*
X135399427Y-115395171D01*
X135399427Y-115395171D02*
X135435141Y-115490409D01*
X135435141Y-115490409D02*
X135423236Y-115585647D01*
X135423236Y-115585647D02*
X134935141Y-115680885D01*
X135756570Y-115966600D02*
X135845855Y-116014219D01*
X135845855Y-116014219D02*
X136036332Y-116014219D01*
X136036332Y-116014219D02*
X136137522Y-115966600D01*
X136137522Y-115966600D02*
X136197046Y-115871361D01*
X136197046Y-115871361D02*
X136202998Y-115823742D01*
X136202998Y-115823742D02*
X136167284Y-115728504D01*
X136167284Y-115728504D02*
X136077998Y-115680885D01*
X136077998Y-115680885D02*
X135935141Y-115680885D01*
X135935141Y-115680885D02*
X135845855Y-115633266D01*
X135845855Y-115633266D02*
X135810141Y-115538028D01*
X135810141Y-115538028D02*
X135816094Y-115490409D01*
X135816094Y-115490409D02*
X135875617Y-115395171D01*
X135875617Y-115395171D02*
X135976808Y-115347552D01*
X135976808Y-115347552D02*
X136119665Y-115347552D01*
X136119665Y-115347552D02*
X136208951Y-115395171D01*
X136607760Y-116014219D02*
X136691094Y-115347552D01*
X136732760Y-115014219D02*
X136679189Y-115061838D01*
X136679189Y-115061838D02*
X136720856Y-115109457D01*
X136720856Y-115109457D02*
X136774427Y-115061838D01*
X136774427Y-115061838D02*
X136732760Y-115014219D01*
X136732760Y-115014219D02*
X136720856Y-115109457D01*
X137042284Y-115966600D02*
X137131569Y-116014219D01*
X137131569Y-116014219D02*
X137322046Y-116014219D01*
X137322046Y-116014219D02*
X137423236Y-115966600D01*
X137423236Y-115966600D02*
X137482760Y-115871361D01*
X137482760Y-115871361D02*
X137488712Y-115823742D01*
X137488712Y-115823742D02*
X137452998Y-115728504D01*
X137452998Y-115728504D02*
X137363712Y-115680885D01*
X137363712Y-115680885D02*
X137220855Y-115680885D01*
X137220855Y-115680885D02*
X137131569Y-115633266D01*
X137131569Y-115633266D02*
X137095855Y-115538028D01*
X137095855Y-115538028D02*
X137101808Y-115490409D01*
X137101808Y-115490409D02*
X137161331Y-115395171D01*
X137161331Y-115395171D02*
X137262522Y-115347552D01*
X137262522Y-115347552D02*
X137405379Y-115347552D01*
X137405379Y-115347552D02*
X137494665Y-115395171D01*
X133685141Y-116624219D02*
X133595855Y-117338504D01*
X133595855Y-117338504D02*
X133530379Y-117481361D01*
X133530379Y-117481361D02*
X133423236Y-117576600D01*
X133423236Y-117576600D02*
X133274426Y-117624219D01*
X133274426Y-117624219D02*
X133179188Y-117624219D01*
X134464903Y-117624219D02*
X134530379Y-117100409D01*
X134530379Y-117100409D02*
X134494665Y-117005171D01*
X134494665Y-117005171D02*
X134405379Y-116957552D01*
X134405379Y-116957552D02*
X134214903Y-116957552D01*
X134214903Y-116957552D02*
X134113712Y-117005171D01*
X134470855Y-117576600D02*
X134369665Y-117624219D01*
X134369665Y-117624219D02*
X134131569Y-117624219D01*
X134131569Y-117624219D02*
X134042284Y-117576600D01*
X134042284Y-117576600D02*
X134006569Y-117481361D01*
X134006569Y-117481361D02*
X134018474Y-117386123D01*
X134018474Y-117386123D02*
X134077998Y-117290885D01*
X134077998Y-117290885D02*
X134179189Y-117243266D01*
X134179189Y-117243266D02*
X134417284Y-117243266D01*
X134417284Y-117243266D02*
X134518474Y-117195647D01*
X134899427Y-117576600D02*
X134988712Y-117624219D01*
X134988712Y-117624219D02*
X135179189Y-117624219D01*
X135179189Y-117624219D02*
X135280379Y-117576600D01*
X135280379Y-117576600D02*
X135339903Y-117481361D01*
X135339903Y-117481361D02*
X135345855Y-117433742D01*
X135345855Y-117433742D02*
X135310141Y-117338504D01*
X135310141Y-117338504D02*
X135220855Y-117290885D01*
X135220855Y-117290885D02*
X135077998Y-117290885D01*
X135077998Y-117290885D02*
X134988712Y-117243266D01*
X134988712Y-117243266D02*
X134952998Y-117148028D01*
X134952998Y-117148028D02*
X134958951Y-117100409D01*
X134958951Y-117100409D02*
X135018474Y-117005171D01*
X135018474Y-117005171D02*
X135119665Y-116957552D01*
X135119665Y-116957552D02*
X135262522Y-116957552D01*
X135262522Y-116957552D02*
X135351808Y-117005171D01*
X135893475Y-117624219D02*
X135804189Y-117576600D01*
X135804189Y-117576600D02*
X135762522Y-117528980D01*
X135762522Y-117528980D02*
X135726808Y-117433742D01*
X135726808Y-117433742D02*
X135762522Y-117148028D01*
X135762522Y-117148028D02*
X135822046Y-117052790D01*
X135822046Y-117052790D02*
X135875617Y-117005171D01*
X135875617Y-117005171D02*
X135976808Y-116957552D01*
X135976808Y-116957552D02*
X136119665Y-116957552D01*
X136119665Y-116957552D02*
X136208951Y-117005171D01*
X136208951Y-117005171D02*
X136250617Y-117052790D01*
X136250617Y-117052790D02*
X136286332Y-117148028D01*
X136286332Y-117148028D02*
X136250617Y-117433742D01*
X136250617Y-117433742D02*
X136191094Y-117528980D01*
X136191094Y-117528980D02*
X136137522Y-117576600D01*
X136137522Y-117576600D02*
X136036332Y-117624219D01*
X136036332Y-117624219D02*
X135893475Y-117624219D01*
X136738713Y-116957552D02*
X136655379Y-117624219D01*
X136726808Y-117052790D02*
X136780379Y-117005171D01*
X136780379Y-117005171D02*
X136881570Y-116957552D01*
X136881570Y-116957552D02*
X137024427Y-116957552D01*
X137024427Y-116957552D02*
X137113713Y-117005171D01*
X137113713Y-117005171D02*
X137149427Y-117100409D01*
X137149427Y-117100409D02*
X137083951Y-117624219D01*
X138720856Y-117100409D02*
X138387523Y-117100409D01*
X138322046Y-117624219D02*
X138447046Y-116624219D01*
X138447046Y-116624219D02*
X138923237Y-116624219D01*
X140351809Y-116624219D02*
X140262523Y-117338504D01*
X140262523Y-117338504D02*
X140197047Y-117481361D01*
X140197047Y-117481361D02*
X140089904Y-117576600D01*
X140089904Y-117576600D02*
X139941094Y-117624219D01*
X139941094Y-117624219D02*
X139845856Y-117624219D01*
X142256571Y-116624219D02*
X142875619Y-116624219D01*
X142875619Y-116624219D02*
X142494667Y-117005171D01*
X142494667Y-117005171D02*
X142637524Y-117005171D01*
X142637524Y-117005171D02*
X142726809Y-117052790D01*
X142726809Y-117052790D02*
X142768476Y-117100409D01*
X142768476Y-117100409D02*
X142804190Y-117195647D01*
X142804190Y-117195647D02*
X142774428Y-117433742D01*
X142774428Y-117433742D02*
X142714905Y-117528980D01*
X142714905Y-117528980D02*
X142661333Y-117576600D01*
X142661333Y-117576600D02*
X142560143Y-117624219D01*
X142560143Y-117624219D02*
X142274428Y-117624219D01*
X142274428Y-117624219D02*
X142185143Y-117576600D01*
X142185143Y-117576600D02*
X142143476Y-117528980D01*
X143703000Y-117624219D02*
X143131571Y-117624219D01*
X143417286Y-117624219D02*
X143542286Y-116624219D01*
X143542286Y-116624219D02*
X143429190Y-116767076D01*
X143429190Y-116767076D02*
X143322048Y-116862314D01*
X143322048Y-116862314D02*
X143220857Y-116909933D01*
X144447048Y-116624219D02*
X144542286Y-116624219D01*
X144542286Y-116624219D02*
X144631571Y-116671838D01*
X144631571Y-116671838D02*
X144673238Y-116719457D01*
X144673238Y-116719457D02*
X144708952Y-116814695D01*
X144708952Y-116814695D02*
X144732762Y-117005171D01*
X144732762Y-117005171D02*
X144703000Y-117243266D01*
X144703000Y-117243266D02*
X144631571Y-117433742D01*
X144631571Y-117433742D02*
X144572048Y-117528980D01*
X144572048Y-117528980D02*
X144518476Y-117576600D01*
X144518476Y-117576600D02*
X144417286Y-117624219D01*
X144417286Y-117624219D02*
X144322048Y-117624219D01*
X144322048Y-117624219D02*
X144232762Y-117576600D01*
X144232762Y-117576600D02*
X144191095Y-117528980D01*
X144191095Y-117528980D02*
X144155381Y-117433742D01*
X144155381Y-117433742D02*
X144131571Y-117243266D01*
X144131571Y-117243266D02*
X144161333Y-117005171D01*
X144161333Y-117005171D02*
X144232762Y-116814695D01*
X144232762Y-116814695D02*
X144292286Y-116719457D01*
X144292286Y-116719457D02*
X144345857Y-116671838D01*
X144345857Y-116671838D02*
X144447048Y-116624219D01*
X145399429Y-116624219D02*
X145494667Y-116624219D01*
X145494667Y-116624219D02*
X145583952Y-116671838D01*
X145583952Y-116671838D02*
X145625619Y-116719457D01*
X145625619Y-116719457D02*
X145661333Y-116814695D01*
X145661333Y-116814695D02*
X145685143Y-117005171D01*
X145685143Y-117005171D02*
X145655381Y-117243266D01*
X145655381Y-117243266D02*
X145583952Y-117433742D01*
X145583952Y-117433742D02*
X145524429Y-117528980D01*
X145524429Y-117528980D02*
X145470857Y-117576600D01*
X145470857Y-117576600D02*
X145369667Y-117624219D01*
X145369667Y-117624219D02*
X145274429Y-117624219D01*
X145274429Y-117624219D02*
X145185143Y-117576600D01*
X145185143Y-117576600D02*
X145143476Y-117528980D01*
X145143476Y-117528980D02*
X145107762Y-117433742D01*
X145107762Y-117433742D02*
X145083952Y-117243266D01*
X145083952Y-117243266D02*
X145113714Y-117005171D01*
X145113714Y-117005171D02*
X145185143Y-116814695D01*
X145185143Y-116814695D02*
X145244667Y-116719457D01*
X145244667Y-116719457D02*
X145298238Y-116671838D01*
X145298238Y-116671838D02*
X145399429Y-116624219D01*
X146637524Y-116624219D02*
X146161333Y-116624219D01*
X146161333Y-116624219D02*
X146054191Y-117100409D01*
X146054191Y-117100409D02*
X146107762Y-117052790D01*
X146107762Y-117052790D02*
X146208952Y-117005171D01*
X146208952Y-117005171D02*
X146447048Y-117005171D01*
X146447048Y-117005171D02*
X146536333Y-117052790D01*
X146536333Y-117052790D02*
X146578000Y-117100409D01*
X146578000Y-117100409D02*
X146613714Y-117195647D01*
X146613714Y-117195647D02*
X146583952Y-117433742D01*
X146583952Y-117433742D02*
X146524429Y-117528980D01*
X146524429Y-117528980D02*
X146470857Y-117576600D01*
X146470857Y-117576600D02*
X146369667Y-117624219D01*
X146369667Y-117624219D02*
X146131571Y-117624219D01*
X146131571Y-117624219D02*
X146042286Y-117576600D01*
X146042286Y-117576600D02*
X146000619Y-117528980D01*
X147512524Y-117624219D02*
X146941095Y-117624219D01*
X147226810Y-117624219D02*
X147351810Y-116624219D01*
X147351810Y-116624219D02*
X147238714Y-116767076D01*
X147238714Y-116767076D02*
X147131572Y-116862314D01*
X147131572Y-116862314D02*
X147030381Y-116909933D01*
X147970857Y-116624219D02*
X148589905Y-116624219D01*
X148589905Y-116624219D02*
X148208953Y-117005171D01*
X148208953Y-117005171D02*
X148351810Y-117005171D01*
X148351810Y-117005171D02*
X148441095Y-117052790D01*
X148441095Y-117052790D02*
X148482762Y-117100409D01*
X148482762Y-117100409D02*
X148518476Y-117195647D01*
X148518476Y-117195647D02*
X148488714Y-117433742D01*
X148488714Y-117433742D02*
X148429191Y-117528980D01*
X148429191Y-117528980D02*
X148375619Y-117576600D01*
X148375619Y-117576600D02*
X148274429Y-117624219D01*
X148274429Y-117624219D02*
X147988714Y-117624219D01*
X147988714Y-117624219D02*
X147899429Y-117576600D01*
X147899429Y-117576600D02*
X147857762Y-117528980D01*
X150956228Y-110851771D02*
X151432419Y-110851771D01*
X150432419Y-111185104D02*
X150956228Y-110851771D01*
X150956228Y-110851771D02*
X150432419Y-110518438D01*
X150527657Y-110232723D02*
X150480038Y-110185104D01*
X150480038Y-110185104D02*
X150432419Y-110089866D01*
X150432419Y-110089866D02*
X150432419Y-109851771D01*
X150432419Y-109851771D02*
X150480038Y-109756533D01*
X150480038Y-109756533D02*
X150527657Y-109708914D01*
X150527657Y-109708914D02*
X150622895Y-109661295D01*
X150622895Y-109661295D02*
X150718133Y-109661295D01*
X150718133Y-109661295D02*
X150860990Y-109708914D01*
X150860990Y-109708914D02*
X151432419Y-110280342D01*
X151432419Y-110280342D02*
X151432419Y-109661295D01*
X150432419Y-109042247D02*
X150432419Y-108947009D01*
X150432419Y-108947009D02*
X150480038Y-108851771D01*
X150480038Y-108851771D02*
X150527657Y-108804152D01*
X150527657Y-108804152D02*
X150622895Y-108756533D01*
X150622895Y-108756533D02*
X150813371Y-108708914D01*
X150813371Y-108708914D02*
X151051466Y-108708914D01*
X151051466Y-108708914D02*
X151241942Y-108756533D01*
X151241942Y-108756533D02*
X151337180Y-108804152D01*
X151337180Y-108804152D02*
X151384800Y-108851771D01*
X151384800Y-108851771D02*
X151432419Y-108947009D01*
X151432419Y-108947009D02*
X151432419Y-109042247D01*
X151432419Y-109042247D02*
X151384800Y-109137485D01*
X151384800Y-109137485D02*
X151337180Y-109185104D01*
X151337180Y-109185104D02*
X151241942Y-109232723D01*
X151241942Y-109232723D02*
X151051466Y-109280342D01*
X151051466Y-109280342D02*
X150813371Y-109280342D01*
X150813371Y-109280342D02*
X150622895Y-109232723D01*
X150622895Y-109232723D02*
X150527657Y-109185104D01*
X150527657Y-109185104D02*
X150480038Y-109137485D01*
X150480038Y-109137485D02*
X150432419Y-109042247D01*
X151432419Y-107756533D02*
X151432419Y-108327961D01*
X151432419Y-108042247D02*
X150432419Y-108042247D01*
X150432419Y-108042247D02*
X150575276Y-108137485D01*
X150575276Y-108137485D02*
X150670514Y-108232723D01*
X150670514Y-108232723D02*
X150718133Y-108327961D01*
X170130933Y-87652019D02*
X169797600Y-87175828D01*
X169559505Y-87652019D02*
X169559505Y-86652019D01*
X169559505Y-86652019D02*
X169940457Y-86652019D01*
X169940457Y-86652019D02*
X170035695Y-86699638D01*
X170035695Y-86699638D02*
X170083314Y-86747257D01*
X170083314Y-86747257D02*
X170130933Y-86842495D01*
X170130933Y-86842495D02*
X170130933Y-86985352D01*
X170130933Y-86985352D02*
X170083314Y-87080590D01*
X170083314Y-87080590D02*
X170035695Y-87128209D01*
X170035695Y-87128209D02*
X169940457Y-87175828D01*
X169940457Y-87175828D02*
X169559505Y-87175828D01*
X171130933Y-87556780D02*
X171083314Y-87604400D01*
X171083314Y-87604400D02*
X170940457Y-87652019D01*
X170940457Y-87652019D02*
X170845219Y-87652019D01*
X170845219Y-87652019D02*
X170702362Y-87604400D01*
X170702362Y-87604400D02*
X170607124Y-87509161D01*
X170607124Y-87509161D02*
X170559505Y-87413923D01*
X170559505Y-87413923D02*
X170511886Y-87223447D01*
X170511886Y-87223447D02*
X170511886Y-87080590D01*
X170511886Y-87080590D02*
X170559505Y-86890114D01*
X170559505Y-86890114D02*
X170607124Y-86794876D01*
X170607124Y-86794876D02*
X170702362Y-86699638D01*
X170702362Y-86699638D02*
X170845219Y-86652019D01*
X170845219Y-86652019D02*
X170940457Y-86652019D01*
X170940457Y-86652019D02*
X171083314Y-86699638D01*
X171083314Y-86699638D02*
X171130933Y-86747257D01*
X171559505Y-87652019D02*
X171559505Y-86652019D01*
X171559505Y-86652019D02*
X171797600Y-86652019D01*
X171797600Y-86652019D02*
X171940457Y-86699638D01*
X171940457Y-86699638D02*
X172035695Y-86794876D01*
X172035695Y-86794876D02*
X172083314Y-86890114D01*
X172083314Y-86890114D02*
X172130933Y-87080590D01*
X172130933Y-87080590D02*
X172130933Y-87223447D01*
X172130933Y-87223447D02*
X172083314Y-87413923D01*
X172083314Y-87413923D02*
X172035695Y-87509161D01*
X172035695Y-87509161D02*
X171940457Y-87604400D01*
X171940457Y-87604400D02*
X171797600Y-87652019D01*
X171797600Y-87652019D02*
X171559505Y-87652019D01*
X173083314Y-87652019D02*
X172511886Y-87652019D01*
X172797600Y-87652019D02*
X172797600Y-86652019D01*
X172797600Y-86652019D02*
X172702362Y-86794876D01*
X172702362Y-86794876D02*
X172607124Y-86890114D01*
X172607124Y-86890114D02*
X172511886Y-86937733D01*
X132484019Y-111250170D02*
X131484019Y-111250170D01*
X132388780Y-110202552D02*
X132436400Y-110250171D01*
X132436400Y-110250171D02*
X132484019Y-110393028D01*
X132484019Y-110393028D02*
X132484019Y-110488266D01*
X132484019Y-110488266D02*
X132436400Y-110631123D01*
X132436400Y-110631123D02*
X132341161Y-110726361D01*
X132341161Y-110726361D02*
X132245923Y-110773980D01*
X132245923Y-110773980D02*
X132055447Y-110821599D01*
X132055447Y-110821599D02*
X131912590Y-110821599D01*
X131912590Y-110821599D02*
X131722114Y-110773980D01*
X131722114Y-110773980D02*
X131626876Y-110726361D01*
X131626876Y-110726361D02*
X131531638Y-110631123D01*
X131531638Y-110631123D02*
X131484019Y-110488266D01*
X131484019Y-110488266D02*
X131484019Y-110393028D01*
X131484019Y-110393028D02*
X131531638Y-110250171D01*
X131531638Y-110250171D02*
X131579257Y-110202552D01*
X131579257Y-109821599D02*
X131531638Y-109773980D01*
X131531638Y-109773980D02*
X131484019Y-109678742D01*
X131484019Y-109678742D02*
X131484019Y-109440647D01*
X131484019Y-109440647D02*
X131531638Y-109345409D01*
X131531638Y-109345409D02*
X131579257Y-109297790D01*
X131579257Y-109297790D02*
X131674495Y-109250171D01*
X131674495Y-109250171D02*
X131769733Y-109250171D01*
X131769733Y-109250171D02*
X131912590Y-109297790D01*
X131912590Y-109297790D02*
X132484019Y-109869218D01*
X132484019Y-109869218D02*
X132484019Y-109250171D01*
X131484019Y-108631123D02*
X131484019Y-108535885D01*
X131484019Y-108535885D02*
X131531638Y-108440647D01*
X131531638Y-108440647D02*
X131579257Y-108393028D01*
X131579257Y-108393028D02*
X131674495Y-108345409D01*
X131674495Y-108345409D02*
X131864971Y-108297790D01*
X131864971Y-108297790D02*
X132103066Y-108297790D01*
X132103066Y-108297790D02*
X132293542Y-108345409D01*
X132293542Y-108345409D02*
X132388780Y-108393028D01*
X132388780Y-108393028D02*
X132436400Y-108440647D01*
X132436400Y-108440647D02*
X132484019Y-108535885D01*
X132484019Y-108535885D02*
X132484019Y-108631123D01*
X132484019Y-108631123D02*
X132436400Y-108726361D01*
X132436400Y-108726361D02*
X132388780Y-108773980D01*
X132388780Y-108773980D02*
X132293542Y-108821599D01*
X132293542Y-108821599D02*
X132103066Y-108869218D01*
X132103066Y-108869218D02*
X131864971Y-108869218D01*
X131864971Y-108869218D02*
X131674495Y-108821599D01*
X131674495Y-108821599D02*
X131579257Y-108773980D01*
X131579257Y-108773980D02*
X131531638Y-108726361D01*
X131531638Y-108726361D02*
X131484019Y-108631123D01*
X131579257Y-107916837D02*
X131531638Y-107869218D01*
X131531638Y-107869218D02*
X131484019Y-107773980D01*
X131484019Y-107773980D02*
X131484019Y-107535885D01*
X131484019Y-107535885D02*
X131531638Y-107440647D01*
X131531638Y-107440647D02*
X131579257Y-107393028D01*
X131579257Y-107393028D02*
X131674495Y-107345409D01*
X131674495Y-107345409D02*
X131769733Y-107345409D01*
X131769733Y-107345409D02*
X131912590Y-107393028D01*
X131912590Y-107393028D02*
X132484019Y-107964456D01*
X132484019Y-107964456D02*
X132484019Y-107345409D01*
X116294819Y-103647714D02*
X117009104Y-103647714D01*
X117009104Y-103647714D02*
X117151961Y-103695333D01*
X117151961Y-103695333D02*
X117247200Y-103790571D01*
X117247200Y-103790571D02*
X117294819Y-103933428D01*
X117294819Y-103933428D02*
X117294819Y-104028666D01*
X117294819Y-102647714D02*
X117294819Y-103219142D01*
X117294819Y-102933428D02*
X116294819Y-102933428D01*
X116294819Y-102933428D02*
X116437676Y-103028666D01*
X116437676Y-103028666D02*
X116532914Y-103123904D01*
X116532914Y-103123904D02*
X116580533Y-103219142D01*
X116294819Y-102028666D02*
X116294819Y-101933428D01*
X116294819Y-101933428D02*
X116342438Y-101838190D01*
X116342438Y-101838190D02*
X116390057Y-101790571D01*
X116390057Y-101790571D02*
X116485295Y-101742952D01*
X116485295Y-101742952D02*
X116675771Y-101695333D01*
X116675771Y-101695333D02*
X116913866Y-101695333D01*
X116913866Y-101695333D02*
X117104342Y-101742952D01*
X117104342Y-101742952D02*
X117199580Y-101790571D01*
X117199580Y-101790571D02*
X117247200Y-101838190D01*
X117247200Y-101838190D02*
X117294819Y-101933428D01*
X117294819Y-101933428D02*
X117294819Y-102028666D01*
X117294819Y-102028666D02*
X117247200Y-102123904D01*
X117247200Y-102123904D02*
X117199580Y-102171523D01*
X117199580Y-102171523D02*
X117104342Y-102219142D01*
X117104342Y-102219142D02*
X116913866Y-102266761D01*
X116913866Y-102266761D02*
X116675771Y-102266761D01*
X116675771Y-102266761D02*
X116485295Y-102219142D01*
X116485295Y-102219142D02*
X116390057Y-102171523D01*
X116390057Y-102171523D02*
X116342438Y-102123904D01*
X116342438Y-102123904D02*
X116294819Y-102028666D01*
X117294819Y-100742952D02*
X117294819Y-101314380D01*
X117294819Y-101028666D02*
X116294819Y-101028666D01*
X116294819Y-101028666D02*
X116437676Y-101123904D01*
X116437676Y-101123904D02*
X116532914Y-101219142D01*
X116532914Y-101219142D02*
X116580533Y-101314380D01*
X163218019Y-104425619D02*
X162741828Y-104758952D01*
X163218019Y-104997047D02*
X162218019Y-104997047D01*
X162218019Y-104997047D02*
X162218019Y-104616095D01*
X162218019Y-104616095D02*
X162265638Y-104520857D01*
X162265638Y-104520857D02*
X162313257Y-104473238D01*
X162313257Y-104473238D02*
X162408495Y-104425619D01*
X162408495Y-104425619D02*
X162551352Y-104425619D01*
X162551352Y-104425619D02*
X162646590Y-104473238D01*
X162646590Y-104473238D02*
X162694209Y-104520857D01*
X162694209Y-104520857D02*
X162741828Y-104616095D01*
X162741828Y-104616095D02*
X162741828Y-104997047D01*
X163170400Y-104044666D02*
X163218019Y-103949428D01*
X163218019Y-103949428D02*
X163218019Y-103758952D01*
X163218019Y-103758952D02*
X163170400Y-103663714D01*
X163170400Y-103663714D02*
X163075161Y-103616095D01*
X163075161Y-103616095D02*
X163027542Y-103616095D01*
X163027542Y-103616095D02*
X162932304Y-103663714D01*
X162932304Y-103663714D02*
X162884685Y-103758952D01*
X162884685Y-103758952D02*
X162884685Y-103901809D01*
X162884685Y-103901809D02*
X162837066Y-103997047D01*
X162837066Y-103997047D02*
X162741828Y-104044666D01*
X162741828Y-104044666D02*
X162694209Y-104044666D01*
X162694209Y-104044666D02*
X162598971Y-103997047D01*
X162598971Y-103997047D02*
X162551352Y-103901809D01*
X162551352Y-103901809D02*
X162551352Y-103758952D01*
X162551352Y-103758952D02*
X162598971Y-103663714D01*
X162218019Y-102997047D02*
X162218019Y-102901809D01*
X162218019Y-102901809D02*
X162265638Y-102806571D01*
X162265638Y-102806571D02*
X162313257Y-102758952D01*
X162313257Y-102758952D02*
X162408495Y-102711333D01*
X162408495Y-102711333D02*
X162598971Y-102663714D01*
X162598971Y-102663714D02*
X162837066Y-102663714D01*
X162837066Y-102663714D02*
X163027542Y-102711333D01*
X163027542Y-102711333D02*
X163122780Y-102758952D01*
X163122780Y-102758952D02*
X163170400Y-102806571D01*
X163170400Y-102806571D02*
X163218019Y-102901809D01*
X163218019Y-102901809D02*
X163218019Y-102997047D01*
X163218019Y-102997047D02*
X163170400Y-103092285D01*
X163170400Y-103092285D02*
X163122780Y-103139904D01*
X163122780Y-103139904D02*
X163027542Y-103187523D01*
X163027542Y-103187523D02*
X162837066Y-103235142D01*
X162837066Y-103235142D02*
X162598971Y-103235142D01*
X162598971Y-103235142D02*
X162408495Y-103187523D01*
X162408495Y-103187523D02*
X162313257Y-103139904D01*
X162313257Y-103139904D02*
X162265638Y-103092285D01*
X162265638Y-103092285D02*
X162218019Y-102997047D01*
X162551352Y-101806571D02*
X163218019Y-101806571D01*
X162170400Y-102044666D02*
X162884685Y-102282761D01*
X162884685Y-102282761D02*
X162884685Y-101663714D01*
X174720380Y-101597619D02*
X174387047Y-101121428D01*
X174148952Y-101597619D02*
X174148952Y-100597619D01*
X174148952Y-100597619D02*
X174529904Y-100597619D01*
X174529904Y-100597619D02*
X174625142Y-100645238D01*
X174625142Y-100645238D02*
X174672761Y-100692857D01*
X174672761Y-100692857D02*
X174720380Y-100788095D01*
X174720380Y-100788095D02*
X174720380Y-100930952D01*
X174720380Y-100930952D02*
X174672761Y-101026190D01*
X174672761Y-101026190D02*
X174625142Y-101073809D01*
X174625142Y-101073809D02*
X174529904Y-101121428D01*
X174529904Y-101121428D02*
X174148952Y-101121428D01*
X175101333Y-101550000D02*
X175196571Y-101597619D01*
X175196571Y-101597619D02*
X175387047Y-101597619D01*
X175387047Y-101597619D02*
X175482285Y-101550000D01*
X175482285Y-101550000D02*
X175529904Y-101454761D01*
X175529904Y-101454761D02*
X175529904Y-101407142D01*
X175529904Y-101407142D02*
X175482285Y-101311904D01*
X175482285Y-101311904D02*
X175387047Y-101264285D01*
X175387047Y-101264285D02*
X175244190Y-101264285D01*
X175244190Y-101264285D02*
X175148952Y-101216666D01*
X175148952Y-101216666D02*
X175101333Y-101121428D01*
X175101333Y-101121428D02*
X175101333Y-101073809D01*
X175101333Y-101073809D02*
X175148952Y-100978571D01*
X175148952Y-100978571D02*
X175244190Y-100930952D01*
X175244190Y-100930952D02*
X175387047Y-100930952D01*
X175387047Y-100930952D02*
X175482285Y-100978571D01*
X176148952Y-100597619D02*
X176244190Y-100597619D01*
X176244190Y-100597619D02*
X176339428Y-100645238D01*
X176339428Y-100645238D02*
X176387047Y-100692857D01*
X176387047Y-100692857D02*
X176434666Y-100788095D01*
X176434666Y-100788095D02*
X176482285Y-100978571D01*
X176482285Y-100978571D02*
X176482285Y-101216666D01*
X176482285Y-101216666D02*
X176434666Y-101407142D01*
X176434666Y-101407142D02*
X176387047Y-101502380D01*
X176387047Y-101502380D02*
X176339428Y-101550000D01*
X176339428Y-101550000D02*
X176244190Y-101597619D01*
X176244190Y-101597619D02*
X176148952Y-101597619D01*
X176148952Y-101597619D02*
X176053714Y-101550000D01*
X176053714Y-101550000D02*
X176006095Y-101502380D01*
X176006095Y-101502380D02*
X175958476Y-101407142D01*
X175958476Y-101407142D02*
X175910857Y-101216666D01*
X175910857Y-101216666D02*
X175910857Y-100978571D01*
X175910857Y-100978571D02*
X175958476Y-100788095D01*
X175958476Y-100788095D02*
X176006095Y-100692857D01*
X176006095Y-100692857D02*
X176053714Y-100645238D01*
X176053714Y-100645238D02*
X176148952Y-100597619D01*
X176863238Y-100692857D02*
X176910857Y-100645238D01*
X176910857Y-100645238D02*
X177006095Y-100597619D01*
X177006095Y-100597619D02*
X177244190Y-100597619D01*
X177244190Y-100597619D02*
X177339428Y-100645238D01*
X177339428Y-100645238D02*
X177387047Y-100692857D01*
X177387047Y-100692857D02*
X177434666Y-100788095D01*
X177434666Y-100788095D02*
X177434666Y-100883333D01*
X177434666Y-100883333D02*
X177387047Y-101026190D01*
X177387047Y-101026190D02*
X176815619Y-101597619D01*
X176815619Y-101597619D02*
X177434666Y-101597619D01*
X174720380Y-109370019D02*
X174387047Y-108893828D01*
X174148952Y-109370019D02*
X174148952Y-108370019D01*
X174148952Y-108370019D02*
X174529904Y-108370019D01*
X174529904Y-108370019D02*
X174625142Y-108417638D01*
X174625142Y-108417638D02*
X174672761Y-108465257D01*
X174672761Y-108465257D02*
X174720380Y-108560495D01*
X174720380Y-108560495D02*
X174720380Y-108703352D01*
X174720380Y-108703352D02*
X174672761Y-108798590D01*
X174672761Y-108798590D02*
X174625142Y-108846209D01*
X174625142Y-108846209D02*
X174529904Y-108893828D01*
X174529904Y-108893828D02*
X174148952Y-108893828D01*
X175101333Y-109322400D02*
X175196571Y-109370019D01*
X175196571Y-109370019D02*
X175387047Y-109370019D01*
X175387047Y-109370019D02*
X175482285Y-109322400D01*
X175482285Y-109322400D02*
X175529904Y-109227161D01*
X175529904Y-109227161D02*
X175529904Y-109179542D01*
X175529904Y-109179542D02*
X175482285Y-109084304D01*
X175482285Y-109084304D02*
X175387047Y-109036685D01*
X175387047Y-109036685D02*
X175244190Y-109036685D01*
X175244190Y-109036685D02*
X175148952Y-108989066D01*
X175148952Y-108989066D02*
X175101333Y-108893828D01*
X175101333Y-108893828D02*
X175101333Y-108846209D01*
X175101333Y-108846209D02*
X175148952Y-108750971D01*
X175148952Y-108750971D02*
X175244190Y-108703352D01*
X175244190Y-108703352D02*
X175387047Y-108703352D01*
X175387047Y-108703352D02*
X175482285Y-108750971D01*
X176148952Y-108370019D02*
X176244190Y-108370019D01*
X176244190Y-108370019D02*
X176339428Y-108417638D01*
X176339428Y-108417638D02*
X176387047Y-108465257D01*
X176387047Y-108465257D02*
X176434666Y-108560495D01*
X176434666Y-108560495D02*
X176482285Y-108750971D01*
X176482285Y-108750971D02*
X176482285Y-108989066D01*
X176482285Y-108989066D02*
X176434666Y-109179542D01*
X176434666Y-109179542D02*
X176387047Y-109274780D01*
X176387047Y-109274780D02*
X176339428Y-109322400D01*
X176339428Y-109322400D02*
X176244190Y-109370019D01*
X176244190Y-109370019D02*
X176148952Y-109370019D01*
X176148952Y-109370019D02*
X176053714Y-109322400D01*
X176053714Y-109322400D02*
X176006095Y-109274780D01*
X176006095Y-109274780D02*
X175958476Y-109179542D01*
X175958476Y-109179542D02*
X175910857Y-108989066D01*
X175910857Y-108989066D02*
X175910857Y-108750971D01*
X175910857Y-108750971D02*
X175958476Y-108560495D01*
X175958476Y-108560495D02*
X176006095Y-108465257D01*
X176006095Y-108465257D02*
X176053714Y-108417638D01*
X176053714Y-108417638D02*
X176148952Y-108370019D01*
X177434666Y-109370019D02*
X176863238Y-109370019D01*
X177148952Y-109370019D02*
X177148952Y-108370019D01*
X177148952Y-108370019D02*
X177053714Y-108512876D01*
X177053714Y-108512876D02*
X176958476Y-108608114D01*
X176958476Y-108608114D02*
X176863238Y-108655733D01*
X174540057Y-94646619D02*
X174492438Y-94741857D01*
X174492438Y-94741857D02*
X174397200Y-94837095D01*
X174397200Y-94837095D02*
X174254342Y-94979952D01*
X174254342Y-94979952D02*
X174206723Y-95075190D01*
X174206723Y-95075190D02*
X174206723Y-95170428D01*
X174444819Y-95122809D02*
X174397200Y-95218047D01*
X174397200Y-95218047D02*
X174301961Y-95313285D01*
X174301961Y-95313285D02*
X174111485Y-95360904D01*
X174111485Y-95360904D02*
X173778152Y-95360904D01*
X173778152Y-95360904D02*
X173587676Y-95313285D01*
X173587676Y-95313285D02*
X173492438Y-95218047D01*
X173492438Y-95218047D02*
X173444819Y-95122809D01*
X173444819Y-95122809D02*
X173444819Y-94932333D01*
X173444819Y-94932333D02*
X173492438Y-94837095D01*
X173492438Y-94837095D02*
X173587676Y-94741857D01*
X173587676Y-94741857D02*
X173778152Y-94694238D01*
X173778152Y-94694238D02*
X174111485Y-94694238D01*
X174111485Y-94694238D02*
X174301961Y-94741857D01*
X174301961Y-94741857D02*
X174397200Y-94837095D01*
X174397200Y-94837095D02*
X174444819Y-94932333D01*
X174444819Y-94932333D02*
X174444819Y-95122809D01*
X173444819Y-94075190D02*
X173444819Y-93979952D01*
X173444819Y-93979952D02*
X173492438Y-93884714D01*
X173492438Y-93884714D02*
X173540057Y-93837095D01*
X173540057Y-93837095D02*
X173635295Y-93789476D01*
X173635295Y-93789476D02*
X173825771Y-93741857D01*
X173825771Y-93741857D02*
X174063866Y-93741857D01*
X174063866Y-93741857D02*
X174254342Y-93789476D01*
X174254342Y-93789476D02*
X174349580Y-93837095D01*
X174349580Y-93837095D02*
X174397200Y-93884714D01*
X174397200Y-93884714D02*
X174444819Y-93979952D01*
X174444819Y-93979952D02*
X174444819Y-94075190D01*
X174444819Y-94075190D02*
X174397200Y-94170428D01*
X174397200Y-94170428D02*
X174349580Y-94218047D01*
X174349580Y-94218047D02*
X174254342Y-94265666D01*
X174254342Y-94265666D02*
X174063866Y-94313285D01*
X174063866Y-94313285D02*
X173825771Y-94313285D01*
X173825771Y-94313285D02*
X173635295Y-94265666D01*
X173635295Y-94265666D02*
X173540057Y-94218047D01*
X173540057Y-94218047D02*
X173492438Y-94170428D01*
X173492438Y-94170428D02*
X173444819Y-94075190D01*
X173444819Y-93122809D02*
X173444819Y-93027571D01*
X173444819Y-93027571D02*
X173492438Y-92932333D01*
X173492438Y-92932333D02*
X173540057Y-92884714D01*
X173540057Y-92884714D02*
X173635295Y-92837095D01*
X173635295Y-92837095D02*
X173825771Y-92789476D01*
X173825771Y-92789476D02*
X174063866Y-92789476D01*
X174063866Y-92789476D02*
X174254342Y-92837095D01*
X174254342Y-92837095D02*
X174349580Y-92884714D01*
X174349580Y-92884714D02*
X174397200Y-92932333D01*
X174397200Y-92932333D02*
X174444819Y-93027571D01*
X174444819Y-93027571D02*
X174444819Y-93122809D01*
X174444819Y-93122809D02*
X174397200Y-93218047D01*
X174397200Y-93218047D02*
X174349580Y-93265666D01*
X174349580Y-93265666D02*
X174254342Y-93313285D01*
X174254342Y-93313285D02*
X174063866Y-93360904D01*
X174063866Y-93360904D02*
X173825771Y-93360904D01*
X173825771Y-93360904D02*
X173635295Y-93313285D01*
X173635295Y-93313285D02*
X173540057Y-93265666D01*
X173540057Y-93265666D02*
X173492438Y-93218047D01*
X173492438Y-93218047D02*
X173444819Y-93122809D01*
X174444819Y-91837095D02*
X174444819Y-92408523D01*
X174444819Y-92122809D02*
X173444819Y-92122809D01*
X173444819Y-92122809D02*
X173587676Y-92218047D01*
X173587676Y-92218047D02*
X173682914Y-92313285D01*
X173682914Y-92313285D02*
X173730533Y-92408523D01*
X145137429Y-97990819D02*
X145137429Y-96990819D01*
X146185047Y-97895580D02*
X146137428Y-97943200D01*
X146137428Y-97943200D02*
X145994571Y-97990819D01*
X145994571Y-97990819D02*
X145899333Y-97990819D01*
X145899333Y-97990819D02*
X145756476Y-97943200D01*
X145756476Y-97943200D02*
X145661238Y-97847961D01*
X145661238Y-97847961D02*
X145613619Y-97752723D01*
X145613619Y-97752723D02*
X145566000Y-97562247D01*
X145566000Y-97562247D02*
X145566000Y-97419390D01*
X145566000Y-97419390D02*
X145613619Y-97228914D01*
X145613619Y-97228914D02*
X145661238Y-97133676D01*
X145661238Y-97133676D02*
X145756476Y-97038438D01*
X145756476Y-97038438D02*
X145899333Y-96990819D01*
X145899333Y-96990819D02*
X145994571Y-96990819D01*
X145994571Y-96990819D02*
X146137428Y-97038438D01*
X146137428Y-97038438D02*
X146185047Y-97086057D01*
X146566000Y-97086057D02*
X146613619Y-97038438D01*
X146613619Y-97038438D02*
X146708857Y-96990819D01*
X146708857Y-96990819D02*
X146946952Y-96990819D01*
X146946952Y-96990819D02*
X147042190Y-97038438D01*
X147042190Y-97038438D02*
X147089809Y-97086057D01*
X147089809Y-97086057D02*
X147137428Y-97181295D01*
X147137428Y-97181295D02*
X147137428Y-97276533D01*
X147137428Y-97276533D02*
X147089809Y-97419390D01*
X147089809Y-97419390D02*
X146518381Y-97990819D01*
X146518381Y-97990819D02*
X147137428Y-97990819D01*
X147756476Y-96990819D02*
X147851714Y-96990819D01*
X147851714Y-96990819D02*
X147946952Y-97038438D01*
X147946952Y-97038438D02*
X147994571Y-97086057D01*
X147994571Y-97086057D02*
X148042190Y-97181295D01*
X148042190Y-97181295D02*
X148089809Y-97371771D01*
X148089809Y-97371771D02*
X148089809Y-97609866D01*
X148089809Y-97609866D02*
X148042190Y-97800342D01*
X148042190Y-97800342D02*
X147994571Y-97895580D01*
X147994571Y-97895580D02*
X147946952Y-97943200D01*
X147946952Y-97943200D02*
X147851714Y-97990819D01*
X147851714Y-97990819D02*
X147756476Y-97990819D01*
X147756476Y-97990819D02*
X147661238Y-97943200D01*
X147661238Y-97943200D02*
X147613619Y-97895580D01*
X147613619Y-97895580D02*
X147566000Y-97800342D01*
X147566000Y-97800342D02*
X147518381Y-97609866D01*
X147518381Y-97609866D02*
X147518381Y-97371771D01*
X147518381Y-97371771D02*
X147566000Y-97181295D01*
X147566000Y-97181295D02*
X147613619Y-97086057D01*
X147613619Y-97086057D02*
X147661238Y-97038438D01*
X147661238Y-97038438D02*
X147756476Y-96990819D01*
X149042190Y-97990819D02*
X148470762Y-97990819D01*
X148756476Y-97990819D02*
X148756476Y-96990819D01*
X148756476Y-96990819D02*
X148661238Y-97133676D01*
X148661238Y-97133676D02*
X148566000Y-97228914D01*
X148566000Y-97228914D02*
X148470762Y-97276533D01*
X155703829Y-98498819D02*
X155703829Y-97498819D01*
X156751447Y-98403580D02*
X156703828Y-98451200D01*
X156703828Y-98451200D02*
X156560971Y-98498819D01*
X156560971Y-98498819D02*
X156465733Y-98498819D01*
X156465733Y-98498819D02*
X156322876Y-98451200D01*
X156322876Y-98451200D02*
X156227638Y-98355961D01*
X156227638Y-98355961D02*
X156180019Y-98260723D01*
X156180019Y-98260723D02*
X156132400Y-98070247D01*
X156132400Y-98070247D02*
X156132400Y-97927390D01*
X156132400Y-97927390D02*
X156180019Y-97736914D01*
X156180019Y-97736914D02*
X156227638Y-97641676D01*
X156227638Y-97641676D02*
X156322876Y-97546438D01*
X156322876Y-97546438D02*
X156465733Y-97498819D01*
X156465733Y-97498819D02*
X156560971Y-97498819D01*
X156560971Y-97498819D02*
X156703828Y-97546438D01*
X156703828Y-97546438D02*
X156751447Y-97594057D01*
X157608590Y-97832152D02*
X157608590Y-98498819D01*
X157370495Y-97451200D02*
X157132400Y-98165485D01*
X157132400Y-98165485D02*
X157751447Y-98165485D01*
X158322876Y-97498819D02*
X158418114Y-97498819D01*
X158418114Y-97498819D02*
X158513352Y-97546438D01*
X158513352Y-97546438D02*
X158560971Y-97594057D01*
X158560971Y-97594057D02*
X158608590Y-97689295D01*
X158608590Y-97689295D02*
X158656209Y-97879771D01*
X158656209Y-97879771D02*
X158656209Y-98117866D01*
X158656209Y-98117866D02*
X158608590Y-98308342D01*
X158608590Y-98308342D02*
X158560971Y-98403580D01*
X158560971Y-98403580D02*
X158513352Y-98451200D01*
X158513352Y-98451200D02*
X158418114Y-98498819D01*
X158418114Y-98498819D02*
X158322876Y-98498819D01*
X158322876Y-98498819D02*
X158227638Y-98451200D01*
X158227638Y-98451200D02*
X158180019Y-98403580D01*
X158180019Y-98403580D02*
X158132400Y-98308342D01*
X158132400Y-98308342D02*
X158084781Y-98117866D01*
X158084781Y-98117866D02*
X158084781Y-97879771D01*
X158084781Y-97879771D02*
X158132400Y-97689295D01*
X158132400Y-97689295D02*
X158180019Y-97594057D01*
X158180019Y-97594057D02*
X158227638Y-97546438D01*
X158227638Y-97546438D02*
X158322876Y-97498819D01*
X159608590Y-98498819D02*
X159037162Y-98498819D01*
X159322876Y-98498819D02*
X159322876Y-97498819D01*
X159322876Y-97498819D02*
X159227638Y-97641676D01*
X159227638Y-97641676D02*
X159132400Y-97736914D01*
X159132400Y-97736914D02*
X159037162Y-97784533D01*
X165744685Y-107252419D02*
X165744685Y-107966704D01*
X165744685Y-107966704D02*
X165697066Y-108109561D01*
X165697066Y-108109561D02*
X165601828Y-108204800D01*
X165601828Y-108204800D02*
X165458971Y-108252419D01*
X165458971Y-108252419D02*
X165363733Y-108252419D01*
X166125638Y-107252419D02*
X166744685Y-107252419D01*
X166744685Y-107252419D02*
X166411352Y-107633371D01*
X166411352Y-107633371D02*
X166554209Y-107633371D01*
X166554209Y-107633371D02*
X166649447Y-107680990D01*
X166649447Y-107680990D02*
X166697066Y-107728609D01*
X166697066Y-107728609D02*
X166744685Y-107823847D01*
X166744685Y-107823847D02*
X166744685Y-108061942D01*
X166744685Y-108061942D02*
X166697066Y-108157180D01*
X166697066Y-108157180D02*
X166649447Y-108204800D01*
X166649447Y-108204800D02*
X166554209Y-108252419D01*
X166554209Y-108252419D02*
X166268495Y-108252419D01*
X166268495Y-108252419D02*
X166173257Y-108204800D01*
X166173257Y-108204800D02*
X166125638Y-108157180D01*
X167363733Y-107252419D02*
X167458971Y-107252419D01*
X167458971Y-107252419D02*
X167554209Y-107300038D01*
X167554209Y-107300038D02*
X167601828Y-107347657D01*
X167601828Y-107347657D02*
X167649447Y-107442895D01*
X167649447Y-107442895D02*
X167697066Y-107633371D01*
X167697066Y-107633371D02*
X167697066Y-107871466D01*
X167697066Y-107871466D02*
X167649447Y-108061942D01*
X167649447Y-108061942D02*
X167601828Y-108157180D01*
X167601828Y-108157180D02*
X167554209Y-108204800D01*
X167554209Y-108204800D02*
X167458971Y-108252419D01*
X167458971Y-108252419D02*
X167363733Y-108252419D01*
X167363733Y-108252419D02*
X167268495Y-108204800D01*
X167268495Y-108204800D02*
X167220876Y-108157180D01*
X167220876Y-108157180D02*
X167173257Y-108061942D01*
X167173257Y-108061942D02*
X167125638Y-107871466D01*
X167125638Y-107871466D02*
X167125638Y-107633371D01*
X167125638Y-107633371D02*
X167173257Y-107442895D01*
X167173257Y-107442895D02*
X167220876Y-107347657D01*
X167220876Y-107347657D02*
X167268495Y-107300038D01*
X167268495Y-107300038D02*
X167363733Y-107252419D01*
X168649447Y-108252419D02*
X168078019Y-108252419D01*
X168363733Y-108252419D02*
X168363733Y-107252419D01*
X168363733Y-107252419D02*
X168268495Y-107395276D01*
X168268495Y-107395276D02*
X168173257Y-107490514D01*
X168173257Y-107490514D02*
X168078019Y-107538133D01*
X137585580Y-90472419D02*
X137252247Y-89996228D01*
X137014152Y-90472419D02*
X137014152Y-89472419D01*
X137014152Y-89472419D02*
X137395104Y-89472419D01*
X137395104Y-89472419D02*
X137490342Y-89520038D01*
X137490342Y-89520038D02*
X137537961Y-89567657D01*
X137537961Y-89567657D02*
X137585580Y-89662895D01*
X137585580Y-89662895D02*
X137585580Y-89805752D01*
X137585580Y-89805752D02*
X137537961Y-89900990D01*
X137537961Y-89900990D02*
X137490342Y-89948609D01*
X137490342Y-89948609D02*
X137395104Y-89996228D01*
X137395104Y-89996228D02*
X137014152Y-89996228D01*
X137966533Y-90424800D02*
X138061771Y-90472419D01*
X138061771Y-90472419D02*
X138252247Y-90472419D01*
X138252247Y-90472419D02*
X138347485Y-90424800D01*
X138347485Y-90424800D02*
X138395104Y-90329561D01*
X138395104Y-90329561D02*
X138395104Y-90281942D01*
X138395104Y-90281942D02*
X138347485Y-90186704D01*
X138347485Y-90186704D02*
X138252247Y-90139085D01*
X138252247Y-90139085D02*
X138109390Y-90139085D01*
X138109390Y-90139085D02*
X138014152Y-90091466D01*
X138014152Y-90091466D02*
X137966533Y-89996228D01*
X137966533Y-89996228D02*
X137966533Y-89948609D01*
X137966533Y-89948609D02*
X138014152Y-89853371D01*
X138014152Y-89853371D02*
X138109390Y-89805752D01*
X138109390Y-89805752D02*
X138252247Y-89805752D01*
X138252247Y-89805752D02*
X138347485Y-89853371D01*
X139014152Y-89472419D02*
X139109390Y-89472419D01*
X139109390Y-89472419D02*
X139204628Y-89520038D01*
X139204628Y-89520038D02*
X139252247Y-89567657D01*
X139252247Y-89567657D02*
X139299866Y-89662895D01*
X139299866Y-89662895D02*
X139347485Y-89853371D01*
X139347485Y-89853371D02*
X139347485Y-90091466D01*
X139347485Y-90091466D02*
X139299866Y-90281942D01*
X139299866Y-90281942D02*
X139252247Y-90377180D01*
X139252247Y-90377180D02*
X139204628Y-90424800D01*
X139204628Y-90424800D02*
X139109390Y-90472419D01*
X139109390Y-90472419D02*
X139014152Y-90472419D01*
X139014152Y-90472419D02*
X138918914Y-90424800D01*
X138918914Y-90424800D02*
X138871295Y-90377180D01*
X138871295Y-90377180D02*
X138823676Y-90281942D01*
X138823676Y-90281942D02*
X138776057Y-90091466D01*
X138776057Y-90091466D02*
X138776057Y-89853371D01*
X138776057Y-89853371D02*
X138823676Y-89662895D01*
X138823676Y-89662895D02*
X138871295Y-89567657D01*
X138871295Y-89567657D02*
X138918914Y-89520038D01*
X138918914Y-89520038D02*
X139014152Y-89472419D01*
X139680819Y-89472419D02*
X140299866Y-89472419D01*
X140299866Y-89472419D02*
X139966533Y-89853371D01*
X139966533Y-89853371D02*
X140109390Y-89853371D01*
X140109390Y-89853371D02*
X140204628Y-89900990D01*
X140204628Y-89900990D02*
X140252247Y-89948609D01*
X140252247Y-89948609D02*
X140299866Y-90043847D01*
X140299866Y-90043847D02*
X140299866Y-90281942D01*
X140299866Y-90281942D02*
X140252247Y-90377180D01*
X140252247Y-90377180D02*
X140204628Y-90424800D01*
X140204628Y-90424800D02*
X140109390Y-90472419D01*
X140109390Y-90472419D02*
X139823676Y-90472419D01*
X139823676Y-90472419D02*
X139728438Y-90424800D01*
X139728438Y-90424800D02*
X139680819Y-90377180D01*
X131167429Y-90370819D02*
X131167429Y-89370819D01*
X132215047Y-90275580D02*
X132167428Y-90323200D01*
X132167428Y-90323200D02*
X132024571Y-90370819D01*
X132024571Y-90370819D02*
X131929333Y-90370819D01*
X131929333Y-90370819D02*
X131786476Y-90323200D01*
X131786476Y-90323200D02*
X131691238Y-90227961D01*
X131691238Y-90227961D02*
X131643619Y-90132723D01*
X131643619Y-90132723D02*
X131596000Y-89942247D01*
X131596000Y-89942247D02*
X131596000Y-89799390D01*
X131596000Y-89799390D02*
X131643619Y-89608914D01*
X131643619Y-89608914D02*
X131691238Y-89513676D01*
X131691238Y-89513676D02*
X131786476Y-89418438D01*
X131786476Y-89418438D02*
X131929333Y-89370819D01*
X131929333Y-89370819D02*
X132024571Y-89370819D01*
X132024571Y-89370819D02*
X132167428Y-89418438D01*
X132167428Y-89418438D02*
X132215047Y-89466057D01*
X133167428Y-90370819D02*
X132596000Y-90370819D01*
X132881714Y-90370819D02*
X132881714Y-89370819D01*
X132881714Y-89370819D02*
X132786476Y-89513676D01*
X132786476Y-89513676D02*
X132691238Y-89608914D01*
X132691238Y-89608914D02*
X132596000Y-89656533D01*
X133786476Y-89370819D02*
X133881714Y-89370819D01*
X133881714Y-89370819D02*
X133976952Y-89418438D01*
X133976952Y-89418438D02*
X134024571Y-89466057D01*
X134024571Y-89466057D02*
X134072190Y-89561295D01*
X134072190Y-89561295D02*
X134119809Y-89751771D01*
X134119809Y-89751771D02*
X134119809Y-89989866D01*
X134119809Y-89989866D02*
X134072190Y-90180342D01*
X134072190Y-90180342D02*
X134024571Y-90275580D01*
X134024571Y-90275580D02*
X133976952Y-90323200D01*
X133976952Y-90323200D02*
X133881714Y-90370819D01*
X133881714Y-90370819D02*
X133786476Y-90370819D01*
X133786476Y-90370819D02*
X133691238Y-90323200D01*
X133691238Y-90323200D02*
X133643619Y-90275580D01*
X133643619Y-90275580D02*
X133596000Y-90180342D01*
X133596000Y-90180342D02*
X133548381Y-89989866D01*
X133548381Y-89989866D02*
X133548381Y-89751771D01*
X133548381Y-89751771D02*
X133596000Y-89561295D01*
X133596000Y-89561295D02*
X133643619Y-89466057D01*
X133643619Y-89466057D02*
X133691238Y-89418438D01*
X133691238Y-89418438D02*
X133786476Y-89370819D01*
X135072190Y-90370819D02*
X134500762Y-90370819D01*
X134786476Y-90370819D02*
X134786476Y-89370819D01*
X134786476Y-89370819D02*
X134691238Y-89513676D01*
X134691238Y-89513676D02*
X134596000Y-89608914D01*
X134596000Y-89608914D02*
X134500762Y-89656533D01*
D11*
%TO.C,R703*%
X128370359Y-109729000D02*
X128677641Y-109729000D01*
X128370359Y-110489000D02*
X128677641Y-110489000D01*
D12*
%TO.C,Y201*%
X149374000Y-110624000D02*
X149374000Y-110624000D01*
X149474000Y-110624000D02*
X149474000Y-110624000D01*
D13*
X146324000Y-109674000D02*
X146324000Y-109274000D01*
X148824000Y-109674000D02*
X148824000Y-109274000D01*
D12*
X149474000Y-110624000D02*
G75*
G03*
X149374000Y-110624000I-50000J0D01*
G01*
X149374000Y-110624000D02*
G75*
G03*
X149474000Y-110624000I50000J0D01*
G01*
D11*
%TO.C,R403*%
X155490142Y-89418900D02*
X155964658Y-89418900D01*
X155490142Y-90463900D02*
X155964658Y-90463900D01*
%TO.C,R001*%
X147194000Y-94260641D02*
X147194000Y-93953359D01*
X147954000Y-94260641D02*
X147954000Y-93953359D01*
%TO.C,R304*%
X167752500Y-103996258D02*
X167752500Y-103521742D01*
X168797500Y-103996258D02*
X168797500Y-103521742D01*
%TO.C,R701*%
X123036359Y-109729000D02*
X123343641Y-109729000D01*
X123036359Y-110489000D02*
X123343641Y-110489000D01*
%TO.C,R007*%
X167768000Y-92101641D02*
X167768000Y-91794359D01*
X168528000Y-92101641D02*
X168528000Y-91794359D01*
%TO.C,C402*%
X161567400Y-92621980D02*
X161567400Y-92340820D01*
X162587400Y-92621980D02*
X162587400Y-92340820D01*
%TO.C,C214*%
X136389164Y-111146000D02*
X136604836Y-111146000D01*
X136389164Y-111866000D02*
X136604836Y-111866000D01*
%TO.C,R203*%
X147166359Y-102744000D02*
X147473641Y-102744000D01*
X147166359Y-103504000D02*
X147473641Y-103504000D01*
%TO.C,C201*%
X147427836Y-105262000D02*
X147212164Y-105262000D01*
X147427836Y-104542000D02*
X147212164Y-104542000D01*
%TO.C,R004*%
X176132258Y-103773500D02*
X175657742Y-103773500D01*
X176132258Y-102728500D02*
X175657742Y-102728500D01*
%TO.C,RCD1*%
X171524664Y-86282200D02*
X171070536Y-86282200D01*
X171524664Y-84812200D02*
X171070536Y-84812200D01*
%TO.C,C210*%
X134852836Y-99420000D02*
X134637164Y-99420000D01*
X134852836Y-98700000D02*
X134637164Y-98700000D01*
%TO.C,R201*%
X134900641Y-101980000D02*
X134593359Y-101980000D01*
X134900641Y-101220000D02*
X134593359Y-101220000D01*
%TO.C,R302*%
X169530500Y-103996258D02*
X169530500Y-103521742D01*
X170575500Y-103996258D02*
X170575500Y-103521742D01*
D14*
%TO.C,IC202*%
X133657000Y-107947000D02*
G75*
G03*
X133407000Y-107947000I-125000J0D01*
G01*
X133407000Y-107947000D02*
G75*
G03*
X133657000Y-107947000I125000J0D01*
G01*
D11*
%TO.C,C203*%
X141457000Y-108604164D02*
X141457000Y-108819836D01*
X140737000Y-108604164D02*
X140737000Y-108819836D01*
%TO.C,AH0*%
X124190000Y-110995000D02*
X124190000Y-113795000D01*
X122190000Y-110995000D02*
X124190000Y-110995000D01*
X124190000Y-113795000D02*
X122190000Y-113795000D01*
X122190000Y-113795000D02*
X122190000Y-110995000D01*
D13*
%TO.C,J101*%
X118982000Y-98080000D02*
X117732000Y-98080000D01*
X115012000Y-98080000D02*
X113732000Y-98080000D01*
X118982000Y-107020000D02*
X117732000Y-107020000D01*
X113732000Y-107020000D02*
X115012000Y-107020000D01*
X122432000Y-99300000D02*
G75*
G03*
X122232000Y-99300000I-100000J0D01*
G01*
X122232000Y-99300000D02*
G75*
G03*
X122432000Y-99300000I100000J0D01*
G01*
D11*
%TO.C,AH1*%
X126857000Y-110995000D02*
X126857000Y-113795000D01*
X124857000Y-110995000D02*
X126857000Y-110995000D01*
X126857000Y-113795000D02*
X124857000Y-113795000D01*
X124857000Y-113795000D02*
X124857000Y-110995000D01*
%TO.C,R303*%
X156957500Y-103970858D02*
X156957500Y-103496342D01*
X158002500Y-103970858D02*
X158002500Y-103496342D01*
%TO.C,Rs04*%
X161771000Y-103150936D02*
X161771000Y-103605064D01*
X160301000Y-103150936D02*
X160301000Y-103605064D01*
%TO.C,R402*%
X159774658Y-90463900D02*
X159300142Y-90463900D01*
X159774658Y-89418900D02*
X159300142Y-89418900D01*
%TO.C,AH2*%
X129524000Y-110995000D02*
X129524000Y-113795000D01*
X127524000Y-110995000D02*
X129524000Y-110995000D01*
X129524000Y-113795000D02*
X127524000Y-113795000D01*
X127524000Y-113795000D02*
X127524000Y-110995000D01*
%TO.C,C202*%
X143616000Y-108604164D02*
X143616000Y-108819836D01*
X142896000Y-108604164D02*
X142896000Y-108819836D01*
%TO.C,C401*%
X162587400Y-96150820D02*
X162587400Y-96431980D01*
X161567400Y-96150820D02*
X161567400Y-96431980D01*
%TO.C,Rs02*%
X175540936Y-98579000D02*
X175995064Y-98579000D01*
X175540936Y-100049000D02*
X175995064Y-100049000D01*
%TO.C,C205*%
X147212164Y-100986000D02*
X147427836Y-100986000D01*
X147212164Y-101706000D02*
X147427836Y-101706000D01*
%TO.C,R101*%
X120031742Y-92695500D02*
X120506258Y-92695500D01*
X120031742Y-93740500D02*
X120506258Y-93740500D01*
%TO.C,Rs01*%
X175995064Y-107796000D02*
X175540936Y-107796000D01*
X175995064Y-106326000D02*
X175540936Y-106326000D01*
D13*
%TO.C,Q001*%
X170515000Y-90994000D02*
X172040000Y-90994000D01*
X172390000Y-91149000D02*
X175590000Y-91149000D01*
X172390000Y-96049000D02*
X172390000Y-91149000D01*
X175590000Y-91149000D02*
X175590000Y-96049000D01*
X175590000Y-96049000D02*
X172390000Y-96049000D01*
D11*
%TO.C,C301*%
X164209000Y-103899580D02*
X164209000Y-103618420D01*
X165229000Y-103899580D02*
X165229000Y-103618420D01*
%TO.C,R404*%
X162545500Y-86089258D02*
X162545500Y-85614742D01*
X163590500Y-86089258D02*
X163590500Y-85614742D01*
%TO.C,C204*%
X139298000Y-108604164D02*
X139298000Y-108819836D01*
X138578000Y-108604164D02*
X138578000Y-108819836D01*
%TO.C,R006*%
X168911000Y-95276641D02*
X168911000Y-94969359D01*
X169671000Y-95276641D02*
X169671000Y-94969359D01*
%TO.C,C102*%
X128537580Y-96395000D02*
X128256420Y-96395000D01*
X128537580Y-95375000D02*
X128256420Y-95375000D01*
%TO.C,R005*%
X168911000Y-92101641D02*
X168911000Y-91794359D01*
X169671000Y-92101641D02*
X169671000Y-91794359D01*
%TO.C,C101*%
X120409580Y-91823000D02*
X120128420Y-91823000D01*
X120409580Y-90803000D02*
X120128420Y-90803000D01*
%TO.C,IC201*%
X144669000Y-105934000D02*
X144019000Y-105934000D01*
X137449000Y-105284000D02*
X137449000Y-105934000D01*
X144669000Y-105284000D02*
X144669000Y-105934000D01*
X137449000Y-99364000D02*
X137449000Y-98714000D01*
X144669000Y-99364000D02*
X144669000Y-98714000D01*
X137449000Y-98714000D02*
X138099000Y-98714000D01*
X144669000Y-98714000D02*
X144019000Y-98714000D01*
%TO.C,R002*%
X146051000Y-94260641D02*
X146051000Y-93953359D01*
X146811000Y-94260641D02*
X146811000Y-93953359D01*
%TO.C,R209*%
X134900641Y-106044000D02*
X134593359Y-106044000D01*
X134900641Y-105284000D02*
X134593359Y-105284000D01*
%TO.C,C207*%
X143277000Y-96119836D02*
X143277000Y-95904164D01*
X143997000Y-96119836D02*
X143997000Y-95904164D01*
%TO.C,R4A1*%
X160386500Y-86089258D02*
X160386500Y-85614742D01*
X161431500Y-86089258D02*
X161431500Y-85614742D01*
D15*
%TO.C,IC401*%
X159744900Y-92011900D02*
G75*
G03*
X159419900Y-92011900I-162500J0D01*
G01*
X159419900Y-92011900D02*
G75*
G03*
X159744900Y-92011900I162500J0D01*
G01*
D11*
%TO.C,C208*%
X134854836Y-103484000D02*
X134639164Y-103484000D01*
X134854836Y-102764000D02*
X134639164Y-102764000D01*
%TO.C,C211*%
X134852836Y-104500000D02*
X134637164Y-104500000D01*
X134852836Y-103780000D02*
X134637164Y-103780000D01*
%TO.C,C206*%
X138070000Y-96119836D02*
X138070000Y-95904164D01*
X138790000Y-96119836D02*
X138790000Y-95904164D01*
%TO.C,R208*%
X134900641Y-107060000D02*
X134593359Y-107060000D01*
X134900641Y-106300000D02*
X134593359Y-106300000D01*
%TO.C,C209*%
X134852836Y-98404000D02*
X134637164Y-98404000D01*
X134852836Y-97684000D02*
X134637164Y-97684000D01*
%TO.C,R301*%
X155128700Y-103970858D02*
X155128700Y-103496342D01*
X156173700Y-103970858D02*
X156173700Y-103496342D01*
D13*
%TO.C,J301*%
X155458400Y-106370200D02*
X156503400Y-106370200D01*
X155458400Y-118650200D02*
X155458400Y-106370200D01*
X155458400Y-121620200D02*
X155458400Y-121190200D01*
X164143400Y-106370200D02*
X169458400Y-106370200D01*
X168013400Y-121620200D02*
X155458400Y-121620200D01*
X169458400Y-106370200D02*
X169458400Y-119650200D01*
X164463400Y-122060200D02*
G75*
G03*
X164263400Y-122060200I-100000J0D01*
G01*
X164263400Y-122060200D02*
G75*
G03*
X164463400Y-122060200I100000J0D01*
G01*
D11*
%TO.C,C212*%
X147212164Y-99208000D02*
X147427836Y-99208000D01*
X147212164Y-99928000D02*
X147427836Y-99928000D01*
%TO.C,R102*%
X120031742Y-94600500D02*
X120506258Y-94600500D01*
X120031742Y-95645500D02*
X120506258Y-95645500D01*
%TO.C,R405*%
X165749500Y-85614742D02*
X165749500Y-86089258D01*
X164704500Y-85614742D02*
X164704500Y-86089258D01*
%TO.C,Rs03*%
X138456936Y-90959000D02*
X138911064Y-90959000D01*
X138456936Y-92429000D02*
X138911064Y-92429000D01*
%TO.C,R202*%
X134900641Y-100964000D02*
X134593359Y-100964000D01*
X134900641Y-100204000D02*
X134593359Y-100204000D01*
%TO.C,R103*%
X124824258Y-96407500D02*
X124349742Y-96407500D01*
X124824258Y-95362500D02*
X124349742Y-95362500D01*
%TO.C,R008*%
X168528000Y-94969359D02*
X168528000Y-95276641D01*
X167768000Y-94969359D02*
X167768000Y-95276641D01*
%TO.C,R702*%
X126010641Y-110452000D02*
X125703359Y-110452000D01*
X126010641Y-109692000D02*
X125703359Y-109692000D01*
%TO.C,C302*%
X165987000Y-103886580D02*
X165987000Y-103605420D01*
X167007000Y-103886580D02*
X167007000Y-103605420D01*
D13*
%TO.C,IC101*%
X131246000Y-90956000D02*
X132446000Y-90956000D01*
X132796000Y-90976000D02*
X133396000Y-90976000D01*
X132796000Y-93936000D02*
X132796000Y-90976000D01*
X133396000Y-90976000D02*
X133396000Y-93936000D01*
X133396000Y-93936000D02*
X132796000Y-93936000D01*
D11*
%TO.C,C215*%
X134346836Y-111866000D02*
X134131164Y-111866000D01*
X134346836Y-111146000D02*
X134131164Y-111146000D01*
D13*
%TO.C,D101*%
X128817000Y-93129000D02*
X125142000Y-93129000D01*
X127842000Y-91529000D02*
X125142000Y-91529000D01*
%TD*%
%LPC*%
D16*
%TO.C,R703*%
X128014000Y-110109000D03*
X129034000Y-110109000D03*
%TD*%
D17*
%TO.C,Y201*%
X148449000Y-110624000D03*
X148449000Y-108324000D03*
X146699000Y-108324000D03*
X146699000Y-110624000D03*
%TD*%
D18*
%TO.C,R403*%
X154902400Y-89941400D03*
X156552400Y-89941400D03*
%TD*%
D19*
%TO.C,R001*%
X147574000Y-94617000D03*
X147574000Y-93597000D03*
%TD*%
D20*
%TO.C,R304*%
X168275000Y-104584000D03*
X168275000Y-102934000D03*
%TD*%
D16*
%TO.C,R701*%
X122680000Y-110109000D03*
X123700000Y-110109000D03*
%TD*%
D19*
%TO.C,R007*%
X168148000Y-92458000D03*
X168148000Y-91438000D03*
%TD*%
D21*
%TO.C,C402*%
X162077400Y-93256400D03*
X162077400Y-91706400D03*
%TD*%
D22*
%TO.C,C214*%
X136017000Y-111506000D03*
X136977000Y-111506000D03*
%TD*%
D16*
%TO.C,R203*%
X146810000Y-103124000D03*
X147830000Y-103124000D03*
%TD*%
D23*
%TO.C,C201*%
X147800000Y-104902000D03*
X146840000Y-104902000D03*
%TD*%
D24*
%TO.C,R004*%
X176720000Y-103251000D03*
X175070000Y-103251000D03*
%TD*%
D25*
%TO.C,RCD1*%
X172210100Y-85547200D03*
X170385100Y-85547200D03*
%TD*%
D23*
%TO.C,C210*%
X135225000Y-99060000D03*
X134265000Y-99060000D03*
%TD*%
D26*
%TO.C,R201*%
X135257000Y-101600000D03*
X134237000Y-101600000D03*
%TD*%
D20*
%TO.C,R302*%
X170053000Y-104584000D03*
X170053000Y-102934000D03*
%TD*%
D27*
%TO.C,IC202*%
X133982000Y-108597000D03*
X133982000Y-109097000D03*
X133982000Y-109597000D03*
X133982000Y-110097000D03*
X136782000Y-110097000D03*
X136782000Y-109597000D03*
X136782000Y-109097000D03*
X136782000Y-108597000D03*
D28*
X135382000Y-109347000D03*
%TD*%
D29*
%TO.C,C203*%
X141097000Y-108232000D03*
X141097000Y-109192000D03*
%TD*%
D30*
%TO.C,AH0*%
X123190000Y-111670000D03*
D31*
X123190000Y-113120000D03*
%TD*%
D32*
%TO.C,J101*%
X120012000Y-99660000D03*
X120012000Y-105440000D03*
D33*
X121087000Y-99350000D03*
X121087000Y-100150000D03*
D34*
X121087000Y-101300000D03*
X121087000Y-102300000D03*
X121087000Y-102800000D03*
X121087000Y-103800000D03*
D33*
X121087000Y-105750000D03*
X121087000Y-104950000D03*
D34*
X121087000Y-104300000D03*
X121087000Y-103300000D03*
X121087000Y-101800000D03*
X121087000Y-100800000D03*
D35*
X120512000Y-98230000D03*
X120512000Y-106870000D03*
D36*
X116332000Y-98230000D03*
X116332000Y-106870000D03*
%TD*%
D37*
%TO.C,H2*%
X118300000Y-86550000D03*
%TD*%
D30*
%TO.C,AH1*%
X125857000Y-111670000D03*
D31*
X125857000Y-113120000D03*
%TD*%
D20*
%TO.C,R303*%
X157480000Y-104558600D03*
X157480000Y-102908600D03*
%TD*%
D37*
%TO.C,H4*%
X180300000Y-86550000D03*
%TD*%
D38*
%TO.C,Rs04*%
X161036000Y-102465500D03*
X161036000Y-104290500D03*
%TD*%
D24*
%TO.C,R402*%
X160362400Y-89941400D03*
X158712400Y-89941400D03*
%TD*%
D30*
%TO.C,AH2*%
X128524000Y-111670000D03*
D31*
X128524000Y-113120000D03*
%TD*%
D29*
%TO.C,C202*%
X143256000Y-108232000D03*
X143256000Y-109192000D03*
%TD*%
D37*
%TO.C,H3*%
X118300000Y-118550000D03*
%TD*%
D39*
%TO.C,C401*%
X162077400Y-95516400D03*
X162077400Y-97066400D03*
%TD*%
D40*
%TO.C,Rs02*%
X174855500Y-99314000D03*
X176680500Y-99314000D03*
%TD*%
D22*
%TO.C,C205*%
X146840000Y-101346000D03*
X147800000Y-101346000D03*
%TD*%
D18*
%TO.C,R101*%
X119444000Y-93218000D03*
X121094000Y-93218000D03*
%TD*%
D25*
%TO.C,Rs01*%
X176680500Y-107061000D03*
X174855500Y-107061000D03*
%TD*%
D41*
%TO.C,Q001*%
X171278000Y-91694000D03*
X171278000Y-92964000D03*
X171278000Y-94234000D03*
X171278000Y-95504000D03*
X176702000Y-95504000D03*
X176702000Y-94234000D03*
X176702000Y-92964000D03*
X176702000Y-91694000D03*
%TD*%
D21*
%TO.C,C301*%
X164719000Y-104534000D03*
X164719000Y-102984000D03*
%TD*%
D20*
%TO.C,R404*%
X163068000Y-86677000D03*
X163068000Y-85027000D03*
%TD*%
D29*
%TO.C,C204*%
X138938000Y-108232000D03*
X138938000Y-109192000D03*
%TD*%
D19*
%TO.C,R006*%
X169291000Y-95633000D03*
X169291000Y-94613000D03*
%TD*%
D42*
%TO.C,C102*%
X129172000Y-95885000D03*
X127622000Y-95885000D03*
%TD*%
D19*
%TO.C,R005*%
X169291000Y-92458000D03*
X169291000Y-91438000D03*
%TD*%
D42*
%TO.C,C101*%
X121044000Y-91313000D03*
X119494000Y-91313000D03*
%TD*%
D43*
%TO.C,IC201*%
X138459000Y-105761500D03*
X138859000Y-105761500D03*
X139259000Y-105761500D03*
X139659000Y-105761500D03*
X140059000Y-105761500D03*
X140459000Y-105761500D03*
X140859000Y-105761500D03*
X141259000Y-105761500D03*
X141659000Y-105761500D03*
X142059000Y-105761500D03*
X142459000Y-105761500D03*
X142859000Y-105761500D03*
X143259000Y-105761500D03*
X143659000Y-105761500D03*
D44*
X144496500Y-104924000D03*
X144496500Y-104524000D03*
X144496500Y-104124000D03*
X144496500Y-103724000D03*
X144496500Y-103324000D03*
X144496500Y-102924000D03*
X144496500Y-102524000D03*
X144496500Y-102124000D03*
X144496500Y-101724000D03*
X144496500Y-101324000D03*
X144496500Y-100924000D03*
X144496500Y-100524000D03*
X144496500Y-100124000D03*
X144496500Y-99724000D03*
D43*
X143659000Y-98886500D03*
X143259000Y-98886500D03*
X142859000Y-98886500D03*
X142459000Y-98886500D03*
X142059000Y-98886500D03*
X141659000Y-98886500D03*
X141259000Y-98886500D03*
X140859000Y-98886500D03*
X140459000Y-98886500D03*
X140059000Y-98886500D03*
X139659000Y-98886500D03*
X139259000Y-98886500D03*
X138859000Y-98886500D03*
X138459000Y-98886500D03*
D44*
X137621500Y-99724000D03*
X137621500Y-100124000D03*
X137621500Y-100524000D03*
X137621500Y-100924000D03*
X137621500Y-101324000D03*
X137621500Y-101724000D03*
X137621500Y-102124000D03*
X137621500Y-102524000D03*
X137621500Y-102924000D03*
X137621500Y-103324000D03*
X137621500Y-103724000D03*
X137621500Y-104124000D03*
X137621500Y-104524000D03*
X137621500Y-104924000D03*
D45*
X141059000Y-102324000D03*
%TD*%
D19*
%TO.C,R002*%
X146431000Y-94617000D03*
X146431000Y-93597000D03*
%TD*%
D26*
%TO.C,R209*%
X135257000Y-105664000D03*
X134237000Y-105664000D03*
%TD*%
D46*
%TO.C,C207*%
X143637000Y-96492000D03*
X143637000Y-95532000D03*
%TD*%
D20*
%TO.C,R4A1*%
X160909000Y-86677000D03*
X160909000Y-85027000D03*
%TD*%
D47*
%TO.C,IC401*%
X158607400Y-92436400D03*
X157957400Y-92436400D03*
X157307400Y-92436400D03*
X156657400Y-92436400D03*
D48*
X155682400Y-93411400D03*
X155682400Y-94061400D03*
X155682400Y-94711400D03*
X155682400Y-95361400D03*
D47*
X156657400Y-96336400D03*
X157307400Y-96336400D03*
X157957400Y-96336400D03*
X158607400Y-96336400D03*
D48*
X159582400Y-95361400D03*
X159582400Y-94711400D03*
X159582400Y-94061400D03*
X159582400Y-93411400D03*
D49*
X157632400Y-94386400D03*
%TD*%
D23*
%TO.C,C208*%
X135227000Y-103124000D03*
X134267000Y-103124000D03*
%TD*%
%TO.C,C211*%
X135225000Y-104140000D03*
X134265000Y-104140000D03*
%TD*%
D37*
%TO.C,H1*%
X180300000Y-118550000D03*
%TD*%
D46*
%TO.C,C206*%
X138430000Y-96492000D03*
X138430000Y-95532000D03*
%TD*%
D26*
%TO.C,R208*%
X135257000Y-106680000D03*
X134237000Y-106680000D03*
%TD*%
D23*
%TO.C,C209*%
X135225000Y-98044000D03*
X134265000Y-98044000D03*
%TD*%
D20*
%TO.C,R301*%
X155651200Y-104558600D03*
X155651200Y-102908600D03*
%TD*%
D50*
%TO.C,J301*%
X155883400Y-119920200D03*
X169033400Y-120920200D03*
D51*
X157423400Y-106770200D03*
D52*
X163173400Y-106770200D03*
D53*
X164363400Y-117630200D03*
X163263400Y-117230200D03*
X162163400Y-117630200D03*
X161063400Y-117830200D03*
X159963400Y-117630200D03*
X158863400Y-117830200D03*
X157763400Y-117630200D03*
X156663400Y-117630200D03*
D54*
X158873400Y-106400200D03*
%TD*%
D22*
%TO.C,C212*%
X146840000Y-99568000D03*
X147800000Y-99568000D03*
%TD*%
D18*
%TO.C,R102*%
X119444000Y-95123000D03*
X121094000Y-95123000D03*
%TD*%
D55*
%TO.C,R405*%
X165227000Y-85027000D03*
X165227000Y-86677000D03*
%TD*%
D40*
%TO.C,Rs03*%
X137771500Y-91694000D03*
X139596500Y-91694000D03*
%TD*%
D26*
%TO.C,R202*%
X135257000Y-100584000D03*
X134237000Y-100584000D03*
%TD*%
D24*
%TO.C,R103*%
X125412000Y-95885000D03*
X123762000Y-95885000D03*
%TD*%
D56*
%TO.C,R008*%
X168148000Y-94613000D03*
X168148000Y-95633000D03*
%TD*%
D26*
%TO.C,R702*%
X126367000Y-110072000D03*
X125347000Y-110072000D03*
%TD*%
D21*
%TO.C,C302*%
X166497000Y-104521000D03*
X166497000Y-102971000D03*
%TD*%
D57*
%TO.C,IC101*%
X131846000Y-91506000D03*
X131846000Y-92456000D03*
X131846000Y-93406000D03*
X134346000Y-93406000D03*
X134346000Y-91506000D03*
%TD*%
D23*
%TO.C,C215*%
X134719000Y-111506000D03*
X133759000Y-111506000D03*
%TD*%
D58*
%TO.C,D101*%
X128292000Y-92329000D03*
X124692000Y-92329000D03*
%TD*%
D59*
%TO.C,J002*%
X179578000Y-94869000D03*
X179578000Y-99869000D03*
%TD*%
D60*
%TO.C,J005*%
X174117000Y-120142000D03*
D61*
X171577000Y-120142000D03*
%TD*%
D60*
%TO.C,J202*%
X136271000Y-84709000D03*
D61*
X133731000Y-84709000D03*
X131191000Y-84709000D03*
X128651000Y-84709000D03*
X126111000Y-84709000D03*
X123571000Y-84709000D03*
%TD*%
D60*
%TO.C,J201*%
X145654000Y-84709000D03*
D61*
X143114000Y-84709000D03*
X140574000Y-84709000D03*
%TD*%
D62*
%TO.C,SC01*%
X173072000Y-89154000D03*
D63*
X166272000Y-89154000D03*
%TD*%
D60*
%TO.C,J203*%
X123825000Y-120269000D03*
D61*
X126365000Y-120269000D03*
X128905000Y-120269000D03*
X131445000Y-120269000D03*
X133985000Y-120269000D03*
X136525000Y-120269000D03*
X139065000Y-120269000D03*
X141605000Y-120269000D03*
X144145000Y-120269000D03*
X146685000Y-120269000D03*
X149225000Y-120269000D03*
%TD*%
D60*
%TO.C,J004*%
X174117000Y-116205000D03*
D61*
X171577000Y-116205000D03*
%TD*%
D60*
%TO.C,J001*%
X150114000Y-84709000D03*
D61*
X150114000Y-87249000D03*
X152654000Y-84709000D03*
X152654000Y-87249000D03*
X155194000Y-84709000D03*
X155194000Y-87249000D03*
X157734000Y-84709000D03*
X157734000Y-87249000D03*
%TD*%
%LPD*%
M02*
