M48
; DRILL file {KiCad 7.0.10} date Tue Apr  9 11:27:14 2024
; FORMAT={-:-/ absolute / metric / decimal}
; #@! TF.CreationDate,2024-04-09T11:27:14+02:00
; #@! TF.GenerationSoftware,Kicad,Pcbnew,7.0.10
; #@! TF.FileFunction,Plated,1,4,PTH
FMAT,2
METRIC
; #@! TA.AperFunction,Plated,PTH,ViaDrill
T1C0.200
; #@! TA.AperFunction,Plated,PTH,ViaDrill
T2C0.300
; #@! TA.AperFunction,Plated,PTH,ViaDrill
T3C0.400
; #@! TA.AperFunction,Plated,PTH,ComponentDrill
T4C0.600
; #@! TA.AperFunction,Plated,PTH,ComponentDrill
T5C0.800
; #@! TA.AperFunction,Plated,PTH,ComponentDrill
T6C1.000
; #@! TA.AperFunction,Plated,PTH,ComponentDrill
T7C1.295
; #@! TA.AperFunction,Plated,PTH,ComponentDrill
T8C3.200
%
G90
G05
T1
X119.38Y-103.124
X120.777Y-110.236
X120.777Y-111.506
X120.777Y-112.446
X120.777Y-113.487
X121.336Y-110.856
X122.784Y-115.519
X122.784Y-117.805
X124.562Y-110.795
X125.349Y-97.409
X127.61Y-105.004
X129.032Y-90.297
X129.946Y-85.903
X129.946Y-94.285
X129.997Y-97.333
X130.2Y-103.886
X130.302Y-100.025
X131.169Y-109.163
X131.267Y-104.546
X131.318Y-101.244
X132.131Y-107.95
X132.334Y-104.546
X132.436Y-110.642
X132.486Y-85.954
X132.893Y-108.001
X132.969Y-107.134
X133.604Y-95.91
X134.62Y-107.823
X134.823Y-86.055
X135.915Y-114.021
X136.5Y-113.284
X136.525Y-104.394
X136.779Y-110.744
X136.855Y-96.926
X137.109Y-94.539
X137.287Y-95.25
X137.541Y-88.392
X137.668Y-106.045
X137.795Y-109.597
X138.303Y-106.934
X138.303Y-112.395
X138.608Y-100.711
X138.684Y-88.392
X138.684Y-97.663
X138.684Y-99.822
X138.723Y-102.756
X138.748Y-103.569
X138.811Y-104.394
X138.938Y-107.315
X139.827Y-88.392
X140.208Y-95.631
X140.31Y-114.148
X140.335Y-118.923
X140.665Y-113.487
X140.97Y-88.392
X141.097Y-95.631
X141.097Y-107.315
X141.986Y-95.631
X142.418Y-104.826
X142.773Y-95.656
X142.85Y-118.923
X143.147Y-102.637
X143.205Y-92.405
X143.256Y-100.025
X143.256Y-100.838
X143.307Y-101.702
X143.358Y-104.724
X143.358Y-107.264
X144.272Y-113.919
X144.907Y-95.377
X145.085Y-107.239
X145.085Y-108.128
X145.161Y-88.392
X145.186Y-97.917
X145.186Y-105.994
X145.923Y-87.63
X146.494Y-91.376
X146.558Y-95.86
X146.685Y-86.868
X146.71Y-92.304
X147.574Y-96.812
X147.574Y-97.663
X147.574Y-98.552
X147.701Y-92.329
X147.853Y-104.115
X148.082Y-86.233
X148.539Y-106.223
X148.819Y-101.854
X148.819Y-102.667
X148.819Y-103.505
X148.946Y-105.562
X148.946Y-118.212
X148.996Y-97.13
X149.327Y-101.244
X149.352Y-95.504
X149.352Y-107.239
X150.368Y-118.466
X150.47Y-95.707
X150.876Y-101.448
X151.028Y-110.693
X151.079Y-107.645
X151.282Y-88.697
X151.486Y-92.659
X151.587Y-98.654
X151.841Y-101.448
X152.552Y-115.976
X152.609Y-118.929
X152.857Y-117.272
X154.127Y-95.453
X154.381Y-91.034
X154.432Y-93.472
X154.686Y-97.079
X156.769Y-109.779
X156.972Y-115.824
X157.734Y-120.371
X159.918Y-114.554
X160.198Y-119.609
X160.376Y-92.659
X161.29Y-113.436
X162.408Y-119.634
X163.238Y-120.396
X163.373Y-89.306
X163.678Y-102.54
X163.703Y-103.886
X163.703Y-105.41
X164.44Y-101.244
X165.202Y-105.689
X165.608Y-91.44
X165.735Y-94.613
X165.811Y-118.212
X165.938Y-107.62
X167.234Y-108.306
X167.259Y-109.22
X169.52Y-109.22
X170.51Y-100.152
X171.704Y-109.22
X173.99Y-102.21
X174.092Y-94.793
X174.498Y-97.663
X174.879Y-112.903
X178.816Y-92.583
T2
X122.606Y-100.15
X122.606Y-104.95
X125.095Y-98.806
X137.998Y-93.802
X139.827Y-101.473
X140.716Y-101.473
X141.681Y-101.346
X142.088Y-102.057
X145.669Y-90.678
X155.854Y-91.491
X156.667Y-101.448
X159.766Y-101.448
X163.627Y-92.608
X165.252Y-97.079
X168.605Y-85.903
X171.145Y-102.934
X173.482Y-91.694
T3
X128.524Y-115.951
T5
X166.272Y-89.154
X173.072Y-89.154
T6
X123.571Y-84.709
X123.825Y-120.269
X126.111Y-84.709
X126.365Y-120.269
X128.651Y-84.709
X128.905Y-120.269
X131.191Y-84.709
X131.445Y-120.269
X133.731Y-84.709
X133.985Y-120.269
X136.271Y-84.709
X136.525Y-120.269
X139.065Y-120.269
X140.574Y-84.709
X141.605Y-120.269
X143.114Y-84.709
X144.145Y-120.269
X145.654Y-84.709
X146.685Y-120.269
X149.225Y-120.269
X150.114Y-84.709
X150.114Y-87.249
X152.654Y-84.709
X152.654Y-87.249
X155.194Y-84.709
X155.194Y-87.249
X157.734Y-84.709
X157.734Y-87.249
X171.577Y-116.205
X171.577Y-120.142
X174.117Y-116.205
X174.117Y-120.142
T7
X179.578Y-94.869
X179.578Y-99.869
T8
X118.3Y-86.55
X118.3Y-118.55
X180.3Y-86.55
X180.3Y-118.55
T4
X116.732Y-98.23G85X115.932Y-98.23
G05
X116.732Y-106.87G85X115.932Y-106.87
G05
X121.062Y-98.23G85X119.962Y-98.23
G05
X121.062Y-106.87G85X119.962Y-106.87
G05
M30
