%TF.GenerationSoftware,KiCad,Pcbnew,7.0.10*%
%TF.CreationDate,2024-04-09T11:26:52+02:00*%
%TF.ProjectId,SolarCurveTracer,536f6c61-7243-4757-9276-655472616365,v1.0*%
%TF.SameCoordinates,Original*%
%TF.FileFunction,Soldermask,Bot*%
%TF.FilePolarity,Negative*%
%FSLAX46Y46*%
G04 Gerber Fmt 4.6, Leading zero omitted, Abs format (unit mm)*
G04 Created by KiCad (PCBNEW 7.0.10) date 2024-04-09 11:26:52*
%MOMM*%
%LPD*%
G01*
G04 APERTURE LIST*
G04 Aperture macros list*
%AMRoundRect*
0 Rectangle with rounded corners*
0 $1 Rounding radius*
0 $2 $3 $4 $5 $6 $7 $8 $9 X,Y pos of 4 corners*
0 Add a 4 corners polygon primitive as box body*
4,1,4,$2,$3,$4,$5,$6,$7,$8,$9,$2,$3,0*
0 Add four circle primitives for the rounded corners*
1,1,$1+$1,$2,$3*
1,1,$1+$1,$4,$5*
1,1,$1+$1,$6,$7*
1,1,$1+$1,$8,$9*
0 Add four rect primitives between the rounded corners*
20,1,$1+$1,$2,$3,$4,$5,0*
20,1,$1+$1,$4,$5,$6,$7,0*
20,1,$1+$1,$6,$7,$8,$9,0*
20,1,$1+$1,$8,$9,$2,$3,0*%
G04 Aperture macros list end*
%ADD10C,0.650000*%
%ADD11O,2.304000X1.204000*%
%ADD12RoundRect,0.301000X-0.701000X0.301000X-0.701000X-0.301000X0.701000X-0.301000X0.701000X0.301000X0*%
%ADD13C,6.400000*%
%ADD14RoundRect,0.135000X-0.135000X-0.185000X0.135000X-0.185000X0.135000X0.185000X-0.135000X0.185000X0*%
%ADD15RoundRect,0.147500X0.172500X-0.147500X0.172500X0.147500X-0.172500X0.147500X-0.172500X-0.147500X0*%
%ADD16RoundRect,0.250000X-0.262500X-0.450000X0.262500X-0.450000X0.262500X0.450000X-0.262500X0.450000X0*%
%ADD17RoundRect,0.135000X-0.185000X0.135000X-0.185000X-0.135000X0.185000X-0.135000X0.185000X0.135000X0*%
%ADD18C,1.803400*%
%ADD19R,1.700000X1.700000*%
%ADD20O,1.700000X1.700000*%
%ADD21RoundRect,0.225000X0.250000X-0.225000X0.250000X0.225000X-0.250000X0.225000X-0.250000X-0.225000X0*%
%ADD22R,0.750000X1.000000*%
%ADD23RoundRect,0.250000X0.262500X0.450000X-0.262500X0.450000X-0.262500X-0.450000X0.262500X-0.450000X0*%
%ADD24RoundRect,0.225000X0.225000X0.250000X-0.225000X0.250000X-0.225000X-0.250000X0.225000X-0.250000X0*%
%ADD25R,1.525000X0.700000*%
%ADD26RoundRect,0.135000X0.185000X-0.135000X0.185000X0.135000X-0.185000X0.135000X-0.185000X-0.135000X0*%
%ADD27R,1.600000X1.600000*%
%ADD28C,1.600000*%
%ADD29R,0.350000X1.050000*%
%ADD30R,1.050000X0.350000*%
%ADD31R,4.200000X4.200000*%
%ADD32RoundRect,0.218750X-0.218750X-0.256250X0.218750X-0.256250X0.218750X0.256250X-0.218750X0.256250X0*%
%ADD33R,1.000000X0.750000*%
%ADD34R,0.700000X1.600000*%
%ADD35RoundRect,0.200000X0.200000X0.275000X-0.200000X0.275000X-0.200000X-0.275000X0.200000X-0.275000X0*%
%ADD36RoundRect,0.140000X-0.170000X0.140000X-0.170000X-0.140000X0.170000X-0.140000X0.170000X0.140000X0*%
%ADD37R,0.700000X0.300000*%
%ADD38R,1.000000X1.700000*%
%ADD39RoundRect,0.140000X-0.140000X-0.170000X0.140000X-0.170000X0.140000X0.170000X-0.140000X0.170000X0*%
%ADD40R,3.505200X0.990600*%
%ADD41R,3.403600X1.498600*%
G04 APERTURE END LIST*
D10*
%TO.C,J101*%
X120012000Y-99660000D03*
X120012000Y-105440000D03*
D11*
X120512000Y-98230000D03*
X120512000Y-106870000D03*
D12*
X116332000Y-98230000D03*
X116332000Y-106870000D03*
%TD*%
D13*
%TO.C,H2*%
X118300000Y-86550000D03*
%TD*%
%TO.C,H4*%
X180300000Y-86550000D03*
%TD*%
%TO.C,H3*%
X118300000Y-118550000D03*
%TD*%
%TO.C,H1*%
X180300000Y-118550000D03*
%TD*%
D14*
%TO.C,R211*%
X150493000Y-114681000D03*
X151513000Y-114681000D03*
%TD*%
D15*
%TO.C,D203*%
X166243000Y-110213000D03*
X166243000Y-109243000D03*
%TD*%
D16*
%TO.C,RLS3*%
X160328500Y-99979000D03*
X162153500Y-99979000D03*
%TD*%
D17*
%TO.C,R620*%
X151041000Y-99469000D03*
X151041000Y-100489000D03*
%TD*%
D16*
%TO.C,RLS6*%
X160328500Y-109379000D03*
X162153500Y-109379000D03*
%TD*%
D17*
%TO.C,R627*%
X149841000Y-96869000D03*
X149841000Y-97889000D03*
%TD*%
%TO.C,R614*%
X131841000Y-105469000D03*
X131841000Y-106489000D03*
%TD*%
D18*
%TO.C,J002*%
X179578000Y-94869000D03*
X179578000Y-99869000D03*
%TD*%
D19*
%TO.C,J005*%
X174117000Y-120142000D03*
D20*
X171577000Y-120142000D03*
%TD*%
D17*
%TO.C,R615*%
X131841000Y-108869000D03*
X131841000Y-109889000D03*
%TD*%
%TO.C,R630*%
X149841000Y-105469000D03*
X149841000Y-106489000D03*
%TD*%
D21*
%TO.C,C701*%
X118110000Y-112408000D03*
X118110000Y-110858000D03*
%TD*%
D22*
%TO.C,S203*%
X164592000Y-120015000D03*
X164592000Y-115515000D03*
X166742000Y-115515000D03*
X166742000Y-120015000D03*
%TD*%
D17*
%TO.C,R607*%
X133041000Y-108869000D03*
X133041000Y-109889000D03*
%TD*%
D23*
%TO.C,RLP2*%
X144153500Y-97379000D03*
X142328500Y-97379000D03*
%TD*%
D19*
%TO.C,J202*%
X136271000Y-84709000D03*
D20*
X133731000Y-84709000D03*
X131191000Y-84709000D03*
X128651000Y-84709000D03*
X126111000Y-84709000D03*
X123571000Y-84709000D03*
%TD*%
D24*
%TO.C,C502*%
X172479000Y-106984800D03*
X170929000Y-106984800D03*
%TD*%
D17*
%TO.C,R612*%
X131841000Y-99469000D03*
X131841000Y-100489000D03*
%TD*%
%TO.C,R609*%
X131841000Y-90869000D03*
X131841000Y-91889000D03*
%TD*%
%TO.C,R611*%
X131841000Y-96869000D03*
X131841000Y-97889000D03*
%TD*%
%TO.C,R625*%
X149841000Y-90869000D03*
X149841000Y-91889000D03*
%TD*%
%TO.C,R622*%
X151041000Y-105469000D03*
X151041000Y-106489000D03*
%TD*%
D25*
%TO.C,Q608*%
X152829000Y-112584000D03*
X152829000Y-111314000D03*
X152829000Y-110044000D03*
X152829000Y-108774000D03*
X158253000Y-108774000D03*
X158253000Y-110044000D03*
X158253000Y-111314000D03*
X158253000Y-112584000D03*
%TD*%
%TO.C,Q605*%
X152829000Y-94584000D03*
X152829000Y-93314000D03*
X152829000Y-92044000D03*
X152829000Y-90774000D03*
X158253000Y-90774000D03*
X158253000Y-92044000D03*
X158253000Y-93314000D03*
X158253000Y-94584000D03*
%TD*%
D26*
%TO.C,R204*%
X170561000Y-112524000D03*
X170561000Y-111504000D03*
%TD*%
D24*
%TO.C,C501*%
X172479000Y-104444800D03*
X170929000Y-104444800D03*
%TD*%
D17*
%TO.C,R605*%
X133041000Y-102869000D03*
X133041000Y-103889000D03*
%TD*%
D26*
%TO.C,R207*%
X118491000Y-94518000D03*
X118491000Y-93498000D03*
%TD*%
D17*
%TO.C,R610*%
X131841000Y-93469000D03*
X131841000Y-94489000D03*
%TD*%
D19*
%TO.C,J201*%
X145654000Y-84709000D03*
D20*
X143114000Y-84709000D03*
X140574000Y-84709000D03*
%TD*%
D27*
%TO.C,SC01*%
X173072000Y-89154000D03*
D28*
X166272000Y-89154000D03*
%TD*%
D17*
%TO.C,R617*%
X151041000Y-90869000D03*
X151041000Y-91889000D03*
%TD*%
%TO.C,R631*%
X149841000Y-108869000D03*
X149841000Y-109889000D03*
%TD*%
D25*
%TO.C,Q603*%
X134829000Y-106584000D03*
X134829000Y-105314000D03*
X134829000Y-104044000D03*
X134829000Y-102774000D03*
X140253000Y-102774000D03*
X140253000Y-104044000D03*
X140253000Y-105314000D03*
X140253000Y-106584000D03*
%TD*%
D17*
%TO.C,R613*%
X131841000Y-102869000D03*
X131841000Y-103889000D03*
%TD*%
%TO.C,R604*%
X133041000Y-99469000D03*
X133041000Y-100489000D03*
%TD*%
D22*
%TO.C,S204*%
X159199000Y-120008000D03*
X159199000Y-115508000D03*
X161349000Y-115508000D03*
X161349000Y-120008000D03*
%TD*%
D23*
%TO.C,RLP5*%
X144153500Y-105979000D03*
X142328500Y-105979000D03*
%TD*%
D22*
%TO.C,S205*%
X153797000Y-120015000D03*
X153797000Y-115515000D03*
X155947000Y-115515000D03*
X155947000Y-120015000D03*
%TD*%
D17*
%TO.C,R632*%
X149841000Y-111469000D03*
X149841000Y-112489000D03*
%TD*%
D26*
%TO.C,R205*%
X168402000Y-112524000D03*
X168402000Y-111504000D03*
%TD*%
D17*
%TO.C,R601*%
X133041000Y-90869000D03*
X133041000Y-91889000D03*
%TD*%
D15*
%TO.C,D202*%
X168402000Y-110213000D03*
X168402000Y-109243000D03*
%TD*%
D16*
%TO.C,RLS0*%
X160328500Y-91379000D03*
X162153500Y-91379000D03*
%TD*%
D23*
%TO.C,RLP0*%
X144153500Y-91379000D03*
X142328500Y-91379000D03*
%TD*%
D19*
%TO.C,J203*%
X123825000Y-120269000D03*
D20*
X126365000Y-120269000D03*
X128905000Y-120269000D03*
X131445000Y-120269000D03*
X133985000Y-120269000D03*
X136525000Y-120269000D03*
X139065000Y-120269000D03*
X141605000Y-120269000D03*
X144145000Y-120269000D03*
X146685000Y-120269000D03*
X149225000Y-120269000D03*
%TD*%
D29*
%TO.C,IC701*%
X127426000Y-114356000D03*
X126776000Y-114356000D03*
X126126000Y-114356000D03*
X125476000Y-114356000D03*
X124826000Y-114356000D03*
X124176000Y-114356000D03*
X123526000Y-114356000D03*
D30*
X122626000Y-113456000D03*
X122626000Y-112806000D03*
X122626000Y-112156000D03*
X122626000Y-111506000D03*
X122626000Y-110856000D03*
X122626000Y-110206000D03*
X122626000Y-109556000D03*
D29*
X123526000Y-108656000D03*
X124176000Y-108656000D03*
X124826000Y-108656000D03*
X125476000Y-108656000D03*
X126126000Y-108656000D03*
X126776000Y-108656000D03*
X127426000Y-108656000D03*
D30*
X128326000Y-109556000D03*
X128326000Y-110206000D03*
X128326000Y-110856000D03*
X128326000Y-111506000D03*
X128326000Y-112156000D03*
X128326000Y-112806000D03*
X128326000Y-113456000D03*
D31*
X125476000Y-111506000D03*
%TD*%
D32*
%TO.C,ON1*%
X124942500Y-104013000D03*
X126517500Y-104013000D03*
%TD*%
D33*
%TO.C,S201*%
X127726000Y-92261000D03*
X123226000Y-92261000D03*
X123226000Y-90111000D03*
X127726000Y-90111000D03*
%TD*%
D17*
%TO.C,R629*%
X149841000Y-102869000D03*
X149841000Y-103889000D03*
%TD*%
%TO.C,R608*%
X133041000Y-111469000D03*
X133041000Y-112489000D03*
%TD*%
%TO.C,R603*%
X133041000Y-96869000D03*
X133041000Y-97889000D03*
%TD*%
D34*
%TO.C,IC501*%
X169216000Y-100203000D03*
X167946000Y-100203000D03*
X166676000Y-100203000D03*
X165406000Y-100203000D03*
%TD*%
D23*
%TO.C,RLP7*%
X144153500Y-111979000D03*
X142328500Y-111979000D03*
%TD*%
D25*
%TO.C,Q602*%
X134829000Y-100584000D03*
X134829000Y-99314000D03*
X134829000Y-98044000D03*
X134829000Y-96774000D03*
X140253000Y-96774000D03*
X140253000Y-98044000D03*
X140253000Y-99314000D03*
X140253000Y-100584000D03*
%TD*%
D17*
%TO.C,R618*%
X151041000Y-93469000D03*
X151041000Y-94489000D03*
%TD*%
D14*
%TO.C,R210*%
X150493000Y-117221000D03*
X151513000Y-117221000D03*
%TD*%
D16*
%TO.C,RLS5*%
X160328500Y-105979000D03*
X162153500Y-105979000D03*
%TD*%
D17*
%TO.C,R606*%
X133041000Y-105469000D03*
X133041000Y-106489000D03*
%TD*%
D14*
%TO.C,R212*%
X150493000Y-115951000D03*
X151513000Y-115951000D03*
%TD*%
D17*
%TO.C,R619*%
X151041000Y-96869000D03*
X151041000Y-97889000D03*
%TD*%
%TO.C,R623*%
X151041000Y-108869000D03*
X151041000Y-109889000D03*
%TD*%
D35*
%TO.C,R501*%
X172529000Y-101801000D03*
X170879000Y-101801000D03*
%TD*%
D17*
%TO.C,R616*%
X131841000Y-111469000D03*
X131841000Y-112489000D03*
%TD*%
D25*
%TO.C,Q601*%
X134829000Y-94584000D03*
X134829000Y-93314000D03*
X134829000Y-92044000D03*
X134829000Y-90774000D03*
X140253000Y-90774000D03*
X140253000Y-92044000D03*
X140253000Y-93314000D03*
X140253000Y-94584000D03*
%TD*%
D15*
%TO.C,D201*%
X170561000Y-110213000D03*
X170561000Y-109243000D03*
%TD*%
D16*
%TO.C,RLS2*%
X160328500Y-97379000D03*
X162153500Y-97379000D03*
%TD*%
D17*
%TO.C,R628*%
X149841000Y-99469000D03*
X149841000Y-100489000D03*
%TD*%
D16*
%TO.C,RLS1*%
X160328500Y-93979000D03*
X162153500Y-93979000D03*
%TD*%
D17*
%TO.C,R624*%
X151041000Y-111469000D03*
X151041000Y-112489000D03*
%TD*%
D36*
%TO.C,C213*%
X120015000Y-93528000D03*
X120015000Y-94488000D03*
%TD*%
D16*
%TO.C,RLS4*%
X160328500Y-103379000D03*
X162153500Y-103379000D03*
%TD*%
D19*
%TO.C,J004*%
X174117000Y-116205000D03*
D20*
X171577000Y-116205000D03*
%TD*%
D17*
%TO.C,R602*%
X133041000Y-93469000D03*
X133041000Y-94489000D03*
%TD*%
D23*
%TO.C,RLP1*%
X144153500Y-93979000D03*
X142328500Y-93979000D03*
%TD*%
D25*
%TO.C,Q604*%
X134829000Y-112584000D03*
X134829000Y-111314000D03*
X134829000Y-110044000D03*
X134829000Y-108774000D03*
X140253000Y-108774000D03*
X140253000Y-110044000D03*
X140253000Y-111314000D03*
X140253000Y-112584000D03*
%TD*%
D17*
%TO.C,R626*%
X149841000Y-93469000D03*
X149841000Y-94489000D03*
%TD*%
D37*
%TO.C,IC502*%
X165608000Y-104394000D03*
X165608000Y-103894000D03*
X165608000Y-103394000D03*
X165608000Y-102894000D03*
X167708000Y-102894000D03*
X167708000Y-103394000D03*
X167708000Y-103894000D03*
X167708000Y-104394000D03*
D38*
X166658000Y-103644000D03*
%TD*%
D39*
%TO.C,C503*%
X167541000Y-106934000D03*
X168501000Y-106934000D03*
%TD*%
D23*
%TO.C,RLP4*%
X144153500Y-103379000D03*
X142328500Y-103379000D03*
%TD*%
D33*
%TO.C,S202*%
X127726000Y-97722000D03*
X123226000Y-97722000D03*
X123226000Y-95572000D03*
X127726000Y-95572000D03*
%TD*%
D16*
%TO.C,RLS7*%
X160328500Y-111979000D03*
X162153500Y-111979000D03*
%TD*%
D35*
%TO.C,R104*%
X126555000Y-101092000D03*
X124905000Y-101092000D03*
%TD*%
D17*
%TO.C,R621*%
X151041000Y-102869000D03*
X151041000Y-103889000D03*
%TD*%
D23*
%TO.C,RLP3*%
X144153500Y-99979000D03*
X142328500Y-99979000D03*
%TD*%
%TO.C,RLP6*%
X144153500Y-109379000D03*
X142328500Y-109379000D03*
%TD*%
D25*
%TO.C,Q607*%
X152829000Y-106584000D03*
X152829000Y-105314000D03*
X152829000Y-104044000D03*
X152829000Y-102774000D03*
X158253000Y-102774000D03*
X158253000Y-104044000D03*
X158253000Y-105314000D03*
X158253000Y-106584000D03*
%TD*%
D26*
%TO.C,R206*%
X166243000Y-112524000D03*
X166243000Y-111504000D03*
%TD*%
D25*
%TO.C,Q606*%
X152829000Y-100584000D03*
X152829000Y-99314000D03*
X152829000Y-98044000D03*
X152829000Y-96774000D03*
X158253000Y-96774000D03*
X158253000Y-98044000D03*
X158253000Y-99314000D03*
X158253000Y-100584000D03*
%TD*%
D14*
%TO.C,R003*%
X164717000Y-106934000D03*
X165737000Y-106934000D03*
%TD*%
D40*
%TO.C,J003*%
X176241700Y-108346999D03*
X176241700Y-110347001D03*
D41*
X181991701Y-105996999D03*
X181991701Y-112697001D03*
%TD*%
D19*
%TO.C,J001*%
X150114000Y-84709000D03*
D20*
X150114000Y-87249000D03*
X152654000Y-84709000D03*
X152654000Y-87249000D03*
X155194000Y-84709000D03*
X155194000Y-87249000D03*
X157734000Y-84709000D03*
X157734000Y-87249000D03*
%TD*%
M02*
