%TF.GenerationSoftware,KiCad,Pcbnew,7.0.10*%
%TF.CreationDate,2024-04-09T11:26:51+02:00*%
%TF.ProjectId,SolarCurveTracer,536f6c61-7243-4757-9276-655472616365,v1.0*%
%TF.SameCoordinates,Original*%
%TF.FileFunction,Soldermask,Top*%
%TF.FilePolarity,Negative*%
%FSLAX46Y46*%
G04 Gerber Fmt 4.6, Leading zero omitted, Abs format (unit mm)*
G04 Created by KiCad (PCBNEW 7.0.10) date 2024-04-09 11:26:51*
%MOMM*%
%LPD*%
G01*
G04 APERTURE LIST*
G04 Aperture macros list*
%AMRoundRect*
0 Rectangle with rounded corners*
0 $1 Rounding radius*
0 $2 $3 $4 $5 $6 $7 $8 $9 X,Y pos of 4 corners*
0 Add a 4 corners polygon primitive as box body*
4,1,4,$2,$3,$4,$5,$6,$7,$8,$9,$2,$3,0*
0 Add four circle primitives for the rounded corners*
1,1,$1+$1,$2,$3*
1,1,$1+$1,$4,$5*
1,1,$1+$1,$6,$7*
1,1,$1+$1,$8,$9*
0 Add four rect primitives between the rounded corners*
20,1,$1+$1,$2,$3,$4,$5,0*
20,1,$1+$1,$4,$5,$6,$7,0*
20,1,$1+$1,$6,$7,$8,$9,0*
20,1,$1+$1,$8,$9,$2,$3,0*%
%AMFreePoly0*
4,1,6,1.000000,0.000000,0.500000,-0.750000,-0.500000,-0.750000,-0.500000,0.750000,0.500000,0.750000,1.000000,0.000000,1.000000,0.000000,$1*%
%AMFreePoly1*
4,1,6,0.500000,-0.750000,-0.650000,-0.750000,-0.150000,0.000000,-0.650000,0.750000,0.500000,0.750000,0.500000,-0.750000,0.500000,-0.750000,$1*%
G04 Aperture macros list end*
%ADD10RoundRect,0.135000X-0.135000X-0.185000X0.135000X-0.185000X0.135000X0.185000X-0.135000X0.185000X0*%
%ADD11R,1.050000X1.300000*%
%ADD12RoundRect,0.200000X-0.200000X-0.275000X0.200000X-0.275000X0.200000X0.275000X-0.200000X0.275000X0*%
%ADD13RoundRect,0.135000X0.185000X-0.135000X0.185000X0.135000X-0.185000X0.135000X-0.185000X-0.135000X0*%
%ADD14RoundRect,0.200000X0.275000X-0.200000X0.275000X0.200000X-0.275000X0.200000X-0.275000X-0.200000X0*%
%ADD15RoundRect,0.225000X0.250000X-0.225000X0.250000X0.225000X-0.250000X0.225000X-0.250000X-0.225000X0*%
%ADD16RoundRect,0.140000X-0.140000X-0.170000X0.140000X-0.170000X0.140000X0.170000X-0.140000X0.170000X0*%
%ADD17RoundRect,0.140000X0.140000X0.170000X-0.140000X0.170000X-0.140000X-0.170000X0.140000X-0.170000X0*%
%ADD18RoundRect,0.200000X0.200000X0.275000X-0.200000X0.275000X-0.200000X-0.275000X0.200000X-0.275000X0*%
%ADD19RoundRect,0.250000X0.262500X0.450000X-0.262500X0.450000X-0.262500X-0.450000X0.262500X-0.450000X0*%
%ADD20RoundRect,0.135000X0.135000X0.185000X-0.135000X0.185000X-0.135000X-0.185000X0.135000X-0.185000X0*%
%ADD21R,0.900000X0.300000*%
%ADD22R,0.250000X1.650000*%
%ADD23RoundRect,0.140000X-0.170000X0.140000X-0.170000X-0.140000X0.170000X-0.140000X0.170000X0.140000X0*%
%ADD24FreePoly0,270.000000*%
%ADD25FreePoly1,270.000000*%
%ADD26C,0.650000*%
%ADD27RoundRect,0.102000X-0.575000X0.300000X-0.575000X-0.300000X0.575000X-0.300000X0.575000X0.300000X0*%
%ADD28RoundRect,0.102000X-0.575000X0.150000X-0.575000X-0.150000X0.575000X-0.150000X0.575000X0.150000X0*%
%ADD29O,2.304000X1.204000*%
%ADD30RoundRect,0.301000X-0.701000X0.301000X-0.701000X-0.301000X0.701000X-0.301000X0.701000X0.301000X0*%
%ADD31C,6.400000*%
%ADD32RoundRect,0.250000X-0.450000X0.262500X-0.450000X-0.262500X0.450000X-0.262500X0.450000X0.262500X0*%
%ADD33RoundRect,0.225000X-0.250000X0.225000X-0.250000X-0.225000X0.250000X-0.225000X0.250000X0.225000X0*%
%ADD34RoundRect,0.250000X-0.262500X-0.450000X0.262500X-0.450000X0.262500X0.450000X-0.262500X0.450000X0*%
%ADD35R,1.525000X0.700000*%
%ADD36RoundRect,0.225000X0.225000X0.250000X-0.225000X0.250000X-0.225000X-0.250000X0.225000X-0.250000X0*%
%ADD37RoundRect,0.050000X0.050000X-0.387500X0.050000X0.387500X-0.050000X0.387500X-0.050000X-0.387500X0*%
%ADD38RoundRect,0.050000X0.387500X-0.050000X0.387500X0.050000X-0.387500X0.050000X-0.387500X-0.050000X0*%
%ADD39R,3.200000X3.200000*%
%ADD40RoundRect,0.140000X0.170000X-0.140000X0.170000X0.140000X-0.170000X0.140000X-0.170000X-0.140000X0*%
%ADD41R,0.350000X0.850000*%
%ADD42R,0.850000X0.350000*%
%ADD43R,2.700000X2.700000*%
%ADD44RoundRect,0.102000X-0.700000X-0.950000X0.700000X-0.950000X0.700000X0.950000X-0.700000X0.950000X0*%
%ADD45RoundRect,0.102000X-0.600000X-0.700000X0.600000X-0.700000X0.600000X0.700000X-0.600000X0.700000X0*%
%ADD46RoundRect,0.102000X-0.650000X-0.700000X0.650000X-0.700000X0.650000X0.700000X-0.650000X0.700000X0*%
%ADD47RoundRect,0.102000X-0.400000X-0.750000X0.400000X-0.750000X0.400000X0.750000X-0.400000X0.750000X0*%
%ADD48RoundRect,0.102000X-0.500000X-0.520000X0.500000X-0.520000X0.500000X0.520000X-0.500000X0.520000X0*%
%ADD49RoundRect,0.200000X-0.275000X0.200000X-0.275000X-0.200000X0.275000X-0.200000X0.275000X0.200000X0*%
%ADD50RoundRect,0.135000X-0.185000X0.135000X-0.185000X-0.135000X0.185000X-0.135000X0.185000X0.135000X0*%
%ADD51R,1.200000X0.600000*%
%ADD52R,1.050000X0.750000*%
%ADD53C,1.803400*%
%ADD54R,1.700000X1.700000*%
%ADD55O,1.700000X1.700000*%
%ADD56R,1.600000X1.600000*%
%ADD57C,1.600000*%
G04 APERTURE END LIST*
D10*
%TO.C,R703*%
X128014000Y-110109000D03*
X129034000Y-110109000D03*
%TD*%
D11*
%TO.C,Y201*%
X148449000Y-110624000D03*
X148449000Y-108324000D03*
X146699000Y-108324000D03*
X146699000Y-110624000D03*
%TD*%
D12*
%TO.C,R403*%
X154902400Y-89941400D03*
X156552400Y-89941400D03*
%TD*%
D13*
%TO.C,R001*%
X147574000Y-94617000D03*
X147574000Y-93597000D03*
%TD*%
D14*
%TO.C,R304*%
X168275000Y-104584000D03*
X168275000Y-102934000D03*
%TD*%
D10*
%TO.C,R701*%
X122680000Y-110109000D03*
X123700000Y-110109000D03*
%TD*%
D13*
%TO.C,R007*%
X168148000Y-92458000D03*
X168148000Y-91438000D03*
%TD*%
D15*
%TO.C,C402*%
X162077400Y-93256400D03*
X162077400Y-91706400D03*
%TD*%
D16*
%TO.C,C214*%
X136017000Y-111506000D03*
X136977000Y-111506000D03*
%TD*%
D10*
%TO.C,R203*%
X146810000Y-103124000D03*
X147830000Y-103124000D03*
%TD*%
D17*
%TO.C,C201*%
X147800000Y-104902000D03*
X146840000Y-104902000D03*
%TD*%
D18*
%TO.C,R004*%
X176720000Y-103251000D03*
X175070000Y-103251000D03*
%TD*%
D19*
%TO.C,RCD1*%
X172210100Y-85547200D03*
X170385100Y-85547200D03*
%TD*%
D17*
%TO.C,C210*%
X135225000Y-99060000D03*
X134265000Y-99060000D03*
%TD*%
D20*
%TO.C,R201*%
X135257000Y-101600000D03*
X134237000Y-101600000D03*
%TD*%
D14*
%TO.C,R302*%
X170053000Y-104584000D03*
X170053000Y-102934000D03*
%TD*%
D21*
%TO.C,IC202*%
X133982000Y-108597000D03*
X133982000Y-109097000D03*
X133982000Y-109597000D03*
X133982000Y-110097000D03*
X136782000Y-110097000D03*
X136782000Y-109597000D03*
X136782000Y-109097000D03*
X136782000Y-108597000D03*
D22*
X135382000Y-109347000D03*
%TD*%
D23*
%TO.C,C203*%
X141097000Y-108232000D03*
X141097000Y-109192000D03*
%TD*%
D24*
%TO.C,AH0*%
X123190000Y-111670000D03*
D25*
X123190000Y-113120000D03*
%TD*%
D26*
%TO.C,J101*%
X120012000Y-99660000D03*
X120012000Y-105440000D03*
D27*
X121087000Y-99350000D03*
X121087000Y-100150000D03*
D28*
X121087000Y-101300000D03*
X121087000Y-102300000D03*
X121087000Y-102800000D03*
X121087000Y-103800000D03*
D27*
X121087000Y-105750000D03*
X121087000Y-104950000D03*
D28*
X121087000Y-104300000D03*
X121087000Y-103300000D03*
X121087000Y-101800000D03*
X121087000Y-100800000D03*
D29*
X120512000Y-98230000D03*
X120512000Y-106870000D03*
D30*
X116332000Y-98230000D03*
X116332000Y-106870000D03*
%TD*%
D31*
%TO.C,H2*%
X118300000Y-86550000D03*
%TD*%
D24*
%TO.C,AH1*%
X125857000Y-111670000D03*
D25*
X125857000Y-113120000D03*
%TD*%
D14*
%TO.C,R303*%
X157480000Y-104558600D03*
X157480000Y-102908600D03*
%TD*%
D31*
%TO.C,H4*%
X180300000Y-86550000D03*
%TD*%
D32*
%TO.C,Rs04*%
X161036000Y-102465500D03*
X161036000Y-104290500D03*
%TD*%
D18*
%TO.C,R402*%
X160362400Y-89941400D03*
X158712400Y-89941400D03*
%TD*%
D24*
%TO.C,AH2*%
X128524000Y-111670000D03*
D25*
X128524000Y-113120000D03*
%TD*%
D23*
%TO.C,C202*%
X143256000Y-108232000D03*
X143256000Y-109192000D03*
%TD*%
D31*
%TO.C,H3*%
X118300000Y-118550000D03*
%TD*%
D33*
%TO.C,C401*%
X162077400Y-95516400D03*
X162077400Y-97066400D03*
%TD*%
D34*
%TO.C,Rs02*%
X174855500Y-99314000D03*
X176680500Y-99314000D03*
%TD*%
D16*
%TO.C,C205*%
X146840000Y-101346000D03*
X147800000Y-101346000D03*
%TD*%
D12*
%TO.C,R101*%
X119444000Y-93218000D03*
X121094000Y-93218000D03*
%TD*%
D19*
%TO.C,Rs01*%
X176680500Y-107061000D03*
X174855500Y-107061000D03*
%TD*%
D35*
%TO.C,Q001*%
X171278000Y-91694000D03*
X171278000Y-92964000D03*
X171278000Y-94234000D03*
X171278000Y-95504000D03*
X176702000Y-95504000D03*
X176702000Y-94234000D03*
X176702000Y-92964000D03*
X176702000Y-91694000D03*
%TD*%
D15*
%TO.C,C301*%
X164719000Y-104534000D03*
X164719000Y-102984000D03*
%TD*%
D14*
%TO.C,R404*%
X163068000Y-86677000D03*
X163068000Y-85027000D03*
%TD*%
D23*
%TO.C,C204*%
X138938000Y-108232000D03*
X138938000Y-109192000D03*
%TD*%
D13*
%TO.C,R006*%
X169291000Y-95633000D03*
X169291000Y-94613000D03*
%TD*%
D36*
%TO.C,C102*%
X129172000Y-95885000D03*
X127622000Y-95885000D03*
%TD*%
D13*
%TO.C,R005*%
X169291000Y-92458000D03*
X169291000Y-91438000D03*
%TD*%
D36*
%TO.C,C101*%
X121044000Y-91313000D03*
X119494000Y-91313000D03*
%TD*%
D37*
%TO.C,IC201*%
X138459000Y-105761500D03*
X138859000Y-105761500D03*
X139259000Y-105761500D03*
X139659000Y-105761500D03*
X140059000Y-105761500D03*
X140459000Y-105761500D03*
X140859000Y-105761500D03*
X141259000Y-105761500D03*
X141659000Y-105761500D03*
X142059000Y-105761500D03*
X142459000Y-105761500D03*
X142859000Y-105761500D03*
X143259000Y-105761500D03*
X143659000Y-105761500D03*
D38*
X144496500Y-104924000D03*
X144496500Y-104524000D03*
X144496500Y-104124000D03*
X144496500Y-103724000D03*
X144496500Y-103324000D03*
X144496500Y-102924000D03*
X144496500Y-102524000D03*
X144496500Y-102124000D03*
X144496500Y-101724000D03*
X144496500Y-101324000D03*
X144496500Y-100924000D03*
X144496500Y-100524000D03*
X144496500Y-100124000D03*
X144496500Y-99724000D03*
D37*
X143659000Y-98886500D03*
X143259000Y-98886500D03*
X142859000Y-98886500D03*
X142459000Y-98886500D03*
X142059000Y-98886500D03*
X141659000Y-98886500D03*
X141259000Y-98886500D03*
X140859000Y-98886500D03*
X140459000Y-98886500D03*
X140059000Y-98886500D03*
X139659000Y-98886500D03*
X139259000Y-98886500D03*
X138859000Y-98886500D03*
X138459000Y-98886500D03*
D38*
X137621500Y-99724000D03*
X137621500Y-100124000D03*
X137621500Y-100524000D03*
X137621500Y-100924000D03*
X137621500Y-101324000D03*
X137621500Y-101724000D03*
X137621500Y-102124000D03*
X137621500Y-102524000D03*
X137621500Y-102924000D03*
X137621500Y-103324000D03*
X137621500Y-103724000D03*
X137621500Y-104124000D03*
X137621500Y-104524000D03*
X137621500Y-104924000D03*
D39*
X141059000Y-102324000D03*
%TD*%
D13*
%TO.C,R002*%
X146431000Y-94617000D03*
X146431000Y-93597000D03*
%TD*%
D20*
%TO.C,R209*%
X135257000Y-105664000D03*
X134237000Y-105664000D03*
%TD*%
D40*
%TO.C,C207*%
X143637000Y-96492000D03*
X143637000Y-95532000D03*
%TD*%
D14*
%TO.C,R4A1*%
X160909000Y-86677000D03*
X160909000Y-85027000D03*
%TD*%
D41*
%TO.C,IC401*%
X158607400Y-92436400D03*
X157957400Y-92436400D03*
X157307400Y-92436400D03*
X156657400Y-92436400D03*
D42*
X155682400Y-93411400D03*
X155682400Y-94061400D03*
X155682400Y-94711400D03*
X155682400Y-95361400D03*
D41*
X156657400Y-96336400D03*
X157307400Y-96336400D03*
X157957400Y-96336400D03*
X158607400Y-96336400D03*
D42*
X159582400Y-95361400D03*
X159582400Y-94711400D03*
X159582400Y-94061400D03*
X159582400Y-93411400D03*
D43*
X157632400Y-94386400D03*
%TD*%
D17*
%TO.C,C208*%
X135227000Y-103124000D03*
X134267000Y-103124000D03*
%TD*%
%TO.C,C211*%
X135225000Y-104140000D03*
X134265000Y-104140000D03*
%TD*%
D31*
%TO.C,H1*%
X180300000Y-118550000D03*
%TD*%
D40*
%TO.C,C206*%
X138430000Y-96492000D03*
X138430000Y-95532000D03*
%TD*%
D20*
%TO.C,R208*%
X135257000Y-106680000D03*
X134237000Y-106680000D03*
%TD*%
D17*
%TO.C,C209*%
X135225000Y-98044000D03*
X134265000Y-98044000D03*
%TD*%
D14*
%TO.C,R301*%
X155651200Y-104558600D03*
X155651200Y-102908600D03*
%TD*%
D44*
%TO.C,J301*%
X155883400Y-119920200D03*
X169033400Y-120920200D03*
D45*
X157423400Y-106770200D03*
D46*
X163173400Y-106770200D03*
D47*
X164363400Y-117630200D03*
X163263400Y-117230200D03*
X162163400Y-117630200D03*
X161063400Y-117830200D03*
X159963400Y-117630200D03*
X158863400Y-117830200D03*
X157763400Y-117630200D03*
X156663400Y-117630200D03*
D48*
X158873400Y-106400200D03*
%TD*%
D16*
%TO.C,C212*%
X146840000Y-99568000D03*
X147800000Y-99568000D03*
%TD*%
D12*
%TO.C,R102*%
X119444000Y-95123000D03*
X121094000Y-95123000D03*
%TD*%
D49*
%TO.C,R405*%
X165227000Y-85027000D03*
X165227000Y-86677000D03*
%TD*%
D34*
%TO.C,Rs03*%
X137771500Y-91694000D03*
X139596500Y-91694000D03*
%TD*%
D20*
%TO.C,R202*%
X135257000Y-100584000D03*
X134237000Y-100584000D03*
%TD*%
D18*
%TO.C,R103*%
X125412000Y-95885000D03*
X123762000Y-95885000D03*
%TD*%
D50*
%TO.C,R008*%
X168148000Y-94613000D03*
X168148000Y-95633000D03*
%TD*%
D20*
%TO.C,R702*%
X126367000Y-110072000D03*
X125347000Y-110072000D03*
%TD*%
D15*
%TO.C,C302*%
X166497000Y-104521000D03*
X166497000Y-102971000D03*
%TD*%
D51*
%TO.C,IC101*%
X131846000Y-91506000D03*
X131846000Y-92456000D03*
X131846000Y-93406000D03*
X134346000Y-93406000D03*
X134346000Y-91506000D03*
%TD*%
D17*
%TO.C,C215*%
X134719000Y-111506000D03*
X133759000Y-111506000D03*
%TD*%
D52*
%TO.C,D101*%
X128292000Y-92329000D03*
X124692000Y-92329000D03*
%TD*%
D53*
%TO.C,J002*%
X179578000Y-94869000D03*
X179578000Y-99869000D03*
%TD*%
D54*
%TO.C,J005*%
X174117000Y-120142000D03*
D55*
X171577000Y-120142000D03*
%TD*%
D54*
%TO.C,J202*%
X136271000Y-84709000D03*
D55*
X133731000Y-84709000D03*
X131191000Y-84709000D03*
X128651000Y-84709000D03*
X126111000Y-84709000D03*
X123571000Y-84709000D03*
%TD*%
D54*
%TO.C,J201*%
X145654000Y-84709000D03*
D55*
X143114000Y-84709000D03*
X140574000Y-84709000D03*
%TD*%
D56*
%TO.C,SC01*%
X173072000Y-89154000D03*
D57*
X166272000Y-89154000D03*
%TD*%
D54*
%TO.C,J203*%
X123825000Y-120269000D03*
D55*
X126365000Y-120269000D03*
X128905000Y-120269000D03*
X131445000Y-120269000D03*
X133985000Y-120269000D03*
X136525000Y-120269000D03*
X139065000Y-120269000D03*
X141605000Y-120269000D03*
X144145000Y-120269000D03*
X146685000Y-120269000D03*
X149225000Y-120269000D03*
%TD*%
D54*
%TO.C,J004*%
X174117000Y-116205000D03*
D55*
X171577000Y-116205000D03*
%TD*%
D54*
%TO.C,J001*%
X150114000Y-84709000D03*
D55*
X150114000Y-87249000D03*
X152654000Y-84709000D03*
X152654000Y-87249000D03*
X155194000Y-84709000D03*
X155194000Y-87249000D03*
X157734000Y-84709000D03*
X157734000Y-87249000D03*
%TD*%
M02*
