%TF.GenerationSoftware,KiCad,Pcbnew,7.0.10*%
%TF.CreationDate,2024-04-09T11:26:50+02:00*%
%TF.ProjectId,SolarCurveTracer,536f6c61-7243-4757-9276-655472616365,v1.0*%
%TF.SameCoordinates,Original*%
%TF.FileFunction,Paste,Top*%
%TF.FilePolarity,Positive*%
%FSLAX46Y46*%
G04 Gerber Fmt 4.6, Leading zero omitted, Abs format (unit mm)*
G04 Created by KiCad (PCBNEW 7.0.10) date 2024-04-09 11:26:50*
%MOMM*%
%LPD*%
G01*
G04 APERTURE LIST*
G04 Aperture macros list*
%AMRoundRect*
0 Rectangle with rounded corners*
0 $1 Rounding radius*
0 $2 $3 $4 $5 $6 $7 $8 $9 X,Y pos of 4 corners*
0 Add a 4 corners polygon primitive as box body*
4,1,4,$2,$3,$4,$5,$6,$7,$8,$9,$2,$3,0*
0 Add four circle primitives for the rounded corners*
1,1,$1+$1,$2,$3*
1,1,$1+$1,$4,$5*
1,1,$1+$1,$6,$7*
1,1,$1+$1,$8,$9*
0 Add four rect primitives between the rounded corners*
20,1,$1+$1,$2,$3,$4,$5,0*
20,1,$1+$1,$4,$5,$6,$7,0*
20,1,$1+$1,$6,$7,$8,$9,0*
20,1,$1+$1,$8,$9,$2,$3,0*%
G04 Aperture macros list end*
%ADD10RoundRect,0.135000X-0.135000X-0.185000X0.135000X-0.185000X0.135000X0.185000X-0.135000X0.185000X0*%
%ADD11R,1.050000X1.300000*%
%ADD12RoundRect,0.200000X-0.200000X-0.275000X0.200000X-0.275000X0.200000X0.275000X-0.200000X0.275000X0*%
%ADD13RoundRect,0.135000X0.185000X-0.135000X0.185000X0.135000X-0.185000X0.135000X-0.185000X-0.135000X0*%
%ADD14RoundRect,0.200000X0.275000X-0.200000X0.275000X0.200000X-0.275000X0.200000X-0.275000X-0.200000X0*%
%ADD15RoundRect,0.225000X0.250000X-0.225000X0.250000X0.225000X-0.250000X0.225000X-0.250000X-0.225000X0*%
%ADD16RoundRect,0.140000X-0.140000X-0.170000X0.140000X-0.170000X0.140000X0.170000X-0.140000X0.170000X0*%
%ADD17RoundRect,0.140000X0.140000X0.170000X-0.140000X0.170000X-0.140000X-0.170000X0.140000X-0.170000X0*%
%ADD18RoundRect,0.200000X0.200000X0.275000X-0.200000X0.275000X-0.200000X-0.275000X0.200000X-0.275000X0*%
%ADD19RoundRect,0.250000X0.262500X0.450000X-0.262500X0.450000X-0.262500X-0.450000X0.262500X-0.450000X0*%
%ADD20RoundRect,0.135000X0.135000X0.185000X-0.135000X0.185000X-0.135000X-0.185000X0.135000X-0.185000X0*%
%ADD21R,0.900000X0.300000*%
%ADD22R,0.250000X1.650000*%
%ADD23RoundRect,0.140000X-0.170000X0.140000X-0.170000X-0.140000X0.170000X-0.140000X0.170000X0.140000X0*%
%ADD24R,1.150000X0.600000*%
%ADD25R,1.150000X0.300000*%
%ADD26RoundRect,0.250000X-0.450000X0.262500X-0.450000X-0.262500X0.450000X-0.262500X0.450000X0.262500X0*%
%ADD27RoundRect,0.225000X-0.250000X0.225000X-0.250000X-0.225000X0.250000X-0.225000X0.250000X0.225000X0*%
%ADD28RoundRect,0.250000X-0.262500X-0.450000X0.262500X-0.450000X0.262500X0.450000X-0.262500X0.450000X0*%
%ADD29R,1.525000X0.700000*%
%ADD30RoundRect,0.225000X0.225000X0.250000X-0.225000X0.250000X-0.225000X-0.250000X0.225000X-0.250000X0*%
%ADD31RoundRect,0.249999X0.395001X-0.395001X0.395001X0.395001X-0.395001X0.395001X-0.395001X-0.395001X0*%
%ADD32RoundRect,0.050000X0.050000X-0.387500X0.050000X0.387500X-0.050000X0.387500X-0.050000X-0.387500X0*%
%ADD33RoundRect,0.050000X0.387500X-0.050000X0.387500X0.050000X-0.387500X0.050000X-0.387500X-0.050000X0*%
%ADD34RoundRect,0.140000X0.170000X-0.140000X0.170000X0.140000X-0.170000X0.140000X-0.170000X-0.140000X0*%
%ADD35R,0.350000X0.850000*%
%ADD36R,0.850000X0.350000*%
%ADD37R,2.700000X2.700000*%
%ADD38R,1.400000X1.900000*%
%ADD39R,1.200000X1.400000*%
%ADD40R,1.300000X1.400000*%
%ADD41R,0.800000X1.500000*%
%ADD42R,1.000000X1.040000*%
%ADD43RoundRect,0.200000X-0.275000X0.200000X-0.275000X-0.200000X0.275000X-0.200000X0.275000X0.200000X0*%
%ADD44RoundRect,0.135000X-0.185000X0.135000X-0.185000X-0.135000X0.185000X-0.135000X0.185000X0.135000X0*%
%ADD45R,1.200000X0.600000*%
%ADD46R,1.050000X0.750000*%
G04 APERTURE END LIST*
D10*
%TO.C,R703*%
X128014000Y-110109000D03*
X129034000Y-110109000D03*
%TD*%
D11*
%TO.C,Y201*%
X148449000Y-110624000D03*
X148449000Y-108324000D03*
X146699000Y-108324000D03*
X146699000Y-110624000D03*
%TD*%
D12*
%TO.C,R403*%
X154902400Y-89941400D03*
X156552400Y-89941400D03*
%TD*%
D13*
%TO.C,R001*%
X147574000Y-94617000D03*
X147574000Y-93597000D03*
%TD*%
D14*
%TO.C,R304*%
X168275000Y-104584000D03*
X168275000Y-102934000D03*
%TD*%
D10*
%TO.C,R701*%
X122680000Y-110109000D03*
X123700000Y-110109000D03*
%TD*%
D13*
%TO.C,R007*%
X168148000Y-92458000D03*
X168148000Y-91438000D03*
%TD*%
D15*
%TO.C,C402*%
X162077400Y-93256400D03*
X162077400Y-91706400D03*
%TD*%
D16*
%TO.C,C214*%
X136017000Y-111506000D03*
X136977000Y-111506000D03*
%TD*%
D10*
%TO.C,R203*%
X146810000Y-103124000D03*
X147830000Y-103124000D03*
%TD*%
D17*
%TO.C,C201*%
X147800000Y-104902000D03*
X146840000Y-104902000D03*
%TD*%
D18*
%TO.C,R004*%
X176720000Y-103251000D03*
X175070000Y-103251000D03*
%TD*%
D19*
%TO.C,RCD1*%
X172210100Y-85547200D03*
X170385100Y-85547200D03*
%TD*%
D17*
%TO.C,C210*%
X135225000Y-99060000D03*
X134265000Y-99060000D03*
%TD*%
D20*
%TO.C,R201*%
X135257000Y-101600000D03*
X134237000Y-101600000D03*
%TD*%
D14*
%TO.C,R302*%
X170053000Y-104584000D03*
X170053000Y-102934000D03*
%TD*%
D21*
%TO.C,IC202*%
X133982000Y-108597000D03*
X133982000Y-109097000D03*
X133982000Y-109597000D03*
X133982000Y-110097000D03*
X136782000Y-110097000D03*
X136782000Y-109597000D03*
X136782000Y-109097000D03*
X136782000Y-108597000D03*
D22*
X135382000Y-109347000D03*
%TD*%
D23*
%TO.C,C203*%
X141097000Y-108232000D03*
X141097000Y-109192000D03*
%TD*%
D24*
%TO.C,J101*%
X121087000Y-99350000D03*
X121087000Y-100150000D03*
D25*
X121087000Y-101300000D03*
X121087000Y-102300000D03*
X121087000Y-102800000D03*
X121087000Y-103800000D03*
D24*
X121087000Y-105750000D03*
X121087000Y-104950000D03*
D25*
X121087000Y-104300000D03*
X121087000Y-103300000D03*
X121087000Y-101800000D03*
X121087000Y-100800000D03*
%TD*%
D14*
%TO.C,R303*%
X157480000Y-104558600D03*
X157480000Y-102908600D03*
%TD*%
D26*
%TO.C,Rs04*%
X161036000Y-102465500D03*
X161036000Y-104290500D03*
%TD*%
D18*
%TO.C,R402*%
X160362400Y-89941400D03*
X158712400Y-89941400D03*
%TD*%
D23*
%TO.C,C202*%
X143256000Y-108232000D03*
X143256000Y-109192000D03*
%TD*%
D27*
%TO.C,C401*%
X162077400Y-95516400D03*
X162077400Y-97066400D03*
%TD*%
D28*
%TO.C,Rs02*%
X174855500Y-99314000D03*
X176680500Y-99314000D03*
%TD*%
D16*
%TO.C,C205*%
X146840000Y-101346000D03*
X147800000Y-101346000D03*
%TD*%
D12*
%TO.C,R101*%
X119444000Y-93218000D03*
X121094000Y-93218000D03*
%TD*%
D19*
%TO.C,Rs01*%
X176680500Y-107061000D03*
X174855500Y-107061000D03*
%TD*%
D29*
%TO.C,Q001*%
X171278000Y-91694000D03*
X171278000Y-92964000D03*
X171278000Y-94234000D03*
X171278000Y-95504000D03*
X176702000Y-95504000D03*
X176702000Y-94234000D03*
X176702000Y-92964000D03*
X176702000Y-91694000D03*
%TD*%
D15*
%TO.C,C301*%
X164719000Y-104534000D03*
X164719000Y-102984000D03*
%TD*%
D14*
%TO.C,R404*%
X163068000Y-86677000D03*
X163068000Y-85027000D03*
%TD*%
D23*
%TO.C,C204*%
X138938000Y-108232000D03*
X138938000Y-109192000D03*
%TD*%
D13*
%TO.C,R006*%
X169291000Y-95633000D03*
X169291000Y-94613000D03*
%TD*%
D30*
%TO.C,C102*%
X129172000Y-95885000D03*
X127622000Y-95885000D03*
%TD*%
D13*
%TO.C,R005*%
X169291000Y-92458000D03*
X169291000Y-91438000D03*
%TD*%
D30*
%TO.C,C101*%
X121044000Y-91313000D03*
X119494000Y-91313000D03*
%TD*%
D31*
%TO.C,IC201*%
X140259000Y-103124000D03*
X141859000Y-103124000D03*
X140259000Y-101524000D03*
X141859000Y-101524000D03*
D32*
X138459000Y-105761500D03*
X138859000Y-105761500D03*
X139259000Y-105761500D03*
X139659000Y-105761500D03*
X140059000Y-105761500D03*
X140459000Y-105761500D03*
X140859000Y-105761500D03*
X141259000Y-105761500D03*
X141659000Y-105761500D03*
X142059000Y-105761500D03*
X142459000Y-105761500D03*
X142859000Y-105761500D03*
X143259000Y-105761500D03*
X143659000Y-105761500D03*
D33*
X144496500Y-104924000D03*
X144496500Y-104524000D03*
X144496500Y-104124000D03*
X144496500Y-103724000D03*
X144496500Y-103324000D03*
X144496500Y-102924000D03*
X144496500Y-102524000D03*
X144496500Y-102124000D03*
X144496500Y-101724000D03*
X144496500Y-101324000D03*
X144496500Y-100924000D03*
X144496500Y-100524000D03*
X144496500Y-100124000D03*
X144496500Y-99724000D03*
D32*
X143659000Y-98886500D03*
X143259000Y-98886500D03*
X142859000Y-98886500D03*
X142459000Y-98886500D03*
X142059000Y-98886500D03*
X141659000Y-98886500D03*
X141259000Y-98886500D03*
X140859000Y-98886500D03*
X140459000Y-98886500D03*
X140059000Y-98886500D03*
X139659000Y-98886500D03*
X139259000Y-98886500D03*
X138859000Y-98886500D03*
X138459000Y-98886500D03*
D33*
X137621500Y-99724000D03*
X137621500Y-100124000D03*
X137621500Y-100524000D03*
X137621500Y-100924000D03*
X137621500Y-101324000D03*
X137621500Y-101724000D03*
X137621500Y-102124000D03*
X137621500Y-102524000D03*
X137621500Y-102924000D03*
X137621500Y-103324000D03*
X137621500Y-103724000D03*
X137621500Y-104124000D03*
X137621500Y-104524000D03*
X137621500Y-104924000D03*
%TD*%
D13*
%TO.C,R002*%
X146431000Y-94617000D03*
X146431000Y-93597000D03*
%TD*%
D20*
%TO.C,R209*%
X135257000Y-105664000D03*
X134237000Y-105664000D03*
%TD*%
D34*
%TO.C,C207*%
X143637000Y-96492000D03*
X143637000Y-95532000D03*
%TD*%
D14*
%TO.C,R4A1*%
X160909000Y-86677000D03*
X160909000Y-85027000D03*
%TD*%
D35*
%TO.C,IC401*%
X158607400Y-92436400D03*
X157957400Y-92436400D03*
X157307400Y-92436400D03*
X156657400Y-92436400D03*
D36*
X155682400Y-93411400D03*
X155682400Y-94061400D03*
X155682400Y-94711400D03*
X155682400Y-95361400D03*
D35*
X156657400Y-96336400D03*
X157307400Y-96336400D03*
X157957400Y-96336400D03*
X158607400Y-96336400D03*
D36*
X159582400Y-95361400D03*
X159582400Y-94711400D03*
X159582400Y-94061400D03*
X159582400Y-93411400D03*
D37*
X157632400Y-94386400D03*
%TD*%
D17*
%TO.C,C208*%
X135227000Y-103124000D03*
X134267000Y-103124000D03*
%TD*%
%TO.C,C211*%
X135225000Y-104140000D03*
X134265000Y-104140000D03*
%TD*%
D34*
%TO.C,C206*%
X138430000Y-96492000D03*
X138430000Y-95532000D03*
%TD*%
D20*
%TO.C,R208*%
X135257000Y-106680000D03*
X134237000Y-106680000D03*
%TD*%
D17*
%TO.C,C209*%
X135225000Y-98044000D03*
X134265000Y-98044000D03*
%TD*%
D14*
%TO.C,R301*%
X155651200Y-104558600D03*
X155651200Y-102908600D03*
%TD*%
D38*
%TO.C,J301*%
X155883400Y-119920200D03*
X169033400Y-120920200D03*
D39*
X157423400Y-106770200D03*
D40*
X163173400Y-106770200D03*
D41*
X164363400Y-117630200D03*
X163263400Y-117230200D03*
X162163400Y-117630200D03*
X161063400Y-117830200D03*
X159963400Y-117630200D03*
X158863400Y-117830200D03*
X157763400Y-117630200D03*
X156663400Y-117630200D03*
D42*
X158873400Y-106400200D03*
%TD*%
D16*
%TO.C,C212*%
X146840000Y-99568000D03*
X147800000Y-99568000D03*
%TD*%
D12*
%TO.C,R102*%
X119444000Y-95123000D03*
X121094000Y-95123000D03*
%TD*%
D43*
%TO.C,R405*%
X165227000Y-85027000D03*
X165227000Y-86677000D03*
%TD*%
D28*
%TO.C,Rs03*%
X137771500Y-91694000D03*
X139596500Y-91694000D03*
%TD*%
D20*
%TO.C,R202*%
X135257000Y-100584000D03*
X134237000Y-100584000D03*
%TD*%
D18*
%TO.C,R103*%
X125412000Y-95885000D03*
X123762000Y-95885000D03*
%TD*%
D44*
%TO.C,R008*%
X168148000Y-94613000D03*
X168148000Y-95633000D03*
%TD*%
D20*
%TO.C,R702*%
X126367000Y-110072000D03*
X125347000Y-110072000D03*
%TD*%
D15*
%TO.C,C302*%
X166497000Y-104521000D03*
X166497000Y-102971000D03*
%TD*%
D45*
%TO.C,IC101*%
X131846000Y-91506000D03*
X131846000Y-92456000D03*
X131846000Y-93406000D03*
X134346000Y-93406000D03*
X134346000Y-91506000D03*
%TD*%
D17*
%TO.C,C215*%
X134719000Y-111506000D03*
X133759000Y-111506000D03*
%TD*%
D46*
%TO.C,D101*%
X128292000Y-92329000D03*
X124692000Y-92329000D03*
%TD*%
M02*
