%TF.GenerationSoftware,KiCad,Pcbnew,7.0.10*%
%TF.CreationDate,2024-06-27T09:55:29+02:00*%
%TF.ProjectId,SolarCurveTracer,536f6c61-7243-4757-9276-655472616365,v1.1*%
%TF.SameCoordinates,Original*%
%TF.FileFunction,Soldermask,Bot*%
%TF.FilePolarity,Negative*%
%FSLAX46Y46*%
G04 Gerber Fmt 4.6, Leading zero omitted, Abs format (unit mm)*
G04 Created by KiCad (PCBNEW 7.0.10) date 2024-06-27 09:55:29*
%MOMM*%
%LPD*%
G01*
G04 APERTURE LIST*
G04 Aperture macros list*
%AMRoundRect*
0 Rectangle with rounded corners*
0 $1 Rounding radius*
0 $2 $3 $4 $5 $6 $7 $8 $9 X,Y pos of 4 corners*
0 Add a 4 corners polygon primitive as box body*
4,1,4,$2,$3,$4,$5,$6,$7,$8,$9,$2,$3,0*
0 Add four circle primitives for the rounded corners*
1,1,$1+$1,$2,$3*
1,1,$1+$1,$4,$5*
1,1,$1+$1,$6,$7*
1,1,$1+$1,$8,$9*
0 Add four rect primitives between the rounded corners*
20,1,$1+$1,$2,$3,$4,$5,0*
20,1,$1+$1,$4,$5,$6,$7,0*
20,1,$1+$1,$6,$7,$8,$9,0*
20,1,$1+$1,$8,$9,$2,$3,0*%
G04 Aperture macros list end*
%ADD10C,6.400000*%
%ADD11C,0.650000*%
%ADD12O,2.304000X1.204000*%
%ADD13RoundRect,0.301000X-0.701000X0.301000X-0.701000X-0.301000X0.701000X-0.301000X0.701000X0.301000X0*%
%ADD14R,1.525000X0.700000*%
%ADD15RoundRect,0.250000X0.262500X0.450000X-0.262500X0.450000X-0.262500X-0.450000X0.262500X-0.450000X0*%
%ADD16RoundRect,0.135000X-0.135000X-0.185000X0.135000X-0.185000X0.135000X0.185000X-0.135000X0.185000X0*%
%ADD17RoundRect,0.135000X0.135000X0.185000X-0.135000X0.185000X-0.135000X-0.185000X0.135000X-0.185000X0*%
%ADD18RoundRect,0.225000X0.225000X0.250000X-0.225000X0.250000X-0.225000X-0.250000X0.225000X-0.250000X0*%
%ADD19R,1.700000X1.700000*%
%ADD20O,1.700000X1.700000*%
%ADD21RoundRect,0.135000X-0.185000X0.135000X-0.185000X-0.135000X0.185000X-0.135000X0.185000X0.135000X0*%
%ADD22RoundRect,0.200000X-0.275000X0.200000X-0.275000X-0.200000X0.275000X-0.200000X0.275000X0.200000X0*%
%ADD23R,0.750000X1.000000*%
%ADD24RoundRect,0.147500X0.147500X0.172500X-0.147500X0.172500X-0.147500X-0.172500X0.147500X-0.172500X0*%
%ADD25RoundRect,0.140000X0.140000X0.170000X-0.140000X0.170000X-0.140000X-0.170000X0.140000X-0.170000X0*%
%ADD26R,0.700000X1.600000*%
%ADD27RoundRect,0.200000X0.200000X0.275000X-0.200000X0.275000X-0.200000X-0.275000X0.200000X-0.275000X0*%
%ADD28RoundRect,0.225000X0.250000X-0.225000X0.250000X0.225000X-0.250000X0.225000X-0.250000X-0.225000X0*%
%ADD29C,1.803400*%
%ADD30RoundRect,0.250000X-0.450000X0.262500X-0.450000X-0.262500X0.450000X-0.262500X0.450000X0.262500X0*%
%ADD31RoundRect,0.200000X0.275000X-0.200000X0.275000X0.200000X-0.275000X0.200000X-0.275000X-0.200000X0*%
%ADD32RoundRect,0.200000X-0.200000X-0.275000X0.200000X-0.275000X0.200000X0.275000X-0.200000X0.275000X0*%
%ADD33R,3.505200X0.990600*%
%ADD34R,3.403600X1.498600*%
%ADD35R,1.000000X0.750000*%
%ADD36R,0.850000X0.350000*%
%ADD37R,0.350000X0.850000*%
%ADD38R,2.700000X2.700000*%
%ADD39R,0.700000X0.300000*%
%ADD40R,1.000000X1.700000*%
%ADD41RoundRect,0.218750X0.218750X0.256250X-0.218750X0.256250X-0.218750X-0.256250X0.218750X-0.256250X0*%
%ADD42R,1.600000X1.600000*%
%ADD43C,1.600000*%
%ADD44RoundRect,0.225000X-0.250000X0.225000X-0.250000X-0.225000X0.250000X-0.225000X0.250000X0.225000X0*%
G04 APERTURE END LIST*
D10*
X114000000Y-84000000D03*
X181000000Y-121000000D03*
D11*
X115680000Y-99610000D03*
X115680000Y-105390000D03*
D12*
X116180000Y-98180000D03*
X116180000Y-106820000D03*
D13*
X112000000Y-98180000D03*
X112000000Y-106820000D03*
D10*
X114000000Y-121000000D03*
X181000000Y-84000000D03*
D14*
X149288000Y-107105000D03*
X149288000Y-105835000D03*
X149288000Y-104565000D03*
X149288000Y-103295000D03*
X154712000Y-103295000D03*
X154712000Y-104565000D03*
X154712000Y-105835000D03*
X154712000Y-107105000D03*
D15*
X158512500Y-91900000D03*
X156687500Y-91900000D03*
D16*
X131490000Y-111975000D03*
X132510000Y-111975000D03*
D17*
X128399000Y-97409000D03*
X127379000Y-97409000D03*
D18*
X133236000Y-96393000D03*
X131686000Y-96393000D03*
D19*
X168000000Y-122975000D03*
D20*
X168000000Y-120435000D03*
X165460000Y-122975000D03*
X165460000Y-120435000D03*
X162920000Y-122975000D03*
X162920000Y-120435000D03*
X160380000Y-122975000D03*
X160380000Y-120435000D03*
D17*
X116588000Y-95250000D03*
X115568000Y-95250000D03*
D21*
X146500000Y-105990000D03*
X146500000Y-107010000D03*
D22*
X141100000Y-120375000D03*
X141100000Y-122025000D03*
D23*
X125625000Y-118525000D03*
X125625000Y-114025000D03*
X127775000Y-114025000D03*
X127775000Y-118525000D03*
D22*
X174200000Y-96875000D03*
X174200000Y-98525000D03*
D21*
X146500000Y-99990000D03*
X146500000Y-101010000D03*
X147600000Y-99990000D03*
X147600000Y-101010000D03*
D15*
X158512500Y-112500000D03*
X156687500Y-112500000D03*
D24*
X128985000Y-109300000D03*
X128015000Y-109300000D03*
D21*
X147600000Y-105990000D03*
X147600000Y-107010000D03*
D25*
X114399000Y-95250000D03*
X113439000Y-95250000D03*
D19*
X119325000Y-122925000D03*
D20*
X121865000Y-122925000D03*
X124405000Y-122925000D03*
X126945000Y-122925000D03*
X129485000Y-122925000D03*
X132025000Y-122925000D03*
X134565000Y-122925000D03*
X137105000Y-122925000D03*
D26*
X129921000Y-92329000D03*
X128651000Y-92329000D03*
X127381000Y-92329000D03*
X126111000Y-92329000D03*
D21*
X146500000Y-111990000D03*
X146500000Y-113010000D03*
D27*
X163325000Y-105900000D03*
X161675000Y-105900000D03*
D28*
X161700000Y-97075000D03*
X161700000Y-95525000D03*
D29*
X180300000Y-94900000D03*
X180300000Y-99900000D03*
D30*
X174200000Y-100187500D03*
X174200000Y-102012500D03*
D17*
X116588000Y-109728000D03*
X115568000Y-109728000D03*
D21*
X147600000Y-103390000D03*
X147600000Y-104410000D03*
D19*
X174975000Y-117500000D03*
D20*
X172435000Y-117500000D03*
D27*
X163325000Y-107500000D03*
X161675000Y-107500000D03*
D21*
X147600000Y-97390000D03*
X147600000Y-98410000D03*
D22*
X148900000Y-120375000D03*
X148900000Y-122025000D03*
D31*
X161700000Y-103125000D03*
X161700000Y-101475000D03*
D15*
X158512500Y-103900000D03*
X156687500Y-103900000D03*
D14*
X149288000Y-101105000D03*
X149288000Y-99835000D03*
X149288000Y-98565000D03*
X149288000Y-97295000D03*
X154712000Y-97295000D03*
X154712000Y-98565000D03*
X154712000Y-99835000D03*
X154712000Y-101105000D03*
D19*
X141025000Y-81900000D03*
D20*
X138485000Y-81900000D03*
X135945000Y-81900000D03*
D15*
X172425000Y-107300000D03*
X170600000Y-107300000D03*
D30*
X154700000Y-117687500D03*
X154700000Y-119512500D03*
D28*
X145000000Y-121975000D03*
X145000000Y-120425000D03*
D19*
X131980000Y-81900000D03*
D20*
X129440000Y-81900000D03*
X126900000Y-81900000D03*
X124360000Y-81900000D03*
X121820000Y-81900000D03*
X119280000Y-81900000D03*
D32*
X123508000Y-103251000D03*
X125158000Y-103251000D03*
D21*
X146500000Y-109390000D03*
X146500000Y-110410000D03*
D16*
X126190000Y-111975000D03*
X127210000Y-111975000D03*
D19*
X174975000Y-121600000D03*
D20*
X172435000Y-121600000D03*
D21*
X146500000Y-103390000D03*
X146500000Y-104410000D03*
D33*
X176944700Y-107499999D03*
X176944700Y-109500001D03*
D34*
X182694701Y-105149999D03*
X182694701Y-111850001D03*
D14*
X149288000Y-95105000D03*
X149288000Y-93835000D03*
X149288000Y-92565000D03*
X149288000Y-91295000D03*
X154712000Y-91295000D03*
X154712000Y-92565000D03*
X154712000Y-93835000D03*
X154712000Y-95105000D03*
D35*
X112750000Y-111925000D03*
X117250000Y-111925000D03*
X117250000Y-114075000D03*
X112750000Y-114075000D03*
D16*
X134990000Y-110275000D03*
X136010000Y-110275000D03*
D36*
X164750000Y-100275000D03*
X164750000Y-99625000D03*
X164750000Y-98975000D03*
X164750000Y-98325000D03*
D37*
X165725000Y-97350000D03*
X166375000Y-97350000D03*
X167025000Y-97350000D03*
X167675000Y-97350000D03*
D36*
X168650000Y-98325000D03*
X168650000Y-98975000D03*
X168650000Y-99625000D03*
X168650000Y-100275000D03*
D37*
X167675000Y-101250000D03*
X167025000Y-101250000D03*
X166375000Y-101250000D03*
X165725000Y-101250000D03*
D38*
X166700000Y-99300000D03*
D39*
X128211000Y-94488000D03*
X128211000Y-94988000D03*
X128211000Y-95488000D03*
X128211000Y-95988000D03*
X126111000Y-95988000D03*
X126111000Y-95488000D03*
X126111000Y-94988000D03*
X126111000Y-94488000D03*
D40*
X127161000Y-95238000D03*
D25*
X126182000Y-97409000D03*
X125222000Y-97409000D03*
D15*
X158512500Y-106500000D03*
X156687500Y-106500000D03*
D35*
X112750000Y-90925000D03*
X117250000Y-90925000D03*
X117250000Y-93075000D03*
X112750000Y-93075000D03*
D21*
X147600000Y-111990000D03*
X147600000Y-113010000D03*
D16*
X127990000Y-110275000D03*
X129010000Y-110275000D03*
D14*
X149288000Y-113105000D03*
X149288000Y-111835000D03*
X149288000Y-110565000D03*
X149288000Y-109295000D03*
X154712000Y-109295000D03*
X154712000Y-110565000D03*
X154712000Y-111835000D03*
X154712000Y-113105000D03*
D24*
X135985000Y-109300000D03*
X135015000Y-109300000D03*
D16*
X131490000Y-110275000D03*
X132510000Y-110275000D03*
D22*
X150500000Y-120375000D03*
X150500000Y-122025000D03*
D24*
X132485000Y-109300000D03*
X131515000Y-109300000D03*
D32*
X165875000Y-104300000D03*
X167525000Y-104300000D03*
D23*
X130925000Y-118525000D03*
X130925000Y-114025000D03*
X133075000Y-114025000D03*
X133075000Y-118525000D03*
D15*
X158512500Y-97900000D03*
X156687500Y-97900000D03*
D27*
X167525000Y-94400000D03*
X165875000Y-94400000D03*
D16*
X113409000Y-109728000D03*
X114429000Y-109728000D03*
D22*
X142700000Y-120375000D03*
X142700000Y-122025000D03*
D21*
X147600000Y-91390000D03*
X147600000Y-92410000D03*
X147600000Y-109390000D03*
X147600000Y-110410000D03*
X147600000Y-93990000D03*
X147600000Y-95010000D03*
D27*
X133286000Y-94742000D03*
X131636000Y-94742000D03*
D15*
X158512500Y-100500000D03*
X156687500Y-100500000D03*
D18*
X133236000Y-98044000D03*
X131686000Y-98044000D03*
D41*
X125120500Y-101727000D03*
X123545500Y-101727000D03*
D42*
X175050000Y-86600000D03*
D43*
X168250000Y-86600000D03*
D23*
X136225000Y-118525000D03*
X136225000Y-114025000D03*
X138375000Y-114025000D03*
X138375000Y-118525000D03*
D44*
X146600000Y-120425000D03*
X146600000Y-121975000D03*
D15*
X158512500Y-109900000D03*
X156687500Y-109900000D03*
D21*
X146500000Y-91390000D03*
X146500000Y-92410000D03*
D44*
X161700000Y-98525000D03*
X161700000Y-100075000D03*
D15*
X158512500Y-94500000D03*
X156687500Y-94500000D03*
D16*
X136790000Y-111975000D03*
X137810000Y-111975000D03*
D21*
X146500000Y-97390000D03*
X146500000Y-98410000D03*
X146500000Y-93990000D03*
X146500000Y-95010000D03*
M02*
