%TF.GenerationSoftware,KiCad,Pcbnew,7.0.10*%
%TF.CreationDate,2024-06-27T09:55:27+02:00*%
%TF.ProjectId,SolarCurveTracer,536f6c61-7243-4757-9276-655472616365,v1.1*%
%TF.SameCoordinates,Original*%
%TF.FileFunction,Copper,L3,Inr*%
%TF.FilePolarity,Positive*%
%FSLAX46Y46*%
G04 Gerber Fmt 4.6, Leading zero omitted, Abs format (unit mm)*
G04 Created by KiCad (PCBNEW 7.0.10) date 2024-06-27 09:55:27*
%MOMM*%
%LPD*%
G01*
G04 APERTURE LIST*
G04 Aperture macros list*
%AMRoundRect*
0 Rectangle with rounded corners*
0 $1 Rounding radius*
0 $2 $3 $4 $5 $6 $7 $8 $9 X,Y pos of 4 corners*
0 Add a 4 corners polygon primitive as box body*
4,1,4,$2,$3,$4,$5,$6,$7,$8,$9,$2,$3,0*
0 Add four circle primitives for the rounded corners*
1,1,$1+$1,$2,$3*
1,1,$1+$1,$4,$5*
1,1,$1+$1,$6,$7*
1,1,$1+$1,$8,$9*
0 Add four rect primitives between the rounded corners*
20,1,$1+$1,$2,$3,$4,$5,0*
20,1,$1+$1,$4,$5,$6,$7,0*
20,1,$1+$1,$6,$7,$8,$9,0*
20,1,$1+$1,$8,$9,$2,$3,0*%
G04 Aperture macros list end*
%TA.AperFunction,ComponentPad*%
%ADD10C,6.400000*%
%TD*%
%TA.AperFunction,ComponentPad*%
%ADD11O,2.100000X1.000000*%
%TD*%
%TA.AperFunction,ComponentPad*%
%ADD12RoundRect,0.250000X-0.650000X0.250000X-0.650000X-0.250000X0.650000X-0.250000X0.650000X0.250000X0*%
%TD*%
%TA.AperFunction,ComponentPad*%
%ADD13R,1.700000X1.700000*%
%TD*%
%TA.AperFunction,ComponentPad*%
%ADD14O,1.700000X1.700000*%
%TD*%
%TA.AperFunction,ComponentPad*%
%ADD15C,1.803400*%
%TD*%
%TA.AperFunction,ComponentPad*%
%ADD16R,1.600000X1.600000*%
%TD*%
%TA.AperFunction,ComponentPad*%
%ADD17C,1.600000*%
%TD*%
%TA.AperFunction,ViaPad*%
%ADD18C,0.500000*%
%TD*%
%TA.AperFunction,ViaPad*%
%ADD19C,0.700000*%
%TD*%
%TA.AperFunction,Conductor*%
%ADD20C,0.300000*%
%TD*%
%TA.AperFunction,Conductor*%
%ADD21C,0.200000*%
%TD*%
G04 APERTURE END LIST*
D10*
X114000000Y-84000000D03*
X181000000Y-121000000D03*
D11*
X116180000Y-98180000D03*
X116180000Y-106820000D03*
D12*
X112000000Y-98180000D03*
X112000000Y-106820000D03*
D10*
X114000000Y-121000000D03*
X181000000Y-84000000D03*
D13*
X168000000Y-122975000D03*
D14*
X168000000Y-120435000D03*
X165460000Y-122975000D03*
X165460000Y-120435000D03*
X162920000Y-122975000D03*
X162920000Y-120435000D03*
X160380000Y-122975000D03*
X160380000Y-120435000D03*
D13*
X119325000Y-122925000D03*
D14*
X121865000Y-122925000D03*
X124405000Y-122925000D03*
X126945000Y-122925000D03*
X129485000Y-122925000D03*
X132025000Y-122925000D03*
X134565000Y-122925000D03*
X137105000Y-122925000D03*
D15*
X180300000Y-94900000D03*
X180300000Y-99900000D03*
D13*
X174975000Y-117500000D03*
D14*
X172435000Y-117500000D03*
D13*
X141025000Y-81900000D03*
D14*
X138485000Y-81900000D03*
X135945000Y-81900000D03*
D13*
X131980000Y-81900000D03*
D14*
X129440000Y-81900000D03*
X126900000Y-81900000D03*
X124360000Y-81900000D03*
X121820000Y-81900000D03*
X119280000Y-81900000D03*
D13*
X174975000Y-121600000D03*
D14*
X172435000Y-121600000D03*
D16*
X175050000Y-86600000D03*
D17*
X168250000Y-86600000D03*
D18*
X163300000Y-104200000D03*
X125650000Y-112950000D03*
X120400000Y-96950000D03*
X171650000Y-98150000D03*
X156300000Y-117700000D03*
X151550000Y-117100000D03*
X147800000Y-122000000D03*
X120650000Y-110000000D03*
X142850000Y-93500000D03*
X138700000Y-95800000D03*
D19*
X132100000Y-86850000D03*
D18*
X120400000Y-104100000D03*
X163300000Y-101700000D03*
X135375000Y-119375000D03*
X149500000Y-82800000D03*
X142850000Y-100300000D03*
X130950000Y-112950000D03*
X143800000Y-122000000D03*
X157500000Y-89400000D03*
X138850000Y-86850000D03*
X144800000Y-95250000D03*
X134800000Y-95000000D03*
X157450000Y-105200000D03*
X130950000Y-103450000D03*
X157600000Y-111200000D03*
X146500000Y-111400000D03*
X167400000Y-93200000D03*
X157600000Y-108200000D03*
X171100000Y-116300000D03*
X145400000Y-103400000D03*
X126750000Y-111050000D03*
X123300000Y-100450000D03*
X171100000Y-113800000D03*
X130150000Y-102200000D03*
X123200000Y-122200000D03*
X141800000Y-95400000D03*
X128200000Y-122200000D03*
X125700000Y-122200000D03*
X171100000Y-109000000D03*
X157600000Y-93200000D03*
X132500000Y-93600000D03*
X125050000Y-96000000D03*
X145300000Y-110000000D03*
X130150000Y-103450000D03*
X120700000Y-122200000D03*
X144800000Y-92200000D03*
X162050000Y-110550000D03*
X150300000Y-117900000D03*
X161750000Y-92550000D03*
X124850000Y-111950000D03*
X175500000Y-102000000D03*
X121650000Y-105350000D03*
X157600000Y-102250000D03*
X119100000Y-97800000D03*
X143400000Y-81800000D03*
X171100000Y-111200000D03*
X157600000Y-113800000D03*
X171400000Y-104900000D03*
X128100000Y-90950000D03*
X138650000Y-96800000D03*
X147800000Y-121150000D03*
X144050000Y-99500000D03*
X143750000Y-120425000D03*
X143400000Y-110550000D03*
X133300000Y-108500000D03*
X143900000Y-102200000D03*
X130950000Y-102200000D03*
X157600000Y-99200000D03*
X123600000Y-94550000D03*
X152500000Y-95700000D03*
X157600000Y-96200000D03*
X132200000Y-85200000D03*
X122301000Y-93218000D03*
X148100000Y-81200000D03*
X133900000Y-107700000D03*
X132600000Y-103400000D03*
X132600000Y-102500000D03*
X128200000Y-102700000D03*
X115570000Y-93080000D03*
X132620000Y-101280000D03*
X156300000Y-119500000D03*
X145790000Y-118510000D03*
X170250000Y-98150000D03*
X118618000Y-104900000D03*
X118618000Y-100100000D03*
X130500000Y-106950000D03*
X130500000Y-104850000D03*
X130500000Y-108250000D03*
X138890000Y-111980000D03*
X135510000Y-106790000D03*
X133550000Y-112000000D03*
X135500000Y-105900000D03*
X135500000Y-105000000D03*
X126700000Y-112950000D03*
X135450000Y-101150000D03*
X134800000Y-100500000D03*
X142500000Y-118500000D03*
X132900000Y-100000000D03*
X136300000Y-99200000D03*
X148950000Y-118500000D03*
X133900000Y-99200000D03*
X144100000Y-118500000D03*
X135000000Y-98400000D03*
X147400000Y-118500000D03*
X142400000Y-89250000D03*
X129413000Y-94488000D03*
X125603000Y-93726000D03*
X130937000Y-92329000D03*
X142900000Y-91200000D03*
X130175000Y-95250000D03*
X134650000Y-93700000D03*
X126800000Y-98100000D03*
X131900000Y-100000000D03*
X130700000Y-98000000D03*
X130400000Y-100300000D03*
X130700000Y-97200000D03*
X130200000Y-96500000D03*
X129100000Y-100000000D03*
X128590000Y-98140000D03*
X161650000Y-108500000D03*
X128100000Y-100000000D03*
X128048180Y-103848180D03*
X124100000Y-113000000D03*
X123000000Y-113000000D03*
X128000000Y-104900000D03*
X121800000Y-113000000D03*
X115580000Y-110780000D03*
X127100000Y-105800000D03*
X140600000Y-107700000D03*
X141500000Y-107700000D03*
X142500000Y-107700000D03*
X143500000Y-107700000D03*
X144400000Y-107700000D03*
X153400000Y-111200000D03*
X152400000Y-109600000D03*
X153400000Y-108200000D03*
X132150000Y-104850000D03*
X155100000Y-84600000D03*
X135500000Y-103750000D03*
X153750000Y-84600000D03*
D20*
X162000000Y-98700000D02*
X159700000Y-101000000D01*
X163300000Y-101700000D02*
X163300000Y-104200000D01*
X171650000Y-98150000D02*
X171650000Y-97600000D01*
X167300000Y-98700000D02*
X162000000Y-98700000D01*
X171650000Y-97600000D02*
X170950000Y-96900000D01*
X170950000Y-96900000D02*
X169100000Y-96900000D01*
X159700000Y-113700000D02*
X156300000Y-117100000D01*
X169100000Y-96900000D02*
X167300000Y-98700000D01*
X159700000Y-101000000D02*
X159700000Y-113700000D01*
X156300000Y-117100000D02*
X156300000Y-117700000D01*
X143250000Y-92200000D02*
X144800000Y-92200000D01*
X123300000Y-103700000D02*
X123300000Y-100450000D01*
X157600000Y-105350000D02*
X157600000Y-108200000D01*
X134800000Y-95000000D02*
X133400000Y-93600000D01*
X143900000Y-102200000D02*
X144200000Y-102200000D01*
X146500000Y-111200000D02*
X146500000Y-111400000D01*
X157600000Y-108200000D02*
X157600000Y-111200000D01*
X133400000Y-93600000D02*
X132500000Y-93600000D01*
X138485000Y-81775000D02*
X138485000Y-84444045D01*
X144800000Y-90759045D02*
X144800000Y-92200000D01*
X144800000Y-110000000D02*
X145300000Y-110000000D01*
X121650000Y-105350000D02*
X123300000Y-103700000D01*
X143400000Y-110550000D02*
X144250000Y-110550000D01*
X136600000Y-96800000D02*
X138650000Y-96800000D01*
X145300000Y-110000000D02*
X146500000Y-111200000D01*
X145300000Y-103500000D02*
X145400000Y-103400000D01*
X144050000Y-102050000D02*
X143900000Y-102200000D01*
X144050000Y-99500000D02*
X144050000Y-102050000D01*
X127450000Y-93600000D02*
X132500000Y-93600000D01*
X145300000Y-110000000D02*
X145300000Y-103500000D01*
D21*
X141800000Y-95400000D02*
X141325000Y-94925000D01*
D20*
X134800000Y-95000000D02*
X136600000Y-96800000D01*
X138485000Y-84444045D02*
X144800000Y-90759045D01*
X125050000Y-96000000D02*
X127450000Y-93600000D01*
D21*
X141325000Y-94925000D02*
X141325000Y-94125000D01*
D20*
X138650000Y-96800000D02*
X141325000Y-94125000D01*
X144250000Y-110550000D02*
X144800000Y-110000000D01*
X157600000Y-111200000D02*
X157600000Y-113800000D01*
X141325000Y-94125000D02*
X143250000Y-92200000D01*
X144200000Y-102200000D02*
X145400000Y-103400000D01*
X157450000Y-105200000D02*
X157600000Y-105050000D01*
X157450000Y-105200000D02*
X157600000Y-105350000D01*
X157600000Y-105050000D02*
X157600000Y-102250000D01*
D21*
X127070000Y-101200000D02*
X120050000Y-94180000D01*
X132620000Y-101280000D02*
X132540000Y-101200000D01*
X132540000Y-101200000D02*
X127070000Y-101200000D01*
X116670000Y-94180000D02*
X115570000Y-93080000D01*
X120050000Y-94180000D02*
X116670000Y-94180000D01*
D20*
X168350000Y-99250000D02*
X162850000Y-99250000D01*
X162850000Y-99250000D02*
X160500000Y-101600000D01*
X160500000Y-117400000D02*
X158400000Y-119500000D01*
X160500000Y-101600000D02*
X160500000Y-117400000D01*
X170250000Y-98150000D02*
X169450000Y-98150000D01*
X169450000Y-98150000D02*
X168350000Y-99250000D01*
X158400000Y-119500000D02*
X156300000Y-119500000D01*
D21*
X135510000Y-108600000D02*
X138890000Y-111980000D01*
X135510000Y-106790000D02*
X135510000Y-108600000D01*
X134480000Y-106920000D02*
X134480000Y-111070000D01*
X135500000Y-105900000D02*
X134480000Y-106920000D01*
X134480000Y-111070000D02*
X133550000Y-112000000D01*
X135500000Y-105000000D02*
X127550000Y-112950000D01*
X127550000Y-112950000D02*
X126700000Y-112950000D01*
X131600000Y-100000000D02*
X131900000Y-100000000D01*
X127600000Y-97300000D02*
X128900000Y-97300000D01*
X128900000Y-97300000D02*
X131600000Y-100000000D01*
X126800000Y-98100000D02*
X127600000Y-97300000D01*
D20*
X117130000Y-113000000D02*
X121800000Y-113000000D01*
X115580000Y-110780000D02*
X115580000Y-111450000D01*
X115580000Y-111450000D02*
X117130000Y-113000000D01*
D21*
X155100000Y-85800000D02*
X155100000Y-84600000D01*
X132150000Y-104850000D02*
X132650000Y-104350000D01*
X136550000Y-104350000D02*
X155100000Y-85800000D01*
X132650000Y-104350000D02*
X136550000Y-104350000D01*
X135500000Y-102750000D02*
X135500000Y-103750000D01*
X153650000Y-84600000D02*
X135500000Y-102750000D01*
X153750000Y-84600000D02*
X153650000Y-84600000D01*
%TA.AperFunction,Conductor*%
G36*
X118598803Y-80520184D02*
G01*
X118644558Y-80572988D01*
X118654502Y-80642146D01*
X118625477Y-80705702D01*
X118602887Y-80726074D01*
X118408926Y-80861886D01*
X118408920Y-80861891D01*
X118241891Y-81028920D01*
X118241886Y-81028926D01*
X118106400Y-81222420D01*
X118106399Y-81222422D01*
X118006570Y-81436507D01*
X118006567Y-81436513D01*
X117949364Y-81649999D01*
X117949364Y-81650000D01*
X118846314Y-81650000D01*
X118820507Y-81690156D01*
X118780000Y-81828111D01*
X118780000Y-81971889D01*
X118820507Y-82109844D01*
X118846314Y-82150000D01*
X117949364Y-82150000D01*
X118006567Y-82363486D01*
X118006570Y-82363492D01*
X118106399Y-82577578D01*
X118241894Y-82771082D01*
X118408917Y-82938105D01*
X118602421Y-83073600D01*
X118816507Y-83173429D01*
X118816516Y-83173433D01*
X119030000Y-83230634D01*
X119030000Y-82335501D01*
X119137685Y-82384680D01*
X119244237Y-82400000D01*
X119315763Y-82400000D01*
X119422315Y-82384680D01*
X119530000Y-82335501D01*
X119530000Y-83230633D01*
X119743483Y-83173433D01*
X119743492Y-83173429D01*
X119957578Y-83073600D01*
X120151082Y-82938105D01*
X120318105Y-82771082D01*
X120453600Y-82577578D01*
X120547294Y-82376651D01*
X120593466Y-82324212D01*
X120660660Y-82305060D01*
X120727541Y-82325276D01*
X120770676Y-82373785D01*
X120837632Y-82508253D01*
X120952367Y-82660185D01*
X120966128Y-82678407D01*
X121123698Y-82822052D01*
X121304981Y-82934298D01*
X121503802Y-83011321D01*
X121713390Y-83050500D01*
X121713392Y-83050500D01*
X121926608Y-83050500D01*
X121926610Y-83050500D01*
X122136198Y-83011321D01*
X122335019Y-82934298D01*
X122516302Y-82822052D01*
X122673872Y-82678407D01*
X122802366Y-82508255D01*
X122856270Y-82400000D01*
X122897403Y-82317394D01*
X122897403Y-82317393D01*
X122897405Y-82317389D01*
X122955756Y-82112310D01*
X122966529Y-81996047D01*
X122992315Y-81931111D01*
X123034622Y-81900804D01*
X123143130Y-81900804D01*
X123179503Y-81921668D01*
X123211693Y-81983681D01*
X123213471Y-81996048D01*
X123224244Y-82112310D01*
X123282596Y-82317392D01*
X123282596Y-82317394D01*
X123377632Y-82508253D01*
X123492367Y-82660185D01*
X123506128Y-82678407D01*
X123663698Y-82822052D01*
X123844981Y-82934298D01*
X124043802Y-83011321D01*
X124253390Y-83050500D01*
X124253392Y-83050500D01*
X124466608Y-83050500D01*
X124466610Y-83050500D01*
X124676198Y-83011321D01*
X124875019Y-82934298D01*
X125056302Y-82822052D01*
X125213872Y-82678407D01*
X125342366Y-82508255D01*
X125396270Y-82400000D01*
X125437403Y-82317394D01*
X125437403Y-82317393D01*
X125437405Y-82317389D01*
X125495756Y-82112310D01*
X125506529Y-81996047D01*
X125532315Y-81931111D01*
X125574622Y-81900804D01*
X125683130Y-81900804D01*
X125719503Y-81921668D01*
X125751693Y-81983681D01*
X125753471Y-81996048D01*
X125764244Y-82112310D01*
X125822596Y-82317392D01*
X125822596Y-82317394D01*
X125917632Y-82508253D01*
X126032367Y-82660185D01*
X126046128Y-82678407D01*
X126203698Y-82822052D01*
X126384981Y-82934298D01*
X126583802Y-83011321D01*
X126793390Y-83050500D01*
X126793392Y-83050500D01*
X127006608Y-83050500D01*
X127006610Y-83050500D01*
X127216198Y-83011321D01*
X127415019Y-82934298D01*
X127596302Y-82822052D01*
X127753872Y-82678407D01*
X127882366Y-82508255D01*
X127936270Y-82400000D01*
X127977403Y-82317394D01*
X127977403Y-82317393D01*
X127977405Y-82317389D01*
X128035756Y-82112310D01*
X128046529Y-81996047D01*
X128072315Y-81931111D01*
X128114622Y-81900804D01*
X128223130Y-81900804D01*
X128259503Y-81921668D01*
X128291693Y-81983681D01*
X128293471Y-81996048D01*
X128304244Y-82112310D01*
X128362596Y-82317392D01*
X128362596Y-82317394D01*
X128457632Y-82508253D01*
X128572367Y-82660185D01*
X128586128Y-82678407D01*
X128743698Y-82822052D01*
X128924981Y-82934298D01*
X129123802Y-83011321D01*
X129333390Y-83050500D01*
X129333392Y-83050500D01*
X129546608Y-83050500D01*
X129546610Y-83050500D01*
X129756198Y-83011321D01*
X129955019Y-82934298D01*
X130136302Y-82822052D01*
X130293872Y-82678407D01*
X130422366Y-82508255D01*
X130476270Y-82400000D01*
X130517403Y-82317394D01*
X130517403Y-82317393D01*
X130517405Y-82317389D01*
X130575756Y-82112310D01*
X130582029Y-82044605D01*
X130607814Y-81979669D01*
X130664614Y-81938981D01*
X130734395Y-81935461D01*
X130795002Y-81970225D01*
X130827193Y-82032238D01*
X130829500Y-82056047D01*
X130829500Y-82794856D01*
X130829502Y-82794882D01*
X130832413Y-82819987D01*
X130832415Y-82819991D01*
X130877793Y-82922764D01*
X130877794Y-82922765D01*
X130957235Y-83002206D01*
X131060009Y-83047585D01*
X131085135Y-83050500D01*
X132874864Y-83050499D01*
X132874879Y-83050497D01*
X132874882Y-83050497D01*
X132899987Y-83047586D01*
X132899988Y-83047585D01*
X132899991Y-83047585D01*
X133002765Y-83002206D01*
X133082206Y-82922765D01*
X133127585Y-82819991D01*
X133130500Y-82794865D01*
X133130499Y-81005136D01*
X133130497Y-81005117D01*
X133127586Y-80980012D01*
X133127585Y-80980010D01*
X133127585Y-80980009D01*
X133082206Y-80877235D01*
X133002765Y-80797794D01*
X132982124Y-80788680D01*
X132899992Y-80752415D01*
X132874865Y-80749500D01*
X131085143Y-80749500D01*
X131085117Y-80749502D01*
X131060012Y-80752413D01*
X131060008Y-80752415D01*
X130957235Y-80797793D01*
X130877794Y-80877234D01*
X130832415Y-80980006D01*
X130832415Y-80980008D01*
X130829500Y-81005131D01*
X130829500Y-81743951D01*
X130809815Y-81810990D01*
X130757011Y-81856745D01*
X130687853Y-81866689D01*
X130624297Y-81837664D01*
X130586523Y-81778886D01*
X130582029Y-81755391D01*
X130578980Y-81722489D01*
X130575756Y-81687690D01*
X130517405Y-81482611D01*
X130517403Y-81482606D01*
X130517403Y-81482605D01*
X130422367Y-81291746D01*
X130293872Y-81121593D01*
X130261905Y-81092451D01*
X130136302Y-80977948D01*
X129955019Y-80865702D01*
X129955017Y-80865701D01*
X129855608Y-80827190D01*
X129756198Y-80788679D01*
X129546610Y-80749500D01*
X129333390Y-80749500D01*
X129123802Y-80788679D01*
X129123799Y-80788679D01*
X129123799Y-80788680D01*
X128924982Y-80865701D01*
X128924980Y-80865702D01*
X128743699Y-80977947D01*
X128586127Y-81121593D01*
X128457632Y-81291746D01*
X128362596Y-81482605D01*
X128362596Y-81482607D01*
X128304244Y-81687689D01*
X128293471Y-81803951D01*
X128267685Y-81868888D01*
X128223130Y-81900804D01*
X128114622Y-81900804D01*
X128116869Y-81899194D01*
X128080497Y-81878331D01*
X128048307Y-81816318D01*
X128046529Y-81803951D01*
X128044139Y-81778159D01*
X128035756Y-81687690D01*
X127977405Y-81482611D01*
X127977403Y-81482606D01*
X127977403Y-81482605D01*
X127882367Y-81291746D01*
X127753872Y-81121593D01*
X127721905Y-81092451D01*
X127596302Y-80977948D01*
X127415019Y-80865702D01*
X127415017Y-80865701D01*
X127315608Y-80827190D01*
X127216198Y-80788679D01*
X127006610Y-80749500D01*
X126793390Y-80749500D01*
X126583802Y-80788679D01*
X126583799Y-80788679D01*
X126583799Y-80788680D01*
X126384982Y-80865701D01*
X126384980Y-80865702D01*
X126203699Y-80977947D01*
X126046127Y-81121593D01*
X125917632Y-81291746D01*
X125822596Y-81482605D01*
X125822596Y-81482607D01*
X125764244Y-81687689D01*
X125753471Y-81803951D01*
X125727685Y-81868888D01*
X125683130Y-81900804D01*
X125574622Y-81900804D01*
X125576869Y-81899194D01*
X125540497Y-81878331D01*
X125508307Y-81816318D01*
X125506529Y-81803951D01*
X125504139Y-81778159D01*
X125495756Y-81687690D01*
X125437405Y-81482611D01*
X125437403Y-81482606D01*
X125437403Y-81482605D01*
X125342367Y-81291746D01*
X125213872Y-81121593D01*
X125181905Y-81092451D01*
X125056302Y-80977948D01*
X124875019Y-80865702D01*
X124875017Y-80865701D01*
X124775608Y-80827190D01*
X124676198Y-80788679D01*
X124466610Y-80749500D01*
X124253390Y-80749500D01*
X124043802Y-80788679D01*
X124043799Y-80788679D01*
X124043799Y-80788680D01*
X123844982Y-80865701D01*
X123844980Y-80865702D01*
X123663699Y-80977947D01*
X123506127Y-81121593D01*
X123377632Y-81291746D01*
X123282596Y-81482605D01*
X123282596Y-81482607D01*
X123224244Y-81687689D01*
X123213471Y-81803951D01*
X123187685Y-81868888D01*
X123143130Y-81900804D01*
X123034622Y-81900804D01*
X123036869Y-81899194D01*
X123000497Y-81878331D01*
X122968307Y-81816318D01*
X122966529Y-81803951D01*
X122964139Y-81778159D01*
X122955756Y-81687690D01*
X122897405Y-81482611D01*
X122897403Y-81482606D01*
X122897403Y-81482605D01*
X122802367Y-81291746D01*
X122673872Y-81121593D01*
X122641905Y-81092451D01*
X122516302Y-80977948D01*
X122335019Y-80865702D01*
X122335017Y-80865701D01*
X122235608Y-80827190D01*
X122136198Y-80788679D01*
X121926610Y-80749500D01*
X121713390Y-80749500D01*
X121503802Y-80788679D01*
X121503799Y-80788679D01*
X121503799Y-80788680D01*
X121304982Y-80865701D01*
X121304980Y-80865702D01*
X121123699Y-80977947D01*
X120966127Y-81121593D01*
X120837634Y-81291744D01*
X120770676Y-81426215D01*
X120723173Y-81477452D01*
X120655510Y-81494873D01*
X120589170Y-81472947D01*
X120547294Y-81423348D01*
X120453600Y-81222422D01*
X120453599Y-81222420D01*
X120318113Y-81028926D01*
X120318108Y-81028920D01*
X120151078Y-80861890D01*
X119957113Y-80726073D01*
X119913488Y-80671496D01*
X119906296Y-80601998D01*
X119937818Y-80539643D01*
X119998048Y-80504230D01*
X120028237Y-80500499D01*
X137736764Y-80500499D01*
X137803803Y-80520184D01*
X137849558Y-80572988D01*
X137859502Y-80642146D01*
X137830477Y-80705702D01*
X137807887Y-80726074D01*
X137613926Y-80861886D01*
X137613920Y-80861891D01*
X137446891Y-81028920D01*
X137446886Y-81028926D01*
X137311400Y-81222420D01*
X137311399Y-81222422D01*
X137217705Y-81423348D01*
X137171532Y-81475787D01*
X137104339Y-81494939D01*
X137037457Y-81474723D01*
X136994323Y-81426215D01*
X136927366Y-81291745D01*
X136903558Y-81260219D01*
X136798872Y-81121593D01*
X136766905Y-81092451D01*
X136641302Y-80977948D01*
X136460019Y-80865702D01*
X136460017Y-80865701D01*
X136360608Y-80827190D01*
X136261198Y-80788679D01*
X136051610Y-80749500D01*
X135838390Y-80749500D01*
X135628802Y-80788679D01*
X135628799Y-80788679D01*
X135628799Y-80788680D01*
X135429982Y-80865701D01*
X135429980Y-80865702D01*
X135248699Y-80977947D01*
X135091127Y-81121593D01*
X134962632Y-81291746D01*
X134867596Y-81482605D01*
X134867596Y-81482607D01*
X134809244Y-81687689D01*
X134789571Y-81899999D01*
X134789571Y-81900000D01*
X134809244Y-82112310D01*
X134867596Y-82317392D01*
X134867596Y-82317394D01*
X134962632Y-82508253D01*
X135077367Y-82660185D01*
X135091128Y-82678407D01*
X135248698Y-82822052D01*
X135429981Y-82934298D01*
X135628802Y-83011321D01*
X135838390Y-83050500D01*
X135838392Y-83050500D01*
X136051608Y-83050500D01*
X136051610Y-83050500D01*
X136261198Y-83011321D01*
X136460019Y-82934298D01*
X136641302Y-82822052D01*
X136798872Y-82678407D01*
X136927366Y-82508255D01*
X136994325Y-82373781D01*
X137041825Y-82322548D01*
X137109488Y-82305126D01*
X137175828Y-82327051D01*
X137217705Y-82376651D01*
X137311399Y-82577578D01*
X137446894Y-82771082D01*
X137613917Y-82938105D01*
X137807421Y-83073600D01*
X138021507Y-83173429D01*
X138021516Y-83173433D01*
X138235000Y-83230634D01*
X138235000Y-82335501D01*
X138342685Y-82384680D01*
X138449237Y-82400000D01*
X138520763Y-82400000D01*
X138627315Y-82384680D01*
X138735000Y-82335501D01*
X138735000Y-83230633D01*
X138948483Y-83173433D01*
X138948492Y-83173429D01*
X139162578Y-83073600D01*
X139356082Y-82938105D01*
X139523105Y-82771082D01*
X139648925Y-82591394D01*
X139703502Y-82547770D01*
X139773001Y-82540577D01*
X139835355Y-82572099D01*
X139870769Y-82632329D01*
X139874500Y-82662517D01*
X139874500Y-82794855D01*
X139874502Y-82794882D01*
X139877413Y-82819987D01*
X139877415Y-82819991D01*
X139922793Y-82922764D01*
X139922794Y-82922765D01*
X140002235Y-83002206D01*
X140105009Y-83047585D01*
X140130135Y-83050500D01*
X141919864Y-83050499D01*
X141919879Y-83050497D01*
X141919882Y-83050497D01*
X141944987Y-83047586D01*
X141944988Y-83047585D01*
X141944991Y-83047585D01*
X142047765Y-83002206D01*
X142127206Y-82922765D01*
X142172585Y-82819991D01*
X142174904Y-82800000D01*
X148944750Y-82800000D01*
X148960912Y-82922764D01*
X148963670Y-82943708D01*
X148963671Y-82943712D01*
X149019137Y-83077622D01*
X149019138Y-83077624D01*
X149019139Y-83077625D01*
X149107379Y-83192621D01*
X149222375Y-83280861D01*
X149356291Y-83336330D01*
X149483280Y-83353048D01*
X149499999Y-83355250D01*
X149500000Y-83355250D01*
X149500001Y-83355250D01*
X149514977Y-83353278D01*
X149643709Y-83336330D01*
X149777625Y-83280861D01*
X149892621Y-83192621D01*
X149980861Y-83077625D01*
X150036330Y-82943709D01*
X150055250Y-82800000D01*
X150036330Y-82656291D01*
X149991380Y-82547770D01*
X149980862Y-82522377D01*
X149980861Y-82522376D01*
X149980861Y-82522375D01*
X149892621Y-82407379D01*
X149777625Y-82319139D01*
X149777624Y-82319138D01*
X149777622Y-82319137D01*
X149643712Y-82263671D01*
X149643710Y-82263670D01*
X149643709Y-82263670D01*
X149571854Y-82254210D01*
X149500001Y-82244750D01*
X149499999Y-82244750D01*
X149356291Y-82263670D01*
X149356287Y-82263671D01*
X149222377Y-82319137D01*
X149107379Y-82407379D01*
X149019137Y-82522377D01*
X148963671Y-82656287D01*
X148963670Y-82656291D01*
X148944750Y-82800000D01*
X142174904Y-82800000D01*
X142175500Y-82794865D01*
X142175499Y-81005136D01*
X142175497Y-81005117D01*
X142172586Y-80980012D01*
X142172585Y-80980010D01*
X142172585Y-80980009D01*
X142127206Y-80877235D01*
X142047765Y-80797794D01*
X142027124Y-80788680D01*
X141944992Y-80752415D01*
X141919865Y-80749500D01*
X140130143Y-80749500D01*
X140130117Y-80749502D01*
X140105012Y-80752413D01*
X140105008Y-80752415D01*
X140002235Y-80797793D01*
X139922794Y-80877234D01*
X139877415Y-80980006D01*
X139877415Y-80980008D01*
X139874500Y-81005131D01*
X139874500Y-81137481D01*
X139854815Y-81204520D01*
X139802011Y-81250275D01*
X139732853Y-81260219D01*
X139669297Y-81231194D01*
X139648925Y-81208604D01*
X139523113Y-81028926D01*
X139523108Y-81028920D01*
X139356078Y-80861890D01*
X139162113Y-80726073D01*
X139118488Y-80671496D01*
X139111296Y-80601998D01*
X139142818Y-80539643D01*
X139203048Y-80504230D01*
X139233237Y-80500499D01*
X147742020Y-80500499D01*
X147809059Y-80520184D01*
X147854814Y-80572988D01*
X147864758Y-80642146D01*
X147835733Y-80705702D01*
X147817507Y-80722874D01*
X147707381Y-80807377D01*
X147619137Y-80922377D01*
X147563671Y-81056287D01*
X147563670Y-81056291D01*
X147544750Y-81200000D01*
X147555306Y-81280183D01*
X147563670Y-81343708D01*
X147563671Y-81343712D01*
X147619137Y-81477622D01*
X147619138Y-81477624D01*
X147619139Y-81477625D01*
X147707379Y-81592621D01*
X147822375Y-81680861D01*
X147956291Y-81736330D01*
X148083280Y-81753048D01*
X148099999Y-81755250D01*
X148100000Y-81755250D01*
X148100001Y-81755250D01*
X148114977Y-81753278D01*
X148243709Y-81736330D01*
X148377625Y-81680861D01*
X148492621Y-81592621D01*
X148580861Y-81477625D01*
X148636330Y-81343709D01*
X148655250Y-81200000D01*
X148636330Y-81056291D01*
X148580861Y-80922375D01*
X148492621Y-80807379D01*
X148417195Y-80749502D01*
X148382493Y-80722874D01*
X148341291Y-80666446D01*
X148337136Y-80596700D01*
X148371349Y-80535780D01*
X148433066Y-80503028D01*
X148457980Y-80500499D01*
X179679573Y-80500499D01*
X179746612Y-80520184D01*
X179792367Y-80572988D01*
X179802311Y-80642146D01*
X179773286Y-80705702D01*
X179724011Y-80740262D01*
X179692353Y-80752415D01*
X179574260Y-80797746D01*
X179247343Y-80964320D01*
X178939635Y-81164147D01*
X178654498Y-81395047D01*
X178654490Y-81395054D01*
X178395054Y-81654490D01*
X178395047Y-81654498D01*
X178164147Y-81939635D01*
X177964320Y-82247343D01*
X177797746Y-82574260D01*
X177666260Y-82916793D01*
X177571294Y-83271209D01*
X177571294Y-83271211D01*
X177557984Y-83355250D01*
X177513898Y-83633596D01*
X177494696Y-84000000D01*
X177513898Y-84366404D01*
X177571295Y-84728794D01*
X177632551Y-84957405D01*
X177666260Y-85083206D01*
X177797746Y-85425739D01*
X177964320Y-85752656D01*
X178164147Y-86060364D01*
X178277821Y-86200739D01*
X178395051Y-86345506D01*
X178654494Y-86604949D01*
X178654498Y-86604952D01*
X178939635Y-86835852D01*
X179202901Y-87006818D01*
X179247348Y-87035682D01*
X179574264Y-87202255D01*
X179916801Y-87333742D01*
X180271206Y-87428705D01*
X180633596Y-87486102D01*
X180979734Y-87504241D01*
X180999999Y-87505304D01*
X181000000Y-87505304D01*
X181000001Y-87505304D01*
X181019203Y-87504297D01*
X181366404Y-87486102D01*
X181728794Y-87428705D01*
X182083199Y-87333742D01*
X182425736Y-87202255D01*
X182752652Y-87035682D01*
X183060366Y-86835851D01*
X183345506Y-86604949D01*
X183604949Y-86345506D01*
X183835851Y-86060366D01*
X184035682Y-85752652D01*
X184202255Y-85425736D01*
X184259737Y-85275988D01*
X184302139Y-85220456D01*
X184367833Y-85196663D01*
X184435961Y-85212164D01*
X184484894Y-85262038D01*
X184499501Y-85320426D01*
X184499501Y-119679573D01*
X184479816Y-119746612D01*
X184427012Y-119792367D01*
X184357854Y-119802311D01*
X184294298Y-119773286D01*
X184259737Y-119724011D01*
X184233858Y-119656593D01*
X184202255Y-119574264D01*
X184196987Y-119563926D01*
X184113820Y-119400702D01*
X184035682Y-119247348D01*
X184019466Y-119222377D01*
X183835852Y-118939635D01*
X183604952Y-118654498D01*
X183604949Y-118654494D01*
X183345506Y-118395051D01*
X183297641Y-118356291D01*
X183060364Y-118164147D01*
X182752656Y-117964320D01*
X182425739Y-117797746D01*
X182083206Y-117666260D01*
X182062583Y-117660734D01*
X181728794Y-117571295D01*
X181728790Y-117571294D01*
X181728789Y-117571294D01*
X181366405Y-117513898D01*
X181000001Y-117494696D01*
X180999999Y-117494696D01*
X180633594Y-117513898D01*
X180271211Y-117571294D01*
X180271209Y-117571294D01*
X179916793Y-117666260D01*
X179574260Y-117797746D01*
X179247343Y-117964320D01*
X178939635Y-118164147D01*
X178654498Y-118395047D01*
X178654490Y-118395054D01*
X178395054Y-118654490D01*
X178395047Y-118654498D01*
X178164147Y-118939635D01*
X177964320Y-119247343D01*
X177797746Y-119574260D01*
X177666260Y-119916793D01*
X177571294Y-120271209D01*
X177571294Y-120271211D01*
X177513898Y-120633594D01*
X177494696Y-120999999D01*
X177494696Y-121000000D01*
X177513898Y-121366405D01*
X177538089Y-121519139D01*
X177571295Y-121728794D01*
X177660977Y-122063492D01*
X177666260Y-122083206D01*
X177797746Y-122425739D01*
X177964320Y-122752656D01*
X178164147Y-123060364D01*
X178164149Y-123060366D01*
X178395051Y-123345506D01*
X178654494Y-123604949D01*
X178654498Y-123604952D01*
X178939635Y-123835852D01*
X179234296Y-124027206D01*
X179247348Y-124035682D01*
X179574264Y-124202255D01*
X179724011Y-124259737D01*
X179779543Y-124302139D01*
X179803336Y-124367833D01*
X179787835Y-124435961D01*
X179737961Y-124484894D01*
X179679573Y-124499501D01*
X115320427Y-124499501D01*
X115253388Y-124479816D01*
X115207633Y-124427012D01*
X115197689Y-124357854D01*
X115226714Y-124294298D01*
X115275988Y-124259737D01*
X115425736Y-124202255D01*
X115752652Y-124035682D01*
X116060366Y-123835851D01*
X116080118Y-123819856D01*
X118174500Y-123819856D01*
X118174502Y-123819882D01*
X118177413Y-123844987D01*
X118177415Y-123844991D01*
X118222793Y-123947764D01*
X118222794Y-123947765D01*
X118302235Y-124027206D01*
X118405009Y-124072585D01*
X118430135Y-124075500D01*
X120219864Y-124075499D01*
X120219879Y-124075497D01*
X120219882Y-124075497D01*
X120244987Y-124072586D01*
X120244988Y-124072585D01*
X120244991Y-124072585D01*
X120347765Y-124027206D01*
X120427206Y-123947765D01*
X120472585Y-123844991D01*
X120475500Y-123819865D01*
X120475499Y-123081046D01*
X120495183Y-123014009D01*
X120547987Y-122968254D01*
X120617146Y-122958310D01*
X120680702Y-122987335D01*
X120718476Y-123046113D01*
X120722970Y-123069606D01*
X120728664Y-123131047D01*
X120729244Y-123137310D01*
X120743470Y-123187310D01*
X120787596Y-123342392D01*
X120787596Y-123342394D01*
X120882632Y-123533253D01*
X121011106Y-123703378D01*
X121011128Y-123703407D01*
X121168698Y-123847052D01*
X121349981Y-123959298D01*
X121548802Y-124036321D01*
X121758390Y-124075500D01*
X121758392Y-124075500D01*
X121971608Y-124075500D01*
X121971610Y-124075500D01*
X122181198Y-124036321D01*
X122380019Y-123959298D01*
X122561302Y-123847052D01*
X122718872Y-123703407D01*
X122847366Y-123533255D01*
X122876886Y-123473971D01*
X122942403Y-123342394D01*
X122942403Y-123342393D01*
X122942405Y-123342389D01*
X123000756Y-123137310D01*
X123011529Y-123021047D01*
X123037315Y-122956111D01*
X123079622Y-122925804D01*
X123188130Y-122925804D01*
X123224503Y-122946668D01*
X123256693Y-123008681D01*
X123258470Y-123021047D01*
X123269244Y-123137310D01*
X123283470Y-123187310D01*
X123327596Y-123342392D01*
X123327596Y-123342394D01*
X123422632Y-123533253D01*
X123551106Y-123703378D01*
X123551128Y-123703407D01*
X123708698Y-123847052D01*
X123889981Y-123959298D01*
X124088802Y-124036321D01*
X124298390Y-124075500D01*
X124298392Y-124075500D01*
X124511608Y-124075500D01*
X124511610Y-124075500D01*
X124721198Y-124036321D01*
X124920019Y-123959298D01*
X125101302Y-123847052D01*
X125258872Y-123703407D01*
X125387366Y-123533255D01*
X125416886Y-123473971D01*
X125482403Y-123342394D01*
X125482403Y-123342393D01*
X125482405Y-123342389D01*
X125540756Y-123137310D01*
X125551529Y-123021047D01*
X125577315Y-122956111D01*
X125619622Y-122925804D01*
X125728130Y-122925804D01*
X125764503Y-122946668D01*
X125796693Y-123008681D01*
X125798470Y-123021047D01*
X125809244Y-123137310D01*
X125823470Y-123187310D01*
X125867596Y-123342392D01*
X125867596Y-123342394D01*
X125962632Y-123533253D01*
X126091106Y-123703378D01*
X126091128Y-123703407D01*
X126248698Y-123847052D01*
X126429981Y-123959298D01*
X126628802Y-124036321D01*
X126838390Y-124075500D01*
X126838392Y-124075500D01*
X127051608Y-124075500D01*
X127051610Y-124075500D01*
X127261198Y-124036321D01*
X127460019Y-123959298D01*
X127641302Y-123847052D01*
X127798872Y-123703407D01*
X127927366Y-123533255D01*
X127956886Y-123473971D01*
X128022403Y-123342394D01*
X128022403Y-123342393D01*
X128022405Y-123342389D01*
X128080756Y-123137310D01*
X128091529Y-123021047D01*
X128117315Y-122956111D01*
X128159622Y-122925804D01*
X128268130Y-122925804D01*
X128304503Y-122946668D01*
X128336693Y-123008681D01*
X128338470Y-123021047D01*
X128349244Y-123137310D01*
X128363470Y-123187310D01*
X128407596Y-123342392D01*
X128407596Y-123342394D01*
X128502632Y-123533253D01*
X128631106Y-123703378D01*
X128631128Y-123703407D01*
X128788698Y-123847052D01*
X128969981Y-123959298D01*
X129168802Y-124036321D01*
X129378390Y-124075500D01*
X129378392Y-124075500D01*
X129591608Y-124075500D01*
X129591610Y-124075500D01*
X129801198Y-124036321D01*
X130000019Y-123959298D01*
X130181302Y-123847052D01*
X130338872Y-123703407D01*
X130467366Y-123533255D01*
X130496886Y-123473971D01*
X130562403Y-123342394D01*
X130562403Y-123342393D01*
X130562405Y-123342389D01*
X130620756Y-123137310D01*
X130631529Y-123021047D01*
X130657315Y-122956111D01*
X130699622Y-122925804D01*
X130808130Y-122925804D01*
X130844503Y-122946668D01*
X130876693Y-123008681D01*
X130878470Y-123021047D01*
X130889244Y-123137310D01*
X130903470Y-123187310D01*
X130947596Y-123342392D01*
X130947596Y-123342394D01*
X131042632Y-123533253D01*
X131171106Y-123703378D01*
X131171128Y-123703407D01*
X131328698Y-123847052D01*
X131509981Y-123959298D01*
X131708802Y-124036321D01*
X131918390Y-124075500D01*
X131918392Y-124075500D01*
X132131608Y-124075500D01*
X132131610Y-124075500D01*
X132341198Y-124036321D01*
X132540019Y-123959298D01*
X132721302Y-123847052D01*
X132878872Y-123703407D01*
X133007366Y-123533255D01*
X133036886Y-123473971D01*
X133102403Y-123342394D01*
X133102403Y-123342393D01*
X133102405Y-123342389D01*
X133160756Y-123137310D01*
X133171529Y-123021047D01*
X133197315Y-122956111D01*
X133239622Y-122925804D01*
X133348130Y-122925804D01*
X133384503Y-122946668D01*
X133416693Y-123008681D01*
X133418470Y-123021047D01*
X133429244Y-123137310D01*
X133443470Y-123187310D01*
X133487596Y-123342392D01*
X133487596Y-123342394D01*
X133582632Y-123533253D01*
X133711106Y-123703378D01*
X133711128Y-123703407D01*
X133868698Y-123847052D01*
X134049981Y-123959298D01*
X134248802Y-124036321D01*
X134458390Y-124075500D01*
X134458392Y-124075500D01*
X134671608Y-124075500D01*
X134671610Y-124075500D01*
X134881198Y-124036321D01*
X135080019Y-123959298D01*
X135261302Y-123847052D01*
X135418872Y-123703407D01*
X135547366Y-123533255D01*
X135576886Y-123473971D01*
X135642403Y-123342394D01*
X135642403Y-123342393D01*
X135642405Y-123342389D01*
X135700756Y-123137310D01*
X135711529Y-123021047D01*
X135737315Y-122956111D01*
X135779622Y-122925804D01*
X135888130Y-122925804D01*
X135924503Y-122946668D01*
X135956693Y-123008681D01*
X135958470Y-123021047D01*
X135969244Y-123137310D01*
X135983470Y-123187310D01*
X136027596Y-123342392D01*
X136027596Y-123342394D01*
X136122632Y-123533253D01*
X136251106Y-123703378D01*
X136251128Y-123703407D01*
X136408698Y-123847052D01*
X136589981Y-123959298D01*
X136788802Y-124036321D01*
X136998390Y-124075500D01*
X136998392Y-124075500D01*
X137211608Y-124075500D01*
X137211610Y-124075500D01*
X137421198Y-124036321D01*
X137620019Y-123959298D01*
X137801302Y-123847052D01*
X137958872Y-123703407D01*
X138087366Y-123533255D01*
X138116886Y-123473971D01*
X138182403Y-123342394D01*
X138182403Y-123342393D01*
X138182405Y-123342389D01*
X138240756Y-123137310D01*
X138255796Y-122975000D01*
X159224571Y-122975000D01*
X159244244Y-123187310D01*
X159289255Y-123345506D01*
X159302596Y-123392392D01*
X159302596Y-123392394D01*
X159397632Y-123583253D01*
X159526127Y-123753406D01*
X159526128Y-123753407D01*
X159683698Y-123897052D01*
X159864981Y-124009298D01*
X160063802Y-124086321D01*
X160273390Y-124125500D01*
X160273392Y-124125500D01*
X160486608Y-124125500D01*
X160486610Y-124125500D01*
X160696198Y-124086321D01*
X160895019Y-124009298D01*
X161076302Y-123897052D01*
X161233872Y-123753407D01*
X161362366Y-123583255D01*
X161387264Y-123533253D01*
X161457403Y-123392394D01*
X161457403Y-123392393D01*
X161457405Y-123392389D01*
X161515756Y-123187310D01*
X161526529Y-123071047D01*
X161552315Y-123006111D01*
X161594622Y-122975804D01*
X161703130Y-122975804D01*
X161739503Y-122996668D01*
X161771693Y-123058681D01*
X161773470Y-123071047D01*
X161784244Y-123187310D01*
X161829255Y-123345506D01*
X161842596Y-123392392D01*
X161842596Y-123392394D01*
X161937632Y-123583253D01*
X162066127Y-123753406D01*
X162066128Y-123753407D01*
X162223698Y-123897052D01*
X162404981Y-124009298D01*
X162603802Y-124086321D01*
X162813390Y-124125500D01*
X162813392Y-124125500D01*
X163026608Y-124125500D01*
X163026610Y-124125500D01*
X163236198Y-124086321D01*
X163435019Y-124009298D01*
X163616302Y-123897052D01*
X163773872Y-123753407D01*
X163902366Y-123583255D01*
X163927264Y-123533253D01*
X163997403Y-123392394D01*
X163997403Y-123392393D01*
X163997405Y-123392389D01*
X164055756Y-123187310D01*
X164066529Y-123071047D01*
X164092315Y-123006111D01*
X164134622Y-122975804D01*
X164243130Y-122975804D01*
X164279503Y-122996668D01*
X164311693Y-123058681D01*
X164313470Y-123071047D01*
X164324244Y-123187310D01*
X164369255Y-123345506D01*
X164382596Y-123392392D01*
X164382596Y-123392394D01*
X164477632Y-123583253D01*
X164606127Y-123753406D01*
X164606128Y-123753407D01*
X164763698Y-123897052D01*
X164944981Y-124009298D01*
X165143802Y-124086321D01*
X165353390Y-124125500D01*
X165353392Y-124125500D01*
X165566608Y-124125500D01*
X165566610Y-124125500D01*
X165776198Y-124086321D01*
X165975019Y-124009298D01*
X166156302Y-123897052D01*
X166313872Y-123753407D01*
X166442366Y-123583255D01*
X166467264Y-123533253D01*
X166537403Y-123392394D01*
X166537403Y-123392393D01*
X166537405Y-123392389D01*
X166595756Y-123187310D01*
X166602029Y-123119605D01*
X166627814Y-123054669D01*
X166684614Y-123013981D01*
X166754395Y-123010461D01*
X166815002Y-123045225D01*
X166847193Y-123107238D01*
X166849500Y-123131047D01*
X166849500Y-123869856D01*
X166849502Y-123869882D01*
X166852413Y-123894987D01*
X166852415Y-123894991D01*
X166897793Y-123997764D01*
X166897794Y-123997765D01*
X166977235Y-124077206D01*
X167080009Y-124122585D01*
X167105135Y-124125500D01*
X168894864Y-124125499D01*
X168894879Y-124125497D01*
X168894882Y-124125497D01*
X168919987Y-124122586D01*
X168919988Y-124122585D01*
X168919991Y-124122585D01*
X169022765Y-124077206D01*
X169102206Y-123997765D01*
X169147585Y-123894991D01*
X169150500Y-123869865D01*
X169150499Y-122080136D01*
X169148569Y-122063492D01*
X169147586Y-122055012D01*
X169147585Y-122055010D01*
X169147585Y-122055009D01*
X169102206Y-121952235D01*
X169022765Y-121872794D01*
X169002124Y-121863680D01*
X168971142Y-121850000D01*
X171104364Y-121850000D01*
X171161567Y-122063486D01*
X171161570Y-122063492D01*
X171261399Y-122277578D01*
X171396894Y-122471082D01*
X171563917Y-122638105D01*
X171757421Y-122773600D01*
X171971507Y-122873429D01*
X171971516Y-122873433D01*
X172185000Y-122930634D01*
X172185000Y-122035501D01*
X172292685Y-122084680D01*
X172399237Y-122100000D01*
X172470763Y-122100000D01*
X172577315Y-122084680D01*
X172685000Y-122035501D01*
X172685000Y-122930633D01*
X172898483Y-122873433D01*
X172898492Y-122873429D01*
X173112578Y-122773600D01*
X173306082Y-122638105D01*
X173473105Y-122471082D01*
X173598925Y-122291394D01*
X173653502Y-122247770D01*
X173723001Y-122240577D01*
X173785355Y-122272099D01*
X173820769Y-122332329D01*
X173824500Y-122362517D01*
X173824500Y-122494855D01*
X173824502Y-122494882D01*
X173827413Y-122519987D01*
X173827415Y-122519991D01*
X173872793Y-122622764D01*
X173872794Y-122622765D01*
X173952235Y-122702206D01*
X174055009Y-122747585D01*
X174080135Y-122750500D01*
X175869864Y-122750499D01*
X175869879Y-122750497D01*
X175869882Y-122750497D01*
X175894987Y-122747586D01*
X175894988Y-122747585D01*
X175894991Y-122747585D01*
X175997765Y-122702206D01*
X176077206Y-122622765D01*
X176122585Y-122519991D01*
X176125500Y-122494865D01*
X176125499Y-120705136D01*
X176123164Y-120685000D01*
X176122586Y-120680012D01*
X176122585Y-120680010D01*
X176122585Y-120680009D01*
X176077206Y-120577235D01*
X175997765Y-120497794D01*
X175926010Y-120466111D01*
X175894992Y-120452415D01*
X175869865Y-120449500D01*
X174080143Y-120449500D01*
X174080117Y-120449502D01*
X174055012Y-120452413D01*
X174055008Y-120452415D01*
X173952235Y-120497793D01*
X173872794Y-120577234D01*
X173827415Y-120680006D01*
X173827415Y-120680008D01*
X173824500Y-120705131D01*
X173824500Y-120837481D01*
X173804815Y-120904520D01*
X173752011Y-120950275D01*
X173682853Y-120960219D01*
X173619297Y-120931194D01*
X173598925Y-120908604D01*
X173473113Y-120728926D01*
X173473108Y-120728920D01*
X173306082Y-120561894D01*
X173112578Y-120426399D01*
X172898492Y-120326570D01*
X172898486Y-120326567D01*
X172685000Y-120269364D01*
X172685000Y-121164498D01*
X172577315Y-121115320D01*
X172470763Y-121100000D01*
X172399237Y-121100000D01*
X172292685Y-121115320D01*
X172185000Y-121164498D01*
X172185000Y-120269364D01*
X172184999Y-120269364D01*
X171971513Y-120326567D01*
X171971507Y-120326570D01*
X171757422Y-120426399D01*
X171757420Y-120426400D01*
X171563926Y-120561886D01*
X171563920Y-120561891D01*
X171396891Y-120728920D01*
X171396886Y-120728926D01*
X171261400Y-120922420D01*
X171261399Y-120922422D01*
X171161570Y-121136507D01*
X171161567Y-121136513D01*
X171104364Y-121349999D01*
X171104364Y-121350000D01*
X172001314Y-121350000D01*
X171975507Y-121390156D01*
X171935000Y-121528111D01*
X171935000Y-121671889D01*
X171975507Y-121809844D01*
X172001314Y-121850000D01*
X171104364Y-121850000D01*
X168971142Y-121850000D01*
X168919992Y-121827415D01*
X168894868Y-121824500D01*
X168762519Y-121824500D01*
X168695480Y-121804815D01*
X168649725Y-121752011D01*
X168639781Y-121682853D01*
X168668806Y-121619297D01*
X168691395Y-121598925D01*
X168871082Y-121473105D01*
X169038105Y-121306082D01*
X169173600Y-121112578D01*
X169273429Y-120898492D01*
X169273432Y-120898486D01*
X169330636Y-120685000D01*
X168433686Y-120685000D01*
X168459493Y-120644844D01*
X168500000Y-120506889D01*
X168500000Y-120363111D01*
X168459493Y-120225156D01*
X168433686Y-120185000D01*
X169330636Y-120185000D01*
X169330635Y-120184999D01*
X169273432Y-119971513D01*
X169273429Y-119971507D01*
X169173600Y-119757422D01*
X169173599Y-119757420D01*
X169038113Y-119563926D01*
X169038108Y-119563920D01*
X168871082Y-119396894D01*
X168677578Y-119261399D01*
X168463492Y-119161570D01*
X168463486Y-119161567D01*
X168250000Y-119104364D01*
X168250000Y-119999498D01*
X168142315Y-119950320D01*
X168035763Y-119935000D01*
X167964237Y-119935000D01*
X167857685Y-119950320D01*
X167750000Y-119999498D01*
X167750000Y-119104364D01*
X167749999Y-119104364D01*
X167536513Y-119161567D01*
X167536507Y-119161570D01*
X167322422Y-119261399D01*
X167322420Y-119261400D01*
X167128926Y-119396886D01*
X167128920Y-119396891D01*
X166961891Y-119563920D01*
X166961886Y-119563926D01*
X166826400Y-119757420D01*
X166826399Y-119757422D01*
X166732705Y-119958348D01*
X166686532Y-120010787D01*
X166619339Y-120029939D01*
X166552457Y-120009723D01*
X166509324Y-119961216D01*
X166442366Y-119826745D01*
X166441920Y-119826155D01*
X166313872Y-119656593D01*
X166299738Y-119643708D01*
X166156302Y-119512948D01*
X165975019Y-119400702D01*
X165975017Y-119400701D01*
X165860370Y-119356287D01*
X165776198Y-119323679D01*
X165566610Y-119284500D01*
X165353390Y-119284500D01*
X165143802Y-119323679D01*
X165143799Y-119323679D01*
X165143799Y-119323680D01*
X164944982Y-119400701D01*
X164944980Y-119400702D01*
X164763699Y-119512947D01*
X164606127Y-119656593D01*
X164477632Y-119826746D01*
X164382596Y-120017605D01*
X164382596Y-120017607D01*
X164324244Y-120222689D01*
X164313471Y-120338951D01*
X164287685Y-120403888D01*
X164243130Y-120435804D01*
X164279503Y-120456668D01*
X164311693Y-120518681D01*
X164313470Y-120531047D01*
X164324244Y-120647310D01*
X164347464Y-120728920D01*
X164382596Y-120852392D01*
X164382596Y-120852394D01*
X164477632Y-121043253D01*
X164577160Y-121175048D01*
X164606128Y-121213407D01*
X164763698Y-121357052D01*
X164944981Y-121469298D01*
X165143802Y-121546321D01*
X165340613Y-121583111D01*
X165402893Y-121614779D01*
X165438166Y-121675092D01*
X165435232Y-121744900D01*
X165395023Y-121802040D01*
X165340613Y-121826888D01*
X165143802Y-121863679D01*
X165143799Y-121863679D01*
X165143799Y-121863680D01*
X164944982Y-121940701D01*
X164944980Y-121940702D01*
X164763699Y-122052947D01*
X164606127Y-122196593D01*
X164477632Y-122366746D01*
X164382596Y-122557605D01*
X164382596Y-122557607D01*
X164324244Y-122762689D01*
X164313471Y-122878951D01*
X164287685Y-122943888D01*
X164243130Y-122975804D01*
X164134622Y-122975804D01*
X164136869Y-122974194D01*
X164100497Y-122953331D01*
X164068307Y-122891318D01*
X164066529Y-122878951D01*
X164064206Y-122853886D01*
X164055756Y-122762690D01*
X163997405Y-122557611D01*
X163997403Y-122557606D01*
X163997403Y-122557605D01*
X163902367Y-122366746D01*
X163773872Y-122196593D01*
X163719025Y-122146593D01*
X163616302Y-122052948D01*
X163435019Y-121940702D01*
X163435017Y-121940701D01*
X163305950Y-121890701D01*
X163236198Y-121863679D01*
X163039385Y-121826888D01*
X162977106Y-121795221D01*
X162941833Y-121734908D01*
X162944767Y-121665100D01*
X162984976Y-121607960D01*
X163039384Y-121583111D01*
X163236198Y-121546321D01*
X163435019Y-121469298D01*
X163616302Y-121357052D01*
X163773872Y-121213407D01*
X163902366Y-121043255D01*
X163962534Y-120922420D01*
X163997403Y-120852394D01*
X163997403Y-120852393D01*
X163997405Y-120852389D01*
X164055756Y-120647310D01*
X164066529Y-120531047D01*
X164092315Y-120466111D01*
X164136869Y-120434194D01*
X164100497Y-120413331D01*
X164068307Y-120351318D01*
X164066529Y-120338951D01*
X164060252Y-120271211D01*
X164055756Y-120222690D01*
X163997405Y-120017611D01*
X163997403Y-120017606D01*
X163997403Y-120017605D01*
X163902367Y-119826746D01*
X163773872Y-119656593D01*
X163759738Y-119643708D01*
X163616302Y-119512948D01*
X163435019Y-119400702D01*
X163435017Y-119400701D01*
X163320370Y-119356287D01*
X163236198Y-119323679D01*
X163026610Y-119284500D01*
X162813390Y-119284500D01*
X162603802Y-119323679D01*
X162603799Y-119323679D01*
X162603799Y-119323680D01*
X162404982Y-119400701D01*
X162404980Y-119400702D01*
X162223699Y-119512947D01*
X162066127Y-119656593D01*
X161937632Y-119826746D01*
X161842596Y-120017605D01*
X161842596Y-120017607D01*
X161784244Y-120222689D01*
X161773471Y-120338951D01*
X161747685Y-120403888D01*
X161703130Y-120435804D01*
X161739503Y-120456668D01*
X161771693Y-120518681D01*
X161773470Y-120531047D01*
X161784244Y-120647310D01*
X161807464Y-120728920D01*
X161842596Y-120852392D01*
X161842596Y-120852394D01*
X161937632Y-121043253D01*
X162037160Y-121175048D01*
X162066128Y-121213407D01*
X162223698Y-121357052D01*
X162404981Y-121469298D01*
X162603802Y-121546321D01*
X162800613Y-121583111D01*
X162862893Y-121614779D01*
X162898166Y-121675092D01*
X162895232Y-121744900D01*
X162855023Y-121802040D01*
X162800613Y-121826888D01*
X162603802Y-121863679D01*
X162603799Y-121863679D01*
X162603799Y-121863680D01*
X162404982Y-121940701D01*
X162404980Y-121940702D01*
X162223699Y-122052947D01*
X162066127Y-122196593D01*
X161937632Y-122366746D01*
X161842596Y-122557605D01*
X161842596Y-122557607D01*
X161784244Y-122762689D01*
X161773471Y-122878951D01*
X161747685Y-122943888D01*
X161703130Y-122975804D01*
X161594622Y-122975804D01*
X161596869Y-122974194D01*
X161560497Y-122953331D01*
X161528307Y-122891318D01*
X161526529Y-122878951D01*
X161524206Y-122853886D01*
X161515756Y-122762690D01*
X161457405Y-122557611D01*
X161457403Y-122557606D01*
X161457403Y-122557605D01*
X161362367Y-122366746D01*
X161233872Y-122196593D01*
X161179025Y-122146593D01*
X161076302Y-122052948D01*
X160895019Y-121940702D01*
X160895017Y-121940701D01*
X160765950Y-121890701D01*
X160696198Y-121863679D01*
X160499385Y-121826888D01*
X160437106Y-121795221D01*
X160401833Y-121734908D01*
X160404767Y-121665100D01*
X160444976Y-121607960D01*
X160499384Y-121583111D01*
X160696198Y-121546321D01*
X160895019Y-121469298D01*
X161076302Y-121357052D01*
X161233872Y-121213407D01*
X161362366Y-121043255D01*
X161422534Y-120922420D01*
X161457403Y-120852394D01*
X161457403Y-120852393D01*
X161457405Y-120852389D01*
X161515756Y-120647310D01*
X161526529Y-120531047D01*
X161552315Y-120466111D01*
X161596869Y-120434194D01*
X161560497Y-120413331D01*
X161528307Y-120351318D01*
X161526529Y-120338951D01*
X161520252Y-120271211D01*
X161515756Y-120222690D01*
X161457405Y-120017611D01*
X161457403Y-120017606D01*
X161457403Y-120017605D01*
X161362367Y-119826746D01*
X161233872Y-119656593D01*
X161219738Y-119643708D01*
X161076302Y-119512948D01*
X160895019Y-119400702D01*
X160895017Y-119400701D01*
X160780370Y-119356287D01*
X160696198Y-119323679D01*
X160486610Y-119284500D01*
X160273390Y-119284500D01*
X160063802Y-119323679D01*
X160063799Y-119323679D01*
X160063799Y-119323680D01*
X159864982Y-119400701D01*
X159864980Y-119400702D01*
X159683699Y-119512947D01*
X159526127Y-119656593D01*
X159397632Y-119826746D01*
X159302596Y-120017605D01*
X159302596Y-120017607D01*
X159244244Y-120222689D01*
X159234619Y-120326567D01*
X159224571Y-120435000D01*
X159244244Y-120647310D01*
X159267464Y-120728920D01*
X159302596Y-120852392D01*
X159302596Y-120852394D01*
X159397632Y-121043253D01*
X159497160Y-121175048D01*
X159526128Y-121213407D01*
X159683698Y-121357052D01*
X159864981Y-121469298D01*
X160063802Y-121546321D01*
X160260613Y-121583111D01*
X160322893Y-121614779D01*
X160358166Y-121675092D01*
X160355232Y-121744900D01*
X160315023Y-121802040D01*
X160260613Y-121826888D01*
X160063802Y-121863679D01*
X160063799Y-121863679D01*
X160063799Y-121863680D01*
X159864982Y-121940701D01*
X159864980Y-121940702D01*
X159683699Y-122052947D01*
X159526127Y-122196593D01*
X159397632Y-122366746D01*
X159302596Y-122557605D01*
X159302596Y-122557607D01*
X159244244Y-122762689D01*
X159226118Y-122958310D01*
X159224571Y-122975000D01*
X138255796Y-122975000D01*
X138260429Y-122925000D01*
X138240756Y-122712690D01*
X138182405Y-122507611D01*
X138182403Y-122507606D01*
X138182403Y-122507605D01*
X138087367Y-122316746D01*
X137958872Y-122146593D01*
X137889340Y-122083206D01*
X137801302Y-122002948D01*
X137796541Y-122000000D01*
X143244750Y-122000000D01*
X143257915Y-122100000D01*
X143263670Y-122143708D01*
X143263671Y-122143712D01*
X143319137Y-122277622D01*
X143319138Y-122277624D01*
X143319139Y-122277625D01*
X143407379Y-122392621D01*
X143522375Y-122480861D01*
X143656291Y-122536330D01*
X143783280Y-122553048D01*
X143799999Y-122555250D01*
X143800000Y-122555250D01*
X143800001Y-122555250D01*
X143814977Y-122553278D01*
X143943709Y-122536330D01*
X144077625Y-122480861D01*
X144192621Y-122392621D01*
X144280861Y-122277625D01*
X144336330Y-122143709D01*
X144355250Y-122000000D01*
X147244750Y-122000000D01*
X147257915Y-122100000D01*
X147263670Y-122143708D01*
X147263671Y-122143712D01*
X147319137Y-122277622D01*
X147319138Y-122277624D01*
X147319139Y-122277625D01*
X147407379Y-122392621D01*
X147522375Y-122480861D01*
X147656291Y-122536330D01*
X147783280Y-122553048D01*
X147799999Y-122555250D01*
X147800000Y-122555250D01*
X147800001Y-122555250D01*
X147814977Y-122553278D01*
X147943709Y-122536330D01*
X148077625Y-122480861D01*
X148192621Y-122392621D01*
X148280861Y-122277625D01*
X148336330Y-122143709D01*
X148355250Y-122000000D01*
X148336330Y-121856291D01*
X148299350Y-121767013D01*
X148280862Y-121722377D01*
X148280861Y-121722376D01*
X148280861Y-121722375D01*
X148192621Y-121607379D01*
X148077625Y-121519139D01*
X148077624Y-121519138D01*
X148077622Y-121519137D01*
X147943712Y-121463671D01*
X147943710Y-121463670D01*
X147943709Y-121463670D01*
X147871854Y-121454210D01*
X147800001Y-121444750D01*
X147799999Y-121444750D01*
X147656291Y-121463670D01*
X147656287Y-121463671D01*
X147522377Y-121519137D01*
X147407379Y-121607379D01*
X147319137Y-121722377D01*
X147263671Y-121856287D01*
X147263670Y-121856291D01*
X147244750Y-122000000D01*
X144355250Y-122000000D01*
X144336330Y-121856291D01*
X144299350Y-121767013D01*
X144280862Y-121722377D01*
X144280861Y-121722376D01*
X144280861Y-121722375D01*
X144192621Y-121607379D01*
X144077625Y-121519139D01*
X144077624Y-121519138D01*
X144077622Y-121519137D01*
X143943712Y-121463671D01*
X143943710Y-121463670D01*
X143943709Y-121463670D01*
X143871854Y-121454210D01*
X143800001Y-121444750D01*
X143799999Y-121444750D01*
X143656291Y-121463670D01*
X143656287Y-121463671D01*
X143522377Y-121519137D01*
X143407379Y-121607379D01*
X143319137Y-121722377D01*
X143263671Y-121856287D01*
X143263670Y-121856291D01*
X143244750Y-122000000D01*
X137796541Y-122000000D01*
X137620019Y-121890702D01*
X137620017Y-121890701D01*
X137456655Y-121827415D01*
X137421198Y-121813679D01*
X137211610Y-121774500D01*
X136998390Y-121774500D01*
X136788802Y-121813679D01*
X136788799Y-121813679D01*
X136788799Y-121813680D01*
X136589982Y-121890701D01*
X136589980Y-121890702D01*
X136408699Y-122002947D01*
X136251127Y-122146593D01*
X136122632Y-122316746D01*
X136027596Y-122507605D01*
X136027596Y-122507607D01*
X135969244Y-122712689D01*
X135958471Y-122828951D01*
X135932685Y-122893888D01*
X135888130Y-122925804D01*
X135779622Y-122925804D01*
X135781869Y-122924194D01*
X135745497Y-122903331D01*
X135713307Y-122841318D01*
X135711529Y-122828951D01*
X135708175Y-122792759D01*
X135700756Y-122712690D01*
X135642405Y-122507611D01*
X135642403Y-122507606D01*
X135642403Y-122507605D01*
X135547367Y-122316746D01*
X135418872Y-122146593D01*
X135349340Y-122083206D01*
X135261302Y-122002948D01*
X135080019Y-121890702D01*
X135080017Y-121890701D01*
X134916655Y-121827415D01*
X134881198Y-121813679D01*
X134671610Y-121774500D01*
X134458390Y-121774500D01*
X134248802Y-121813679D01*
X134248799Y-121813679D01*
X134248799Y-121813680D01*
X134049982Y-121890701D01*
X134049980Y-121890702D01*
X133868699Y-122002947D01*
X133711127Y-122146593D01*
X133582632Y-122316746D01*
X133487596Y-122507605D01*
X133487596Y-122507607D01*
X133429244Y-122712689D01*
X133418471Y-122828951D01*
X133392685Y-122893888D01*
X133348130Y-122925804D01*
X133239622Y-122925804D01*
X133241869Y-122924194D01*
X133205497Y-122903331D01*
X133173307Y-122841318D01*
X133171529Y-122828951D01*
X133168175Y-122792759D01*
X133160756Y-122712690D01*
X133102405Y-122507611D01*
X133102403Y-122507606D01*
X133102403Y-122507605D01*
X133007367Y-122316746D01*
X132878872Y-122146593D01*
X132809340Y-122083206D01*
X132721302Y-122002948D01*
X132540019Y-121890702D01*
X132540017Y-121890701D01*
X132376655Y-121827415D01*
X132341198Y-121813679D01*
X132131610Y-121774500D01*
X131918390Y-121774500D01*
X131708802Y-121813679D01*
X131708799Y-121813679D01*
X131708799Y-121813680D01*
X131509982Y-121890701D01*
X131509980Y-121890702D01*
X131328699Y-122002947D01*
X131171127Y-122146593D01*
X131042632Y-122316746D01*
X130947596Y-122507605D01*
X130947596Y-122507607D01*
X130889244Y-122712689D01*
X130878471Y-122828951D01*
X130852685Y-122893888D01*
X130808130Y-122925804D01*
X130699622Y-122925804D01*
X130701869Y-122924194D01*
X130665497Y-122903331D01*
X130633307Y-122841318D01*
X130631529Y-122828951D01*
X130628175Y-122792759D01*
X130620756Y-122712690D01*
X130562405Y-122507611D01*
X130562403Y-122507606D01*
X130562403Y-122507605D01*
X130467367Y-122316746D01*
X130338872Y-122146593D01*
X130269340Y-122083206D01*
X130181302Y-122002948D01*
X130000019Y-121890702D01*
X130000017Y-121890701D01*
X129836655Y-121827415D01*
X129801198Y-121813679D01*
X129591610Y-121774500D01*
X129378390Y-121774500D01*
X129168802Y-121813679D01*
X129168799Y-121813679D01*
X129168799Y-121813680D01*
X128969982Y-121890701D01*
X128969980Y-121890702D01*
X128788699Y-122002947D01*
X128631127Y-122146593D01*
X128502632Y-122316746D01*
X128407596Y-122507605D01*
X128407596Y-122507607D01*
X128349244Y-122712689D01*
X128338471Y-122828951D01*
X128312685Y-122893888D01*
X128268130Y-122925804D01*
X128159622Y-122925804D01*
X128161869Y-122924194D01*
X128125497Y-122903331D01*
X128093307Y-122841318D01*
X128091529Y-122828951D01*
X128088175Y-122792759D01*
X128080756Y-122712690D01*
X128022405Y-122507611D01*
X128022403Y-122507606D01*
X128022403Y-122507605D01*
X127927367Y-122316746D01*
X127798872Y-122146593D01*
X127729340Y-122083206D01*
X127641302Y-122002948D01*
X127460019Y-121890702D01*
X127460017Y-121890701D01*
X127296655Y-121827415D01*
X127261198Y-121813679D01*
X127051610Y-121774500D01*
X126838390Y-121774500D01*
X126628802Y-121813679D01*
X126628799Y-121813679D01*
X126628799Y-121813680D01*
X126429982Y-121890701D01*
X126429980Y-121890702D01*
X126248699Y-122002947D01*
X126091127Y-122146593D01*
X125962632Y-122316746D01*
X125867596Y-122507605D01*
X125867596Y-122507607D01*
X125809244Y-122712689D01*
X125798471Y-122828951D01*
X125772685Y-122893888D01*
X125728130Y-122925804D01*
X125619622Y-122925804D01*
X125621869Y-122924194D01*
X125585497Y-122903331D01*
X125553307Y-122841318D01*
X125551529Y-122828951D01*
X125548175Y-122792759D01*
X125540756Y-122712690D01*
X125482405Y-122507611D01*
X125482403Y-122507606D01*
X125482403Y-122507605D01*
X125387367Y-122316746D01*
X125258872Y-122146593D01*
X125189340Y-122083206D01*
X125101302Y-122002948D01*
X124920019Y-121890702D01*
X124920017Y-121890701D01*
X124756655Y-121827415D01*
X124721198Y-121813679D01*
X124511610Y-121774500D01*
X124298390Y-121774500D01*
X124088802Y-121813679D01*
X124088799Y-121813679D01*
X124088799Y-121813680D01*
X123889982Y-121890701D01*
X123889980Y-121890702D01*
X123708699Y-122002947D01*
X123551127Y-122146593D01*
X123422632Y-122316746D01*
X123327596Y-122507605D01*
X123327596Y-122507607D01*
X123269244Y-122712689D01*
X123258471Y-122828951D01*
X123232685Y-122893888D01*
X123188130Y-122925804D01*
X123079622Y-122925804D01*
X123081869Y-122924194D01*
X123045497Y-122903331D01*
X123013307Y-122841318D01*
X123011529Y-122828951D01*
X123008175Y-122792759D01*
X123000756Y-122712690D01*
X122942405Y-122507611D01*
X122942403Y-122507606D01*
X122942403Y-122507605D01*
X122847367Y-122316746D01*
X122718872Y-122146593D01*
X122649340Y-122083206D01*
X122561302Y-122002948D01*
X122380019Y-121890702D01*
X122380017Y-121890701D01*
X122216655Y-121827415D01*
X122181198Y-121813679D01*
X121971610Y-121774500D01*
X121758390Y-121774500D01*
X121548802Y-121813679D01*
X121548799Y-121813679D01*
X121548799Y-121813680D01*
X121349982Y-121890701D01*
X121349980Y-121890702D01*
X121168699Y-122002947D01*
X121011127Y-122146593D01*
X120882632Y-122316746D01*
X120787596Y-122507605D01*
X120787596Y-122507607D01*
X120729244Y-122712689D01*
X120722970Y-122780394D01*
X120697183Y-122845331D01*
X120640383Y-122886018D01*
X120570602Y-122889538D01*
X120509995Y-122854772D01*
X120477806Y-122792759D01*
X120475499Y-122768952D01*
X120475499Y-122030143D01*
X120475499Y-122030136D01*
X120474898Y-122024952D01*
X120472586Y-122005012D01*
X120472585Y-122005010D01*
X120472585Y-122005009D01*
X120427206Y-121902235D01*
X120347765Y-121822794D01*
X120327124Y-121813680D01*
X120244992Y-121777415D01*
X120219865Y-121774500D01*
X118430143Y-121774500D01*
X118430117Y-121774502D01*
X118405012Y-121777413D01*
X118405008Y-121777415D01*
X118302235Y-121822793D01*
X118222794Y-121902234D01*
X118177415Y-122005006D01*
X118177415Y-122005008D01*
X118174500Y-122030131D01*
X118174500Y-123819856D01*
X116080118Y-123819856D01*
X116345506Y-123604949D01*
X116604949Y-123345506D01*
X116835851Y-123060366D01*
X117035682Y-122752652D01*
X117202255Y-122425736D01*
X117333742Y-122083199D01*
X117428705Y-121728794D01*
X117486102Y-121366404D01*
X117505304Y-121000000D01*
X117486102Y-120633596D01*
X117428705Y-120271206D01*
X117333742Y-119916801D01*
X117202255Y-119574264D01*
X117196987Y-119563926D01*
X117113820Y-119400702D01*
X117100724Y-119375000D01*
X134819750Y-119375000D01*
X134837911Y-119512947D01*
X134838670Y-119518708D01*
X134838671Y-119518712D01*
X134894137Y-119652622D01*
X134894138Y-119652624D01*
X134894139Y-119652625D01*
X134982379Y-119767621D01*
X135097375Y-119855861D01*
X135097376Y-119855861D01*
X135097377Y-119855862D01*
X135132915Y-119870582D01*
X135231291Y-119911330D01*
X135358280Y-119928048D01*
X135374999Y-119930250D01*
X135375000Y-119930250D01*
X135375001Y-119930250D01*
X135389977Y-119928278D01*
X135518709Y-119911330D01*
X135652625Y-119855861D01*
X135767621Y-119767621D01*
X135855861Y-119652625D01*
X135911330Y-119518709D01*
X135913793Y-119500000D01*
X155744750Y-119500000D01*
X155763670Y-119643708D01*
X155763671Y-119643712D01*
X155819137Y-119777622D01*
X155819138Y-119777624D01*
X155819139Y-119777625D01*
X155907379Y-119892621D01*
X156022375Y-119980861D01*
X156156291Y-120036330D01*
X156283280Y-120053048D01*
X156299999Y-120055250D01*
X156300000Y-120055250D01*
X156300001Y-120055250D01*
X156314977Y-120053278D01*
X156443709Y-120036330D01*
X156577625Y-119980861D01*
X156577629Y-119980858D01*
X156583801Y-119976123D01*
X156648970Y-119950930D01*
X156659285Y-119950500D01*
X158367738Y-119950500D01*
X158381620Y-119951279D01*
X158394421Y-119952722D01*
X158417033Y-119955270D01*
X158417033Y-119955269D01*
X158417035Y-119955270D01*
X158473236Y-119944635D01*
X158477726Y-119943872D01*
X158534287Y-119935348D01*
X158534291Y-119935345D01*
X158542447Y-119932830D01*
X158550469Y-119930024D01*
X158550470Y-119930023D01*
X158550472Y-119930023D01*
X158601088Y-119903270D01*
X158605093Y-119901248D01*
X158656642Y-119876425D01*
X158656643Y-119876423D01*
X158656645Y-119876423D01*
X158663695Y-119871616D01*
X158670534Y-119866567D01*
X158670538Y-119866566D01*
X158710975Y-119826127D01*
X158714261Y-119822961D01*
X158756194Y-119784055D01*
X158756196Y-119784050D01*
X158761987Y-119776790D01*
X158762643Y-119777313D01*
X158772032Y-119765070D01*
X160795749Y-117741353D01*
X160806098Y-117732105D01*
X160833970Y-117709879D01*
X160866184Y-117662628D01*
X160868852Y-117658869D01*
X160879378Y-117644607D01*
X160902792Y-117612883D01*
X160902793Y-117612877D01*
X160906786Y-117605325D01*
X160910468Y-117597677D01*
X160910472Y-117597673D01*
X160927336Y-117542998D01*
X160928769Y-117538643D01*
X160942292Y-117500000D01*
X171279571Y-117500000D01*
X171299244Y-117712310D01*
X171357596Y-117917392D01*
X171357596Y-117917394D01*
X171452632Y-118108253D01*
X171563640Y-118255250D01*
X171581128Y-118278407D01*
X171738698Y-118422052D01*
X171919981Y-118534298D01*
X172118802Y-118611321D01*
X172328390Y-118650500D01*
X172328392Y-118650500D01*
X172541608Y-118650500D01*
X172541610Y-118650500D01*
X172751198Y-118611321D01*
X172950019Y-118534298D01*
X173131302Y-118422052D01*
X173288872Y-118278407D01*
X173417366Y-118108255D01*
X173461741Y-118019137D01*
X173512403Y-117917394D01*
X173512403Y-117917393D01*
X173512405Y-117917389D01*
X173570756Y-117712310D01*
X173577029Y-117644605D01*
X173602814Y-117579669D01*
X173659614Y-117538981D01*
X173729395Y-117535461D01*
X173790002Y-117570225D01*
X173822193Y-117632238D01*
X173824500Y-117656047D01*
X173824500Y-118394856D01*
X173824502Y-118394882D01*
X173827413Y-118419987D01*
X173827415Y-118419991D01*
X173872793Y-118522764D01*
X173872794Y-118522765D01*
X173952235Y-118602206D01*
X174055009Y-118647585D01*
X174080135Y-118650500D01*
X175869864Y-118650499D01*
X175869879Y-118650497D01*
X175869882Y-118650497D01*
X175894987Y-118647586D01*
X175894988Y-118647585D01*
X175894991Y-118647585D01*
X175997765Y-118602206D01*
X176077206Y-118522765D01*
X176122585Y-118419991D01*
X176125500Y-118394865D01*
X176125499Y-116605136D01*
X176125497Y-116605117D01*
X176122586Y-116580012D01*
X176122585Y-116580010D01*
X176122585Y-116580009D01*
X176077206Y-116477235D01*
X175997765Y-116397794D01*
X175977124Y-116388680D01*
X175894992Y-116352415D01*
X175869865Y-116349500D01*
X174080143Y-116349500D01*
X174080117Y-116349502D01*
X174055012Y-116352413D01*
X174055008Y-116352415D01*
X173952235Y-116397793D01*
X173872794Y-116477234D01*
X173827415Y-116580006D01*
X173827415Y-116580008D01*
X173824500Y-116605131D01*
X173824500Y-117343951D01*
X173804815Y-117410990D01*
X173752011Y-117456745D01*
X173682853Y-117466689D01*
X173619297Y-117437664D01*
X173581523Y-117378886D01*
X173577029Y-117355391D01*
X173575580Y-117339756D01*
X173570756Y-117287690D01*
X173512405Y-117082611D01*
X173512403Y-117082606D01*
X173512403Y-117082605D01*
X173417367Y-116891746D01*
X173288872Y-116721593D01*
X173273280Y-116707379D01*
X173131302Y-116577948D01*
X172950019Y-116465702D01*
X172950017Y-116465701D01*
X172850608Y-116427190D01*
X172751198Y-116388679D01*
X172541610Y-116349500D01*
X172328390Y-116349500D01*
X172118802Y-116388679D01*
X172118799Y-116388679D01*
X172118799Y-116388680D01*
X171919982Y-116465701D01*
X171919980Y-116465702D01*
X171738699Y-116577947D01*
X171581127Y-116721593D01*
X171452632Y-116891746D01*
X171357596Y-117082605D01*
X171357596Y-117082607D01*
X171299244Y-117287689D01*
X171279571Y-117499999D01*
X171279571Y-117500000D01*
X160942292Y-117500000D01*
X160947646Y-117484700D01*
X160947646Y-117484694D01*
X160949228Y-117476336D01*
X160950500Y-117467899D01*
X160950500Y-117410738D01*
X160950587Y-117406100D01*
X160951605Y-117378886D01*
X160952724Y-117348990D01*
X160952724Y-117348989D01*
X160951684Y-117339756D01*
X160952513Y-117339662D01*
X160950500Y-117324364D01*
X160950500Y-108857981D01*
X160970185Y-108790942D01*
X161022989Y-108745187D01*
X161092147Y-108735243D01*
X161155703Y-108764268D01*
X161172871Y-108782489D01*
X161257379Y-108892621D01*
X161372375Y-108980861D01*
X161506291Y-109036330D01*
X161633280Y-109053048D01*
X161649999Y-109055250D01*
X161650000Y-109055250D01*
X161650001Y-109055250D01*
X161664977Y-109053278D01*
X161793709Y-109036330D01*
X161927625Y-108980861D01*
X162042621Y-108892621D01*
X162130861Y-108777625D01*
X162186330Y-108643709D01*
X162205250Y-108500000D01*
X162186330Y-108356291D01*
X162142334Y-108250074D01*
X162130862Y-108222377D01*
X162130861Y-108222376D01*
X162130861Y-108222375D01*
X162042621Y-108107379D01*
X161927625Y-108019139D01*
X161927624Y-108019138D01*
X161927622Y-108019137D01*
X161793712Y-107963671D01*
X161793710Y-107963670D01*
X161793709Y-107963670D01*
X161721854Y-107954210D01*
X161650001Y-107944750D01*
X161649999Y-107944750D01*
X161506291Y-107963670D01*
X161506287Y-107963671D01*
X161372377Y-108019137D01*
X161351015Y-108035529D01*
X161257379Y-108107379D01*
X161257378Y-108107380D01*
X161257377Y-108107381D01*
X161172875Y-108217505D01*
X161116447Y-108258708D01*
X161046701Y-108262862D01*
X160985781Y-108228649D01*
X160953029Y-108166931D01*
X160950500Y-108142018D01*
X160950500Y-104200000D01*
X162744750Y-104200000D01*
X162763670Y-104343708D01*
X162763671Y-104343712D01*
X162819137Y-104477622D01*
X162819138Y-104477624D01*
X162819139Y-104477625D01*
X162907379Y-104592621D01*
X163022375Y-104680861D01*
X163156291Y-104736330D01*
X163283280Y-104753048D01*
X163299999Y-104755250D01*
X163300000Y-104755250D01*
X163300001Y-104755250D01*
X163314977Y-104753278D01*
X163443709Y-104736330D01*
X163577625Y-104680861D01*
X163692621Y-104592621D01*
X163780861Y-104477625D01*
X163836330Y-104343709D01*
X163855250Y-104200000D01*
X163836330Y-104056291D01*
X163780861Y-103922375D01*
X163776123Y-103916200D01*
X163750930Y-103851031D01*
X163750500Y-103840715D01*
X163750500Y-102059284D01*
X163770185Y-101992245D01*
X163776116Y-101983808D01*
X163780861Y-101977625D01*
X163836330Y-101843709D01*
X163855250Y-101700000D01*
X163836330Y-101556291D01*
X163780861Y-101422375D01*
X163692621Y-101307379D01*
X163577625Y-101219139D01*
X163577624Y-101219138D01*
X163577622Y-101219137D01*
X163443712Y-101163671D01*
X163443710Y-101163670D01*
X163443709Y-101163670D01*
X163339877Y-101150000D01*
X163300001Y-101144750D01*
X163299999Y-101144750D01*
X163156291Y-101163670D01*
X163156287Y-101163671D01*
X163022377Y-101219137D01*
X162907379Y-101307379D01*
X162819137Y-101422377D01*
X162763671Y-101556287D01*
X162763670Y-101556291D01*
X162748355Y-101672621D01*
X162744750Y-101700000D01*
X162763414Y-101841768D01*
X162763670Y-101843708D01*
X162763671Y-101843712D01*
X162819137Y-101977622D01*
X162819138Y-101977624D01*
X162819139Y-101977625D01*
X162823875Y-101983798D01*
X162849070Y-102048965D01*
X162849500Y-102059284D01*
X162849500Y-103840715D01*
X162829815Y-103907754D01*
X162823877Y-103916200D01*
X162819138Y-103922375D01*
X162763671Y-104056287D01*
X162763670Y-104056291D01*
X162744750Y-104199999D01*
X162744750Y-104200000D01*
X160950500Y-104200000D01*
X160950500Y-101837965D01*
X160970185Y-101770926D01*
X160986819Y-101750284D01*
X162837098Y-99900005D01*
X178893496Y-99900005D01*
X178912678Y-100131499D01*
X178969704Y-100356691D01*
X179063015Y-100569418D01*
X179147584Y-100698861D01*
X179699277Y-100147168D01*
X179709285Y-100177969D01*
X179796972Y-100316141D01*
X179916266Y-100428165D01*
X180051204Y-100502348D01*
X179499989Y-101053562D01*
X179499990Y-101053563D01*
X179530712Y-101077475D01*
X179530718Y-101077480D01*
X179735007Y-101188035D01*
X179735017Y-101188040D01*
X179954721Y-101263464D01*
X180183853Y-101301700D01*
X180416147Y-101301700D01*
X180645278Y-101263464D01*
X180864982Y-101188040D01*
X180864987Y-101188038D01*
X181069288Y-101077475D01*
X181100008Y-101053563D01*
X181100008Y-101053562D01*
X180545762Y-100499315D01*
X180614512Y-100472095D01*
X180746905Y-100375906D01*
X180851218Y-100249813D01*
X180899903Y-100146350D01*
X181452414Y-100698861D01*
X181536980Y-100569425D01*
X181536985Y-100569417D01*
X181630295Y-100356691D01*
X181687321Y-100131499D01*
X181706504Y-99900005D01*
X181706504Y-99899994D01*
X181687321Y-99668500D01*
X181630295Y-99443308D01*
X181536982Y-99230576D01*
X181452414Y-99101137D01*
X180900721Y-99652829D01*
X180890715Y-99622031D01*
X180803028Y-99483859D01*
X180683734Y-99371835D01*
X180548795Y-99297651D01*
X181100009Y-98746436D01*
X181100009Y-98746435D01*
X181069286Y-98722523D01*
X181069281Y-98722519D01*
X180864992Y-98611964D01*
X180864982Y-98611959D01*
X180645278Y-98536535D01*
X180416147Y-98498300D01*
X180183853Y-98498300D01*
X179954721Y-98536535D01*
X179735017Y-98611959D01*
X179735007Y-98611964D01*
X179530717Y-98722520D01*
X179530706Y-98722527D01*
X179499990Y-98746434D01*
X179499990Y-98746436D01*
X180054238Y-99300684D01*
X179985488Y-99327905D01*
X179853095Y-99424094D01*
X179748782Y-99550187D01*
X179700096Y-99653649D01*
X179147584Y-99101137D01*
X179063016Y-99230578D01*
X178969704Y-99443308D01*
X178912678Y-99668500D01*
X178893496Y-99899994D01*
X178893496Y-99900005D01*
X162837098Y-99900005D01*
X163000284Y-99736819D01*
X163061607Y-99703334D01*
X163087965Y-99700500D01*
X168317738Y-99700500D01*
X168331620Y-99701279D01*
X168344421Y-99702722D01*
X168367033Y-99705270D01*
X168367033Y-99705269D01*
X168367035Y-99705270D01*
X168423236Y-99694635D01*
X168427726Y-99693872D01*
X168484287Y-99685348D01*
X168484291Y-99685345D01*
X168492447Y-99682830D01*
X168500469Y-99680024D01*
X168500470Y-99680023D01*
X168500472Y-99680023D01*
X168551088Y-99653270D01*
X168555093Y-99651248D01*
X168606642Y-99626425D01*
X168606643Y-99626423D01*
X168606645Y-99626423D01*
X168613695Y-99621616D01*
X168620534Y-99616567D01*
X168620538Y-99616566D01*
X168660974Y-99576128D01*
X168664260Y-99572962D01*
X168706194Y-99534055D01*
X168706196Y-99534050D01*
X168711987Y-99526790D01*
X168712643Y-99527313D01*
X168722032Y-99515070D01*
X169600284Y-98636819D01*
X169661607Y-98603334D01*
X169687965Y-98600500D01*
X169890715Y-98600500D01*
X169957754Y-98620185D01*
X169966199Y-98626123D01*
X169972370Y-98630858D01*
X169972373Y-98630859D01*
X169972375Y-98630861D01*
X170106291Y-98686330D01*
X170233280Y-98703048D01*
X170249999Y-98705250D01*
X170250000Y-98705250D01*
X170250001Y-98705250D01*
X170264977Y-98703278D01*
X170393709Y-98686330D01*
X170527625Y-98630861D01*
X170642621Y-98542621D01*
X170730861Y-98427625D01*
X170786330Y-98293709D01*
X170805250Y-98150000D01*
X170803933Y-98140000D01*
X170801613Y-98122375D01*
X170786330Y-98006291D01*
X170730861Y-97872375D01*
X170642621Y-97757379D01*
X170527625Y-97669139D01*
X170527624Y-97669138D01*
X170527622Y-97669137D01*
X170393712Y-97613671D01*
X170393710Y-97613670D01*
X170393709Y-97613670D01*
X170270425Y-97597439D01*
X170253683Y-97590032D01*
X170248324Y-97593477D01*
X170229575Y-97597439D01*
X170106291Y-97613670D01*
X170106287Y-97613671D01*
X169972376Y-97669138D01*
X169972370Y-97669141D01*
X169966199Y-97673877D01*
X169901030Y-97699070D01*
X169890715Y-97699500D01*
X169482262Y-97699500D01*
X169468379Y-97698720D01*
X169464735Y-97698309D01*
X169432966Y-97694729D01*
X169376784Y-97705358D01*
X169372216Y-97706134D01*
X169315713Y-97714652D01*
X169315712Y-97714652D01*
X169315707Y-97714653D01*
X169307550Y-97717168D01*
X169299528Y-97719976D01*
X169248964Y-97746700D01*
X169244824Y-97748789D01*
X169214681Y-97763305D01*
X169145740Y-97774657D01*
X169081606Y-97746935D01*
X169042640Y-97688939D01*
X169041215Y-97619084D01*
X169073197Y-97563906D01*
X169250285Y-97386819D01*
X169311608Y-97353334D01*
X169337966Y-97350500D01*
X170213389Y-97350500D01*
X170248663Y-97360857D01*
X170267505Y-97351981D01*
X170286611Y-97350500D01*
X170712034Y-97350500D01*
X170779073Y-97370185D01*
X170799715Y-97386819D01*
X171144566Y-97731670D01*
X171178051Y-97792993D01*
X171173067Y-97862685D01*
X171171447Y-97866803D01*
X171113669Y-98006293D01*
X171095578Y-98143708D01*
X171094750Y-98150000D01*
X171112353Y-98283709D01*
X171113670Y-98293708D01*
X171113671Y-98293712D01*
X171169137Y-98427622D01*
X171169138Y-98427624D01*
X171169139Y-98427625D01*
X171257379Y-98542621D01*
X171372375Y-98630861D01*
X171372376Y-98630861D01*
X171372377Y-98630862D01*
X171412606Y-98647525D01*
X171506291Y-98686330D01*
X171633280Y-98703048D01*
X171649999Y-98705250D01*
X171650000Y-98705250D01*
X171650001Y-98705250D01*
X171664977Y-98703278D01*
X171793709Y-98686330D01*
X171927625Y-98630861D01*
X172042621Y-98542621D01*
X172130861Y-98427625D01*
X172186330Y-98293709D01*
X172205250Y-98150000D01*
X172203933Y-98140000D01*
X172201613Y-98122375D01*
X172186330Y-98006291D01*
X172130861Y-97872375D01*
X172126123Y-97866200D01*
X172100930Y-97801031D01*
X172100500Y-97790715D01*
X172100500Y-97632261D01*
X172101280Y-97618376D01*
X172105270Y-97582966D01*
X172105270Y-97582965D01*
X172094633Y-97526753D01*
X172093864Y-97522219D01*
X172085348Y-97465713D01*
X172085346Y-97465709D01*
X172082836Y-97457571D01*
X172080024Y-97449534D01*
X172080023Y-97449528D01*
X172053285Y-97398941D01*
X172051223Y-97394854D01*
X172047354Y-97386819D01*
X172026425Y-97343358D01*
X172026423Y-97343356D01*
X172026423Y-97343355D01*
X172021642Y-97336342D01*
X172016566Y-97329465D01*
X172016565Y-97329462D01*
X171976165Y-97289062D01*
X171972947Y-97285721D01*
X171934060Y-97243809D01*
X171926792Y-97238014D01*
X171927312Y-97237361D01*
X171915067Y-97227964D01*
X171291368Y-96604265D01*
X171282102Y-96593897D01*
X171268668Y-96577051D01*
X171259879Y-96566030D01*
X171259878Y-96566029D01*
X171259877Y-96566028D01*
X171234350Y-96548624D01*
X171212633Y-96533818D01*
X171208869Y-96531147D01*
X171162886Y-96497209D01*
X171155297Y-96493198D01*
X171147675Y-96489528D01*
X171093049Y-96472679D01*
X171088644Y-96471230D01*
X171085060Y-96469976D01*
X171077056Y-96467175D01*
X171034695Y-96452352D01*
X171026326Y-96450768D01*
X171017904Y-96449500D01*
X171017902Y-96449500D01*
X170960738Y-96449500D01*
X170956101Y-96449413D01*
X170954085Y-96449337D01*
X170898989Y-96447275D01*
X170889756Y-96448316D01*
X170889662Y-96447486D01*
X170874364Y-96449500D01*
X169132262Y-96449500D01*
X169118379Y-96448720D01*
X169113370Y-96448155D01*
X169082963Y-96444729D01*
X169026810Y-96455354D01*
X169022241Y-96456131D01*
X168965715Y-96464651D01*
X168957532Y-96467175D01*
X168949529Y-96469976D01*
X168898985Y-96496689D01*
X168894848Y-96498777D01*
X168843358Y-96523573D01*
X168836338Y-96528359D01*
X168829460Y-96533435D01*
X168789058Y-96573837D01*
X168785722Y-96577051D01*
X168743804Y-96615946D01*
X168738013Y-96623208D01*
X168737362Y-96622688D01*
X168727967Y-96634928D01*
X167149716Y-98213181D01*
X167088393Y-98246666D01*
X167062035Y-98249500D01*
X162032262Y-98249500D01*
X162018379Y-98248720D01*
X162013370Y-98248155D01*
X161982963Y-98244729D01*
X161926810Y-98255354D01*
X161922241Y-98256131D01*
X161865715Y-98264651D01*
X161857532Y-98267175D01*
X161849529Y-98269976D01*
X161798985Y-98296689D01*
X161794848Y-98298777D01*
X161743358Y-98323573D01*
X161736338Y-98328359D01*
X161729460Y-98333435D01*
X161689058Y-98373837D01*
X161685722Y-98377051D01*
X161643804Y-98415946D01*
X161638013Y-98423208D01*
X161637362Y-98422688D01*
X161627967Y-98434928D01*
X159404263Y-100658632D01*
X159393898Y-100667895D01*
X159366033Y-100690117D01*
X159366030Y-100690121D01*
X159333823Y-100737357D01*
X159331144Y-100741132D01*
X159297206Y-100787118D01*
X159293216Y-100794667D01*
X159289528Y-100802325D01*
X159272673Y-100856967D01*
X159271225Y-100861368D01*
X159252353Y-100915304D01*
X159250771Y-100923659D01*
X159249500Y-100932100D01*
X159249500Y-100989260D01*
X159249413Y-100993897D01*
X159247275Y-101051009D01*
X159248316Y-101060243D01*
X159247485Y-101060336D01*
X159249500Y-101075635D01*
X159249500Y-113462034D01*
X159229815Y-113529073D01*
X159213181Y-113549715D01*
X156004263Y-116758632D01*
X155993898Y-116767895D01*
X155966033Y-116790117D01*
X155966030Y-116790121D01*
X155933823Y-116837357D01*
X155931144Y-116841132D01*
X155897206Y-116887118D01*
X155893216Y-116894667D01*
X155889528Y-116902325D01*
X155872673Y-116956967D01*
X155871225Y-116961368D01*
X155852353Y-117015304D01*
X155850771Y-117023659D01*
X155849500Y-117032100D01*
X155849500Y-117089260D01*
X155849413Y-117093897D01*
X155847275Y-117151009D01*
X155848316Y-117160243D01*
X155847485Y-117160336D01*
X155849500Y-117175635D01*
X155849500Y-117340715D01*
X155829815Y-117407754D01*
X155823877Y-117416200D01*
X155819138Y-117422375D01*
X155763671Y-117556287D01*
X155763670Y-117556291D01*
X155744750Y-117699999D01*
X155744750Y-117700000D01*
X155763670Y-117843708D01*
X155763671Y-117843712D01*
X155819137Y-117977622D01*
X155819138Y-117977624D01*
X155819139Y-117977625D01*
X155907379Y-118092621D01*
X156022375Y-118180861D01*
X156156291Y-118236330D01*
X156283280Y-118253048D01*
X156299999Y-118255250D01*
X156300000Y-118255250D01*
X156300001Y-118255250D01*
X156314977Y-118253278D01*
X156443709Y-118236330D01*
X156577625Y-118180861D01*
X156692621Y-118092621D01*
X156780861Y-117977625D01*
X156836330Y-117843709D01*
X156855250Y-117700000D01*
X156836330Y-117556291D01*
X156780861Y-117422375D01*
X156776123Y-117416200D01*
X156750930Y-117351031D01*
X156750500Y-117340715D01*
X156750500Y-117337964D01*
X156770185Y-117270925D01*
X156786814Y-117250288D01*
X159837819Y-114199282D01*
X159899142Y-114165798D01*
X159968834Y-114170782D01*
X160024767Y-114212654D01*
X160049184Y-114278118D01*
X160049500Y-114286964D01*
X160049500Y-117162035D01*
X160029815Y-117229074D01*
X160013181Y-117249716D01*
X158249716Y-119013181D01*
X158188393Y-119046666D01*
X158162035Y-119049500D01*
X156659285Y-119049500D01*
X156592246Y-119029815D01*
X156583801Y-119023877D01*
X156577629Y-119019141D01*
X156577623Y-119019138D01*
X156443712Y-118963671D01*
X156443710Y-118963670D01*
X156443709Y-118963670D01*
X156371854Y-118954210D01*
X156300001Y-118944750D01*
X156299999Y-118944750D01*
X156156291Y-118963670D01*
X156156287Y-118963671D01*
X156022377Y-119019137D01*
X155907379Y-119107379D01*
X155819137Y-119222377D01*
X155763671Y-119356287D01*
X155763670Y-119356291D01*
X155744750Y-119499999D01*
X155744750Y-119500000D01*
X135913793Y-119500000D01*
X135930250Y-119375000D01*
X135911330Y-119231291D01*
X135855861Y-119097375D01*
X135767621Y-118982379D01*
X135652625Y-118894139D01*
X135652624Y-118894138D01*
X135652622Y-118894137D01*
X135518712Y-118838671D01*
X135518710Y-118838670D01*
X135518709Y-118838670D01*
X135446854Y-118829210D01*
X135375001Y-118819750D01*
X135374999Y-118819750D01*
X135231291Y-118838670D01*
X135231287Y-118838671D01*
X135097377Y-118894137D01*
X134982379Y-118982379D01*
X134894137Y-119097377D01*
X134838671Y-119231287D01*
X134838670Y-119231291D01*
X134826507Y-119323680D01*
X134819750Y-119375000D01*
X117100724Y-119375000D01*
X117035682Y-119247348D01*
X117019466Y-119222377D01*
X116835852Y-118939635D01*
X116604952Y-118654498D01*
X116604949Y-118654494D01*
X116450455Y-118500000D01*
X141944750Y-118500000D01*
X141963670Y-118643708D01*
X141963671Y-118643712D01*
X142019137Y-118777622D01*
X142019138Y-118777624D01*
X142019139Y-118777625D01*
X142107379Y-118892621D01*
X142222375Y-118980861D01*
X142222376Y-118980861D01*
X142222377Y-118980862D01*
X142246517Y-118990861D01*
X142356291Y-119036330D01*
X142483280Y-119053048D01*
X142499999Y-119055250D01*
X142500000Y-119055250D01*
X142500001Y-119055250D01*
X142514977Y-119053278D01*
X142643709Y-119036330D01*
X142777625Y-118980861D01*
X142892621Y-118892621D01*
X142980861Y-118777625D01*
X143036330Y-118643709D01*
X143055250Y-118500000D01*
X143544750Y-118500000D01*
X143563670Y-118643708D01*
X143563671Y-118643712D01*
X143619137Y-118777622D01*
X143619138Y-118777624D01*
X143619139Y-118777625D01*
X143707379Y-118892621D01*
X143822375Y-118980861D01*
X143822376Y-118980861D01*
X143822377Y-118980862D01*
X143846517Y-118990861D01*
X143956291Y-119036330D01*
X144083280Y-119053048D01*
X144099999Y-119055250D01*
X144100000Y-119055250D01*
X144100001Y-119055250D01*
X144114977Y-119053278D01*
X144243709Y-119036330D01*
X144377625Y-118980861D01*
X144492621Y-118892621D01*
X144580861Y-118777625D01*
X144636330Y-118643709D01*
X144653933Y-118510000D01*
X145234750Y-118510000D01*
X145253247Y-118650499D01*
X145253670Y-118653708D01*
X145253671Y-118653712D01*
X145309137Y-118787622D01*
X145309138Y-118787624D01*
X145309139Y-118787625D01*
X145397379Y-118902621D01*
X145512375Y-118990861D01*
X145646291Y-119046330D01*
X145773280Y-119063048D01*
X145789999Y-119065250D01*
X145790000Y-119065250D01*
X145790001Y-119065250D01*
X145804977Y-119063278D01*
X145933709Y-119046330D01*
X146067625Y-118990861D01*
X146182621Y-118902621D01*
X146270861Y-118787625D01*
X146326330Y-118653709D01*
X146345250Y-118510000D01*
X146343933Y-118500000D01*
X146844750Y-118500000D01*
X146863670Y-118643708D01*
X146863671Y-118643712D01*
X146919137Y-118777622D01*
X146919138Y-118777624D01*
X146919139Y-118777625D01*
X147007379Y-118892621D01*
X147122375Y-118980861D01*
X147122376Y-118980861D01*
X147122377Y-118980862D01*
X147146517Y-118990861D01*
X147256291Y-119036330D01*
X147383280Y-119053048D01*
X147399999Y-119055250D01*
X147400000Y-119055250D01*
X147400001Y-119055250D01*
X147414977Y-119053278D01*
X147543709Y-119036330D01*
X147677625Y-118980861D01*
X147792621Y-118892621D01*
X147880861Y-118777625D01*
X147936330Y-118643709D01*
X147955250Y-118500000D01*
X148394750Y-118500000D01*
X148413670Y-118643708D01*
X148413671Y-118643712D01*
X148469137Y-118777622D01*
X148469138Y-118777624D01*
X148469139Y-118777625D01*
X148557379Y-118892621D01*
X148672375Y-118980861D01*
X148672376Y-118980861D01*
X148672377Y-118980862D01*
X148696517Y-118990861D01*
X148806291Y-119036330D01*
X148933280Y-119053048D01*
X148949999Y-119055250D01*
X148950000Y-119055250D01*
X148950001Y-119055250D01*
X148964977Y-119053278D01*
X149093709Y-119036330D01*
X149227625Y-118980861D01*
X149342621Y-118892621D01*
X149430861Y-118777625D01*
X149486330Y-118643709D01*
X149505250Y-118500000D01*
X149486330Y-118356291D01*
X149436641Y-118236329D01*
X149430862Y-118222377D01*
X149430861Y-118222376D01*
X149430861Y-118222375D01*
X149342621Y-118107379D01*
X149227625Y-118019139D01*
X149227624Y-118019138D01*
X149227622Y-118019137D01*
X149093712Y-117963671D01*
X149093710Y-117963670D01*
X149093709Y-117963670D01*
X149021854Y-117954210D01*
X148950001Y-117944750D01*
X148949999Y-117944750D01*
X148806291Y-117963670D01*
X148806287Y-117963671D01*
X148672377Y-118019137D01*
X148557379Y-118107379D01*
X148469137Y-118222377D01*
X148413671Y-118356287D01*
X148413670Y-118356291D01*
X148394750Y-118499999D01*
X148394750Y-118500000D01*
X147955250Y-118500000D01*
X147936330Y-118356291D01*
X147886641Y-118236329D01*
X147880862Y-118222377D01*
X147880861Y-118222376D01*
X147880861Y-118222375D01*
X147792621Y-118107379D01*
X147677625Y-118019139D01*
X147677624Y-118019138D01*
X147677622Y-118019137D01*
X147543712Y-117963671D01*
X147543710Y-117963670D01*
X147543709Y-117963670D01*
X147471854Y-117954210D01*
X147400001Y-117944750D01*
X147399999Y-117944750D01*
X147256291Y-117963670D01*
X147256287Y-117963671D01*
X147122377Y-118019137D01*
X147007379Y-118107379D01*
X146919137Y-118222377D01*
X146863671Y-118356287D01*
X146863670Y-118356291D01*
X146844750Y-118499999D01*
X146844750Y-118500000D01*
X146343933Y-118500000D01*
X146333400Y-118419993D01*
X146326330Y-118366291D01*
X146272499Y-118236329D01*
X146270862Y-118232377D01*
X146270861Y-118232376D01*
X146270861Y-118232375D01*
X146182621Y-118117379D01*
X146067625Y-118029139D01*
X146067624Y-118029138D01*
X146067622Y-118029137D01*
X145933712Y-117973671D01*
X145933710Y-117973670D01*
X145933709Y-117973670D01*
X145861854Y-117964210D01*
X145790001Y-117954750D01*
X145789999Y-117954750D01*
X145646291Y-117973670D01*
X145646287Y-117973671D01*
X145512377Y-118029137D01*
X145397379Y-118117379D01*
X145309137Y-118232377D01*
X145253671Y-118366287D01*
X145253670Y-118366291D01*
X145236067Y-118500000D01*
X145234750Y-118510000D01*
X144653933Y-118510000D01*
X144655250Y-118500000D01*
X144636330Y-118356291D01*
X144586641Y-118236329D01*
X144580862Y-118222377D01*
X144580861Y-118222376D01*
X144580861Y-118222375D01*
X144492621Y-118107379D01*
X144377625Y-118019139D01*
X144377624Y-118019138D01*
X144377622Y-118019137D01*
X144243712Y-117963671D01*
X144243710Y-117963670D01*
X144243709Y-117963670D01*
X144171854Y-117954210D01*
X144100001Y-117944750D01*
X144099999Y-117944750D01*
X143956291Y-117963670D01*
X143956287Y-117963671D01*
X143822377Y-118019137D01*
X143707379Y-118107379D01*
X143619137Y-118222377D01*
X143563671Y-118356287D01*
X143563670Y-118356291D01*
X143544750Y-118499999D01*
X143544750Y-118500000D01*
X143055250Y-118500000D01*
X143036330Y-118356291D01*
X142986641Y-118236329D01*
X142980862Y-118222377D01*
X142980861Y-118222376D01*
X142980861Y-118222375D01*
X142892621Y-118107379D01*
X142777625Y-118019139D01*
X142777624Y-118019138D01*
X142777622Y-118019137D01*
X142643712Y-117963671D01*
X142643710Y-117963670D01*
X142643709Y-117963670D01*
X142571854Y-117954210D01*
X142500001Y-117944750D01*
X142499999Y-117944750D01*
X142356291Y-117963670D01*
X142356287Y-117963671D01*
X142222377Y-118019137D01*
X142107379Y-118107379D01*
X142019137Y-118222377D01*
X141963671Y-118356287D01*
X141963670Y-118356291D01*
X141944750Y-118499999D01*
X141944750Y-118500000D01*
X116450455Y-118500000D01*
X116345506Y-118395051D01*
X116297641Y-118356291D01*
X116060364Y-118164147D01*
X115752656Y-117964320D01*
X115425739Y-117797746D01*
X115083206Y-117666260D01*
X115062583Y-117660734D01*
X114728794Y-117571295D01*
X114728790Y-117571294D01*
X114728789Y-117571294D01*
X114366405Y-117513898D01*
X114000001Y-117494696D01*
X113999999Y-117494696D01*
X113633594Y-117513898D01*
X113271211Y-117571294D01*
X113271209Y-117571294D01*
X112916793Y-117666260D01*
X112574260Y-117797746D01*
X112247343Y-117964320D01*
X111939635Y-118164147D01*
X111654498Y-118395047D01*
X111654490Y-118395054D01*
X111395054Y-118654490D01*
X111395047Y-118654498D01*
X111164147Y-118939635D01*
X110964320Y-119247343D01*
X110797746Y-119574260D01*
X110740263Y-119724011D01*
X110697861Y-119779543D01*
X110632167Y-119803336D01*
X110564039Y-119787835D01*
X110515106Y-119737961D01*
X110500499Y-119679573D01*
X110500499Y-117100000D01*
X150994750Y-117100000D01*
X151002558Y-117159310D01*
X151013670Y-117243708D01*
X151013671Y-117243712D01*
X151069137Y-117377622D01*
X151069138Y-117377624D01*
X151069139Y-117377625D01*
X151157379Y-117492621D01*
X151272375Y-117580861D01*
X151272376Y-117580861D01*
X151272377Y-117580862D01*
X151312963Y-117597673D01*
X151406291Y-117636330D01*
X151533280Y-117653048D01*
X151549999Y-117655250D01*
X151550000Y-117655250D01*
X151550001Y-117655250D01*
X151564977Y-117653278D01*
X151693709Y-117636330D01*
X151827625Y-117580861D01*
X151942621Y-117492621D01*
X152030861Y-117377625D01*
X152086330Y-117243709D01*
X152105250Y-117100000D01*
X152086330Y-116956291D01*
X152038630Y-116841132D01*
X152030862Y-116822377D01*
X152030861Y-116822376D01*
X152030861Y-116822375D01*
X151942621Y-116707379D01*
X151827625Y-116619139D01*
X151827624Y-116619138D01*
X151827622Y-116619137D01*
X151693712Y-116563671D01*
X151693710Y-116563670D01*
X151693709Y-116563670D01*
X151621854Y-116554210D01*
X151550001Y-116544750D01*
X151549999Y-116544750D01*
X151406291Y-116563670D01*
X151406287Y-116563671D01*
X151272377Y-116619137D01*
X151157379Y-116707379D01*
X151069137Y-116822377D01*
X151013671Y-116956287D01*
X151013670Y-116956291D01*
X150994750Y-117100000D01*
X110500499Y-117100000D01*
X110500499Y-110780000D01*
X115024750Y-110780000D01*
X115043494Y-110922375D01*
X115043670Y-110923708D01*
X115043671Y-110923712D01*
X115099137Y-111057622D01*
X115099138Y-111057624D01*
X115099139Y-111057625D01*
X115103875Y-111063798D01*
X115129070Y-111128965D01*
X115129500Y-111139284D01*
X115129500Y-111417738D01*
X115128720Y-111431623D01*
X115124729Y-111467036D01*
X115135355Y-111523196D01*
X115136132Y-111527765D01*
X115144652Y-111584291D01*
X115147162Y-111592427D01*
X115149976Y-111600470D01*
X115149976Y-111600471D01*
X115149977Y-111600472D01*
X115153627Y-111607379D01*
X115176688Y-111651011D01*
X115178776Y-111655149D01*
X115203574Y-111706641D01*
X115208362Y-111713665D01*
X115213431Y-111720532D01*
X115213434Y-111720538D01*
X115213438Y-111720542D01*
X115253846Y-111760950D01*
X115257063Y-111764289D01*
X115295947Y-111806196D01*
X115303210Y-111811988D01*
X115302689Y-111812641D01*
X115314930Y-111822034D01*
X116788630Y-113295733D01*
X116797895Y-113306100D01*
X116820121Y-113333970D01*
X116820123Y-113333972D01*
X116867363Y-113366180D01*
X116871145Y-113368863D01*
X116917118Y-113402793D01*
X116924654Y-113406776D01*
X116932319Y-113410467D01*
X116932327Y-113410472D01*
X116957188Y-113418140D01*
X116986980Y-113427330D01*
X116991371Y-113428774D01*
X117045301Y-113447646D01*
X117045305Y-113447646D01*
X117053679Y-113449230D01*
X117062096Y-113450499D01*
X117062098Y-113450500D01*
X117119262Y-113450500D01*
X117123898Y-113450586D01*
X117181010Y-113452724D01*
X117190244Y-113451684D01*
X117190337Y-113452513D01*
X117205636Y-113450500D01*
X121440715Y-113450500D01*
X121507754Y-113470185D01*
X121516199Y-113476123D01*
X121522370Y-113480858D01*
X121522373Y-113480859D01*
X121522375Y-113480861D01*
X121656291Y-113536330D01*
X121783280Y-113553048D01*
X121799999Y-113555250D01*
X121800000Y-113555250D01*
X121800001Y-113555250D01*
X121814977Y-113553278D01*
X121943709Y-113536330D01*
X122077625Y-113480861D01*
X122192621Y-113392621D01*
X122280861Y-113277625D01*
X122285439Y-113266570D01*
X122329279Y-113212170D01*
X122395573Y-113190104D01*
X122463272Y-113207383D01*
X122510883Y-113258519D01*
X122514553Y-113266553D01*
X122519139Y-113277625D01*
X122607379Y-113392621D01*
X122722375Y-113480861D01*
X122722376Y-113480861D01*
X122722377Y-113480862D01*
X122767013Y-113499350D01*
X122856291Y-113536330D01*
X122983280Y-113553048D01*
X122999999Y-113555250D01*
X123000000Y-113555250D01*
X123000001Y-113555250D01*
X123014977Y-113553278D01*
X123143709Y-113536330D01*
X123277625Y-113480861D01*
X123392621Y-113392621D01*
X123451626Y-113315724D01*
X123508052Y-113274524D01*
X123577798Y-113270369D01*
X123638719Y-113304582D01*
X123648367Y-113315716D01*
X123707379Y-113392621D01*
X123822375Y-113480861D01*
X123822376Y-113480861D01*
X123822377Y-113480862D01*
X123867013Y-113499350D01*
X123956291Y-113536330D01*
X124083280Y-113553048D01*
X124099999Y-113555250D01*
X124100000Y-113555250D01*
X124100001Y-113555250D01*
X124114977Y-113553278D01*
X124243709Y-113536330D01*
X124377625Y-113480861D01*
X124492621Y-113392621D01*
X124580861Y-113277625D01*
X124636330Y-113143709D01*
X124655250Y-113000000D01*
X124636330Y-112856291D01*
X124583866Y-112729630D01*
X124580862Y-112722377D01*
X124580861Y-112722376D01*
X124580861Y-112722375D01*
X124492621Y-112607379D01*
X124377625Y-112519139D01*
X124377624Y-112519138D01*
X124377622Y-112519137D01*
X124243712Y-112463671D01*
X124243710Y-112463670D01*
X124243709Y-112463670D01*
X124171854Y-112454210D01*
X124100001Y-112444750D01*
X124099999Y-112444750D01*
X123956291Y-112463670D01*
X123956287Y-112463671D01*
X123822377Y-112519137D01*
X123799971Y-112536330D01*
X123707379Y-112607379D01*
X123707378Y-112607380D01*
X123707377Y-112607381D01*
X123648375Y-112684273D01*
X123591947Y-112725476D01*
X123522201Y-112729630D01*
X123461281Y-112695417D01*
X123451625Y-112684273D01*
X123396809Y-112612837D01*
X123392621Y-112607379D01*
X123277625Y-112519139D01*
X123277624Y-112519138D01*
X123277622Y-112519137D01*
X123143712Y-112463671D01*
X123143710Y-112463670D01*
X123143709Y-112463670D01*
X123071854Y-112454210D01*
X123000001Y-112444750D01*
X122999999Y-112444750D01*
X122856291Y-112463670D01*
X122856287Y-112463671D01*
X122722377Y-112519137D01*
X122607379Y-112607379D01*
X122519139Y-112722375D01*
X122514561Y-112733428D01*
X122470719Y-112787831D01*
X122404425Y-112809895D01*
X122336726Y-112792615D01*
X122289116Y-112741478D01*
X122285439Y-112733428D01*
X122282145Y-112725476D01*
X122280861Y-112722375D01*
X122192621Y-112607379D01*
X122077625Y-112519139D01*
X122077624Y-112519138D01*
X122077622Y-112519137D01*
X121943712Y-112463671D01*
X121943710Y-112463670D01*
X121943709Y-112463670D01*
X121871854Y-112454210D01*
X121800001Y-112444750D01*
X121799999Y-112444750D01*
X121656291Y-112463670D01*
X121656287Y-112463671D01*
X121522376Y-112519138D01*
X121522370Y-112519141D01*
X121516199Y-112523877D01*
X121451030Y-112549070D01*
X121440715Y-112549500D01*
X117367966Y-112549500D01*
X117300927Y-112529815D01*
X117280285Y-112513181D01*
X116066819Y-111299715D01*
X116033334Y-111238392D01*
X116030500Y-111212034D01*
X116030500Y-111139284D01*
X116050185Y-111072245D01*
X116056116Y-111063808D01*
X116060861Y-111057625D01*
X116116330Y-110923709D01*
X116135250Y-110780000D01*
X116116330Y-110636291D01*
X116060861Y-110502375D01*
X115972621Y-110387379D01*
X115857625Y-110299139D01*
X115857624Y-110299138D01*
X115857622Y-110299137D01*
X115723712Y-110243671D01*
X115723710Y-110243670D01*
X115723709Y-110243670D01*
X115651854Y-110234210D01*
X115580001Y-110224750D01*
X115579999Y-110224750D01*
X115436291Y-110243670D01*
X115436287Y-110243671D01*
X115302377Y-110299137D01*
X115187379Y-110387379D01*
X115099137Y-110502377D01*
X115043671Y-110636287D01*
X115043670Y-110636291D01*
X115024750Y-110780000D01*
X110500499Y-110780000D01*
X110500499Y-110000000D01*
X120094750Y-110000000D01*
X120112698Y-110136329D01*
X120113670Y-110143708D01*
X120113671Y-110143712D01*
X120169137Y-110277622D01*
X120169138Y-110277624D01*
X120169139Y-110277625D01*
X120257379Y-110392621D01*
X120372375Y-110480861D01*
X120506291Y-110536330D01*
X120633280Y-110553048D01*
X120649999Y-110555250D01*
X120650000Y-110555250D01*
X120650001Y-110555250D01*
X120664977Y-110553278D01*
X120793709Y-110536330D01*
X120927625Y-110480861D01*
X121042621Y-110392621D01*
X121130861Y-110277625D01*
X121186330Y-110143709D01*
X121205250Y-110000000D01*
X121186330Y-109856291D01*
X121130861Y-109722375D01*
X121042621Y-109607379D01*
X120927625Y-109519139D01*
X120927624Y-109519138D01*
X120927622Y-109519137D01*
X120793712Y-109463671D01*
X120793710Y-109463670D01*
X120793709Y-109463670D01*
X120721854Y-109454210D01*
X120650001Y-109444750D01*
X120649999Y-109444750D01*
X120506291Y-109463670D01*
X120506287Y-109463671D01*
X120372377Y-109519137D01*
X120257379Y-109607379D01*
X120169137Y-109722377D01*
X120113671Y-109856287D01*
X120113670Y-109856291D01*
X120095722Y-109992620D01*
X120094750Y-110000000D01*
X110500499Y-110000000D01*
X110500499Y-108250000D01*
X129944750Y-108250000D01*
X129963670Y-108393708D01*
X129963671Y-108393712D01*
X130019137Y-108527622D01*
X130019138Y-108527624D01*
X130019139Y-108527625D01*
X130107379Y-108642621D01*
X130222375Y-108730861D01*
X130222376Y-108730861D01*
X130222377Y-108730862D01*
X130267013Y-108749350D01*
X130356291Y-108786330D01*
X130475421Y-108802014D01*
X130499999Y-108805250D01*
X130500000Y-108805250D01*
X130500001Y-108805250D01*
X130524579Y-108802014D01*
X130643709Y-108786330D01*
X130777625Y-108730861D01*
X130892621Y-108642621D01*
X130980861Y-108527625D01*
X131036330Y-108393709D01*
X131055250Y-108250000D01*
X131036330Y-108106291D01*
X130980861Y-107972375D01*
X130892621Y-107857379D01*
X130777625Y-107769139D01*
X130777624Y-107769138D01*
X130777622Y-107769137D01*
X130645860Y-107714561D01*
X130591456Y-107670721D01*
X130569391Y-107604427D01*
X130586670Y-107536727D01*
X130637807Y-107489116D01*
X130645860Y-107485439D01*
X130777625Y-107430861D01*
X130892621Y-107342621D01*
X130980861Y-107227625D01*
X131036330Y-107093709D01*
X131055250Y-106950000D01*
X131036330Y-106806291D01*
X130999350Y-106717013D01*
X130980862Y-106672377D01*
X130980861Y-106672376D01*
X130980861Y-106672375D01*
X130892621Y-106557379D01*
X130777625Y-106469139D01*
X130777624Y-106469138D01*
X130777622Y-106469137D01*
X130643712Y-106413671D01*
X130643710Y-106413670D01*
X130643709Y-106413670D01*
X130571854Y-106404210D01*
X130500001Y-106394750D01*
X130499999Y-106394750D01*
X130356291Y-106413670D01*
X130356287Y-106413671D01*
X130222377Y-106469137D01*
X130107379Y-106557379D01*
X130019137Y-106672377D01*
X129963671Y-106806287D01*
X129963670Y-106806291D01*
X129944750Y-106949999D01*
X129944750Y-106950000D01*
X129963670Y-107093708D01*
X129963671Y-107093712D01*
X130019137Y-107227622D01*
X130019138Y-107227624D01*
X130019139Y-107227625D01*
X130107379Y-107342621D01*
X130222375Y-107430861D01*
X130222376Y-107430861D01*
X130222377Y-107430862D01*
X130354139Y-107485439D01*
X130408543Y-107529280D01*
X130430608Y-107595574D01*
X130413329Y-107663273D01*
X130362192Y-107710884D01*
X130354139Y-107714561D01*
X130222377Y-107769137D01*
X130107379Y-107857379D01*
X130019137Y-107972377D01*
X129963671Y-108106287D01*
X129963670Y-108106291D01*
X129944750Y-108249999D01*
X129944750Y-108250000D01*
X110500499Y-108250000D01*
X110500499Y-107558620D01*
X110520184Y-107491581D01*
X110572988Y-107445826D01*
X110642146Y-107435882D01*
X110705702Y-107464907D01*
X110730038Y-107493524D01*
X110757682Y-107538343D01*
X110881654Y-107662315D01*
X111030875Y-107754356D01*
X111030880Y-107754358D01*
X111197302Y-107809505D01*
X111197309Y-107809506D01*
X111300019Y-107819999D01*
X111749999Y-107819999D01*
X111750000Y-107819998D01*
X111750000Y-107120000D01*
X112250000Y-107120000D01*
X112250000Y-107819999D01*
X112699972Y-107819999D01*
X112699986Y-107819998D01*
X112802697Y-107809505D01*
X112969119Y-107754358D01*
X112969124Y-107754356D01*
X113118345Y-107662315D01*
X113242315Y-107538345D01*
X113334356Y-107389124D01*
X113334358Y-107389119D01*
X113389505Y-107222697D01*
X113389506Y-107222690D01*
X113399999Y-107119986D01*
X113400000Y-107119973D01*
X113400000Y-107070000D01*
X114656634Y-107070000D01*
X114656931Y-107071946D01*
X114656933Y-107071952D01*
X114727562Y-107262657D01*
X114727565Y-107262664D01*
X114835149Y-107435267D01*
X114975264Y-107582668D01*
X114975266Y-107582669D01*
X115142195Y-107698856D01*
X115329092Y-107779059D01*
X115528310Y-107820000D01*
X115930000Y-107820000D01*
X115930000Y-107120000D01*
X116430000Y-107120000D01*
X116430000Y-107820000D01*
X116780713Y-107820000D01*
X116932338Y-107804581D01*
X117126381Y-107743700D01*
X117126391Y-107743695D01*
X117304215Y-107644994D01*
X117304216Y-107644994D01*
X117458530Y-107512521D01*
X117458531Y-107512520D01*
X117583018Y-107351695D01*
X117672588Y-107169093D01*
X117698246Y-107070000D01*
X116896111Y-107070000D01*
X116935610Y-107045543D01*
X117003201Y-106956038D01*
X117033895Y-106848160D01*
X117023546Y-106736479D01*
X116973552Y-106636078D01*
X116901069Y-106570000D01*
X117703366Y-106570000D01*
X117703068Y-106568053D01*
X117703066Y-106568047D01*
X117632437Y-106377342D01*
X117632434Y-106377335D01*
X117524850Y-106204732D01*
X117384735Y-106057331D01*
X117384733Y-106057330D01*
X117217804Y-105941143D01*
X117030907Y-105860940D01*
X116831690Y-105820000D01*
X116314713Y-105820000D01*
X116247674Y-105800315D01*
X116247401Y-105800000D01*
X126544750Y-105800000D01*
X126557915Y-105900000D01*
X126563670Y-105943708D01*
X126563671Y-105943712D01*
X126619137Y-106077622D01*
X126619138Y-106077624D01*
X126619139Y-106077625D01*
X126707379Y-106192621D01*
X126822375Y-106280861D01*
X126822376Y-106280861D01*
X126822377Y-106280862D01*
X126867013Y-106299350D01*
X126956291Y-106336330D01*
X127083280Y-106353048D01*
X127099999Y-106355250D01*
X127100000Y-106355250D01*
X127100001Y-106355250D01*
X127114977Y-106353278D01*
X127243709Y-106336330D01*
X127377625Y-106280861D01*
X127492621Y-106192621D01*
X127580861Y-106077625D01*
X127636330Y-105943709D01*
X127655250Y-105800000D01*
X127636330Y-105656291D01*
X127595356Y-105557369D01*
X127587887Y-105487900D01*
X127619163Y-105425421D01*
X127679252Y-105389769D01*
X127749077Y-105392263D01*
X127757369Y-105395356D01*
X127781256Y-105405250D01*
X127856291Y-105436330D01*
X127983280Y-105453048D01*
X127999999Y-105455250D01*
X128000000Y-105455250D01*
X128000001Y-105455250D01*
X128014977Y-105453278D01*
X128143709Y-105436330D01*
X128277625Y-105380861D01*
X128392621Y-105292621D01*
X128480861Y-105177625D01*
X128536330Y-105043709D01*
X128555250Y-104900000D01*
X128548667Y-104850000D01*
X129944750Y-104850000D01*
X129963670Y-104993708D01*
X129963671Y-104993712D01*
X130019137Y-105127622D01*
X130019138Y-105127624D01*
X130019139Y-105127625D01*
X130107379Y-105242621D01*
X130222375Y-105330861D01*
X130356291Y-105386330D01*
X130483280Y-105403048D01*
X130499999Y-105405250D01*
X130500000Y-105405250D01*
X130500001Y-105405250D01*
X130514977Y-105403278D01*
X130643709Y-105386330D01*
X130777625Y-105330861D01*
X130892621Y-105242621D01*
X130980861Y-105127625D01*
X131036330Y-104993709D01*
X131055250Y-104850000D01*
X131036330Y-104706291D01*
X130989247Y-104592620D01*
X130980862Y-104572377D01*
X130980861Y-104572376D01*
X130980861Y-104572375D01*
X130892621Y-104457379D01*
X130777625Y-104369139D01*
X130777624Y-104369138D01*
X130777622Y-104369137D01*
X130643712Y-104313671D01*
X130643710Y-104313670D01*
X130643709Y-104313670D01*
X130569173Y-104303857D01*
X130500001Y-104294750D01*
X130499999Y-104294750D01*
X130356291Y-104313670D01*
X130356287Y-104313671D01*
X130222377Y-104369137D01*
X130107379Y-104457379D01*
X130019137Y-104572377D01*
X129963671Y-104706287D01*
X129963670Y-104706291D01*
X129944750Y-104849999D01*
X129944750Y-104850000D01*
X128548667Y-104850000D01*
X128536330Y-104756291D01*
X128486641Y-104636329D01*
X128480862Y-104622377D01*
X128480861Y-104622376D01*
X128480861Y-104622375D01*
X128392621Y-104507379D01*
X128392619Y-104507378D01*
X128392619Y-104507377D01*
X128373388Y-104492621D01*
X128371210Y-104490949D01*
X128330008Y-104434523D01*
X128325853Y-104364777D01*
X128360065Y-104303857D01*
X128371205Y-104294203D01*
X128440801Y-104240801D01*
X128529041Y-104125805D01*
X128584510Y-103991889D01*
X128603430Y-103848180D01*
X128584510Y-103704471D01*
X128529041Y-103570555D01*
X128440801Y-103455559D01*
X128440799Y-103455558D01*
X128440799Y-103455557D01*
X128422434Y-103441465D01*
X128391608Y-103417812D01*
X128350407Y-103361386D01*
X128346252Y-103291640D01*
X128380464Y-103230720D01*
X128419641Y-103204878D01*
X128477625Y-103180861D01*
X128592621Y-103092621D01*
X128680861Y-102977625D01*
X128736330Y-102843709D01*
X128755250Y-102700000D01*
X128753481Y-102686567D01*
X128747839Y-102643708D01*
X128736330Y-102556291D01*
X128680861Y-102422375D01*
X128592621Y-102307379D01*
X128477625Y-102219139D01*
X128477624Y-102219138D01*
X128477622Y-102219137D01*
X128343712Y-102163671D01*
X128343710Y-102163670D01*
X128343709Y-102163670D01*
X128271854Y-102154210D01*
X128200001Y-102144750D01*
X128199999Y-102144750D01*
X128056291Y-102163670D01*
X128056287Y-102163671D01*
X127922377Y-102219137D01*
X127807379Y-102307379D01*
X127719137Y-102422377D01*
X127663671Y-102556287D01*
X127663670Y-102556291D01*
X127644750Y-102699999D01*
X127644750Y-102700000D01*
X127663670Y-102843708D01*
X127663671Y-102843712D01*
X127719137Y-102977622D01*
X127719138Y-102977624D01*
X127719139Y-102977625D01*
X127807379Y-103092621D01*
X127856570Y-103130367D01*
X127897772Y-103186792D01*
X127901927Y-103256538D01*
X127867715Y-103317459D01*
X127828537Y-103343302D01*
X127770555Y-103367319D01*
X127655559Y-103455559D01*
X127567317Y-103570557D01*
X127511851Y-103704467D01*
X127511850Y-103704471D01*
X127492930Y-103848180D01*
X127497232Y-103880860D01*
X127511850Y-103991888D01*
X127511851Y-103991892D01*
X127567317Y-104125802D01*
X127567318Y-104125804D01*
X127567319Y-104125805D01*
X127655559Y-104240801D01*
X127676968Y-104257229D01*
X127718171Y-104313655D01*
X127722326Y-104383401D01*
X127688115Y-104444322D01*
X127676970Y-104453979D01*
X127607380Y-104507378D01*
X127519137Y-104622377D01*
X127463671Y-104756287D01*
X127463670Y-104756291D01*
X127444750Y-104899999D01*
X127444750Y-104900000D01*
X127463669Y-105043706D01*
X127463669Y-105043708D01*
X127463670Y-105043709D01*
X127498429Y-105127625D01*
X127504644Y-105142630D01*
X127512112Y-105212100D01*
X127480836Y-105274579D01*
X127420747Y-105310231D01*
X127350922Y-105307736D01*
X127342630Y-105304644D01*
X127243709Y-105263670D01*
X127243708Y-105263669D01*
X127243706Y-105263669D01*
X127100001Y-105244750D01*
X127099999Y-105244750D01*
X126956291Y-105263670D01*
X126956287Y-105263671D01*
X126822377Y-105319137D01*
X126707379Y-105407379D01*
X126619137Y-105522377D01*
X126563671Y-105656287D01*
X126563670Y-105656291D01*
X126550505Y-105756291D01*
X126544750Y-105800000D01*
X116247401Y-105800000D01*
X116201919Y-105747511D01*
X116191975Y-105678353D01*
X116200152Y-105648547D01*
X116210993Y-105622375D01*
X116244584Y-105541280D01*
X116264202Y-105392263D01*
X116264500Y-105390001D01*
X116264500Y-105389998D01*
X116247869Y-105263670D01*
X116244584Y-105238720D01*
X116186192Y-105097750D01*
X116093304Y-104976696D01*
X115993352Y-104900000D01*
X118062750Y-104900000D01*
X118078144Y-105016930D01*
X118081670Y-105043708D01*
X118081671Y-105043712D01*
X118137137Y-105177622D01*
X118137138Y-105177624D01*
X118137139Y-105177625D01*
X118225379Y-105292621D01*
X118340375Y-105380861D01*
X118340376Y-105380861D01*
X118340377Y-105380862D01*
X118385013Y-105399350D01*
X118474291Y-105436330D01*
X118601280Y-105453048D01*
X118617999Y-105455250D01*
X118618000Y-105455250D01*
X118618001Y-105455250D01*
X118632977Y-105453278D01*
X118761709Y-105436330D01*
X118895625Y-105380861D01*
X119010621Y-105292621D01*
X119098861Y-105177625D01*
X119154330Y-105043709D01*
X119173250Y-104900000D01*
X119154330Y-104756291D01*
X119104641Y-104636329D01*
X119098862Y-104622377D01*
X119098861Y-104622376D01*
X119098861Y-104622375D01*
X119010621Y-104507379D01*
X118895625Y-104419139D01*
X118895624Y-104419138D01*
X118895622Y-104419137D01*
X118761712Y-104363671D01*
X118761710Y-104363670D01*
X118761709Y-104363670D01*
X118689854Y-104354210D01*
X118618001Y-104344750D01*
X118617999Y-104344750D01*
X118474291Y-104363670D01*
X118474287Y-104363671D01*
X118340377Y-104419137D01*
X118225379Y-104507379D01*
X118137137Y-104622377D01*
X118081671Y-104756287D01*
X118081670Y-104756291D01*
X118068505Y-104856291D01*
X118062750Y-104900000D01*
X115993352Y-104900000D01*
X115972250Y-104883808D01*
X115972249Y-104883807D01*
X115972247Y-104883806D01*
X115831280Y-104825416D01*
X115831278Y-104825415D01*
X115717981Y-104810500D01*
X115717980Y-104810500D01*
X115642020Y-104810500D01*
X115642019Y-104810500D01*
X115528721Y-104825415D01*
X115528719Y-104825416D01*
X115387752Y-104883806D01*
X115266696Y-104976696D01*
X115173806Y-105097752D01*
X115115416Y-105238719D01*
X115115415Y-105238721D01*
X115095500Y-105389998D01*
X115095500Y-105390001D01*
X115115415Y-105541278D01*
X115115416Y-105541280D01*
X115172193Y-105678353D01*
X115173808Y-105682250D01*
X115219303Y-105741541D01*
X115244497Y-105806708D01*
X115230459Y-105875153D01*
X115181645Y-105925143D01*
X115181105Y-105925444D01*
X115055792Y-105994999D01*
X115055783Y-105995005D01*
X114901469Y-106127478D01*
X114901468Y-106127479D01*
X114776981Y-106288304D01*
X114687411Y-106470906D01*
X114661754Y-106570000D01*
X115463889Y-106570000D01*
X115424390Y-106594457D01*
X115356799Y-106683962D01*
X115326105Y-106791840D01*
X115336454Y-106903521D01*
X115386448Y-107003922D01*
X115458931Y-107070000D01*
X114656634Y-107070000D01*
X113400000Y-107070000D01*
X112566111Y-107070000D01*
X112605610Y-107045543D01*
X112673201Y-106956038D01*
X112703895Y-106848160D01*
X112693546Y-106736479D01*
X112643552Y-106636078D01*
X112571069Y-106570000D01*
X113399999Y-106570000D01*
X113399999Y-106520028D01*
X113399998Y-106520013D01*
X113389505Y-106417302D01*
X113334358Y-106250880D01*
X113334356Y-106250875D01*
X113242315Y-106101654D01*
X113118345Y-105977684D01*
X112969124Y-105885643D01*
X112969119Y-105885641D01*
X112802697Y-105830494D01*
X112802690Y-105830493D01*
X112699986Y-105820000D01*
X112250000Y-105820000D01*
X112250000Y-106520000D01*
X111750000Y-106520000D01*
X111750000Y-105820000D01*
X111300028Y-105820000D01*
X111300012Y-105820001D01*
X111197302Y-105830494D01*
X111030880Y-105885641D01*
X111030875Y-105885643D01*
X110881654Y-105977684D01*
X110757683Y-106101655D01*
X110757680Y-106101659D01*
X110730037Y-106146476D01*
X110678089Y-106193201D01*
X110609127Y-106204422D01*
X110545045Y-106176579D01*
X110506189Y-106118510D01*
X110500499Y-106081379D01*
X110500499Y-104100000D01*
X119844750Y-104100000D01*
X119857915Y-104200000D01*
X119863670Y-104243708D01*
X119863671Y-104243712D01*
X119919137Y-104377622D01*
X119919138Y-104377624D01*
X119919139Y-104377625D01*
X120007379Y-104492621D01*
X120122375Y-104580861D01*
X120122376Y-104580861D01*
X120122377Y-104580862D01*
X120167013Y-104599350D01*
X120256291Y-104636330D01*
X120383280Y-104653048D01*
X120399999Y-104655250D01*
X120400000Y-104655250D01*
X120400001Y-104655250D01*
X120414977Y-104653278D01*
X120543709Y-104636330D01*
X120677625Y-104580861D01*
X120792621Y-104492621D01*
X120880861Y-104377625D01*
X120936330Y-104243709D01*
X120955250Y-104100000D01*
X120936330Y-103956291D01*
X120880861Y-103822375D01*
X120792621Y-103707379D01*
X120677625Y-103619139D01*
X120677624Y-103619138D01*
X120677622Y-103619137D01*
X120543712Y-103563671D01*
X120543710Y-103563670D01*
X120543709Y-103563670D01*
X120471854Y-103554210D01*
X120400001Y-103544750D01*
X120399999Y-103544750D01*
X120256291Y-103563670D01*
X120256287Y-103563671D01*
X120122377Y-103619137D01*
X120007379Y-103707379D01*
X119919137Y-103822377D01*
X119863671Y-103956287D01*
X119863670Y-103956291D01*
X119847456Y-104079450D01*
X119844750Y-104100000D01*
X110500499Y-104100000D01*
X110500499Y-98918620D01*
X110520184Y-98851581D01*
X110572988Y-98805826D01*
X110642146Y-98795882D01*
X110705702Y-98824907D01*
X110730038Y-98853524D01*
X110757682Y-98898343D01*
X110881654Y-99022315D01*
X111030875Y-99114356D01*
X111030880Y-99114358D01*
X111197302Y-99169505D01*
X111197309Y-99169506D01*
X111300019Y-99179999D01*
X111749999Y-99179999D01*
X111750000Y-99179998D01*
X111750000Y-98480000D01*
X112250000Y-98480000D01*
X112250000Y-99179999D01*
X112699972Y-99179999D01*
X112699986Y-99179998D01*
X112802697Y-99169505D01*
X112969119Y-99114358D01*
X112969124Y-99114356D01*
X113118345Y-99022315D01*
X113242315Y-98898345D01*
X113334356Y-98749124D01*
X113334358Y-98749119D01*
X113389505Y-98582697D01*
X113389506Y-98582690D01*
X113399999Y-98479986D01*
X113400000Y-98479973D01*
X113400000Y-98430000D01*
X114656634Y-98430000D01*
X114656931Y-98431946D01*
X114656933Y-98431952D01*
X114727562Y-98622657D01*
X114727565Y-98622664D01*
X114835149Y-98795267D01*
X114975264Y-98942668D01*
X114975266Y-98942669D01*
X115142196Y-99058857D01*
X115168849Y-99070294D01*
X115222693Y-99114820D01*
X115243917Y-99181388D01*
X115225783Y-99248863D01*
X115218327Y-99259730D01*
X115173807Y-99317750D01*
X115173806Y-99317752D01*
X115115416Y-99458719D01*
X115115415Y-99458721D01*
X115095500Y-99609998D01*
X115095500Y-99610001D01*
X115115415Y-99761278D01*
X115115416Y-99761280D01*
X115173806Y-99902247D01*
X115173807Y-99902249D01*
X115173808Y-99902250D01*
X115266696Y-100023304D01*
X115387750Y-100116192D01*
X115528720Y-100174584D01*
X115585370Y-100182042D01*
X115642019Y-100189500D01*
X115642020Y-100189500D01*
X115717981Y-100189500D01*
X115755746Y-100184528D01*
X115831280Y-100174584D01*
X115972250Y-100116192D01*
X115993352Y-100100000D01*
X118062750Y-100100000D01*
X118070160Y-100156287D01*
X118081670Y-100243708D01*
X118081671Y-100243712D01*
X118137137Y-100377622D01*
X118137138Y-100377624D01*
X118137139Y-100377625D01*
X118225379Y-100492621D01*
X118340375Y-100580861D01*
X118340376Y-100580861D01*
X118340377Y-100580862D01*
X118377277Y-100596146D01*
X118474291Y-100636330D01*
X118601280Y-100653048D01*
X118617999Y-100655250D01*
X118618000Y-100655250D01*
X118618001Y-100655250D01*
X118632977Y-100653278D01*
X118761709Y-100636330D01*
X118895625Y-100580861D01*
X119010621Y-100492621D01*
X119098861Y-100377625D01*
X119154330Y-100243709D01*
X119173250Y-100100000D01*
X119154330Y-99956291D01*
X119098861Y-99822375D01*
X119010621Y-99707379D01*
X118895625Y-99619139D01*
X118895624Y-99619138D01*
X118895622Y-99619137D01*
X118761712Y-99563671D01*
X118761710Y-99563670D01*
X118761709Y-99563670D01*
X118689854Y-99554210D01*
X118618001Y-99544750D01*
X118617999Y-99544750D01*
X118474291Y-99563670D01*
X118474287Y-99563671D01*
X118340377Y-99619137D01*
X118225379Y-99707379D01*
X118137137Y-99822377D01*
X118081671Y-99956287D01*
X118081670Y-99956291D01*
X118072848Y-100023303D01*
X118062750Y-100100000D01*
X115993352Y-100100000D01*
X116093304Y-100023304D01*
X116186192Y-99902250D01*
X116244584Y-99761280D01*
X116264500Y-99610000D01*
X116260044Y-99576156D01*
X116250103Y-99500640D01*
X116244584Y-99458720D01*
X116200151Y-99351451D01*
X116192683Y-99281984D01*
X116223958Y-99219504D01*
X116284047Y-99183852D01*
X116314713Y-99180000D01*
X116780713Y-99180000D01*
X116932338Y-99164581D01*
X117126381Y-99103700D01*
X117126391Y-99103695D01*
X117304215Y-99004994D01*
X117304216Y-99004994D01*
X117458530Y-98872521D01*
X117458531Y-98872520D01*
X117583018Y-98711695D01*
X117672588Y-98529093D01*
X117698246Y-98430000D01*
X116896111Y-98430000D01*
X116935610Y-98405543D01*
X117003201Y-98316038D01*
X117033895Y-98208160D01*
X117023546Y-98096479D01*
X116973552Y-97996078D01*
X116901069Y-97930000D01*
X117703366Y-97930000D01*
X117703068Y-97928053D01*
X117703066Y-97928047D01*
X117632437Y-97737342D01*
X117632434Y-97737335D01*
X117524849Y-97564731D01*
X117384735Y-97417331D01*
X117384733Y-97417330D01*
X117217804Y-97301143D01*
X117030907Y-97220940D01*
X116831690Y-97180000D01*
X116430000Y-97180000D01*
X116430000Y-97880000D01*
X115930000Y-97880000D01*
X115930000Y-97180000D01*
X115579287Y-97180000D01*
X115427661Y-97195418D01*
X115233618Y-97256299D01*
X115233608Y-97256304D01*
X115055784Y-97355005D01*
X115055783Y-97355005D01*
X114901469Y-97487478D01*
X114901468Y-97487479D01*
X114776981Y-97648304D01*
X114687411Y-97830906D01*
X114661754Y-97930000D01*
X115463889Y-97930000D01*
X115424390Y-97954457D01*
X115356799Y-98043962D01*
X115326105Y-98151840D01*
X115336454Y-98263521D01*
X115386448Y-98363922D01*
X115458931Y-98430000D01*
X114656634Y-98430000D01*
X113400000Y-98430000D01*
X112566111Y-98430000D01*
X112605610Y-98405543D01*
X112673201Y-98316038D01*
X112703895Y-98208160D01*
X112693546Y-98096479D01*
X112643552Y-97996078D01*
X112571069Y-97930000D01*
X113399999Y-97930000D01*
X113399999Y-97880028D01*
X113399998Y-97880013D01*
X113389505Y-97777302D01*
X113334358Y-97610880D01*
X113334356Y-97610875D01*
X113242315Y-97461654D01*
X113118345Y-97337684D01*
X112969124Y-97245643D01*
X112969119Y-97245641D01*
X112802697Y-97190494D01*
X112802690Y-97190493D01*
X112699986Y-97180000D01*
X112250000Y-97180000D01*
X112250000Y-97880000D01*
X111750000Y-97880000D01*
X111750000Y-97180000D01*
X111300028Y-97180000D01*
X111300012Y-97180001D01*
X111197302Y-97190494D01*
X111030880Y-97245641D01*
X111030875Y-97245643D01*
X110881654Y-97337684D01*
X110757683Y-97461655D01*
X110757680Y-97461659D01*
X110730037Y-97506476D01*
X110678089Y-97553201D01*
X110609127Y-97564422D01*
X110545045Y-97536579D01*
X110506189Y-97478510D01*
X110500499Y-97441379D01*
X110500499Y-96950000D01*
X119844750Y-96950000D01*
X119850610Y-96994514D01*
X119863670Y-97093708D01*
X119863671Y-97093712D01*
X119919137Y-97227622D01*
X119919138Y-97227624D01*
X119919139Y-97227625D01*
X120007379Y-97342621D01*
X120122375Y-97430861D01*
X120256291Y-97486330D01*
X120383280Y-97503048D01*
X120399999Y-97505250D01*
X120400000Y-97505250D01*
X120400001Y-97505250D01*
X120414977Y-97503278D01*
X120543709Y-97486330D01*
X120677625Y-97430861D01*
X120792621Y-97342621D01*
X120880861Y-97227625D01*
X120936330Y-97093709D01*
X120955250Y-96950000D01*
X120936330Y-96806291D01*
X120880861Y-96672375D01*
X120792621Y-96557379D01*
X120677625Y-96469139D01*
X120677624Y-96469138D01*
X120677622Y-96469137D01*
X120543712Y-96413671D01*
X120543710Y-96413670D01*
X120543709Y-96413670D01*
X120471854Y-96404210D01*
X120400001Y-96394750D01*
X120399999Y-96394750D01*
X120256291Y-96413670D01*
X120256287Y-96413671D01*
X120122377Y-96469137D01*
X120007379Y-96557379D01*
X119919137Y-96672377D01*
X119863671Y-96806287D01*
X119863670Y-96806291D01*
X119847536Y-96928842D01*
X119844750Y-96950000D01*
X110500499Y-96950000D01*
X110500499Y-93080000D01*
X115014750Y-93080000D01*
X115033494Y-93222375D01*
X115033670Y-93223708D01*
X115033671Y-93223712D01*
X115089137Y-93357622D01*
X115089138Y-93357624D01*
X115089139Y-93357625D01*
X115177379Y-93472621D01*
X115292375Y-93560861D01*
X115426291Y-93616330D01*
X115515435Y-93628065D01*
X115579330Y-93656331D01*
X115586930Y-93663323D01*
X116413413Y-94489807D01*
X116413433Y-94489825D01*
X116431656Y-94508049D01*
X116451394Y-94518106D01*
X116467982Y-94528271D01*
X116485910Y-94541296D01*
X116506979Y-94548141D01*
X116524958Y-94555588D01*
X116544696Y-94565646D01*
X116566578Y-94569111D01*
X116585491Y-94573652D01*
X116606567Y-94580500D01*
X116638481Y-94580500D01*
X119832745Y-94580500D01*
X119899784Y-94600185D01*
X119920426Y-94616819D01*
X126741950Y-101438342D01*
X126831658Y-101528050D01*
X126851395Y-101538106D01*
X126867981Y-101548269D01*
X126885910Y-101561296D01*
X126885912Y-101561296D01*
X126885913Y-101561297D01*
X126906974Y-101568140D01*
X126924953Y-101575586D01*
X126944696Y-101585646D01*
X126966585Y-101589112D01*
X126985501Y-101593653D01*
X127006567Y-101600499D01*
X127033346Y-101600499D01*
X127033370Y-101600500D01*
X127038481Y-101600500D01*
X132110888Y-101600500D01*
X132177927Y-101620185D01*
X132209263Y-101649013D01*
X132227375Y-101672617D01*
X132227377Y-101672618D01*
X132227379Y-101672621D01*
X132342375Y-101760861D01*
X132367568Y-101771296D01*
X132421971Y-101815134D01*
X132444038Y-101881428D01*
X132426760Y-101949128D01*
X132375625Y-101996739D01*
X132367571Y-102000418D01*
X132322376Y-102019138D01*
X132207379Y-102107379D01*
X132119137Y-102222377D01*
X132063671Y-102356287D01*
X132063670Y-102356291D01*
X132044750Y-102500000D01*
X132058567Y-102604952D01*
X132063670Y-102643708D01*
X132063671Y-102643712D01*
X132119137Y-102777622D01*
X132119138Y-102777624D01*
X132119139Y-102777625D01*
X132193485Y-102874515D01*
X132218679Y-102939682D01*
X132204641Y-103008127D01*
X132193489Y-103025480D01*
X132145836Y-103087581D01*
X132119137Y-103122377D01*
X132063671Y-103256287D01*
X132063670Y-103256291D01*
X132044750Y-103399999D01*
X132044750Y-103400000D01*
X132063670Y-103543708D01*
X132063671Y-103543712D01*
X132119137Y-103677622D01*
X132119138Y-103677623D01*
X132119139Y-103677625D01*
X132207379Y-103792621D01*
X132322375Y-103880861D01*
X132322381Y-103880863D01*
X132328473Y-103884381D01*
X132376689Y-103934947D01*
X132389913Y-104003554D01*
X132363946Y-104068419D01*
X132354155Y-104079450D01*
X132166930Y-104266675D01*
X132105607Y-104300160D01*
X132095436Y-104301933D01*
X132006289Y-104313670D01*
X131872377Y-104369137D01*
X131757379Y-104457379D01*
X131669137Y-104572377D01*
X131613671Y-104706287D01*
X131613670Y-104706291D01*
X131594750Y-104849999D01*
X131594750Y-104850000D01*
X131613670Y-104993708D01*
X131613671Y-104993712D01*
X131669137Y-105127622D01*
X131669138Y-105127624D01*
X131669139Y-105127625D01*
X131757379Y-105242621D01*
X131872375Y-105330861D01*
X132006291Y-105386330D01*
X132133280Y-105403048D01*
X132149999Y-105405250D01*
X132150000Y-105405250D01*
X132150001Y-105405250D01*
X132164977Y-105403278D01*
X132293709Y-105386330D01*
X132427625Y-105330861D01*
X132542621Y-105242621D01*
X132630861Y-105127625D01*
X132686330Y-104993709D01*
X132698066Y-104904563D01*
X132726331Y-104840669D01*
X132733325Y-104833067D01*
X132779577Y-104786817D01*
X132840901Y-104753333D01*
X132867256Y-104750500D01*
X134836203Y-104750500D01*
X134903242Y-104770185D01*
X134948997Y-104822989D01*
X134959141Y-104890685D01*
X134953091Y-104936637D01*
X134951933Y-104945437D01*
X134923665Y-105009333D01*
X134916675Y-105016930D01*
X127420426Y-112513181D01*
X127359103Y-112546666D01*
X127332745Y-112549500D01*
X127124446Y-112549500D01*
X127057407Y-112529815D01*
X127048960Y-112523876D01*
X126977625Y-112469139D01*
X126977623Y-112469138D01*
X126843712Y-112413671D01*
X126843710Y-112413670D01*
X126843709Y-112413670D01*
X126771854Y-112404210D01*
X126700001Y-112394750D01*
X126699999Y-112394750D01*
X126556291Y-112413670D01*
X126556287Y-112413671D01*
X126422377Y-112469137D01*
X126407097Y-112480862D01*
X126307379Y-112557379D01*
X126307378Y-112557380D01*
X126307377Y-112557381D01*
X126273375Y-112601693D01*
X126216947Y-112642896D01*
X126147201Y-112647050D01*
X126086281Y-112612837D01*
X126076625Y-112601693D01*
X126060323Y-112580448D01*
X126042621Y-112557379D01*
X125927625Y-112469139D01*
X125927624Y-112469138D01*
X125927622Y-112469137D01*
X125793712Y-112413671D01*
X125793710Y-112413670D01*
X125793709Y-112413670D01*
X125721854Y-112404210D01*
X125650001Y-112394750D01*
X125649999Y-112394750D01*
X125506291Y-112413670D01*
X125506287Y-112413671D01*
X125372377Y-112469137D01*
X125257379Y-112557379D01*
X125169137Y-112672377D01*
X125113671Y-112806287D01*
X125113670Y-112806291D01*
X125094750Y-112949999D01*
X125094750Y-112950000D01*
X125113670Y-113093708D01*
X125113671Y-113093712D01*
X125169137Y-113227622D01*
X125169138Y-113227624D01*
X125169139Y-113227625D01*
X125257379Y-113342621D01*
X125372375Y-113430861D01*
X125506291Y-113486330D01*
X125633280Y-113503048D01*
X125649999Y-113505250D01*
X125650000Y-113505250D01*
X125650001Y-113505250D01*
X125664977Y-113503278D01*
X125793709Y-113486330D01*
X125927625Y-113430861D01*
X126042621Y-113342621D01*
X126076625Y-113298306D01*
X126133052Y-113257104D01*
X126202798Y-113252949D01*
X126263718Y-113287161D01*
X126273371Y-113298301D01*
X126286742Y-113315726D01*
X126304685Y-113339111D01*
X126307379Y-113342621D01*
X126422375Y-113430861D01*
X126556291Y-113486330D01*
X126683280Y-113503048D01*
X126699999Y-113505250D01*
X126700000Y-113505250D01*
X126700001Y-113505250D01*
X126714977Y-113503278D01*
X126843709Y-113486330D01*
X126977625Y-113430861D01*
X127027461Y-113392620D01*
X127048960Y-113376124D01*
X127114129Y-113350930D01*
X127124446Y-113350500D01*
X127613431Y-113350500D01*
X127613433Y-113350500D01*
X127634501Y-113343654D01*
X127653417Y-113339112D01*
X127675304Y-113335646D01*
X127695044Y-113325586D01*
X127713011Y-113318144D01*
X127734090Y-113311296D01*
X127752026Y-113298263D01*
X127768588Y-113288114D01*
X127788342Y-113278050D01*
X127803834Y-113262557D01*
X127803841Y-113262552D01*
X128116393Y-112950000D01*
X130394750Y-112950000D01*
X130413670Y-113093708D01*
X130413671Y-113093712D01*
X130469137Y-113227622D01*
X130469138Y-113227624D01*
X130469139Y-113227625D01*
X130557379Y-113342621D01*
X130672375Y-113430861D01*
X130806291Y-113486330D01*
X130933280Y-113503048D01*
X130949999Y-113505250D01*
X130950000Y-113505250D01*
X130950001Y-113505250D01*
X130964977Y-113503278D01*
X131093709Y-113486330D01*
X131227625Y-113430861D01*
X131342621Y-113342621D01*
X131430861Y-113227625D01*
X131486330Y-113093709D01*
X131505250Y-112950000D01*
X131486330Y-112806291D01*
X131430861Y-112672375D01*
X131342621Y-112557379D01*
X131227625Y-112469139D01*
X131227624Y-112469138D01*
X131227622Y-112469137D01*
X131093712Y-112413671D01*
X131093710Y-112413670D01*
X131093709Y-112413670D01*
X131021854Y-112404210D01*
X130950001Y-112394750D01*
X130949999Y-112394750D01*
X130806291Y-112413670D01*
X130806287Y-112413671D01*
X130672377Y-112469137D01*
X130557379Y-112557379D01*
X130469137Y-112672377D01*
X130413671Y-112806287D01*
X130413670Y-112806291D01*
X130394750Y-112949999D01*
X130394750Y-112950000D01*
X128116393Y-112950000D01*
X129103325Y-111963068D01*
X133191153Y-107875238D01*
X133252474Y-107841755D01*
X133322166Y-107846739D01*
X133378099Y-107888611D01*
X133393393Y-107915469D01*
X133413359Y-107963671D01*
X133419139Y-107977625D01*
X133507379Y-108092621D01*
X133622375Y-108180861D01*
X133756291Y-108236330D01*
X133883280Y-108253048D01*
X133899999Y-108255250D01*
X133900000Y-108255250D01*
X133900001Y-108255250D01*
X133920763Y-108252516D01*
X133939314Y-108250074D01*
X134008349Y-108260839D01*
X134060605Y-108307219D01*
X134079500Y-108373013D01*
X134079500Y-110852744D01*
X134059815Y-110919783D01*
X134043181Y-110940425D01*
X133566930Y-111416675D01*
X133505607Y-111450160D01*
X133495436Y-111451933D01*
X133406289Y-111463670D01*
X133272377Y-111519137D01*
X133157379Y-111607379D01*
X133069137Y-111722377D01*
X133013671Y-111856287D01*
X133013670Y-111856291D01*
X132994750Y-111999999D01*
X132994750Y-112000000D01*
X133013670Y-112143708D01*
X133013671Y-112143712D01*
X133069137Y-112277622D01*
X133069138Y-112277624D01*
X133069139Y-112277625D01*
X133157379Y-112392621D01*
X133272375Y-112480861D01*
X133406291Y-112536330D01*
X133533280Y-112553048D01*
X133549999Y-112555250D01*
X133550000Y-112555250D01*
X133550001Y-112555250D01*
X133564977Y-112553278D01*
X133693709Y-112536330D01*
X133827625Y-112480861D01*
X133942621Y-112392621D01*
X134030861Y-112277625D01*
X134086330Y-112143709D01*
X134098066Y-112054562D01*
X134126331Y-111990668D01*
X134133310Y-111983081D01*
X134785484Y-111330909D01*
X134785484Y-111330908D01*
X134792552Y-111323841D01*
X134792557Y-111323834D01*
X134808050Y-111308342D01*
X134818109Y-111288598D01*
X134828269Y-111272018D01*
X134841296Y-111254089D01*
X134848142Y-111233017D01*
X134855588Y-111215043D01*
X134863253Y-111200000D01*
X134865646Y-111195304D01*
X134869112Y-111173416D01*
X134873651Y-111154510D01*
X134880500Y-111133433D01*
X134880500Y-111006567D01*
X134880500Y-108757703D01*
X134900185Y-108690664D01*
X134952989Y-108644909D01*
X135022147Y-108634965D01*
X135085703Y-108663990D01*
X135122431Y-108719386D01*
X135124354Y-108725304D01*
X135134412Y-108745045D01*
X135141857Y-108763018D01*
X135148704Y-108784090D01*
X135161726Y-108802014D01*
X135171890Y-108818600D01*
X135181949Y-108838340D01*
X135181950Y-108838342D01*
X135201390Y-108857782D01*
X135201419Y-108857813D01*
X138306675Y-111963068D01*
X138340160Y-112024391D01*
X138341933Y-112034563D01*
X138353670Y-112123707D01*
X138353671Y-112123712D01*
X138409137Y-112257622D01*
X138409138Y-112257624D01*
X138409139Y-112257625D01*
X138497379Y-112372621D01*
X138612375Y-112460861D01*
X138612376Y-112460861D01*
X138612377Y-112460862D01*
X138619159Y-112463671D01*
X138746291Y-112516330D01*
X138873280Y-112533048D01*
X138889999Y-112535250D01*
X138890000Y-112535250D01*
X138890001Y-112535250D01*
X138904977Y-112533278D01*
X139033709Y-112516330D01*
X139167625Y-112460861D01*
X139282621Y-112372621D01*
X139370861Y-112257625D01*
X139426330Y-112123709D01*
X139445250Y-111980000D01*
X139426330Y-111836291D01*
X139378384Y-111720538D01*
X139370862Y-111702377D01*
X139370861Y-111702376D01*
X139370861Y-111702375D01*
X139282621Y-111587379D01*
X139167625Y-111499139D01*
X139167624Y-111499138D01*
X139167622Y-111499137D01*
X139033712Y-111443671D01*
X139033710Y-111443670D01*
X139033709Y-111443670D01*
X138985009Y-111437258D01*
X138944563Y-111431933D01*
X138880666Y-111403666D01*
X138873068Y-111396675D01*
X138676393Y-111200000D01*
X152844750Y-111200000D01*
X152849804Y-111238392D01*
X152863670Y-111343708D01*
X152863671Y-111343712D01*
X152919137Y-111477622D01*
X152919138Y-111477624D01*
X152919139Y-111477625D01*
X153007379Y-111592621D01*
X153122375Y-111680861D01*
X153256291Y-111736330D01*
X153383280Y-111753048D01*
X153399999Y-111755250D01*
X153400000Y-111755250D01*
X153400001Y-111755250D01*
X153414977Y-111753278D01*
X153543709Y-111736330D01*
X153677625Y-111680861D01*
X153792621Y-111592621D01*
X153880861Y-111477625D01*
X153936330Y-111343709D01*
X153955250Y-111200000D01*
X153936330Y-111056291D01*
X153899350Y-110967013D01*
X153880862Y-110922377D01*
X153880861Y-110922376D01*
X153880861Y-110922375D01*
X153792621Y-110807379D01*
X153677625Y-110719139D01*
X153677624Y-110719138D01*
X153677622Y-110719137D01*
X153543712Y-110663671D01*
X153543710Y-110663670D01*
X153543709Y-110663670D01*
X153471854Y-110654210D01*
X153400001Y-110644750D01*
X153399999Y-110644750D01*
X153256291Y-110663670D01*
X153256287Y-110663671D01*
X153122377Y-110719137D01*
X153007379Y-110807379D01*
X152919137Y-110922377D01*
X152863671Y-111056287D01*
X152863670Y-111056291D01*
X152852744Y-111139284D01*
X152844750Y-111200000D01*
X138676393Y-111200000D01*
X137076393Y-109600000D01*
X151844750Y-109600000D01*
X151863670Y-109743708D01*
X151863671Y-109743712D01*
X151919137Y-109877622D01*
X151919138Y-109877624D01*
X151919139Y-109877625D01*
X152007379Y-109992621D01*
X152122375Y-110080861D01*
X152256291Y-110136330D01*
X152383280Y-110153048D01*
X152399999Y-110155250D01*
X152400000Y-110155250D01*
X152400001Y-110155250D01*
X152414977Y-110153278D01*
X152543709Y-110136330D01*
X152677625Y-110080861D01*
X152792621Y-109992621D01*
X152880861Y-109877625D01*
X152936330Y-109743709D01*
X152955250Y-109600000D01*
X152936330Y-109456291D01*
X152880861Y-109322375D01*
X152792621Y-109207379D01*
X152677625Y-109119139D01*
X152677624Y-109119138D01*
X152677622Y-109119137D01*
X152543712Y-109063671D01*
X152543710Y-109063670D01*
X152543709Y-109063670D01*
X152471854Y-109054210D01*
X152400001Y-109044750D01*
X152399999Y-109044750D01*
X152256291Y-109063670D01*
X152256287Y-109063671D01*
X152122377Y-109119137D01*
X152007379Y-109207379D01*
X151919137Y-109322377D01*
X151863671Y-109456287D01*
X151863670Y-109456291D01*
X151844750Y-109599999D01*
X151844750Y-109600000D01*
X137076393Y-109600000D01*
X135946819Y-108470426D01*
X135913334Y-108409103D01*
X135910500Y-108382745D01*
X135910500Y-107700000D01*
X140044750Y-107700000D01*
X140060548Y-107819999D01*
X140063670Y-107843708D01*
X140063671Y-107843712D01*
X140119137Y-107977622D01*
X140119138Y-107977624D01*
X140119139Y-107977625D01*
X140207379Y-108092621D01*
X140322375Y-108180861D01*
X140456291Y-108236330D01*
X140583280Y-108253048D01*
X140599999Y-108255250D01*
X140600000Y-108255250D01*
X140600001Y-108255250D01*
X140614977Y-108253278D01*
X140743709Y-108236330D01*
X140877625Y-108180861D01*
X140974515Y-108106514D01*
X141039682Y-108081321D01*
X141108127Y-108095359D01*
X141125480Y-108106510D01*
X141222375Y-108180861D01*
X141356291Y-108236330D01*
X141483280Y-108253048D01*
X141499999Y-108255250D01*
X141500000Y-108255250D01*
X141500001Y-108255250D01*
X141514977Y-108253278D01*
X141643709Y-108236330D01*
X141777625Y-108180861D01*
X141892621Y-108092621D01*
X141901625Y-108080886D01*
X141958050Y-108039685D01*
X142027796Y-108035529D01*
X142088717Y-108069740D01*
X142098367Y-108080876D01*
X142107379Y-108092621D01*
X142222375Y-108180861D01*
X142356291Y-108236330D01*
X142483280Y-108253048D01*
X142499999Y-108255250D01*
X142500000Y-108255250D01*
X142500001Y-108255250D01*
X142514977Y-108253278D01*
X142643709Y-108236330D01*
X142777625Y-108180861D01*
X142892621Y-108092621D01*
X142901625Y-108080886D01*
X142958050Y-108039685D01*
X143027796Y-108035529D01*
X143088717Y-108069740D01*
X143098367Y-108080876D01*
X143107379Y-108092621D01*
X143222375Y-108180861D01*
X143356291Y-108236330D01*
X143483280Y-108253048D01*
X143499999Y-108255250D01*
X143500000Y-108255250D01*
X143500001Y-108255250D01*
X143514977Y-108253278D01*
X143643709Y-108236330D01*
X143777625Y-108180861D01*
X143874515Y-108106514D01*
X143939682Y-108081321D01*
X144008127Y-108095359D01*
X144025480Y-108106510D01*
X144122375Y-108180861D01*
X144256291Y-108236330D01*
X144383280Y-108253048D01*
X144399999Y-108255250D01*
X144400000Y-108255250D01*
X144400001Y-108255250D01*
X144414977Y-108253278D01*
X144543709Y-108236330D01*
X144631419Y-108200000D01*
X152844750Y-108200000D01*
X152851342Y-108250074D01*
X152863670Y-108343708D01*
X152863671Y-108343712D01*
X152919137Y-108477622D01*
X152919138Y-108477624D01*
X152919139Y-108477625D01*
X153007379Y-108592621D01*
X153122375Y-108680861D01*
X153256291Y-108736330D01*
X153383280Y-108753048D01*
X153399999Y-108755250D01*
X153400000Y-108755250D01*
X153400001Y-108755250D01*
X153414977Y-108753278D01*
X153543709Y-108736330D01*
X153677625Y-108680861D01*
X153792621Y-108592621D01*
X153880861Y-108477625D01*
X153936330Y-108343709D01*
X153955250Y-108200000D01*
X153936330Y-108056291D01*
X153880861Y-107922375D01*
X153792621Y-107807379D01*
X153677625Y-107719139D01*
X153677624Y-107719138D01*
X153677622Y-107719137D01*
X153543712Y-107663671D01*
X153543710Y-107663670D01*
X153543709Y-107663670D01*
X153471854Y-107654210D01*
X153400001Y-107644750D01*
X153399999Y-107644750D01*
X153256291Y-107663670D01*
X153256287Y-107663671D01*
X153122377Y-107719137D01*
X153007379Y-107807379D01*
X152919137Y-107922377D01*
X152863671Y-108056287D01*
X152863670Y-108056291D01*
X152847270Y-108180862D01*
X152844750Y-108200000D01*
X144631419Y-108200000D01*
X144677625Y-108180861D01*
X144792621Y-108092621D01*
X144880861Y-107977625D01*
X144936330Y-107843709D01*
X144955250Y-107700000D01*
X144955099Y-107698856D01*
X144950415Y-107663273D01*
X144936330Y-107556291D01*
X144886201Y-107435267D01*
X144880862Y-107422377D01*
X144880861Y-107422376D01*
X144880861Y-107422375D01*
X144792621Y-107307379D01*
X144677625Y-107219139D01*
X144677624Y-107219138D01*
X144677622Y-107219137D01*
X144543712Y-107163671D01*
X144543710Y-107163670D01*
X144543709Y-107163670D01*
X144471854Y-107154210D01*
X144400001Y-107144750D01*
X144399999Y-107144750D01*
X144256291Y-107163670D01*
X144256287Y-107163671D01*
X144122377Y-107219137D01*
X144087581Y-107245836D01*
X144025484Y-107293485D01*
X143960318Y-107318679D01*
X143891873Y-107304641D01*
X143874519Y-107293489D01*
X143777625Y-107219139D01*
X143777624Y-107219138D01*
X143777622Y-107219137D01*
X143643712Y-107163671D01*
X143643710Y-107163670D01*
X143643709Y-107163670D01*
X143571854Y-107154210D01*
X143500001Y-107144750D01*
X143499999Y-107144750D01*
X143356291Y-107163670D01*
X143356287Y-107163671D01*
X143222377Y-107219137D01*
X143165662Y-107262657D01*
X143107379Y-107307379D01*
X143107378Y-107307380D01*
X143107377Y-107307381D01*
X143098375Y-107319113D01*
X143041947Y-107360316D01*
X142972201Y-107364470D01*
X142911281Y-107330257D01*
X142901625Y-107319113D01*
X142899782Y-107316711D01*
X142892621Y-107307379D01*
X142777625Y-107219139D01*
X142777624Y-107219138D01*
X142777622Y-107219137D01*
X142643712Y-107163671D01*
X142643710Y-107163670D01*
X142643709Y-107163670D01*
X142571854Y-107154210D01*
X142500001Y-107144750D01*
X142499999Y-107144750D01*
X142356291Y-107163670D01*
X142356287Y-107163671D01*
X142222377Y-107219137D01*
X142165662Y-107262657D01*
X142107379Y-107307379D01*
X142107378Y-107307380D01*
X142107377Y-107307381D01*
X142098375Y-107319113D01*
X142041947Y-107360316D01*
X141972201Y-107364470D01*
X141911281Y-107330257D01*
X141901625Y-107319113D01*
X141899782Y-107316711D01*
X141892621Y-107307379D01*
X141777625Y-107219139D01*
X141777624Y-107219138D01*
X141777622Y-107219137D01*
X141643712Y-107163671D01*
X141643710Y-107163670D01*
X141643709Y-107163670D01*
X141571854Y-107154210D01*
X141500001Y-107144750D01*
X141499999Y-107144750D01*
X141356291Y-107163670D01*
X141356287Y-107163671D01*
X141222377Y-107219137D01*
X141187581Y-107245836D01*
X141125484Y-107293485D01*
X141060318Y-107318679D01*
X140991873Y-107304641D01*
X140974519Y-107293489D01*
X140877625Y-107219139D01*
X140877624Y-107219138D01*
X140877622Y-107219137D01*
X140743712Y-107163671D01*
X140743710Y-107163670D01*
X140743709Y-107163670D01*
X140671854Y-107154210D01*
X140600001Y-107144750D01*
X140599999Y-107144750D01*
X140456291Y-107163670D01*
X140456287Y-107163671D01*
X140322377Y-107219137D01*
X140207379Y-107307379D01*
X140119137Y-107422377D01*
X140063671Y-107556287D01*
X140063670Y-107556291D01*
X140044901Y-107698856D01*
X140044750Y-107700000D01*
X135910500Y-107700000D01*
X135910500Y-107214444D01*
X135930185Y-107147405D01*
X135936125Y-107138957D01*
X135990861Y-107067625D01*
X136046330Y-106933709D01*
X136065250Y-106790000D01*
X136046330Y-106646291D01*
X135990861Y-106512375D01*
X135990860Y-106512374D01*
X135990860Y-106512373D01*
X135953864Y-106464160D01*
X135915351Y-106413969D01*
X135890157Y-106348802D01*
X135904195Y-106280357D01*
X135915352Y-106262997D01*
X135980860Y-106177626D01*
X135980859Y-106177626D01*
X135980861Y-106177625D01*
X136036330Y-106043709D01*
X136055250Y-105900000D01*
X136036330Y-105756291D01*
X135980861Y-105622375D01*
X135906514Y-105525484D01*
X135881321Y-105460318D01*
X135895359Y-105391873D01*
X135906510Y-105374519D01*
X135980861Y-105277625D01*
X136036330Y-105143709D01*
X136055250Y-105000000D01*
X136053560Y-104987167D01*
X136050552Y-104964320D01*
X136040858Y-104890685D01*
X136051623Y-104821651D01*
X136098003Y-104769395D01*
X136163797Y-104750500D01*
X136613431Y-104750500D01*
X136613433Y-104750500D01*
X136634501Y-104743654D01*
X136653417Y-104739112D01*
X136675304Y-104735646D01*
X136695044Y-104725586D01*
X136713011Y-104718144D01*
X136734090Y-104711296D01*
X136752026Y-104698263D01*
X136768588Y-104688114D01*
X136788342Y-104678050D01*
X136803834Y-104662557D01*
X136803841Y-104662552D01*
X141166393Y-100300000D01*
X142294750Y-100300000D01*
X142302160Y-100356287D01*
X142313670Y-100443708D01*
X142313671Y-100443712D01*
X142369137Y-100577622D01*
X142369138Y-100577623D01*
X142369139Y-100577625D01*
X142457379Y-100692621D01*
X142572375Y-100780861D01*
X142572376Y-100780861D01*
X142572377Y-100780862D01*
X142587481Y-100787118D01*
X142706291Y-100836330D01*
X142833280Y-100853048D01*
X142849999Y-100855250D01*
X142850000Y-100855250D01*
X142850001Y-100855250D01*
X142864977Y-100853278D01*
X142993709Y-100836330D01*
X143127625Y-100780861D01*
X143242621Y-100692621D01*
X143330861Y-100577625D01*
X143386330Y-100443709D01*
X143405250Y-100300000D01*
X143386330Y-100156291D01*
X143331246Y-100023304D01*
X143330862Y-100022377D01*
X143330861Y-100022376D01*
X143330861Y-100022375D01*
X143242621Y-99907379D01*
X143127625Y-99819139D01*
X143127624Y-99819138D01*
X143127622Y-99819137D01*
X142993712Y-99763671D01*
X142993710Y-99763670D01*
X142993709Y-99763670D01*
X142921854Y-99754210D01*
X142850001Y-99744750D01*
X142849999Y-99744750D01*
X142706291Y-99763670D01*
X142706287Y-99763671D01*
X142572377Y-99819137D01*
X142457379Y-99907379D01*
X142369137Y-100022377D01*
X142313671Y-100156287D01*
X142313670Y-100156291D01*
X142294750Y-100300000D01*
X141166393Y-100300000D01*
X146566393Y-94900000D01*
X179092650Y-94900000D01*
X179113206Y-95121849D01*
X179174179Y-95336142D01*
X179174186Y-95336160D01*
X179273488Y-95535586D01*
X179407759Y-95713388D01*
X179572408Y-95863485D01*
X179572410Y-95863487D01*
X179761834Y-95980773D01*
X179761835Y-95980773D01*
X179761838Y-95980775D01*
X179969593Y-96061260D01*
X180188600Y-96102200D01*
X180188602Y-96102200D01*
X180411398Y-96102200D01*
X180411400Y-96102200D01*
X180630407Y-96061260D01*
X180838162Y-95980775D01*
X181027591Y-95863486D01*
X181192242Y-95713386D01*
X181326510Y-95535588D01*
X181390350Y-95407379D01*
X181425813Y-95336160D01*
X181425814Y-95336155D01*
X181425820Y-95336145D01*
X181486793Y-95121850D01*
X181507350Y-94900000D01*
X181486793Y-94678150D01*
X181425820Y-94463855D01*
X181425816Y-94463847D01*
X181425813Y-94463839D01*
X181326511Y-94264413D01*
X181192240Y-94086611D01*
X181027591Y-93936514D01*
X181027589Y-93936512D01*
X180838165Y-93819226D01*
X180838159Y-93819224D01*
X180836817Y-93818704D01*
X180630407Y-93738740D01*
X180411400Y-93697800D01*
X180188600Y-93697800D01*
X179969593Y-93738740D01*
X179869220Y-93777625D01*
X179761840Y-93819224D01*
X179761834Y-93819226D01*
X179572410Y-93936512D01*
X179572408Y-93936514D01*
X179407759Y-94086611D01*
X179273488Y-94264413D01*
X179174186Y-94463839D01*
X179174179Y-94463857D01*
X179113206Y-94678150D01*
X179092650Y-94899999D01*
X179092650Y-94900000D01*
X146566393Y-94900000D01*
X152066393Y-89400000D01*
X156944750Y-89400000D01*
X156961552Y-89527625D01*
X156963670Y-89543708D01*
X156963671Y-89543712D01*
X157019137Y-89677622D01*
X157019138Y-89677624D01*
X157019139Y-89677625D01*
X157107379Y-89792621D01*
X157222375Y-89880861D01*
X157356291Y-89936330D01*
X157483280Y-89953048D01*
X157499999Y-89955250D01*
X157500000Y-89955250D01*
X157500001Y-89955250D01*
X157514977Y-89953278D01*
X157643709Y-89936330D01*
X157777625Y-89880861D01*
X157892621Y-89792621D01*
X157980861Y-89677625D01*
X158036330Y-89543709D01*
X158055250Y-89400000D01*
X158036330Y-89256291D01*
X157980861Y-89122375D01*
X157892621Y-89007379D01*
X157777625Y-88919139D01*
X157777624Y-88919138D01*
X157777622Y-88919137D01*
X157643712Y-88863671D01*
X157643710Y-88863670D01*
X157643709Y-88863670D01*
X157571854Y-88854210D01*
X157500001Y-88844750D01*
X157499999Y-88844750D01*
X157356291Y-88863670D01*
X157356287Y-88863671D01*
X157222377Y-88919137D01*
X157107379Y-89007379D01*
X157019137Y-89122377D01*
X156963671Y-89256287D01*
X156963670Y-89256291D01*
X156944750Y-89400000D01*
X152066393Y-89400000D01*
X154866393Y-86600000D01*
X167144785Y-86600000D01*
X167163602Y-86803082D01*
X167219417Y-86999247D01*
X167219422Y-86999260D01*
X167310327Y-87181821D01*
X167433237Y-87344581D01*
X167583958Y-87481980D01*
X167583960Y-87481982D01*
X167613868Y-87500500D01*
X167757363Y-87589348D01*
X167947544Y-87663024D01*
X168148024Y-87700500D01*
X168148026Y-87700500D01*
X168351974Y-87700500D01*
X168351976Y-87700500D01*
X168552456Y-87663024D01*
X168742637Y-87589348D01*
X168916041Y-87481981D01*
X168956765Y-87444856D01*
X173949500Y-87444856D01*
X173949502Y-87444882D01*
X173952413Y-87469987D01*
X173952415Y-87469991D01*
X173997793Y-87572764D01*
X173997794Y-87572765D01*
X174077235Y-87652206D01*
X174180009Y-87697585D01*
X174205135Y-87700500D01*
X175894864Y-87700499D01*
X175894879Y-87700497D01*
X175894882Y-87700497D01*
X175919987Y-87697586D01*
X175919988Y-87697585D01*
X175919991Y-87697585D01*
X176022765Y-87652206D01*
X176102206Y-87572765D01*
X176147585Y-87469991D01*
X176150500Y-87444865D01*
X176150499Y-85755136D01*
X176150497Y-85755117D01*
X176147586Y-85730012D01*
X176147585Y-85730010D01*
X176147585Y-85730009D01*
X176102206Y-85627235D01*
X176022765Y-85547794D01*
X175998267Y-85536977D01*
X175919992Y-85502415D01*
X175894865Y-85499500D01*
X174205143Y-85499500D01*
X174205117Y-85499502D01*
X174180012Y-85502413D01*
X174180008Y-85502415D01*
X174077235Y-85547793D01*
X173997794Y-85627234D01*
X173952415Y-85730006D01*
X173952415Y-85730008D01*
X173949500Y-85755131D01*
X173949500Y-87444856D01*
X168956765Y-87444856D01*
X169066764Y-87344579D01*
X169189673Y-87181821D01*
X169280582Y-86999250D01*
X169336397Y-86803083D01*
X169355215Y-86600000D01*
X169336397Y-86396917D01*
X169280582Y-86200750D01*
X169189673Y-86018179D01*
X169072816Y-85863435D01*
X169066762Y-85855418D01*
X168916041Y-85718019D01*
X168916039Y-85718017D01*
X168742642Y-85610655D01*
X168742635Y-85610651D01*
X168647546Y-85573814D01*
X168552456Y-85536976D01*
X168351976Y-85499500D01*
X168148024Y-85499500D01*
X167947544Y-85536976D01*
X167947541Y-85536976D01*
X167947541Y-85536977D01*
X167757364Y-85610651D01*
X167757357Y-85610655D01*
X167583960Y-85718017D01*
X167583958Y-85718019D01*
X167433237Y-85855418D01*
X167310327Y-86018178D01*
X167219422Y-86200739D01*
X167219417Y-86200752D01*
X167163602Y-86396917D01*
X167144785Y-86599999D01*
X167144785Y-86600000D01*
X154866393Y-86600000D01*
X155412552Y-86053841D01*
X155412557Y-86053834D01*
X155428050Y-86038342D01*
X155438109Y-86018598D01*
X155448272Y-86002015D01*
X155461297Y-85984089D01*
X155468144Y-85963014D01*
X155475589Y-85945040D01*
X155485646Y-85925304D01*
X155489111Y-85903421D01*
X155493654Y-85884502D01*
X155500499Y-85863435D01*
X155500500Y-85863433D01*
X155500500Y-85736567D01*
X155500500Y-85024444D01*
X155520185Y-84957405D01*
X155526125Y-84948957D01*
X155580861Y-84877625D01*
X155636330Y-84743709D01*
X155655250Y-84600000D01*
X155655212Y-84599715D01*
X155652061Y-84575777D01*
X155636330Y-84456291D01*
X155580861Y-84322375D01*
X155492621Y-84207379D01*
X155377625Y-84119139D01*
X155377624Y-84119138D01*
X155377622Y-84119137D01*
X155243712Y-84063671D01*
X155243710Y-84063670D01*
X155243709Y-84063670D01*
X155171854Y-84054210D01*
X155100001Y-84044750D01*
X155099999Y-84044750D01*
X154956291Y-84063670D01*
X154956287Y-84063671D01*
X154822377Y-84119137D01*
X154707379Y-84207379D01*
X154619137Y-84322377D01*
X154563671Y-84456287D01*
X154563670Y-84456291D01*
X154547939Y-84575777D01*
X154537348Y-84599715D01*
X154547519Y-84621302D01*
X154547939Y-84624222D01*
X154563670Y-84743708D01*
X154563671Y-84743712D01*
X154619138Y-84877623D01*
X154619139Y-84877625D01*
X154673875Y-84948957D01*
X154699070Y-85014125D01*
X154699500Y-85024444D01*
X154699500Y-85582745D01*
X154679815Y-85649784D01*
X154663181Y-85670426D01*
X136420426Y-103913181D01*
X136359103Y-103946666D01*
X136332745Y-103949500D01*
X136170380Y-103949500D01*
X136103341Y-103929815D01*
X136057586Y-103877011D01*
X136047441Y-103809314D01*
X136055250Y-103750000D01*
X136055250Y-103749999D01*
X136045721Y-103677622D01*
X136036330Y-103606291D01*
X135980861Y-103472375D01*
X135967956Y-103455557D01*
X135926124Y-103401039D01*
X135900930Y-103335869D01*
X135900500Y-103325553D01*
X135900500Y-102967253D01*
X135920185Y-102900214D01*
X135936814Y-102879577D01*
X153628240Y-85188150D01*
X153689561Y-85154667D01*
X153732105Y-85152894D01*
X153749999Y-85155250D01*
X153750000Y-85155250D01*
X153893709Y-85136330D01*
X154027625Y-85080861D01*
X154142621Y-84992621D01*
X154230861Y-84877625D01*
X154286330Y-84743709D01*
X154302061Y-84624221D01*
X154312651Y-84600283D01*
X154302481Y-84578697D01*
X154302061Y-84575777D01*
X154300927Y-84567167D01*
X154286330Y-84456291D01*
X154230861Y-84322375D01*
X154142621Y-84207379D01*
X154027625Y-84119139D01*
X154027624Y-84119138D01*
X154027622Y-84119137D01*
X153893712Y-84063671D01*
X153893710Y-84063670D01*
X153893709Y-84063670D01*
X153821854Y-84054210D01*
X153750001Y-84044750D01*
X153749999Y-84044750D01*
X153606291Y-84063670D01*
X153606287Y-84063671D01*
X153472377Y-84119137D01*
X153357379Y-84207379D01*
X153269138Y-84322376D01*
X153213459Y-84456799D01*
X153186579Y-84497027D01*
X136141768Y-101541838D01*
X136080445Y-101575323D01*
X136010753Y-101570339D01*
X135954820Y-101528467D01*
X135930403Y-101463003D01*
X135939526Y-101406705D01*
X135986330Y-101293709D01*
X136005250Y-101150000D01*
X135986330Y-101006291D01*
X135930861Y-100872375D01*
X135842621Y-100757379D01*
X135727625Y-100669139D01*
X135727624Y-100669138D01*
X135727622Y-100669137D01*
X135593712Y-100613671D01*
X135593710Y-100613670D01*
X135593709Y-100613670D01*
X135534866Y-100605923D01*
X135460606Y-100596146D01*
X135396710Y-100567879D01*
X135358239Y-100509554D01*
X135353853Y-100489392D01*
X135345792Y-100428165D01*
X135336330Y-100356291D01*
X135280861Y-100222375D01*
X135192621Y-100107379D01*
X135077625Y-100019139D01*
X135077624Y-100019138D01*
X135077622Y-100019137D01*
X134943712Y-99963671D01*
X134943710Y-99963670D01*
X134943709Y-99963670D01*
X134871854Y-99954210D01*
X134800001Y-99944750D01*
X134799999Y-99944750D01*
X134656291Y-99963670D01*
X134656287Y-99963671D01*
X134522377Y-100019137D01*
X134407379Y-100107379D01*
X134319137Y-100222377D01*
X134263671Y-100356287D01*
X134263670Y-100356291D01*
X134245722Y-100492620D01*
X134244750Y-100500000D01*
X134262698Y-100636329D01*
X134263670Y-100643708D01*
X134263671Y-100643712D01*
X134319137Y-100777622D01*
X134319138Y-100777624D01*
X134319139Y-100777625D01*
X134407379Y-100892621D01*
X134522375Y-100980861D01*
X134656291Y-101036330D01*
X134789393Y-101053853D01*
X134853289Y-101082119D01*
X134891760Y-101140444D01*
X134896146Y-101160606D01*
X134913670Y-101293707D01*
X134913671Y-101293712D01*
X134969137Y-101427622D01*
X134969138Y-101427624D01*
X134969139Y-101427625D01*
X135057379Y-101542621D01*
X135172375Y-101630861D01*
X135306291Y-101686330D01*
X135433280Y-101703048D01*
X135449999Y-101705250D01*
X135450000Y-101705250D01*
X135450001Y-101705250D01*
X135464977Y-101703278D01*
X135593709Y-101686330D01*
X135706705Y-101639525D01*
X135776174Y-101632057D01*
X135838653Y-101663332D01*
X135874305Y-101723421D01*
X135871811Y-101793246D01*
X135841838Y-101841768D01*
X135194516Y-102489091D01*
X135194513Y-102489093D01*
X135194513Y-102489094D01*
X135183231Y-102500376D01*
X135171948Y-102511659D01*
X135171948Y-102511660D01*
X135161891Y-102531397D01*
X135151731Y-102547977D01*
X135138706Y-102565905D01*
X135138703Y-102565910D01*
X135131854Y-102586988D01*
X135124413Y-102604952D01*
X135114354Y-102624695D01*
X135110887Y-102646582D01*
X135106347Y-102665491D01*
X135099500Y-102686567D01*
X135099500Y-103325553D01*
X135079815Y-103392592D01*
X135073876Y-103401039D01*
X135019139Y-103472374D01*
X135019138Y-103472376D01*
X134963671Y-103606287D01*
X134963670Y-103606291D01*
X134944750Y-103749999D01*
X134944750Y-103750000D01*
X134952559Y-103809314D01*
X134941794Y-103878350D01*
X134895414Y-103930606D01*
X134829620Y-103949500D01*
X133123691Y-103949500D01*
X133056652Y-103929815D01*
X133010897Y-103877011D01*
X133000953Y-103807853D01*
X133025315Y-103750014D01*
X133038986Y-103732197D01*
X133080861Y-103677625D01*
X133136330Y-103543709D01*
X133155250Y-103400000D01*
X133136330Y-103256291D01*
X133080861Y-103122375D01*
X133006514Y-103025484D01*
X132981321Y-102960318D01*
X132995359Y-102891873D01*
X133006510Y-102874519D01*
X133080861Y-102777625D01*
X133136330Y-102643709D01*
X133155250Y-102500000D01*
X133136330Y-102356291D01*
X133080861Y-102222375D01*
X132992621Y-102107379D01*
X132877625Y-102019139D01*
X132872924Y-102017192D01*
X132871561Y-102016627D01*
X132852429Y-102008702D01*
X132798027Y-101964863D01*
X132775961Y-101898569D01*
X132793240Y-101830870D01*
X132844376Y-101783259D01*
X132852414Y-101779587D01*
X132897625Y-101760861D01*
X133012621Y-101672621D01*
X133100861Y-101557625D01*
X133156330Y-101423709D01*
X133175250Y-101280000D01*
X133156330Y-101136291D01*
X133102483Y-101006291D01*
X133100862Y-101002377D01*
X133100861Y-101002376D01*
X133100861Y-101002375D01*
X133012621Y-100887379D01*
X132897625Y-100799139D01*
X132897624Y-100799138D01*
X132897622Y-100799137D01*
X132878950Y-100791403D01*
X132824548Y-100747561D01*
X132802484Y-100681267D01*
X132819764Y-100613568D01*
X132870902Y-100565958D01*
X132910217Y-100553904D01*
X133043709Y-100536330D01*
X133177625Y-100480861D01*
X133292621Y-100392621D01*
X133380861Y-100277625D01*
X133436330Y-100143709D01*
X133455250Y-100000000D01*
X133436330Y-99856291D01*
X133420219Y-99817396D01*
X133412751Y-99747930D01*
X133444026Y-99685450D01*
X133504115Y-99649798D01*
X133573940Y-99652292D01*
X133610268Y-99671571D01*
X133622375Y-99680861D01*
X133756291Y-99736330D01*
X133883280Y-99753048D01*
X133899999Y-99755250D01*
X133900000Y-99755250D01*
X133900001Y-99755250D01*
X133914977Y-99753278D01*
X134043709Y-99736330D01*
X134177625Y-99680861D01*
X134292621Y-99592621D01*
X134380861Y-99477625D01*
X134436330Y-99343709D01*
X134455250Y-99200000D01*
X135744750Y-99200000D01*
X135748775Y-99230576D01*
X135763670Y-99343708D01*
X135763671Y-99343712D01*
X135819137Y-99477622D01*
X135819138Y-99477624D01*
X135819139Y-99477625D01*
X135907379Y-99592621D01*
X136022375Y-99680861D01*
X136022376Y-99680861D01*
X136022377Y-99680862D01*
X136033454Y-99685450D01*
X136156291Y-99736330D01*
X136283280Y-99753048D01*
X136299999Y-99755250D01*
X136300000Y-99755250D01*
X136300001Y-99755250D01*
X136314977Y-99753278D01*
X136443709Y-99736330D01*
X136577625Y-99680861D01*
X136692621Y-99592621D01*
X136780861Y-99477625D01*
X136836330Y-99343709D01*
X136855250Y-99200000D01*
X136836330Y-99056291D01*
X136786641Y-98936329D01*
X136780862Y-98922377D01*
X136780861Y-98922376D01*
X136780861Y-98922375D01*
X136692621Y-98807379D01*
X136577625Y-98719139D01*
X136577624Y-98719138D01*
X136577622Y-98719137D01*
X136443712Y-98663671D01*
X136443710Y-98663670D01*
X136443709Y-98663670D01*
X136371854Y-98654210D01*
X136300001Y-98644750D01*
X136299999Y-98644750D01*
X136156291Y-98663670D01*
X136156287Y-98663671D01*
X136022377Y-98719137D01*
X135907379Y-98807379D01*
X135819137Y-98922377D01*
X135763671Y-99056287D01*
X135763670Y-99056291D01*
X135744750Y-99200000D01*
X134455250Y-99200000D01*
X134436330Y-99056291D01*
X134386641Y-98936329D01*
X134380862Y-98922377D01*
X134380861Y-98922376D01*
X134380861Y-98922375D01*
X134292621Y-98807379D01*
X134177625Y-98719139D01*
X134177624Y-98719138D01*
X134177622Y-98719137D01*
X134043712Y-98663671D01*
X134043710Y-98663670D01*
X134043709Y-98663670D01*
X133971854Y-98654210D01*
X133900001Y-98644750D01*
X133899999Y-98644750D01*
X133756291Y-98663670D01*
X133756287Y-98663671D01*
X133622377Y-98719137D01*
X133507379Y-98807379D01*
X133419137Y-98922377D01*
X133363671Y-99056287D01*
X133363670Y-99056291D01*
X133344750Y-99199999D01*
X133344750Y-99200000D01*
X133363669Y-99343706D01*
X133363669Y-99343708D01*
X133363670Y-99343709D01*
X133379780Y-99382603D01*
X133387248Y-99452071D01*
X133355972Y-99514550D01*
X133295883Y-99550202D01*
X133226058Y-99547707D01*
X133189732Y-99528429D01*
X133177625Y-99519139D01*
X133177623Y-99519138D01*
X133043712Y-99463671D01*
X133043710Y-99463670D01*
X133043709Y-99463670D01*
X132971854Y-99454210D01*
X132900001Y-99444750D01*
X132899999Y-99444750D01*
X132756291Y-99463670D01*
X132756287Y-99463671D01*
X132622377Y-99519137D01*
X132581893Y-99550202D01*
X132507379Y-99607379D01*
X132507378Y-99607380D01*
X132507377Y-99607381D01*
X132498375Y-99619113D01*
X132441947Y-99660316D01*
X132372201Y-99664470D01*
X132311281Y-99630257D01*
X132301625Y-99619113D01*
X132294632Y-99610000D01*
X132292621Y-99607379D01*
X132177625Y-99519139D01*
X132177624Y-99519138D01*
X132177622Y-99519137D01*
X132043712Y-99463671D01*
X132043710Y-99463670D01*
X132043709Y-99463670D01*
X131971854Y-99454210D01*
X131900001Y-99444750D01*
X131899999Y-99444750D01*
X131756291Y-99463670D01*
X131756290Y-99463670D01*
X131743577Y-99468936D01*
X131674107Y-99476402D01*
X131611629Y-99445125D01*
X131608447Y-99442054D01*
X130875241Y-98708848D01*
X130841756Y-98647525D01*
X130846740Y-98577833D01*
X130888612Y-98521900D01*
X130915463Y-98506608D01*
X130977625Y-98480861D01*
X131083005Y-98400000D01*
X134444750Y-98400000D01*
X134463670Y-98543708D01*
X134463671Y-98543712D01*
X134519137Y-98677622D01*
X134519138Y-98677624D01*
X134519139Y-98677625D01*
X134607379Y-98792621D01*
X134722375Y-98880861D01*
X134856291Y-98936330D01*
X134983280Y-98953048D01*
X134999999Y-98955250D01*
X135000000Y-98955250D01*
X135000001Y-98955250D01*
X135014977Y-98953278D01*
X135143709Y-98936330D01*
X135277625Y-98880861D01*
X135392621Y-98792621D01*
X135480861Y-98677625D01*
X135536330Y-98543709D01*
X135555250Y-98400000D01*
X135536330Y-98256291D01*
X135493066Y-98151840D01*
X135480862Y-98122377D01*
X135480861Y-98122376D01*
X135480861Y-98122375D01*
X135392621Y-98007379D01*
X135277625Y-97919139D01*
X135277624Y-97919138D01*
X135277622Y-97919137D01*
X135143712Y-97863671D01*
X135143710Y-97863670D01*
X135143709Y-97863670D01*
X135071854Y-97854210D01*
X135000001Y-97844750D01*
X134999999Y-97844750D01*
X134856291Y-97863670D01*
X134856287Y-97863671D01*
X134722377Y-97919137D01*
X134607379Y-98007379D01*
X134519137Y-98122377D01*
X134463671Y-98256287D01*
X134463670Y-98256291D01*
X134444750Y-98399999D01*
X134444750Y-98400000D01*
X131083005Y-98400000D01*
X131092621Y-98392621D01*
X131180861Y-98277625D01*
X131236330Y-98143709D01*
X131255250Y-98000000D01*
X131236330Y-97856291D01*
X131180861Y-97722375D01*
X131144881Y-97675485D01*
X131119687Y-97610318D01*
X131133725Y-97541873D01*
X131144880Y-97524516D01*
X131180861Y-97477625D01*
X131236330Y-97343709D01*
X131255250Y-97200000D01*
X131253998Y-97190494D01*
X131246805Y-97135857D01*
X131236330Y-97056291D01*
X131193018Y-96951726D01*
X131180862Y-96922377D01*
X131180861Y-96922376D01*
X131180861Y-96922375D01*
X131092621Y-96807379D01*
X130977625Y-96719139D01*
X130977624Y-96719138D01*
X130977622Y-96719137D01*
X130843707Y-96663669D01*
X130842479Y-96663340D01*
X130841560Y-96662779D01*
X130836201Y-96660560D01*
X130836547Y-96659723D01*
X130782822Y-96626969D01*
X130752299Y-96564119D01*
X130751645Y-96527382D01*
X130755250Y-96500000D01*
X130755250Y-96499999D01*
X130748590Y-96449413D01*
X130736330Y-96356291D01*
X130680861Y-96222375D01*
X130592621Y-96107379D01*
X130477625Y-96019139D01*
X130477624Y-96019138D01*
X130477622Y-96019137D01*
X130393716Y-95984383D01*
X130339312Y-95940543D01*
X130317247Y-95874249D01*
X130334526Y-95806549D01*
X130341560Y-95800000D01*
X138144750Y-95800000D01*
X138163670Y-95943708D01*
X138163671Y-95943712D01*
X138219137Y-96077622D01*
X138219138Y-96077624D01*
X138219139Y-96077625D01*
X138307379Y-96192621D01*
X138422375Y-96280861D01*
X138556291Y-96336330D01*
X138683280Y-96353048D01*
X138699999Y-96355250D01*
X138700000Y-96355250D01*
X138700001Y-96355250D01*
X138714977Y-96353278D01*
X138843709Y-96336330D01*
X138977625Y-96280861D01*
X139092621Y-96192621D01*
X139180861Y-96077625D01*
X139236330Y-95943709D01*
X139255250Y-95800000D01*
X139236330Y-95656291D01*
X139180861Y-95522375D01*
X139092621Y-95407379D01*
X138977625Y-95319139D01*
X138977624Y-95319138D01*
X138977622Y-95319137D01*
X138843712Y-95263671D01*
X138843710Y-95263670D01*
X138843709Y-95263670D01*
X138739877Y-95250000D01*
X138700001Y-95244750D01*
X138699999Y-95244750D01*
X138556291Y-95263670D01*
X138556287Y-95263671D01*
X138422377Y-95319137D01*
X138307379Y-95407379D01*
X138219137Y-95522377D01*
X138163671Y-95656287D01*
X138163670Y-95656291D01*
X138144750Y-95799999D01*
X138144750Y-95800000D01*
X130341560Y-95800000D01*
X130385663Y-95758938D01*
X130393690Y-95755272D01*
X130452625Y-95730861D01*
X130567621Y-95642621D01*
X130655861Y-95527625D01*
X130711330Y-95393709D01*
X130730250Y-95250000D01*
X130711330Y-95106291D01*
X130655861Y-94972375D01*
X130567621Y-94857379D01*
X130452625Y-94769139D01*
X130452624Y-94769138D01*
X130452622Y-94769137D01*
X130318712Y-94713671D01*
X130318710Y-94713670D01*
X130318709Y-94713670D01*
X130246854Y-94704210D01*
X130175001Y-94694750D01*
X130174998Y-94694750D01*
X130097120Y-94705003D01*
X130028085Y-94694238D01*
X129975829Y-94647858D01*
X129956944Y-94580589D01*
X129957994Y-94565895D01*
X129968250Y-94488000D01*
X129949330Y-94344291D01*
X129893861Y-94210375D01*
X129805621Y-94095379D01*
X129690625Y-94007139D01*
X129690624Y-94007138D01*
X129690622Y-94007137D01*
X129556712Y-93951671D01*
X129556710Y-93951670D01*
X129556709Y-93951670D01*
X129441575Y-93936512D01*
X129413001Y-93932750D01*
X129412999Y-93932750D01*
X129269291Y-93951670D01*
X129269287Y-93951671D01*
X129135377Y-94007137D01*
X129020379Y-94095379D01*
X128932137Y-94210377D01*
X128876671Y-94344287D01*
X128876670Y-94344291D01*
X128860929Y-94463857D01*
X128857750Y-94488000D01*
X128867972Y-94565646D01*
X128876670Y-94631708D01*
X128876671Y-94631712D01*
X128932137Y-94765622D01*
X128932138Y-94765624D01*
X128932139Y-94765625D01*
X129020379Y-94880621D01*
X129135375Y-94968861D01*
X129135376Y-94968861D01*
X129135377Y-94968862D01*
X129180013Y-94987350D01*
X129269291Y-95024330D01*
X129413000Y-95043250D01*
X129490880Y-95032996D01*
X129559912Y-95043761D01*
X129612169Y-95090140D01*
X129631055Y-95157409D01*
X129630003Y-95172120D01*
X129619750Y-95250000D01*
X129628852Y-95319139D01*
X129638670Y-95393708D01*
X129638671Y-95393712D01*
X129694137Y-95527622D01*
X129694138Y-95527624D01*
X129694139Y-95527625D01*
X129782379Y-95642621D01*
X129897375Y-95730861D01*
X129981286Y-95765617D01*
X130035686Y-95809456D01*
X130057752Y-95875750D01*
X130040473Y-95943449D01*
X129989337Y-95991060D01*
X129981284Y-95994738D01*
X129922376Y-96019138D01*
X129807379Y-96107379D01*
X129719137Y-96222377D01*
X129663671Y-96356287D01*
X129663670Y-96356291D01*
X129645646Y-96493198D01*
X129644750Y-96500000D01*
X129660902Y-96622688D01*
X129663670Y-96643708D01*
X129663671Y-96643712D01*
X129719137Y-96777622D01*
X129719138Y-96777624D01*
X129719139Y-96777625D01*
X129807379Y-96892621D01*
X129922375Y-96980861D01*
X129922376Y-96980861D01*
X129922377Y-96980862D01*
X130056286Y-97036328D01*
X130056291Y-97036330D01*
X130056295Y-97036330D01*
X130057499Y-97036653D01*
X130058408Y-97037207D01*
X130063799Y-97039440D01*
X130063450Y-97040280D01*
X130117162Y-97073013D01*
X130147697Y-97135857D01*
X130148355Y-97172612D01*
X130145353Y-97195418D01*
X130144750Y-97200000D01*
X130163623Y-97343355D01*
X130163670Y-97343708D01*
X130163671Y-97343712D01*
X130219138Y-97477623D01*
X130219139Y-97477625D01*
X130255118Y-97524514D01*
X130280312Y-97589683D01*
X130266274Y-97658128D01*
X130255118Y-97675486D01*
X130219140Y-97722373D01*
X130193393Y-97784531D01*
X130149551Y-97838934D01*
X130083257Y-97860998D01*
X130015558Y-97843718D01*
X129991151Y-97824758D01*
X129157813Y-96991419D01*
X129157782Y-96991390D01*
X129138342Y-96971950D01*
X129138340Y-96971949D01*
X129118600Y-96961890D01*
X129102014Y-96951726D01*
X129084090Y-96938704D01*
X129084091Y-96938704D01*
X129063018Y-96931857D01*
X129045045Y-96924412D01*
X129025307Y-96914355D01*
X129025304Y-96914354D01*
X129003418Y-96910887D01*
X128984507Y-96906346D01*
X128963439Y-96899501D01*
X128963434Y-96899500D01*
X128963433Y-96899500D01*
X128931519Y-96899500D01*
X127663433Y-96899500D01*
X127536567Y-96899500D01*
X127536564Y-96899500D01*
X127536562Y-96899501D01*
X127515490Y-96906347D01*
X127496582Y-96910886D01*
X127474698Y-96914353D01*
X127474694Y-96914354D01*
X127454951Y-96924413D01*
X127436987Y-96931854D01*
X127415911Y-96938703D01*
X127397985Y-96951727D01*
X127381400Y-96961890D01*
X127361659Y-96971948D01*
X127350376Y-96983231D01*
X127339094Y-96994513D01*
X127339093Y-96994513D01*
X127339091Y-96994516D01*
X126816930Y-97516675D01*
X126755607Y-97550160D01*
X126745436Y-97551933D01*
X126656289Y-97563670D01*
X126522377Y-97619137D01*
X126407379Y-97707379D01*
X126319137Y-97822377D01*
X126263671Y-97956287D01*
X126263670Y-97956291D01*
X126244750Y-98099999D01*
X126244750Y-98100000D01*
X126263670Y-98243708D01*
X126263671Y-98243712D01*
X126319137Y-98377622D01*
X126319138Y-98377624D01*
X126319139Y-98377625D01*
X126407379Y-98492621D01*
X126522375Y-98580861D01*
X126522376Y-98580861D01*
X126522377Y-98580862D01*
X126567013Y-98599350D01*
X126656291Y-98636330D01*
X126783280Y-98653048D01*
X126799999Y-98655250D01*
X126800000Y-98655250D01*
X126800001Y-98655250D01*
X126814977Y-98653278D01*
X126943709Y-98636330D01*
X127077625Y-98580861D01*
X127192621Y-98492621D01*
X127280861Y-98377625D01*
X127336330Y-98243709D01*
X127348066Y-98154562D01*
X127376331Y-98090668D01*
X127383310Y-98083081D01*
X127729574Y-97736819D01*
X127790897Y-97703334D01*
X127817255Y-97700500D01*
X127990611Y-97700500D01*
X128057650Y-97720185D01*
X128103405Y-97772989D01*
X128113349Y-97842147D01*
X128105172Y-97871952D01*
X128053671Y-97996287D01*
X128053670Y-97996291D01*
X128034750Y-98140000D01*
X128051300Y-98265711D01*
X128053670Y-98283708D01*
X128053671Y-98283712D01*
X128109137Y-98417622D01*
X128109138Y-98417623D01*
X128109139Y-98417625D01*
X128197379Y-98532621D01*
X128312375Y-98620861D01*
X128312376Y-98620861D01*
X128312377Y-98620862D01*
X128336510Y-98630858D01*
X128446291Y-98676330D01*
X128573280Y-98693048D01*
X128589999Y-98695250D01*
X128590000Y-98695250D01*
X128590001Y-98695250D01*
X128604977Y-98693278D01*
X128733709Y-98676330D01*
X128867625Y-98620861D01*
X128982621Y-98532621D01*
X129070861Y-98417625D01*
X129111251Y-98320111D01*
X129155090Y-98265711D01*
X129221383Y-98243645D01*
X129289083Y-98260923D01*
X129313492Y-98279885D01*
X130577420Y-99543813D01*
X130610905Y-99605136D01*
X130605921Y-99674828D01*
X130564049Y-99730761D01*
X130498585Y-99755178D01*
X130473554Y-99754433D01*
X130400002Y-99744750D01*
X130399999Y-99744750D01*
X130256291Y-99763670D01*
X130256287Y-99763671D01*
X130122377Y-99819137D01*
X130007379Y-99907379D01*
X129919139Y-100022375D01*
X129888417Y-100096544D01*
X129844575Y-100150947D01*
X129807212Y-100163381D01*
X129837027Y-100195404D01*
X129849433Y-100264163D01*
X129849082Y-100267095D01*
X129844750Y-100300000D01*
X129852160Y-100356287D01*
X129863670Y-100443708D01*
X129863671Y-100443712D01*
X129919138Y-100577623D01*
X129919139Y-100577626D01*
X129936318Y-100600013D01*
X129961513Y-100665182D01*
X129947475Y-100733627D01*
X129898662Y-100783617D01*
X129837943Y-100799500D01*
X129136611Y-100799500D01*
X129101336Y-100789142D01*
X129082495Y-100798019D01*
X129063389Y-100799500D01*
X128136611Y-100799500D01*
X128101336Y-100789142D01*
X128082495Y-100798019D01*
X128063389Y-100799500D01*
X127287254Y-100799500D01*
X127220215Y-100779815D01*
X127199573Y-100763181D01*
X126436392Y-100000000D01*
X127544750Y-100000000D01*
X127562062Y-100131499D01*
X127563670Y-100143708D01*
X127563671Y-100143712D01*
X127619137Y-100277622D01*
X127619138Y-100277624D01*
X127619139Y-100277625D01*
X127707379Y-100392621D01*
X127822375Y-100480861D01*
X127822376Y-100480861D01*
X127822377Y-100480862D01*
X127867013Y-100499350D01*
X127956291Y-100536330D01*
X128073460Y-100551755D01*
X128079575Y-100552561D01*
X128096316Y-100559967D01*
X128101676Y-100556523D01*
X128120425Y-100552561D01*
X128125859Y-100551845D01*
X128243709Y-100536330D01*
X128377625Y-100480861D01*
X128492621Y-100392621D01*
X128501625Y-100380886D01*
X128558050Y-100339685D01*
X128627796Y-100335529D01*
X128688717Y-100369740D01*
X128698367Y-100380876D01*
X128707379Y-100392621D01*
X128822375Y-100480861D01*
X128822376Y-100480861D01*
X128822377Y-100480862D01*
X128867013Y-100499350D01*
X128956291Y-100536330D01*
X129073460Y-100551755D01*
X129079575Y-100552561D01*
X129096316Y-100559967D01*
X129101676Y-100556523D01*
X129120425Y-100552561D01*
X129125859Y-100551845D01*
X129243709Y-100536330D01*
X129377625Y-100480861D01*
X129492621Y-100392621D01*
X129580861Y-100277625D01*
X129611582Y-100203457D01*
X129655422Y-100149053D01*
X129692786Y-100136616D01*
X129662972Y-100104594D01*
X129650567Y-100035834D01*
X129650903Y-100033016D01*
X129655250Y-100000000D01*
X129636330Y-99856291D01*
X129586641Y-99736329D01*
X129580862Y-99722377D01*
X129580861Y-99722376D01*
X129580861Y-99722375D01*
X129492621Y-99607379D01*
X129377625Y-99519139D01*
X129377624Y-99519138D01*
X129377622Y-99519137D01*
X129243712Y-99463671D01*
X129243710Y-99463670D01*
X129243709Y-99463670D01*
X129171854Y-99454210D01*
X129100001Y-99444750D01*
X129099999Y-99444750D01*
X128956291Y-99463670D01*
X128956287Y-99463671D01*
X128822377Y-99519137D01*
X128781893Y-99550202D01*
X128707379Y-99607379D01*
X128707378Y-99607380D01*
X128707377Y-99607381D01*
X128698375Y-99619113D01*
X128641947Y-99660316D01*
X128572201Y-99664470D01*
X128511281Y-99630257D01*
X128501625Y-99619113D01*
X128494632Y-99610000D01*
X128492621Y-99607379D01*
X128377625Y-99519139D01*
X128377624Y-99519138D01*
X128377622Y-99519137D01*
X128243712Y-99463671D01*
X128243710Y-99463670D01*
X128243709Y-99463670D01*
X128171854Y-99454210D01*
X128100001Y-99444750D01*
X128099999Y-99444750D01*
X127956291Y-99463670D01*
X127956287Y-99463671D01*
X127822377Y-99519137D01*
X127707379Y-99607379D01*
X127619137Y-99722377D01*
X127563671Y-99856287D01*
X127563670Y-99856291D01*
X127550505Y-99956291D01*
X127544750Y-100000000D01*
X126436392Y-100000000D01*
X120307813Y-93871419D01*
X120307782Y-93871390D01*
X120288342Y-93851950D01*
X120288340Y-93851949D01*
X120268600Y-93841890D01*
X120252014Y-93831726D01*
X120234090Y-93818704D01*
X120234091Y-93818704D01*
X120213018Y-93811857D01*
X120195045Y-93804412D01*
X120175307Y-93794355D01*
X120175304Y-93794354D01*
X120153418Y-93790887D01*
X120134507Y-93786346D01*
X120113439Y-93779501D01*
X120113434Y-93779500D01*
X120113433Y-93779500D01*
X120113429Y-93779500D01*
X116887255Y-93779500D01*
X116820216Y-93759815D01*
X116799574Y-93743181D01*
X116274393Y-93218000D01*
X121745750Y-93218000D01*
X121764670Y-93361708D01*
X121764671Y-93361712D01*
X121820137Y-93495622D01*
X121820138Y-93495624D01*
X121820139Y-93495625D01*
X121908379Y-93610621D01*
X122023375Y-93698861D01*
X122023376Y-93698861D01*
X122023377Y-93698862D01*
X122068013Y-93717350D01*
X122157291Y-93754330D01*
X122284280Y-93771048D01*
X122300999Y-93773250D01*
X122301000Y-93773250D01*
X122301001Y-93773250D01*
X122315977Y-93771278D01*
X122444709Y-93754330D01*
X122513105Y-93726000D01*
X125047750Y-93726000D01*
X125063007Y-93841890D01*
X125066670Y-93869708D01*
X125066671Y-93869712D01*
X125122137Y-94003622D01*
X125122138Y-94003624D01*
X125122139Y-94003625D01*
X125210379Y-94118621D01*
X125325375Y-94206861D01*
X125325376Y-94206861D01*
X125325377Y-94206862D01*
X125370013Y-94225350D01*
X125459291Y-94262330D01*
X125586280Y-94279048D01*
X125602999Y-94281250D01*
X125603000Y-94281250D01*
X125603001Y-94281250D01*
X125617977Y-94279278D01*
X125746709Y-94262330D01*
X125880625Y-94206861D01*
X125995621Y-94118621D01*
X126083861Y-94003625D01*
X126139330Y-93869709D01*
X126158250Y-93726000D01*
X126154827Y-93700000D01*
X134094750Y-93700000D01*
X134110446Y-93819224D01*
X134113670Y-93843708D01*
X134113671Y-93843712D01*
X134169137Y-93977622D01*
X134169138Y-93977624D01*
X134169139Y-93977625D01*
X134257379Y-94092621D01*
X134372375Y-94180861D01*
X134506291Y-94236330D01*
X134633280Y-94253048D01*
X134649999Y-94255250D01*
X134650000Y-94255250D01*
X134650001Y-94255250D01*
X134664977Y-94253278D01*
X134793709Y-94236330D01*
X134927625Y-94180861D01*
X135042621Y-94092621D01*
X135130861Y-93977625D01*
X135186330Y-93843709D01*
X135205250Y-93700000D01*
X135186330Y-93556291D01*
X135163014Y-93500000D01*
X142294750Y-93500000D01*
X142311610Y-93628065D01*
X142313670Y-93643708D01*
X142313671Y-93643712D01*
X142369137Y-93777622D01*
X142369138Y-93777624D01*
X142369139Y-93777625D01*
X142457379Y-93892621D01*
X142572375Y-93980861D01*
X142706291Y-94036330D01*
X142833280Y-94053048D01*
X142849999Y-94055250D01*
X142850000Y-94055250D01*
X142850001Y-94055250D01*
X142864977Y-94053278D01*
X142993709Y-94036330D01*
X143127625Y-93980861D01*
X143242621Y-93892621D01*
X143330861Y-93777625D01*
X143386330Y-93643709D01*
X143405250Y-93500000D01*
X143386330Y-93356291D01*
X143330861Y-93222375D01*
X143242621Y-93107379D01*
X143127625Y-93019139D01*
X143127624Y-93019138D01*
X143127622Y-93019137D01*
X142993712Y-92963671D01*
X142993710Y-92963670D01*
X142993709Y-92963670D01*
X142921854Y-92954210D01*
X142850001Y-92944750D01*
X142849999Y-92944750D01*
X142706291Y-92963670D01*
X142706287Y-92963671D01*
X142572377Y-93019137D01*
X142457379Y-93107379D01*
X142369137Y-93222377D01*
X142313671Y-93356287D01*
X142313670Y-93356291D01*
X142298355Y-93472621D01*
X142294750Y-93500000D01*
X135163014Y-93500000D01*
X135130861Y-93422375D01*
X135042621Y-93307379D01*
X134927625Y-93219139D01*
X134927624Y-93219138D01*
X134927622Y-93219137D01*
X134793712Y-93163671D01*
X134793710Y-93163670D01*
X134793709Y-93163670D01*
X134721854Y-93154210D01*
X134650001Y-93144750D01*
X134649999Y-93144750D01*
X134506291Y-93163670D01*
X134506287Y-93163671D01*
X134372377Y-93219137D01*
X134257379Y-93307379D01*
X134169137Y-93422377D01*
X134113671Y-93556287D01*
X134113670Y-93556291D01*
X134094750Y-93700000D01*
X126154827Y-93700000D01*
X126139330Y-93582291D01*
X126093904Y-93472621D01*
X126083862Y-93448377D01*
X126083861Y-93448376D01*
X126083861Y-93448375D01*
X125995621Y-93333379D01*
X125880625Y-93245139D01*
X125880624Y-93245138D01*
X125880622Y-93245137D01*
X125746712Y-93189671D01*
X125746710Y-93189670D01*
X125746709Y-93189670D01*
X125674854Y-93180210D01*
X125603001Y-93170750D01*
X125602999Y-93170750D01*
X125459291Y-93189670D01*
X125459287Y-93189671D01*
X125325377Y-93245137D01*
X125210379Y-93333379D01*
X125122137Y-93448377D01*
X125066671Y-93582287D01*
X125066670Y-93582291D01*
X125047750Y-93726000D01*
X122513105Y-93726000D01*
X122578625Y-93698861D01*
X122693621Y-93610621D01*
X122781861Y-93495625D01*
X122837330Y-93361709D01*
X122856250Y-93218000D01*
X122837330Y-93074291D01*
X122781861Y-92940375D01*
X122693621Y-92825379D01*
X122578625Y-92737139D01*
X122578624Y-92737138D01*
X122578622Y-92737137D01*
X122444712Y-92681671D01*
X122444710Y-92681670D01*
X122444709Y-92681670D01*
X122372854Y-92672210D01*
X122301001Y-92662750D01*
X122300999Y-92662750D01*
X122157291Y-92681670D01*
X122157287Y-92681671D01*
X122023377Y-92737137D01*
X121908379Y-92825379D01*
X121820137Y-92940377D01*
X121764671Y-93074287D01*
X121764670Y-93074291D01*
X121745750Y-93217999D01*
X121745750Y-93218000D01*
X116274393Y-93218000D01*
X116153323Y-93096930D01*
X116119838Y-93035607D01*
X116118067Y-93025448D01*
X116106330Y-92936291D01*
X116069350Y-92847013D01*
X116050862Y-92802377D01*
X116050861Y-92802376D01*
X116050861Y-92802375D01*
X115962621Y-92687379D01*
X115847625Y-92599139D01*
X115847624Y-92599138D01*
X115847622Y-92599137D01*
X115713712Y-92543671D01*
X115713710Y-92543670D01*
X115713709Y-92543670D01*
X115641854Y-92534210D01*
X115570001Y-92524750D01*
X115569999Y-92524750D01*
X115426291Y-92543670D01*
X115426287Y-92543671D01*
X115292377Y-92599137D01*
X115177379Y-92687379D01*
X115089137Y-92802377D01*
X115033671Y-92936287D01*
X115033670Y-92936291D01*
X115015502Y-93074291D01*
X115014750Y-93080000D01*
X110500499Y-93080000D01*
X110500499Y-92329000D01*
X130381750Y-92329000D01*
X130400670Y-92472708D01*
X130400671Y-92472712D01*
X130456137Y-92606622D01*
X130456138Y-92606624D01*
X130456139Y-92606625D01*
X130544379Y-92721621D01*
X130659375Y-92809861D01*
X130793291Y-92865330D01*
X130920280Y-92882048D01*
X130936999Y-92884250D01*
X130937000Y-92884250D01*
X130937001Y-92884250D01*
X130951977Y-92882278D01*
X131080709Y-92865330D01*
X131214625Y-92809861D01*
X131329621Y-92721621D01*
X131417861Y-92606625D01*
X131473330Y-92472709D01*
X131492250Y-92329000D01*
X131473330Y-92185291D01*
X131417861Y-92051375D01*
X131329621Y-91936379D01*
X131214625Y-91848139D01*
X131214624Y-91848138D01*
X131214622Y-91848137D01*
X131080712Y-91792671D01*
X131080710Y-91792670D01*
X131080709Y-91792670D01*
X131008854Y-91783210D01*
X130937001Y-91773750D01*
X130936999Y-91773750D01*
X130793291Y-91792670D01*
X130793287Y-91792671D01*
X130659377Y-91848137D01*
X130544379Y-91936379D01*
X130456137Y-92051377D01*
X130400671Y-92185287D01*
X130400670Y-92185291D01*
X130381750Y-92328999D01*
X130381750Y-92329000D01*
X110500499Y-92329000D01*
X110500499Y-91200000D01*
X142344750Y-91200000D01*
X142363670Y-91343708D01*
X142363671Y-91343712D01*
X142419137Y-91477622D01*
X142419138Y-91477624D01*
X142419139Y-91477625D01*
X142507379Y-91592621D01*
X142622375Y-91680861D01*
X142756291Y-91736330D01*
X142883280Y-91753048D01*
X142899999Y-91755250D01*
X142900000Y-91755250D01*
X142900001Y-91755250D01*
X142914977Y-91753278D01*
X143043709Y-91736330D01*
X143177625Y-91680861D01*
X143292621Y-91592621D01*
X143380861Y-91477625D01*
X143436330Y-91343709D01*
X143455250Y-91200000D01*
X143436330Y-91056291D01*
X143380861Y-90922375D01*
X143292621Y-90807379D01*
X143177625Y-90719139D01*
X143177624Y-90719138D01*
X143177622Y-90719137D01*
X143043712Y-90663671D01*
X143043710Y-90663670D01*
X143043709Y-90663670D01*
X142971854Y-90654210D01*
X142900001Y-90644750D01*
X142899999Y-90644750D01*
X142756291Y-90663670D01*
X142756287Y-90663671D01*
X142622377Y-90719137D01*
X142507379Y-90807379D01*
X142419137Y-90922377D01*
X142363671Y-91056287D01*
X142363670Y-91056291D01*
X142344750Y-91199999D01*
X142344750Y-91200000D01*
X110500499Y-91200000D01*
X110500499Y-89250000D01*
X141844750Y-89250000D01*
X141863670Y-89393708D01*
X141863671Y-89393712D01*
X141919137Y-89527622D01*
X141919138Y-89527624D01*
X141919139Y-89527625D01*
X142007379Y-89642621D01*
X142122375Y-89730861D01*
X142256291Y-89786330D01*
X142383280Y-89803048D01*
X142399999Y-89805250D01*
X142400000Y-89805250D01*
X142400001Y-89805250D01*
X142414977Y-89803278D01*
X142543709Y-89786330D01*
X142677625Y-89730861D01*
X142792621Y-89642621D01*
X142880861Y-89527625D01*
X142936330Y-89393709D01*
X142955250Y-89250000D01*
X142936330Y-89106291D01*
X142880861Y-88972375D01*
X142792621Y-88857379D01*
X142677625Y-88769139D01*
X142677624Y-88769138D01*
X142677622Y-88769137D01*
X142543712Y-88713671D01*
X142543710Y-88713670D01*
X142543709Y-88713670D01*
X142471854Y-88704210D01*
X142400001Y-88694750D01*
X142399999Y-88694750D01*
X142256291Y-88713670D01*
X142256287Y-88713671D01*
X142122377Y-88769137D01*
X142007379Y-88857379D01*
X141919137Y-88972377D01*
X141863671Y-89106287D01*
X141863670Y-89106291D01*
X141844750Y-89249999D01*
X141844750Y-89250000D01*
X110500499Y-89250000D01*
X110500499Y-85320426D01*
X110520184Y-85253387D01*
X110572988Y-85207632D01*
X110642146Y-85197688D01*
X110705702Y-85226713D01*
X110740262Y-85275988D01*
X110797745Y-85425736D01*
X110964320Y-85752656D01*
X111164147Y-86060364D01*
X111277821Y-86200739D01*
X111395051Y-86345506D01*
X111654494Y-86604949D01*
X111654498Y-86604952D01*
X111939635Y-86835852D01*
X112202901Y-87006818D01*
X112247348Y-87035682D01*
X112574264Y-87202255D01*
X112916801Y-87333742D01*
X113271206Y-87428705D01*
X113633596Y-87486102D01*
X113979734Y-87504241D01*
X113999999Y-87505304D01*
X114000000Y-87505304D01*
X114000001Y-87505304D01*
X114019203Y-87504297D01*
X114366404Y-87486102D01*
X114728794Y-87428705D01*
X115083199Y-87333742D01*
X115425736Y-87202255D01*
X115752652Y-87035682D01*
X116038578Y-86850000D01*
X131444722Y-86850000D01*
X131463762Y-87006818D01*
X131509578Y-87127622D01*
X131519780Y-87154523D01*
X131609517Y-87284530D01*
X131727760Y-87389283D01*
X131727762Y-87389284D01*
X131867634Y-87462696D01*
X132021014Y-87500500D01*
X132021015Y-87500500D01*
X132178985Y-87500500D01*
X132332365Y-87462696D01*
X132366333Y-87444868D01*
X132472240Y-87389283D01*
X132590483Y-87284530D01*
X132680220Y-87154523D01*
X132736237Y-87006818D01*
X132755278Y-86850000D01*
X138294750Y-86850000D01*
X138313670Y-86993708D01*
X138313671Y-86993712D01*
X138369137Y-87127622D01*
X138369138Y-87127624D01*
X138369139Y-87127625D01*
X138457379Y-87242621D01*
X138572375Y-87330861D01*
X138572376Y-87330861D01*
X138572377Y-87330862D01*
X138617013Y-87349350D01*
X138706291Y-87386330D01*
X138833280Y-87403048D01*
X138849999Y-87405250D01*
X138850000Y-87405250D01*
X138850001Y-87405250D01*
X138864977Y-87403278D01*
X138993709Y-87386330D01*
X139127625Y-87330861D01*
X139242621Y-87242621D01*
X139330861Y-87127625D01*
X139386330Y-86993709D01*
X139405250Y-86850000D01*
X139386330Y-86706291D01*
X139344352Y-86604945D01*
X139330862Y-86572377D01*
X139330861Y-86572376D01*
X139330861Y-86572375D01*
X139242621Y-86457379D01*
X139127625Y-86369139D01*
X139127624Y-86369138D01*
X139127622Y-86369137D01*
X138993712Y-86313671D01*
X138993710Y-86313670D01*
X138993709Y-86313670D01*
X138921854Y-86304210D01*
X138850001Y-86294750D01*
X138849999Y-86294750D01*
X138706291Y-86313670D01*
X138706287Y-86313671D01*
X138572377Y-86369137D01*
X138457379Y-86457379D01*
X138369137Y-86572377D01*
X138313671Y-86706287D01*
X138313670Y-86706291D01*
X138294750Y-86849999D01*
X138294750Y-86850000D01*
X132755278Y-86850000D01*
X132736237Y-86693182D01*
X132680220Y-86545477D01*
X132590483Y-86415470D01*
X132472240Y-86310717D01*
X132472238Y-86310716D01*
X132472237Y-86310715D01*
X132332365Y-86237303D01*
X132178986Y-86199500D01*
X132178985Y-86199500D01*
X132021015Y-86199500D01*
X132021014Y-86199500D01*
X131867634Y-86237303D01*
X131727762Y-86310715D01*
X131609516Y-86415471D01*
X131519781Y-86545475D01*
X131519780Y-86545476D01*
X131463762Y-86693181D01*
X131444722Y-86849999D01*
X131444722Y-86850000D01*
X116038578Y-86850000D01*
X116060366Y-86835851D01*
X116345506Y-86604949D01*
X116604949Y-86345506D01*
X116835851Y-86060366D01*
X117035682Y-85752652D01*
X117202255Y-85425736D01*
X117333742Y-85083199D01*
X117428705Y-84728794D01*
X117486102Y-84366404D01*
X117505304Y-84000000D01*
X117486102Y-83633596D01*
X117428705Y-83271206D01*
X117333742Y-82916801D01*
X117202255Y-82574264D01*
X117035682Y-82247348D01*
X117033995Y-82244750D01*
X116835852Y-81939635D01*
X116677390Y-81743951D01*
X116604949Y-81654494D01*
X116345506Y-81395051D01*
X116223958Y-81296623D01*
X116060364Y-81164147D01*
X115752656Y-80964320D01*
X115425739Y-80797746D01*
X115349459Y-80768465D01*
X115275988Y-80740262D01*
X115220457Y-80697861D01*
X115196664Y-80632167D01*
X115212165Y-80564039D01*
X115262039Y-80515106D01*
X115320427Y-80500499D01*
X118531764Y-80500499D01*
X118598803Y-80520184D01*
G37*
%TD.AperFunction*%
M02*
