M48
; DRILL file {KiCad 7.0.10} date Thu Jun 27 09:56:20 2024
; FORMAT={-:-/ absolute / metric / decimal}
; #@! TF.CreationDate,2024-06-27T09:56:20+02:00
; #@! TF.GenerationSoftware,Kicad,Pcbnew,7.0.10
; #@! TF.FileFunction,Plated,1,4,PTH
FMAT,2
METRIC
; #@! TA.AperFunction,Plated,PTH,ViaDrill
T1C0.300
; #@! TA.AperFunction,Plated,PTH,ViaDrill
T2C0.500
; #@! TA.AperFunction,Plated,PTH,ComponentDrill
T3C0.600
; #@! TA.AperFunction,Plated,PTH,ComponentDrill
T4C0.800
; #@! TA.AperFunction,Plated,PTH,ComponentDrill
T5C1.000
; #@! TA.AperFunction,Plated,PTH,ComponentDrill
T6C1.295
; #@! TA.AperFunction,Plated,PTH,ComponentDrill
T7C3.200
%
G90
G05
T1
X115.57Y-93.08
X115.58Y-110.78
X118.618Y-100.1
X118.618Y-104.9
X119.1Y-97.8
X120.4Y-96.95
X120.4Y-104.1
X120.65Y-110.0
X120.7Y-122.2
X121.65Y-105.35
X121.8Y-113.0
X122.301Y-93.218
X123.0Y-113.0
X123.2Y-122.2
X123.3Y-100.45
X123.6Y-94.55
X124.1Y-113.0
X124.85Y-111.95
X125.05Y-96.0
X125.603Y-93.726
X125.65Y-112.95
X125.7Y-122.2
X126.7Y-112.95
X126.75Y-111.05
X126.8Y-98.1
X127.1Y-105.8
X128.0Y-104.9
X128.048Y-103.848
X128.1Y-90.95
X128.1Y-100.0
X128.2Y-102.7
X128.2Y-122.2
X128.59Y-98.14
X129.1Y-100.0
X129.413Y-94.488
X130.15Y-102.2
X130.15Y-103.45
X130.175Y-95.25
X130.2Y-96.5
X130.4Y-100.3
X130.5Y-104.85
X130.5Y-106.95
X130.5Y-108.25
X130.7Y-97.2
X130.7Y-98.0
X130.937Y-92.329
X130.95Y-102.2
X130.95Y-103.45
X130.95Y-112.95
X131.9Y-100.0
X132.15Y-104.85
X132.2Y-85.2
X132.5Y-93.6
X132.6Y-102.5
X132.6Y-103.4
X132.62Y-101.28
X132.9Y-100.0
X133.3Y-108.5
X133.55Y-112.0
X133.9Y-99.2
X133.9Y-107.7
X134.65Y-93.7
X134.8Y-95.0
X134.8Y-100.5
X135.0Y-98.4
X135.375Y-119.375
X135.45Y-101.15
X135.5Y-103.75
X135.5Y-105.0
X135.5Y-105.9
X135.51Y-106.79
X136.3Y-99.2
X138.65Y-96.8
X138.7Y-95.8
X138.85Y-86.85
X138.89Y-111.98
X140.6Y-107.7
X141.5Y-107.7
X141.8Y-95.4
X142.4Y-89.25
X142.5Y-107.7
X142.5Y-118.5
X142.85Y-93.5
X142.85Y-100.3
X142.9Y-91.2
X143.4Y-81.8
X143.4Y-110.55
X143.5Y-107.7
X143.75Y-120.425
X143.8Y-122.0
X143.9Y-102.2
X144.05Y-99.5
X144.1Y-118.5
X144.4Y-107.7
X144.8Y-92.2
X144.8Y-95.25
X145.3Y-110.0
X145.4Y-103.4
X145.79Y-118.51
X146.5Y-111.4
X147.4Y-118.5
X147.8Y-121.15
X147.8Y-122.0
X148.1Y-81.2
X148.95Y-118.5
X149.5Y-82.8
X150.3Y-117.9
X151.55Y-117.1
X152.4Y-109.6
X152.5Y-95.7
X153.4Y-108.2
X153.4Y-111.2
X153.75Y-84.6
X155.1Y-84.6
X156.3Y-117.7
X156.3Y-119.5
X157.45Y-105.2
X157.5Y-89.4
X157.6Y-93.2
X157.6Y-96.2
X157.6Y-99.2
X157.6Y-102.25
X157.6Y-108.2
X157.6Y-111.2
X157.6Y-113.8
X161.65Y-108.5
X161.75Y-92.55
X162.05Y-110.55
X163.3Y-101.7
X163.3Y-104.2
X167.4Y-93.2
X170.25Y-98.15
X171.1Y-109.0
X171.1Y-111.2
X171.1Y-113.8
X171.1Y-116.3
X171.4Y-104.9
X171.65Y-98.15
X175.5Y-102.0
T2
X132.1Y-86.85
T4
X168.25Y-86.6
X175.05Y-86.6
T5
X119.28Y-81.9
X119.325Y-122.925
X121.82Y-81.9
X121.865Y-122.925
X124.36Y-81.9
X124.405Y-122.925
X126.9Y-81.9
X126.945Y-122.925
X129.44Y-81.9
X129.485Y-122.925
X131.98Y-81.9
X132.025Y-122.925
X134.565Y-122.925
X135.945Y-81.9
X137.105Y-122.925
X138.485Y-81.9
X141.025Y-81.9
X160.38Y-120.435
X160.38Y-122.975
X162.92Y-120.435
X162.92Y-122.975
X165.46Y-120.435
X165.46Y-122.975
X168.0Y-120.435
X168.0Y-122.975
X172.435Y-117.5
X172.435Y-121.6
X174.975Y-117.5
X174.975Y-121.6
T6
X180.3Y-94.9
X180.3Y-99.9
T7
X114.0Y-84.0
X114.0Y-121.0
X181.0Y-84.0
X181.0Y-121.0
T3
X112.4Y-98.18G85X111.6Y-98.18
G05
X112.4Y-106.82G85X111.6Y-106.82
G05
X116.73Y-98.18G85X115.63Y-98.18
G05
X116.73Y-106.82G85X115.63Y-106.82
G05
M30
