%TF.GenerationSoftware,KiCad,Pcbnew,7.0.10*%
%TF.CreationDate,2024-05-16T19:43:25+02:00*%
%TF.ProjectId,SolarEnergyManager_v1.0,536f6c61-7245-46e6-9572-67794d616e61,rev?*%
%TF.SameCoordinates,Original*%
%TF.FileFunction,Legend,Bot*%
%TF.FilePolarity,Positive*%
%FSLAX46Y46*%
G04 Gerber Fmt 4.6, Leading zero omitted, Abs format (unit mm)*
G04 Created by KiCad (PCBNEW 7.0.10) date 2024-05-16 19:43:25*
%MOMM*%
%LPD*%
G01*
G04 APERTURE LIST*
G04 Aperture macros list*
%AMRoundRect*
0 Rectangle with rounded corners*
0 $1 Rounding radius*
0 $2 $3 $4 $5 $6 $7 $8 $9 X,Y pos of 4 corners*
0 Add a 4 corners polygon primitive as box body*
4,1,4,$2,$3,$4,$5,$6,$7,$8,$9,$2,$3,0*
0 Add four circle primitives for the rounded corners*
1,1,$1+$1,$2,$3*
1,1,$1+$1,$4,$5*
1,1,$1+$1,$6,$7*
1,1,$1+$1,$8,$9*
0 Add four rect primitives between the rounded corners*
20,1,$1+$1,$2,$3,$4,$5,0*
20,1,$1+$1,$4,$5,$6,$7,0*
20,1,$1+$1,$6,$7,$8,$9,0*
20,1,$1+$1,$8,$9,$2,$3,0*%
%AMFreePoly0*
4,1,6,1.000000,0.000000,0.500000,-0.750000,-0.500000,-0.750000,-0.500000,0.750000,0.500000,0.750000,1.000000,0.000000,1.000000,0.000000,$1*%
%AMFreePoly1*
4,1,6,0.500000,-0.750000,-0.650000,-0.750000,-0.150000,0.000000,-0.650000,0.750000,0.500000,0.750000,0.500000,-0.750000,0.500000,-0.750000,$1*%
G04 Aperture macros list end*
%ADD10C,0.150000*%
%ADD11C,0.120000*%
%ADD12C,0.200000*%
%ADD13C,0.250000*%
%ADD14C,0.325000*%
%ADD15C,0.100000*%
%ADD16C,6.400000*%
%ADD17R,1.700000X1.700000*%
%ADD18O,1.700000X1.700000*%
%ADD19R,1.600000X1.600000*%
%ADD20C,1.600000*%
%ADD21C,1.803400*%
%ADD22RoundRect,0.135000X-0.185000X0.135000X-0.185000X-0.135000X0.185000X-0.135000X0.185000X0.135000X0*%
%ADD23R,0.700000X1.525000*%
%ADD24RoundRect,0.135000X0.185000X-0.135000X0.185000X0.135000X-0.185000X0.135000X-0.185000X-0.135000X0*%
%ADD25R,0.300000X0.900000*%
%ADD26R,1.650000X0.250000*%
%ADD27RoundRect,0.135000X0.135000X0.185000X-0.135000X0.185000X-0.135000X-0.185000X0.135000X-0.185000X0*%
%ADD28RoundRect,0.250000X-0.262500X-0.450000X0.262500X-0.450000X0.262500X0.450000X-0.262500X0.450000X0*%
%ADD29RoundRect,0.140000X0.170000X-0.140000X0.170000X0.140000X-0.170000X0.140000X-0.170000X-0.140000X0*%
%ADD30RoundRect,0.140000X-0.140000X-0.170000X0.140000X-0.170000X0.140000X0.170000X-0.140000X0.170000X0*%
%ADD31R,0.350000X0.850000*%
%ADD32R,0.850000X0.350000*%
%ADD33R,2.700000X2.700000*%
%ADD34RoundRect,0.135000X-0.135000X-0.185000X0.135000X-0.185000X0.135000X0.185000X-0.135000X0.185000X0*%
%ADD35RoundRect,0.050000X0.050000X-0.387500X0.050000X0.387500X-0.050000X0.387500X-0.050000X-0.387500X0*%
%ADD36RoundRect,0.050000X0.387500X-0.050000X0.387500X0.050000X-0.387500X0.050000X-0.387500X-0.050000X0*%
%ADD37R,3.200000X3.200000*%
%ADD38RoundRect,0.140000X-0.170000X0.140000X-0.170000X-0.140000X0.170000X-0.140000X0.170000X0.140000X0*%
%ADD39RoundRect,0.250000X0.650000X-0.325000X0.650000X0.325000X-0.650000X0.325000X-0.650000X-0.325000X0*%
%ADD40RoundRect,0.140000X0.140000X0.170000X-0.140000X0.170000X-0.140000X-0.170000X0.140000X-0.170000X0*%
%ADD41R,1.000000X0.700000*%
%ADD42C,0.650000*%
%ADD43RoundRect,0.102000X-0.575000X0.300000X-0.575000X-0.300000X0.575000X-0.300000X0.575000X0.300000X0*%
%ADD44RoundRect,0.102000X-0.575000X0.150000X-0.575000X-0.150000X0.575000X-0.150000X0.575000X0.150000X0*%
%ADD45O,2.304000X1.204000*%
%ADD46RoundRect,0.301000X-0.701000X0.301000X-0.701000X-0.301000X0.701000X-0.301000X0.701000X0.301000X0*%
%ADD47R,1.050000X0.750000*%
%ADD48R,1.050000X1.300000*%
%ADD49RoundRect,0.250000X0.262500X0.450000X-0.262500X0.450000X-0.262500X-0.450000X0.262500X-0.450000X0*%
%ADD50FreePoly0,270.000000*%
%ADD51FreePoly1,270.000000*%
%ADD52R,1.200000X0.600000*%
%ADD53RoundRect,0.102000X-0.950000X0.700000X-0.950000X-0.700000X0.950000X-0.700000X0.950000X0.700000X0*%
%ADD54RoundRect,0.102000X-0.700000X0.600000X-0.700000X-0.600000X0.700000X-0.600000X0.700000X0.600000X0*%
%ADD55RoundRect,0.102000X-0.700000X0.650000X-0.700000X-0.650000X0.700000X-0.650000X0.700000X0.650000X0*%
%ADD56RoundRect,0.102000X-0.750000X0.400000X-0.750000X-0.400000X0.750000X-0.400000X0.750000X0.400000X0*%
%ADD57RoundRect,0.102000X-0.520000X0.500000X-0.520000X-0.500000X0.520000X-0.500000X0.520000X0.500000X0*%
%ADD58R,0.700000X0.300000*%
%ADD59R,1.000000X1.700000*%
G04 APERTURE END LIST*
D10*
X176469731Y-83404104D02*
X175993541Y-83404104D01*
X176564969Y-83689819D02*
X176231636Y-82689819D01*
X176231636Y-82689819D02*
X175898303Y-83689819D01*
X175041160Y-83689819D02*
X175612588Y-83689819D01*
X175326874Y-83689819D02*
X175326874Y-82689819D01*
X175326874Y-82689819D02*
X175422112Y-82832676D01*
X175422112Y-82832676D02*
X175517350Y-82927914D01*
X175517350Y-82927914D02*
X175612588Y-82975533D01*
X173929731Y-83404104D02*
X173453541Y-83404104D01*
X174024969Y-83689819D02*
X173691636Y-82689819D01*
X173691636Y-82689819D02*
X173358303Y-83689819D01*
X172834493Y-82689819D02*
X172739255Y-82689819D01*
X172739255Y-82689819D02*
X172644017Y-82737438D01*
X172644017Y-82737438D02*
X172596398Y-82785057D01*
X172596398Y-82785057D02*
X172548779Y-82880295D01*
X172548779Y-82880295D02*
X172501160Y-83070771D01*
X172501160Y-83070771D02*
X172501160Y-83308866D01*
X172501160Y-83308866D02*
X172548779Y-83499342D01*
X172548779Y-83499342D02*
X172596398Y-83594580D01*
X172596398Y-83594580D02*
X172644017Y-83642200D01*
X172644017Y-83642200D02*
X172739255Y-83689819D01*
X172739255Y-83689819D02*
X172834493Y-83689819D01*
X172834493Y-83689819D02*
X172929731Y-83642200D01*
X172929731Y-83642200D02*
X172977350Y-83594580D01*
X172977350Y-83594580D02*
X173024969Y-83499342D01*
X173024969Y-83499342D02*
X173072588Y-83308866D01*
X173072588Y-83308866D02*
X173072588Y-83070771D01*
X173072588Y-83070771D02*
X173024969Y-82880295D01*
X173024969Y-82880295D02*
X172977350Y-82785057D01*
X172977350Y-82785057D02*
X172929731Y-82737438D01*
X172929731Y-82737438D02*
X172834493Y-82689819D01*
X179263731Y-83404104D02*
X178787541Y-83404104D01*
X179358969Y-83689819D02*
X179025636Y-82689819D01*
X179025636Y-82689819D02*
X178692303Y-83689819D01*
X178406588Y-82785057D02*
X178358969Y-82737438D01*
X178358969Y-82737438D02*
X178263731Y-82689819D01*
X178263731Y-82689819D02*
X178025636Y-82689819D01*
X178025636Y-82689819D02*
X177930398Y-82737438D01*
X177930398Y-82737438D02*
X177882779Y-82785057D01*
X177882779Y-82785057D02*
X177835160Y-82880295D01*
X177835160Y-82880295D02*
X177835160Y-82975533D01*
X177835160Y-82975533D02*
X177882779Y-83118390D01*
X177882779Y-83118390D02*
X178454207Y-83689819D01*
X178454207Y-83689819D02*
X177835160Y-83689819D01*
X176852030Y-138102819D02*
X176280601Y-138102819D01*
X176691316Y-139102819D02*
X176566316Y-138102819D01*
X176072268Y-139102819D02*
X175947268Y-138102819D01*
X175643696Y-139102819D02*
X175578220Y-138579009D01*
X175578220Y-138579009D02*
X175613934Y-138483771D01*
X175613934Y-138483771D02*
X175703220Y-138436152D01*
X175703220Y-138436152D02*
X175846077Y-138436152D01*
X175846077Y-138436152D02*
X175947268Y-138483771D01*
X175947268Y-138483771D02*
X176000839Y-138531390D01*
X174780601Y-139055200D02*
X174881791Y-139102819D01*
X174881791Y-139102819D02*
X175072268Y-139102819D01*
X175072268Y-139102819D02*
X175161553Y-139055200D01*
X175161553Y-139055200D02*
X175197268Y-138959961D01*
X175197268Y-138959961D02*
X175149649Y-138579009D01*
X175149649Y-138579009D02*
X175090125Y-138483771D01*
X175090125Y-138483771D02*
X174988934Y-138436152D01*
X174988934Y-138436152D02*
X174798458Y-138436152D01*
X174798458Y-138436152D02*
X174709172Y-138483771D01*
X174709172Y-138483771D02*
X174673458Y-138579009D01*
X174673458Y-138579009D02*
X174685363Y-138674247D01*
X174685363Y-138674247D02*
X175173458Y-138769485D01*
X174352029Y-139055200D02*
X174262744Y-139102819D01*
X174262744Y-139102819D02*
X174072267Y-139102819D01*
X174072267Y-139102819D02*
X173971077Y-139055200D01*
X173971077Y-139055200D02*
X173911553Y-138959961D01*
X173911553Y-138959961D02*
X173905601Y-138912342D01*
X173905601Y-138912342D02*
X173941315Y-138817104D01*
X173941315Y-138817104D02*
X174030601Y-138769485D01*
X174030601Y-138769485D02*
X174173458Y-138769485D01*
X174173458Y-138769485D02*
X174262744Y-138721866D01*
X174262744Y-138721866D02*
X174298458Y-138626628D01*
X174298458Y-138626628D02*
X174292506Y-138579009D01*
X174292506Y-138579009D02*
X174232982Y-138483771D01*
X174232982Y-138483771D02*
X174131791Y-138436152D01*
X174131791Y-138436152D02*
X173988934Y-138436152D01*
X173988934Y-138436152D02*
X173899648Y-138483771D01*
X173500839Y-139102819D02*
X173417505Y-138436152D01*
X173375839Y-138102819D02*
X173429410Y-138150438D01*
X173429410Y-138150438D02*
X173387743Y-138198057D01*
X173387743Y-138198057D02*
X173334172Y-138150438D01*
X173334172Y-138150438D02*
X173375839Y-138102819D01*
X173375839Y-138102819D02*
X173387743Y-138198057D01*
X173066315Y-139055200D02*
X172977030Y-139102819D01*
X172977030Y-139102819D02*
X172786553Y-139102819D01*
X172786553Y-139102819D02*
X172685363Y-139055200D01*
X172685363Y-139055200D02*
X172625839Y-138959961D01*
X172625839Y-138959961D02*
X172619887Y-138912342D01*
X172619887Y-138912342D02*
X172655601Y-138817104D01*
X172655601Y-138817104D02*
X172744887Y-138769485D01*
X172744887Y-138769485D02*
X172887744Y-138769485D01*
X172887744Y-138769485D02*
X172977030Y-138721866D01*
X172977030Y-138721866D02*
X173012744Y-138626628D01*
X173012744Y-138626628D02*
X173006792Y-138579009D01*
X173006792Y-138579009D02*
X172947268Y-138483771D01*
X172947268Y-138483771D02*
X172846077Y-138436152D01*
X172846077Y-138436152D02*
X172703220Y-138436152D01*
X172703220Y-138436152D02*
X172613934Y-138483771D01*
X176423458Y-139712819D02*
X176512744Y-140427104D01*
X176512744Y-140427104D02*
X176578220Y-140569961D01*
X176578220Y-140569961D02*
X176685363Y-140665200D01*
X176685363Y-140665200D02*
X176834173Y-140712819D01*
X176834173Y-140712819D02*
X176929411Y-140712819D01*
X175643696Y-140712819D02*
X175578220Y-140189009D01*
X175578220Y-140189009D02*
X175613934Y-140093771D01*
X175613934Y-140093771D02*
X175703220Y-140046152D01*
X175703220Y-140046152D02*
X175893696Y-140046152D01*
X175893696Y-140046152D02*
X175994887Y-140093771D01*
X175637744Y-140665200D02*
X175738934Y-140712819D01*
X175738934Y-140712819D02*
X175977030Y-140712819D01*
X175977030Y-140712819D02*
X176066315Y-140665200D01*
X176066315Y-140665200D02*
X176102030Y-140569961D01*
X176102030Y-140569961D02*
X176090125Y-140474723D01*
X176090125Y-140474723D02*
X176030601Y-140379485D01*
X176030601Y-140379485D02*
X175929411Y-140331866D01*
X175929411Y-140331866D02*
X175691315Y-140331866D01*
X175691315Y-140331866D02*
X175590125Y-140284247D01*
X175209172Y-140665200D02*
X175119887Y-140712819D01*
X175119887Y-140712819D02*
X174929410Y-140712819D01*
X174929410Y-140712819D02*
X174828220Y-140665200D01*
X174828220Y-140665200D02*
X174768696Y-140569961D01*
X174768696Y-140569961D02*
X174762744Y-140522342D01*
X174762744Y-140522342D02*
X174798458Y-140427104D01*
X174798458Y-140427104D02*
X174887744Y-140379485D01*
X174887744Y-140379485D02*
X175030601Y-140379485D01*
X175030601Y-140379485D02*
X175119887Y-140331866D01*
X175119887Y-140331866D02*
X175155601Y-140236628D01*
X175155601Y-140236628D02*
X175149649Y-140189009D01*
X175149649Y-140189009D02*
X175090125Y-140093771D01*
X175090125Y-140093771D02*
X174988934Y-140046152D01*
X174988934Y-140046152D02*
X174846077Y-140046152D01*
X174846077Y-140046152D02*
X174756791Y-140093771D01*
X174215125Y-140712819D02*
X174304410Y-140665200D01*
X174304410Y-140665200D02*
X174346077Y-140617580D01*
X174346077Y-140617580D02*
X174381791Y-140522342D01*
X174381791Y-140522342D02*
X174346077Y-140236628D01*
X174346077Y-140236628D02*
X174286553Y-140141390D01*
X174286553Y-140141390D02*
X174232982Y-140093771D01*
X174232982Y-140093771D02*
X174131791Y-140046152D01*
X174131791Y-140046152D02*
X173988934Y-140046152D01*
X173988934Y-140046152D02*
X173899648Y-140093771D01*
X173899648Y-140093771D02*
X173857982Y-140141390D01*
X173857982Y-140141390D02*
X173822267Y-140236628D01*
X173822267Y-140236628D02*
X173857982Y-140522342D01*
X173857982Y-140522342D02*
X173917505Y-140617580D01*
X173917505Y-140617580D02*
X173971077Y-140665200D01*
X173971077Y-140665200D02*
X174072267Y-140712819D01*
X174072267Y-140712819D02*
X174215125Y-140712819D01*
X173369886Y-140046152D02*
X173453220Y-140712819D01*
X173381791Y-140141390D02*
X173328220Y-140093771D01*
X173328220Y-140093771D02*
X173227029Y-140046152D01*
X173227029Y-140046152D02*
X173084172Y-140046152D01*
X173084172Y-140046152D02*
X172994886Y-140093771D01*
X172994886Y-140093771D02*
X172959172Y-140189009D01*
X172959172Y-140189009D02*
X173024648Y-140712819D01*
X171387743Y-140189009D02*
X171721076Y-140189009D01*
X171786553Y-140712819D02*
X171661553Y-139712819D01*
X171661553Y-139712819D02*
X171185362Y-139712819D01*
X169756790Y-139712819D02*
X169846076Y-140427104D01*
X169846076Y-140427104D02*
X169911552Y-140569961D01*
X169911552Y-140569961D02*
X170018695Y-140665200D01*
X170018695Y-140665200D02*
X170167505Y-140712819D01*
X170167505Y-140712819D02*
X170262743Y-140712819D01*
X167852028Y-139712819D02*
X167232980Y-139712819D01*
X167232980Y-139712819D02*
X167613933Y-140093771D01*
X167613933Y-140093771D02*
X167471075Y-140093771D01*
X167471075Y-140093771D02*
X167381790Y-140141390D01*
X167381790Y-140141390D02*
X167340123Y-140189009D01*
X167340123Y-140189009D02*
X167304409Y-140284247D01*
X167304409Y-140284247D02*
X167334171Y-140522342D01*
X167334171Y-140522342D02*
X167393694Y-140617580D01*
X167393694Y-140617580D02*
X167447266Y-140665200D01*
X167447266Y-140665200D02*
X167548456Y-140712819D01*
X167548456Y-140712819D02*
X167834171Y-140712819D01*
X167834171Y-140712819D02*
X167923456Y-140665200D01*
X167923456Y-140665200D02*
X167965123Y-140617580D01*
X166405599Y-140712819D02*
X166977028Y-140712819D01*
X166691313Y-140712819D02*
X166566313Y-139712819D01*
X166566313Y-139712819D02*
X166679409Y-139855676D01*
X166679409Y-139855676D02*
X166786552Y-139950914D01*
X166786552Y-139950914D02*
X166887742Y-139998533D01*
X165661551Y-139712819D02*
X165566313Y-139712819D01*
X165566313Y-139712819D02*
X165477028Y-139760438D01*
X165477028Y-139760438D02*
X165435361Y-139808057D01*
X165435361Y-139808057D02*
X165399647Y-139903295D01*
X165399647Y-139903295D02*
X165375837Y-140093771D01*
X165375837Y-140093771D02*
X165405599Y-140331866D01*
X165405599Y-140331866D02*
X165477028Y-140522342D01*
X165477028Y-140522342D02*
X165536551Y-140617580D01*
X165536551Y-140617580D02*
X165590123Y-140665200D01*
X165590123Y-140665200D02*
X165691313Y-140712819D01*
X165691313Y-140712819D02*
X165786551Y-140712819D01*
X165786551Y-140712819D02*
X165875837Y-140665200D01*
X165875837Y-140665200D02*
X165917504Y-140617580D01*
X165917504Y-140617580D02*
X165953218Y-140522342D01*
X165953218Y-140522342D02*
X165977028Y-140331866D01*
X165977028Y-140331866D02*
X165947266Y-140093771D01*
X165947266Y-140093771D02*
X165875837Y-139903295D01*
X165875837Y-139903295D02*
X165816313Y-139808057D01*
X165816313Y-139808057D02*
X165762742Y-139760438D01*
X165762742Y-139760438D02*
X165661551Y-139712819D01*
X164709170Y-139712819D02*
X164613932Y-139712819D01*
X164613932Y-139712819D02*
X164524647Y-139760438D01*
X164524647Y-139760438D02*
X164482980Y-139808057D01*
X164482980Y-139808057D02*
X164447266Y-139903295D01*
X164447266Y-139903295D02*
X164423456Y-140093771D01*
X164423456Y-140093771D02*
X164453218Y-140331866D01*
X164453218Y-140331866D02*
X164524647Y-140522342D01*
X164524647Y-140522342D02*
X164584170Y-140617580D01*
X164584170Y-140617580D02*
X164637742Y-140665200D01*
X164637742Y-140665200D02*
X164738932Y-140712819D01*
X164738932Y-140712819D02*
X164834170Y-140712819D01*
X164834170Y-140712819D02*
X164923456Y-140665200D01*
X164923456Y-140665200D02*
X164965123Y-140617580D01*
X164965123Y-140617580D02*
X165000837Y-140522342D01*
X165000837Y-140522342D02*
X165024647Y-140331866D01*
X165024647Y-140331866D02*
X164994885Y-140093771D01*
X164994885Y-140093771D02*
X164923456Y-139903295D01*
X164923456Y-139903295D02*
X164863932Y-139808057D01*
X164863932Y-139808057D02*
X164810361Y-139760438D01*
X164810361Y-139760438D02*
X164709170Y-139712819D01*
X163471075Y-139712819D02*
X163947266Y-139712819D01*
X163947266Y-139712819D02*
X164054409Y-140189009D01*
X164054409Y-140189009D02*
X164000837Y-140141390D01*
X164000837Y-140141390D02*
X163899647Y-140093771D01*
X163899647Y-140093771D02*
X163661551Y-140093771D01*
X163661551Y-140093771D02*
X163572266Y-140141390D01*
X163572266Y-140141390D02*
X163530599Y-140189009D01*
X163530599Y-140189009D02*
X163494885Y-140284247D01*
X163494885Y-140284247D02*
X163524647Y-140522342D01*
X163524647Y-140522342D02*
X163584170Y-140617580D01*
X163584170Y-140617580D02*
X163637742Y-140665200D01*
X163637742Y-140665200D02*
X163738932Y-140712819D01*
X163738932Y-140712819D02*
X163977028Y-140712819D01*
X163977028Y-140712819D02*
X164066313Y-140665200D01*
X164066313Y-140665200D02*
X164107980Y-140617580D01*
X162596075Y-140712819D02*
X163167504Y-140712819D01*
X162881789Y-140712819D02*
X162756789Y-139712819D01*
X162756789Y-139712819D02*
X162869885Y-139855676D01*
X162869885Y-139855676D02*
X162977028Y-139950914D01*
X162977028Y-139950914D02*
X163078218Y-139998533D01*
X162137742Y-139712819D02*
X161518694Y-139712819D01*
X161518694Y-139712819D02*
X161899647Y-140093771D01*
X161899647Y-140093771D02*
X161756789Y-140093771D01*
X161756789Y-140093771D02*
X161667504Y-140141390D01*
X161667504Y-140141390D02*
X161625837Y-140189009D01*
X161625837Y-140189009D02*
X161590123Y-140284247D01*
X161590123Y-140284247D02*
X161619885Y-140522342D01*
X161619885Y-140522342D02*
X161679408Y-140617580D01*
X161679408Y-140617580D02*
X161732980Y-140665200D01*
X161732980Y-140665200D02*
X161834170Y-140712819D01*
X161834170Y-140712819D02*
X162119885Y-140712819D01*
X162119885Y-140712819D02*
X162209170Y-140665200D01*
X162209170Y-140665200D02*
X162250837Y-140617580D01*
X111447030Y-126418819D02*
X110875601Y-126418819D01*
X111286316Y-127418819D02*
X111161316Y-126418819D01*
X110667268Y-127418819D02*
X110542268Y-126418819D01*
X110238696Y-127418819D02*
X110173220Y-126895009D01*
X110173220Y-126895009D02*
X110208934Y-126799771D01*
X110208934Y-126799771D02*
X110298220Y-126752152D01*
X110298220Y-126752152D02*
X110441077Y-126752152D01*
X110441077Y-126752152D02*
X110542268Y-126799771D01*
X110542268Y-126799771D02*
X110595839Y-126847390D01*
X109375601Y-127371200D02*
X109476791Y-127418819D01*
X109476791Y-127418819D02*
X109667268Y-127418819D01*
X109667268Y-127418819D02*
X109756553Y-127371200D01*
X109756553Y-127371200D02*
X109792268Y-127275961D01*
X109792268Y-127275961D02*
X109744649Y-126895009D01*
X109744649Y-126895009D02*
X109685125Y-126799771D01*
X109685125Y-126799771D02*
X109583934Y-126752152D01*
X109583934Y-126752152D02*
X109393458Y-126752152D01*
X109393458Y-126752152D02*
X109304172Y-126799771D01*
X109304172Y-126799771D02*
X109268458Y-126895009D01*
X109268458Y-126895009D02*
X109280363Y-126990247D01*
X109280363Y-126990247D02*
X109768458Y-127085485D01*
X108947029Y-127371200D02*
X108857744Y-127418819D01*
X108857744Y-127418819D02*
X108667267Y-127418819D01*
X108667267Y-127418819D02*
X108566077Y-127371200D01*
X108566077Y-127371200D02*
X108506553Y-127275961D01*
X108506553Y-127275961D02*
X108500601Y-127228342D01*
X108500601Y-127228342D02*
X108536315Y-127133104D01*
X108536315Y-127133104D02*
X108625601Y-127085485D01*
X108625601Y-127085485D02*
X108768458Y-127085485D01*
X108768458Y-127085485D02*
X108857744Y-127037866D01*
X108857744Y-127037866D02*
X108893458Y-126942628D01*
X108893458Y-126942628D02*
X108887506Y-126895009D01*
X108887506Y-126895009D02*
X108827982Y-126799771D01*
X108827982Y-126799771D02*
X108726791Y-126752152D01*
X108726791Y-126752152D02*
X108583934Y-126752152D01*
X108583934Y-126752152D02*
X108494648Y-126799771D01*
X108095839Y-127418819D02*
X108012505Y-126752152D01*
X107970839Y-126418819D02*
X108024410Y-126466438D01*
X108024410Y-126466438D02*
X107982743Y-126514057D01*
X107982743Y-126514057D02*
X107929172Y-126466438D01*
X107929172Y-126466438D02*
X107970839Y-126418819D01*
X107970839Y-126418819D02*
X107982743Y-126514057D01*
X107661315Y-127371200D02*
X107572030Y-127418819D01*
X107572030Y-127418819D02*
X107381553Y-127418819D01*
X107381553Y-127418819D02*
X107280363Y-127371200D01*
X107280363Y-127371200D02*
X107220839Y-127275961D01*
X107220839Y-127275961D02*
X107214887Y-127228342D01*
X107214887Y-127228342D02*
X107250601Y-127133104D01*
X107250601Y-127133104D02*
X107339887Y-127085485D01*
X107339887Y-127085485D02*
X107482744Y-127085485D01*
X107482744Y-127085485D02*
X107572030Y-127037866D01*
X107572030Y-127037866D02*
X107607744Y-126942628D01*
X107607744Y-126942628D02*
X107601792Y-126895009D01*
X107601792Y-126895009D02*
X107542268Y-126799771D01*
X107542268Y-126799771D02*
X107441077Y-126752152D01*
X107441077Y-126752152D02*
X107298220Y-126752152D01*
X107298220Y-126752152D02*
X107208934Y-126799771D01*
X111018458Y-128028819D02*
X111107744Y-128743104D01*
X111107744Y-128743104D02*
X111173220Y-128885961D01*
X111173220Y-128885961D02*
X111280363Y-128981200D01*
X111280363Y-128981200D02*
X111429173Y-129028819D01*
X111429173Y-129028819D02*
X111524411Y-129028819D01*
X110238696Y-129028819D02*
X110173220Y-128505009D01*
X110173220Y-128505009D02*
X110208934Y-128409771D01*
X110208934Y-128409771D02*
X110298220Y-128362152D01*
X110298220Y-128362152D02*
X110488696Y-128362152D01*
X110488696Y-128362152D02*
X110589887Y-128409771D01*
X110232744Y-128981200D02*
X110333934Y-129028819D01*
X110333934Y-129028819D02*
X110572030Y-129028819D01*
X110572030Y-129028819D02*
X110661315Y-128981200D01*
X110661315Y-128981200D02*
X110697030Y-128885961D01*
X110697030Y-128885961D02*
X110685125Y-128790723D01*
X110685125Y-128790723D02*
X110625601Y-128695485D01*
X110625601Y-128695485D02*
X110524411Y-128647866D01*
X110524411Y-128647866D02*
X110286315Y-128647866D01*
X110286315Y-128647866D02*
X110185125Y-128600247D01*
X109804172Y-128981200D02*
X109714887Y-129028819D01*
X109714887Y-129028819D02*
X109524410Y-129028819D01*
X109524410Y-129028819D02*
X109423220Y-128981200D01*
X109423220Y-128981200D02*
X109363696Y-128885961D01*
X109363696Y-128885961D02*
X109357744Y-128838342D01*
X109357744Y-128838342D02*
X109393458Y-128743104D01*
X109393458Y-128743104D02*
X109482744Y-128695485D01*
X109482744Y-128695485D02*
X109625601Y-128695485D01*
X109625601Y-128695485D02*
X109714887Y-128647866D01*
X109714887Y-128647866D02*
X109750601Y-128552628D01*
X109750601Y-128552628D02*
X109744649Y-128505009D01*
X109744649Y-128505009D02*
X109685125Y-128409771D01*
X109685125Y-128409771D02*
X109583934Y-128362152D01*
X109583934Y-128362152D02*
X109441077Y-128362152D01*
X109441077Y-128362152D02*
X109351791Y-128409771D01*
X108810125Y-129028819D02*
X108899410Y-128981200D01*
X108899410Y-128981200D02*
X108941077Y-128933580D01*
X108941077Y-128933580D02*
X108976791Y-128838342D01*
X108976791Y-128838342D02*
X108941077Y-128552628D01*
X108941077Y-128552628D02*
X108881553Y-128457390D01*
X108881553Y-128457390D02*
X108827982Y-128409771D01*
X108827982Y-128409771D02*
X108726791Y-128362152D01*
X108726791Y-128362152D02*
X108583934Y-128362152D01*
X108583934Y-128362152D02*
X108494648Y-128409771D01*
X108494648Y-128409771D02*
X108452982Y-128457390D01*
X108452982Y-128457390D02*
X108417267Y-128552628D01*
X108417267Y-128552628D02*
X108452982Y-128838342D01*
X108452982Y-128838342D02*
X108512505Y-128933580D01*
X108512505Y-128933580D02*
X108566077Y-128981200D01*
X108566077Y-128981200D02*
X108667267Y-129028819D01*
X108667267Y-129028819D02*
X108810125Y-129028819D01*
X107964886Y-128362152D02*
X108048220Y-129028819D01*
X107976791Y-128457390D02*
X107923220Y-128409771D01*
X107923220Y-128409771D02*
X107822029Y-128362152D01*
X107822029Y-128362152D02*
X107679172Y-128362152D01*
X107679172Y-128362152D02*
X107589886Y-128409771D01*
X107589886Y-128409771D02*
X107554172Y-128505009D01*
X107554172Y-128505009D02*
X107619648Y-129028819D01*
X105982743Y-128505009D02*
X106316076Y-128505009D01*
X106381553Y-129028819D02*
X106256553Y-128028819D01*
X106256553Y-128028819D02*
X105780362Y-128028819D01*
X104351790Y-128028819D02*
X104441076Y-128743104D01*
X104441076Y-128743104D02*
X104506552Y-128885961D01*
X104506552Y-128885961D02*
X104613695Y-128981200D01*
X104613695Y-128981200D02*
X104762505Y-129028819D01*
X104762505Y-129028819D02*
X104857743Y-129028819D01*
X102447028Y-128028819D02*
X101827980Y-128028819D01*
X101827980Y-128028819D02*
X102208933Y-128409771D01*
X102208933Y-128409771D02*
X102066075Y-128409771D01*
X102066075Y-128409771D02*
X101976790Y-128457390D01*
X101976790Y-128457390D02*
X101935123Y-128505009D01*
X101935123Y-128505009D02*
X101899409Y-128600247D01*
X101899409Y-128600247D02*
X101929171Y-128838342D01*
X101929171Y-128838342D02*
X101988694Y-128933580D01*
X101988694Y-128933580D02*
X102042266Y-128981200D01*
X102042266Y-128981200D02*
X102143456Y-129028819D01*
X102143456Y-129028819D02*
X102429171Y-129028819D01*
X102429171Y-129028819D02*
X102518456Y-128981200D01*
X102518456Y-128981200D02*
X102560123Y-128933580D01*
X101000599Y-129028819D02*
X101572028Y-129028819D01*
X101286313Y-129028819D02*
X101161313Y-128028819D01*
X101161313Y-128028819D02*
X101274409Y-128171676D01*
X101274409Y-128171676D02*
X101381552Y-128266914D01*
X101381552Y-128266914D02*
X101482742Y-128314533D01*
X100256551Y-128028819D02*
X100161313Y-128028819D01*
X100161313Y-128028819D02*
X100072028Y-128076438D01*
X100072028Y-128076438D02*
X100030361Y-128124057D01*
X100030361Y-128124057D02*
X99994647Y-128219295D01*
X99994647Y-128219295D02*
X99970837Y-128409771D01*
X99970837Y-128409771D02*
X100000599Y-128647866D01*
X100000599Y-128647866D02*
X100072028Y-128838342D01*
X100072028Y-128838342D02*
X100131551Y-128933580D01*
X100131551Y-128933580D02*
X100185123Y-128981200D01*
X100185123Y-128981200D02*
X100286313Y-129028819D01*
X100286313Y-129028819D02*
X100381551Y-129028819D01*
X100381551Y-129028819D02*
X100470837Y-128981200D01*
X100470837Y-128981200D02*
X100512504Y-128933580D01*
X100512504Y-128933580D02*
X100548218Y-128838342D01*
X100548218Y-128838342D02*
X100572028Y-128647866D01*
X100572028Y-128647866D02*
X100542266Y-128409771D01*
X100542266Y-128409771D02*
X100470837Y-128219295D01*
X100470837Y-128219295D02*
X100411313Y-128124057D01*
X100411313Y-128124057D02*
X100357742Y-128076438D01*
X100357742Y-128076438D02*
X100256551Y-128028819D01*
X99304170Y-128028819D02*
X99208932Y-128028819D01*
X99208932Y-128028819D02*
X99119647Y-128076438D01*
X99119647Y-128076438D02*
X99077980Y-128124057D01*
X99077980Y-128124057D02*
X99042266Y-128219295D01*
X99042266Y-128219295D02*
X99018456Y-128409771D01*
X99018456Y-128409771D02*
X99048218Y-128647866D01*
X99048218Y-128647866D02*
X99119647Y-128838342D01*
X99119647Y-128838342D02*
X99179170Y-128933580D01*
X99179170Y-128933580D02*
X99232742Y-128981200D01*
X99232742Y-128981200D02*
X99333932Y-129028819D01*
X99333932Y-129028819D02*
X99429170Y-129028819D01*
X99429170Y-129028819D02*
X99518456Y-128981200D01*
X99518456Y-128981200D02*
X99560123Y-128933580D01*
X99560123Y-128933580D02*
X99595837Y-128838342D01*
X99595837Y-128838342D02*
X99619647Y-128647866D01*
X99619647Y-128647866D02*
X99589885Y-128409771D01*
X99589885Y-128409771D02*
X99518456Y-128219295D01*
X99518456Y-128219295D02*
X99458932Y-128124057D01*
X99458932Y-128124057D02*
X99405361Y-128076438D01*
X99405361Y-128076438D02*
X99304170Y-128028819D01*
X98066075Y-128028819D02*
X98542266Y-128028819D01*
X98542266Y-128028819D02*
X98649409Y-128505009D01*
X98649409Y-128505009D02*
X98595837Y-128457390D01*
X98595837Y-128457390D02*
X98494647Y-128409771D01*
X98494647Y-128409771D02*
X98256551Y-128409771D01*
X98256551Y-128409771D02*
X98167266Y-128457390D01*
X98167266Y-128457390D02*
X98125599Y-128505009D01*
X98125599Y-128505009D02*
X98089885Y-128600247D01*
X98089885Y-128600247D02*
X98119647Y-128838342D01*
X98119647Y-128838342D02*
X98179170Y-128933580D01*
X98179170Y-128933580D02*
X98232742Y-128981200D01*
X98232742Y-128981200D02*
X98333932Y-129028819D01*
X98333932Y-129028819D02*
X98572028Y-129028819D01*
X98572028Y-129028819D02*
X98661313Y-128981200D01*
X98661313Y-128981200D02*
X98702980Y-128933580D01*
X97191075Y-129028819D02*
X97762504Y-129028819D01*
X97476789Y-129028819D02*
X97351789Y-128028819D01*
X97351789Y-128028819D02*
X97464885Y-128171676D01*
X97464885Y-128171676D02*
X97572028Y-128266914D01*
X97572028Y-128266914D02*
X97673218Y-128314533D01*
X96732742Y-128028819D02*
X96113694Y-128028819D01*
X96113694Y-128028819D02*
X96494647Y-128409771D01*
X96494647Y-128409771D02*
X96351789Y-128409771D01*
X96351789Y-128409771D02*
X96262504Y-128457390D01*
X96262504Y-128457390D02*
X96220837Y-128505009D01*
X96220837Y-128505009D02*
X96185123Y-128600247D01*
X96185123Y-128600247D02*
X96214885Y-128838342D01*
X96214885Y-128838342D02*
X96274408Y-128933580D01*
X96274408Y-128933580D02*
X96327980Y-128981200D01*
X96327980Y-128981200D02*
X96429170Y-129028819D01*
X96429170Y-129028819D02*
X96714885Y-129028819D01*
X96714885Y-129028819D02*
X96804170Y-128981200D01*
X96804170Y-128981200D02*
X96845837Y-128933580D01*
X107388819Y-91281380D02*
X106912628Y-90948047D01*
X107388819Y-90709952D02*
X106388819Y-90709952D01*
X106388819Y-90709952D02*
X106388819Y-91090904D01*
X106388819Y-91090904D02*
X106436438Y-91186142D01*
X106436438Y-91186142D02*
X106484057Y-91233761D01*
X106484057Y-91233761D02*
X106579295Y-91281380D01*
X106579295Y-91281380D02*
X106722152Y-91281380D01*
X106722152Y-91281380D02*
X106817390Y-91233761D01*
X106817390Y-91233761D02*
X106865009Y-91186142D01*
X106865009Y-91186142D02*
X106912628Y-91090904D01*
X106912628Y-91090904D02*
X106912628Y-90709952D01*
X106388819Y-91567095D02*
X107388819Y-91900428D01*
X107388819Y-91900428D02*
X106388819Y-92233761D01*
X107388819Y-92995666D02*
X106388819Y-92995666D01*
X107341200Y-92995666D02*
X107388819Y-92900428D01*
X107388819Y-92900428D02*
X107388819Y-92709952D01*
X107388819Y-92709952D02*
X107341200Y-92614714D01*
X107341200Y-92614714D02*
X107293580Y-92567095D01*
X107293580Y-92567095D02*
X107198342Y-92519476D01*
X107198342Y-92519476D02*
X106912628Y-92519476D01*
X106912628Y-92519476D02*
X106817390Y-92567095D01*
X106817390Y-92567095D02*
X106769771Y-92614714D01*
X106769771Y-92614714D02*
X106722152Y-92709952D01*
X106722152Y-92709952D02*
X106722152Y-92900428D01*
X106722152Y-92900428D02*
X106769771Y-92995666D01*
X106484057Y-93424238D02*
X106436438Y-93471857D01*
X106436438Y-93471857D02*
X106388819Y-93567095D01*
X106388819Y-93567095D02*
X106388819Y-93805190D01*
X106388819Y-93805190D02*
X106436438Y-93900428D01*
X106436438Y-93900428D02*
X106484057Y-93948047D01*
X106484057Y-93948047D02*
X106579295Y-93995666D01*
X106579295Y-93995666D02*
X106674533Y-93995666D01*
X106674533Y-93995666D02*
X106817390Y-93948047D01*
X106817390Y-93948047D02*
X107388819Y-93376619D01*
X107388819Y-93376619D02*
X107388819Y-93995666D01*
X105864819Y-91328999D02*
X105388628Y-90995666D01*
X105864819Y-90757571D02*
X104864819Y-90757571D01*
X104864819Y-90757571D02*
X104864819Y-91138523D01*
X104864819Y-91138523D02*
X104912438Y-91233761D01*
X104912438Y-91233761D02*
X104960057Y-91281380D01*
X104960057Y-91281380D02*
X105055295Y-91328999D01*
X105055295Y-91328999D02*
X105198152Y-91328999D01*
X105198152Y-91328999D02*
X105293390Y-91281380D01*
X105293390Y-91281380D02*
X105341009Y-91233761D01*
X105341009Y-91233761D02*
X105388628Y-91138523D01*
X105388628Y-91138523D02*
X105388628Y-90757571D01*
X105817200Y-91709952D02*
X105864819Y-91805190D01*
X105864819Y-91805190D02*
X105864819Y-91995666D01*
X105864819Y-91995666D02*
X105817200Y-92090904D01*
X105817200Y-92090904D02*
X105721961Y-92138523D01*
X105721961Y-92138523D02*
X105674342Y-92138523D01*
X105674342Y-92138523D02*
X105579104Y-92090904D01*
X105579104Y-92090904D02*
X105531485Y-91995666D01*
X105531485Y-91995666D02*
X105531485Y-91852809D01*
X105531485Y-91852809D02*
X105483866Y-91757571D01*
X105483866Y-91757571D02*
X105388628Y-91709952D01*
X105388628Y-91709952D02*
X105341009Y-91709952D01*
X105341009Y-91709952D02*
X105245771Y-91757571D01*
X105245771Y-91757571D02*
X105198152Y-91852809D01*
X105198152Y-91852809D02*
X105198152Y-91995666D01*
X105198152Y-91995666D02*
X105245771Y-92090904D01*
X104864819Y-92424238D02*
X105864819Y-92757571D01*
X105864819Y-92757571D02*
X104864819Y-93090904D01*
X104960057Y-93376619D02*
X104912438Y-93424238D01*
X104912438Y-93424238D02*
X104864819Y-93519476D01*
X104864819Y-93519476D02*
X104864819Y-93757571D01*
X104864819Y-93757571D02*
X104912438Y-93852809D01*
X104912438Y-93852809D02*
X104960057Y-93900428D01*
X104960057Y-93900428D02*
X105055295Y-93948047D01*
X105055295Y-93948047D02*
X105150533Y-93948047D01*
X105150533Y-93948047D02*
X105293390Y-93900428D01*
X105293390Y-93900428D02*
X105864819Y-93329000D01*
X105864819Y-93329000D02*
X105864819Y-93948047D01*
X102600000Y-93926819D02*
X102933333Y-93450628D01*
X103171428Y-93926819D02*
X103171428Y-92926819D01*
X103171428Y-92926819D02*
X102790476Y-92926819D01*
X102790476Y-92926819D02*
X102695238Y-92974438D01*
X102695238Y-92974438D02*
X102647619Y-93022057D01*
X102647619Y-93022057D02*
X102600000Y-93117295D01*
X102600000Y-93117295D02*
X102600000Y-93260152D01*
X102600000Y-93260152D02*
X102647619Y-93355390D01*
X102647619Y-93355390D02*
X102695238Y-93403009D01*
X102695238Y-93403009D02*
X102790476Y-93450628D01*
X102790476Y-93450628D02*
X103171428Y-93450628D01*
X102219047Y-93879200D02*
X102123809Y-93926819D01*
X102123809Y-93926819D02*
X101933333Y-93926819D01*
X101933333Y-93926819D02*
X101838095Y-93879200D01*
X101838095Y-93879200D02*
X101790476Y-93783961D01*
X101790476Y-93783961D02*
X101790476Y-93736342D01*
X101790476Y-93736342D02*
X101838095Y-93641104D01*
X101838095Y-93641104D02*
X101933333Y-93593485D01*
X101933333Y-93593485D02*
X102076190Y-93593485D01*
X102076190Y-93593485D02*
X102171428Y-93545866D01*
X102171428Y-93545866D02*
X102219047Y-93450628D01*
X102219047Y-93450628D02*
X102219047Y-93403009D01*
X102219047Y-93403009D02*
X102171428Y-93307771D01*
X102171428Y-93307771D02*
X102076190Y-93260152D01*
X102076190Y-93260152D02*
X101933333Y-93260152D01*
X101933333Y-93260152D02*
X101838095Y-93307771D01*
X101409523Y-93641104D02*
X100933333Y-93641104D01*
X101504761Y-93926819D02*
X101171428Y-92926819D01*
X101171428Y-92926819D02*
X100838095Y-93926819D01*
X100552380Y-93022057D02*
X100504761Y-92974438D01*
X100504761Y-92974438D02*
X100409523Y-92926819D01*
X100409523Y-92926819D02*
X100171428Y-92926819D01*
X100171428Y-92926819D02*
X100076190Y-92974438D01*
X100076190Y-92974438D02*
X100028571Y-93022057D01*
X100028571Y-93022057D02*
X99980952Y-93117295D01*
X99980952Y-93117295D02*
X99980952Y-93212533D01*
X99980952Y-93212533D02*
X100028571Y-93355390D01*
X100028571Y-93355390D02*
X100599999Y-93926819D01*
X100599999Y-93926819D02*
X99980952Y-93926819D01*
X105737819Y-104917999D02*
X105261628Y-104584666D01*
X105737819Y-104346571D02*
X104737819Y-104346571D01*
X104737819Y-104346571D02*
X104737819Y-104727523D01*
X104737819Y-104727523D02*
X104785438Y-104822761D01*
X104785438Y-104822761D02*
X104833057Y-104870380D01*
X104833057Y-104870380D02*
X104928295Y-104917999D01*
X104928295Y-104917999D02*
X105071152Y-104917999D01*
X105071152Y-104917999D02*
X105166390Y-104870380D01*
X105166390Y-104870380D02*
X105214009Y-104822761D01*
X105214009Y-104822761D02*
X105261628Y-104727523D01*
X105261628Y-104727523D02*
X105261628Y-104346571D01*
X105690200Y-105298952D02*
X105737819Y-105394190D01*
X105737819Y-105394190D02*
X105737819Y-105584666D01*
X105737819Y-105584666D02*
X105690200Y-105679904D01*
X105690200Y-105679904D02*
X105594961Y-105727523D01*
X105594961Y-105727523D02*
X105547342Y-105727523D01*
X105547342Y-105727523D02*
X105452104Y-105679904D01*
X105452104Y-105679904D02*
X105404485Y-105584666D01*
X105404485Y-105584666D02*
X105404485Y-105441809D01*
X105404485Y-105441809D02*
X105356866Y-105346571D01*
X105356866Y-105346571D02*
X105261628Y-105298952D01*
X105261628Y-105298952D02*
X105214009Y-105298952D01*
X105214009Y-105298952D02*
X105118771Y-105346571D01*
X105118771Y-105346571D02*
X105071152Y-105441809D01*
X105071152Y-105441809D02*
X105071152Y-105584666D01*
X105071152Y-105584666D02*
X105118771Y-105679904D01*
X104737819Y-106013238D02*
X105737819Y-106346571D01*
X105737819Y-106346571D02*
X104737819Y-106679904D01*
X105737819Y-107537047D02*
X105737819Y-106965619D01*
X105737819Y-107251333D02*
X104737819Y-107251333D01*
X104737819Y-107251333D02*
X104880676Y-107156095D01*
X104880676Y-107156095D02*
X104975914Y-107060857D01*
X104975914Y-107060857D02*
X105023533Y-106965619D01*
X168767000Y-117294819D02*
X169100333Y-116818628D01*
X169338428Y-117294819D02*
X169338428Y-116294819D01*
X169338428Y-116294819D02*
X168957476Y-116294819D01*
X168957476Y-116294819D02*
X168862238Y-116342438D01*
X168862238Y-116342438D02*
X168814619Y-116390057D01*
X168814619Y-116390057D02*
X168767000Y-116485295D01*
X168767000Y-116485295D02*
X168767000Y-116628152D01*
X168767000Y-116628152D02*
X168814619Y-116723390D01*
X168814619Y-116723390D02*
X168862238Y-116771009D01*
X168862238Y-116771009D02*
X168957476Y-116818628D01*
X168957476Y-116818628D02*
X169338428Y-116818628D01*
X168386047Y-117247200D02*
X168290809Y-117294819D01*
X168290809Y-117294819D02*
X168100333Y-117294819D01*
X168100333Y-117294819D02*
X168005095Y-117247200D01*
X168005095Y-117247200D02*
X167957476Y-117151961D01*
X167957476Y-117151961D02*
X167957476Y-117104342D01*
X167957476Y-117104342D02*
X168005095Y-117009104D01*
X168005095Y-117009104D02*
X168100333Y-116961485D01*
X168100333Y-116961485D02*
X168243190Y-116961485D01*
X168243190Y-116961485D02*
X168338428Y-116913866D01*
X168338428Y-116913866D02*
X168386047Y-116818628D01*
X168386047Y-116818628D02*
X168386047Y-116771009D01*
X168386047Y-116771009D02*
X168338428Y-116675771D01*
X168338428Y-116675771D02*
X168243190Y-116628152D01*
X168243190Y-116628152D02*
X168100333Y-116628152D01*
X168100333Y-116628152D02*
X168005095Y-116675771D01*
X167576523Y-117009104D02*
X167100333Y-117009104D01*
X167671761Y-117294819D02*
X167338428Y-116294819D01*
X167338428Y-116294819D02*
X167005095Y-117294819D01*
X166243190Y-116628152D02*
X166243190Y-117294819D01*
X166481285Y-116247200D02*
X166719380Y-116961485D01*
X166719380Y-116961485D02*
X166100333Y-116961485D01*
X100949000Y-107515819D02*
X101282333Y-107039628D01*
X101520428Y-107515819D02*
X101520428Y-106515819D01*
X101520428Y-106515819D02*
X101139476Y-106515819D01*
X101139476Y-106515819D02*
X101044238Y-106563438D01*
X101044238Y-106563438D02*
X100996619Y-106611057D01*
X100996619Y-106611057D02*
X100949000Y-106706295D01*
X100949000Y-106706295D02*
X100949000Y-106849152D01*
X100949000Y-106849152D02*
X100996619Y-106944390D01*
X100996619Y-106944390D02*
X101044238Y-106992009D01*
X101044238Y-106992009D02*
X101139476Y-107039628D01*
X101139476Y-107039628D02*
X101520428Y-107039628D01*
X100568047Y-107468200D02*
X100472809Y-107515819D01*
X100472809Y-107515819D02*
X100282333Y-107515819D01*
X100282333Y-107515819D02*
X100187095Y-107468200D01*
X100187095Y-107468200D02*
X100139476Y-107372961D01*
X100139476Y-107372961D02*
X100139476Y-107325342D01*
X100139476Y-107325342D02*
X100187095Y-107230104D01*
X100187095Y-107230104D02*
X100282333Y-107182485D01*
X100282333Y-107182485D02*
X100425190Y-107182485D01*
X100425190Y-107182485D02*
X100520428Y-107134866D01*
X100520428Y-107134866D02*
X100568047Y-107039628D01*
X100568047Y-107039628D02*
X100568047Y-106992009D01*
X100568047Y-106992009D02*
X100520428Y-106896771D01*
X100520428Y-106896771D02*
X100425190Y-106849152D01*
X100425190Y-106849152D02*
X100282333Y-106849152D01*
X100282333Y-106849152D02*
X100187095Y-106896771D01*
X99758523Y-107230104D02*
X99282333Y-107230104D01*
X99853761Y-107515819D02*
X99520428Y-106515819D01*
X99520428Y-106515819D02*
X99187095Y-107515819D01*
X98329952Y-107515819D02*
X98901380Y-107515819D01*
X98615666Y-107515819D02*
X98615666Y-106515819D01*
X98615666Y-106515819D02*
X98710904Y-106658676D01*
X98710904Y-106658676D02*
X98806142Y-106753914D01*
X98806142Y-106753914D02*
X98901380Y-106801533D01*
X104213819Y-104870380D02*
X103737628Y-104537047D01*
X104213819Y-104298952D02*
X103213819Y-104298952D01*
X103213819Y-104298952D02*
X103213819Y-104679904D01*
X103213819Y-104679904D02*
X103261438Y-104775142D01*
X103261438Y-104775142D02*
X103309057Y-104822761D01*
X103309057Y-104822761D02*
X103404295Y-104870380D01*
X103404295Y-104870380D02*
X103547152Y-104870380D01*
X103547152Y-104870380D02*
X103642390Y-104822761D01*
X103642390Y-104822761D02*
X103690009Y-104775142D01*
X103690009Y-104775142D02*
X103737628Y-104679904D01*
X103737628Y-104679904D02*
X103737628Y-104298952D01*
X103213819Y-105156095D02*
X104213819Y-105489428D01*
X104213819Y-105489428D02*
X103213819Y-105822761D01*
X104213819Y-106584666D02*
X103213819Y-106584666D01*
X104166200Y-106584666D02*
X104213819Y-106489428D01*
X104213819Y-106489428D02*
X104213819Y-106298952D01*
X104213819Y-106298952D02*
X104166200Y-106203714D01*
X104166200Y-106203714D02*
X104118580Y-106156095D01*
X104118580Y-106156095D02*
X104023342Y-106108476D01*
X104023342Y-106108476D02*
X103737628Y-106108476D01*
X103737628Y-106108476D02*
X103642390Y-106156095D01*
X103642390Y-106156095D02*
X103594771Y-106203714D01*
X103594771Y-106203714D02*
X103547152Y-106298952D01*
X103547152Y-106298952D02*
X103547152Y-106489428D01*
X103547152Y-106489428D02*
X103594771Y-106584666D01*
X104213819Y-107584666D02*
X104213819Y-107013238D01*
X104213819Y-107298952D02*
X103213819Y-107298952D01*
X103213819Y-107298952D02*
X103356676Y-107203714D01*
X103356676Y-107203714D02*
X103451914Y-107108476D01*
X103451914Y-107108476D02*
X103499533Y-107013238D01*
X164195000Y-117294819D02*
X164528333Y-116818628D01*
X164766428Y-117294819D02*
X164766428Y-116294819D01*
X164766428Y-116294819D02*
X164385476Y-116294819D01*
X164385476Y-116294819D02*
X164290238Y-116342438D01*
X164290238Y-116342438D02*
X164242619Y-116390057D01*
X164242619Y-116390057D02*
X164195000Y-116485295D01*
X164195000Y-116485295D02*
X164195000Y-116628152D01*
X164195000Y-116628152D02*
X164242619Y-116723390D01*
X164242619Y-116723390D02*
X164290238Y-116771009D01*
X164290238Y-116771009D02*
X164385476Y-116818628D01*
X164385476Y-116818628D02*
X164766428Y-116818628D01*
X163814047Y-117247200D02*
X163718809Y-117294819D01*
X163718809Y-117294819D02*
X163528333Y-117294819D01*
X163528333Y-117294819D02*
X163433095Y-117247200D01*
X163433095Y-117247200D02*
X163385476Y-117151961D01*
X163385476Y-117151961D02*
X163385476Y-117104342D01*
X163385476Y-117104342D02*
X163433095Y-117009104D01*
X163433095Y-117009104D02*
X163528333Y-116961485D01*
X163528333Y-116961485D02*
X163671190Y-116961485D01*
X163671190Y-116961485D02*
X163766428Y-116913866D01*
X163766428Y-116913866D02*
X163814047Y-116818628D01*
X163814047Y-116818628D02*
X163814047Y-116771009D01*
X163814047Y-116771009D02*
X163766428Y-116675771D01*
X163766428Y-116675771D02*
X163671190Y-116628152D01*
X163671190Y-116628152D02*
X163528333Y-116628152D01*
X163528333Y-116628152D02*
X163433095Y-116675771D01*
X163004523Y-117009104D02*
X162528333Y-117009104D01*
X163099761Y-117294819D02*
X162766428Y-116294819D01*
X162766428Y-116294819D02*
X162433095Y-117294819D01*
X161623571Y-116294819D02*
X162099761Y-116294819D01*
X162099761Y-116294819D02*
X162147380Y-116771009D01*
X162147380Y-116771009D02*
X162099761Y-116723390D01*
X162099761Y-116723390D02*
X162004523Y-116675771D01*
X162004523Y-116675771D02*
X161766428Y-116675771D01*
X161766428Y-116675771D02*
X161671190Y-116723390D01*
X161671190Y-116723390D02*
X161623571Y-116771009D01*
X161623571Y-116771009D02*
X161575952Y-116866247D01*
X161575952Y-116866247D02*
X161575952Y-117104342D01*
X161575952Y-117104342D02*
X161623571Y-117199580D01*
X161623571Y-117199580D02*
X161671190Y-117247200D01*
X161671190Y-117247200D02*
X161766428Y-117294819D01*
X161766428Y-117294819D02*
X162004523Y-117294819D01*
X162004523Y-117294819D02*
X162099761Y-117247200D01*
X162099761Y-117247200D02*
X162147380Y-117199580D01*
D11*
%TO.C,RVd2*%
X107161600Y-94943959D02*
X107161600Y-95251241D01*
X106401600Y-94943959D02*
X106401600Y-95251241D01*
D12*
%TO.C,Q602*%
X155017000Y-85425000D02*
X155017000Y-86950000D01*
X160072000Y-87300000D02*
X155172000Y-87300000D01*
X155172000Y-87300000D02*
X155172000Y-90500000D01*
X160072000Y-90500000D02*
X160072000Y-87300000D01*
X155172000Y-90500000D02*
X160072000Y-90500000D01*
D11*
%TO.C,RsV2*%
X105131600Y-95251241D02*
X105131600Y-94943959D01*
X105891600Y-95251241D02*
X105891600Y-94943959D01*
D13*
%TO.C,IC202*%
X174130000Y-136343000D02*
G75*
G03*
X173880000Y-136343000I-125000J0D01*
G01*
X173880000Y-136343000D02*
G75*
G03*
X174130000Y-136343000I125000J0D01*
G01*
D11*
%TO.C,R405*%
X178455641Y-78612000D02*
X178148359Y-78612000D01*
X178455641Y-77852000D02*
X178148359Y-77852000D01*
%TO.C,RsA2*%
X101374836Y-94362600D02*
X101828964Y-94362600D01*
X101374836Y-95832600D02*
X101828964Y-95832600D01*
%TO.C,C207*%
X168423000Y-122027836D02*
X168423000Y-121812164D01*
X169143000Y-122027836D02*
X169143000Y-121812164D01*
%TO.C,R612*%
X149275641Y-83580000D02*
X148968359Y-83580000D01*
X149275641Y-82820000D02*
X148968359Y-82820000D01*
%TO.C,C212*%
X172330164Y-129561000D02*
X172545836Y-129561000D01*
X172330164Y-130281000D02*
X172545836Y-130281000D01*
%TO.C,R611*%
X152275641Y-83580000D02*
X151968359Y-83580000D01*
X152275641Y-82820000D02*
X151968359Y-82820000D01*
D14*
%TO.C,IC301*%
X113872500Y-101688500D02*
G75*
G03*
X113547500Y-101688500I-162500J0D01*
G01*
X113547500Y-101688500D02*
G75*
G03*
X113872500Y-101688500I162500J0D01*
G01*
D11*
%TO.C,R1L2*%
X110362000Y-137770359D02*
X110362000Y-138077641D01*
X109602000Y-137770359D02*
X109602000Y-138077641D01*
%TO.C,RsV1*%
X105639500Y-108558359D02*
X105639500Y-108865641D01*
X104879500Y-108558359D02*
X104879500Y-108865641D01*
%TO.C,R308*%
X153516359Y-127128000D02*
X153823641Y-127128000D01*
X153516359Y-127888000D02*
X153823641Y-127888000D01*
%TO.C,C210*%
X172330164Y-126259000D02*
X172545836Y-126259000D01*
X172330164Y-126979000D02*
X172545836Y-126979000D01*
%TO.C,R305*%
X155830000Y-123851641D02*
X155830000Y-123544359D01*
X156590000Y-123851641D02*
X156590000Y-123544359D01*
%TO.C,R202*%
X174725359Y-126874000D02*
X175032641Y-126874000D01*
X174725359Y-127634000D02*
X175032641Y-127634000D01*
%TO.C,R1L3*%
X116458000Y-135736359D02*
X116458000Y-136043641D01*
X115698000Y-135736359D02*
X115698000Y-136043641D01*
%TO.C,R404*%
X175854319Y-78612000D02*
X175547037Y-78612000D01*
X175854319Y-77852000D02*
X175547037Y-77852000D01*
%TO.C,C208*%
X172330164Y-128545000D02*
X172545836Y-128545000D01*
X172330164Y-129265000D02*
X172545836Y-129265000D01*
%TO.C,R306*%
X153823641Y-126618000D02*
X153516359Y-126618000D01*
X153823641Y-125858000D02*
X153516359Y-125858000D01*
%TO.C,IC201*%
X161879500Y-132455000D02*
X162529500Y-132455000D01*
X161879500Y-131805000D02*
X161879500Y-132455000D01*
X169099500Y-131805000D02*
X169099500Y-132455000D01*
X161879500Y-125885000D02*
X161879500Y-125235000D01*
X169099500Y-125885000D02*
X169099500Y-125235000D01*
X161879500Y-125235000D02*
X162529500Y-125235000D01*
X169099500Y-125235000D02*
X168449500Y-125235000D01*
%TO.C,C215*%
X175366000Y-134258164D02*
X175366000Y-134473836D01*
X174646000Y-134258164D02*
X174646000Y-134473836D01*
%TO.C,CLP3*%
X155212000Y-95911252D02*
X155212000Y-94488748D01*
X157032000Y-95911252D02*
X157032000Y-94488748D01*
%TO.C,R502*%
X185319641Y-135508000D02*
X185012359Y-135508000D01*
X185319641Y-134748000D02*
X185012359Y-134748000D01*
%TO.C,RsA4*%
X167539936Y-117629000D02*
X167994064Y-117629000D01*
X167539936Y-119099000D02*
X167994064Y-119099000D01*
%TO.C,C403*%
X113430164Y-108606000D02*
X113645836Y-108606000D01*
X113430164Y-109326000D02*
X113645836Y-109326000D01*
%TO.C,C302*%
X110851836Y-103230000D02*
X110636164Y-103230000D01*
X110851836Y-102510000D02*
X110636164Y-102510000D01*
%TO.C,R609*%
X159275641Y-83580000D02*
X158968359Y-83580000D01*
X159275641Y-82820000D02*
X158968359Y-82820000D01*
%TO.C,R1L4*%
X116458000Y-137768359D02*
X116458000Y-138075641D01*
X115698000Y-137768359D02*
X115698000Y-138075641D01*
%TO.C,R505*%
X167895000Y-114199641D02*
X167895000Y-113892359D01*
X168655000Y-114199641D02*
X168655000Y-113892359D01*
%TO.C,RsA1*%
X99698436Y-107977000D02*
X100152564Y-107977000D01*
X99698436Y-109447000D02*
X100152564Y-109447000D01*
%TO.C,R501*%
X185319641Y-122554000D02*
X185012359Y-122554000D01*
X185319641Y-121794000D02*
X185012359Y-121794000D01*
%TO.C,C502*%
X172954836Y-115803000D02*
X172739164Y-115803000D01*
X172954836Y-115083000D02*
X172739164Y-115083000D01*
%TO.C,R303*%
X114682000Y-104041641D02*
X114682000Y-103734359D01*
X115442000Y-104041641D02*
X115442000Y-103734359D01*
D12*
%TO.C,Q1*%
X108888000Y-135424000D02*
X107888000Y-135424000D01*
X107538000Y-138434000D02*
X107538000Y-135514000D01*
X107538000Y-135514000D02*
X106838000Y-135514000D01*
X106838000Y-138434000D02*
X107538000Y-138434000D01*
X106838000Y-135514000D02*
X106838000Y-138434000D01*
D11*
%TO.C,R307*%
X151484359Y-127128000D02*
X151791641Y-127128000D01*
X151484359Y-127888000D02*
X151791641Y-127888000D01*
D12*
%TO.C,J501*%
X188518000Y-124154500D02*
X189798000Y-124154500D01*
X184548000Y-124154500D02*
X185798000Y-124154500D01*
X189798000Y-133094500D02*
X188518000Y-133094500D01*
X184548000Y-133094500D02*
X185798000Y-133094500D01*
X181298000Y-125374500D02*
G75*
G03*
X181098000Y-125374500I-100000J0D01*
G01*
X181098000Y-125374500D02*
G75*
G03*
X181298000Y-125374500I100000J0D01*
G01*
%TO.C,D501*%
X176892000Y-113637000D02*
X180567000Y-113637000D01*
X177867000Y-112037000D02*
X180567000Y-112037000D01*
D11*
%TO.C,C503*%
X167915000Y-111961836D02*
X167915000Y-111746164D01*
X168635000Y-111961836D02*
X168635000Y-111746164D01*
%TO.C,R605*%
X152275641Y-84780000D02*
X151968359Y-84780000D01*
X152275641Y-84020000D02*
X151968359Y-84020000D01*
D14*
%TO.C,IC302*%
X154848500Y-125142500D02*
G75*
G03*
X154523500Y-125142500I-162500J0D01*
G01*
X154523500Y-125142500D02*
G75*
G03*
X154848500Y-125142500I162500J0D01*
G01*
D11*
%TO.C,RVd1*%
X104115500Y-108556359D02*
X104115500Y-108863641D01*
X103355500Y-108556359D02*
X103355500Y-108863641D01*
%TO.C,R603*%
X159275641Y-84780000D02*
X158968359Y-84780000D01*
X159275641Y-84020000D02*
X158968359Y-84020000D01*
%TO.C,R304*%
X116966000Y-103734359D02*
X116966000Y-104041641D01*
X116206000Y-103734359D02*
X116206000Y-104041641D01*
%TO.C,R409*%
X173100000Y-101573359D02*
X173100000Y-101880641D01*
X172340000Y-101573359D02*
X172340000Y-101880641D01*
%TO.C,C204*%
X162539000Y-135782164D02*
X162539000Y-135997836D01*
X161819000Y-135782164D02*
X161819000Y-135997836D01*
%TO.C,R213*%
X161799000Y-122073641D02*
X161799000Y-121766359D01*
X162559000Y-122073641D02*
X162559000Y-121766359D01*
D12*
%TO.C,Q601*%
X162017000Y-85425000D02*
X162017000Y-86950000D01*
X167072000Y-87300000D02*
X162172000Y-87300000D01*
X162172000Y-87300000D02*
X162172000Y-90500000D01*
X167072000Y-90500000D02*
X167072000Y-87300000D01*
X162172000Y-90500000D02*
X167072000Y-90500000D01*
D11*
%TO.C,C301*%
X114956000Y-98433836D02*
X114956000Y-98218164D01*
X115676000Y-98433836D02*
X115676000Y-98218164D01*
%TO.C,R602*%
X163275641Y-84780000D02*
X162968359Y-84780000D01*
X163275641Y-84020000D02*
X162968359Y-84020000D01*
%TO.C,R214*%
X163831000Y-122073641D02*
X163831000Y-121766359D01*
X164591000Y-122073641D02*
X164591000Y-121766359D01*
%TO.C,RA2*%
X149478000Y-123544359D02*
X149478000Y-123851641D01*
X148718000Y-123544359D02*
X148718000Y-123851641D01*
D15*
%TO.C,Y201*%
X152532000Y-134754000D02*
X152532000Y-134754000D01*
X152632000Y-134754000D02*
X152632000Y-134754000D01*
D12*
X153182000Y-133804000D02*
X153182000Y-133404000D01*
X155682000Y-133804000D02*
X155682000Y-133404000D01*
D15*
X152632000Y-134754000D02*
G75*
G03*
X152532000Y-134754000I-50000J0D01*
G01*
X152532000Y-134754000D02*
G75*
G03*
X152632000Y-134754000I50000J0D01*
G01*
D11*
%TO.C,R610*%
X156275641Y-83580000D02*
X155968359Y-83580000D01*
X156275641Y-82820000D02*
X155968359Y-82820000D01*
%TO.C,C504*%
X161819000Y-111933836D02*
X161819000Y-111718164D01*
X162539000Y-111933836D02*
X162539000Y-111718164D01*
%TO.C,CLP5*%
X148212000Y-95911252D02*
X148212000Y-94488748D01*
X150032000Y-95911252D02*
X150032000Y-94488748D01*
%TO.C,CLP2*%
X158212000Y-95911252D02*
X158212000Y-94488748D01*
X160032000Y-95911252D02*
X160032000Y-94488748D01*
%TO.C,R403*%
X173260641Y-78612000D02*
X172953359Y-78612000D01*
X173260641Y-77852000D02*
X172953359Y-77852000D01*
%TO.C,RsA5*%
X163422064Y-119099000D02*
X162967936Y-119099000D01*
X163422064Y-117629000D02*
X162967936Y-117629000D01*
%TO.C,R203*%
X157860000Y-133450359D02*
X157860000Y-133757641D01*
X157100000Y-133450359D02*
X157100000Y-133757641D01*
%TO.C,R402*%
X113691641Y-113918000D02*
X113384359Y-113918000D01*
X113691641Y-113158000D02*
X113384359Y-113158000D01*
%TO.C,R606*%
X149275641Y-84780000D02*
X148968359Y-84780000D01*
X149275641Y-84020000D02*
X148968359Y-84020000D01*
%TO.C,R608*%
X163275641Y-83580000D02*
X162968359Y-83580000D01*
X163275641Y-82820000D02*
X162968359Y-82820000D01*
%TO.C,C304*%
X155850000Y-121773836D02*
X155850000Y-121558164D01*
X156570000Y-121773836D02*
X156570000Y-121558164D01*
%TO.C,C405*%
X176297000Y-101834836D02*
X176297000Y-101619164D01*
X177017000Y-101834836D02*
X177017000Y-101619164D01*
%TO.C,C201*%
X157840000Y-135401164D02*
X157840000Y-135616836D01*
X157120000Y-135401164D02*
X157120000Y-135616836D01*
%TO.C,C209*%
X172330164Y-125243000D02*
X172545836Y-125243000D01*
X172330164Y-125963000D02*
X172545836Y-125963000D01*
%TO.C,R209*%
X177799000Y-134212359D02*
X177799000Y-134519641D01*
X177039000Y-134212359D02*
X177039000Y-134519641D01*
%TO.C,R504*%
X175159641Y-115823000D02*
X174852359Y-115823000D01*
X175159641Y-115063000D02*
X174852359Y-115063000D01*
%TO.C,CLP0*%
X165212000Y-95911252D02*
X165212000Y-94488748D01*
X167032000Y-95911252D02*
X167032000Y-94488748D01*
%TO.C,R407*%
X180974000Y-101573359D02*
X180974000Y-101880641D01*
X180214000Y-101573359D02*
X180214000Y-101880641D01*
%TO.C,R607*%
X166275641Y-83580000D02*
X165968359Y-83580000D01*
X166275641Y-82820000D02*
X165968359Y-82820000D01*
%TO.C,R503*%
X177793359Y-114997000D02*
X178100641Y-114997000D01*
X177793359Y-115757000D02*
X178100641Y-115757000D01*
%TO.C,R1L5*%
X122808000Y-135736359D02*
X122808000Y-136043641D01*
X122048000Y-135736359D02*
X122048000Y-136043641D01*
%TO.C,AH1*%
X176700678Y-79118000D02*
X174700678Y-79118000D01*
X174700678Y-79118000D02*
X174700678Y-81918000D01*
X176700678Y-81918000D02*
X176700678Y-79118000D01*
X174700678Y-81918000D02*
X176700678Y-81918000D01*
%TO.C,R1L1*%
X110362000Y-135738359D02*
X110362000Y-136045641D01*
X109602000Y-135738359D02*
X109602000Y-136045641D01*
%TO.C,R604*%
X156275641Y-84780000D02*
X155968359Y-84780000D01*
X156275641Y-84020000D02*
X155968359Y-84020000D01*
%TO.C,RA1*%
X108584000Y-100176359D02*
X108584000Y-100483641D01*
X107824000Y-100176359D02*
X107824000Y-100483641D01*
%TO.C,C214*%
X176509000Y-134258164D02*
X176509000Y-134473836D01*
X175789000Y-134258164D02*
X175789000Y-134473836D01*
%TO.C,R601*%
X166275641Y-84780000D02*
X165968359Y-84780000D01*
X166275641Y-84020000D02*
X165968359Y-84020000D01*
%TO.C,CLP1*%
X162212000Y-95911252D02*
X162212000Y-94488748D01*
X164032000Y-95911252D02*
X164032000Y-94488748D01*
D12*
%TO.C,IC502*%
X166950000Y-111276000D02*
X165750000Y-111276000D01*
X165400000Y-114256000D02*
X165400000Y-111296000D01*
X165400000Y-111296000D02*
X164800000Y-111296000D01*
X164800000Y-114256000D02*
X165400000Y-114256000D01*
X164800000Y-111296000D02*
X164800000Y-114256000D01*
D11*
%TO.C,C211*%
X158603836Y-128630000D02*
X158388164Y-128630000D01*
X158603836Y-127910000D02*
X158388164Y-127910000D01*
%TO.C,C203*%
X169143000Y-135795164D02*
X169143000Y-136010836D01*
X168423000Y-135795164D02*
X168423000Y-136010836D01*
%TO.C,C206*%
X166391000Y-122027836D02*
X166391000Y-121812164D01*
X167111000Y-122027836D02*
X167111000Y-121812164D01*
D12*
%TO.C,Q2*%
X114984000Y-135422000D02*
X113984000Y-135422000D01*
X113634000Y-138432000D02*
X113634000Y-135512000D01*
X113634000Y-135512000D02*
X112934000Y-135512000D01*
X112934000Y-138432000D02*
X113634000Y-138432000D01*
X112934000Y-135512000D02*
X112934000Y-138432000D01*
D11*
%TO.C,R201*%
X174725359Y-127890000D02*
X175032641Y-127890000D01*
X174725359Y-128650000D02*
X175032641Y-128650000D01*
%TO.C,R1L6*%
X122808000Y-137768359D02*
X122808000Y-138075641D01*
X122048000Y-137768359D02*
X122048000Y-138075641D01*
%TO.C,AH2*%
X179308000Y-79118000D02*
X177308000Y-79118000D01*
X177308000Y-79118000D02*
X177308000Y-81918000D01*
X179308000Y-81918000D02*
X179308000Y-79118000D01*
X177308000Y-81918000D02*
X179308000Y-81918000D01*
%TO.C,R301*%
X114936000Y-100483641D02*
X114936000Y-100176359D01*
X115696000Y-100483641D02*
X115696000Y-100176359D01*
%TO.C,C501*%
X180379164Y-115017000D02*
X180594836Y-115017000D01*
X180379164Y-115737000D02*
X180594836Y-115737000D01*
%TO.C,C303*%
X151773836Y-126598000D02*
X151558164Y-126598000D01*
X151773836Y-125878000D02*
X151558164Y-125878000D01*
D12*
%TO.C,Q3*%
X121150000Y-135422000D02*
X120150000Y-135422000D01*
X119800000Y-138432000D02*
X119800000Y-135512000D01*
X119800000Y-135512000D02*
X119100000Y-135512000D01*
X119100000Y-138432000D02*
X119800000Y-138432000D01*
X119100000Y-135512000D02*
X119100000Y-138432000D01*
D11*
%TO.C,R302*%
X112929641Y-103250000D02*
X112622359Y-103250000D01*
X112929641Y-102490000D02*
X112622359Y-102490000D01*
%TO.C,CLP4*%
X151212000Y-95911252D02*
X151212000Y-94488748D01*
X153032000Y-95911252D02*
X153032000Y-94488748D01*
%TO.C,AH0*%
X174101000Y-79118000D02*
X172101000Y-79118000D01*
X172101000Y-79118000D02*
X172101000Y-81918000D01*
X174101000Y-81918000D02*
X174101000Y-79118000D01*
X172101000Y-81918000D02*
X174101000Y-81918000D01*
%TO.C,R406*%
X182625000Y-101573359D02*
X182625000Y-101880641D01*
X181865000Y-101573359D02*
X181865000Y-101880641D01*
%TO.C,C202*%
X157120000Y-131806836D02*
X157120000Y-131591164D01*
X157840000Y-131806836D02*
X157840000Y-131591164D01*
D12*
%TO.C,IC501*%
X175733000Y-111337000D02*
X174533000Y-111337000D01*
X174183000Y-114317000D02*
X174183000Y-111357000D01*
X174183000Y-111357000D02*
X173583000Y-111357000D01*
X173583000Y-114317000D02*
X174183000Y-114317000D01*
X173583000Y-111357000D02*
X173583000Y-114317000D01*
%TO.C,J401*%
X188219000Y-85456000D02*
X187789000Y-85456000D01*
X185249000Y-85456000D02*
X172969000Y-85456000D01*
X172969000Y-85456000D02*
X172969000Y-86501000D01*
X172969000Y-94141000D02*
X172969000Y-99456000D01*
X188219000Y-98011000D02*
X188219000Y-85456000D01*
X172969000Y-99456000D02*
X186249000Y-99456000D01*
X188759000Y-94361000D02*
G75*
G03*
X188559000Y-94361000I-100000J0D01*
G01*
X188559000Y-94361000D02*
G75*
G03*
X188759000Y-94361000I100000J0D01*
G01*
%TO.C,Q603*%
X148017000Y-85425000D02*
X148017000Y-86950000D01*
X153072000Y-87300000D02*
X148172000Y-87300000D01*
X148172000Y-87300000D02*
X148172000Y-90500000D01*
X153072000Y-90500000D02*
X153072000Y-87300000D01*
X148172000Y-90500000D02*
X153072000Y-90500000D01*
D11*
%TO.C,C406*%
X177948000Y-101834836D02*
X177948000Y-101619164D01*
X178668000Y-101834836D02*
X178668000Y-101619164D01*
%TO.C,C205*%
X158603836Y-129646000D02*
X158388164Y-129646000D01*
X158603836Y-128926000D02*
X158388164Y-128926000D01*
%TO.C,R506*%
X161799000Y-114199641D02*
X161799000Y-113892359D01*
X162559000Y-114199641D02*
X162559000Y-113892359D01*
D13*
%TO.C,IC402*%
X115063000Y-109864000D02*
G75*
G03*
X114813000Y-109864000I-125000J0D01*
G01*
X114813000Y-109864000D02*
G75*
G03*
X115063000Y-109864000I125000J0D01*
G01*
D11*
%TO.C,R408*%
X174751000Y-101573359D02*
X174751000Y-101880641D01*
X173991000Y-101573359D02*
X173991000Y-101880641D01*
%TD*%
%LPC*%
D16*
%TO.C,Ha1*%
X91000000Y-80000000D03*
%TD*%
D17*
%TO.C,P_CFG1*%
X122936000Y-124221000D03*
D18*
X122936000Y-126761000D03*
X122936000Y-129301000D03*
%TD*%
D17*
%TO.C,J_RST2*%
X115824000Y-143256000D03*
D18*
X118364000Y-143256000D03*
%TD*%
D17*
%TO.C,P_ENHV1*%
X128270000Y-102377000D03*
D18*
X128270000Y-104917000D03*
X128270000Y-107457000D03*
%TD*%
D17*
%TO.C,J_RST1*%
X109474000Y-143256000D03*
D18*
X112014000Y-143256000D03*
%TD*%
D17*
%TO.C,J201*%
X154940000Y-143510000D03*
D18*
X152400000Y-143510000D03*
X149860000Y-143510000D03*
%TD*%
D17*
%TO.C,SC_T_1*%
X141224000Y-112776000D03*
D18*
X143764000Y-112776000D03*
X141224000Y-115316000D03*
X143764000Y-115316000D03*
%TD*%
D17*
%TO.C,PrbV3*%
X158242000Y-115311000D03*
D18*
X158242000Y-112771000D03*
%TD*%
D17*
%TO.C,PrbA3*%
X154559000Y-115316000D03*
D18*
X154559000Y-112776000D03*
%TD*%
D16*
%TO.C,H3*%
X185000000Y-142000000D03*
%TD*%
D17*
%TO.C,PrbV2*%
X114503200Y-92202000D03*
D18*
X114503200Y-89662000D03*
%TD*%
D17*
%TO.C,P_CFG0*%
X126746000Y-124221000D03*
D18*
X126746000Y-126761000D03*
X126746000Y-129301000D03*
%TD*%
D19*
%TO.C,SC1*%
X146045000Y-122682000D03*
D20*
X146045000Y-129482000D03*
%TD*%
D17*
%TO.C,P_ENLV1*%
X123698000Y-102362000D03*
D18*
X123698000Y-104902000D03*
X123698000Y-107442000D03*
%TD*%
D17*
%TO.C,PrbA2*%
X110744000Y-92202000D03*
D18*
X110744000Y-89662000D03*
%TD*%
D17*
%TO.C,USB_SRC1*%
X186182000Y-119380000D03*
D18*
X183642000Y-119380000D03*
%TD*%
D16*
%TO.C,Ha2*%
X133000000Y-80000000D03*
%TD*%
D17*
%TO.C,VRegT2*%
X167640000Y-106045000D03*
D18*
X165100000Y-106045000D03*
X162560000Y-106045000D03*
%TD*%
D17*
%TO.C,P30*%
X119126000Y-89662000D03*
D18*
X119126000Y-92202000D03*
%TD*%
D17*
%TO.C,PrbA1*%
X102362000Y-117861000D03*
D18*
X102362000Y-120401000D03*
%TD*%
D21*
%TO.C,J_SRC1*%
X91737299Y-108752000D03*
X91737299Y-113752000D03*
%TD*%
%TO.C,J_SC1*%
X125944000Y-80815299D03*
X120944000Y-80815299D03*
%TD*%
D17*
%TO.C,P_CFG2*%
X119126000Y-124221000D03*
D18*
X119126000Y-126761000D03*
X119126000Y-129301000D03*
%TD*%
D17*
%TO.C,PrbV1*%
X98552000Y-117856000D03*
D18*
X98552000Y-120396000D03*
%TD*%
D17*
%TO.C,J203*%
X178547000Y-143535000D03*
D18*
X176007000Y-143535000D03*
X173467000Y-143535000D03*
X170927000Y-143535000D03*
X168387000Y-143535000D03*
X165847000Y-143535000D03*
X163307000Y-143535000D03*
X160767000Y-143535000D03*
%TD*%
D16*
%TO.C,H1*%
X143000000Y-80000000D03*
%TD*%
D17*
%TO.C,VRegT1*%
X167625000Y-102362000D03*
D18*
X165085000Y-102362000D03*
X162545000Y-102362000D03*
%TD*%
D16*
%TO.C,Ha3*%
X133000000Y-142000000D03*
%TD*%
D17*
%TO.C,J202*%
X186944000Y-102362000D03*
D18*
X186944000Y-104902000D03*
X186944000Y-107442000D03*
X186944000Y-109982000D03*
X186944000Y-112522000D03*
X186944000Y-115062000D03*
%TD*%
D17*
%TO.C,C_Load1*%
X148971000Y-105918000D03*
D18*
X151511000Y-105918000D03*
%TD*%
D17*
%TO.C,J_AEM_OUT1*%
X134747000Y-89154000D03*
D18*
X134747000Y-91694000D03*
X134747000Y-94234000D03*
%TD*%
D17*
%TO.C,LDO1*%
X133858000Y-102362000D03*
D18*
X133858000Y-104902000D03*
X133858000Y-107442000D03*
%TD*%
D17*
%TO.C,J_AEM_OUT2*%
X141224000Y-89154000D03*
D18*
X141224000Y-91694000D03*
X141224000Y-94234000D03*
%TD*%
D17*
%TO.C,P_SELMPP1*%
X130810000Y-124236000D03*
D18*
X130810000Y-126776000D03*
X130810000Y-129316000D03*
%TD*%
D17*
%TO.C,P_SELMPP0*%
X134620000Y-124236000D03*
D18*
X134620000Y-126776000D03*
X134620000Y-129316000D03*
%TD*%
D17*
%TO.C,PrbA_AEM1*%
X125476000Y-89149000D03*
D18*
X125476000Y-91689000D03*
%TD*%
D21*
%TO.C,J_PRIM2*%
X98084000Y-141434701D03*
X103084000Y-141434701D03*
%TD*%
D17*
%TO.C,PrbV_AEM1*%
X129286000Y-89149000D03*
D18*
X129286000Y-91689000D03*
%TD*%
D17*
%TO.C,R_Load1*%
X148971000Y-102235000D03*
D18*
X151511000Y-102235000D03*
%TD*%
D17*
%TO.C,P26*%
X123698000Y-143256000D03*
D18*
X126238000Y-143256000D03*
%TD*%
D21*
%TO.C,J_SC2*%
X115022000Y-80815299D03*
X110022000Y-80815299D03*
%TD*%
D16*
%TO.C,H4*%
X143000000Y-142000000D03*
%TD*%
D21*
%TO.C,J_BATT2*%
X103124000Y-80815299D03*
X98124000Y-80815299D03*
%TD*%
D16*
%TO.C,H2*%
X185000000Y-80000000D03*
%TD*%
%TO.C,Ha4*%
X91000000Y-142000000D03*
%TD*%
D22*
%TO.C,RVd2*%
X106781600Y-94587600D03*
X106781600Y-95607600D03*
%TD*%
D23*
%TO.C,Q602*%
X155717000Y-86188000D03*
X156987000Y-86188000D03*
X158257000Y-86188000D03*
X159527000Y-86188000D03*
X159527000Y-91612000D03*
X158257000Y-91612000D03*
X156987000Y-91612000D03*
X155717000Y-91612000D03*
%TD*%
D24*
%TO.C,RsV2*%
X105511600Y-95607600D03*
X105511600Y-94587600D03*
%TD*%
D25*
%TO.C,IC202*%
X173355000Y-135893000D03*
X172855000Y-135893000D03*
X172355000Y-135893000D03*
X171855000Y-135893000D03*
X171855000Y-133093000D03*
X172355000Y-133093000D03*
X172855000Y-133093000D03*
X173355000Y-133093000D03*
D26*
X172605000Y-134493000D03*
%TD*%
D27*
%TO.C,R405*%
X178812000Y-78232000D03*
X177792000Y-78232000D03*
%TD*%
D28*
%TO.C,RsA2*%
X100689400Y-95097600D03*
X102514400Y-95097600D03*
%TD*%
D29*
%TO.C,C207*%
X168783000Y-122400000D03*
X168783000Y-121440000D03*
%TD*%
D27*
%TO.C,R612*%
X149632000Y-83200000D03*
X148612000Y-83200000D03*
%TD*%
D30*
%TO.C,C212*%
X171958000Y-129921000D03*
X172918000Y-129921000D03*
%TD*%
D27*
%TO.C,R611*%
X152632000Y-83200000D03*
X151612000Y-83200000D03*
%TD*%
D31*
%TO.C,IC301*%
X112735000Y-101264000D03*
X112085000Y-101264000D03*
X111435000Y-101264000D03*
X110785000Y-101264000D03*
D32*
X109810000Y-100289000D03*
X109810000Y-99639000D03*
X109810000Y-98989000D03*
X109810000Y-98339000D03*
D31*
X110785000Y-97364000D03*
X111435000Y-97364000D03*
X112085000Y-97364000D03*
X112735000Y-97364000D03*
D32*
X113710000Y-98339000D03*
X113710000Y-98989000D03*
X113710000Y-99639000D03*
X113710000Y-100289000D03*
D33*
X111760000Y-99314000D03*
%TD*%
D22*
%TO.C,R1L2*%
X109982000Y-137414000D03*
X109982000Y-138434000D03*
%TD*%
%TO.C,RsV1*%
X105259500Y-108202000D03*
X105259500Y-109222000D03*
%TD*%
D34*
%TO.C,R308*%
X153160000Y-127508000D03*
X154180000Y-127508000D03*
%TD*%
D30*
%TO.C,C210*%
X171958000Y-126619000D03*
X172918000Y-126619000D03*
%TD*%
D24*
%TO.C,R305*%
X156210000Y-124208000D03*
X156210000Y-123188000D03*
%TD*%
D34*
%TO.C,R202*%
X174369000Y-127254000D03*
X175389000Y-127254000D03*
%TD*%
D22*
%TO.C,R1L3*%
X116078000Y-135380000D03*
X116078000Y-136400000D03*
%TD*%
D27*
%TO.C,R404*%
X176210678Y-78232000D03*
X175190678Y-78232000D03*
%TD*%
D30*
%TO.C,C208*%
X171958000Y-128905000D03*
X172918000Y-128905000D03*
%TD*%
D27*
%TO.C,R306*%
X154180000Y-126238000D03*
X153160000Y-126238000D03*
%TD*%
D35*
%TO.C,IC201*%
X168089500Y-132282500D03*
X167689500Y-132282500D03*
X167289500Y-132282500D03*
X166889500Y-132282500D03*
X166489500Y-132282500D03*
X166089500Y-132282500D03*
X165689500Y-132282500D03*
X165289500Y-132282500D03*
X164889500Y-132282500D03*
X164489500Y-132282500D03*
X164089500Y-132282500D03*
X163689500Y-132282500D03*
X163289500Y-132282500D03*
X162889500Y-132282500D03*
D36*
X162052000Y-131445000D03*
X162052000Y-131045000D03*
X162052000Y-130645000D03*
X162052000Y-130245000D03*
X162052000Y-129845000D03*
X162052000Y-129445000D03*
X162052000Y-129045000D03*
X162052000Y-128645000D03*
X162052000Y-128245000D03*
X162052000Y-127845000D03*
X162052000Y-127445000D03*
X162052000Y-127045000D03*
X162052000Y-126645000D03*
X162052000Y-126245000D03*
D35*
X162889500Y-125407500D03*
X163289500Y-125407500D03*
X163689500Y-125407500D03*
X164089500Y-125407500D03*
X164489500Y-125407500D03*
X164889500Y-125407500D03*
X165289500Y-125407500D03*
X165689500Y-125407500D03*
X166089500Y-125407500D03*
X166489500Y-125407500D03*
X166889500Y-125407500D03*
X167289500Y-125407500D03*
X167689500Y-125407500D03*
X168089500Y-125407500D03*
D36*
X168927000Y-126245000D03*
X168927000Y-126645000D03*
X168927000Y-127045000D03*
X168927000Y-127445000D03*
X168927000Y-127845000D03*
X168927000Y-128245000D03*
X168927000Y-128645000D03*
X168927000Y-129045000D03*
X168927000Y-129445000D03*
X168927000Y-129845000D03*
X168927000Y-130245000D03*
X168927000Y-130645000D03*
X168927000Y-131045000D03*
X168927000Y-131445000D03*
D37*
X165489500Y-128845000D03*
%TD*%
D38*
%TO.C,C215*%
X175006000Y-133886000D03*
X175006000Y-134846000D03*
%TD*%
D39*
%TO.C,CLP3*%
X156122000Y-96675000D03*
X156122000Y-93725000D03*
%TD*%
D27*
%TO.C,R502*%
X185676000Y-135128000D03*
X184656000Y-135128000D03*
%TD*%
D28*
%TO.C,RsA4*%
X166854500Y-118364000D03*
X168679500Y-118364000D03*
%TD*%
D30*
%TO.C,C403*%
X113058000Y-108966000D03*
X114018000Y-108966000D03*
%TD*%
D40*
%TO.C,C302*%
X111224000Y-102870000D03*
X110264000Y-102870000D03*
%TD*%
D27*
%TO.C,R609*%
X159632000Y-83200000D03*
X158612000Y-83200000D03*
%TD*%
D22*
%TO.C,R1L4*%
X116078000Y-137412000D03*
X116078000Y-138432000D03*
%TD*%
D24*
%TO.C,R505*%
X168275000Y-114556000D03*
X168275000Y-113536000D03*
%TD*%
D28*
%TO.C,RsA1*%
X99013000Y-108712000D03*
X100838000Y-108712000D03*
%TD*%
D27*
%TO.C,R501*%
X185676000Y-122174000D03*
X184656000Y-122174000D03*
%TD*%
D40*
%TO.C,C502*%
X173327000Y-115443000D03*
X172367000Y-115443000D03*
%TD*%
D24*
%TO.C,R303*%
X115062000Y-104398000D03*
X115062000Y-103378000D03*
%TD*%
D41*
%TO.C,Q1*%
X108388000Y-136024000D03*
X108388000Y-137924000D03*
X105988000Y-136974000D03*
%TD*%
D34*
%TO.C,R307*%
X151128000Y-127508000D03*
X152148000Y-127508000D03*
%TD*%
D42*
%TO.C,J501*%
X183518000Y-125734500D03*
X183518000Y-131514500D03*
D43*
X182443000Y-125424500D03*
X182443000Y-126224500D03*
D44*
X182443000Y-127374500D03*
X182443000Y-128374500D03*
X182443000Y-128874500D03*
X182443000Y-129874500D03*
D43*
X182443000Y-131824500D03*
X182443000Y-131024500D03*
D44*
X182443000Y-130374500D03*
X182443000Y-129374500D03*
X182443000Y-127874500D03*
X182443000Y-126874500D03*
D45*
X183018000Y-124304500D03*
X183018000Y-132944500D03*
D46*
X187198000Y-124304500D03*
X187198000Y-132944500D03*
%TD*%
D47*
%TO.C,D501*%
X177417000Y-112837000D03*
X181017000Y-112837000D03*
%TD*%
D29*
%TO.C,C503*%
X168275000Y-112334000D03*
X168275000Y-111374000D03*
%TD*%
D27*
%TO.C,R605*%
X152632000Y-84400000D03*
X151612000Y-84400000D03*
%TD*%
D31*
%TO.C,IC302*%
X153711000Y-124718000D03*
X153061000Y-124718000D03*
X152411000Y-124718000D03*
X151761000Y-124718000D03*
D32*
X150786000Y-123743000D03*
X150786000Y-123093000D03*
X150786000Y-122443000D03*
X150786000Y-121793000D03*
D31*
X151761000Y-120818000D03*
X152411000Y-120818000D03*
X153061000Y-120818000D03*
X153711000Y-120818000D03*
D32*
X154686000Y-121793000D03*
X154686000Y-122443000D03*
X154686000Y-123093000D03*
X154686000Y-123743000D03*
D33*
X152736000Y-122768000D03*
%TD*%
D22*
%TO.C,RVd1*%
X103735500Y-108200000D03*
X103735500Y-109220000D03*
%TD*%
D27*
%TO.C,R603*%
X159632000Y-84400000D03*
X158612000Y-84400000D03*
%TD*%
D22*
%TO.C,R304*%
X116586000Y-103378000D03*
X116586000Y-104398000D03*
%TD*%
%TO.C,R409*%
X172720000Y-101217000D03*
X172720000Y-102237000D03*
%TD*%
D38*
%TO.C,C204*%
X162179000Y-135410000D03*
X162179000Y-136370000D03*
%TD*%
D24*
%TO.C,R213*%
X162179000Y-122430000D03*
X162179000Y-121410000D03*
%TD*%
D23*
%TO.C,Q601*%
X162717000Y-86188000D03*
X163987000Y-86188000D03*
X165257000Y-86188000D03*
X166527000Y-86188000D03*
X166527000Y-91612000D03*
X165257000Y-91612000D03*
X163987000Y-91612000D03*
X162717000Y-91612000D03*
%TD*%
D29*
%TO.C,C301*%
X115316000Y-98806000D03*
X115316000Y-97846000D03*
%TD*%
D27*
%TO.C,R602*%
X163632000Y-84400000D03*
X162612000Y-84400000D03*
%TD*%
D24*
%TO.C,R214*%
X164211000Y-122430000D03*
X164211000Y-121410000D03*
%TD*%
D22*
%TO.C,RA2*%
X149098000Y-123188000D03*
X149098000Y-124208000D03*
%TD*%
D48*
%TO.C,Y201*%
X153557000Y-134754000D03*
X153557000Y-132454000D03*
X155307000Y-132454000D03*
X155307000Y-134754000D03*
%TD*%
D27*
%TO.C,R610*%
X156632000Y-83200000D03*
X155612000Y-83200000D03*
%TD*%
D29*
%TO.C,C504*%
X162179000Y-112306000D03*
X162179000Y-111346000D03*
%TD*%
D39*
%TO.C,CLP5*%
X149122000Y-96675000D03*
X149122000Y-93725000D03*
%TD*%
%TO.C,CLP2*%
X159122000Y-96675000D03*
X159122000Y-93725000D03*
%TD*%
D27*
%TO.C,R403*%
X173617000Y-78232000D03*
X172597000Y-78232000D03*
%TD*%
D49*
%TO.C,RsA5*%
X164107500Y-118364000D03*
X162282500Y-118364000D03*
%TD*%
D22*
%TO.C,R203*%
X157480000Y-133094000D03*
X157480000Y-134114000D03*
%TD*%
D27*
%TO.C,R402*%
X114048000Y-113538000D03*
X113028000Y-113538000D03*
%TD*%
%TO.C,R606*%
X149632000Y-84400000D03*
X148612000Y-84400000D03*
%TD*%
%TO.C,R608*%
X163632000Y-83200000D03*
X162612000Y-83200000D03*
%TD*%
D29*
%TO.C,C304*%
X156210000Y-122146000D03*
X156210000Y-121186000D03*
%TD*%
%TO.C,C405*%
X176657000Y-102207000D03*
X176657000Y-101247000D03*
%TD*%
D38*
%TO.C,C201*%
X157480000Y-135029000D03*
X157480000Y-135989000D03*
%TD*%
D30*
%TO.C,C209*%
X171958000Y-125603000D03*
X172918000Y-125603000D03*
%TD*%
D22*
%TO.C,R209*%
X177419000Y-133856000D03*
X177419000Y-134876000D03*
%TD*%
D27*
%TO.C,R504*%
X175516000Y-115443000D03*
X174496000Y-115443000D03*
%TD*%
D39*
%TO.C,CLP0*%
X166122000Y-96675000D03*
X166122000Y-93725000D03*
%TD*%
D22*
%TO.C,R407*%
X180594000Y-101217000D03*
X180594000Y-102237000D03*
%TD*%
D27*
%TO.C,R607*%
X166632000Y-83200000D03*
X165612000Y-83200000D03*
%TD*%
D34*
%TO.C,R503*%
X177437000Y-115377000D03*
X178457000Y-115377000D03*
%TD*%
D22*
%TO.C,R1L5*%
X122428000Y-135380000D03*
X122428000Y-136400000D03*
%TD*%
D50*
%TO.C,AH1*%
X175700678Y-79793000D03*
D51*
X175700678Y-81243000D03*
%TD*%
D22*
%TO.C,R1L1*%
X109982000Y-135382000D03*
X109982000Y-136402000D03*
%TD*%
D27*
%TO.C,R604*%
X156632000Y-84400000D03*
X155612000Y-84400000D03*
%TD*%
D22*
%TO.C,RA1*%
X108204000Y-99820000D03*
X108204000Y-100840000D03*
%TD*%
D38*
%TO.C,C214*%
X176149000Y-133886000D03*
X176149000Y-134846000D03*
%TD*%
D27*
%TO.C,R601*%
X166632000Y-84400000D03*
X165612000Y-84400000D03*
%TD*%
D39*
%TO.C,CLP1*%
X163122000Y-96675000D03*
X163122000Y-93725000D03*
%TD*%
D52*
%TO.C,IC502*%
X166350000Y-111826000D03*
X166350000Y-112776000D03*
X166350000Y-113726000D03*
X163850000Y-113726000D03*
X163850000Y-111826000D03*
%TD*%
D40*
%TO.C,C211*%
X158976000Y-128270000D03*
X158016000Y-128270000D03*
%TD*%
D38*
%TO.C,C203*%
X168783000Y-135423000D03*
X168783000Y-136383000D03*
%TD*%
D29*
%TO.C,C206*%
X166751000Y-122400000D03*
X166751000Y-121440000D03*
%TD*%
D41*
%TO.C,Q2*%
X114484000Y-136022000D03*
X114484000Y-137922000D03*
X112084000Y-136972000D03*
%TD*%
D34*
%TO.C,R201*%
X174369000Y-128270000D03*
X175389000Y-128270000D03*
%TD*%
D22*
%TO.C,R1L6*%
X122428000Y-137412000D03*
X122428000Y-138432000D03*
%TD*%
D50*
%TO.C,AH2*%
X178308000Y-79793000D03*
D51*
X178308000Y-81243000D03*
%TD*%
D24*
%TO.C,R301*%
X115316000Y-100840000D03*
X115316000Y-99820000D03*
%TD*%
D30*
%TO.C,C501*%
X180007000Y-115377000D03*
X180967000Y-115377000D03*
%TD*%
D40*
%TO.C,C303*%
X152146000Y-126238000D03*
X151186000Y-126238000D03*
%TD*%
D41*
%TO.C,Q3*%
X120650000Y-136022000D03*
X120650000Y-137922000D03*
X118250000Y-136972000D03*
%TD*%
D27*
%TO.C,R302*%
X113286000Y-102870000D03*
X112266000Y-102870000D03*
%TD*%
D39*
%TO.C,CLP4*%
X152122000Y-96675000D03*
X152122000Y-93725000D03*
%TD*%
D50*
%TO.C,AH0*%
X173101000Y-79793000D03*
D51*
X173101000Y-81243000D03*
%TD*%
D22*
%TO.C,R406*%
X182245000Y-101217000D03*
X182245000Y-102237000D03*
%TD*%
D29*
%TO.C,C202*%
X157480000Y-132179000D03*
X157480000Y-131219000D03*
%TD*%
D52*
%TO.C,IC501*%
X175133000Y-111887000D03*
X175133000Y-112837000D03*
X175133000Y-113787000D03*
X172633000Y-113787000D03*
X172633000Y-111887000D03*
%TD*%
D53*
%TO.C,J401*%
X186519000Y-85881000D03*
X187519000Y-99031000D03*
D54*
X173369000Y-87421000D03*
D55*
X173369000Y-93171000D03*
D56*
X184229000Y-94361000D03*
X183829000Y-93261000D03*
X184229000Y-92161000D03*
X184429000Y-91061000D03*
X184229000Y-89961000D03*
X184429000Y-88861000D03*
X184229000Y-87761000D03*
X184229000Y-86661000D03*
D57*
X172999000Y-88871000D03*
%TD*%
D23*
%TO.C,Q603*%
X148717000Y-86188000D03*
X149987000Y-86188000D03*
X151257000Y-86188000D03*
X152527000Y-86188000D03*
X152527000Y-91612000D03*
X151257000Y-91612000D03*
X149987000Y-91612000D03*
X148717000Y-91612000D03*
%TD*%
D29*
%TO.C,C406*%
X178308000Y-102207000D03*
X178308000Y-101247000D03*
%TD*%
D40*
%TO.C,C205*%
X158976000Y-129286000D03*
X158016000Y-129286000D03*
%TD*%
D24*
%TO.C,R506*%
X162179000Y-114556000D03*
X162179000Y-113536000D03*
%TD*%
D58*
%TO.C,IC402*%
X114588000Y-110514000D03*
X114588000Y-111014000D03*
X114588000Y-111514000D03*
X114588000Y-112014000D03*
X112488000Y-112014000D03*
X112488000Y-111514000D03*
X112488000Y-111014000D03*
X112488000Y-110514000D03*
D59*
X113538000Y-111264000D03*
%TD*%
D22*
%TO.C,R408*%
X174371000Y-101217000D03*
X174371000Y-102237000D03*
%TD*%
%LPD*%
M02*
