%TF.GenerationSoftware,KiCad,Pcbnew,7.0.10*%
%TF.CreationDate,2024-05-16T19:43:26+02:00*%
%TF.ProjectId,SolarEnergyManager_v1.0,536f6c61-7245-46e6-9572-67794d616e61,rev?*%
%TF.SameCoordinates,Original*%
%TF.FileFunction,Soldermask,Top*%
%TF.FilePolarity,Negative*%
%FSLAX46Y46*%
G04 Gerber Fmt 4.6, Leading zero omitted, Abs format (unit mm)*
G04 Created by KiCad (PCBNEW 7.0.10) date 2024-05-16 19:43:26*
%MOMM*%
%LPD*%
G01*
G04 APERTURE LIST*
G04 Aperture macros list*
%AMRoundRect*
0 Rectangle with rounded corners*
0 $1 Rounding radius*
0 $2 $3 $4 $5 $6 $7 $8 $9 X,Y pos of 4 corners*
0 Add a 4 corners polygon primitive as box body*
4,1,4,$2,$3,$4,$5,$6,$7,$8,$9,$2,$3,0*
0 Add four circle primitives for the rounded corners*
1,1,$1+$1,$2,$3*
1,1,$1+$1,$4,$5*
1,1,$1+$1,$6,$7*
1,1,$1+$1,$8,$9*
0 Add four rect primitives between the rounded corners*
20,1,$1+$1,$2,$3,$4,$5,0*
20,1,$1+$1,$4,$5,$6,$7,0*
20,1,$1+$1,$6,$7,$8,$9,0*
20,1,$1+$1,$8,$9,$2,$3,0*%
G04 Aperture macros list end*
%ADD10C,6.400000*%
%ADD11RoundRect,0.250000X0.262500X0.450000X-0.262500X0.450000X-0.262500X-0.450000X0.262500X-0.450000X0*%
%ADD12R,1.700000X1.700000*%
%ADD13O,1.700000X1.700000*%
%ADD14RoundRect,0.225000X-0.225000X-0.250000X0.225000X-0.250000X0.225000X0.250000X-0.225000X0.250000X0*%
%ADD15RoundRect,0.135000X-0.135000X-0.185000X0.135000X-0.185000X0.135000X0.185000X-0.135000X0.185000X0*%
%ADD16RoundRect,0.147500X-0.147500X-0.172500X0.147500X-0.172500X0.147500X0.172500X-0.147500X0.172500X0*%
%ADD17RoundRect,0.250000X-0.450000X0.262500X-0.450000X-0.262500X0.450000X-0.262500X0.450000X0.262500X0*%
%ADD18RoundRect,0.200000X0.200000X0.275000X-0.200000X0.275000X-0.200000X-0.275000X0.200000X-0.275000X0*%
%ADD19RoundRect,0.200000X0.275000X-0.200000X0.275000X0.200000X-0.275000X0.200000X-0.275000X-0.200000X0*%
%ADD20R,0.700000X1.525000*%
%ADD21RoundRect,0.200000X-0.200000X-0.275000X0.200000X-0.275000X0.200000X0.275000X-0.200000X0.275000X0*%
%ADD22RoundRect,0.250000X-0.262500X-0.450000X0.262500X-0.450000X0.262500X0.450000X-0.262500X0.450000X0*%
%ADD23RoundRect,0.147500X0.147500X0.172500X-0.147500X0.172500X-0.147500X-0.172500X0.147500X-0.172500X0*%
%ADD24RoundRect,0.135000X0.135000X0.185000X-0.135000X0.185000X-0.135000X-0.185000X0.135000X-0.185000X0*%
%ADD25RoundRect,0.218750X-0.218750X-0.256250X0.218750X-0.256250X0.218750X0.256250X-0.218750X0.256250X0*%
%ADD26R,1.050000X0.350000*%
%ADD27R,0.350000X1.050000*%
%ADD28R,4.200000X4.200000*%
%ADD29RoundRect,0.140000X-0.140000X-0.170000X0.140000X-0.170000X0.140000X0.170000X-0.140000X0.170000X0*%
%ADD30R,0.750000X1.000000*%
%ADD31R,0.300000X1.000000*%
%ADD32R,1.000000X0.300000*%
%ADD33R,3.250000X3.250000*%
%ADD34R,1.600000X1.600000*%
%ADD35C,1.600000*%
%ADD36RoundRect,0.225000X0.225000X0.250000X-0.225000X0.250000X-0.225000X-0.250000X0.225000X-0.250000X0*%
%ADD37RoundRect,0.250000X-0.325000X-0.650000X0.325000X-0.650000X0.325000X0.650000X-0.325000X0.650000X0*%
%ADD38R,0.700000X1.600000*%
%ADD39RoundRect,0.140000X0.140000X0.170000X-0.140000X0.170000X-0.140000X-0.170000X0.140000X-0.170000X0*%
%ADD40R,3.505200X0.990600*%
%ADD41R,3.403600X1.498600*%
%ADD42RoundRect,0.140000X-0.170000X0.140000X-0.170000X-0.140000X0.170000X-0.140000X0.170000X0.140000X0*%
%ADD43R,1.150000X3.600000*%
%ADD44RoundRect,0.135000X-0.185000X0.135000X-0.185000X-0.135000X0.185000X-0.135000X0.185000X0.135000X0*%
%ADD45C,1.803400*%
%ADD46R,1.050000X0.750000*%
%ADD47RoundRect,0.135000X0.185000X-0.135000X0.185000X0.135000X-0.185000X0.135000X-0.185000X-0.135000X0*%
%ADD48RoundRect,0.225000X-0.250000X0.225000X-0.250000X-0.225000X0.250000X-0.225000X0.250000X0.225000X0*%
%ADD49C,0.650000*%
%ADD50O,2.304000X1.204000*%
%ADD51RoundRect,0.301000X-0.701000X0.301000X-0.701000X-0.301000X0.701000X-0.301000X0.701000X0.301000X0*%
G04 APERTURE END LIST*
D10*
%TO.C,Ha1*%
X91000000Y-80000000D03*
%TD*%
D11*
%TO.C,RLS6*%
X165504500Y-98298000D03*
X163679500Y-98298000D03*
%TD*%
D12*
%TO.C,P_CFG1*%
X122936000Y-124221000D03*
D13*
X122936000Y-126761000D03*
X122936000Y-129301000D03*
%TD*%
D14*
%TO.C,CHV1*%
X118351000Y-108712000D03*
X119901000Y-108712000D03*
%TD*%
D15*
%TO.C,R621*%
X155612000Y-83200000D03*
X156632000Y-83200000D03*
%TD*%
D16*
%TO.C,USB_LED1*%
X175283000Y-115316000D03*
X176253000Y-115316000D03*
%TD*%
D17*
%TO.C,RLS2*%
X156122000Y-93987500D03*
X156122000Y-95812500D03*
%TD*%
D18*
%TO.C,R7*%
X126555000Y-140208000D03*
X124905000Y-140208000D03*
%TD*%
D19*
%TO.C,R26*%
X122936000Y-140271000D03*
X122936000Y-138621000D03*
%TD*%
D12*
%TO.C,J_RST2*%
X115824000Y-143256000D03*
D13*
X118364000Y-143256000D03*
%TD*%
D12*
%TO.C,P_ENHV1*%
X128270000Y-102377000D03*
D13*
X128270000Y-104917000D03*
X128270000Y-107457000D03*
%TD*%
D20*
%TO.C,Q606*%
X166527000Y-86188000D03*
X165257000Y-86188000D03*
X163987000Y-86188000D03*
X162717000Y-86188000D03*
X162717000Y-91612000D03*
X163987000Y-91612000D03*
X165257000Y-91612000D03*
X166527000Y-91612000D03*
%TD*%
D12*
%TO.C,J_RST1*%
X109474000Y-143256000D03*
D13*
X112014000Y-143256000D03*
%TD*%
D12*
%TO.C,J201*%
X154940000Y-143510000D03*
D13*
X152400000Y-143510000D03*
X149860000Y-143510000D03*
%TD*%
D21*
%TO.C,R5*%
X117793000Y-102108000D03*
X119443000Y-102108000D03*
%TD*%
D22*
%TO.C,RsA3*%
X146788500Y-112776000D03*
X148613500Y-112776000D03*
%TD*%
D23*
%TO.C,D201*%
X158981000Y-129032000D03*
X158011000Y-129032000D03*
%TD*%
D15*
%TO.C,R620*%
X151612000Y-83200000D03*
X152632000Y-83200000D03*
%TD*%
D12*
%TO.C,SC_T_1*%
X141224000Y-112776000D03*
D13*
X143764000Y-112776000D03*
X141224000Y-115316000D03*
X143764000Y-115316000D03*
%TD*%
D24*
%TO.C,R401*%
X177548000Y-110490000D03*
X176528000Y-110490000D03*
%TD*%
D12*
%TO.C,PrbV3*%
X158242000Y-115311000D03*
D13*
X158242000Y-112771000D03*
%TD*%
D15*
%TO.C,R616*%
X158612000Y-84400000D03*
X159632000Y-84400000D03*
%TD*%
D17*
%TO.C,RLS5*%
X166122000Y-93987500D03*
X166122000Y-95812500D03*
%TD*%
D25*
%TO.C,LBUCK1*%
X113258500Y-117094000D03*
X114833500Y-117094000D03*
%TD*%
D17*
%TO.C,RLS3*%
X159122000Y-93987500D03*
X159122000Y-95812500D03*
%TD*%
D24*
%TO.C,R212*%
X169674000Y-132080000D03*
X168654000Y-132080000D03*
%TD*%
D26*
%TO.C,IC403*%
X171476000Y-84100000D03*
X171476000Y-84750000D03*
X171476000Y-85400000D03*
X171476000Y-86050000D03*
X171476000Y-86700000D03*
X171476000Y-87350000D03*
X171476000Y-88000000D03*
D27*
X172376000Y-88900000D03*
X173026000Y-88900000D03*
X173676000Y-88900000D03*
X174326000Y-88900000D03*
X174976000Y-88900000D03*
X175626000Y-88900000D03*
X176276000Y-88900000D03*
D26*
X177176000Y-88000000D03*
X177176000Y-87350000D03*
X177176000Y-86700000D03*
X177176000Y-86050000D03*
X177176000Y-85400000D03*
X177176000Y-84750000D03*
X177176000Y-84100000D03*
D27*
X176276000Y-83200000D03*
X175626000Y-83200000D03*
X174976000Y-83200000D03*
X174326000Y-83200000D03*
X173676000Y-83200000D03*
X173026000Y-83200000D03*
X172376000Y-83200000D03*
D28*
X174326000Y-86050000D03*
%TD*%
D12*
%TO.C,PrbA3*%
X154559000Y-115316000D03*
D13*
X154559000Y-112776000D03*
%TD*%
D29*
%TO.C,C213*%
X177066000Y-118237000D03*
X178026000Y-118237000D03*
%TD*%
D10*
%TO.C,H3*%
X185000000Y-142000000D03*
%TD*%
D30*
%TO.C,S205*%
X170180000Y-138684000D03*
X170180000Y-134184000D03*
X168030000Y-134184000D03*
X168030000Y-138684000D03*
%TD*%
D12*
%TO.C,PrbV2*%
X114503200Y-92202000D03*
D13*
X114503200Y-89662000D03*
%TD*%
D17*
%TO.C,RLS4*%
X163122000Y-93987500D03*
X163122000Y-95812500D03*
%TD*%
D24*
%TO.C,R210*%
X159006000Y-132080000D03*
X157986000Y-132080000D03*
%TD*%
D31*
%TO.C,IC1*%
X112042000Y-113610000D03*
X112542000Y-113610000D03*
X113042000Y-113610000D03*
X113542000Y-113610000D03*
X114042000Y-113610000D03*
X114542000Y-113610000D03*
X115042000Y-113610000D03*
D32*
X115892000Y-112760000D03*
X115892000Y-112260000D03*
X115892000Y-111760000D03*
X115892000Y-111260000D03*
X115892000Y-110760000D03*
X115892000Y-110260000D03*
X115892000Y-109760000D03*
D31*
X115042000Y-108910000D03*
X114542000Y-108910000D03*
X114042000Y-108910000D03*
X113542000Y-108910000D03*
X113042000Y-108910000D03*
X112542000Y-108910000D03*
X112042000Y-108910000D03*
D32*
X111192000Y-109760000D03*
X111192000Y-110260000D03*
X111192000Y-110760000D03*
X111192000Y-111260000D03*
X111192000Y-111760000D03*
X111192000Y-112260000D03*
X111192000Y-112760000D03*
D33*
X113542000Y-111260000D03*
%TD*%
D12*
%TO.C,P_CFG0*%
X126746000Y-124221000D03*
D13*
X126746000Y-126761000D03*
X126746000Y-129301000D03*
%TD*%
D34*
%TO.C,SC1*%
X146045000Y-122682000D03*
D35*
X146045000Y-129482000D03*
%TD*%
D14*
%TO.C,CLV1*%
X118351000Y-111252000D03*
X119901000Y-111252000D03*
%TD*%
D15*
%TO.C,R205*%
X163320000Y-130048000D03*
X164340000Y-130048000D03*
%TD*%
D12*
%TO.C,P_ENLV1*%
X123698000Y-102362000D03*
D13*
X123698000Y-104902000D03*
X123698000Y-107442000D03*
%TD*%
D36*
%TO.C,CSRC1*%
X107967000Y-113546000D03*
X106417000Y-113546000D03*
%TD*%
D23*
%TO.C,VReg_LED1*%
X165712000Y-115316000D03*
X164742000Y-115316000D03*
%TD*%
D30*
%TO.C,S201*%
X178621000Y-124714000D03*
X178621000Y-120214000D03*
X176471000Y-120214000D03*
X176471000Y-124714000D03*
%TD*%
D15*
%TO.C,R204*%
X157986000Y-130048000D03*
X159006000Y-130048000D03*
%TD*%
%TO.C,R617*%
X162612000Y-84400000D03*
X163632000Y-84400000D03*
%TD*%
D12*
%TO.C,PrbA2*%
X110744000Y-92202000D03*
D13*
X110744000Y-89662000D03*
%TD*%
D20*
%TO.C,Q6S12*%
X158369000Y-101301000D03*
X157099000Y-101301000D03*
X155829000Y-101301000D03*
X154559000Y-101301000D03*
X154559000Y-106725000D03*
X155829000Y-106725000D03*
X157099000Y-106725000D03*
X158369000Y-106725000D03*
%TD*%
D37*
%TO.C,CBATT1*%
X102106200Y-91135200D03*
X105056200Y-91135200D03*
%TD*%
D18*
%TO.C,R8*%
X126555000Y-138684000D03*
X124905000Y-138684000D03*
%TD*%
D38*
%TO.C,IC401*%
X175208000Y-108384000D03*
X176478000Y-108384000D03*
X177748000Y-108384000D03*
X179018000Y-108384000D03*
%TD*%
D39*
%TO.C,C402*%
X177518000Y-113030000D03*
X176558000Y-113030000D03*
%TD*%
D23*
%TO.C,D203*%
X169649000Y-129032000D03*
X168679000Y-129032000D03*
%TD*%
D40*
%TO.C,J_BATT1*%
X95157300Y-89169999D03*
X95157300Y-91170001D03*
D41*
X89407299Y-86819999D03*
X89407299Y-93520001D03*
%TD*%
D12*
%TO.C,USB_SRC1*%
X186182000Y-119380000D03*
D13*
X183642000Y-119380000D03*
%TD*%
D10*
%TO.C,Ha2*%
X133000000Y-80000000D03*
%TD*%
D15*
%TO.C,R614*%
X151612000Y-84400000D03*
X152632000Y-84400000D03*
%TD*%
D42*
%TO.C,C404*%
X169926000Y-87023000D03*
X169926000Y-87983000D03*
%TD*%
D15*
%TO.C,R206*%
X168654000Y-130048000D03*
X169674000Y-130048000D03*
%TD*%
D43*
%TO.C,LBOOST1*%
X109429000Y-116848000D03*
X106479000Y-116848000D03*
%TD*%
D12*
%TO.C,VRegT2*%
X167640000Y-106045000D03*
D13*
X165100000Y-106045000D03*
X162560000Y-106045000D03*
%TD*%
D12*
%TO.C,P30*%
X119126000Y-89662000D03*
D13*
X119126000Y-92202000D03*
%TD*%
D40*
%TO.C,J_PRIM1*%
X94996000Y-131095998D03*
X94996000Y-133096000D03*
D41*
X89245999Y-128745998D03*
X89245999Y-135446000D03*
%TD*%
D12*
%TO.C,PrbA1*%
X102362000Y-117861000D03*
D13*
X102362000Y-120401000D03*
%TD*%
D19*
%TO.C,R29*%
X106680000Y-135699000D03*
X106680000Y-134049000D03*
%TD*%
D36*
%TO.C,CBUCK1*%
X114821000Y-118618000D03*
X113271000Y-118618000D03*
%TD*%
D21*
%TO.C,R25*%
X96965000Y-100521000D03*
X98615000Y-100521000D03*
%TD*%
D44*
%TO.C,RVd3*%
X146812000Y-114552000D03*
X146812000Y-115572000D03*
%TD*%
D45*
%TO.C,J_SRC1*%
X91737299Y-108752000D03*
X91737299Y-113752000D03*
%TD*%
D15*
%TO.C,R618*%
X165612000Y-84400000D03*
X166632000Y-84400000D03*
%TD*%
D19*
%TO.C,R4*%
X100330000Y-102108000D03*
X100330000Y-100458000D03*
%TD*%
D15*
%TO.C,R624*%
X165612000Y-83200000D03*
X166632000Y-83200000D03*
%TD*%
D45*
%TO.C,J_SC1*%
X125944000Y-80815299D03*
X120944000Y-80815299D03*
%TD*%
D19*
%TO.C,R3*%
X101854000Y-102108000D03*
X101854000Y-100458000D03*
%TD*%
D12*
%TO.C,P_CFG2*%
X119126000Y-124221000D03*
D13*
X119126000Y-126761000D03*
X119126000Y-129301000D03*
%TD*%
D24*
%TO.C,R211*%
X164340000Y-132080000D03*
X163320000Y-132080000D03*
%TD*%
D15*
%TO.C,R622*%
X158612000Y-83200000D03*
X159632000Y-83200000D03*
%TD*%
D12*
%TO.C,PrbV1*%
X98552000Y-117856000D03*
D13*
X98552000Y-120396000D03*
%TD*%
D15*
%TO.C,R615*%
X155612000Y-84400000D03*
X156632000Y-84400000D03*
%TD*%
D12*
%TO.C,J203*%
X178547000Y-143535000D03*
D13*
X176007000Y-143535000D03*
X173467000Y-143535000D03*
X170927000Y-143535000D03*
X168387000Y-143535000D03*
X165847000Y-143535000D03*
X163307000Y-143535000D03*
X160767000Y-143535000D03*
%TD*%
D30*
%TO.C,S204*%
X164846000Y-138684000D03*
X164846000Y-134184000D03*
X162696000Y-134184000D03*
X162696000Y-138684000D03*
%TD*%
D17*
%TO.C,RLS1*%
X152122000Y-93987500D03*
X152122000Y-95812500D03*
%TD*%
D24*
%TO.C,R207*%
X178056000Y-127254000D03*
X177036000Y-127254000D03*
%TD*%
D15*
%TO.C,R619*%
X148612000Y-83200000D03*
X149632000Y-83200000D03*
%TD*%
D10*
%TO.C,H1*%
X143000000Y-80000000D03*
%TD*%
D46*
%TO.C,D1*%
X111992000Y-137668000D03*
X115592000Y-137668000D03*
%TD*%
D12*
%TO.C,VRegT1*%
X167625000Y-102362000D03*
D13*
X165085000Y-102362000D03*
X162545000Y-102362000D03*
%TD*%
D10*
%TO.C,Ha3*%
X133000000Y-142000000D03*
%TD*%
D15*
%TO.C,R613*%
X148612000Y-84400000D03*
X149632000Y-84400000D03*
%TD*%
D47*
%TO.C,RsV3*%
X148590000Y-115572000D03*
X148590000Y-114552000D03*
%TD*%
D23*
%TO.C,D202*%
X164315000Y-129032000D03*
X163345000Y-129032000D03*
%TD*%
D39*
%TO.C,C401*%
X177518000Y-111760000D03*
X176558000Y-111760000D03*
%TD*%
D12*
%TO.C,J202*%
X186944000Y-102362000D03*
D13*
X186944000Y-104902000D03*
X186944000Y-107442000D03*
X186944000Y-109982000D03*
X186944000Y-112522000D03*
X186944000Y-115062000D03*
%TD*%
D12*
%TO.C,C_Load1*%
X148971000Y-105918000D03*
D13*
X151511000Y-105918000D03*
%TD*%
D12*
%TO.C,J_AEM_OUT1*%
X134747000Y-89154000D03*
D13*
X134747000Y-91694000D03*
X134747000Y-94234000D03*
%TD*%
D12*
%TO.C,LDO1*%
X133858000Y-102362000D03*
D13*
X133858000Y-104902000D03*
X133858000Y-107442000D03*
%TD*%
D12*
%TO.C,J_AEM_OUT2*%
X141224000Y-89154000D03*
D13*
X141224000Y-91694000D03*
X141224000Y-94234000D03*
%TD*%
D12*
%TO.C,P_SELMPP1*%
X130810000Y-124236000D03*
D13*
X130810000Y-126776000D03*
X130810000Y-129316000D03*
%TD*%
D12*
%TO.C,P_SELMPP0*%
X134620000Y-124236000D03*
D13*
X134620000Y-126776000D03*
X134620000Y-129316000D03*
%TD*%
D30*
%TO.C,S202*%
X178680000Y-137026000D03*
X178680000Y-132526000D03*
X176530000Y-132526000D03*
X176530000Y-137026000D03*
%TD*%
D12*
%TO.C,PrbA_AEM1*%
X125476000Y-89149000D03*
D13*
X125476000Y-91689000D03*
%TD*%
D45*
%TO.C,J_PRIM2*%
X98084000Y-141434701D03*
X103084000Y-141434701D03*
%TD*%
D19*
%TO.C,R2*%
X103378000Y-102108000D03*
X103378000Y-100458000D03*
%TD*%
D48*
%TO.C,CBOOST1*%
X111506000Y-117081000D03*
X111506000Y-118631000D03*
%TD*%
D12*
%TO.C,PrbV_AEM1*%
X129286000Y-89149000D03*
D13*
X129286000Y-91689000D03*
%TD*%
D21*
%TO.C,R28*%
X111380000Y-140208000D03*
X113030000Y-140208000D03*
%TD*%
D12*
%TO.C,R_Load1*%
X148971000Y-102235000D03*
D13*
X151511000Y-102235000D03*
%TD*%
D18*
%TO.C,R30*%
X119951000Y-94996000D03*
X118301000Y-94996000D03*
%TD*%
D12*
%TO.C,P26*%
X123698000Y-143256000D03*
D13*
X126238000Y-143256000D03*
%TD*%
D21*
%TO.C,R6*%
X117793000Y-100584000D03*
X119443000Y-100584000D03*
%TD*%
D45*
%TO.C,J_SC2*%
X115022000Y-80815299D03*
X110022000Y-80815299D03*
%TD*%
D30*
%TO.C,S203*%
X159512000Y-138684000D03*
X159512000Y-134184000D03*
X157362000Y-134184000D03*
X157362000Y-138684000D03*
%TD*%
D10*
%TO.C,H4*%
X143000000Y-142000000D03*
%TD*%
D21*
%TO.C,R27*%
X114745000Y-140208000D03*
X116395000Y-140208000D03*
%TD*%
D19*
%TO.C,R1*%
X104902000Y-102108000D03*
X104902000Y-100458000D03*
%TD*%
D20*
%TO.C,Q604*%
X152527000Y-86188000D03*
X151257000Y-86188000D03*
X149987000Y-86188000D03*
X148717000Y-86188000D03*
X148717000Y-91612000D03*
X149987000Y-91612000D03*
X151257000Y-91612000D03*
X152527000Y-91612000D03*
%TD*%
D45*
%TO.C,J_BATT2*%
X103124000Y-80815299D03*
X98124000Y-80815299D03*
%TD*%
D15*
%TO.C,R623*%
X162612000Y-83200000D03*
X163632000Y-83200000D03*
%TD*%
D17*
%TO.C,RLS0*%
X149122000Y-93987500D03*
X149122000Y-95812500D03*
%TD*%
D20*
%TO.C,Q605*%
X159527000Y-86188000D03*
X158257000Y-86188000D03*
X156987000Y-86188000D03*
X155717000Y-86188000D03*
X155717000Y-91612000D03*
X156987000Y-91612000D03*
X158257000Y-91612000D03*
X159527000Y-91612000D03*
%TD*%
D10*
%TO.C,H2*%
X185000000Y-80000000D03*
%TD*%
%TO.C,Ha4*%
X91000000Y-142000000D03*
%TD*%
D15*
%TO.C,R208*%
X176968000Y-139573000D03*
X177988000Y-139573000D03*
%TD*%
D49*
%TO.C,J501*%
X183518000Y-125734500D03*
X183518000Y-131514500D03*
D50*
X183018000Y-124304500D03*
X183018000Y-132944500D03*
D51*
X187198000Y-124304500D03*
X187198000Y-132944500D03*
%TD*%
M02*
