%TF.GenerationSoftware,KiCad,Pcbnew,7.0.10*%
%TF.CreationDate,2024-05-16T19:43:26+02:00*%
%TF.ProjectId,SolarEnergyManager_v1.0,536f6c61-7245-46e6-9572-67794d616e61,rev?*%
%TF.SameCoordinates,Original*%
%TF.FileFunction,Soldermask,Bot*%
%TF.FilePolarity,Negative*%
%FSLAX46Y46*%
G04 Gerber Fmt 4.6, Leading zero omitted, Abs format (unit mm)*
G04 Created by KiCad (PCBNEW 7.0.10) date 2024-05-16 19:43:26*
%MOMM*%
%LPD*%
G01*
G04 APERTURE LIST*
G04 Aperture macros list*
%AMRoundRect*
0 Rectangle with rounded corners*
0 $1 Rounding radius*
0 $2 $3 $4 $5 $6 $7 $8 $9 X,Y pos of 4 corners*
0 Add a 4 corners polygon primitive as box body*
4,1,4,$2,$3,$4,$5,$6,$7,$8,$9,$2,$3,0*
0 Add four circle primitives for the rounded corners*
1,1,$1+$1,$2,$3*
1,1,$1+$1,$4,$5*
1,1,$1+$1,$6,$7*
1,1,$1+$1,$8,$9*
0 Add four rect primitives between the rounded corners*
20,1,$1+$1,$2,$3,$4,$5,0*
20,1,$1+$1,$4,$5,$6,$7,0*
20,1,$1+$1,$6,$7,$8,$9,0*
20,1,$1+$1,$8,$9,$2,$3,0*%
%AMFreePoly0*
4,1,6,1.000000,0.000000,0.500000,-0.750000,-0.500000,-0.750000,-0.500000,0.750000,0.500000,0.750000,1.000000,0.000000,1.000000,0.000000,$1*%
%AMFreePoly1*
4,1,6,0.500000,-0.750000,-0.650000,-0.750000,-0.150000,0.000000,-0.650000,0.750000,0.500000,0.750000,0.500000,-0.750000,0.500000,-0.750000,$1*%
G04 Aperture macros list end*
%ADD10C,6.400000*%
%ADD11R,1.700000X1.700000*%
%ADD12O,1.700000X1.700000*%
%ADD13R,1.600000X1.600000*%
%ADD14C,1.600000*%
%ADD15C,1.803400*%
%ADD16RoundRect,0.135000X-0.185000X0.135000X-0.185000X-0.135000X0.185000X-0.135000X0.185000X0.135000X0*%
%ADD17R,0.700000X1.525000*%
%ADD18RoundRect,0.135000X0.185000X-0.135000X0.185000X0.135000X-0.185000X0.135000X-0.185000X-0.135000X0*%
%ADD19R,0.300000X0.900000*%
%ADD20R,1.650000X0.250000*%
%ADD21RoundRect,0.135000X0.135000X0.185000X-0.135000X0.185000X-0.135000X-0.185000X0.135000X-0.185000X0*%
%ADD22RoundRect,0.250000X-0.262500X-0.450000X0.262500X-0.450000X0.262500X0.450000X-0.262500X0.450000X0*%
%ADD23RoundRect,0.140000X0.170000X-0.140000X0.170000X0.140000X-0.170000X0.140000X-0.170000X-0.140000X0*%
%ADD24RoundRect,0.140000X-0.140000X-0.170000X0.140000X-0.170000X0.140000X0.170000X-0.140000X0.170000X0*%
%ADD25R,0.350000X0.850000*%
%ADD26R,0.850000X0.350000*%
%ADD27R,2.700000X2.700000*%
%ADD28RoundRect,0.135000X-0.135000X-0.185000X0.135000X-0.185000X0.135000X0.185000X-0.135000X0.185000X0*%
%ADD29RoundRect,0.050000X0.050000X-0.387500X0.050000X0.387500X-0.050000X0.387500X-0.050000X-0.387500X0*%
%ADD30RoundRect,0.050000X0.387500X-0.050000X0.387500X0.050000X-0.387500X0.050000X-0.387500X-0.050000X0*%
%ADD31R,3.200000X3.200000*%
%ADD32RoundRect,0.140000X-0.170000X0.140000X-0.170000X-0.140000X0.170000X-0.140000X0.170000X0.140000X0*%
%ADD33RoundRect,0.250000X0.650000X-0.325000X0.650000X0.325000X-0.650000X0.325000X-0.650000X-0.325000X0*%
%ADD34RoundRect,0.140000X0.140000X0.170000X-0.140000X0.170000X-0.140000X-0.170000X0.140000X-0.170000X0*%
%ADD35R,1.000000X0.700000*%
%ADD36C,0.650000*%
%ADD37RoundRect,0.102000X-0.575000X0.300000X-0.575000X-0.300000X0.575000X-0.300000X0.575000X0.300000X0*%
%ADD38RoundRect,0.102000X-0.575000X0.150000X-0.575000X-0.150000X0.575000X-0.150000X0.575000X0.150000X0*%
%ADD39O,2.304000X1.204000*%
%ADD40RoundRect,0.301000X-0.701000X0.301000X-0.701000X-0.301000X0.701000X-0.301000X0.701000X0.301000X0*%
%ADD41R,1.050000X0.750000*%
%ADD42R,1.050000X1.300000*%
%ADD43RoundRect,0.250000X0.262500X0.450000X-0.262500X0.450000X-0.262500X-0.450000X0.262500X-0.450000X0*%
%ADD44FreePoly0,270.000000*%
%ADD45FreePoly1,270.000000*%
%ADD46R,1.200000X0.600000*%
%ADD47RoundRect,0.102000X-0.950000X0.700000X-0.950000X-0.700000X0.950000X-0.700000X0.950000X0.700000X0*%
%ADD48RoundRect,0.102000X-0.700000X0.600000X-0.700000X-0.600000X0.700000X-0.600000X0.700000X0.600000X0*%
%ADD49RoundRect,0.102000X-0.700000X0.650000X-0.700000X-0.650000X0.700000X-0.650000X0.700000X0.650000X0*%
%ADD50RoundRect,0.102000X-0.750000X0.400000X-0.750000X-0.400000X0.750000X-0.400000X0.750000X0.400000X0*%
%ADD51RoundRect,0.102000X-0.520000X0.500000X-0.520000X-0.500000X0.520000X-0.500000X0.520000X0.500000X0*%
%ADD52R,0.700000X0.300000*%
%ADD53R,1.000000X1.700000*%
G04 APERTURE END LIST*
D10*
%TO.C,Ha1*%
X91000000Y-80000000D03*
%TD*%
D11*
%TO.C,P_CFG1*%
X122936000Y-124221000D03*
D12*
X122936000Y-126761000D03*
X122936000Y-129301000D03*
%TD*%
D11*
%TO.C,J_RST2*%
X115824000Y-143256000D03*
D12*
X118364000Y-143256000D03*
%TD*%
D11*
%TO.C,P_ENHV1*%
X128270000Y-102377000D03*
D12*
X128270000Y-104917000D03*
X128270000Y-107457000D03*
%TD*%
D11*
%TO.C,J_RST1*%
X109474000Y-143256000D03*
D12*
X112014000Y-143256000D03*
%TD*%
D11*
%TO.C,J201*%
X154940000Y-143510000D03*
D12*
X152400000Y-143510000D03*
X149860000Y-143510000D03*
%TD*%
D11*
%TO.C,SC_T_1*%
X141224000Y-112776000D03*
D12*
X143764000Y-112776000D03*
X141224000Y-115316000D03*
X143764000Y-115316000D03*
%TD*%
D11*
%TO.C,PrbV3*%
X158242000Y-115311000D03*
D12*
X158242000Y-112771000D03*
%TD*%
D11*
%TO.C,PrbA3*%
X154559000Y-115316000D03*
D12*
X154559000Y-112776000D03*
%TD*%
D10*
%TO.C,H3*%
X185000000Y-142000000D03*
%TD*%
D11*
%TO.C,PrbV2*%
X114503200Y-92202000D03*
D12*
X114503200Y-89662000D03*
%TD*%
D11*
%TO.C,P_CFG0*%
X126746000Y-124221000D03*
D12*
X126746000Y-126761000D03*
X126746000Y-129301000D03*
%TD*%
D13*
%TO.C,SC1*%
X146045000Y-122682000D03*
D14*
X146045000Y-129482000D03*
%TD*%
D11*
%TO.C,P_ENLV1*%
X123698000Y-102362000D03*
D12*
X123698000Y-104902000D03*
X123698000Y-107442000D03*
%TD*%
D11*
%TO.C,PrbA2*%
X110744000Y-92202000D03*
D12*
X110744000Y-89662000D03*
%TD*%
D11*
%TO.C,USB_SRC1*%
X186182000Y-119380000D03*
D12*
X183642000Y-119380000D03*
%TD*%
D10*
%TO.C,Ha2*%
X133000000Y-80000000D03*
%TD*%
D11*
%TO.C,VRegT2*%
X167640000Y-106045000D03*
D12*
X165100000Y-106045000D03*
X162560000Y-106045000D03*
%TD*%
D11*
%TO.C,P30*%
X119126000Y-89662000D03*
D12*
X119126000Y-92202000D03*
%TD*%
D11*
%TO.C,PrbA1*%
X102362000Y-117861000D03*
D12*
X102362000Y-120401000D03*
%TD*%
D15*
%TO.C,J_SRC1*%
X91737299Y-108752000D03*
X91737299Y-113752000D03*
%TD*%
%TO.C,J_SC1*%
X125944000Y-80815299D03*
X120944000Y-80815299D03*
%TD*%
D11*
%TO.C,P_CFG2*%
X119126000Y-124221000D03*
D12*
X119126000Y-126761000D03*
X119126000Y-129301000D03*
%TD*%
D11*
%TO.C,PrbV1*%
X98552000Y-117856000D03*
D12*
X98552000Y-120396000D03*
%TD*%
D11*
%TO.C,J203*%
X178547000Y-143535000D03*
D12*
X176007000Y-143535000D03*
X173467000Y-143535000D03*
X170927000Y-143535000D03*
X168387000Y-143535000D03*
X165847000Y-143535000D03*
X163307000Y-143535000D03*
X160767000Y-143535000D03*
%TD*%
D10*
%TO.C,H1*%
X143000000Y-80000000D03*
%TD*%
D11*
%TO.C,VRegT1*%
X167625000Y-102362000D03*
D12*
X165085000Y-102362000D03*
X162545000Y-102362000D03*
%TD*%
D10*
%TO.C,Ha3*%
X133000000Y-142000000D03*
%TD*%
D11*
%TO.C,J202*%
X186944000Y-102362000D03*
D12*
X186944000Y-104902000D03*
X186944000Y-107442000D03*
X186944000Y-109982000D03*
X186944000Y-112522000D03*
X186944000Y-115062000D03*
%TD*%
D11*
%TO.C,C_Load1*%
X148971000Y-105918000D03*
D12*
X151511000Y-105918000D03*
%TD*%
D11*
%TO.C,J_AEM_OUT1*%
X134747000Y-89154000D03*
D12*
X134747000Y-91694000D03*
X134747000Y-94234000D03*
%TD*%
D11*
%TO.C,LDO1*%
X133858000Y-102362000D03*
D12*
X133858000Y-104902000D03*
X133858000Y-107442000D03*
%TD*%
D11*
%TO.C,J_AEM_OUT2*%
X141224000Y-89154000D03*
D12*
X141224000Y-91694000D03*
X141224000Y-94234000D03*
%TD*%
D11*
%TO.C,P_SELMPP1*%
X130810000Y-124236000D03*
D12*
X130810000Y-126776000D03*
X130810000Y-129316000D03*
%TD*%
D11*
%TO.C,P_SELMPP0*%
X134620000Y-124236000D03*
D12*
X134620000Y-126776000D03*
X134620000Y-129316000D03*
%TD*%
D11*
%TO.C,PrbA_AEM1*%
X125476000Y-89149000D03*
D12*
X125476000Y-91689000D03*
%TD*%
D15*
%TO.C,J_PRIM2*%
X98084000Y-141434701D03*
X103084000Y-141434701D03*
%TD*%
D11*
%TO.C,PrbV_AEM1*%
X129286000Y-89149000D03*
D12*
X129286000Y-91689000D03*
%TD*%
D11*
%TO.C,R_Load1*%
X148971000Y-102235000D03*
D12*
X151511000Y-102235000D03*
%TD*%
D11*
%TO.C,P26*%
X123698000Y-143256000D03*
D12*
X126238000Y-143256000D03*
%TD*%
D15*
%TO.C,J_SC2*%
X115022000Y-80815299D03*
X110022000Y-80815299D03*
%TD*%
D10*
%TO.C,H4*%
X143000000Y-142000000D03*
%TD*%
D15*
%TO.C,J_BATT2*%
X103124000Y-80815299D03*
X98124000Y-80815299D03*
%TD*%
D10*
%TO.C,H2*%
X185000000Y-80000000D03*
%TD*%
%TO.C,Ha4*%
X91000000Y-142000000D03*
%TD*%
D16*
%TO.C,RVd2*%
X106781600Y-94587600D03*
X106781600Y-95607600D03*
%TD*%
D17*
%TO.C,Q602*%
X155717000Y-86188000D03*
X156987000Y-86188000D03*
X158257000Y-86188000D03*
X159527000Y-86188000D03*
X159527000Y-91612000D03*
X158257000Y-91612000D03*
X156987000Y-91612000D03*
X155717000Y-91612000D03*
%TD*%
D18*
%TO.C,RsV2*%
X105511600Y-95607600D03*
X105511600Y-94587600D03*
%TD*%
D19*
%TO.C,IC202*%
X173355000Y-135893000D03*
X172855000Y-135893000D03*
X172355000Y-135893000D03*
X171855000Y-135893000D03*
X171855000Y-133093000D03*
X172355000Y-133093000D03*
X172855000Y-133093000D03*
X173355000Y-133093000D03*
D20*
X172605000Y-134493000D03*
%TD*%
D21*
%TO.C,R405*%
X178812000Y-78232000D03*
X177792000Y-78232000D03*
%TD*%
D22*
%TO.C,RsA2*%
X100689400Y-95097600D03*
X102514400Y-95097600D03*
%TD*%
D23*
%TO.C,C207*%
X168783000Y-122400000D03*
X168783000Y-121440000D03*
%TD*%
D21*
%TO.C,R612*%
X149632000Y-83200000D03*
X148612000Y-83200000D03*
%TD*%
D24*
%TO.C,C212*%
X171958000Y-129921000D03*
X172918000Y-129921000D03*
%TD*%
D21*
%TO.C,R611*%
X152632000Y-83200000D03*
X151612000Y-83200000D03*
%TD*%
D25*
%TO.C,IC301*%
X112735000Y-101264000D03*
X112085000Y-101264000D03*
X111435000Y-101264000D03*
X110785000Y-101264000D03*
D26*
X109810000Y-100289000D03*
X109810000Y-99639000D03*
X109810000Y-98989000D03*
X109810000Y-98339000D03*
D25*
X110785000Y-97364000D03*
X111435000Y-97364000D03*
X112085000Y-97364000D03*
X112735000Y-97364000D03*
D26*
X113710000Y-98339000D03*
X113710000Y-98989000D03*
X113710000Y-99639000D03*
X113710000Y-100289000D03*
D27*
X111760000Y-99314000D03*
%TD*%
D16*
%TO.C,R1L2*%
X109982000Y-137414000D03*
X109982000Y-138434000D03*
%TD*%
%TO.C,RsV1*%
X105259500Y-108202000D03*
X105259500Y-109222000D03*
%TD*%
D28*
%TO.C,R308*%
X153160000Y-127508000D03*
X154180000Y-127508000D03*
%TD*%
D24*
%TO.C,C210*%
X171958000Y-126619000D03*
X172918000Y-126619000D03*
%TD*%
D18*
%TO.C,R305*%
X156210000Y-124208000D03*
X156210000Y-123188000D03*
%TD*%
D28*
%TO.C,R202*%
X174369000Y-127254000D03*
X175389000Y-127254000D03*
%TD*%
D16*
%TO.C,R1L3*%
X116078000Y-135380000D03*
X116078000Y-136400000D03*
%TD*%
D21*
%TO.C,R404*%
X176210678Y-78232000D03*
X175190678Y-78232000D03*
%TD*%
D24*
%TO.C,C208*%
X171958000Y-128905000D03*
X172918000Y-128905000D03*
%TD*%
D21*
%TO.C,R306*%
X154180000Y-126238000D03*
X153160000Y-126238000D03*
%TD*%
D29*
%TO.C,IC201*%
X168089500Y-132282500D03*
X167689500Y-132282500D03*
X167289500Y-132282500D03*
X166889500Y-132282500D03*
X166489500Y-132282500D03*
X166089500Y-132282500D03*
X165689500Y-132282500D03*
X165289500Y-132282500D03*
X164889500Y-132282500D03*
X164489500Y-132282500D03*
X164089500Y-132282500D03*
X163689500Y-132282500D03*
X163289500Y-132282500D03*
X162889500Y-132282500D03*
D30*
X162052000Y-131445000D03*
X162052000Y-131045000D03*
X162052000Y-130645000D03*
X162052000Y-130245000D03*
X162052000Y-129845000D03*
X162052000Y-129445000D03*
X162052000Y-129045000D03*
X162052000Y-128645000D03*
X162052000Y-128245000D03*
X162052000Y-127845000D03*
X162052000Y-127445000D03*
X162052000Y-127045000D03*
X162052000Y-126645000D03*
X162052000Y-126245000D03*
D29*
X162889500Y-125407500D03*
X163289500Y-125407500D03*
X163689500Y-125407500D03*
X164089500Y-125407500D03*
X164489500Y-125407500D03*
X164889500Y-125407500D03*
X165289500Y-125407500D03*
X165689500Y-125407500D03*
X166089500Y-125407500D03*
X166489500Y-125407500D03*
X166889500Y-125407500D03*
X167289500Y-125407500D03*
X167689500Y-125407500D03*
X168089500Y-125407500D03*
D30*
X168927000Y-126245000D03*
X168927000Y-126645000D03*
X168927000Y-127045000D03*
X168927000Y-127445000D03*
X168927000Y-127845000D03*
X168927000Y-128245000D03*
X168927000Y-128645000D03*
X168927000Y-129045000D03*
X168927000Y-129445000D03*
X168927000Y-129845000D03*
X168927000Y-130245000D03*
X168927000Y-130645000D03*
X168927000Y-131045000D03*
X168927000Y-131445000D03*
D31*
X165489500Y-128845000D03*
%TD*%
D32*
%TO.C,C215*%
X175006000Y-133886000D03*
X175006000Y-134846000D03*
%TD*%
D33*
%TO.C,CLP3*%
X156122000Y-96675000D03*
X156122000Y-93725000D03*
%TD*%
D21*
%TO.C,R502*%
X185676000Y-135128000D03*
X184656000Y-135128000D03*
%TD*%
D22*
%TO.C,RsA4*%
X166854500Y-118364000D03*
X168679500Y-118364000D03*
%TD*%
D24*
%TO.C,C403*%
X113058000Y-108966000D03*
X114018000Y-108966000D03*
%TD*%
D34*
%TO.C,C302*%
X111224000Y-102870000D03*
X110264000Y-102870000D03*
%TD*%
D21*
%TO.C,R609*%
X159632000Y-83200000D03*
X158612000Y-83200000D03*
%TD*%
D16*
%TO.C,R1L4*%
X116078000Y-137412000D03*
X116078000Y-138432000D03*
%TD*%
D18*
%TO.C,R505*%
X168275000Y-114556000D03*
X168275000Y-113536000D03*
%TD*%
D22*
%TO.C,RsA1*%
X99013000Y-108712000D03*
X100838000Y-108712000D03*
%TD*%
D21*
%TO.C,R501*%
X185676000Y-122174000D03*
X184656000Y-122174000D03*
%TD*%
D34*
%TO.C,C502*%
X173327000Y-115443000D03*
X172367000Y-115443000D03*
%TD*%
D18*
%TO.C,R303*%
X115062000Y-104398000D03*
X115062000Y-103378000D03*
%TD*%
D35*
%TO.C,Q1*%
X108388000Y-136024000D03*
X108388000Y-137924000D03*
X105988000Y-136974000D03*
%TD*%
D28*
%TO.C,R307*%
X151128000Y-127508000D03*
X152148000Y-127508000D03*
%TD*%
D36*
%TO.C,J501*%
X183518000Y-125734500D03*
X183518000Y-131514500D03*
D37*
X182443000Y-125424500D03*
X182443000Y-126224500D03*
D38*
X182443000Y-127374500D03*
X182443000Y-128374500D03*
X182443000Y-128874500D03*
X182443000Y-129874500D03*
D37*
X182443000Y-131824500D03*
X182443000Y-131024500D03*
D38*
X182443000Y-130374500D03*
X182443000Y-129374500D03*
X182443000Y-127874500D03*
X182443000Y-126874500D03*
D39*
X183018000Y-124304500D03*
X183018000Y-132944500D03*
D40*
X187198000Y-124304500D03*
X187198000Y-132944500D03*
%TD*%
D41*
%TO.C,D501*%
X177417000Y-112837000D03*
X181017000Y-112837000D03*
%TD*%
D23*
%TO.C,C503*%
X168275000Y-112334000D03*
X168275000Y-111374000D03*
%TD*%
D21*
%TO.C,R605*%
X152632000Y-84400000D03*
X151612000Y-84400000D03*
%TD*%
D25*
%TO.C,IC302*%
X153711000Y-124718000D03*
X153061000Y-124718000D03*
X152411000Y-124718000D03*
X151761000Y-124718000D03*
D26*
X150786000Y-123743000D03*
X150786000Y-123093000D03*
X150786000Y-122443000D03*
X150786000Y-121793000D03*
D25*
X151761000Y-120818000D03*
X152411000Y-120818000D03*
X153061000Y-120818000D03*
X153711000Y-120818000D03*
D26*
X154686000Y-121793000D03*
X154686000Y-122443000D03*
X154686000Y-123093000D03*
X154686000Y-123743000D03*
D27*
X152736000Y-122768000D03*
%TD*%
D16*
%TO.C,RVd1*%
X103735500Y-108200000D03*
X103735500Y-109220000D03*
%TD*%
D21*
%TO.C,R603*%
X159632000Y-84400000D03*
X158612000Y-84400000D03*
%TD*%
D16*
%TO.C,R304*%
X116586000Y-103378000D03*
X116586000Y-104398000D03*
%TD*%
%TO.C,R409*%
X172720000Y-101217000D03*
X172720000Y-102237000D03*
%TD*%
D32*
%TO.C,C204*%
X162179000Y-135410000D03*
X162179000Y-136370000D03*
%TD*%
D18*
%TO.C,R213*%
X162179000Y-122430000D03*
X162179000Y-121410000D03*
%TD*%
D17*
%TO.C,Q601*%
X162717000Y-86188000D03*
X163987000Y-86188000D03*
X165257000Y-86188000D03*
X166527000Y-86188000D03*
X166527000Y-91612000D03*
X165257000Y-91612000D03*
X163987000Y-91612000D03*
X162717000Y-91612000D03*
%TD*%
D23*
%TO.C,C301*%
X115316000Y-98806000D03*
X115316000Y-97846000D03*
%TD*%
D21*
%TO.C,R602*%
X163632000Y-84400000D03*
X162612000Y-84400000D03*
%TD*%
D18*
%TO.C,R214*%
X164211000Y-122430000D03*
X164211000Y-121410000D03*
%TD*%
D16*
%TO.C,RA2*%
X149098000Y-123188000D03*
X149098000Y-124208000D03*
%TD*%
D42*
%TO.C,Y201*%
X153557000Y-134754000D03*
X153557000Y-132454000D03*
X155307000Y-132454000D03*
X155307000Y-134754000D03*
%TD*%
D21*
%TO.C,R610*%
X156632000Y-83200000D03*
X155612000Y-83200000D03*
%TD*%
D23*
%TO.C,C504*%
X162179000Y-112306000D03*
X162179000Y-111346000D03*
%TD*%
D33*
%TO.C,CLP5*%
X149122000Y-96675000D03*
X149122000Y-93725000D03*
%TD*%
%TO.C,CLP2*%
X159122000Y-96675000D03*
X159122000Y-93725000D03*
%TD*%
D21*
%TO.C,R403*%
X173617000Y-78232000D03*
X172597000Y-78232000D03*
%TD*%
D43*
%TO.C,RsA5*%
X164107500Y-118364000D03*
X162282500Y-118364000D03*
%TD*%
D16*
%TO.C,R203*%
X157480000Y-133094000D03*
X157480000Y-134114000D03*
%TD*%
D21*
%TO.C,R402*%
X114048000Y-113538000D03*
X113028000Y-113538000D03*
%TD*%
%TO.C,R606*%
X149632000Y-84400000D03*
X148612000Y-84400000D03*
%TD*%
%TO.C,R608*%
X163632000Y-83200000D03*
X162612000Y-83200000D03*
%TD*%
D23*
%TO.C,C304*%
X156210000Y-122146000D03*
X156210000Y-121186000D03*
%TD*%
%TO.C,C405*%
X176657000Y-102207000D03*
X176657000Y-101247000D03*
%TD*%
D32*
%TO.C,C201*%
X157480000Y-135029000D03*
X157480000Y-135989000D03*
%TD*%
D24*
%TO.C,C209*%
X171958000Y-125603000D03*
X172918000Y-125603000D03*
%TD*%
D16*
%TO.C,R209*%
X177419000Y-133856000D03*
X177419000Y-134876000D03*
%TD*%
D21*
%TO.C,R504*%
X175516000Y-115443000D03*
X174496000Y-115443000D03*
%TD*%
D33*
%TO.C,CLP0*%
X166122000Y-96675000D03*
X166122000Y-93725000D03*
%TD*%
D16*
%TO.C,R407*%
X180594000Y-101217000D03*
X180594000Y-102237000D03*
%TD*%
D21*
%TO.C,R607*%
X166632000Y-83200000D03*
X165612000Y-83200000D03*
%TD*%
D28*
%TO.C,R503*%
X177437000Y-115377000D03*
X178457000Y-115377000D03*
%TD*%
D16*
%TO.C,R1L5*%
X122428000Y-135380000D03*
X122428000Y-136400000D03*
%TD*%
D44*
%TO.C,AH1*%
X175700678Y-79793000D03*
D45*
X175700678Y-81243000D03*
%TD*%
D16*
%TO.C,R1L1*%
X109982000Y-135382000D03*
X109982000Y-136402000D03*
%TD*%
D21*
%TO.C,R604*%
X156632000Y-84400000D03*
X155612000Y-84400000D03*
%TD*%
D16*
%TO.C,RA1*%
X108204000Y-99820000D03*
X108204000Y-100840000D03*
%TD*%
D32*
%TO.C,C214*%
X176149000Y-133886000D03*
X176149000Y-134846000D03*
%TD*%
D21*
%TO.C,R601*%
X166632000Y-84400000D03*
X165612000Y-84400000D03*
%TD*%
D33*
%TO.C,CLP1*%
X163122000Y-96675000D03*
X163122000Y-93725000D03*
%TD*%
D46*
%TO.C,IC502*%
X166350000Y-111826000D03*
X166350000Y-112776000D03*
X166350000Y-113726000D03*
X163850000Y-113726000D03*
X163850000Y-111826000D03*
%TD*%
D34*
%TO.C,C211*%
X158976000Y-128270000D03*
X158016000Y-128270000D03*
%TD*%
D32*
%TO.C,C203*%
X168783000Y-135423000D03*
X168783000Y-136383000D03*
%TD*%
D23*
%TO.C,C206*%
X166751000Y-122400000D03*
X166751000Y-121440000D03*
%TD*%
D35*
%TO.C,Q2*%
X114484000Y-136022000D03*
X114484000Y-137922000D03*
X112084000Y-136972000D03*
%TD*%
D28*
%TO.C,R201*%
X174369000Y-128270000D03*
X175389000Y-128270000D03*
%TD*%
D16*
%TO.C,R1L6*%
X122428000Y-137412000D03*
X122428000Y-138432000D03*
%TD*%
D44*
%TO.C,AH2*%
X178308000Y-79793000D03*
D45*
X178308000Y-81243000D03*
%TD*%
D18*
%TO.C,R301*%
X115316000Y-100840000D03*
X115316000Y-99820000D03*
%TD*%
D24*
%TO.C,C501*%
X180007000Y-115377000D03*
X180967000Y-115377000D03*
%TD*%
D34*
%TO.C,C303*%
X152146000Y-126238000D03*
X151186000Y-126238000D03*
%TD*%
D35*
%TO.C,Q3*%
X120650000Y-136022000D03*
X120650000Y-137922000D03*
X118250000Y-136972000D03*
%TD*%
D21*
%TO.C,R302*%
X113286000Y-102870000D03*
X112266000Y-102870000D03*
%TD*%
D33*
%TO.C,CLP4*%
X152122000Y-96675000D03*
X152122000Y-93725000D03*
%TD*%
D44*
%TO.C,AH0*%
X173101000Y-79793000D03*
D45*
X173101000Y-81243000D03*
%TD*%
D16*
%TO.C,R406*%
X182245000Y-101217000D03*
X182245000Y-102237000D03*
%TD*%
D23*
%TO.C,C202*%
X157480000Y-132179000D03*
X157480000Y-131219000D03*
%TD*%
D46*
%TO.C,IC501*%
X175133000Y-111887000D03*
X175133000Y-112837000D03*
X175133000Y-113787000D03*
X172633000Y-113787000D03*
X172633000Y-111887000D03*
%TD*%
D47*
%TO.C,J401*%
X186519000Y-85881000D03*
X187519000Y-99031000D03*
D48*
X173369000Y-87421000D03*
D49*
X173369000Y-93171000D03*
D50*
X184229000Y-94361000D03*
X183829000Y-93261000D03*
X184229000Y-92161000D03*
X184429000Y-91061000D03*
X184229000Y-89961000D03*
X184429000Y-88861000D03*
X184229000Y-87761000D03*
X184229000Y-86661000D03*
D51*
X172999000Y-88871000D03*
%TD*%
D17*
%TO.C,Q603*%
X148717000Y-86188000D03*
X149987000Y-86188000D03*
X151257000Y-86188000D03*
X152527000Y-86188000D03*
X152527000Y-91612000D03*
X151257000Y-91612000D03*
X149987000Y-91612000D03*
X148717000Y-91612000D03*
%TD*%
D23*
%TO.C,C406*%
X178308000Y-102207000D03*
X178308000Y-101247000D03*
%TD*%
D34*
%TO.C,C205*%
X158976000Y-129286000D03*
X158016000Y-129286000D03*
%TD*%
D18*
%TO.C,R506*%
X162179000Y-114556000D03*
X162179000Y-113536000D03*
%TD*%
D52*
%TO.C,IC402*%
X114588000Y-110514000D03*
X114588000Y-111014000D03*
X114588000Y-111514000D03*
X114588000Y-112014000D03*
X112488000Y-112014000D03*
X112488000Y-111514000D03*
X112488000Y-111014000D03*
X112488000Y-110514000D03*
D53*
X113538000Y-111264000D03*
%TD*%
D16*
%TO.C,R408*%
X174371000Y-101217000D03*
X174371000Y-102237000D03*
%TD*%
M02*
