%TF.GenerationSoftware,KiCad,Pcbnew,7.0.10*%
%TF.CreationDate,2024-05-16T19:43:25+02:00*%
%TF.ProjectId,SolarEnergyManager_v1.0,536f6c61-7245-46e6-9572-67794d616e61,rev?*%
%TF.SameCoordinates,Original*%
%TF.FileFunction,Paste,Bot*%
%TF.FilePolarity,Positive*%
%FSLAX46Y46*%
G04 Gerber Fmt 4.6, Leading zero omitted, Abs format (unit mm)*
G04 Created by KiCad (PCBNEW 7.0.10) date 2024-05-16 19:43:25*
%MOMM*%
%LPD*%
G01*
G04 APERTURE LIST*
G04 Aperture macros list*
%AMRoundRect*
0 Rectangle with rounded corners*
0 $1 Rounding radius*
0 $2 $3 $4 $5 $6 $7 $8 $9 X,Y pos of 4 corners*
0 Add a 4 corners polygon primitive as box body*
4,1,4,$2,$3,$4,$5,$6,$7,$8,$9,$2,$3,0*
0 Add four circle primitives for the rounded corners*
1,1,$1+$1,$2,$3*
1,1,$1+$1,$4,$5*
1,1,$1+$1,$6,$7*
1,1,$1+$1,$8,$9*
0 Add four rect primitives between the rounded corners*
20,1,$1+$1,$2,$3,$4,$5,0*
20,1,$1+$1,$4,$5,$6,$7,0*
20,1,$1+$1,$6,$7,$8,$9,0*
20,1,$1+$1,$8,$9,$2,$3,0*%
G04 Aperture macros list end*
%ADD10RoundRect,0.135000X-0.185000X0.135000X-0.185000X-0.135000X0.185000X-0.135000X0.185000X0.135000X0*%
%ADD11R,0.700000X1.525000*%
%ADD12RoundRect,0.135000X0.185000X-0.135000X0.185000X0.135000X-0.185000X0.135000X-0.185000X-0.135000X0*%
%ADD13R,0.300000X0.900000*%
%ADD14R,1.650000X0.250000*%
%ADD15RoundRect,0.135000X0.135000X0.185000X-0.135000X0.185000X-0.135000X-0.185000X0.135000X-0.185000X0*%
%ADD16RoundRect,0.250000X-0.262500X-0.450000X0.262500X-0.450000X0.262500X0.450000X-0.262500X0.450000X0*%
%ADD17RoundRect,0.140000X0.170000X-0.140000X0.170000X0.140000X-0.170000X0.140000X-0.170000X-0.140000X0*%
%ADD18RoundRect,0.140000X-0.140000X-0.170000X0.140000X-0.170000X0.140000X0.170000X-0.140000X0.170000X0*%
%ADD19R,0.350000X0.850000*%
%ADD20R,0.850000X0.350000*%
%ADD21R,2.700000X2.700000*%
%ADD22RoundRect,0.135000X-0.135000X-0.185000X0.135000X-0.185000X0.135000X0.185000X-0.135000X0.185000X0*%
%ADD23RoundRect,0.249999X0.395001X-0.395001X0.395001X0.395001X-0.395001X0.395001X-0.395001X-0.395001X0*%
%ADD24RoundRect,0.050000X0.050000X-0.387500X0.050000X0.387500X-0.050000X0.387500X-0.050000X-0.387500X0*%
%ADD25RoundRect,0.050000X0.387500X-0.050000X0.387500X0.050000X-0.387500X0.050000X-0.387500X-0.050000X0*%
%ADD26RoundRect,0.140000X-0.170000X0.140000X-0.170000X-0.140000X0.170000X-0.140000X0.170000X0.140000X0*%
%ADD27RoundRect,0.250000X0.650000X-0.325000X0.650000X0.325000X-0.650000X0.325000X-0.650000X-0.325000X0*%
%ADD28RoundRect,0.140000X0.140000X0.170000X-0.140000X0.170000X-0.140000X-0.170000X0.140000X-0.170000X0*%
%ADD29R,1.000000X0.700000*%
%ADD30R,1.150000X0.600000*%
%ADD31R,1.150000X0.300000*%
%ADD32R,1.050000X0.750000*%
%ADD33R,1.050000X1.300000*%
%ADD34RoundRect,0.250000X0.262500X0.450000X-0.262500X0.450000X-0.262500X-0.450000X0.262500X-0.450000X0*%
%ADD35R,1.200000X0.600000*%
%ADD36R,1.900000X1.400000*%
%ADD37R,1.400000X1.200000*%
%ADD38R,1.400000X1.300000*%
%ADD39R,1.500000X0.800000*%
%ADD40R,1.040000X1.000000*%
%ADD41R,0.700000X0.300000*%
%ADD42R,1.000000X1.700000*%
G04 APERTURE END LIST*
D10*
%TO.C,RVd2*%
X106781600Y-94587600D03*
X106781600Y-95607600D03*
%TD*%
D11*
%TO.C,Q602*%
X155717000Y-86188000D03*
X156987000Y-86188000D03*
X158257000Y-86188000D03*
X159527000Y-86188000D03*
X159527000Y-91612000D03*
X158257000Y-91612000D03*
X156987000Y-91612000D03*
X155717000Y-91612000D03*
%TD*%
D12*
%TO.C,RsV2*%
X105511600Y-95607600D03*
X105511600Y-94587600D03*
%TD*%
D13*
%TO.C,IC202*%
X173355000Y-135893000D03*
X172855000Y-135893000D03*
X172355000Y-135893000D03*
X171855000Y-135893000D03*
X171855000Y-133093000D03*
X172355000Y-133093000D03*
X172855000Y-133093000D03*
X173355000Y-133093000D03*
D14*
X172605000Y-134493000D03*
%TD*%
D15*
%TO.C,R405*%
X178812000Y-78232000D03*
X177792000Y-78232000D03*
%TD*%
D16*
%TO.C,RsA2*%
X100689400Y-95097600D03*
X102514400Y-95097600D03*
%TD*%
D17*
%TO.C,C207*%
X168783000Y-122400000D03*
X168783000Y-121440000D03*
%TD*%
D15*
%TO.C,R612*%
X149632000Y-83200000D03*
X148612000Y-83200000D03*
%TD*%
D18*
%TO.C,C212*%
X171958000Y-129921000D03*
X172918000Y-129921000D03*
%TD*%
D15*
%TO.C,R611*%
X152632000Y-83200000D03*
X151612000Y-83200000D03*
%TD*%
D19*
%TO.C,IC301*%
X112735000Y-101264000D03*
X112085000Y-101264000D03*
X111435000Y-101264000D03*
X110785000Y-101264000D03*
D20*
X109810000Y-100289000D03*
X109810000Y-99639000D03*
X109810000Y-98989000D03*
X109810000Y-98339000D03*
D19*
X110785000Y-97364000D03*
X111435000Y-97364000D03*
X112085000Y-97364000D03*
X112735000Y-97364000D03*
D20*
X113710000Y-98339000D03*
X113710000Y-98989000D03*
X113710000Y-99639000D03*
X113710000Y-100289000D03*
D21*
X111760000Y-99314000D03*
%TD*%
D10*
%TO.C,R1L2*%
X109982000Y-137414000D03*
X109982000Y-138434000D03*
%TD*%
%TO.C,RsV1*%
X105259500Y-108202000D03*
X105259500Y-109222000D03*
%TD*%
D22*
%TO.C,R308*%
X153160000Y-127508000D03*
X154180000Y-127508000D03*
%TD*%
D18*
%TO.C,C210*%
X171958000Y-126619000D03*
X172918000Y-126619000D03*
%TD*%
D12*
%TO.C,R305*%
X156210000Y-124208000D03*
X156210000Y-123188000D03*
%TD*%
D22*
%TO.C,R202*%
X174369000Y-127254000D03*
X175389000Y-127254000D03*
%TD*%
D10*
%TO.C,R1L3*%
X116078000Y-135380000D03*
X116078000Y-136400000D03*
%TD*%
D15*
%TO.C,R404*%
X176210678Y-78232000D03*
X175190678Y-78232000D03*
%TD*%
D18*
%TO.C,C208*%
X171958000Y-128905000D03*
X172918000Y-128905000D03*
%TD*%
D15*
%TO.C,R306*%
X154180000Y-126238000D03*
X153160000Y-126238000D03*
%TD*%
D23*
%TO.C,IC201*%
X164689500Y-129645000D03*
X166289500Y-129645000D03*
X164689500Y-128045000D03*
X166289500Y-128045000D03*
D24*
X168089500Y-132282500D03*
X167689500Y-132282500D03*
X167289500Y-132282500D03*
X166889500Y-132282500D03*
X166489500Y-132282500D03*
X166089500Y-132282500D03*
X165689500Y-132282500D03*
X165289500Y-132282500D03*
X164889500Y-132282500D03*
X164489500Y-132282500D03*
X164089500Y-132282500D03*
X163689500Y-132282500D03*
X163289500Y-132282500D03*
X162889500Y-132282500D03*
D25*
X162052000Y-131445000D03*
X162052000Y-131045000D03*
X162052000Y-130645000D03*
X162052000Y-130245000D03*
X162052000Y-129845000D03*
X162052000Y-129445000D03*
X162052000Y-129045000D03*
X162052000Y-128645000D03*
X162052000Y-128245000D03*
X162052000Y-127845000D03*
X162052000Y-127445000D03*
X162052000Y-127045000D03*
X162052000Y-126645000D03*
X162052000Y-126245000D03*
D24*
X162889500Y-125407500D03*
X163289500Y-125407500D03*
X163689500Y-125407500D03*
X164089500Y-125407500D03*
X164489500Y-125407500D03*
X164889500Y-125407500D03*
X165289500Y-125407500D03*
X165689500Y-125407500D03*
X166089500Y-125407500D03*
X166489500Y-125407500D03*
X166889500Y-125407500D03*
X167289500Y-125407500D03*
X167689500Y-125407500D03*
X168089500Y-125407500D03*
D25*
X168927000Y-126245000D03*
X168927000Y-126645000D03*
X168927000Y-127045000D03*
X168927000Y-127445000D03*
X168927000Y-127845000D03*
X168927000Y-128245000D03*
X168927000Y-128645000D03*
X168927000Y-129045000D03*
X168927000Y-129445000D03*
X168927000Y-129845000D03*
X168927000Y-130245000D03*
X168927000Y-130645000D03*
X168927000Y-131045000D03*
X168927000Y-131445000D03*
%TD*%
D26*
%TO.C,C215*%
X175006000Y-133886000D03*
X175006000Y-134846000D03*
%TD*%
D27*
%TO.C,CLP3*%
X156122000Y-96675000D03*
X156122000Y-93725000D03*
%TD*%
D15*
%TO.C,R502*%
X185676000Y-135128000D03*
X184656000Y-135128000D03*
%TD*%
D16*
%TO.C,RsA4*%
X166854500Y-118364000D03*
X168679500Y-118364000D03*
%TD*%
D18*
%TO.C,C403*%
X113058000Y-108966000D03*
X114018000Y-108966000D03*
%TD*%
D28*
%TO.C,C302*%
X111224000Y-102870000D03*
X110264000Y-102870000D03*
%TD*%
D15*
%TO.C,R609*%
X159632000Y-83200000D03*
X158612000Y-83200000D03*
%TD*%
D10*
%TO.C,R1L4*%
X116078000Y-137412000D03*
X116078000Y-138432000D03*
%TD*%
D12*
%TO.C,R505*%
X168275000Y-114556000D03*
X168275000Y-113536000D03*
%TD*%
D16*
%TO.C,RsA1*%
X99013000Y-108712000D03*
X100838000Y-108712000D03*
%TD*%
D15*
%TO.C,R501*%
X185676000Y-122174000D03*
X184656000Y-122174000D03*
%TD*%
D28*
%TO.C,C502*%
X173327000Y-115443000D03*
X172367000Y-115443000D03*
%TD*%
D12*
%TO.C,R303*%
X115062000Y-104398000D03*
X115062000Y-103378000D03*
%TD*%
D29*
%TO.C,Q1*%
X108388000Y-136024000D03*
X108388000Y-137924000D03*
X105988000Y-136974000D03*
%TD*%
D22*
%TO.C,R307*%
X151128000Y-127508000D03*
X152148000Y-127508000D03*
%TD*%
D30*
%TO.C,J501*%
X182443000Y-125424500D03*
X182443000Y-126224500D03*
D31*
X182443000Y-127374500D03*
X182443000Y-128374500D03*
X182443000Y-128874500D03*
X182443000Y-129874500D03*
D30*
X182443000Y-131824500D03*
X182443000Y-131024500D03*
D31*
X182443000Y-130374500D03*
X182443000Y-129374500D03*
X182443000Y-127874500D03*
X182443000Y-126874500D03*
%TD*%
D32*
%TO.C,D501*%
X177417000Y-112837000D03*
X181017000Y-112837000D03*
%TD*%
D17*
%TO.C,C503*%
X168275000Y-112334000D03*
X168275000Y-111374000D03*
%TD*%
D15*
%TO.C,R605*%
X152632000Y-84400000D03*
X151612000Y-84400000D03*
%TD*%
D19*
%TO.C,IC302*%
X153711000Y-124718000D03*
X153061000Y-124718000D03*
X152411000Y-124718000D03*
X151761000Y-124718000D03*
D20*
X150786000Y-123743000D03*
X150786000Y-123093000D03*
X150786000Y-122443000D03*
X150786000Y-121793000D03*
D19*
X151761000Y-120818000D03*
X152411000Y-120818000D03*
X153061000Y-120818000D03*
X153711000Y-120818000D03*
D20*
X154686000Y-121793000D03*
X154686000Y-122443000D03*
X154686000Y-123093000D03*
X154686000Y-123743000D03*
D21*
X152736000Y-122768000D03*
%TD*%
D10*
%TO.C,RVd1*%
X103735500Y-108200000D03*
X103735500Y-109220000D03*
%TD*%
D15*
%TO.C,R603*%
X159632000Y-84400000D03*
X158612000Y-84400000D03*
%TD*%
D10*
%TO.C,R304*%
X116586000Y-103378000D03*
X116586000Y-104398000D03*
%TD*%
%TO.C,R409*%
X172720000Y-101217000D03*
X172720000Y-102237000D03*
%TD*%
D26*
%TO.C,C204*%
X162179000Y-135410000D03*
X162179000Y-136370000D03*
%TD*%
D12*
%TO.C,R213*%
X162179000Y-122430000D03*
X162179000Y-121410000D03*
%TD*%
D11*
%TO.C,Q601*%
X162717000Y-86188000D03*
X163987000Y-86188000D03*
X165257000Y-86188000D03*
X166527000Y-86188000D03*
X166527000Y-91612000D03*
X165257000Y-91612000D03*
X163987000Y-91612000D03*
X162717000Y-91612000D03*
%TD*%
D17*
%TO.C,C301*%
X115316000Y-98806000D03*
X115316000Y-97846000D03*
%TD*%
D15*
%TO.C,R602*%
X163632000Y-84400000D03*
X162612000Y-84400000D03*
%TD*%
D12*
%TO.C,R214*%
X164211000Y-122430000D03*
X164211000Y-121410000D03*
%TD*%
D10*
%TO.C,RA2*%
X149098000Y-123188000D03*
X149098000Y-124208000D03*
%TD*%
D33*
%TO.C,Y201*%
X153557000Y-134754000D03*
X153557000Y-132454000D03*
X155307000Y-132454000D03*
X155307000Y-134754000D03*
%TD*%
D15*
%TO.C,R610*%
X156632000Y-83200000D03*
X155612000Y-83200000D03*
%TD*%
D17*
%TO.C,C504*%
X162179000Y-112306000D03*
X162179000Y-111346000D03*
%TD*%
D27*
%TO.C,CLP5*%
X149122000Y-96675000D03*
X149122000Y-93725000D03*
%TD*%
%TO.C,CLP2*%
X159122000Y-96675000D03*
X159122000Y-93725000D03*
%TD*%
D15*
%TO.C,R403*%
X173617000Y-78232000D03*
X172597000Y-78232000D03*
%TD*%
D34*
%TO.C,RsA5*%
X164107500Y-118364000D03*
X162282500Y-118364000D03*
%TD*%
D10*
%TO.C,R203*%
X157480000Y-133094000D03*
X157480000Y-134114000D03*
%TD*%
D15*
%TO.C,R402*%
X114048000Y-113538000D03*
X113028000Y-113538000D03*
%TD*%
%TO.C,R606*%
X149632000Y-84400000D03*
X148612000Y-84400000D03*
%TD*%
%TO.C,R608*%
X163632000Y-83200000D03*
X162612000Y-83200000D03*
%TD*%
D17*
%TO.C,C304*%
X156210000Y-122146000D03*
X156210000Y-121186000D03*
%TD*%
%TO.C,C405*%
X176657000Y-102207000D03*
X176657000Y-101247000D03*
%TD*%
D26*
%TO.C,C201*%
X157480000Y-135029000D03*
X157480000Y-135989000D03*
%TD*%
D18*
%TO.C,C209*%
X171958000Y-125603000D03*
X172918000Y-125603000D03*
%TD*%
D10*
%TO.C,R209*%
X177419000Y-133856000D03*
X177419000Y-134876000D03*
%TD*%
D15*
%TO.C,R504*%
X175516000Y-115443000D03*
X174496000Y-115443000D03*
%TD*%
D27*
%TO.C,CLP0*%
X166122000Y-96675000D03*
X166122000Y-93725000D03*
%TD*%
D10*
%TO.C,R407*%
X180594000Y-101217000D03*
X180594000Y-102237000D03*
%TD*%
D15*
%TO.C,R607*%
X166632000Y-83200000D03*
X165612000Y-83200000D03*
%TD*%
D22*
%TO.C,R503*%
X177437000Y-115377000D03*
X178457000Y-115377000D03*
%TD*%
D10*
%TO.C,R1L5*%
X122428000Y-135380000D03*
X122428000Y-136400000D03*
%TD*%
%TO.C,R1L1*%
X109982000Y-135382000D03*
X109982000Y-136402000D03*
%TD*%
D15*
%TO.C,R604*%
X156632000Y-84400000D03*
X155612000Y-84400000D03*
%TD*%
D10*
%TO.C,RA1*%
X108204000Y-99820000D03*
X108204000Y-100840000D03*
%TD*%
D26*
%TO.C,C214*%
X176149000Y-133886000D03*
X176149000Y-134846000D03*
%TD*%
D15*
%TO.C,R601*%
X166632000Y-84400000D03*
X165612000Y-84400000D03*
%TD*%
D27*
%TO.C,CLP1*%
X163122000Y-96675000D03*
X163122000Y-93725000D03*
%TD*%
D35*
%TO.C,IC502*%
X166350000Y-111826000D03*
X166350000Y-112776000D03*
X166350000Y-113726000D03*
X163850000Y-113726000D03*
X163850000Y-111826000D03*
%TD*%
D28*
%TO.C,C211*%
X158976000Y-128270000D03*
X158016000Y-128270000D03*
%TD*%
D26*
%TO.C,C203*%
X168783000Y-135423000D03*
X168783000Y-136383000D03*
%TD*%
D17*
%TO.C,C206*%
X166751000Y-122400000D03*
X166751000Y-121440000D03*
%TD*%
D29*
%TO.C,Q2*%
X114484000Y-136022000D03*
X114484000Y-137922000D03*
X112084000Y-136972000D03*
%TD*%
D22*
%TO.C,R201*%
X174369000Y-128270000D03*
X175389000Y-128270000D03*
%TD*%
D10*
%TO.C,R1L6*%
X122428000Y-137412000D03*
X122428000Y-138432000D03*
%TD*%
D12*
%TO.C,R301*%
X115316000Y-100840000D03*
X115316000Y-99820000D03*
%TD*%
D18*
%TO.C,C501*%
X180007000Y-115377000D03*
X180967000Y-115377000D03*
%TD*%
D28*
%TO.C,C303*%
X152146000Y-126238000D03*
X151186000Y-126238000D03*
%TD*%
D29*
%TO.C,Q3*%
X120650000Y-136022000D03*
X120650000Y-137922000D03*
X118250000Y-136972000D03*
%TD*%
D15*
%TO.C,R302*%
X113286000Y-102870000D03*
X112266000Y-102870000D03*
%TD*%
D27*
%TO.C,CLP4*%
X152122000Y-96675000D03*
X152122000Y-93725000D03*
%TD*%
D10*
%TO.C,R406*%
X182245000Y-101217000D03*
X182245000Y-102237000D03*
%TD*%
D17*
%TO.C,C202*%
X157480000Y-132179000D03*
X157480000Y-131219000D03*
%TD*%
D35*
%TO.C,IC501*%
X175133000Y-111887000D03*
X175133000Y-112837000D03*
X175133000Y-113787000D03*
X172633000Y-113787000D03*
X172633000Y-111887000D03*
%TD*%
D36*
%TO.C,J401*%
X186519000Y-85881000D03*
X187519000Y-99031000D03*
D37*
X173369000Y-87421000D03*
D38*
X173369000Y-93171000D03*
D39*
X184229000Y-94361000D03*
X183829000Y-93261000D03*
X184229000Y-92161000D03*
X184429000Y-91061000D03*
X184229000Y-89961000D03*
X184429000Y-88861000D03*
X184229000Y-87761000D03*
X184229000Y-86661000D03*
D40*
X172999000Y-88871000D03*
%TD*%
D11*
%TO.C,Q603*%
X148717000Y-86188000D03*
X149987000Y-86188000D03*
X151257000Y-86188000D03*
X152527000Y-86188000D03*
X152527000Y-91612000D03*
X151257000Y-91612000D03*
X149987000Y-91612000D03*
X148717000Y-91612000D03*
%TD*%
D17*
%TO.C,C406*%
X178308000Y-102207000D03*
X178308000Y-101247000D03*
%TD*%
D28*
%TO.C,C205*%
X158976000Y-129286000D03*
X158016000Y-129286000D03*
%TD*%
D12*
%TO.C,R506*%
X162179000Y-114556000D03*
X162179000Y-113536000D03*
%TD*%
D41*
%TO.C,IC402*%
X114588000Y-110514000D03*
X114588000Y-111014000D03*
X114588000Y-111514000D03*
X114588000Y-112014000D03*
X112488000Y-112014000D03*
X112488000Y-111514000D03*
X112488000Y-111014000D03*
X112488000Y-110514000D03*
D42*
X113538000Y-111264000D03*
%TD*%
D10*
%TO.C,R408*%
X174371000Y-101217000D03*
X174371000Y-102237000D03*
%TD*%
M02*
