M48
; DRILL file {KiCad 7.0.10} date Thu May 16 19:45:36 2024
; FORMAT={-:-/ absolute / metric / decimal}
; #@! TF.CreationDate,2024-05-16T19:45:36+02:00
; #@! TF.GenerationSoftware,Kicad,Pcbnew,7.0.10
; #@! TF.FileFunction,Plated,1,4,PTH
FMAT,2
METRIC
; #@! TA.AperFunction,Plated,PTH,ViaDrill
T1C0.300
; #@! TA.AperFunction,Plated,PTH,ViaDrill
T2C0.400
; #@! TA.AperFunction,Plated,PTH,ComponentDrill
T3C0.600
; #@! TA.AperFunction,Plated,PTH,ComponentDrill
T4C0.800
; #@! TA.AperFunction,Plated,PTH,ComponentDrill
T5C1.000
; #@! TA.AperFunction,Plated,PTH,ComponentDrill
T6C1.295
; #@! TA.AperFunction,Plated,PTH,ComponentDrill
T7C3.200
%
G90
G05
T1
X91.643Y-132.182
X95.148Y-93.269
X96.977Y-103.632
X99.06Y-106.68
X99.67Y-93.624
X100.33Y-103.632
X100.838Y-106.68
X102.616Y-105.232
X103.632Y-96.774
X104.14Y-105.232
X104.699Y-93.37
X105.664Y-99.314
X106.172Y-101.143
X106.477Y-119.837
X107.95Y-134.62
X107.95Y-140.208
X108.077Y-105.791
X108.102Y-132.791
X109.525Y-140.208
X109.982Y-106.934
X110.998Y-105.969
X111.252Y-122.428
X111.506Y-115.316
X112.014Y-134.62
X112.268Y-95.504
X112.268Y-104.902
X113.233Y-134.62
X113.411Y-104.013
X113.487Y-115.773
X113.538Y-95.504
X113.538Y-110.871
X113.538Y-111.633
X114.3Y-130.81
X114.808Y-95.504
X114.808Y-106.172
X115.316Y-124.206
X116.027Y-106.172
X116.332Y-99.822
X116.459Y-132.842
X117.196Y-107.442
X117.297Y-109.626
X117.856Y-134.62
X118.364Y-99.06
X118.364Y-107.442
X119.532Y-99.06
X120.65Y-113.284
X120.65Y-114.808
X121.412Y-131.826
X121.412Y-133.731
X121.793Y-111.125
X122.428Y-132.842
X122.682Y-117.221
X123.19Y-111.125
X123.698Y-136.398
X124.968Y-136.398
X126.187Y-136.398
X126.873Y-133.731
X129.413Y-135.89
X132.207Y-134.874
X132.588Y-120.777
X135.89Y-90.424
X144.856Y-120.421
X146.05Y-125.222
X147.574Y-83.21
X148.59Y-82.296
X149.098Y-125.222
X149.352Y-121.92
X149.606Y-127.0
X150.368Y-116.205
X150.622Y-83.185
X151.003Y-124.714
X151.13Y-128.524
X151.638Y-82.296
X151.638Y-119.634
X152.705Y-128.524
X152.933Y-81.61
X152.959Y-123.19
X153.289Y-118.999
X154.026Y-91.542
X154.178Y-128.524
X154.229Y-83.21
X154.559Y-99.949
X154.559Y-120.269
X155.575Y-82.296
X155.575Y-120.269
X155.702Y-130.048
X156.21Y-119.329
X156.286Y-98.577
X156.312Y-81.61
X157.099Y-99.949
X157.353Y-121.412
X157.607Y-83.185
X157.607Y-96.675
X158.496Y-134.569
X158.598Y-122.301
X158.623Y-82.296
X158.877Y-133.096
X159.639Y-124.333
X159.868Y-81.61
X159.893Y-126.873
X160.401Y-118.364
X160.553Y-127.533
X160.655Y-124.333
X160.655Y-138.43
X161.087Y-83.21
X161.087Y-91.592
X161.29Y-120.269
X161.595Y-137.414
X161.671Y-124.333
X161.798Y-134.239
X162.052Y-132.207
X162.56Y-82.296
X162.687Y-124.333
X163.195Y-127.0
X163.195Y-128.016
X163.449Y-123.317
X163.703Y-115.316
X163.703Y-134.239
X164.592Y-83.185
X164.719Y-126.492
X164.973Y-123.19
X165.1Y-112.776
X165.1Y-121.92
X165.612Y-82.296
X165.735Y-126.492
X165.735Y-131.064
X165.989Y-90.399
X165.989Y-124.079
X166.014Y-119.888
X166.497Y-123.444
X166.751Y-126.492
X167.64Y-123.444
X167.767Y-129.032
X167.767Y-131.064
X168.021Y-83.947
X168.021Y-84.963
X168.148Y-124.079
X168.656Y-115.824
X168.859Y-98.196
X168.91Y-137.109
X169.164Y-86.741
X169.164Y-92.583
X169.164Y-134.239
X170.84Y-120.701
X171.323Y-77.343
X171.45Y-101.219
X172.339Y-90.551
X173.33Y-131.166
X173.482Y-85.471
X173.482Y-90.551
X173.609Y-77.343
X173.99Y-110.49
X174.092Y-134.264
X174.117Y-133.223
X174.371Y-103.505
X174.371Y-105.664
X174.625Y-90.551
X174.752Y-93.726
X175.26Y-110.49
X175.514Y-91.313
X175.641Y-124.714
X175.666Y-125.578
X176.149Y-77.343
X176.276Y-116.205
X176.378Y-113.436
X176.403Y-91.313
X177.292Y-83.185
X177.419Y-135.89
X177.495Y-100.279
X178.816Y-77.343
X179.07Y-110.49
X179.451Y-102.87
X179.984Y-86.716
X180.442Y-110.49
X180.594Y-105.664
X180.95Y-86.034
X181.966Y-85.395
X182.118Y-91.059
X182.245Y-103.505
X182.245Y-104.521
X183.083Y-84.785
X184.15Y-84.023
T2
X168.656Y-119.507
X180.594Y-127.0
X180.594Y-130.175
T4
X146.045Y-122.682
X146.045Y-129.482
T5
X98.552Y-117.856
X98.552Y-120.396
X102.362Y-117.861
X102.362Y-120.401
X109.474Y-143.256
X110.744Y-89.662
X110.744Y-92.202
X112.014Y-143.256
X114.503Y-89.662
X114.503Y-92.202
X115.824Y-143.256
X118.364Y-143.256
X119.126Y-89.662
X119.126Y-92.202
X119.126Y-124.221
X119.126Y-126.761
X119.126Y-129.301
X122.936Y-124.221
X122.936Y-126.761
X122.936Y-129.301
X123.698Y-102.362
X123.698Y-104.902
X123.698Y-107.442
X123.698Y-143.256
X125.476Y-89.149
X125.476Y-91.689
X126.238Y-143.256
X126.746Y-124.221
X126.746Y-126.761
X126.746Y-129.301
X128.27Y-102.377
X128.27Y-104.917
X128.27Y-107.457
X129.286Y-89.149
X129.286Y-91.689
X130.81Y-124.236
X130.81Y-126.776
X130.81Y-129.316
X133.858Y-102.362
X133.858Y-104.902
X133.858Y-107.442
X134.62Y-124.236
X134.62Y-126.776
X134.62Y-129.316
X134.747Y-89.154
X134.747Y-91.694
X134.747Y-94.234
X141.224Y-89.154
X141.224Y-91.694
X141.224Y-94.234
X141.224Y-112.776
X141.224Y-115.316
X143.764Y-112.776
X143.764Y-115.316
X148.971Y-102.235
X148.971Y-105.918
X149.86Y-143.51
X151.511Y-102.235
X151.511Y-105.918
X152.4Y-143.51
X154.559Y-112.776
X154.559Y-115.316
X154.94Y-143.51
X158.242Y-112.771
X158.242Y-115.311
X160.767Y-143.535
X162.545Y-102.362
X162.56Y-106.045
X163.307Y-143.535
X165.085Y-102.362
X165.1Y-106.045
X165.847Y-143.535
X167.625Y-102.362
X167.64Y-106.045
X168.387Y-143.535
X170.927Y-143.535
X173.467Y-143.535
X176.007Y-143.535
X178.547Y-143.535
X183.642Y-119.38
X186.182Y-119.38
X186.944Y-102.362
X186.944Y-104.902
X186.944Y-107.442
X186.944Y-109.982
X186.944Y-112.522
X186.944Y-115.062
T6
X91.737Y-108.752
X91.737Y-113.752
X98.084Y-141.435
X98.124Y-80.815
X103.084Y-141.435
X103.124Y-80.815
X110.022Y-80.815
X115.022Y-80.815
X120.944Y-80.815
X125.944Y-80.815
T7
X91.0Y-80.0
X91.0Y-142.0
X133.0Y-80.0
X133.0Y-142.0
X143.0Y-80.0
X143.0Y-142.0
X185.0Y-80.0
X185.0Y-142.0
T3
X183.568Y-124.304G85X182.468Y-124.304
G05
X183.568Y-132.945G85X182.468Y-132.945
G05
X187.598Y-124.304G85X186.798Y-124.304
G05
X187.598Y-132.945G85X186.798Y-132.945
G05
M30
