%TF.GenerationSoftware,KiCad,Pcbnew,7.0.10*%
%TF.CreationDate,2024-05-16T19:43:25+02:00*%
%TF.ProjectId,SolarEnergyManager_v1.0,536f6c61-7245-46e6-9572-67794d616e61,rev?*%
%TF.SameCoordinates,Original*%
%TF.FileFunction,Legend,Top*%
%TF.FilePolarity,Positive*%
%FSLAX46Y46*%
G04 Gerber Fmt 4.6, Leading zero omitted, Abs format (unit mm)*
G04 Created by KiCad (PCBNEW 7.0.10) date 2024-05-16 19:43:25*
%MOMM*%
%LPD*%
G01*
G04 APERTURE LIST*
G04 Aperture macros list*
%AMRoundRect*
0 Rectangle with rounded corners*
0 $1 Rounding radius*
0 $2 $3 $4 $5 $6 $7 $8 $9 X,Y pos of 4 corners*
0 Add a 4 corners polygon primitive as box body*
4,1,4,$2,$3,$4,$5,$6,$7,$8,$9,$2,$3,0*
0 Add four circle primitives for the rounded corners*
1,1,$1+$1,$2,$3*
1,1,$1+$1,$4,$5*
1,1,$1+$1,$6,$7*
1,1,$1+$1,$8,$9*
0 Add four rect primitives between the rounded corners*
20,1,$1+$1,$2,$3,$4,$5,0*
20,1,$1+$1,$4,$5,$6,$7,0*
20,1,$1+$1,$6,$7,$8,$9,0*
20,1,$1+$1,$8,$9,$2,$3,0*%
G04 Aperture macros list end*
%ADD10C,0.150000*%
%ADD11C,0.120000*%
%ADD12C,0.100000*%
%ADD13C,0.200000*%
%ADD14C,0.325000*%
%ADD15C,0.250000*%
%ADD16C,0.152400*%
%ADD17C,0.508000*%
%ADD18C,6.400000*%
%ADD19RoundRect,0.250000X0.262500X0.450000X-0.262500X0.450000X-0.262500X-0.450000X0.262500X-0.450000X0*%
%ADD20R,1.700000X1.700000*%
%ADD21O,1.700000X1.700000*%
%ADD22RoundRect,0.225000X-0.225000X-0.250000X0.225000X-0.250000X0.225000X0.250000X-0.225000X0.250000X0*%
%ADD23RoundRect,0.135000X-0.135000X-0.185000X0.135000X-0.185000X0.135000X0.185000X-0.135000X0.185000X0*%
%ADD24RoundRect,0.147500X-0.147500X-0.172500X0.147500X-0.172500X0.147500X0.172500X-0.147500X0.172500X0*%
%ADD25RoundRect,0.250000X-0.450000X0.262500X-0.450000X-0.262500X0.450000X-0.262500X0.450000X0.262500X0*%
%ADD26RoundRect,0.200000X0.200000X0.275000X-0.200000X0.275000X-0.200000X-0.275000X0.200000X-0.275000X0*%
%ADD27RoundRect,0.200000X0.275000X-0.200000X0.275000X0.200000X-0.275000X0.200000X-0.275000X-0.200000X0*%
%ADD28R,0.700000X1.525000*%
%ADD29RoundRect,0.200000X-0.200000X-0.275000X0.200000X-0.275000X0.200000X0.275000X-0.200000X0.275000X0*%
%ADD30RoundRect,0.250000X-0.262500X-0.450000X0.262500X-0.450000X0.262500X0.450000X-0.262500X0.450000X0*%
%ADD31RoundRect,0.147500X0.147500X0.172500X-0.147500X0.172500X-0.147500X-0.172500X0.147500X-0.172500X0*%
%ADD32RoundRect,0.135000X0.135000X0.185000X-0.135000X0.185000X-0.135000X-0.185000X0.135000X-0.185000X0*%
%ADD33RoundRect,0.218750X-0.218750X-0.256250X0.218750X-0.256250X0.218750X0.256250X-0.218750X0.256250X0*%
%ADD34R,1.050000X0.350000*%
%ADD35R,0.350000X1.050000*%
%ADD36R,4.200000X4.200000*%
%ADD37RoundRect,0.140000X-0.140000X-0.170000X0.140000X-0.170000X0.140000X0.170000X-0.140000X0.170000X0*%
%ADD38R,0.750000X1.000000*%
%ADD39R,0.300000X1.000000*%
%ADD40R,1.000000X0.300000*%
%ADD41R,3.250000X3.250000*%
%ADD42R,1.600000X1.600000*%
%ADD43C,1.600000*%
%ADD44RoundRect,0.225000X0.225000X0.250000X-0.225000X0.250000X-0.225000X-0.250000X0.225000X-0.250000X0*%
%ADD45RoundRect,0.250000X-0.325000X-0.650000X0.325000X-0.650000X0.325000X0.650000X-0.325000X0.650000X0*%
%ADD46R,0.700000X1.600000*%
%ADD47RoundRect,0.140000X0.140000X0.170000X-0.140000X0.170000X-0.140000X-0.170000X0.140000X-0.170000X0*%
%ADD48R,3.505200X0.990600*%
%ADD49R,3.403600X1.498600*%
%ADD50RoundRect,0.140000X-0.170000X0.140000X-0.170000X-0.140000X0.170000X-0.140000X0.170000X0.140000X0*%
%ADD51R,1.150000X3.600000*%
%ADD52RoundRect,0.135000X-0.185000X0.135000X-0.185000X-0.135000X0.185000X-0.135000X0.185000X0.135000X0*%
%ADD53C,1.803400*%
%ADD54R,1.050000X0.750000*%
%ADD55RoundRect,0.135000X0.185000X-0.135000X0.185000X0.135000X-0.185000X0.135000X-0.185000X-0.135000X0*%
%ADD56RoundRect,0.225000X-0.250000X0.225000X-0.250000X-0.225000X0.250000X-0.225000X0.250000X0.225000X0*%
%ADD57C,0.650000*%
%ADD58O,2.304000X1.204000*%
%ADD59RoundRect,0.301000X-0.701000X0.301000X-0.701000X-0.301000X0.701000X-0.301000X0.701000X0.301000X0*%
G04 APERTURE END LIST*
D10*
X121412000Y-120411000D02*
X117856000Y-120411000D01*
X152146000Y-141732000D02*
X152654000Y-141732000D01*
X140970000Y-96393000D02*
X141478000Y-96393000D01*
X115633500Y-119634000D02*
X105283000Y-119634000D01*
X117094000Y-119634000D02*
X115633500Y-119634000D01*
X120904000Y-112268000D02*
X117094000Y-112268000D01*
X105283000Y-112522000D02*
X109982000Y-112522000D01*
X141224000Y-95579000D02*
X141224000Y-95885000D01*
X134239000Y-96139000D02*
X135255000Y-96139000D01*
X134493000Y-96393000D02*
X135001000Y-96393000D01*
X184150000Y-115697000D02*
X184658000Y-115697000D01*
X128016000Y-120411000D02*
X128016000Y-122189000D01*
X135890000Y-120411000D02*
X135890000Y-122189000D01*
X124460000Y-120411000D02*
X128016000Y-120411000D01*
X109982000Y-107696000D02*
X120904000Y-107696000D01*
X151892000Y-141478000D02*
X152908000Y-141478000D01*
X183896000Y-115443000D02*
X184912000Y-115443000D01*
X130556000Y-120411000D02*
X129540000Y-120411000D01*
X117094000Y-112268000D02*
X117094000Y-119634000D01*
X117856000Y-120411000D02*
X117856000Y-122189000D01*
X184404000Y-114655000D02*
X184404000Y-115189000D01*
X120904000Y-107696000D02*
X120904000Y-112268000D01*
X138430001Y-126238000D02*
G75*
G03*
X138429999Y-126238000I-1J0D01*
G01*
X138429999Y-126238000D02*
G75*
G03*
X138430001Y-126238000I1J0D01*
G01*
X183769000Y-115189000D02*
X185039000Y-115189000D01*
X109982000Y-112522000D02*
X109982000Y-107696000D01*
X134620000Y-120411000D02*
X135890000Y-120411000D01*
X151765000Y-141224000D02*
X153035000Y-141224000D01*
X152400000Y-140690000D02*
X152400000Y-141224000D01*
X105283000Y-119634000D02*
X105283000Y-112522000D01*
X129540000Y-120411000D02*
X129540000Y-122189000D01*
X134747000Y-95579000D02*
X134747000Y-95885000D01*
X102870000Y-125857000D02*
X111379000Y-125857000D01*
X111379000Y-129540000D01*
X102870000Y-129540000D01*
X102870000Y-125857000D01*
X134112000Y-95885000D02*
X135382000Y-95885000D01*
X140716000Y-96139000D02*
X141732000Y-96139000D01*
X140589000Y-95885000D02*
X141859000Y-95885000D01*
X172680714Y-116090819D02*
X172680714Y-116900342D01*
X172680714Y-116900342D02*
X172728333Y-116995580D01*
X172728333Y-116995580D02*
X172775952Y-117043200D01*
X172775952Y-117043200D02*
X172871190Y-117090819D01*
X172871190Y-117090819D02*
X173061666Y-117090819D01*
X173061666Y-117090819D02*
X173156904Y-117043200D01*
X173156904Y-117043200D02*
X173204523Y-116995580D01*
X173204523Y-116995580D02*
X173252142Y-116900342D01*
X173252142Y-116900342D02*
X173252142Y-116090819D01*
X173680714Y-117043200D02*
X173823571Y-117090819D01*
X173823571Y-117090819D02*
X174061666Y-117090819D01*
X174061666Y-117090819D02*
X174156904Y-117043200D01*
X174156904Y-117043200D02*
X174204523Y-116995580D01*
X174204523Y-116995580D02*
X174252142Y-116900342D01*
X174252142Y-116900342D02*
X174252142Y-116805104D01*
X174252142Y-116805104D02*
X174204523Y-116709866D01*
X174204523Y-116709866D02*
X174156904Y-116662247D01*
X174156904Y-116662247D02*
X174061666Y-116614628D01*
X174061666Y-116614628D02*
X173871190Y-116567009D01*
X173871190Y-116567009D02*
X173775952Y-116519390D01*
X173775952Y-116519390D02*
X173728333Y-116471771D01*
X173728333Y-116471771D02*
X173680714Y-116376533D01*
X173680714Y-116376533D02*
X173680714Y-116281295D01*
X173680714Y-116281295D02*
X173728333Y-116186057D01*
X173728333Y-116186057D02*
X173775952Y-116138438D01*
X173775952Y-116138438D02*
X173871190Y-116090819D01*
X173871190Y-116090819D02*
X174109285Y-116090819D01*
X174109285Y-116090819D02*
X174252142Y-116138438D01*
X175014047Y-116567009D02*
X175156904Y-116614628D01*
X175156904Y-116614628D02*
X175204523Y-116662247D01*
X175204523Y-116662247D02*
X175252142Y-116757485D01*
X175252142Y-116757485D02*
X175252142Y-116900342D01*
X175252142Y-116900342D02*
X175204523Y-116995580D01*
X175204523Y-116995580D02*
X175156904Y-117043200D01*
X175156904Y-117043200D02*
X175061666Y-117090819D01*
X175061666Y-117090819D02*
X174680714Y-117090819D01*
X174680714Y-117090819D02*
X174680714Y-116090819D01*
X174680714Y-116090819D02*
X175014047Y-116090819D01*
X175014047Y-116090819D02*
X175109285Y-116138438D01*
X175109285Y-116138438D02*
X175156904Y-116186057D01*
X175156904Y-116186057D02*
X175204523Y-116281295D01*
X175204523Y-116281295D02*
X175204523Y-116376533D01*
X175204523Y-116376533D02*
X175156904Y-116471771D01*
X175156904Y-116471771D02*
X175109285Y-116519390D01*
X175109285Y-116519390D02*
X175014047Y-116567009D01*
X175014047Y-116567009D02*
X174680714Y-116567009D01*
X176442619Y-117090819D02*
X176442619Y-116090819D01*
X176442619Y-116090819D02*
X176823571Y-116090819D01*
X176823571Y-116090819D02*
X176918809Y-116138438D01*
X176918809Y-116138438D02*
X176966428Y-116186057D01*
X176966428Y-116186057D02*
X177014047Y-116281295D01*
X177014047Y-116281295D02*
X177014047Y-116424152D01*
X177014047Y-116424152D02*
X176966428Y-116519390D01*
X176966428Y-116519390D02*
X176918809Y-116567009D01*
X176918809Y-116567009D02*
X176823571Y-116614628D01*
X176823571Y-116614628D02*
X176442619Y-116614628D01*
X177347381Y-116090819D02*
X177585476Y-117090819D01*
X177585476Y-117090819D02*
X177775952Y-116376533D01*
X177775952Y-116376533D02*
X177966428Y-117090819D01*
X177966428Y-117090819D02*
X178204524Y-116090819D01*
X179156904Y-117090819D02*
X178823571Y-116614628D01*
X178585476Y-117090819D02*
X178585476Y-116090819D01*
X178585476Y-116090819D02*
X178966428Y-116090819D01*
X178966428Y-116090819D02*
X179061666Y-116138438D01*
X179061666Y-116138438D02*
X179109285Y-116186057D01*
X179109285Y-116186057D02*
X179156904Y-116281295D01*
X179156904Y-116281295D02*
X179156904Y-116424152D01*
X179156904Y-116424152D02*
X179109285Y-116519390D01*
X179109285Y-116519390D02*
X179061666Y-116567009D01*
X179061666Y-116567009D02*
X178966428Y-116614628D01*
X178966428Y-116614628D02*
X178585476Y-116614628D01*
X134639255Y-121312819D02*
X134734493Y-121312819D01*
X134734493Y-121312819D02*
X134829731Y-121360438D01*
X134829731Y-121360438D02*
X134877350Y-121408057D01*
X134877350Y-121408057D02*
X134924969Y-121503295D01*
X134924969Y-121503295D02*
X134972588Y-121693771D01*
X134972588Y-121693771D02*
X134972588Y-121931866D01*
X134972588Y-121931866D02*
X134924969Y-122122342D01*
X134924969Y-122122342D02*
X134877350Y-122217580D01*
X134877350Y-122217580D02*
X134829731Y-122265200D01*
X134829731Y-122265200D02*
X134734493Y-122312819D01*
X134734493Y-122312819D02*
X134639255Y-122312819D01*
X134639255Y-122312819D02*
X134544017Y-122265200D01*
X134544017Y-122265200D02*
X134496398Y-122217580D01*
X134496398Y-122217580D02*
X134448779Y-122122342D01*
X134448779Y-122122342D02*
X134401160Y-121931866D01*
X134401160Y-121931866D02*
X134401160Y-121693771D01*
X134401160Y-121693771D02*
X134448779Y-121503295D01*
X134448779Y-121503295D02*
X134496398Y-121408057D01*
X134496398Y-121408057D02*
X134544017Y-121360438D01*
X134544017Y-121360438D02*
X134639255Y-121312819D01*
X97707316Y-136902866D02*
X98469221Y-136902866D01*
X98088268Y-137283819D02*
X98088268Y-136521914D01*
X128162207Y-140839819D02*
X127828874Y-140363628D01*
X127590779Y-140839819D02*
X127590779Y-139839819D01*
X127590779Y-139839819D02*
X127971731Y-139839819D01*
X127971731Y-139839819D02*
X128066969Y-139887438D01*
X128066969Y-139887438D02*
X128114588Y-139935057D01*
X128114588Y-139935057D02*
X128162207Y-140030295D01*
X128162207Y-140030295D02*
X128162207Y-140173152D01*
X128162207Y-140173152D02*
X128114588Y-140268390D01*
X128114588Y-140268390D02*
X128066969Y-140316009D01*
X128066969Y-140316009D02*
X127971731Y-140363628D01*
X127971731Y-140363628D02*
X127590779Y-140363628D01*
X128495541Y-139839819D02*
X129162207Y-139839819D01*
X129162207Y-139839819D02*
X128733636Y-140839819D01*
X108581819Y-135489792D02*
X108105628Y-135823125D01*
X108581819Y-136061220D02*
X107581819Y-136061220D01*
X107581819Y-136061220D02*
X107581819Y-135680268D01*
X107581819Y-135680268D02*
X107629438Y-135585030D01*
X107629438Y-135585030D02*
X107677057Y-135537411D01*
X107677057Y-135537411D02*
X107772295Y-135489792D01*
X107772295Y-135489792D02*
X107915152Y-135489792D01*
X107915152Y-135489792D02*
X108010390Y-135537411D01*
X108010390Y-135537411D02*
X108058009Y-135585030D01*
X108058009Y-135585030D02*
X108105628Y-135680268D01*
X108105628Y-135680268D02*
X108105628Y-136061220D01*
X107677057Y-135108839D02*
X107629438Y-135061220D01*
X107629438Y-135061220D02*
X107581819Y-134965982D01*
X107581819Y-134965982D02*
X107581819Y-134727887D01*
X107581819Y-134727887D02*
X107629438Y-134632649D01*
X107629438Y-134632649D02*
X107677057Y-134585030D01*
X107677057Y-134585030D02*
X107772295Y-134537411D01*
X107772295Y-134537411D02*
X107867533Y-134537411D01*
X107867533Y-134537411D02*
X108010390Y-134585030D01*
X108010390Y-134585030D02*
X108581819Y-135156458D01*
X108581819Y-135156458D02*
X108581819Y-134537411D01*
X108581819Y-134061220D02*
X108581819Y-133870744D01*
X108581819Y-133870744D02*
X108534200Y-133775506D01*
X108534200Y-133775506D02*
X108486580Y-133727887D01*
X108486580Y-133727887D02*
X108343723Y-133632649D01*
X108343723Y-133632649D02*
X108153247Y-133585030D01*
X108153247Y-133585030D02*
X107772295Y-133585030D01*
X107772295Y-133585030D02*
X107677057Y-133632649D01*
X107677057Y-133632649D02*
X107629438Y-133680268D01*
X107629438Y-133680268D02*
X107581819Y-133775506D01*
X107581819Y-133775506D02*
X107581819Y-133965982D01*
X107581819Y-133965982D02*
X107629438Y-134061220D01*
X107629438Y-134061220D02*
X107677057Y-134108839D01*
X107677057Y-134108839D02*
X107772295Y-134156458D01*
X107772295Y-134156458D02*
X108010390Y-134156458D01*
X108010390Y-134156458D02*
X108105628Y-134108839D01*
X108105628Y-134108839D02*
X108153247Y-134061220D01*
X108153247Y-134061220D02*
X108200866Y-133965982D01*
X108200866Y-133965982D02*
X108200866Y-133775506D01*
X108200866Y-133775506D02*
X108153247Y-133680268D01*
X108153247Y-133680268D02*
X108105628Y-133632649D01*
X108105628Y-133632649D02*
X108010390Y-133585030D01*
X166166969Y-140855819D02*
X165690779Y-140855819D01*
X165690779Y-140855819D02*
X165643160Y-141332009D01*
X165643160Y-141332009D02*
X165690779Y-141284390D01*
X165690779Y-141284390D02*
X165786017Y-141236771D01*
X165786017Y-141236771D02*
X166024112Y-141236771D01*
X166024112Y-141236771D02*
X166119350Y-141284390D01*
X166119350Y-141284390D02*
X166166969Y-141332009D01*
X166166969Y-141332009D02*
X166214588Y-141427247D01*
X166214588Y-141427247D02*
X166214588Y-141665342D01*
X166214588Y-141665342D02*
X166166969Y-141760580D01*
X166166969Y-141760580D02*
X166119350Y-141808200D01*
X166119350Y-141808200D02*
X166024112Y-141855819D01*
X166024112Y-141855819D02*
X165786017Y-141855819D01*
X165786017Y-141855819D02*
X165690779Y-141808200D01*
X165690779Y-141808200D02*
X165643160Y-141760580D01*
X184439160Y-106788057D02*
X184486779Y-106740438D01*
X184486779Y-106740438D02*
X184582017Y-106692819D01*
X184582017Y-106692819D02*
X184820112Y-106692819D01*
X184820112Y-106692819D02*
X184915350Y-106740438D01*
X184915350Y-106740438D02*
X184962969Y-106788057D01*
X184962969Y-106788057D02*
X185010588Y-106883295D01*
X185010588Y-106883295D02*
X185010588Y-106978533D01*
X185010588Y-106978533D02*
X184962969Y-107121390D01*
X184962969Y-107121390D02*
X184391541Y-107692819D01*
X184391541Y-107692819D02*
X185010588Y-107692819D01*
X116890969Y-128677819D02*
X116414779Y-128677819D01*
X116414779Y-128677819D02*
X116414779Y-127677819D01*
X178454255Y-140855819D02*
X178549493Y-140855819D01*
X178549493Y-140855819D02*
X178644731Y-140903438D01*
X178644731Y-140903438D02*
X178692350Y-140951057D01*
X178692350Y-140951057D02*
X178739969Y-141046295D01*
X178739969Y-141046295D02*
X178787588Y-141236771D01*
X178787588Y-141236771D02*
X178787588Y-141474866D01*
X178787588Y-141474866D02*
X178739969Y-141665342D01*
X178739969Y-141665342D02*
X178692350Y-141760580D01*
X178692350Y-141760580D02*
X178644731Y-141808200D01*
X178644731Y-141808200D02*
X178549493Y-141855819D01*
X178549493Y-141855819D02*
X178454255Y-141855819D01*
X178454255Y-141855819D02*
X178359017Y-141808200D01*
X178359017Y-141808200D02*
X178311398Y-141760580D01*
X178311398Y-141760580D02*
X178263779Y-141665342D01*
X178263779Y-141665342D02*
X178216160Y-141474866D01*
X178216160Y-141474866D02*
X178216160Y-141236771D01*
X178216160Y-141236771D02*
X178263779Y-141046295D01*
X178263779Y-141046295D02*
X178311398Y-140951057D01*
X178311398Y-140951057D02*
X178359017Y-140903438D01*
X178359017Y-140903438D02*
X178454255Y-140855819D01*
X121027819Y-144125792D02*
X120551628Y-144459125D01*
X121027819Y-144697220D02*
X120027819Y-144697220D01*
X120027819Y-144697220D02*
X120027819Y-144316268D01*
X120027819Y-144316268D02*
X120075438Y-144221030D01*
X120075438Y-144221030D02*
X120123057Y-144173411D01*
X120123057Y-144173411D02*
X120218295Y-144125792D01*
X120218295Y-144125792D02*
X120361152Y-144125792D01*
X120361152Y-144125792D02*
X120456390Y-144173411D01*
X120456390Y-144173411D02*
X120504009Y-144221030D01*
X120504009Y-144221030D02*
X120551628Y-144316268D01*
X120551628Y-144316268D02*
X120551628Y-144697220D01*
X120980200Y-143744839D02*
X121027819Y-143601982D01*
X121027819Y-143601982D02*
X121027819Y-143363887D01*
X121027819Y-143363887D02*
X120980200Y-143268649D01*
X120980200Y-143268649D02*
X120932580Y-143221030D01*
X120932580Y-143221030D02*
X120837342Y-143173411D01*
X120837342Y-143173411D02*
X120742104Y-143173411D01*
X120742104Y-143173411D02*
X120646866Y-143221030D01*
X120646866Y-143221030D02*
X120599247Y-143268649D01*
X120599247Y-143268649D02*
X120551628Y-143363887D01*
X120551628Y-143363887D02*
X120504009Y-143554363D01*
X120504009Y-143554363D02*
X120456390Y-143649601D01*
X120456390Y-143649601D02*
X120408771Y-143697220D01*
X120408771Y-143697220D02*
X120313533Y-143744839D01*
X120313533Y-143744839D02*
X120218295Y-143744839D01*
X120218295Y-143744839D02*
X120123057Y-143697220D01*
X120123057Y-143697220D02*
X120075438Y-143649601D01*
X120075438Y-143649601D02*
X120027819Y-143554363D01*
X120027819Y-143554363D02*
X120027819Y-143316268D01*
X120027819Y-143316268D02*
X120075438Y-143173411D01*
X120027819Y-142887696D02*
X120027819Y-142316268D01*
X121027819Y-142601982D02*
X120027819Y-142601982D01*
X120123057Y-142030553D02*
X120075438Y-141982934D01*
X120075438Y-141982934D02*
X120027819Y-141887696D01*
X120027819Y-141887696D02*
X120027819Y-141649601D01*
X120027819Y-141649601D02*
X120075438Y-141554363D01*
X120075438Y-141554363D02*
X120123057Y-141506744D01*
X120123057Y-141506744D02*
X120218295Y-141459125D01*
X120218295Y-141459125D02*
X120313533Y-141459125D01*
X120313533Y-141459125D02*
X120456390Y-141506744D01*
X120456390Y-141506744D02*
X121027819Y-142078172D01*
X121027819Y-142078172D02*
X121027819Y-141459125D01*
X173263160Y-140951057D02*
X173310779Y-140903438D01*
X173310779Y-140903438D02*
X173406017Y-140855819D01*
X173406017Y-140855819D02*
X173644112Y-140855819D01*
X173644112Y-140855819D02*
X173739350Y-140903438D01*
X173739350Y-140903438D02*
X173786969Y-140951057D01*
X173786969Y-140951057D02*
X173834588Y-141046295D01*
X173834588Y-141046295D02*
X173834588Y-141141533D01*
X173834588Y-141141533D02*
X173786969Y-141284390D01*
X173786969Y-141284390D02*
X173215541Y-141855819D01*
X173215541Y-141855819D02*
X173834588Y-141855819D01*
X139962095Y-85604104D02*
X140438285Y-85604104D01*
X139866857Y-85889819D02*
X140200190Y-84889819D01*
X140200190Y-84889819D02*
X140533523Y-85889819D01*
X140866857Y-85366009D02*
X141200190Y-85366009D01*
X141343047Y-85889819D02*
X140866857Y-85889819D01*
X140866857Y-85889819D02*
X140866857Y-84889819D01*
X140866857Y-84889819D02*
X141343047Y-84889819D01*
X141771619Y-85889819D02*
X141771619Y-84889819D01*
X141771619Y-84889819D02*
X142104952Y-85604104D01*
X142104952Y-85604104D02*
X142438285Y-84889819D01*
X142438285Y-84889819D02*
X142438285Y-85889819D01*
X140700191Y-87499819D02*
X140700191Y-86499819D01*
X141176381Y-87499819D02*
X141176381Y-86499819D01*
X141176381Y-86499819D02*
X141747809Y-87499819D01*
X141747809Y-87499819D02*
X141747809Y-86499819D01*
X114636779Y-85340866D02*
X115398684Y-85340866D01*
X115017731Y-85721819D02*
X115017731Y-84959914D01*
X182661160Y-100676104D02*
X183137350Y-100676104D01*
X182565922Y-100961819D02*
X182899255Y-99961819D01*
X182899255Y-99961819D02*
X183232588Y-100961819D01*
X183565922Y-100961819D02*
X183565922Y-99961819D01*
X183565922Y-99961819D02*
X183804017Y-99961819D01*
X183804017Y-99961819D02*
X183946874Y-100009438D01*
X183946874Y-100009438D02*
X184042112Y-100104676D01*
X184042112Y-100104676D02*
X184089731Y-100199914D01*
X184089731Y-100199914D02*
X184137350Y-100390390D01*
X184137350Y-100390390D02*
X184137350Y-100533247D01*
X184137350Y-100533247D02*
X184089731Y-100723723D01*
X184089731Y-100723723D02*
X184042112Y-100818961D01*
X184042112Y-100818961D02*
X183946874Y-100914200D01*
X183946874Y-100914200D02*
X183804017Y-100961819D01*
X183804017Y-100961819D02*
X183565922Y-100961819D01*
X185137350Y-100866580D02*
X185089731Y-100914200D01*
X185089731Y-100914200D02*
X184946874Y-100961819D01*
X184946874Y-100961819D02*
X184851636Y-100961819D01*
X184851636Y-100961819D02*
X184708779Y-100914200D01*
X184708779Y-100914200D02*
X184613541Y-100818961D01*
X184613541Y-100818961D02*
X184565922Y-100723723D01*
X184565922Y-100723723D02*
X184518303Y-100533247D01*
X184518303Y-100533247D02*
X184518303Y-100390390D01*
X184518303Y-100390390D02*
X184565922Y-100199914D01*
X184565922Y-100199914D02*
X184613541Y-100104676D01*
X184613541Y-100104676D02*
X184708779Y-100009438D01*
X184708779Y-100009438D02*
X184851636Y-99961819D01*
X184851636Y-99961819D02*
X184946874Y-99961819D01*
X184946874Y-99961819D02*
X185089731Y-100009438D01*
X185089731Y-100009438D02*
X185137350Y-100057057D01*
X103755819Y-103993792D02*
X103279628Y-104327125D01*
X103755819Y-104565220D02*
X102755819Y-104565220D01*
X102755819Y-104565220D02*
X102755819Y-104184268D01*
X102755819Y-104184268D02*
X102803438Y-104089030D01*
X102803438Y-104089030D02*
X102851057Y-104041411D01*
X102851057Y-104041411D02*
X102946295Y-103993792D01*
X102946295Y-103993792D02*
X103089152Y-103993792D01*
X103089152Y-103993792D02*
X103184390Y-104041411D01*
X103184390Y-104041411D02*
X103232009Y-104089030D01*
X103232009Y-104089030D02*
X103279628Y-104184268D01*
X103279628Y-104184268D02*
X103279628Y-104565220D01*
X102851057Y-103612839D02*
X102803438Y-103565220D01*
X102803438Y-103565220D02*
X102755819Y-103469982D01*
X102755819Y-103469982D02*
X102755819Y-103231887D01*
X102755819Y-103231887D02*
X102803438Y-103136649D01*
X102803438Y-103136649D02*
X102851057Y-103089030D01*
X102851057Y-103089030D02*
X102946295Y-103041411D01*
X102946295Y-103041411D02*
X103041533Y-103041411D01*
X103041533Y-103041411D02*
X103184390Y-103089030D01*
X103184390Y-103089030D02*
X103755819Y-103660458D01*
X103755819Y-103660458D02*
X103755819Y-103041411D01*
X118907160Y-121408057D02*
X118954779Y-121360438D01*
X118954779Y-121360438D02*
X119050017Y-121312819D01*
X119050017Y-121312819D02*
X119288112Y-121312819D01*
X119288112Y-121312819D02*
X119383350Y-121360438D01*
X119383350Y-121360438D02*
X119430969Y-121408057D01*
X119430969Y-121408057D02*
X119478588Y-121503295D01*
X119478588Y-121503295D02*
X119478588Y-121598533D01*
X119478588Y-121598533D02*
X119430969Y-121741390D01*
X119430969Y-121741390D02*
X118859541Y-122312819D01*
X118859541Y-122312819D02*
X119478588Y-122312819D01*
X125304779Y-98660009D02*
X125638112Y-98660009D01*
X125780969Y-99183819D02*
X125304779Y-99183819D01*
X125304779Y-99183819D02*
X125304779Y-98183819D01*
X125304779Y-98183819D02*
X125780969Y-98183819D01*
X126209541Y-99183819D02*
X126209541Y-98183819D01*
X126209541Y-98183819D02*
X126780969Y-99183819D01*
X126780969Y-99183819D02*
X126780969Y-98183819D01*
X97786866Y-131235220D02*
X97786866Y-130473316D01*
X170278588Y-102866819D02*
X169707160Y-102866819D01*
X169992874Y-102866819D02*
X169992874Y-101866819D01*
X169992874Y-101866819D02*
X169897636Y-102009676D01*
X169897636Y-102009676D02*
X169802398Y-102104914D01*
X169802398Y-102104914D02*
X169707160Y-102152533D01*
X111388760Y-85674200D02*
X111531617Y-85721819D01*
X111531617Y-85721819D02*
X111769712Y-85721819D01*
X111769712Y-85721819D02*
X111864950Y-85674200D01*
X111864950Y-85674200D02*
X111912569Y-85626580D01*
X111912569Y-85626580D02*
X111960188Y-85531342D01*
X111960188Y-85531342D02*
X111960188Y-85436104D01*
X111960188Y-85436104D02*
X111912569Y-85340866D01*
X111912569Y-85340866D02*
X111864950Y-85293247D01*
X111864950Y-85293247D02*
X111769712Y-85245628D01*
X111769712Y-85245628D02*
X111579236Y-85198009D01*
X111579236Y-85198009D02*
X111483998Y-85150390D01*
X111483998Y-85150390D02*
X111436379Y-85102771D01*
X111436379Y-85102771D02*
X111388760Y-85007533D01*
X111388760Y-85007533D02*
X111388760Y-84912295D01*
X111388760Y-84912295D02*
X111436379Y-84817057D01*
X111436379Y-84817057D02*
X111483998Y-84769438D01*
X111483998Y-84769438D02*
X111579236Y-84721819D01*
X111579236Y-84721819D02*
X111817331Y-84721819D01*
X111817331Y-84721819D02*
X111960188Y-84769438D01*
X112960188Y-85626580D02*
X112912569Y-85674200D01*
X112912569Y-85674200D02*
X112769712Y-85721819D01*
X112769712Y-85721819D02*
X112674474Y-85721819D01*
X112674474Y-85721819D02*
X112531617Y-85674200D01*
X112531617Y-85674200D02*
X112436379Y-85578961D01*
X112436379Y-85578961D02*
X112388760Y-85483723D01*
X112388760Y-85483723D02*
X112341141Y-85293247D01*
X112341141Y-85293247D02*
X112341141Y-85150390D01*
X112341141Y-85150390D02*
X112388760Y-84959914D01*
X112388760Y-84959914D02*
X112436379Y-84864676D01*
X112436379Y-84864676D02*
X112531617Y-84769438D01*
X112531617Y-84769438D02*
X112674474Y-84721819D01*
X112674474Y-84721819D02*
X112769712Y-84721819D01*
X112769712Y-84721819D02*
X112912569Y-84769438D01*
X112912569Y-84769438D02*
X112960188Y-84817057D01*
X113341141Y-84817057D02*
X113388760Y-84769438D01*
X113388760Y-84769438D02*
X113483998Y-84721819D01*
X113483998Y-84721819D02*
X113722093Y-84721819D01*
X113722093Y-84721819D02*
X113817331Y-84769438D01*
X113817331Y-84769438D02*
X113864950Y-84817057D01*
X113864950Y-84817057D02*
X113912569Y-84912295D01*
X113912569Y-84912295D02*
X113912569Y-85007533D01*
X113912569Y-85007533D02*
X113864950Y-85150390D01*
X113864950Y-85150390D02*
X113293522Y-85721819D01*
X113293522Y-85721819D02*
X113912569Y-85721819D01*
X184391541Y-109359819D02*
X185010588Y-109359819D01*
X185010588Y-109359819D02*
X184677255Y-109740771D01*
X184677255Y-109740771D02*
X184820112Y-109740771D01*
X184820112Y-109740771D02*
X184915350Y-109788390D01*
X184915350Y-109788390D02*
X184962969Y-109836009D01*
X184962969Y-109836009D02*
X185010588Y-109931247D01*
X185010588Y-109931247D02*
X185010588Y-110169342D01*
X185010588Y-110169342D02*
X184962969Y-110264580D01*
X184962969Y-110264580D02*
X184915350Y-110312200D01*
X184915350Y-110312200D02*
X184820112Y-110359819D01*
X184820112Y-110359819D02*
X184534398Y-110359819D01*
X184534398Y-110359819D02*
X184439160Y-110312200D01*
X184439160Y-110312200D02*
X184391541Y-110264580D01*
X110877579Y-87804619D02*
X110877579Y-86804619D01*
X110877579Y-86804619D02*
X111258531Y-86804619D01*
X111258531Y-86804619D02*
X111353769Y-86852238D01*
X111353769Y-86852238D02*
X111401388Y-86899857D01*
X111401388Y-86899857D02*
X111449007Y-86995095D01*
X111449007Y-86995095D02*
X111449007Y-87137952D01*
X111449007Y-87137952D02*
X111401388Y-87233190D01*
X111401388Y-87233190D02*
X111353769Y-87280809D01*
X111353769Y-87280809D02*
X111258531Y-87328428D01*
X111258531Y-87328428D02*
X110877579Y-87328428D01*
X111877579Y-87804619D02*
X111877579Y-87137952D01*
X111877579Y-87328428D02*
X111925198Y-87233190D01*
X111925198Y-87233190D02*
X111972817Y-87185571D01*
X111972817Y-87185571D02*
X112068055Y-87137952D01*
X112068055Y-87137952D02*
X112163293Y-87137952D01*
X112496627Y-87804619D02*
X112496627Y-86804619D01*
X112496627Y-87185571D02*
X112591865Y-87137952D01*
X112591865Y-87137952D02*
X112782341Y-87137952D01*
X112782341Y-87137952D02*
X112877579Y-87185571D01*
X112877579Y-87185571D02*
X112925198Y-87233190D01*
X112925198Y-87233190D02*
X112972817Y-87328428D01*
X112972817Y-87328428D02*
X112972817Y-87614142D01*
X112972817Y-87614142D02*
X112925198Y-87709380D01*
X112925198Y-87709380D02*
X112877579Y-87757000D01*
X112877579Y-87757000D02*
X112782341Y-87804619D01*
X112782341Y-87804619D02*
X112591865Y-87804619D01*
X112591865Y-87804619D02*
X112496627Y-87757000D01*
X113163294Y-87899857D02*
X113925198Y-87899857D01*
X114115675Y-86899857D02*
X114163294Y-86852238D01*
X114163294Y-86852238D02*
X114258532Y-86804619D01*
X114258532Y-86804619D02*
X114496627Y-86804619D01*
X114496627Y-86804619D02*
X114591865Y-86852238D01*
X114591865Y-86852238D02*
X114639484Y-86899857D01*
X114639484Y-86899857D02*
X114687103Y-86995095D01*
X114687103Y-86995095D02*
X114687103Y-87090333D01*
X114687103Y-87090333D02*
X114639484Y-87233190D01*
X114639484Y-87233190D02*
X114068056Y-87804619D01*
X114068056Y-87804619D02*
X114687103Y-87804619D01*
X97174207Y-102485819D02*
X96840874Y-102009628D01*
X96602779Y-102485819D02*
X96602779Y-101485819D01*
X96602779Y-101485819D02*
X96983731Y-101485819D01*
X96983731Y-101485819D02*
X97078969Y-101533438D01*
X97078969Y-101533438D02*
X97126588Y-101581057D01*
X97126588Y-101581057D02*
X97174207Y-101676295D01*
X97174207Y-101676295D02*
X97174207Y-101819152D01*
X97174207Y-101819152D02*
X97126588Y-101914390D01*
X97126588Y-101914390D02*
X97078969Y-101962009D01*
X97078969Y-101962009D02*
X96983731Y-102009628D01*
X96983731Y-102009628D02*
X96602779Y-102009628D01*
X97555160Y-101581057D02*
X97602779Y-101533438D01*
X97602779Y-101533438D02*
X97698017Y-101485819D01*
X97698017Y-101485819D02*
X97936112Y-101485819D01*
X97936112Y-101485819D02*
X98031350Y-101533438D01*
X98031350Y-101533438D02*
X98078969Y-101581057D01*
X98078969Y-101581057D02*
X98126588Y-101676295D01*
X98126588Y-101676295D02*
X98126588Y-101771533D01*
X98126588Y-101771533D02*
X98078969Y-101914390D01*
X98078969Y-101914390D02*
X97507541Y-102485819D01*
X97507541Y-102485819D02*
X98126588Y-102485819D01*
X99031350Y-101485819D02*
X98555160Y-101485819D01*
X98555160Y-101485819D02*
X98507541Y-101962009D01*
X98507541Y-101962009D02*
X98555160Y-101914390D01*
X98555160Y-101914390D02*
X98650398Y-101866771D01*
X98650398Y-101866771D02*
X98888493Y-101866771D01*
X98888493Y-101866771D02*
X98983731Y-101914390D01*
X98983731Y-101914390D02*
X99031350Y-101962009D01*
X99031350Y-101962009D02*
X99078969Y-102057247D01*
X99078969Y-102057247D02*
X99078969Y-102295342D01*
X99078969Y-102295342D02*
X99031350Y-102390580D01*
X99031350Y-102390580D02*
X98983731Y-102438200D01*
X98983731Y-102438200D02*
X98888493Y-102485819D01*
X98888493Y-102485819D02*
X98650398Y-102485819D01*
X98650398Y-102485819D02*
X98555160Y-102438200D01*
X98555160Y-102438200D02*
X98507541Y-102390580D01*
X122320207Y-120708580D02*
X122272588Y-120756200D01*
X122272588Y-120756200D02*
X122129731Y-120803819D01*
X122129731Y-120803819D02*
X122034493Y-120803819D01*
X122034493Y-120803819D02*
X121891636Y-120756200D01*
X121891636Y-120756200D02*
X121796398Y-120660961D01*
X121796398Y-120660961D02*
X121748779Y-120565723D01*
X121748779Y-120565723D02*
X121701160Y-120375247D01*
X121701160Y-120375247D02*
X121701160Y-120232390D01*
X121701160Y-120232390D02*
X121748779Y-120041914D01*
X121748779Y-120041914D02*
X121796398Y-119946676D01*
X121796398Y-119946676D02*
X121891636Y-119851438D01*
X121891636Y-119851438D02*
X122034493Y-119803819D01*
X122034493Y-119803819D02*
X122129731Y-119803819D01*
X122129731Y-119803819D02*
X122272588Y-119851438D01*
X122272588Y-119851438D02*
X122320207Y-119899057D01*
X123082112Y-120280009D02*
X122748779Y-120280009D01*
X122748779Y-120803819D02*
X122748779Y-119803819D01*
X122748779Y-119803819D02*
X123224969Y-119803819D01*
X124129731Y-119851438D02*
X124034493Y-119803819D01*
X124034493Y-119803819D02*
X123891636Y-119803819D01*
X123891636Y-119803819D02*
X123748779Y-119851438D01*
X123748779Y-119851438D02*
X123653541Y-119946676D01*
X123653541Y-119946676D02*
X123605922Y-120041914D01*
X123605922Y-120041914D02*
X123558303Y-120232390D01*
X123558303Y-120232390D02*
X123558303Y-120375247D01*
X123558303Y-120375247D02*
X123605922Y-120565723D01*
X123605922Y-120565723D02*
X123653541Y-120660961D01*
X123653541Y-120660961D02*
X123748779Y-120756200D01*
X123748779Y-120756200D02*
X123891636Y-120803819D01*
X123891636Y-120803819D02*
X123986874Y-120803819D01*
X123986874Y-120803819D02*
X124129731Y-120756200D01*
X124129731Y-120756200D02*
X124177350Y-120708580D01*
X124177350Y-120708580D02*
X124177350Y-120375247D01*
X124177350Y-120375247D02*
X123986874Y-120375247D01*
X99437819Y-134029220D02*
X98437819Y-134029220D01*
X98437819Y-134029220D02*
X98437819Y-133648268D01*
X98437819Y-133648268D02*
X98485438Y-133553030D01*
X98485438Y-133553030D02*
X98533057Y-133505411D01*
X98533057Y-133505411D02*
X98628295Y-133457792D01*
X98628295Y-133457792D02*
X98771152Y-133457792D01*
X98771152Y-133457792D02*
X98866390Y-133505411D01*
X98866390Y-133505411D02*
X98914009Y-133553030D01*
X98914009Y-133553030D02*
X98961628Y-133648268D01*
X98961628Y-133648268D02*
X98961628Y-134029220D01*
X99437819Y-132457792D02*
X98961628Y-132791125D01*
X99437819Y-133029220D02*
X98437819Y-133029220D01*
X98437819Y-133029220D02*
X98437819Y-132648268D01*
X98437819Y-132648268D02*
X98485438Y-132553030D01*
X98485438Y-132553030D02*
X98533057Y-132505411D01*
X98533057Y-132505411D02*
X98628295Y-132457792D01*
X98628295Y-132457792D02*
X98771152Y-132457792D01*
X98771152Y-132457792D02*
X98866390Y-132505411D01*
X98866390Y-132505411D02*
X98914009Y-132553030D01*
X98914009Y-132553030D02*
X98961628Y-132648268D01*
X98961628Y-132648268D02*
X98961628Y-133029220D01*
X99437819Y-132029220D02*
X98437819Y-132029220D01*
X99437819Y-131553030D02*
X98437819Y-131553030D01*
X98437819Y-131553030D02*
X99152104Y-131219697D01*
X99152104Y-131219697D02*
X98437819Y-130886364D01*
X98437819Y-130886364D02*
X99437819Y-130886364D01*
X99437819Y-129886364D02*
X99437819Y-130457792D01*
X99437819Y-130172078D02*
X98437819Y-130172078D01*
X98437819Y-130172078D02*
X98580676Y-130267316D01*
X98580676Y-130267316D02*
X98675914Y-130362554D01*
X98675914Y-130362554D02*
X98723533Y-130457792D01*
X107819819Y-144125792D02*
X107343628Y-144459125D01*
X107819819Y-144697220D02*
X106819819Y-144697220D01*
X106819819Y-144697220D02*
X106819819Y-144316268D01*
X106819819Y-144316268D02*
X106867438Y-144221030D01*
X106867438Y-144221030D02*
X106915057Y-144173411D01*
X106915057Y-144173411D02*
X107010295Y-144125792D01*
X107010295Y-144125792D02*
X107153152Y-144125792D01*
X107153152Y-144125792D02*
X107248390Y-144173411D01*
X107248390Y-144173411D02*
X107296009Y-144221030D01*
X107296009Y-144221030D02*
X107343628Y-144316268D01*
X107343628Y-144316268D02*
X107343628Y-144697220D01*
X107772200Y-143744839D02*
X107819819Y-143601982D01*
X107819819Y-143601982D02*
X107819819Y-143363887D01*
X107819819Y-143363887D02*
X107772200Y-143268649D01*
X107772200Y-143268649D02*
X107724580Y-143221030D01*
X107724580Y-143221030D02*
X107629342Y-143173411D01*
X107629342Y-143173411D02*
X107534104Y-143173411D01*
X107534104Y-143173411D02*
X107438866Y-143221030D01*
X107438866Y-143221030D02*
X107391247Y-143268649D01*
X107391247Y-143268649D02*
X107343628Y-143363887D01*
X107343628Y-143363887D02*
X107296009Y-143554363D01*
X107296009Y-143554363D02*
X107248390Y-143649601D01*
X107248390Y-143649601D02*
X107200771Y-143697220D01*
X107200771Y-143697220D02*
X107105533Y-143744839D01*
X107105533Y-143744839D02*
X107010295Y-143744839D01*
X107010295Y-143744839D02*
X106915057Y-143697220D01*
X106915057Y-143697220D02*
X106867438Y-143649601D01*
X106867438Y-143649601D02*
X106819819Y-143554363D01*
X106819819Y-143554363D02*
X106819819Y-143316268D01*
X106819819Y-143316268D02*
X106867438Y-143173411D01*
X106819819Y-142887696D02*
X106819819Y-142316268D01*
X107819819Y-142601982D02*
X106819819Y-142601982D01*
X107819819Y-141459125D02*
X107819819Y-142030553D01*
X107819819Y-141744839D02*
X106819819Y-141744839D01*
X106819819Y-141744839D02*
X106962676Y-141840077D01*
X106962676Y-141840077D02*
X107057914Y-141935315D01*
X107057914Y-141935315D02*
X107105533Y-142030553D01*
X154314760Y-117821104D02*
X154790950Y-117821104D01*
X154219522Y-118106819D02*
X154552855Y-117106819D01*
X154552855Y-117106819D02*
X154886188Y-118106819D01*
X102231819Y-103993792D02*
X101755628Y-104327125D01*
X102231819Y-104565220D02*
X101231819Y-104565220D01*
X101231819Y-104565220D02*
X101231819Y-104184268D01*
X101231819Y-104184268D02*
X101279438Y-104089030D01*
X101279438Y-104089030D02*
X101327057Y-104041411D01*
X101327057Y-104041411D02*
X101422295Y-103993792D01*
X101422295Y-103993792D02*
X101565152Y-103993792D01*
X101565152Y-103993792D02*
X101660390Y-104041411D01*
X101660390Y-104041411D02*
X101708009Y-104089030D01*
X101708009Y-104089030D02*
X101755628Y-104184268D01*
X101755628Y-104184268D02*
X101755628Y-104565220D01*
X101231819Y-103660458D02*
X101231819Y-103041411D01*
X101231819Y-103041411D02*
X101612771Y-103374744D01*
X101612771Y-103374744D02*
X101612771Y-103231887D01*
X101612771Y-103231887D02*
X101660390Y-103136649D01*
X101660390Y-103136649D02*
X101708009Y-103089030D01*
X101708009Y-103089030D02*
X101803247Y-103041411D01*
X101803247Y-103041411D02*
X102041342Y-103041411D01*
X102041342Y-103041411D02*
X102136580Y-103089030D01*
X102136580Y-103089030D02*
X102184200Y-103136649D01*
X102184200Y-103136649D02*
X102231819Y-103231887D01*
X102231819Y-103231887D02*
X102231819Y-103517601D01*
X102231819Y-103517601D02*
X102184200Y-103612839D01*
X102184200Y-103612839D02*
X102136580Y-103660458D01*
X126765255Y-121312819D02*
X126860493Y-121312819D01*
X126860493Y-121312819D02*
X126955731Y-121360438D01*
X126955731Y-121360438D02*
X127003350Y-121408057D01*
X127003350Y-121408057D02*
X127050969Y-121503295D01*
X127050969Y-121503295D02*
X127098588Y-121693771D01*
X127098588Y-121693771D02*
X127098588Y-121931866D01*
X127098588Y-121931866D02*
X127050969Y-122122342D01*
X127050969Y-122122342D02*
X127003350Y-122217580D01*
X127003350Y-122217580D02*
X126955731Y-122265200D01*
X126955731Y-122265200D02*
X126860493Y-122312819D01*
X126860493Y-122312819D02*
X126765255Y-122312819D01*
X126765255Y-122312819D02*
X126670017Y-122265200D01*
X126670017Y-122265200D02*
X126622398Y-122217580D01*
X126622398Y-122217580D02*
X126574779Y-122122342D01*
X126574779Y-122122342D02*
X126527160Y-121931866D01*
X126527160Y-121931866D02*
X126527160Y-121693771D01*
X126527160Y-121693771D02*
X126574779Y-121503295D01*
X126574779Y-121503295D02*
X126622398Y-121408057D01*
X126622398Y-121408057D02*
X126670017Y-121360438D01*
X126670017Y-121360438D02*
X126765255Y-121312819D01*
X122043819Y-140061792D02*
X121567628Y-140395125D01*
X122043819Y-140633220D02*
X121043819Y-140633220D01*
X121043819Y-140633220D02*
X121043819Y-140252268D01*
X121043819Y-140252268D02*
X121091438Y-140157030D01*
X121091438Y-140157030D02*
X121139057Y-140109411D01*
X121139057Y-140109411D02*
X121234295Y-140061792D01*
X121234295Y-140061792D02*
X121377152Y-140061792D01*
X121377152Y-140061792D02*
X121472390Y-140109411D01*
X121472390Y-140109411D02*
X121520009Y-140157030D01*
X121520009Y-140157030D02*
X121567628Y-140252268D01*
X121567628Y-140252268D02*
X121567628Y-140633220D01*
X121139057Y-139680839D02*
X121091438Y-139633220D01*
X121091438Y-139633220D02*
X121043819Y-139537982D01*
X121043819Y-139537982D02*
X121043819Y-139299887D01*
X121043819Y-139299887D02*
X121091438Y-139204649D01*
X121091438Y-139204649D02*
X121139057Y-139157030D01*
X121139057Y-139157030D02*
X121234295Y-139109411D01*
X121234295Y-139109411D02*
X121329533Y-139109411D01*
X121329533Y-139109411D02*
X121472390Y-139157030D01*
X121472390Y-139157030D02*
X122043819Y-139728458D01*
X122043819Y-139728458D02*
X122043819Y-139109411D01*
X121043819Y-138252268D02*
X121043819Y-138442744D01*
X121043819Y-138442744D02*
X121091438Y-138537982D01*
X121091438Y-138537982D02*
X121139057Y-138585601D01*
X121139057Y-138585601D02*
X121281914Y-138680839D01*
X121281914Y-138680839D02*
X121472390Y-138728458D01*
X121472390Y-138728458D02*
X121853342Y-138728458D01*
X121853342Y-138728458D02*
X121948580Y-138680839D01*
X121948580Y-138680839D02*
X121996200Y-138633220D01*
X121996200Y-138633220D02*
X122043819Y-138537982D01*
X122043819Y-138537982D02*
X122043819Y-138347506D01*
X122043819Y-138347506D02*
X121996200Y-138252268D01*
X121996200Y-138252268D02*
X121948580Y-138204649D01*
X121948580Y-138204649D02*
X121853342Y-138157030D01*
X121853342Y-138157030D02*
X121615247Y-138157030D01*
X121615247Y-138157030D02*
X121520009Y-138204649D01*
X121520009Y-138204649D02*
X121472390Y-138252268D01*
X121472390Y-138252268D02*
X121424771Y-138347506D01*
X121424771Y-138347506D02*
X121424771Y-138537982D01*
X121424771Y-138537982D02*
X121472390Y-138633220D01*
X121472390Y-138633220D02*
X121520009Y-138680839D01*
X121520009Y-138680839D02*
X121615247Y-138728458D01*
X102787316Y-136902866D02*
X103549221Y-136902866D01*
X133146969Y-99097819D02*
X132670779Y-99097819D01*
X132670779Y-99097819D02*
X132670779Y-98097819D01*
X133480303Y-99097819D02*
X133480303Y-98097819D01*
X133480303Y-98097819D02*
X133718398Y-98097819D01*
X133718398Y-98097819D02*
X133861255Y-98145438D01*
X133861255Y-98145438D02*
X133956493Y-98240676D01*
X133956493Y-98240676D02*
X134004112Y-98335914D01*
X134004112Y-98335914D02*
X134051731Y-98526390D01*
X134051731Y-98526390D02*
X134051731Y-98669247D01*
X134051731Y-98669247D02*
X134004112Y-98859723D01*
X134004112Y-98859723D02*
X133956493Y-98954961D01*
X133956493Y-98954961D02*
X133861255Y-99050200D01*
X133861255Y-99050200D02*
X133718398Y-99097819D01*
X133718398Y-99097819D02*
X133480303Y-99097819D01*
X134670779Y-98097819D02*
X134861255Y-98097819D01*
X134861255Y-98097819D02*
X134956493Y-98145438D01*
X134956493Y-98145438D02*
X135051731Y-98240676D01*
X135051731Y-98240676D02*
X135099350Y-98431152D01*
X135099350Y-98431152D02*
X135099350Y-98764485D01*
X135099350Y-98764485D02*
X135051731Y-98954961D01*
X135051731Y-98954961D02*
X134956493Y-99050200D01*
X134956493Y-99050200D02*
X134861255Y-99097819D01*
X134861255Y-99097819D02*
X134670779Y-99097819D01*
X134670779Y-99097819D02*
X134575541Y-99050200D01*
X134575541Y-99050200D02*
X134480303Y-98954961D01*
X134480303Y-98954961D02*
X134432684Y-98764485D01*
X134432684Y-98764485D02*
X134432684Y-98431152D01*
X134432684Y-98431152D02*
X134480303Y-98240676D01*
X134480303Y-98240676D02*
X134575541Y-98145438D01*
X134575541Y-98145438D02*
X134670779Y-98097819D01*
X132623160Y-100660200D02*
X132766017Y-100707819D01*
X132766017Y-100707819D02*
X133004112Y-100707819D01*
X133004112Y-100707819D02*
X133099350Y-100660200D01*
X133099350Y-100660200D02*
X133146969Y-100612580D01*
X133146969Y-100612580D02*
X133194588Y-100517342D01*
X133194588Y-100517342D02*
X133194588Y-100422104D01*
X133194588Y-100422104D02*
X133146969Y-100326866D01*
X133146969Y-100326866D02*
X133099350Y-100279247D01*
X133099350Y-100279247D02*
X133004112Y-100231628D01*
X133004112Y-100231628D02*
X132813636Y-100184009D01*
X132813636Y-100184009D02*
X132718398Y-100136390D01*
X132718398Y-100136390D02*
X132670779Y-100088771D01*
X132670779Y-100088771D02*
X132623160Y-99993533D01*
X132623160Y-99993533D02*
X132623160Y-99898295D01*
X132623160Y-99898295D02*
X132670779Y-99803057D01*
X132670779Y-99803057D02*
X132718398Y-99755438D01*
X132718398Y-99755438D02*
X132813636Y-99707819D01*
X132813636Y-99707819D02*
X133051731Y-99707819D01*
X133051731Y-99707819D02*
X133194588Y-99755438D01*
X134004112Y-100660200D02*
X133908874Y-100707819D01*
X133908874Y-100707819D02*
X133718398Y-100707819D01*
X133718398Y-100707819D02*
X133623160Y-100660200D01*
X133623160Y-100660200D02*
X133575541Y-100564961D01*
X133575541Y-100564961D02*
X133575541Y-100184009D01*
X133575541Y-100184009D02*
X133623160Y-100088771D01*
X133623160Y-100088771D02*
X133718398Y-100041152D01*
X133718398Y-100041152D02*
X133908874Y-100041152D01*
X133908874Y-100041152D02*
X134004112Y-100088771D01*
X134004112Y-100088771D02*
X134051731Y-100184009D01*
X134051731Y-100184009D02*
X134051731Y-100279247D01*
X134051731Y-100279247D02*
X133575541Y-100374485D01*
X134623160Y-100707819D02*
X134527922Y-100660200D01*
X134527922Y-100660200D02*
X134480303Y-100564961D01*
X134480303Y-100564961D02*
X134480303Y-99707819D01*
X157921438Y-143538411D02*
X157873819Y-143633649D01*
X157873819Y-143633649D02*
X157873819Y-143776506D01*
X157873819Y-143776506D02*
X157921438Y-143919363D01*
X157921438Y-143919363D02*
X158016676Y-144014601D01*
X158016676Y-144014601D02*
X158111914Y-144062220D01*
X158111914Y-144062220D02*
X158302390Y-144109839D01*
X158302390Y-144109839D02*
X158445247Y-144109839D01*
X158445247Y-144109839D02*
X158635723Y-144062220D01*
X158635723Y-144062220D02*
X158730961Y-144014601D01*
X158730961Y-144014601D02*
X158826200Y-143919363D01*
X158826200Y-143919363D02*
X158873819Y-143776506D01*
X158873819Y-143776506D02*
X158873819Y-143681268D01*
X158873819Y-143681268D02*
X158826200Y-143538411D01*
X158826200Y-143538411D02*
X158778580Y-143490792D01*
X158778580Y-143490792D02*
X158445247Y-143490792D01*
X158445247Y-143490792D02*
X158445247Y-143681268D01*
X158873819Y-143062220D02*
X157873819Y-143062220D01*
X157873819Y-143062220D02*
X157873819Y-142681268D01*
X157873819Y-142681268D02*
X157921438Y-142586030D01*
X157921438Y-142586030D02*
X157969057Y-142538411D01*
X157969057Y-142538411D02*
X158064295Y-142490792D01*
X158064295Y-142490792D02*
X158207152Y-142490792D01*
X158207152Y-142490792D02*
X158302390Y-142538411D01*
X158302390Y-142538411D02*
X158350009Y-142586030D01*
X158350009Y-142586030D02*
X158397628Y-142681268D01*
X158397628Y-142681268D02*
X158397628Y-143062220D01*
X158873819Y-142062220D02*
X157873819Y-142062220D01*
X157873819Y-141395554D02*
X157873819Y-141205078D01*
X157873819Y-141205078D02*
X157921438Y-141109840D01*
X157921438Y-141109840D02*
X158016676Y-141014602D01*
X158016676Y-141014602D02*
X158207152Y-140966983D01*
X158207152Y-140966983D02*
X158540485Y-140966983D01*
X158540485Y-140966983D02*
X158730961Y-141014602D01*
X158730961Y-141014602D02*
X158826200Y-141109840D01*
X158826200Y-141109840D02*
X158873819Y-141205078D01*
X158873819Y-141205078D02*
X158873819Y-141395554D01*
X158873819Y-141395554D02*
X158826200Y-141490792D01*
X158826200Y-141490792D02*
X158730961Y-141586030D01*
X158730961Y-141586030D02*
X158540485Y-141633649D01*
X158540485Y-141633649D02*
X158207152Y-141633649D01*
X158207152Y-141633649D02*
X158016676Y-141586030D01*
X158016676Y-141586030D02*
X157921438Y-141490792D01*
X157921438Y-141490792D02*
X157873819Y-141395554D01*
X157927922Y-117106819D02*
X158261255Y-118106819D01*
X158261255Y-118106819D02*
X158594588Y-117106819D01*
X170675541Y-140855819D02*
X171294588Y-140855819D01*
X171294588Y-140855819D02*
X170961255Y-141236771D01*
X170961255Y-141236771D02*
X171104112Y-141236771D01*
X171104112Y-141236771D02*
X171199350Y-141284390D01*
X171199350Y-141284390D02*
X171246969Y-141332009D01*
X171246969Y-141332009D02*
X171294588Y-141427247D01*
X171294588Y-141427247D02*
X171294588Y-141665342D01*
X171294588Y-141665342D02*
X171246969Y-141760580D01*
X171246969Y-141760580D02*
X171199350Y-141808200D01*
X171199350Y-141808200D02*
X171104112Y-141855819D01*
X171104112Y-141855819D02*
X170818398Y-141855819D01*
X170818398Y-141855819D02*
X170723160Y-141808200D01*
X170723160Y-141808200D02*
X170675541Y-141760580D01*
X99168009Y-91785887D02*
X99215628Y-91643030D01*
X99215628Y-91643030D02*
X99263247Y-91595411D01*
X99263247Y-91595411D02*
X99358485Y-91547792D01*
X99358485Y-91547792D02*
X99501342Y-91547792D01*
X99501342Y-91547792D02*
X99596580Y-91595411D01*
X99596580Y-91595411D02*
X99644200Y-91643030D01*
X99644200Y-91643030D02*
X99691819Y-91738268D01*
X99691819Y-91738268D02*
X99691819Y-92119220D01*
X99691819Y-92119220D02*
X98691819Y-92119220D01*
X98691819Y-92119220D02*
X98691819Y-91785887D01*
X98691819Y-91785887D02*
X98739438Y-91690649D01*
X98739438Y-91690649D02*
X98787057Y-91643030D01*
X98787057Y-91643030D02*
X98882295Y-91595411D01*
X98882295Y-91595411D02*
X98977533Y-91595411D01*
X98977533Y-91595411D02*
X99072771Y-91643030D01*
X99072771Y-91643030D02*
X99120390Y-91690649D01*
X99120390Y-91690649D02*
X99168009Y-91785887D01*
X99168009Y-91785887D02*
X99168009Y-92119220D01*
X99406104Y-91166839D02*
X99406104Y-90690649D01*
X99691819Y-91262077D02*
X98691819Y-90928744D01*
X98691819Y-90928744D02*
X99691819Y-90595411D01*
X98691819Y-90404934D02*
X98691819Y-89833506D01*
X99691819Y-90119220D02*
X98691819Y-90119220D01*
X98691819Y-89643029D02*
X98691819Y-89071601D01*
X99691819Y-89357315D02*
X98691819Y-89357315D01*
X99691819Y-88214458D02*
X99691819Y-88785886D01*
X99691819Y-88500172D02*
X98691819Y-88500172D01*
X98691819Y-88500172D02*
X98834676Y-88595410D01*
X98834676Y-88595410D02*
X98929914Y-88690648D01*
X98929914Y-88690648D02*
X98977533Y-88785886D01*
X127590779Y-100468819D02*
X127590779Y-99468819D01*
X127590779Y-99945009D02*
X128162207Y-99945009D01*
X128162207Y-100468819D02*
X128162207Y-99468819D01*
X128495541Y-99468819D02*
X128828874Y-100468819D01*
X128828874Y-100468819D02*
X129162207Y-99468819D01*
X98634779Y-123318819D02*
X98634779Y-122318819D01*
X98634779Y-122318819D02*
X99015731Y-122318819D01*
X99015731Y-122318819D02*
X99110969Y-122366438D01*
X99110969Y-122366438D02*
X99158588Y-122414057D01*
X99158588Y-122414057D02*
X99206207Y-122509295D01*
X99206207Y-122509295D02*
X99206207Y-122652152D01*
X99206207Y-122652152D02*
X99158588Y-122747390D01*
X99158588Y-122747390D02*
X99110969Y-122795009D01*
X99110969Y-122795009D02*
X99015731Y-122842628D01*
X99015731Y-122842628D02*
X98634779Y-122842628D01*
X99634779Y-123318819D02*
X99634779Y-122652152D01*
X99634779Y-122842628D02*
X99682398Y-122747390D01*
X99682398Y-122747390D02*
X99730017Y-122699771D01*
X99730017Y-122699771D02*
X99825255Y-122652152D01*
X99825255Y-122652152D02*
X99920493Y-122652152D01*
X100253827Y-123318819D02*
X100253827Y-122318819D01*
X100253827Y-122699771D02*
X100349065Y-122652152D01*
X100349065Y-122652152D02*
X100539541Y-122652152D01*
X100539541Y-122652152D02*
X100634779Y-122699771D01*
X100634779Y-122699771D02*
X100682398Y-122747390D01*
X100682398Y-122747390D02*
X100730017Y-122842628D01*
X100730017Y-122842628D02*
X100730017Y-123128342D01*
X100730017Y-123128342D02*
X100682398Y-123223580D01*
X100682398Y-123223580D02*
X100634779Y-123271200D01*
X100634779Y-123271200D02*
X100539541Y-123318819D01*
X100539541Y-123318819D02*
X100349065Y-123318819D01*
X100349065Y-123318819D02*
X100253827Y-123271200D01*
X100920494Y-123414057D02*
X101682398Y-123414057D01*
X102444303Y-123318819D02*
X101872875Y-123318819D01*
X102158589Y-123318819D02*
X102158589Y-122318819D01*
X102158589Y-122318819D02*
X102063351Y-122461676D01*
X102063351Y-122461676D02*
X101968113Y-122556914D01*
X101968113Y-122556914D02*
X101872875Y-122604533D01*
X96920207Y-99279580D02*
X96872588Y-99327200D01*
X96872588Y-99327200D02*
X96729731Y-99374819D01*
X96729731Y-99374819D02*
X96634493Y-99374819D01*
X96634493Y-99374819D02*
X96491636Y-99327200D01*
X96491636Y-99327200D02*
X96396398Y-99231961D01*
X96396398Y-99231961D02*
X96348779Y-99136723D01*
X96348779Y-99136723D02*
X96301160Y-98946247D01*
X96301160Y-98946247D02*
X96301160Y-98803390D01*
X96301160Y-98803390D02*
X96348779Y-98612914D01*
X96348779Y-98612914D02*
X96396398Y-98517676D01*
X96396398Y-98517676D02*
X96491636Y-98422438D01*
X96491636Y-98422438D02*
X96634493Y-98374819D01*
X96634493Y-98374819D02*
X96729731Y-98374819D01*
X96729731Y-98374819D02*
X96872588Y-98422438D01*
X96872588Y-98422438D02*
X96920207Y-98470057D01*
X97777350Y-98708152D02*
X97777350Y-99374819D01*
X97348779Y-98708152D02*
X97348779Y-99231961D01*
X97348779Y-99231961D02*
X97396398Y-99327200D01*
X97396398Y-99327200D02*
X97491636Y-99374819D01*
X97491636Y-99374819D02*
X97634493Y-99374819D01*
X97634493Y-99374819D02*
X97729731Y-99327200D01*
X97729731Y-99327200D02*
X97777350Y-99279580D01*
X98205922Y-99327200D02*
X98301160Y-99374819D01*
X98301160Y-99374819D02*
X98491636Y-99374819D01*
X98491636Y-99374819D02*
X98586874Y-99327200D01*
X98586874Y-99327200D02*
X98634493Y-99231961D01*
X98634493Y-99231961D02*
X98634493Y-99184342D01*
X98634493Y-99184342D02*
X98586874Y-99089104D01*
X98586874Y-99089104D02*
X98491636Y-99041485D01*
X98491636Y-99041485D02*
X98348779Y-99041485D01*
X98348779Y-99041485D02*
X98253541Y-98993866D01*
X98253541Y-98993866D02*
X98205922Y-98898628D01*
X98205922Y-98898628D02*
X98205922Y-98851009D01*
X98205922Y-98851009D02*
X98253541Y-98755771D01*
X98253541Y-98755771D02*
X98348779Y-98708152D01*
X98348779Y-98708152D02*
X98491636Y-98708152D01*
X98491636Y-98708152D02*
X98586874Y-98755771D01*
X98920208Y-98708152D02*
X99301160Y-98708152D01*
X99063065Y-98374819D02*
X99063065Y-99231961D01*
X99063065Y-99231961D02*
X99110684Y-99327200D01*
X99110684Y-99327200D02*
X99205922Y-99374819D01*
X99205922Y-99374819D02*
X99301160Y-99374819D01*
X99777351Y-99374819D02*
X99682113Y-99327200D01*
X99682113Y-99327200D02*
X99634494Y-99279580D01*
X99634494Y-99279580D02*
X99586875Y-99184342D01*
X99586875Y-99184342D02*
X99586875Y-98898628D01*
X99586875Y-98898628D02*
X99634494Y-98803390D01*
X99634494Y-98803390D02*
X99682113Y-98755771D01*
X99682113Y-98755771D02*
X99777351Y-98708152D01*
X99777351Y-98708152D02*
X99920208Y-98708152D01*
X99920208Y-98708152D02*
X100015446Y-98755771D01*
X100015446Y-98755771D02*
X100063065Y-98803390D01*
X100063065Y-98803390D02*
X100110684Y-98898628D01*
X100110684Y-98898628D02*
X100110684Y-99184342D01*
X100110684Y-99184342D02*
X100063065Y-99279580D01*
X100063065Y-99279580D02*
X100015446Y-99327200D01*
X100015446Y-99327200D02*
X99920208Y-99374819D01*
X99920208Y-99374819D02*
X99777351Y-99374819D01*
X100539256Y-99374819D02*
X100539256Y-98708152D01*
X100539256Y-98803390D02*
X100586875Y-98755771D01*
X100586875Y-98755771D02*
X100682113Y-98708152D01*
X100682113Y-98708152D02*
X100824970Y-98708152D01*
X100824970Y-98708152D02*
X100920208Y-98755771D01*
X100920208Y-98755771D02*
X100967827Y-98851009D01*
X100967827Y-98851009D02*
X100967827Y-99374819D01*
X100967827Y-98851009D02*
X101015446Y-98755771D01*
X101015446Y-98755771D02*
X101110684Y-98708152D01*
X101110684Y-98708152D02*
X101253541Y-98708152D01*
X101253541Y-98708152D02*
X101348780Y-98755771D01*
X101348780Y-98755771D02*
X101396399Y-98851009D01*
X101396399Y-98851009D02*
X101396399Y-99374819D01*
X102634494Y-99374819D02*
X102634494Y-98374819D01*
X102634494Y-98374819D02*
X102967827Y-99089104D01*
X102967827Y-99089104D02*
X103301160Y-98374819D01*
X103301160Y-98374819D02*
X103301160Y-99374819D01*
X103920208Y-99374819D02*
X103824970Y-99327200D01*
X103824970Y-99327200D02*
X103777351Y-99279580D01*
X103777351Y-99279580D02*
X103729732Y-99184342D01*
X103729732Y-99184342D02*
X103729732Y-98898628D01*
X103729732Y-98898628D02*
X103777351Y-98803390D01*
X103777351Y-98803390D02*
X103824970Y-98755771D01*
X103824970Y-98755771D02*
X103920208Y-98708152D01*
X103920208Y-98708152D02*
X104063065Y-98708152D01*
X104063065Y-98708152D02*
X104158303Y-98755771D01*
X104158303Y-98755771D02*
X104205922Y-98803390D01*
X104205922Y-98803390D02*
X104253541Y-98898628D01*
X104253541Y-98898628D02*
X104253541Y-99184342D01*
X104253541Y-99184342D02*
X104205922Y-99279580D01*
X104205922Y-99279580D02*
X104158303Y-99327200D01*
X104158303Y-99327200D02*
X104063065Y-99374819D01*
X104063065Y-99374819D02*
X103920208Y-99374819D01*
X105110684Y-99374819D02*
X105110684Y-98374819D01*
X105110684Y-99327200D02*
X105015446Y-99374819D01*
X105015446Y-99374819D02*
X104824970Y-99374819D01*
X104824970Y-99374819D02*
X104729732Y-99327200D01*
X104729732Y-99327200D02*
X104682113Y-99279580D01*
X104682113Y-99279580D02*
X104634494Y-99184342D01*
X104634494Y-99184342D02*
X104634494Y-98898628D01*
X104634494Y-98898628D02*
X104682113Y-98803390D01*
X104682113Y-98803390D02*
X104729732Y-98755771D01*
X104729732Y-98755771D02*
X104824970Y-98708152D01*
X104824970Y-98708152D02*
X105015446Y-98708152D01*
X105015446Y-98708152D02*
X105110684Y-98755771D01*
X105967827Y-99327200D02*
X105872589Y-99374819D01*
X105872589Y-99374819D02*
X105682113Y-99374819D01*
X105682113Y-99374819D02*
X105586875Y-99327200D01*
X105586875Y-99327200D02*
X105539256Y-99231961D01*
X105539256Y-99231961D02*
X105539256Y-98851009D01*
X105539256Y-98851009D02*
X105586875Y-98755771D01*
X105586875Y-98755771D02*
X105682113Y-98708152D01*
X105682113Y-98708152D02*
X105872589Y-98708152D01*
X105872589Y-98708152D02*
X105967827Y-98755771D01*
X105967827Y-98755771D02*
X106015446Y-98851009D01*
X106015446Y-98851009D02*
X106015446Y-98946247D01*
X106015446Y-98946247D02*
X105539256Y-99041485D01*
X181946779Y-121297819D02*
X181946779Y-122107342D01*
X181946779Y-122107342D02*
X181994398Y-122202580D01*
X181994398Y-122202580D02*
X182042017Y-122250200D01*
X182042017Y-122250200D02*
X182137255Y-122297819D01*
X182137255Y-122297819D02*
X182327731Y-122297819D01*
X182327731Y-122297819D02*
X182422969Y-122250200D01*
X182422969Y-122250200D02*
X182470588Y-122202580D01*
X182470588Y-122202580D02*
X182518207Y-122107342D01*
X182518207Y-122107342D02*
X182518207Y-121297819D01*
X182946779Y-122250200D02*
X183089636Y-122297819D01*
X183089636Y-122297819D02*
X183327731Y-122297819D01*
X183327731Y-122297819D02*
X183422969Y-122250200D01*
X183422969Y-122250200D02*
X183470588Y-122202580D01*
X183470588Y-122202580D02*
X183518207Y-122107342D01*
X183518207Y-122107342D02*
X183518207Y-122012104D01*
X183518207Y-122012104D02*
X183470588Y-121916866D01*
X183470588Y-121916866D02*
X183422969Y-121869247D01*
X183422969Y-121869247D02*
X183327731Y-121821628D01*
X183327731Y-121821628D02*
X183137255Y-121774009D01*
X183137255Y-121774009D02*
X183042017Y-121726390D01*
X183042017Y-121726390D02*
X182994398Y-121678771D01*
X182994398Y-121678771D02*
X182946779Y-121583533D01*
X182946779Y-121583533D02*
X182946779Y-121488295D01*
X182946779Y-121488295D02*
X182994398Y-121393057D01*
X182994398Y-121393057D02*
X183042017Y-121345438D01*
X183042017Y-121345438D02*
X183137255Y-121297819D01*
X183137255Y-121297819D02*
X183375350Y-121297819D01*
X183375350Y-121297819D02*
X183518207Y-121345438D01*
X184280112Y-121774009D02*
X184422969Y-121821628D01*
X184422969Y-121821628D02*
X184470588Y-121869247D01*
X184470588Y-121869247D02*
X184518207Y-121964485D01*
X184518207Y-121964485D02*
X184518207Y-122107342D01*
X184518207Y-122107342D02*
X184470588Y-122202580D01*
X184470588Y-122202580D02*
X184422969Y-122250200D01*
X184422969Y-122250200D02*
X184327731Y-122297819D01*
X184327731Y-122297819D02*
X183946779Y-122297819D01*
X183946779Y-122297819D02*
X183946779Y-121297819D01*
X183946779Y-121297819D02*
X184280112Y-121297819D01*
X184280112Y-121297819D02*
X184375350Y-121345438D01*
X184375350Y-121345438D02*
X184422969Y-121393057D01*
X184422969Y-121393057D02*
X184470588Y-121488295D01*
X184470588Y-121488295D02*
X184470588Y-121583533D01*
X184470588Y-121583533D02*
X184422969Y-121678771D01*
X184422969Y-121678771D02*
X184375350Y-121726390D01*
X184375350Y-121726390D02*
X184280112Y-121774009D01*
X184280112Y-121774009D02*
X183946779Y-121774009D01*
X185708684Y-122297819D02*
X185708684Y-121297819D01*
X185708684Y-121297819D02*
X186089636Y-121297819D01*
X186089636Y-121297819D02*
X186184874Y-121345438D01*
X186184874Y-121345438D02*
X186232493Y-121393057D01*
X186232493Y-121393057D02*
X186280112Y-121488295D01*
X186280112Y-121488295D02*
X186280112Y-121631152D01*
X186280112Y-121631152D02*
X186232493Y-121726390D01*
X186232493Y-121726390D02*
X186184874Y-121774009D01*
X186184874Y-121774009D02*
X186089636Y-121821628D01*
X186089636Y-121821628D02*
X185708684Y-121821628D01*
X186613446Y-121297819D02*
X186851541Y-122297819D01*
X186851541Y-122297819D02*
X187042017Y-121583533D01*
X187042017Y-121583533D02*
X187232493Y-122297819D01*
X187232493Y-122297819D02*
X187470589Y-121297819D01*
X188422969Y-122297819D02*
X188089636Y-121821628D01*
X187851541Y-122297819D02*
X187851541Y-121297819D01*
X187851541Y-121297819D02*
X188232493Y-121297819D01*
X188232493Y-121297819D02*
X188327731Y-121345438D01*
X188327731Y-121345438D02*
X188375350Y-121393057D01*
X188375350Y-121393057D02*
X188422969Y-121488295D01*
X188422969Y-121488295D02*
X188422969Y-121631152D01*
X188422969Y-121631152D02*
X188375350Y-121726390D01*
X188375350Y-121726390D02*
X188327731Y-121774009D01*
X188327731Y-121774009D02*
X188232493Y-121821628D01*
X188232493Y-121821628D02*
X187851541Y-121821628D01*
X175510819Y-123805792D02*
X175034628Y-124139125D01*
X175510819Y-124377220D02*
X174510819Y-124377220D01*
X174510819Y-124377220D02*
X174510819Y-123996268D01*
X174510819Y-123996268D02*
X174558438Y-123901030D01*
X174558438Y-123901030D02*
X174606057Y-123853411D01*
X174606057Y-123853411D02*
X174701295Y-123805792D01*
X174701295Y-123805792D02*
X174844152Y-123805792D01*
X174844152Y-123805792D02*
X174939390Y-123853411D01*
X174939390Y-123853411D02*
X174987009Y-123901030D01*
X174987009Y-123901030D02*
X175034628Y-123996268D01*
X175034628Y-123996268D02*
X175034628Y-124377220D01*
X174987009Y-123377220D02*
X174987009Y-123043887D01*
X175510819Y-122901030D02*
X175510819Y-123377220D01*
X175510819Y-123377220D02*
X174510819Y-123377220D01*
X174510819Y-123377220D02*
X174510819Y-122901030D01*
X175463200Y-122520077D02*
X175510819Y-122377220D01*
X175510819Y-122377220D02*
X175510819Y-122139125D01*
X175510819Y-122139125D02*
X175463200Y-122043887D01*
X175463200Y-122043887D02*
X175415580Y-121996268D01*
X175415580Y-121996268D02*
X175320342Y-121948649D01*
X175320342Y-121948649D02*
X175225104Y-121948649D01*
X175225104Y-121948649D02*
X175129866Y-121996268D01*
X175129866Y-121996268D02*
X175082247Y-122043887D01*
X175082247Y-122043887D02*
X175034628Y-122139125D01*
X175034628Y-122139125D02*
X174987009Y-122329601D01*
X174987009Y-122329601D02*
X174939390Y-122424839D01*
X174939390Y-122424839D02*
X174891771Y-122472458D01*
X174891771Y-122472458D02*
X174796533Y-122520077D01*
X174796533Y-122520077D02*
X174701295Y-122520077D01*
X174701295Y-122520077D02*
X174606057Y-122472458D01*
X174606057Y-122472458D02*
X174558438Y-122424839D01*
X174558438Y-122424839D02*
X174510819Y-122329601D01*
X174510819Y-122329601D02*
X174510819Y-122091506D01*
X174510819Y-122091506D02*
X174558438Y-121948649D01*
X174987009Y-121520077D02*
X174987009Y-121186744D01*
X175510819Y-121043887D02*
X175510819Y-121520077D01*
X175510819Y-121520077D02*
X174510819Y-121520077D01*
X174510819Y-121520077D02*
X174510819Y-121043887D01*
X174510819Y-120758172D02*
X174510819Y-120186744D01*
X175510819Y-120472458D02*
X174510819Y-120472458D01*
X141005160Y-110820200D02*
X141148017Y-110867819D01*
X141148017Y-110867819D02*
X141386112Y-110867819D01*
X141386112Y-110867819D02*
X141481350Y-110820200D01*
X141481350Y-110820200D02*
X141528969Y-110772580D01*
X141528969Y-110772580D02*
X141576588Y-110677342D01*
X141576588Y-110677342D02*
X141576588Y-110582104D01*
X141576588Y-110582104D02*
X141528969Y-110486866D01*
X141528969Y-110486866D02*
X141481350Y-110439247D01*
X141481350Y-110439247D02*
X141386112Y-110391628D01*
X141386112Y-110391628D02*
X141195636Y-110344009D01*
X141195636Y-110344009D02*
X141100398Y-110296390D01*
X141100398Y-110296390D02*
X141052779Y-110248771D01*
X141052779Y-110248771D02*
X141005160Y-110153533D01*
X141005160Y-110153533D02*
X141005160Y-110058295D01*
X141005160Y-110058295D02*
X141052779Y-109963057D01*
X141052779Y-109963057D02*
X141100398Y-109915438D01*
X141100398Y-109915438D02*
X141195636Y-109867819D01*
X141195636Y-109867819D02*
X141433731Y-109867819D01*
X141433731Y-109867819D02*
X141576588Y-109915438D01*
X142576588Y-110772580D02*
X142528969Y-110820200D01*
X142528969Y-110820200D02*
X142386112Y-110867819D01*
X142386112Y-110867819D02*
X142290874Y-110867819D01*
X142290874Y-110867819D02*
X142148017Y-110820200D01*
X142148017Y-110820200D02*
X142052779Y-110724961D01*
X142052779Y-110724961D02*
X142005160Y-110629723D01*
X142005160Y-110629723D02*
X141957541Y-110439247D01*
X141957541Y-110439247D02*
X141957541Y-110296390D01*
X141957541Y-110296390D02*
X142005160Y-110105914D01*
X142005160Y-110105914D02*
X142052779Y-110010676D01*
X142052779Y-110010676D02*
X142148017Y-109915438D01*
X142148017Y-109915438D02*
X142290874Y-109867819D01*
X142290874Y-109867819D02*
X142386112Y-109867819D01*
X142386112Y-109867819D02*
X142528969Y-109915438D01*
X142528969Y-109915438D02*
X142576588Y-109963057D01*
X142767065Y-110963057D02*
X143528969Y-110963057D01*
X143624208Y-109867819D02*
X144195636Y-109867819D01*
X143909922Y-110867819D02*
X143909922Y-109867819D01*
X99650779Y-136140819D02*
X99650779Y-135140819D01*
X99650779Y-135140819D02*
X100031731Y-135140819D01*
X100031731Y-135140819D02*
X100126969Y-135188438D01*
X100126969Y-135188438D02*
X100174588Y-135236057D01*
X100174588Y-135236057D02*
X100222207Y-135331295D01*
X100222207Y-135331295D02*
X100222207Y-135474152D01*
X100222207Y-135474152D02*
X100174588Y-135569390D01*
X100174588Y-135569390D02*
X100126969Y-135617009D01*
X100126969Y-135617009D02*
X100031731Y-135664628D01*
X100031731Y-135664628D02*
X99650779Y-135664628D01*
X101222207Y-136140819D02*
X100888874Y-135664628D01*
X100650779Y-136140819D02*
X100650779Y-135140819D01*
X100650779Y-135140819D02*
X101031731Y-135140819D01*
X101031731Y-135140819D02*
X101126969Y-135188438D01*
X101126969Y-135188438D02*
X101174588Y-135236057D01*
X101174588Y-135236057D02*
X101222207Y-135331295D01*
X101222207Y-135331295D02*
X101222207Y-135474152D01*
X101222207Y-135474152D02*
X101174588Y-135569390D01*
X101174588Y-135569390D02*
X101126969Y-135617009D01*
X101126969Y-135617009D02*
X101031731Y-135664628D01*
X101031731Y-135664628D02*
X100650779Y-135664628D01*
X101650779Y-136140819D02*
X101650779Y-135140819D01*
X102126969Y-136140819D02*
X102126969Y-135140819D01*
X102126969Y-135140819D02*
X102460302Y-135855104D01*
X102460302Y-135855104D02*
X102793635Y-135140819D01*
X102793635Y-135140819D02*
X102793635Y-136140819D01*
X103222207Y-135236057D02*
X103269826Y-135188438D01*
X103269826Y-135188438D02*
X103365064Y-135140819D01*
X103365064Y-135140819D02*
X103603159Y-135140819D01*
X103603159Y-135140819D02*
X103698397Y-135188438D01*
X103698397Y-135188438D02*
X103746016Y-135236057D01*
X103746016Y-135236057D02*
X103793635Y-135331295D01*
X103793635Y-135331295D02*
X103793635Y-135426533D01*
X103793635Y-135426533D02*
X103746016Y-135569390D01*
X103746016Y-135569390D02*
X103174588Y-136140819D01*
X103174588Y-136140819D02*
X103793635Y-136140819D01*
X102143160Y-115789104D02*
X102619350Y-115789104D01*
X102047922Y-116074819D02*
X102381255Y-115074819D01*
X102381255Y-115074819D02*
X102714588Y-116074819D01*
X98126779Y-85340866D02*
X98888684Y-85340866D01*
X122209160Y-85674200D02*
X122352017Y-85721819D01*
X122352017Y-85721819D02*
X122590112Y-85721819D01*
X122590112Y-85721819D02*
X122685350Y-85674200D01*
X122685350Y-85674200D02*
X122732969Y-85626580D01*
X122732969Y-85626580D02*
X122780588Y-85531342D01*
X122780588Y-85531342D02*
X122780588Y-85436104D01*
X122780588Y-85436104D02*
X122732969Y-85340866D01*
X122732969Y-85340866D02*
X122685350Y-85293247D01*
X122685350Y-85293247D02*
X122590112Y-85245628D01*
X122590112Y-85245628D02*
X122399636Y-85198009D01*
X122399636Y-85198009D02*
X122304398Y-85150390D01*
X122304398Y-85150390D02*
X122256779Y-85102771D01*
X122256779Y-85102771D02*
X122209160Y-85007533D01*
X122209160Y-85007533D02*
X122209160Y-84912295D01*
X122209160Y-84912295D02*
X122256779Y-84817057D01*
X122256779Y-84817057D02*
X122304398Y-84769438D01*
X122304398Y-84769438D02*
X122399636Y-84721819D01*
X122399636Y-84721819D02*
X122637731Y-84721819D01*
X122637731Y-84721819D02*
X122780588Y-84769438D01*
X123780588Y-85626580D02*
X123732969Y-85674200D01*
X123732969Y-85674200D02*
X123590112Y-85721819D01*
X123590112Y-85721819D02*
X123494874Y-85721819D01*
X123494874Y-85721819D02*
X123352017Y-85674200D01*
X123352017Y-85674200D02*
X123256779Y-85578961D01*
X123256779Y-85578961D02*
X123209160Y-85483723D01*
X123209160Y-85483723D02*
X123161541Y-85293247D01*
X123161541Y-85293247D02*
X123161541Y-85150390D01*
X123161541Y-85150390D02*
X123209160Y-84959914D01*
X123209160Y-84959914D02*
X123256779Y-84864676D01*
X123256779Y-84864676D02*
X123352017Y-84769438D01*
X123352017Y-84769438D02*
X123494874Y-84721819D01*
X123494874Y-84721819D02*
X123590112Y-84721819D01*
X123590112Y-84721819D02*
X123732969Y-84769438D01*
X123732969Y-84769438D02*
X123780588Y-84817057D01*
X124732969Y-85721819D02*
X124161541Y-85721819D01*
X124447255Y-85721819D02*
X124447255Y-84721819D01*
X124447255Y-84721819D02*
X124352017Y-84864676D01*
X124352017Y-84864676D02*
X124256779Y-84959914D01*
X124256779Y-84959914D02*
X124161541Y-85007533D01*
X128901819Y-144443220D02*
X127901819Y-144443220D01*
X127901819Y-144443220D02*
X127901819Y-144062268D01*
X127901819Y-144062268D02*
X127949438Y-143967030D01*
X127949438Y-143967030D02*
X127997057Y-143919411D01*
X127997057Y-143919411D02*
X128092295Y-143871792D01*
X128092295Y-143871792D02*
X128235152Y-143871792D01*
X128235152Y-143871792D02*
X128330390Y-143919411D01*
X128330390Y-143919411D02*
X128378009Y-143967030D01*
X128378009Y-143967030D02*
X128425628Y-144062268D01*
X128425628Y-144062268D02*
X128425628Y-144443220D01*
X127997057Y-143490839D02*
X127949438Y-143443220D01*
X127949438Y-143443220D02*
X127901819Y-143347982D01*
X127901819Y-143347982D02*
X127901819Y-143109887D01*
X127901819Y-143109887D02*
X127949438Y-143014649D01*
X127949438Y-143014649D02*
X127997057Y-142967030D01*
X127997057Y-142967030D02*
X128092295Y-142919411D01*
X128092295Y-142919411D02*
X128187533Y-142919411D01*
X128187533Y-142919411D02*
X128330390Y-142967030D01*
X128330390Y-142967030D02*
X128901819Y-143538458D01*
X128901819Y-143538458D02*
X128901819Y-142919411D01*
X127901819Y-142062268D02*
X127901819Y-142252744D01*
X127901819Y-142252744D02*
X127949438Y-142347982D01*
X127949438Y-142347982D02*
X127997057Y-142395601D01*
X127997057Y-142395601D02*
X128139914Y-142490839D01*
X128139914Y-142490839D02*
X128330390Y-142538458D01*
X128330390Y-142538458D02*
X128711342Y-142538458D01*
X128711342Y-142538458D02*
X128806580Y-142490839D01*
X128806580Y-142490839D02*
X128854200Y-142443220D01*
X128854200Y-142443220D02*
X128901819Y-142347982D01*
X128901819Y-142347982D02*
X128901819Y-142157506D01*
X128901819Y-142157506D02*
X128854200Y-142062268D01*
X128854200Y-142062268D02*
X128806580Y-142014649D01*
X128806580Y-142014649D02*
X128711342Y-141967030D01*
X128711342Y-141967030D02*
X128473247Y-141967030D01*
X128473247Y-141967030D02*
X128378009Y-142014649D01*
X128378009Y-142014649D02*
X128330390Y-142062268D01*
X128330390Y-142062268D02*
X128282771Y-142157506D01*
X128282771Y-142157506D02*
X128282771Y-142347982D01*
X128282771Y-142347982D02*
X128330390Y-142443220D01*
X128330390Y-142443220D02*
X128378009Y-142490839D01*
X128378009Y-142490839D02*
X128473247Y-142538458D01*
X98968112Y-86468009D02*
X99110969Y-86515628D01*
X99110969Y-86515628D02*
X99158588Y-86563247D01*
X99158588Y-86563247D02*
X99206207Y-86658485D01*
X99206207Y-86658485D02*
X99206207Y-86801342D01*
X99206207Y-86801342D02*
X99158588Y-86896580D01*
X99158588Y-86896580D02*
X99110969Y-86944200D01*
X99110969Y-86944200D02*
X99015731Y-86991819D01*
X99015731Y-86991819D02*
X98634779Y-86991819D01*
X98634779Y-86991819D02*
X98634779Y-85991819D01*
X98634779Y-85991819D02*
X98968112Y-85991819D01*
X98968112Y-85991819D02*
X99063350Y-86039438D01*
X99063350Y-86039438D02*
X99110969Y-86087057D01*
X99110969Y-86087057D02*
X99158588Y-86182295D01*
X99158588Y-86182295D02*
X99158588Y-86277533D01*
X99158588Y-86277533D02*
X99110969Y-86372771D01*
X99110969Y-86372771D02*
X99063350Y-86420390D01*
X99063350Y-86420390D02*
X98968112Y-86468009D01*
X98968112Y-86468009D02*
X98634779Y-86468009D01*
X99587160Y-86706104D02*
X100063350Y-86706104D01*
X99491922Y-86991819D02*
X99825255Y-85991819D01*
X99825255Y-85991819D02*
X100158588Y-86991819D01*
X100349065Y-85991819D02*
X100920493Y-85991819D01*
X100634779Y-86991819D02*
X100634779Y-85991819D01*
X101110970Y-85991819D02*
X101682398Y-85991819D01*
X101396684Y-86991819D02*
X101396684Y-85991819D01*
X101968113Y-86087057D02*
X102015732Y-86039438D01*
X102015732Y-86039438D02*
X102110970Y-85991819D01*
X102110970Y-85991819D02*
X102349065Y-85991819D01*
X102349065Y-85991819D02*
X102444303Y-86039438D01*
X102444303Y-86039438D02*
X102491922Y-86087057D01*
X102491922Y-86087057D02*
X102539541Y-86182295D01*
X102539541Y-86182295D02*
X102539541Y-86277533D01*
X102539541Y-86277533D02*
X102491922Y-86420390D01*
X102491922Y-86420390D02*
X101920494Y-86991819D01*
X101920494Y-86991819D02*
X102539541Y-86991819D01*
X116414779Y-125883819D02*
X116414779Y-124883819D01*
X116414779Y-125360009D02*
X116986207Y-125360009D01*
X116986207Y-125883819D02*
X116986207Y-124883819D01*
X100707819Y-103993792D02*
X100231628Y-104327125D01*
X100707819Y-104565220D02*
X99707819Y-104565220D01*
X99707819Y-104565220D02*
X99707819Y-104184268D01*
X99707819Y-104184268D02*
X99755438Y-104089030D01*
X99755438Y-104089030D02*
X99803057Y-104041411D01*
X99803057Y-104041411D02*
X99898295Y-103993792D01*
X99898295Y-103993792D02*
X100041152Y-103993792D01*
X100041152Y-103993792D02*
X100136390Y-104041411D01*
X100136390Y-104041411D02*
X100184009Y-104089030D01*
X100184009Y-104089030D02*
X100231628Y-104184268D01*
X100231628Y-104184268D02*
X100231628Y-104565220D01*
X100041152Y-103136649D02*
X100707819Y-103136649D01*
X99660200Y-103374744D02*
X100374485Y-103612839D01*
X100374485Y-103612839D02*
X100374485Y-102993792D01*
X125558779Y-85340866D02*
X126320684Y-85340866D01*
X125939731Y-85721819D02*
X125939731Y-84959914D01*
X103569922Y-127133104D02*
X104046112Y-127133104D01*
X103438969Y-127418819D02*
X103897303Y-126418819D01*
X103897303Y-126418819D02*
X104105636Y-127418819D01*
X104504446Y-126895009D02*
X104837779Y-126895009D01*
X104915160Y-127418819D02*
X104438969Y-127418819D01*
X104438969Y-127418819D02*
X104563969Y-126418819D01*
X104563969Y-126418819D02*
X105040160Y-126418819D01*
X105343731Y-127418819D02*
X105468731Y-126418819D01*
X105468731Y-126418819D02*
X105712779Y-127133104D01*
X105712779Y-127133104D02*
X106135398Y-126418819D01*
X106135398Y-126418819D02*
X106010398Y-127418819D01*
X107010398Y-127418819D02*
X106438969Y-127418819D01*
X106724684Y-127418819D02*
X106849684Y-126418819D01*
X106849684Y-126418819D02*
X106736588Y-126561676D01*
X106736588Y-126561676D02*
X106629446Y-126656914D01*
X106629446Y-126656914D02*
X106528255Y-126704533D01*
X107754446Y-126418819D02*
X107849684Y-126418819D01*
X107849684Y-126418819D02*
X107938969Y-126466438D01*
X107938969Y-126466438D02*
X107980636Y-126514057D01*
X107980636Y-126514057D02*
X108016350Y-126609295D01*
X108016350Y-126609295D02*
X108040160Y-126799771D01*
X108040160Y-126799771D02*
X108010398Y-127037866D01*
X108010398Y-127037866D02*
X107938969Y-127228342D01*
X107938969Y-127228342D02*
X107879446Y-127323580D01*
X107879446Y-127323580D02*
X107825874Y-127371200D01*
X107825874Y-127371200D02*
X107724684Y-127418819D01*
X107724684Y-127418819D02*
X107629446Y-127418819D01*
X107629446Y-127418819D02*
X107540160Y-127371200D01*
X107540160Y-127371200D02*
X107498493Y-127323580D01*
X107498493Y-127323580D02*
X107462779Y-127228342D01*
X107462779Y-127228342D02*
X107438969Y-127037866D01*
X107438969Y-127037866D02*
X107468731Y-126799771D01*
X107468731Y-126799771D02*
X107540160Y-126609295D01*
X107540160Y-126609295D02*
X107599684Y-126514057D01*
X107599684Y-126514057D02*
X107653255Y-126466438D01*
X107653255Y-126466438D02*
X107754446Y-126418819D01*
X108438969Y-127418819D02*
X108629446Y-127418819D01*
X108629446Y-127418819D02*
X108730636Y-127371200D01*
X108730636Y-127371200D02*
X108784208Y-127323580D01*
X108784208Y-127323580D02*
X108897303Y-127180723D01*
X108897303Y-127180723D02*
X108968731Y-126990247D01*
X108968731Y-126990247D02*
X109016350Y-126609295D01*
X109016350Y-126609295D02*
X108980636Y-126514057D01*
X108980636Y-126514057D02*
X108938969Y-126466438D01*
X108938969Y-126466438D02*
X108849684Y-126418819D01*
X108849684Y-126418819D02*
X108659208Y-126418819D01*
X108659208Y-126418819D02*
X108558017Y-126466438D01*
X108558017Y-126466438D02*
X108504446Y-126514057D01*
X108504446Y-126514057D02*
X108444922Y-126609295D01*
X108444922Y-126609295D02*
X108415160Y-126847390D01*
X108415160Y-126847390D02*
X108450874Y-126942628D01*
X108450874Y-126942628D02*
X108492541Y-126990247D01*
X108492541Y-126990247D02*
X108581827Y-127037866D01*
X108581827Y-127037866D02*
X108772303Y-127037866D01*
X108772303Y-127037866D02*
X108873493Y-126990247D01*
X108873493Y-126990247D02*
X108927065Y-126942628D01*
X108927065Y-126942628D02*
X108986588Y-126847390D01*
X109855636Y-126752152D02*
X109772303Y-127418819D01*
X109665160Y-126371200D02*
X109337779Y-127085485D01*
X109337779Y-127085485D02*
X109956827Y-127085485D01*
X110819922Y-127418819D02*
X110248493Y-127418819D01*
X110534208Y-127418819D02*
X110659208Y-126418819D01*
X110659208Y-126418819D02*
X110546112Y-126561676D01*
X110546112Y-126561676D02*
X110438970Y-126656914D01*
X110438970Y-126656914D02*
X110337779Y-126704533D01*
X103980636Y-128505009D02*
X104117541Y-128552628D01*
X104117541Y-128552628D02*
X104159207Y-128600247D01*
X104159207Y-128600247D02*
X104194922Y-128695485D01*
X104194922Y-128695485D02*
X104177064Y-128838342D01*
X104177064Y-128838342D02*
X104117541Y-128933580D01*
X104117541Y-128933580D02*
X104063969Y-128981200D01*
X104063969Y-128981200D02*
X103962779Y-129028819D01*
X103962779Y-129028819D02*
X103581826Y-129028819D01*
X103581826Y-129028819D02*
X103706826Y-128028819D01*
X103706826Y-128028819D02*
X104040160Y-128028819D01*
X104040160Y-128028819D02*
X104129445Y-128076438D01*
X104129445Y-128076438D02*
X104171112Y-128124057D01*
X104171112Y-128124057D02*
X104206826Y-128219295D01*
X104206826Y-128219295D02*
X104194922Y-128314533D01*
X104194922Y-128314533D02*
X104135398Y-128409771D01*
X104135398Y-128409771D02*
X104081826Y-128457390D01*
X104081826Y-128457390D02*
X103980636Y-128505009D01*
X103980636Y-128505009D02*
X103647303Y-128505009D01*
X104724684Y-129028819D02*
X104635398Y-128981200D01*
X104635398Y-128981200D02*
X104593731Y-128933580D01*
X104593731Y-128933580D02*
X104558017Y-128838342D01*
X104558017Y-128838342D02*
X104593731Y-128552628D01*
X104593731Y-128552628D02*
X104653255Y-128457390D01*
X104653255Y-128457390D02*
X104706826Y-128409771D01*
X104706826Y-128409771D02*
X104808017Y-128362152D01*
X104808017Y-128362152D02*
X104950874Y-128362152D01*
X104950874Y-128362152D02*
X105040160Y-128409771D01*
X105040160Y-128409771D02*
X105081826Y-128457390D01*
X105081826Y-128457390D02*
X105117541Y-128552628D01*
X105117541Y-128552628D02*
X105081826Y-128838342D01*
X105081826Y-128838342D02*
X105022303Y-128933580D01*
X105022303Y-128933580D02*
X104968731Y-128981200D01*
X104968731Y-128981200D02*
X104867541Y-129028819D01*
X104867541Y-129028819D02*
X104724684Y-129028819D01*
X105915160Y-129028819D02*
X105980636Y-128505009D01*
X105980636Y-128505009D02*
X105944922Y-128409771D01*
X105944922Y-128409771D02*
X105855636Y-128362152D01*
X105855636Y-128362152D02*
X105665160Y-128362152D01*
X105665160Y-128362152D02*
X105563969Y-128409771D01*
X105921112Y-128981200D02*
X105819922Y-129028819D01*
X105819922Y-129028819D02*
X105581826Y-129028819D01*
X105581826Y-129028819D02*
X105492541Y-128981200D01*
X105492541Y-128981200D02*
X105456826Y-128885961D01*
X105456826Y-128885961D02*
X105468731Y-128790723D01*
X105468731Y-128790723D02*
X105528255Y-128695485D01*
X105528255Y-128695485D02*
X105629446Y-128647866D01*
X105629446Y-128647866D02*
X105867541Y-128647866D01*
X105867541Y-128647866D02*
X105968731Y-128600247D01*
X106391350Y-129028819D02*
X106474684Y-128362152D01*
X106450874Y-128552628D02*
X106510398Y-128457390D01*
X106510398Y-128457390D02*
X106563969Y-128409771D01*
X106563969Y-128409771D02*
X106665160Y-128362152D01*
X106665160Y-128362152D02*
X106760398Y-128362152D01*
X107438970Y-129028819D02*
X107563970Y-128028819D01*
X107444922Y-128981200D02*
X107343732Y-129028819D01*
X107343732Y-129028819D02*
X107153256Y-129028819D01*
X107153256Y-129028819D02*
X107063970Y-128981200D01*
X107063970Y-128981200D02*
X107022303Y-128933580D01*
X107022303Y-128933580D02*
X106986589Y-128838342D01*
X106986589Y-128838342D02*
X107022303Y-128552628D01*
X107022303Y-128552628D02*
X107081827Y-128457390D01*
X107081827Y-128457390D02*
X107135398Y-128409771D01*
X107135398Y-128409771D02*
X107236589Y-128362152D01*
X107236589Y-128362152D02*
X107427065Y-128362152D01*
X107427065Y-128362152D02*
X107516351Y-128409771D01*
X121716969Y-106818819D02*
X121240779Y-106818819D01*
X121240779Y-106818819D02*
X121240779Y-105818819D01*
X123748969Y-100453819D02*
X123272779Y-100453819D01*
X123272779Y-100453819D02*
X123272779Y-99453819D01*
X123939446Y-99453819D02*
X124272779Y-100453819D01*
X124272779Y-100453819D02*
X124606112Y-99453819D01*
X131162588Y-122312819D02*
X130591160Y-122312819D01*
X130876874Y-122312819D02*
X130876874Y-121312819D01*
X130876874Y-121312819D02*
X130781636Y-121455676D01*
X130781636Y-121455676D02*
X130686398Y-121550914D01*
X130686398Y-121550914D02*
X130591160Y-121598533D01*
X169834160Y-105645057D02*
X169881779Y-105597438D01*
X169881779Y-105597438D02*
X169977017Y-105549819D01*
X169977017Y-105549819D02*
X170215112Y-105549819D01*
X170215112Y-105549819D02*
X170310350Y-105597438D01*
X170310350Y-105597438D02*
X170357969Y-105645057D01*
X170357969Y-105645057D02*
X170405588Y-105740295D01*
X170405588Y-105740295D02*
X170405588Y-105835533D01*
X170405588Y-105835533D02*
X170357969Y-105978390D01*
X170357969Y-105978390D02*
X169786541Y-106549819D01*
X169786541Y-106549819D02*
X170405588Y-106549819D01*
X131368969Y-106803819D02*
X130892779Y-106803819D01*
X130892779Y-106803819D02*
X130892779Y-105803819D01*
X131559446Y-105803819D02*
X131892779Y-106803819D01*
X131892779Y-106803819D02*
X132226112Y-105803819D01*
X142656160Y-134356200D02*
X142793064Y-134403819D01*
X142793064Y-134403819D02*
X143031160Y-134403819D01*
X143031160Y-134403819D02*
X143132350Y-134356200D01*
X143132350Y-134356200D02*
X143185922Y-134308580D01*
X143185922Y-134308580D02*
X143245445Y-134213342D01*
X143245445Y-134213342D02*
X143257350Y-134118104D01*
X143257350Y-134118104D02*
X143221636Y-134022866D01*
X143221636Y-134022866D02*
X143179969Y-133975247D01*
X143179969Y-133975247D02*
X143090684Y-133927628D01*
X143090684Y-133927628D02*
X142906160Y-133880009D01*
X142906160Y-133880009D02*
X142816874Y-133832390D01*
X142816874Y-133832390D02*
X142775207Y-133784771D01*
X142775207Y-133784771D02*
X142739493Y-133689533D01*
X142739493Y-133689533D02*
X142751398Y-133594295D01*
X142751398Y-133594295D02*
X142810922Y-133499057D01*
X142810922Y-133499057D02*
X142864493Y-133451438D01*
X142864493Y-133451438D02*
X142965684Y-133403819D01*
X142965684Y-133403819D02*
X143203779Y-133403819D01*
X143203779Y-133403819D02*
X143340684Y-133451438D01*
X143793065Y-134403819D02*
X143703779Y-134356200D01*
X143703779Y-134356200D02*
X143662112Y-134308580D01*
X143662112Y-134308580D02*
X143626398Y-134213342D01*
X143626398Y-134213342D02*
X143662112Y-133927628D01*
X143662112Y-133927628D02*
X143721636Y-133832390D01*
X143721636Y-133832390D02*
X143775207Y-133784771D01*
X143775207Y-133784771D02*
X143876398Y-133737152D01*
X143876398Y-133737152D02*
X144019255Y-133737152D01*
X144019255Y-133737152D02*
X144108541Y-133784771D01*
X144108541Y-133784771D02*
X144150207Y-133832390D01*
X144150207Y-133832390D02*
X144185922Y-133927628D01*
X144185922Y-133927628D02*
X144150207Y-134213342D01*
X144150207Y-134213342D02*
X144090684Y-134308580D01*
X144090684Y-134308580D02*
X144037112Y-134356200D01*
X144037112Y-134356200D02*
X143935922Y-134403819D01*
X143935922Y-134403819D02*
X143793065Y-134403819D01*
X144697827Y-134403819D02*
X144608541Y-134356200D01*
X144608541Y-134356200D02*
X144572827Y-134260961D01*
X144572827Y-134260961D02*
X144679969Y-133403819D01*
X145507351Y-134403819D02*
X145572827Y-133880009D01*
X145572827Y-133880009D02*
X145537113Y-133784771D01*
X145537113Y-133784771D02*
X145447827Y-133737152D01*
X145447827Y-133737152D02*
X145257351Y-133737152D01*
X145257351Y-133737152D02*
X145156160Y-133784771D01*
X145513303Y-134356200D02*
X145412113Y-134403819D01*
X145412113Y-134403819D02*
X145174017Y-134403819D01*
X145174017Y-134403819D02*
X145084732Y-134356200D01*
X145084732Y-134356200D02*
X145049017Y-134260961D01*
X145049017Y-134260961D02*
X145060922Y-134165723D01*
X145060922Y-134165723D02*
X145120446Y-134070485D01*
X145120446Y-134070485D02*
X145221637Y-134022866D01*
X145221637Y-134022866D02*
X145459732Y-134022866D01*
X145459732Y-134022866D02*
X145560922Y-133975247D01*
X145983541Y-134403819D02*
X146066875Y-133737152D01*
X146043065Y-133927628D02*
X146102589Y-133832390D01*
X146102589Y-133832390D02*
X146156160Y-133784771D01*
X146156160Y-133784771D02*
X146257351Y-133737152D01*
X146257351Y-133737152D02*
X146352589Y-133737152D01*
X147429971Y-133880009D02*
X147763304Y-133880009D01*
X147840685Y-134403819D02*
X147364494Y-134403819D01*
X147364494Y-134403819D02*
X147489494Y-133403819D01*
X147489494Y-133403819D02*
X147965685Y-133403819D01*
X148352590Y-133737152D02*
X148269256Y-134403819D01*
X148340685Y-133832390D02*
X148394256Y-133784771D01*
X148394256Y-133784771D02*
X148495447Y-133737152D01*
X148495447Y-133737152D02*
X148638304Y-133737152D01*
X148638304Y-133737152D02*
X148727590Y-133784771D01*
X148727590Y-133784771D02*
X148763304Y-133880009D01*
X148763304Y-133880009D02*
X148697828Y-134403819D01*
X149560923Y-134356200D02*
X149459733Y-134403819D01*
X149459733Y-134403819D02*
X149269256Y-134403819D01*
X149269256Y-134403819D02*
X149179971Y-134356200D01*
X149179971Y-134356200D02*
X149144256Y-134260961D01*
X149144256Y-134260961D02*
X149191876Y-133880009D01*
X149191876Y-133880009D02*
X149251399Y-133784771D01*
X149251399Y-133784771D02*
X149352590Y-133737152D01*
X149352590Y-133737152D02*
X149543066Y-133737152D01*
X149543066Y-133737152D02*
X149632352Y-133784771D01*
X149632352Y-133784771D02*
X149668066Y-133880009D01*
X149668066Y-133880009D02*
X149656161Y-133975247D01*
X149656161Y-133975247D02*
X149168066Y-134070485D01*
X150031161Y-134403819D02*
X150114495Y-133737152D01*
X150090685Y-133927628D02*
X150150209Y-133832390D01*
X150150209Y-133832390D02*
X150203780Y-133784771D01*
X150203780Y-133784771D02*
X150304971Y-133737152D01*
X150304971Y-133737152D02*
X150400209Y-133737152D01*
X151162114Y-133737152D02*
X151060924Y-134546676D01*
X151060924Y-134546676D02*
X151001400Y-134641914D01*
X151001400Y-134641914D02*
X150947828Y-134689533D01*
X150947828Y-134689533D02*
X150846638Y-134737152D01*
X150846638Y-134737152D02*
X150703781Y-134737152D01*
X150703781Y-134737152D02*
X150614495Y-134689533D01*
X151084733Y-134356200D02*
X150983543Y-134403819D01*
X150983543Y-134403819D02*
X150793067Y-134403819D01*
X150793067Y-134403819D02*
X150703781Y-134356200D01*
X150703781Y-134356200D02*
X150662114Y-134308580D01*
X150662114Y-134308580D02*
X150626400Y-134213342D01*
X150626400Y-134213342D02*
X150662114Y-133927628D01*
X150662114Y-133927628D02*
X150721638Y-133832390D01*
X150721638Y-133832390D02*
X150775209Y-133784771D01*
X150775209Y-133784771D02*
X150876400Y-133737152D01*
X150876400Y-133737152D02*
X151066876Y-133737152D01*
X151066876Y-133737152D02*
X151156162Y-133784771D01*
X151543067Y-133737152D02*
X151697829Y-134403819D01*
X152019257Y-133737152D02*
X151697829Y-134403819D01*
X151697829Y-134403819D02*
X151572829Y-134641914D01*
X151572829Y-134641914D02*
X151519257Y-134689533D01*
X151519257Y-134689533D02*
X151418067Y-134737152D01*
X142697826Y-136013819D02*
X142822826Y-135013819D01*
X142822826Y-135013819D02*
X143066874Y-135728104D01*
X143066874Y-135728104D02*
X143489493Y-135013819D01*
X143489493Y-135013819D02*
X143364493Y-136013819D01*
X144269255Y-136013819D02*
X144334731Y-135490009D01*
X144334731Y-135490009D02*
X144299017Y-135394771D01*
X144299017Y-135394771D02*
X144209731Y-135347152D01*
X144209731Y-135347152D02*
X144019255Y-135347152D01*
X144019255Y-135347152D02*
X143918064Y-135394771D01*
X144275207Y-135966200D02*
X144174017Y-136013819D01*
X144174017Y-136013819D02*
X143935921Y-136013819D01*
X143935921Y-136013819D02*
X143846636Y-135966200D01*
X143846636Y-135966200D02*
X143810921Y-135870961D01*
X143810921Y-135870961D02*
X143822826Y-135775723D01*
X143822826Y-135775723D02*
X143882350Y-135680485D01*
X143882350Y-135680485D02*
X143983541Y-135632866D01*
X143983541Y-135632866D02*
X144221636Y-135632866D01*
X144221636Y-135632866D02*
X144322826Y-135585247D01*
X144828779Y-135347152D02*
X144745445Y-136013819D01*
X144816874Y-135442390D02*
X144870445Y-135394771D01*
X144870445Y-135394771D02*
X144971636Y-135347152D01*
X144971636Y-135347152D02*
X145114493Y-135347152D01*
X145114493Y-135347152D02*
X145203779Y-135394771D01*
X145203779Y-135394771D02*
X145239493Y-135490009D01*
X145239493Y-135490009D02*
X145174017Y-136013819D01*
X146078779Y-136013819D02*
X146144255Y-135490009D01*
X146144255Y-135490009D02*
X146108541Y-135394771D01*
X146108541Y-135394771D02*
X146019255Y-135347152D01*
X146019255Y-135347152D02*
X145828779Y-135347152D01*
X145828779Y-135347152D02*
X145727588Y-135394771D01*
X146084731Y-135966200D02*
X145983541Y-136013819D01*
X145983541Y-136013819D02*
X145745445Y-136013819D01*
X145745445Y-136013819D02*
X145656160Y-135966200D01*
X145656160Y-135966200D02*
X145620445Y-135870961D01*
X145620445Y-135870961D02*
X145632350Y-135775723D01*
X145632350Y-135775723D02*
X145691874Y-135680485D01*
X145691874Y-135680485D02*
X145793065Y-135632866D01*
X145793065Y-135632866D02*
X146031160Y-135632866D01*
X146031160Y-135632866D02*
X146132350Y-135585247D01*
X147066874Y-135347152D02*
X146965684Y-136156676D01*
X146965684Y-136156676D02*
X146906160Y-136251914D01*
X146906160Y-136251914D02*
X146852588Y-136299533D01*
X146852588Y-136299533D02*
X146751398Y-136347152D01*
X146751398Y-136347152D02*
X146608541Y-136347152D01*
X146608541Y-136347152D02*
X146519255Y-136299533D01*
X146989493Y-135966200D02*
X146888303Y-136013819D01*
X146888303Y-136013819D02*
X146697827Y-136013819D01*
X146697827Y-136013819D02*
X146608541Y-135966200D01*
X146608541Y-135966200D02*
X146566874Y-135918580D01*
X146566874Y-135918580D02*
X146531160Y-135823342D01*
X146531160Y-135823342D02*
X146566874Y-135537628D01*
X146566874Y-135537628D02*
X146626398Y-135442390D01*
X146626398Y-135442390D02*
X146679969Y-135394771D01*
X146679969Y-135394771D02*
X146781160Y-135347152D01*
X146781160Y-135347152D02*
X146971636Y-135347152D01*
X146971636Y-135347152D02*
X147060922Y-135394771D01*
X147846636Y-135966200D02*
X147745446Y-136013819D01*
X147745446Y-136013819D02*
X147554969Y-136013819D01*
X147554969Y-136013819D02*
X147465684Y-135966200D01*
X147465684Y-135966200D02*
X147429969Y-135870961D01*
X147429969Y-135870961D02*
X147477589Y-135490009D01*
X147477589Y-135490009D02*
X147537112Y-135394771D01*
X147537112Y-135394771D02*
X147638303Y-135347152D01*
X147638303Y-135347152D02*
X147828779Y-135347152D01*
X147828779Y-135347152D02*
X147918065Y-135394771D01*
X147918065Y-135394771D02*
X147953779Y-135490009D01*
X147953779Y-135490009D02*
X147941874Y-135585247D01*
X147941874Y-135585247D02*
X147453779Y-135680485D01*
X148316874Y-136013819D02*
X148400208Y-135347152D01*
X148376398Y-135537628D02*
X148435922Y-135442390D01*
X148435922Y-135442390D02*
X148489493Y-135394771D01*
X148489493Y-135394771D02*
X148590684Y-135347152D01*
X148590684Y-135347152D02*
X148685922Y-135347152D01*
X149685923Y-135347152D02*
X149840685Y-136013819D01*
X149840685Y-136013819D02*
X150162113Y-135347152D01*
X150983542Y-136013819D02*
X150412113Y-136013819D01*
X150697828Y-136013819D02*
X150822828Y-135013819D01*
X150822828Y-135013819D02*
X150709732Y-135156676D01*
X150709732Y-135156676D02*
X150602590Y-135251914D01*
X150602590Y-135251914D02*
X150501399Y-135299533D01*
X151424018Y-135918580D02*
X151465685Y-135966200D01*
X151465685Y-135966200D02*
X151412113Y-136013819D01*
X151412113Y-136013819D02*
X151370447Y-135966200D01*
X151370447Y-135966200D02*
X151424018Y-135918580D01*
X151424018Y-135918580D02*
X151412113Y-136013819D01*
X152203780Y-135013819D02*
X152299018Y-135013819D01*
X152299018Y-135013819D02*
X152388303Y-135061438D01*
X152388303Y-135061438D02*
X152429970Y-135109057D01*
X152429970Y-135109057D02*
X152465684Y-135204295D01*
X152465684Y-135204295D02*
X152489494Y-135394771D01*
X152489494Y-135394771D02*
X152459732Y-135632866D01*
X152459732Y-135632866D02*
X152388303Y-135823342D01*
X152388303Y-135823342D02*
X152328780Y-135918580D01*
X152328780Y-135918580D02*
X152275208Y-135966200D01*
X152275208Y-135966200D02*
X152174018Y-136013819D01*
X152174018Y-136013819D02*
X152078780Y-136013819D01*
X152078780Y-136013819D02*
X151989494Y-135966200D01*
X151989494Y-135966200D02*
X151947827Y-135918580D01*
X151947827Y-135918580D02*
X151912113Y-135823342D01*
X151912113Y-135823342D02*
X151888303Y-135632866D01*
X151888303Y-135632866D02*
X151918065Y-135394771D01*
X151918065Y-135394771D02*
X151989494Y-135204295D01*
X151989494Y-135204295D02*
X152049018Y-135109057D01*
X152049018Y-135109057D02*
X152102589Y-135061438D01*
X152102589Y-135061438D02*
X152203780Y-135013819D01*
X95840779Y-108962866D02*
X96602684Y-108962866D01*
X96221731Y-109343819D02*
X96221731Y-108581914D01*
X174987009Y-136108887D02*
X175034628Y-135966030D01*
X175034628Y-135966030D02*
X175082247Y-135918411D01*
X175082247Y-135918411D02*
X175177485Y-135870792D01*
X175177485Y-135870792D02*
X175320342Y-135870792D01*
X175320342Y-135870792D02*
X175415580Y-135918411D01*
X175415580Y-135918411D02*
X175463200Y-135966030D01*
X175463200Y-135966030D02*
X175510819Y-136061268D01*
X175510819Y-136061268D02*
X175510819Y-136442220D01*
X175510819Y-136442220D02*
X174510819Y-136442220D01*
X174510819Y-136442220D02*
X174510819Y-136108887D01*
X174510819Y-136108887D02*
X174558438Y-136013649D01*
X174558438Y-136013649D02*
X174606057Y-135966030D01*
X174606057Y-135966030D02*
X174701295Y-135918411D01*
X174701295Y-135918411D02*
X174796533Y-135918411D01*
X174796533Y-135918411D02*
X174891771Y-135966030D01*
X174891771Y-135966030D02*
X174939390Y-136013649D01*
X174939390Y-136013649D02*
X174987009Y-136108887D01*
X174987009Y-136108887D02*
X174987009Y-136442220D01*
X174510819Y-135251744D02*
X174510819Y-135061268D01*
X174510819Y-135061268D02*
X174558438Y-134966030D01*
X174558438Y-134966030D02*
X174653676Y-134870792D01*
X174653676Y-134870792D02*
X174844152Y-134823173D01*
X174844152Y-134823173D02*
X175177485Y-134823173D01*
X175177485Y-134823173D02*
X175367961Y-134870792D01*
X175367961Y-134870792D02*
X175463200Y-134966030D01*
X175463200Y-134966030D02*
X175510819Y-135061268D01*
X175510819Y-135061268D02*
X175510819Y-135251744D01*
X175510819Y-135251744D02*
X175463200Y-135346982D01*
X175463200Y-135346982D02*
X175367961Y-135442220D01*
X175367961Y-135442220D02*
X175177485Y-135489839D01*
X175177485Y-135489839D02*
X174844152Y-135489839D01*
X174844152Y-135489839D02*
X174653676Y-135442220D01*
X174653676Y-135442220D02*
X174558438Y-135346982D01*
X174558438Y-135346982D02*
X174510819Y-135251744D01*
X174510819Y-134204125D02*
X174510819Y-134013649D01*
X174510819Y-134013649D02*
X174558438Y-133918411D01*
X174558438Y-133918411D02*
X174653676Y-133823173D01*
X174653676Y-133823173D02*
X174844152Y-133775554D01*
X174844152Y-133775554D02*
X175177485Y-133775554D01*
X175177485Y-133775554D02*
X175367961Y-133823173D01*
X175367961Y-133823173D02*
X175463200Y-133918411D01*
X175463200Y-133918411D02*
X175510819Y-134013649D01*
X175510819Y-134013649D02*
X175510819Y-134204125D01*
X175510819Y-134204125D02*
X175463200Y-134299363D01*
X175463200Y-134299363D02*
X175367961Y-134394601D01*
X175367961Y-134394601D02*
X175177485Y-134442220D01*
X175177485Y-134442220D02*
X174844152Y-134442220D01*
X174844152Y-134442220D02*
X174653676Y-134394601D01*
X174653676Y-134394601D02*
X174558438Y-134299363D01*
X174558438Y-134299363D02*
X174510819Y-134204125D01*
X174510819Y-133489839D02*
X174510819Y-132918411D01*
X175510819Y-133204125D02*
X174510819Y-133204125D01*
X118065779Y-87880819D02*
X118065779Y-86880819D01*
X118065779Y-86880819D02*
X118446731Y-86880819D01*
X118446731Y-86880819D02*
X118541969Y-86928438D01*
X118541969Y-86928438D02*
X118589588Y-86976057D01*
X118589588Y-86976057D02*
X118637207Y-87071295D01*
X118637207Y-87071295D02*
X118637207Y-87214152D01*
X118637207Y-87214152D02*
X118589588Y-87309390D01*
X118589588Y-87309390D02*
X118541969Y-87357009D01*
X118541969Y-87357009D02*
X118446731Y-87404628D01*
X118446731Y-87404628D02*
X118065779Y-87404628D01*
X118970541Y-86880819D02*
X119589588Y-86880819D01*
X119589588Y-86880819D02*
X119256255Y-87261771D01*
X119256255Y-87261771D02*
X119399112Y-87261771D01*
X119399112Y-87261771D02*
X119494350Y-87309390D01*
X119494350Y-87309390D02*
X119541969Y-87357009D01*
X119541969Y-87357009D02*
X119589588Y-87452247D01*
X119589588Y-87452247D02*
X119589588Y-87690342D01*
X119589588Y-87690342D02*
X119541969Y-87785580D01*
X119541969Y-87785580D02*
X119494350Y-87833200D01*
X119494350Y-87833200D02*
X119399112Y-87880819D01*
X119399112Y-87880819D02*
X119113398Y-87880819D01*
X119113398Y-87880819D02*
X119018160Y-87833200D01*
X119018160Y-87833200D02*
X118970541Y-87785580D01*
X120208636Y-86880819D02*
X120303874Y-86880819D01*
X120303874Y-86880819D02*
X120399112Y-86928438D01*
X120399112Y-86928438D02*
X120446731Y-86976057D01*
X120446731Y-86976057D02*
X120494350Y-87071295D01*
X120494350Y-87071295D02*
X120541969Y-87261771D01*
X120541969Y-87261771D02*
X120541969Y-87499866D01*
X120541969Y-87499866D02*
X120494350Y-87690342D01*
X120494350Y-87690342D02*
X120446731Y-87785580D01*
X120446731Y-87785580D02*
X120399112Y-87833200D01*
X120399112Y-87833200D02*
X120303874Y-87880819D01*
X120303874Y-87880819D02*
X120208636Y-87880819D01*
X120208636Y-87880819D02*
X120113398Y-87833200D01*
X120113398Y-87833200D02*
X120065779Y-87785580D01*
X120065779Y-87785580D02*
X120018160Y-87690342D01*
X120018160Y-87690342D02*
X119970541Y-87499866D01*
X119970541Y-87499866D02*
X119970541Y-87261771D01*
X119970541Y-87261771D02*
X120018160Y-87071295D01*
X120018160Y-87071295D02*
X120065779Y-86976057D01*
X120065779Y-86976057D02*
X120113398Y-86928438D01*
X120113398Y-86928438D02*
X120208636Y-86880819D01*
X130892779Y-120803819D02*
X130892779Y-119803819D01*
X130892779Y-119803819D02*
X131226112Y-120518104D01*
X131226112Y-120518104D02*
X131559445Y-119803819D01*
X131559445Y-119803819D02*
X131559445Y-120803819D01*
X132035636Y-120803819D02*
X132035636Y-119803819D01*
X132035636Y-119803819D02*
X132416588Y-119803819D01*
X132416588Y-119803819D02*
X132511826Y-119851438D01*
X132511826Y-119851438D02*
X132559445Y-119899057D01*
X132559445Y-119899057D02*
X132607064Y-119994295D01*
X132607064Y-119994295D02*
X132607064Y-120137152D01*
X132607064Y-120137152D02*
X132559445Y-120232390D01*
X132559445Y-120232390D02*
X132511826Y-120280009D01*
X132511826Y-120280009D02*
X132416588Y-120327628D01*
X132416588Y-120327628D02*
X132035636Y-120327628D01*
X133035636Y-120803819D02*
X133035636Y-119803819D01*
X133035636Y-119803819D02*
X133416588Y-119803819D01*
X133416588Y-119803819D02*
X133511826Y-119851438D01*
X133511826Y-119851438D02*
X133559445Y-119899057D01*
X133559445Y-119899057D02*
X133607064Y-119994295D01*
X133607064Y-119994295D02*
X133607064Y-120137152D01*
X133607064Y-120137152D02*
X133559445Y-120232390D01*
X133559445Y-120232390D02*
X133511826Y-120280009D01*
X133511826Y-120280009D02*
X133416588Y-120327628D01*
X133416588Y-120327628D02*
X133035636Y-120327628D01*
X133892779Y-119803819D02*
X134464207Y-119803819D01*
X134178493Y-120803819D02*
X134178493Y-119803819D01*
X182994541Y-112026819D02*
X183613588Y-112026819D01*
X183613588Y-112026819D02*
X183280255Y-112407771D01*
X183280255Y-112407771D02*
X183423112Y-112407771D01*
X183423112Y-112407771D02*
X183518350Y-112455390D01*
X183518350Y-112455390D02*
X183565969Y-112503009D01*
X183565969Y-112503009D02*
X183613588Y-112598247D01*
X183613588Y-112598247D02*
X183613588Y-112836342D01*
X183613588Y-112836342D02*
X183565969Y-112931580D01*
X183565969Y-112931580D02*
X183518350Y-112979200D01*
X183518350Y-112979200D02*
X183423112Y-113026819D01*
X183423112Y-113026819D02*
X183137398Y-113026819D01*
X183137398Y-113026819D02*
X183042160Y-112979200D01*
X183042160Y-112979200D02*
X182994541Y-112931580D01*
X183946922Y-112360152D02*
X184185017Y-113026819D01*
X184185017Y-113026819D02*
X184423112Y-112360152D01*
X184708827Y-112026819D02*
X185327874Y-112026819D01*
X185327874Y-112026819D02*
X184994541Y-112407771D01*
X184994541Y-112407771D02*
X185137398Y-112407771D01*
X185137398Y-112407771D02*
X185232636Y-112455390D01*
X185232636Y-112455390D02*
X185280255Y-112503009D01*
X185280255Y-112503009D02*
X185327874Y-112598247D01*
X185327874Y-112598247D02*
X185327874Y-112836342D01*
X185327874Y-112836342D02*
X185280255Y-112931580D01*
X185280255Y-112931580D02*
X185232636Y-112979200D01*
X185232636Y-112979200D02*
X185137398Y-113026819D01*
X185137398Y-113026819D02*
X184851684Y-113026819D01*
X184851684Y-113026819D02*
X184756446Y-112979200D01*
X184756446Y-112979200D02*
X184708827Y-112931580D01*
X123288588Y-122312819D02*
X122717160Y-122312819D01*
X123002874Y-122312819D02*
X123002874Y-121312819D01*
X123002874Y-121312819D02*
X122907636Y-121455676D01*
X122907636Y-121455676D02*
X122812398Y-121550914D01*
X122812398Y-121550914D02*
X122717160Y-121598533D01*
X105279819Y-103993792D02*
X104803628Y-104327125D01*
X105279819Y-104565220D02*
X104279819Y-104565220D01*
X104279819Y-104565220D02*
X104279819Y-104184268D01*
X104279819Y-104184268D02*
X104327438Y-104089030D01*
X104327438Y-104089030D02*
X104375057Y-104041411D01*
X104375057Y-104041411D02*
X104470295Y-103993792D01*
X104470295Y-103993792D02*
X104613152Y-103993792D01*
X104613152Y-103993792D02*
X104708390Y-104041411D01*
X104708390Y-104041411D02*
X104756009Y-104089030D01*
X104756009Y-104089030D02*
X104803628Y-104184268D01*
X104803628Y-104184268D02*
X104803628Y-104565220D01*
X105279819Y-103041411D02*
X105279819Y-103612839D01*
X105279819Y-103327125D02*
X104279819Y-103327125D01*
X104279819Y-103327125D02*
X104422676Y-103422363D01*
X104422676Y-103422363D02*
X104517914Y-103517601D01*
X104517914Y-103517601D02*
X104565533Y-103612839D01*
X125358760Y-87239504D02*
X125834950Y-87239504D01*
X125263522Y-87525219D02*
X125596855Y-86525219D01*
X125596855Y-86525219D02*
X125930188Y-87525219D01*
X98364922Y-115074819D02*
X98698255Y-116074819D01*
X98698255Y-116074819D02*
X99031588Y-115074819D01*
X143084779Y-91690866D02*
X143846684Y-91690866D01*
X143465731Y-92071819D02*
X143465731Y-91309914D01*
X122844160Y-134356200D02*
X122981064Y-134403819D01*
X122981064Y-134403819D02*
X123219160Y-134403819D01*
X123219160Y-134403819D02*
X123320350Y-134356200D01*
X123320350Y-134356200D02*
X123373922Y-134308580D01*
X123373922Y-134308580D02*
X123433445Y-134213342D01*
X123433445Y-134213342D02*
X123445350Y-134118104D01*
X123445350Y-134118104D02*
X123409636Y-134022866D01*
X123409636Y-134022866D02*
X123367969Y-133975247D01*
X123367969Y-133975247D02*
X123278684Y-133927628D01*
X123278684Y-133927628D02*
X123094160Y-133880009D01*
X123094160Y-133880009D02*
X123004874Y-133832390D01*
X123004874Y-133832390D02*
X122963207Y-133784771D01*
X122963207Y-133784771D02*
X122927493Y-133689533D01*
X122927493Y-133689533D02*
X122939398Y-133594295D01*
X122939398Y-133594295D02*
X122998922Y-133499057D01*
X122998922Y-133499057D02*
X123052493Y-133451438D01*
X123052493Y-133451438D02*
X123153684Y-133403819D01*
X123153684Y-133403819D02*
X123391779Y-133403819D01*
X123391779Y-133403819D02*
X123528684Y-133451438D01*
X123981065Y-134403819D02*
X123891779Y-134356200D01*
X123891779Y-134356200D02*
X123850112Y-134308580D01*
X123850112Y-134308580D02*
X123814398Y-134213342D01*
X123814398Y-134213342D02*
X123850112Y-133927628D01*
X123850112Y-133927628D02*
X123909636Y-133832390D01*
X123909636Y-133832390D02*
X123963207Y-133784771D01*
X123963207Y-133784771D02*
X124064398Y-133737152D01*
X124064398Y-133737152D02*
X124207255Y-133737152D01*
X124207255Y-133737152D02*
X124296541Y-133784771D01*
X124296541Y-133784771D02*
X124338207Y-133832390D01*
X124338207Y-133832390D02*
X124373922Y-133927628D01*
X124373922Y-133927628D02*
X124338207Y-134213342D01*
X124338207Y-134213342D02*
X124278684Y-134308580D01*
X124278684Y-134308580D02*
X124225112Y-134356200D01*
X124225112Y-134356200D02*
X124123922Y-134403819D01*
X124123922Y-134403819D02*
X123981065Y-134403819D01*
X124885827Y-134403819D02*
X124796541Y-134356200D01*
X124796541Y-134356200D02*
X124760827Y-134260961D01*
X124760827Y-134260961D02*
X124867969Y-133403819D01*
X125695351Y-134403819D02*
X125760827Y-133880009D01*
X125760827Y-133880009D02*
X125725113Y-133784771D01*
X125725113Y-133784771D02*
X125635827Y-133737152D01*
X125635827Y-133737152D02*
X125445351Y-133737152D01*
X125445351Y-133737152D02*
X125344160Y-133784771D01*
X125701303Y-134356200D02*
X125600113Y-134403819D01*
X125600113Y-134403819D02*
X125362017Y-134403819D01*
X125362017Y-134403819D02*
X125272732Y-134356200D01*
X125272732Y-134356200D02*
X125237017Y-134260961D01*
X125237017Y-134260961D02*
X125248922Y-134165723D01*
X125248922Y-134165723D02*
X125308446Y-134070485D01*
X125308446Y-134070485D02*
X125409637Y-134022866D01*
X125409637Y-134022866D02*
X125647732Y-134022866D01*
X125647732Y-134022866D02*
X125748922Y-133975247D01*
X126171541Y-134403819D02*
X126254875Y-133737152D01*
X126231065Y-133927628D02*
X126290589Y-133832390D01*
X126290589Y-133832390D02*
X126344160Y-133784771D01*
X126344160Y-133784771D02*
X126445351Y-133737152D01*
X126445351Y-133737152D02*
X126540589Y-133737152D01*
X127617971Y-133880009D02*
X127951304Y-133880009D01*
X128028685Y-134403819D02*
X127552494Y-134403819D01*
X127552494Y-134403819D02*
X127677494Y-133403819D01*
X127677494Y-133403819D02*
X128153685Y-133403819D01*
X128540590Y-133737152D02*
X128457256Y-134403819D01*
X128528685Y-133832390D02*
X128582256Y-133784771D01*
X128582256Y-133784771D02*
X128683447Y-133737152D01*
X128683447Y-133737152D02*
X128826304Y-133737152D01*
X128826304Y-133737152D02*
X128915590Y-133784771D01*
X128915590Y-133784771D02*
X128951304Y-133880009D01*
X128951304Y-133880009D02*
X128885828Y-134403819D01*
X129748923Y-134356200D02*
X129647733Y-134403819D01*
X129647733Y-134403819D02*
X129457256Y-134403819D01*
X129457256Y-134403819D02*
X129367971Y-134356200D01*
X129367971Y-134356200D02*
X129332256Y-134260961D01*
X129332256Y-134260961D02*
X129379876Y-133880009D01*
X129379876Y-133880009D02*
X129439399Y-133784771D01*
X129439399Y-133784771D02*
X129540590Y-133737152D01*
X129540590Y-133737152D02*
X129731066Y-133737152D01*
X129731066Y-133737152D02*
X129820352Y-133784771D01*
X129820352Y-133784771D02*
X129856066Y-133880009D01*
X129856066Y-133880009D02*
X129844161Y-133975247D01*
X129844161Y-133975247D02*
X129356066Y-134070485D01*
X130219161Y-134403819D02*
X130302495Y-133737152D01*
X130278685Y-133927628D02*
X130338209Y-133832390D01*
X130338209Y-133832390D02*
X130391780Y-133784771D01*
X130391780Y-133784771D02*
X130492971Y-133737152D01*
X130492971Y-133737152D02*
X130588209Y-133737152D01*
X131350114Y-133737152D02*
X131248924Y-134546676D01*
X131248924Y-134546676D02*
X131189400Y-134641914D01*
X131189400Y-134641914D02*
X131135828Y-134689533D01*
X131135828Y-134689533D02*
X131034638Y-134737152D01*
X131034638Y-134737152D02*
X130891781Y-134737152D01*
X130891781Y-134737152D02*
X130802495Y-134689533D01*
X131272733Y-134356200D02*
X131171543Y-134403819D01*
X131171543Y-134403819D02*
X130981067Y-134403819D01*
X130981067Y-134403819D02*
X130891781Y-134356200D01*
X130891781Y-134356200D02*
X130850114Y-134308580D01*
X130850114Y-134308580D02*
X130814400Y-134213342D01*
X130814400Y-134213342D02*
X130850114Y-133927628D01*
X130850114Y-133927628D02*
X130909638Y-133832390D01*
X130909638Y-133832390D02*
X130963209Y-133784771D01*
X130963209Y-133784771D02*
X131064400Y-133737152D01*
X131064400Y-133737152D02*
X131254876Y-133737152D01*
X131254876Y-133737152D02*
X131344162Y-133784771D01*
X131731067Y-133737152D02*
X131885829Y-134403819D01*
X132207257Y-133737152D02*
X131885829Y-134403819D01*
X131885829Y-134403819D02*
X131760829Y-134641914D01*
X131760829Y-134641914D02*
X131707257Y-134689533D01*
X131707257Y-134689533D02*
X131606067Y-134737152D01*
X122885826Y-136013819D02*
X123010826Y-135013819D01*
X123010826Y-135013819D02*
X123254874Y-135728104D01*
X123254874Y-135728104D02*
X123677493Y-135013819D01*
X123677493Y-135013819D02*
X123552493Y-136013819D01*
X124457255Y-136013819D02*
X124522731Y-135490009D01*
X124522731Y-135490009D02*
X124487017Y-135394771D01*
X124487017Y-135394771D02*
X124397731Y-135347152D01*
X124397731Y-135347152D02*
X124207255Y-135347152D01*
X124207255Y-135347152D02*
X124106064Y-135394771D01*
X124463207Y-135966200D02*
X124362017Y-136013819D01*
X124362017Y-136013819D02*
X124123921Y-136013819D01*
X124123921Y-136013819D02*
X124034636Y-135966200D01*
X124034636Y-135966200D02*
X123998921Y-135870961D01*
X123998921Y-135870961D02*
X124010826Y-135775723D01*
X124010826Y-135775723D02*
X124070350Y-135680485D01*
X124070350Y-135680485D02*
X124171541Y-135632866D01*
X124171541Y-135632866D02*
X124409636Y-135632866D01*
X124409636Y-135632866D02*
X124510826Y-135585247D01*
X125016779Y-135347152D02*
X124933445Y-136013819D01*
X125004874Y-135442390D02*
X125058445Y-135394771D01*
X125058445Y-135394771D02*
X125159636Y-135347152D01*
X125159636Y-135347152D02*
X125302493Y-135347152D01*
X125302493Y-135347152D02*
X125391779Y-135394771D01*
X125391779Y-135394771D02*
X125427493Y-135490009D01*
X125427493Y-135490009D02*
X125362017Y-136013819D01*
X126266779Y-136013819D02*
X126332255Y-135490009D01*
X126332255Y-135490009D02*
X126296541Y-135394771D01*
X126296541Y-135394771D02*
X126207255Y-135347152D01*
X126207255Y-135347152D02*
X126016779Y-135347152D01*
X126016779Y-135347152D02*
X125915588Y-135394771D01*
X126272731Y-135966200D02*
X126171541Y-136013819D01*
X126171541Y-136013819D02*
X125933445Y-136013819D01*
X125933445Y-136013819D02*
X125844160Y-135966200D01*
X125844160Y-135966200D02*
X125808445Y-135870961D01*
X125808445Y-135870961D02*
X125820350Y-135775723D01*
X125820350Y-135775723D02*
X125879874Y-135680485D01*
X125879874Y-135680485D02*
X125981065Y-135632866D01*
X125981065Y-135632866D02*
X126219160Y-135632866D01*
X126219160Y-135632866D02*
X126320350Y-135585247D01*
X127254874Y-135347152D02*
X127153684Y-136156676D01*
X127153684Y-136156676D02*
X127094160Y-136251914D01*
X127094160Y-136251914D02*
X127040588Y-136299533D01*
X127040588Y-136299533D02*
X126939398Y-136347152D01*
X126939398Y-136347152D02*
X126796541Y-136347152D01*
X126796541Y-136347152D02*
X126707255Y-136299533D01*
X127177493Y-135966200D02*
X127076303Y-136013819D01*
X127076303Y-136013819D02*
X126885827Y-136013819D01*
X126885827Y-136013819D02*
X126796541Y-135966200D01*
X126796541Y-135966200D02*
X126754874Y-135918580D01*
X126754874Y-135918580D02*
X126719160Y-135823342D01*
X126719160Y-135823342D02*
X126754874Y-135537628D01*
X126754874Y-135537628D02*
X126814398Y-135442390D01*
X126814398Y-135442390D02*
X126867969Y-135394771D01*
X126867969Y-135394771D02*
X126969160Y-135347152D01*
X126969160Y-135347152D02*
X127159636Y-135347152D01*
X127159636Y-135347152D02*
X127248922Y-135394771D01*
X128034636Y-135966200D02*
X127933446Y-136013819D01*
X127933446Y-136013819D02*
X127742969Y-136013819D01*
X127742969Y-136013819D02*
X127653684Y-135966200D01*
X127653684Y-135966200D02*
X127617969Y-135870961D01*
X127617969Y-135870961D02*
X127665589Y-135490009D01*
X127665589Y-135490009D02*
X127725112Y-135394771D01*
X127725112Y-135394771D02*
X127826303Y-135347152D01*
X127826303Y-135347152D02*
X128016779Y-135347152D01*
X128016779Y-135347152D02*
X128106065Y-135394771D01*
X128106065Y-135394771D02*
X128141779Y-135490009D01*
X128141779Y-135490009D02*
X128129874Y-135585247D01*
X128129874Y-135585247D02*
X127641779Y-135680485D01*
X128504874Y-136013819D02*
X128588208Y-135347152D01*
X128564398Y-135537628D02*
X128623922Y-135442390D01*
X128623922Y-135442390D02*
X128677493Y-135394771D01*
X128677493Y-135394771D02*
X128778684Y-135347152D01*
X128778684Y-135347152D02*
X128873922Y-135347152D01*
X129873923Y-135347152D02*
X130028685Y-136013819D01*
X130028685Y-136013819D02*
X130350113Y-135347152D01*
X131171542Y-136013819D02*
X130600113Y-136013819D01*
X130885828Y-136013819D02*
X131010828Y-135013819D01*
X131010828Y-135013819D02*
X130897732Y-135156676D01*
X130897732Y-135156676D02*
X130790590Y-135251914D01*
X130790590Y-135251914D02*
X130689399Y-135299533D01*
X131612018Y-135918580D02*
X131653685Y-135966200D01*
X131653685Y-135966200D02*
X131600113Y-136013819D01*
X131600113Y-136013819D02*
X131558447Y-135966200D01*
X131558447Y-135966200D02*
X131612018Y-135918580D01*
X131612018Y-135918580D02*
X131600113Y-136013819D01*
X132391780Y-135013819D02*
X132487018Y-135013819D01*
X132487018Y-135013819D02*
X132576303Y-135061438D01*
X132576303Y-135061438D02*
X132617970Y-135109057D01*
X132617970Y-135109057D02*
X132653684Y-135204295D01*
X132653684Y-135204295D02*
X132677494Y-135394771D01*
X132677494Y-135394771D02*
X132647732Y-135632866D01*
X132647732Y-135632866D02*
X132576303Y-135823342D01*
X132576303Y-135823342D02*
X132516780Y-135918580D01*
X132516780Y-135918580D02*
X132463208Y-135966200D01*
X132463208Y-135966200D02*
X132362018Y-136013819D01*
X132362018Y-136013819D02*
X132266780Y-136013819D01*
X132266780Y-136013819D02*
X132177494Y-135966200D01*
X132177494Y-135966200D02*
X132135827Y-135918580D01*
X132135827Y-135918580D02*
X132100113Y-135823342D01*
X132100113Y-135823342D02*
X132076303Y-135632866D01*
X132076303Y-135632866D02*
X132106065Y-135394771D01*
X132106065Y-135394771D02*
X132177494Y-135204295D01*
X132177494Y-135204295D02*
X132237018Y-135109057D01*
X132237018Y-135109057D02*
X132290589Y-135061438D01*
X132290589Y-135061438D02*
X132391780Y-135013819D01*
X147990160Y-141808200D02*
X148133017Y-141855819D01*
X148133017Y-141855819D02*
X148371112Y-141855819D01*
X148371112Y-141855819D02*
X148466350Y-141808200D01*
X148466350Y-141808200D02*
X148513969Y-141760580D01*
X148513969Y-141760580D02*
X148561588Y-141665342D01*
X148561588Y-141665342D02*
X148561588Y-141570104D01*
X148561588Y-141570104D02*
X148513969Y-141474866D01*
X148513969Y-141474866D02*
X148466350Y-141427247D01*
X148466350Y-141427247D02*
X148371112Y-141379628D01*
X148371112Y-141379628D02*
X148180636Y-141332009D01*
X148180636Y-141332009D02*
X148085398Y-141284390D01*
X148085398Y-141284390D02*
X148037779Y-141236771D01*
X148037779Y-141236771D02*
X147990160Y-141141533D01*
X147990160Y-141141533D02*
X147990160Y-141046295D01*
X147990160Y-141046295D02*
X148037779Y-140951057D01*
X148037779Y-140951057D02*
X148085398Y-140903438D01*
X148085398Y-140903438D02*
X148180636Y-140855819D01*
X148180636Y-140855819D02*
X148418731Y-140855819D01*
X148418731Y-140855819D02*
X148561588Y-140903438D01*
X148894922Y-140855819D02*
X149133017Y-141855819D01*
X149133017Y-141855819D02*
X149323493Y-141141533D01*
X149323493Y-141141533D02*
X149513969Y-141855819D01*
X149513969Y-141855819D02*
X149752065Y-140855819D01*
X150133017Y-141855819D02*
X150133017Y-140855819D01*
X150133017Y-140855819D02*
X150371112Y-140855819D01*
X150371112Y-140855819D02*
X150513969Y-140903438D01*
X150513969Y-140903438D02*
X150609207Y-140998676D01*
X150609207Y-140998676D02*
X150656826Y-141093914D01*
X150656826Y-141093914D02*
X150704445Y-141284390D01*
X150704445Y-141284390D02*
X150704445Y-141427247D01*
X150704445Y-141427247D02*
X150656826Y-141617723D01*
X150656826Y-141617723D02*
X150609207Y-141712961D01*
X150609207Y-141712961D02*
X150513969Y-141808200D01*
X150513969Y-141808200D02*
X150371112Y-141855819D01*
X150371112Y-141855819D02*
X150133017Y-141855819D01*
X120478779Y-85340866D02*
X121240684Y-85340866D01*
X130638779Y-104263819D02*
X130638779Y-103263819D01*
X130638779Y-103740009D02*
X131210207Y-103740009D01*
X131210207Y-104263819D02*
X131210207Y-103263819D01*
X131543541Y-103263819D02*
X131876874Y-104263819D01*
X131876874Y-104263819D02*
X132210207Y-103263819D01*
X98040866Y-89579220D02*
X98040866Y-88817316D01*
X102190779Y-85340866D02*
X102952684Y-85340866D01*
X102571731Y-85721819D02*
X102571731Y-84959914D01*
X129048122Y-86499819D02*
X129381455Y-87499819D01*
X129381455Y-87499819D02*
X129714788Y-86499819D01*
X132162779Y-91690866D02*
X132924684Y-91690866D01*
X132543731Y-92071819D02*
X132543731Y-91309914D01*
X110575960Y-94707104D02*
X111052150Y-94707104D01*
X110480722Y-94992819D02*
X110814055Y-93992819D01*
X110814055Y-93992819D02*
X111147388Y-94992819D01*
X185010588Y-105279819D02*
X184439160Y-105279819D01*
X184724874Y-105279819D02*
X184724874Y-104279819D01*
X184724874Y-104279819D02*
X184629636Y-104422676D01*
X184629636Y-104422676D02*
X184534398Y-104517914D01*
X184534398Y-104517914D02*
X184439160Y-104565533D01*
X160515541Y-140855819D02*
X161182207Y-140855819D01*
X161182207Y-140855819D02*
X160753636Y-141855819D01*
X149066380Y-108835819D02*
X148590190Y-108835819D01*
X148590190Y-108835819D02*
X148590190Y-107835819D01*
X149542571Y-108835819D02*
X149447333Y-108788200D01*
X149447333Y-108788200D02*
X149399714Y-108740580D01*
X149399714Y-108740580D02*
X149352095Y-108645342D01*
X149352095Y-108645342D02*
X149352095Y-108359628D01*
X149352095Y-108359628D02*
X149399714Y-108264390D01*
X149399714Y-108264390D02*
X149447333Y-108216771D01*
X149447333Y-108216771D02*
X149542571Y-108169152D01*
X149542571Y-108169152D02*
X149685428Y-108169152D01*
X149685428Y-108169152D02*
X149780666Y-108216771D01*
X149780666Y-108216771D02*
X149828285Y-108264390D01*
X149828285Y-108264390D02*
X149875904Y-108359628D01*
X149875904Y-108359628D02*
X149875904Y-108645342D01*
X149875904Y-108645342D02*
X149828285Y-108740580D01*
X149828285Y-108740580D02*
X149780666Y-108788200D01*
X149780666Y-108788200D02*
X149685428Y-108835819D01*
X149685428Y-108835819D02*
X149542571Y-108835819D01*
X150733047Y-108835819D02*
X150733047Y-108312009D01*
X150733047Y-108312009D02*
X150685428Y-108216771D01*
X150685428Y-108216771D02*
X150590190Y-108169152D01*
X150590190Y-108169152D02*
X150399714Y-108169152D01*
X150399714Y-108169152D02*
X150304476Y-108216771D01*
X150733047Y-108788200D02*
X150637809Y-108835819D01*
X150637809Y-108835819D02*
X150399714Y-108835819D01*
X150399714Y-108835819D02*
X150304476Y-108788200D01*
X150304476Y-108788200D02*
X150256857Y-108692961D01*
X150256857Y-108692961D02*
X150256857Y-108597723D01*
X150256857Y-108597723D02*
X150304476Y-108502485D01*
X150304476Y-108502485D02*
X150399714Y-108454866D01*
X150399714Y-108454866D02*
X150637809Y-108454866D01*
X150637809Y-108454866D02*
X150733047Y-108407247D01*
X151637809Y-108835819D02*
X151637809Y-107835819D01*
X151637809Y-108788200D02*
X151542571Y-108835819D01*
X151542571Y-108835819D02*
X151352095Y-108835819D01*
X151352095Y-108835819D02*
X151256857Y-108788200D01*
X151256857Y-108788200D02*
X151209238Y-108740580D01*
X151209238Y-108740580D02*
X151161619Y-108645342D01*
X151161619Y-108645342D02*
X151161619Y-108359628D01*
X151161619Y-108359628D02*
X151209238Y-108264390D01*
X151209238Y-108264390D02*
X151256857Y-108216771D01*
X151256857Y-108216771D02*
X151352095Y-108169152D01*
X151352095Y-108169152D02*
X151542571Y-108169152D01*
X151542571Y-108169152D02*
X151637809Y-108216771D01*
X128162207Y-139061819D02*
X127828874Y-138585628D01*
X127590779Y-139061819D02*
X127590779Y-138061819D01*
X127590779Y-138061819D02*
X127971731Y-138061819D01*
X127971731Y-138061819D02*
X128066969Y-138109438D01*
X128066969Y-138109438D02*
X128114588Y-138157057D01*
X128114588Y-138157057D02*
X128162207Y-138252295D01*
X128162207Y-138252295D02*
X128162207Y-138395152D01*
X128162207Y-138395152D02*
X128114588Y-138490390D01*
X128114588Y-138490390D02*
X128066969Y-138538009D01*
X128066969Y-138538009D02*
X127971731Y-138585628D01*
X127971731Y-138585628D02*
X127590779Y-138585628D01*
X128733636Y-138490390D02*
X128638398Y-138442771D01*
X128638398Y-138442771D02*
X128590779Y-138395152D01*
X128590779Y-138395152D02*
X128543160Y-138299914D01*
X128543160Y-138299914D02*
X128543160Y-138252295D01*
X128543160Y-138252295D02*
X128590779Y-138157057D01*
X128590779Y-138157057D02*
X128638398Y-138109438D01*
X128638398Y-138109438D02*
X128733636Y-138061819D01*
X128733636Y-138061819D02*
X128924112Y-138061819D01*
X128924112Y-138061819D02*
X129019350Y-138109438D01*
X129019350Y-138109438D02*
X129066969Y-138157057D01*
X129066969Y-138157057D02*
X129114588Y-138252295D01*
X129114588Y-138252295D02*
X129114588Y-138299914D01*
X129114588Y-138299914D02*
X129066969Y-138395152D01*
X129066969Y-138395152D02*
X129019350Y-138442771D01*
X129019350Y-138442771D02*
X128924112Y-138490390D01*
X128924112Y-138490390D02*
X128733636Y-138490390D01*
X128733636Y-138490390D02*
X128638398Y-138538009D01*
X128638398Y-138538009D02*
X128590779Y-138585628D01*
X128590779Y-138585628D02*
X128543160Y-138680866D01*
X128543160Y-138680866D02*
X128543160Y-138871342D01*
X128543160Y-138871342D02*
X128590779Y-138966580D01*
X128590779Y-138966580D02*
X128638398Y-139014200D01*
X128638398Y-139014200D02*
X128733636Y-139061819D01*
X128733636Y-139061819D02*
X128924112Y-139061819D01*
X128924112Y-139061819D02*
X129019350Y-139014200D01*
X129019350Y-139014200D02*
X129066969Y-138966580D01*
X129066969Y-138966580D02*
X129114588Y-138871342D01*
X129114588Y-138871342D02*
X129114588Y-138680866D01*
X129114588Y-138680866D02*
X129066969Y-138585628D01*
X129066969Y-138585628D02*
X129019350Y-138538009D01*
X129019350Y-138538009D02*
X128924112Y-138490390D01*
X184677255Y-101866819D02*
X184772493Y-101866819D01*
X184772493Y-101866819D02*
X184867731Y-101914438D01*
X184867731Y-101914438D02*
X184915350Y-101962057D01*
X184915350Y-101962057D02*
X184962969Y-102057295D01*
X184962969Y-102057295D02*
X185010588Y-102247771D01*
X185010588Y-102247771D02*
X185010588Y-102485866D01*
X185010588Y-102485866D02*
X184962969Y-102676342D01*
X184962969Y-102676342D02*
X184915350Y-102771580D01*
X184915350Y-102771580D02*
X184867731Y-102819200D01*
X184867731Y-102819200D02*
X184772493Y-102866819D01*
X184772493Y-102866819D02*
X184677255Y-102866819D01*
X184677255Y-102866819D02*
X184582017Y-102819200D01*
X184582017Y-102819200D02*
X184534398Y-102771580D01*
X184534398Y-102771580D02*
X184486779Y-102676342D01*
X184486779Y-102676342D02*
X184439160Y-102485866D01*
X184439160Y-102485866D02*
X184439160Y-102247771D01*
X184439160Y-102247771D02*
X184486779Y-102057295D01*
X184486779Y-102057295D02*
X184534398Y-101962057D01*
X184534398Y-101962057D02*
X184582017Y-101914438D01*
X184582017Y-101914438D02*
X184677255Y-101866819D01*
X97618779Y-91690866D02*
X98380684Y-91690866D01*
X97999731Y-92071819D02*
X97999731Y-91309914D01*
X133385160Y-85604104D02*
X133861350Y-85604104D01*
X133289922Y-85889819D02*
X133623255Y-84889819D01*
X133623255Y-84889819D02*
X133956588Y-85889819D01*
X134289922Y-85366009D02*
X134623255Y-85366009D01*
X134766112Y-85889819D02*
X134289922Y-85889819D01*
X134289922Y-85889819D02*
X134289922Y-84889819D01*
X134289922Y-84889819D02*
X134766112Y-84889819D01*
X135194684Y-85889819D02*
X135194684Y-84889819D01*
X135194684Y-84889819D02*
X135528017Y-85604104D01*
X135528017Y-85604104D02*
X135861350Y-84889819D01*
X135861350Y-84889819D02*
X135861350Y-85889819D01*
X133623255Y-86499819D02*
X133813731Y-86499819D01*
X133813731Y-86499819D02*
X133908969Y-86547438D01*
X133908969Y-86547438D02*
X134004207Y-86642676D01*
X134004207Y-86642676D02*
X134051826Y-86833152D01*
X134051826Y-86833152D02*
X134051826Y-87166485D01*
X134051826Y-87166485D02*
X134004207Y-87356961D01*
X134004207Y-87356961D02*
X133908969Y-87452200D01*
X133908969Y-87452200D02*
X133813731Y-87499819D01*
X133813731Y-87499819D02*
X133623255Y-87499819D01*
X133623255Y-87499819D02*
X133528017Y-87452200D01*
X133528017Y-87452200D02*
X133432779Y-87356961D01*
X133432779Y-87356961D02*
X133385160Y-87166485D01*
X133385160Y-87166485D02*
X133385160Y-86833152D01*
X133385160Y-86833152D02*
X133432779Y-86642676D01*
X133432779Y-86642676D02*
X133528017Y-86547438D01*
X133528017Y-86547438D02*
X133623255Y-86499819D01*
X134480398Y-86499819D02*
X134480398Y-87309342D01*
X134480398Y-87309342D02*
X134528017Y-87404580D01*
X134528017Y-87404580D02*
X134575636Y-87452200D01*
X134575636Y-87452200D02*
X134670874Y-87499819D01*
X134670874Y-87499819D02*
X134861350Y-87499819D01*
X134861350Y-87499819D02*
X134956588Y-87452200D01*
X134956588Y-87452200D02*
X135004207Y-87404580D01*
X135004207Y-87404580D02*
X135051826Y-87309342D01*
X135051826Y-87309342D02*
X135051826Y-86499819D01*
X135385160Y-86499819D02*
X135956588Y-86499819D01*
X135670874Y-87499819D02*
X135670874Y-86499819D01*
X143084779Y-89150866D02*
X143846684Y-89150866D01*
X143465731Y-89531819D02*
X143465731Y-88769914D01*
X132162779Y-89277866D02*
X132924684Y-89277866D01*
X132543731Y-89658819D02*
X132543731Y-88896914D01*
X154086160Y-141808200D02*
X154229017Y-141855819D01*
X154229017Y-141855819D02*
X154467112Y-141855819D01*
X154467112Y-141855819D02*
X154562350Y-141808200D01*
X154562350Y-141808200D02*
X154609969Y-141760580D01*
X154609969Y-141760580D02*
X154657588Y-141665342D01*
X154657588Y-141665342D02*
X154657588Y-141570104D01*
X154657588Y-141570104D02*
X154609969Y-141474866D01*
X154609969Y-141474866D02*
X154562350Y-141427247D01*
X154562350Y-141427247D02*
X154467112Y-141379628D01*
X154467112Y-141379628D02*
X154276636Y-141332009D01*
X154276636Y-141332009D02*
X154181398Y-141284390D01*
X154181398Y-141284390D02*
X154133779Y-141236771D01*
X154133779Y-141236771D02*
X154086160Y-141141533D01*
X154086160Y-141141533D02*
X154086160Y-141046295D01*
X154086160Y-141046295D02*
X154133779Y-140951057D01*
X154133779Y-140951057D02*
X154181398Y-140903438D01*
X154181398Y-140903438D02*
X154276636Y-140855819D01*
X154276636Y-140855819D02*
X154514731Y-140855819D01*
X154514731Y-140855819D02*
X154657588Y-140903438D01*
X154990922Y-140855819D02*
X155229017Y-141855819D01*
X155229017Y-141855819D02*
X155419493Y-141141533D01*
X155419493Y-141141533D02*
X155609969Y-141855819D01*
X155609969Y-141855819D02*
X155848065Y-140855819D01*
X156800445Y-141760580D02*
X156752826Y-141808200D01*
X156752826Y-141808200D02*
X156609969Y-141855819D01*
X156609969Y-141855819D02*
X156514731Y-141855819D01*
X156514731Y-141855819D02*
X156371874Y-141808200D01*
X156371874Y-141808200D02*
X156276636Y-141712961D01*
X156276636Y-141712961D02*
X156229017Y-141617723D01*
X156229017Y-141617723D02*
X156181398Y-141427247D01*
X156181398Y-141427247D02*
X156181398Y-141284390D01*
X156181398Y-141284390D02*
X156229017Y-141093914D01*
X156229017Y-141093914D02*
X156276636Y-140998676D01*
X156276636Y-140998676D02*
X156371874Y-140903438D01*
X156371874Y-140903438D02*
X156514731Y-140855819D01*
X156514731Y-140855819D02*
X156609969Y-140855819D01*
X156609969Y-140855819D02*
X156752826Y-140903438D01*
X156752826Y-140903438D02*
X156800445Y-140951057D01*
X97364779Y-133346866D02*
X98126684Y-133346866D01*
X97745731Y-133727819D02*
X97745731Y-132965914D01*
X163261922Y-107962819D02*
X163595255Y-108962819D01*
X163595255Y-108962819D02*
X163928588Y-107962819D01*
X164833350Y-108962819D02*
X164500017Y-108486628D01*
X164261922Y-108962819D02*
X164261922Y-107962819D01*
X164261922Y-107962819D02*
X164642874Y-107962819D01*
X164642874Y-107962819D02*
X164738112Y-108010438D01*
X164738112Y-108010438D02*
X164785731Y-108058057D01*
X164785731Y-108058057D02*
X164833350Y-108153295D01*
X164833350Y-108153295D02*
X164833350Y-108296152D01*
X164833350Y-108296152D02*
X164785731Y-108391390D01*
X164785731Y-108391390D02*
X164738112Y-108439009D01*
X164738112Y-108439009D02*
X164642874Y-108486628D01*
X164642874Y-108486628D02*
X164261922Y-108486628D01*
X165642874Y-108915200D02*
X165547636Y-108962819D01*
X165547636Y-108962819D02*
X165357160Y-108962819D01*
X165357160Y-108962819D02*
X165261922Y-108915200D01*
X165261922Y-108915200D02*
X165214303Y-108819961D01*
X165214303Y-108819961D02*
X165214303Y-108439009D01*
X165214303Y-108439009D02*
X165261922Y-108343771D01*
X165261922Y-108343771D02*
X165357160Y-108296152D01*
X165357160Y-108296152D02*
X165547636Y-108296152D01*
X165547636Y-108296152D02*
X165642874Y-108343771D01*
X165642874Y-108343771D02*
X165690493Y-108439009D01*
X165690493Y-108439009D02*
X165690493Y-108534247D01*
X165690493Y-108534247D02*
X165214303Y-108629485D01*
X166547636Y-108296152D02*
X166547636Y-109105676D01*
X166547636Y-109105676D02*
X166500017Y-109200914D01*
X166500017Y-109200914D02*
X166452398Y-109248533D01*
X166452398Y-109248533D02*
X166357160Y-109296152D01*
X166357160Y-109296152D02*
X166214303Y-109296152D01*
X166214303Y-109296152D02*
X166119065Y-109248533D01*
X166547636Y-108915200D02*
X166452398Y-108962819D01*
X166452398Y-108962819D02*
X166261922Y-108962819D01*
X166261922Y-108962819D02*
X166166684Y-108915200D01*
X166166684Y-108915200D02*
X166119065Y-108867580D01*
X166119065Y-108867580D02*
X166071446Y-108772342D01*
X166071446Y-108772342D02*
X166071446Y-108486628D01*
X166071446Y-108486628D02*
X166119065Y-108391390D01*
X166119065Y-108391390D02*
X166166684Y-108343771D01*
X166166684Y-108343771D02*
X166261922Y-108296152D01*
X166261922Y-108296152D02*
X166452398Y-108296152D01*
X166452398Y-108296152D02*
X166547636Y-108343771D01*
X166880970Y-107962819D02*
X167452398Y-107962819D01*
X167166684Y-108962819D02*
X167166684Y-107962819D01*
X147085207Y-106200580D02*
X147037588Y-106248200D01*
X147037588Y-106248200D02*
X146894731Y-106295819D01*
X146894731Y-106295819D02*
X146799493Y-106295819D01*
X146799493Y-106295819D02*
X146656636Y-106248200D01*
X146656636Y-106248200D02*
X146561398Y-106152961D01*
X146561398Y-106152961D02*
X146513779Y-106057723D01*
X146513779Y-106057723D02*
X146466160Y-105867247D01*
X146466160Y-105867247D02*
X146466160Y-105724390D01*
X146466160Y-105724390D02*
X146513779Y-105533914D01*
X146513779Y-105533914D02*
X146561398Y-105438676D01*
X146561398Y-105438676D02*
X146656636Y-105343438D01*
X146656636Y-105343438D02*
X146799493Y-105295819D01*
X146799493Y-105295819D02*
X146894731Y-105295819D01*
X146894731Y-105295819D02*
X147037588Y-105343438D01*
X147037588Y-105343438D02*
X147085207Y-105391057D01*
X124491979Y-94459419D02*
X124491979Y-93459419D01*
X124491979Y-93459419D02*
X124872931Y-93459419D01*
X124872931Y-93459419D02*
X124968169Y-93507038D01*
X124968169Y-93507038D02*
X125015788Y-93554657D01*
X125015788Y-93554657D02*
X125063407Y-93649895D01*
X125063407Y-93649895D02*
X125063407Y-93792752D01*
X125063407Y-93792752D02*
X125015788Y-93887990D01*
X125015788Y-93887990D02*
X124968169Y-93935609D01*
X124968169Y-93935609D02*
X124872931Y-93983228D01*
X124872931Y-93983228D02*
X124491979Y-93983228D01*
X125491979Y-94459419D02*
X125491979Y-93792752D01*
X125491979Y-93983228D02*
X125539598Y-93887990D01*
X125539598Y-93887990D02*
X125587217Y-93840371D01*
X125587217Y-93840371D02*
X125682455Y-93792752D01*
X125682455Y-93792752D02*
X125777693Y-93792752D01*
X126111027Y-94459419D02*
X126111027Y-93459419D01*
X126111027Y-93840371D02*
X126206265Y-93792752D01*
X126206265Y-93792752D02*
X126396741Y-93792752D01*
X126396741Y-93792752D02*
X126491979Y-93840371D01*
X126491979Y-93840371D02*
X126539598Y-93887990D01*
X126539598Y-93887990D02*
X126587217Y-93983228D01*
X126587217Y-93983228D02*
X126587217Y-94268942D01*
X126587217Y-94268942D02*
X126539598Y-94364180D01*
X126539598Y-94364180D02*
X126491979Y-94411800D01*
X126491979Y-94411800D02*
X126396741Y-94459419D01*
X126396741Y-94459419D02*
X126206265Y-94459419D01*
X126206265Y-94459419D02*
X126111027Y-94411800D01*
X126777694Y-94554657D02*
X127539598Y-94554657D01*
X127730075Y-94173704D02*
X128206265Y-94173704D01*
X127634837Y-94459419D02*
X127968170Y-93459419D01*
X127968170Y-93459419D02*
X128301503Y-94459419D01*
X128634837Y-93935609D02*
X128968170Y-93935609D01*
X129111027Y-94459419D02*
X128634837Y-94459419D01*
X128634837Y-94459419D02*
X128634837Y-93459419D01*
X128634837Y-93459419D02*
X129111027Y-93459419D01*
X129539599Y-94459419D02*
X129539599Y-93459419D01*
X129539599Y-93459419D02*
X129872932Y-94173704D01*
X129872932Y-94173704D02*
X130206265Y-93459419D01*
X130206265Y-93459419D02*
X130206265Y-94459419D01*
X168659350Y-141189152D02*
X168659350Y-141855819D01*
X168421255Y-140808200D02*
X168183160Y-141522485D01*
X168183160Y-141522485D02*
X168802207Y-141522485D01*
X114189122Y-93992819D02*
X114522455Y-94992819D01*
X114522455Y-94992819D02*
X114855788Y-93992819D01*
X147085207Y-102739819D02*
X146751874Y-102263628D01*
X146513779Y-102739819D02*
X146513779Y-101739819D01*
X146513779Y-101739819D02*
X146894731Y-101739819D01*
X146894731Y-101739819D02*
X146989969Y-101787438D01*
X146989969Y-101787438D02*
X147037588Y-101835057D01*
X147037588Y-101835057D02*
X147085207Y-101930295D01*
X147085207Y-101930295D02*
X147085207Y-102073152D01*
X147085207Y-102073152D02*
X147037588Y-102168390D01*
X147037588Y-102168390D02*
X146989969Y-102216009D01*
X146989969Y-102216009D02*
X146894731Y-102263628D01*
X146894731Y-102263628D02*
X146513779Y-102263628D01*
X176374588Y-141855819D02*
X175803160Y-141855819D01*
X176088874Y-141855819D02*
X176088874Y-140855819D01*
X176088874Y-140855819D02*
X175993636Y-140998676D01*
X175993636Y-140998676D02*
X175898398Y-141093914D01*
X175898398Y-141093914D02*
X175803160Y-141141533D01*
X96850200Y-112740839D02*
X96897819Y-112597982D01*
X96897819Y-112597982D02*
X96897819Y-112359887D01*
X96897819Y-112359887D02*
X96850200Y-112264649D01*
X96850200Y-112264649D02*
X96802580Y-112217030D01*
X96802580Y-112217030D02*
X96707342Y-112169411D01*
X96707342Y-112169411D02*
X96612104Y-112169411D01*
X96612104Y-112169411D02*
X96516866Y-112217030D01*
X96516866Y-112217030D02*
X96469247Y-112264649D01*
X96469247Y-112264649D02*
X96421628Y-112359887D01*
X96421628Y-112359887D02*
X96374009Y-112550363D01*
X96374009Y-112550363D02*
X96326390Y-112645601D01*
X96326390Y-112645601D02*
X96278771Y-112693220D01*
X96278771Y-112693220D02*
X96183533Y-112740839D01*
X96183533Y-112740839D02*
X96088295Y-112740839D01*
X96088295Y-112740839D02*
X95993057Y-112693220D01*
X95993057Y-112693220D02*
X95945438Y-112645601D01*
X95945438Y-112645601D02*
X95897819Y-112550363D01*
X95897819Y-112550363D02*
X95897819Y-112312268D01*
X95897819Y-112312268D02*
X95945438Y-112169411D01*
X96897819Y-111169411D02*
X96421628Y-111502744D01*
X96897819Y-111740839D02*
X95897819Y-111740839D01*
X95897819Y-111740839D02*
X95897819Y-111359887D01*
X95897819Y-111359887D02*
X95945438Y-111264649D01*
X95945438Y-111264649D02*
X95993057Y-111217030D01*
X95993057Y-111217030D02*
X96088295Y-111169411D01*
X96088295Y-111169411D02*
X96231152Y-111169411D01*
X96231152Y-111169411D02*
X96326390Y-111217030D01*
X96326390Y-111217030D02*
X96374009Y-111264649D01*
X96374009Y-111264649D02*
X96421628Y-111359887D01*
X96421628Y-111359887D02*
X96421628Y-111740839D01*
X96802580Y-110169411D02*
X96850200Y-110217030D01*
X96850200Y-110217030D02*
X96897819Y-110359887D01*
X96897819Y-110359887D02*
X96897819Y-110455125D01*
X96897819Y-110455125D02*
X96850200Y-110597982D01*
X96850200Y-110597982D02*
X96754961Y-110693220D01*
X96754961Y-110693220D02*
X96659723Y-110740839D01*
X96659723Y-110740839D02*
X96469247Y-110788458D01*
X96469247Y-110788458D02*
X96326390Y-110788458D01*
X96326390Y-110788458D02*
X96135914Y-110740839D01*
X96135914Y-110740839D02*
X96040676Y-110693220D01*
X96040676Y-110693220D02*
X95945438Y-110597982D01*
X95945438Y-110597982D02*
X95897819Y-110455125D01*
X95897819Y-110455125D02*
X95897819Y-110359887D01*
X95897819Y-110359887D02*
X95945438Y-110217030D01*
X95945438Y-110217030D02*
X95993057Y-110169411D01*
X121240779Y-104263819D02*
X121240779Y-103263819D01*
X121240779Y-103740009D02*
X121812207Y-103740009D01*
X121812207Y-104263819D02*
X121812207Y-103263819D01*
X154641779Y-110867819D02*
X154641779Y-109867819D01*
X154641779Y-109867819D02*
X155022731Y-109867819D01*
X155022731Y-109867819D02*
X155117969Y-109915438D01*
X155117969Y-109915438D02*
X155165588Y-109963057D01*
X155165588Y-109963057D02*
X155213207Y-110058295D01*
X155213207Y-110058295D02*
X155213207Y-110201152D01*
X155213207Y-110201152D02*
X155165588Y-110296390D01*
X155165588Y-110296390D02*
X155117969Y-110344009D01*
X155117969Y-110344009D02*
X155022731Y-110391628D01*
X155022731Y-110391628D02*
X154641779Y-110391628D01*
X155641779Y-110867819D02*
X155641779Y-110201152D01*
X155641779Y-110391628D02*
X155689398Y-110296390D01*
X155689398Y-110296390D02*
X155737017Y-110248771D01*
X155737017Y-110248771D02*
X155832255Y-110201152D01*
X155832255Y-110201152D02*
X155927493Y-110201152D01*
X156260827Y-110867819D02*
X156260827Y-109867819D01*
X156260827Y-110248771D02*
X156356065Y-110201152D01*
X156356065Y-110201152D02*
X156546541Y-110201152D01*
X156546541Y-110201152D02*
X156641779Y-110248771D01*
X156641779Y-110248771D02*
X156689398Y-110296390D01*
X156689398Y-110296390D02*
X156737017Y-110391628D01*
X156737017Y-110391628D02*
X156737017Y-110677342D01*
X156737017Y-110677342D02*
X156689398Y-110772580D01*
X156689398Y-110772580D02*
X156641779Y-110820200D01*
X156641779Y-110820200D02*
X156546541Y-110867819D01*
X156546541Y-110867819D02*
X156356065Y-110867819D01*
X156356065Y-110867819D02*
X156260827Y-110820200D01*
X156927494Y-110963057D02*
X157689398Y-110963057D01*
X157832256Y-109867819D02*
X158451303Y-109867819D01*
X158451303Y-109867819D02*
X158117970Y-110248771D01*
X158117970Y-110248771D02*
X158260827Y-110248771D01*
X158260827Y-110248771D02*
X158356065Y-110296390D01*
X158356065Y-110296390D02*
X158403684Y-110344009D01*
X158403684Y-110344009D02*
X158451303Y-110439247D01*
X158451303Y-110439247D02*
X158451303Y-110677342D01*
X158451303Y-110677342D02*
X158403684Y-110772580D01*
X158403684Y-110772580D02*
X158356065Y-110820200D01*
X158356065Y-110820200D02*
X158260827Y-110867819D01*
X158260827Y-110867819D02*
X157975113Y-110867819D01*
X157975113Y-110867819D02*
X157879875Y-110820200D01*
X157879875Y-110820200D02*
X157832256Y-110772580D01*
X163131762Y-116004819D02*
X163465095Y-117004819D01*
X163465095Y-117004819D02*
X163798428Y-116004819D01*
X164703190Y-117004819D02*
X164369857Y-116528628D01*
X164131762Y-117004819D02*
X164131762Y-116004819D01*
X164131762Y-116004819D02*
X164512714Y-116004819D01*
X164512714Y-116004819D02*
X164607952Y-116052438D01*
X164607952Y-116052438D02*
X164655571Y-116100057D01*
X164655571Y-116100057D02*
X164703190Y-116195295D01*
X164703190Y-116195295D02*
X164703190Y-116338152D01*
X164703190Y-116338152D02*
X164655571Y-116433390D01*
X164655571Y-116433390D02*
X164607952Y-116481009D01*
X164607952Y-116481009D02*
X164512714Y-116528628D01*
X164512714Y-116528628D02*
X164131762Y-116528628D01*
X165512714Y-116957200D02*
X165417476Y-117004819D01*
X165417476Y-117004819D02*
X165227000Y-117004819D01*
X165227000Y-117004819D02*
X165131762Y-116957200D01*
X165131762Y-116957200D02*
X165084143Y-116861961D01*
X165084143Y-116861961D02*
X165084143Y-116481009D01*
X165084143Y-116481009D02*
X165131762Y-116385771D01*
X165131762Y-116385771D02*
X165227000Y-116338152D01*
X165227000Y-116338152D02*
X165417476Y-116338152D01*
X165417476Y-116338152D02*
X165512714Y-116385771D01*
X165512714Y-116385771D02*
X165560333Y-116481009D01*
X165560333Y-116481009D02*
X165560333Y-116576247D01*
X165560333Y-116576247D02*
X165084143Y-116671485D01*
X166417476Y-116338152D02*
X166417476Y-117147676D01*
X166417476Y-117147676D02*
X166369857Y-117242914D01*
X166369857Y-117242914D02*
X166322238Y-117290533D01*
X166322238Y-117290533D02*
X166227000Y-117338152D01*
X166227000Y-117338152D02*
X166084143Y-117338152D01*
X166084143Y-117338152D02*
X165988905Y-117290533D01*
X166417476Y-116957200D02*
X166322238Y-117004819D01*
X166322238Y-117004819D02*
X166131762Y-117004819D01*
X166131762Y-117004819D02*
X166036524Y-116957200D01*
X166036524Y-116957200D02*
X165988905Y-116909580D01*
X165988905Y-116909580D02*
X165941286Y-116814342D01*
X165941286Y-116814342D02*
X165941286Y-116528628D01*
X165941286Y-116528628D02*
X165988905Y-116433390D01*
X165988905Y-116433390D02*
X166036524Y-116385771D01*
X166036524Y-116385771D02*
X166131762Y-116338152D01*
X166131762Y-116338152D02*
X166322238Y-116338152D01*
X166322238Y-116338152D02*
X166417476Y-116385771D01*
X166750810Y-116004819D02*
X167322238Y-116004819D01*
X167036524Y-117004819D02*
X167036524Y-116004819D01*
X164607952Y-117614819D02*
X164798428Y-117614819D01*
X164798428Y-117614819D02*
X164893666Y-117662438D01*
X164893666Y-117662438D02*
X164988904Y-117757676D01*
X164988904Y-117757676D02*
X165036523Y-117948152D01*
X165036523Y-117948152D02*
X165036523Y-118281485D01*
X165036523Y-118281485D02*
X164988904Y-118471961D01*
X164988904Y-118471961D02*
X164893666Y-118567200D01*
X164893666Y-118567200D02*
X164798428Y-118614819D01*
X164798428Y-118614819D02*
X164607952Y-118614819D01*
X164607952Y-118614819D02*
X164512714Y-118567200D01*
X164512714Y-118567200D02*
X164417476Y-118471961D01*
X164417476Y-118471961D02*
X164369857Y-118281485D01*
X164369857Y-118281485D02*
X164369857Y-117948152D01*
X164369857Y-117948152D02*
X164417476Y-117757676D01*
X164417476Y-117757676D02*
X164512714Y-117662438D01*
X164512714Y-117662438D02*
X164607952Y-117614819D01*
X165465095Y-118614819D02*
X165465095Y-117614819D01*
X165465095Y-117614819D02*
X166036523Y-118614819D01*
X166036523Y-118614819D02*
X166036523Y-117614819D01*
X96262866Y-114471220D02*
X96262866Y-113709316D01*
X109556779Y-85340866D02*
X110318684Y-85340866D01*
X163579350Y-140855819D02*
X163388874Y-140855819D01*
X163388874Y-140855819D02*
X163293636Y-140903438D01*
X163293636Y-140903438D02*
X163246017Y-140951057D01*
X163246017Y-140951057D02*
X163150779Y-141093914D01*
X163150779Y-141093914D02*
X163103160Y-141284390D01*
X163103160Y-141284390D02*
X163103160Y-141665342D01*
X163103160Y-141665342D02*
X163150779Y-141760580D01*
X163150779Y-141760580D02*
X163198398Y-141808200D01*
X163198398Y-141808200D02*
X163293636Y-141855819D01*
X163293636Y-141855819D02*
X163484112Y-141855819D01*
X163484112Y-141855819D02*
X163579350Y-141808200D01*
X163579350Y-141808200D02*
X163626969Y-141760580D01*
X163626969Y-141760580D02*
X163674588Y-141665342D01*
X163674588Y-141665342D02*
X163674588Y-141427247D01*
X163674588Y-141427247D02*
X163626969Y-141332009D01*
X163626969Y-141332009D02*
X163579350Y-141284390D01*
X163579350Y-141284390D02*
X163484112Y-141236771D01*
X163484112Y-141236771D02*
X163293636Y-141236771D01*
X163293636Y-141236771D02*
X163198398Y-141284390D01*
X163198398Y-141284390D02*
X163150779Y-141332009D01*
X163150779Y-141332009D02*
X163103160Y-141427247D01*
X115974333Y-102562819D02*
X115641000Y-102086628D01*
X115402905Y-102562819D02*
X115402905Y-101562819D01*
X115402905Y-101562819D02*
X115783857Y-101562819D01*
X115783857Y-101562819D02*
X115879095Y-101610438D01*
X115879095Y-101610438D02*
X115926714Y-101658057D01*
X115926714Y-101658057D02*
X115974333Y-101753295D01*
X115974333Y-101753295D02*
X115974333Y-101896152D01*
X115974333Y-101896152D02*
X115926714Y-101991390D01*
X115926714Y-101991390D02*
X115879095Y-102039009D01*
X115879095Y-102039009D02*
X115783857Y-102086628D01*
X115783857Y-102086628D02*
X115402905Y-102086628D01*
X116879095Y-101562819D02*
X116402905Y-101562819D01*
X116402905Y-101562819D02*
X116355286Y-102039009D01*
X116355286Y-102039009D02*
X116402905Y-101991390D01*
X116402905Y-101991390D02*
X116498143Y-101943771D01*
X116498143Y-101943771D02*
X116736238Y-101943771D01*
X116736238Y-101943771D02*
X116831476Y-101991390D01*
X116831476Y-101991390D02*
X116879095Y-102039009D01*
X116879095Y-102039009D02*
X116926714Y-102134247D01*
X116926714Y-102134247D02*
X116926714Y-102372342D01*
X116926714Y-102372342D02*
X116879095Y-102467580D01*
X116879095Y-102467580D02*
X116831476Y-102515200D01*
X116831476Y-102515200D02*
X116736238Y-102562819D01*
X116736238Y-102562819D02*
X116498143Y-102562819D01*
X116498143Y-102562819D02*
X116402905Y-102515200D01*
X116402905Y-102515200D02*
X116355286Y-102467580D01*
X146700999Y-111580819D02*
X146367666Y-111104628D01*
X146129571Y-111580819D02*
X146129571Y-110580819D01*
X146129571Y-110580819D02*
X146510523Y-110580819D01*
X146510523Y-110580819D02*
X146605761Y-110628438D01*
X146605761Y-110628438D02*
X146653380Y-110676057D01*
X146653380Y-110676057D02*
X146700999Y-110771295D01*
X146700999Y-110771295D02*
X146700999Y-110914152D01*
X146700999Y-110914152D02*
X146653380Y-111009390D01*
X146653380Y-111009390D02*
X146605761Y-111057009D01*
X146605761Y-111057009D02*
X146510523Y-111104628D01*
X146510523Y-111104628D02*
X146129571Y-111104628D01*
X147081952Y-111533200D02*
X147177190Y-111580819D01*
X147177190Y-111580819D02*
X147367666Y-111580819D01*
X147367666Y-111580819D02*
X147462904Y-111533200D01*
X147462904Y-111533200D02*
X147510523Y-111437961D01*
X147510523Y-111437961D02*
X147510523Y-111390342D01*
X147510523Y-111390342D02*
X147462904Y-111295104D01*
X147462904Y-111295104D02*
X147367666Y-111247485D01*
X147367666Y-111247485D02*
X147224809Y-111247485D01*
X147224809Y-111247485D02*
X147129571Y-111199866D01*
X147129571Y-111199866D02*
X147081952Y-111104628D01*
X147081952Y-111104628D02*
X147081952Y-111057009D01*
X147081952Y-111057009D02*
X147129571Y-110961771D01*
X147129571Y-110961771D02*
X147224809Y-110914152D01*
X147224809Y-110914152D02*
X147367666Y-110914152D01*
X147367666Y-110914152D02*
X147462904Y-110961771D01*
X147891476Y-111295104D02*
X148367666Y-111295104D01*
X147796238Y-111580819D02*
X148129571Y-110580819D01*
X148129571Y-110580819D02*
X148462904Y-111580819D01*
X148701000Y-110580819D02*
X149320047Y-110580819D01*
X149320047Y-110580819D02*
X148986714Y-110961771D01*
X148986714Y-110961771D02*
X149129571Y-110961771D01*
X149129571Y-110961771D02*
X149224809Y-111009390D01*
X149224809Y-111009390D02*
X149272428Y-111057009D01*
X149272428Y-111057009D02*
X149320047Y-111152247D01*
X149320047Y-111152247D02*
X149320047Y-111390342D01*
X149320047Y-111390342D02*
X149272428Y-111485580D01*
X149272428Y-111485580D02*
X149224809Y-111533200D01*
X149224809Y-111533200D02*
X149129571Y-111580819D01*
X149129571Y-111580819D02*
X148843857Y-111580819D01*
X148843857Y-111580819D02*
X148748619Y-111533200D01*
X148748619Y-111533200D02*
X148701000Y-111485580D01*
X147266819Y-118903619D02*
X146790628Y-119236952D01*
X147266819Y-119475047D02*
X146266819Y-119475047D01*
X146266819Y-119475047D02*
X146266819Y-119094095D01*
X146266819Y-119094095D02*
X146314438Y-118998857D01*
X146314438Y-118998857D02*
X146362057Y-118951238D01*
X146362057Y-118951238D02*
X146457295Y-118903619D01*
X146457295Y-118903619D02*
X146600152Y-118903619D01*
X146600152Y-118903619D02*
X146695390Y-118951238D01*
X146695390Y-118951238D02*
X146743009Y-118998857D01*
X146743009Y-118998857D02*
X146790628Y-119094095D01*
X146790628Y-119094095D02*
X146790628Y-119475047D01*
X146266819Y-118617904D02*
X147266819Y-118284571D01*
X147266819Y-118284571D02*
X146266819Y-117951238D01*
X147266819Y-117189333D02*
X146266819Y-117189333D01*
X147219200Y-117189333D02*
X147266819Y-117284571D01*
X147266819Y-117284571D02*
X147266819Y-117475047D01*
X147266819Y-117475047D02*
X147219200Y-117570285D01*
X147219200Y-117570285D02*
X147171580Y-117617904D01*
X147171580Y-117617904D02*
X147076342Y-117665523D01*
X147076342Y-117665523D02*
X146790628Y-117665523D01*
X146790628Y-117665523D02*
X146695390Y-117617904D01*
X146695390Y-117617904D02*
X146647771Y-117570285D01*
X146647771Y-117570285D02*
X146600152Y-117475047D01*
X146600152Y-117475047D02*
X146600152Y-117284571D01*
X146600152Y-117284571D02*
X146647771Y-117189333D01*
X146266819Y-116808380D02*
X146266819Y-116189333D01*
X146266819Y-116189333D02*
X146647771Y-116522666D01*
X146647771Y-116522666D02*
X146647771Y-116379809D01*
X146647771Y-116379809D02*
X146695390Y-116284571D01*
X146695390Y-116284571D02*
X146743009Y-116236952D01*
X146743009Y-116236952D02*
X146838247Y-116189333D01*
X146838247Y-116189333D02*
X147076342Y-116189333D01*
X147076342Y-116189333D02*
X147171580Y-116236952D01*
X147171580Y-116236952D02*
X147219200Y-116284571D01*
X147219200Y-116284571D02*
X147266819Y-116379809D01*
X147266819Y-116379809D02*
X147266819Y-116665523D01*
X147266819Y-116665523D02*
X147219200Y-116760761D01*
X147219200Y-116760761D02*
X147171580Y-116808380D01*
X149044819Y-118856000D02*
X148568628Y-119189333D01*
X149044819Y-119427428D02*
X148044819Y-119427428D01*
X148044819Y-119427428D02*
X148044819Y-119046476D01*
X148044819Y-119046476D02*
X148092438Y-118951238D01*
X148092438Y-118951238D02*
X148140057Y-118903619D01*
X148140057Y-118903619D02*
X148235295Y-118856000D01*
X148235295Y-118856000D02*
X148378152Y-118856000D01*
X148378152Y-118856000D02*
X148473390Y-118903619D01*
X148473390Y-118903619D02*
X148521009Y-118951238D01*
X148521009Y-118951238D02*
X148568628Y-119046476D01*
X148568628Y-119046476D02*
X148568628Y-119427428D01*
X148997200Y-118475047D02*
X149044819Y-118379809D01*
X149044819Y-118379809D02*
X149044819Y-118189333D01*
X149044819Y-118189333D02*
X148997200Y-118094095D01*
X148997200Y-118094095D02*
X148901961Y-118046476D01*
X148901961Y-118046476D02*
X148854342Y-118046476D01*
X148854342Y-118046476D02*
X148759104Y-118094095D01*
X148759104Y-118094095D02*
X148711485Y-118189333D01*
X148711485Y-118189333D02*
X148711485Y-118332190D01*
X148711485Y-118332190D02*
X148663866Y-118427428D01*
X148663866Y-118427428D02*
X148568628Y-118475047D01*
X148568628Y-118475047D02*
X148521009Y-118475047D01*
X148521009Y-118475047D02*
X148425771Y-118427428D01*
X148425771Y-118427428D02*
X148378152Y-118332190D01*
X148378152Y-118332190D02*
X148378152Y-118189333D01*
X148378152Y-118189333D02*
X148425771Y-118094095D01*
X148044819Y-117760761D02*
X149044819Y-117427428D01*
X149044819Y-117427428D02*
X148044819Y-117094095D01*
X148044819Y-116855999D02*
X148044819Y-116236952D01*
X148044819Y-116236952D02*
X148425771Y-116570285D01*
X148425771Y-116570285D02*
X148425771Y-116427428D01*
X148425771Y-116427428D02*
X148473390Y-116332190D01*
X148473390Y-116332190D02*
X148521009Y-116284571D01*
X148521009Y-116284571D02*
X148616247Y-116236952D01*
X148616247Y-116236952D02*
X148854342Y-116236952D01*
X148854342Y-116236952D02*
X148949580Y-116284571D01*
X148949580Y-116284571D02*
X148997200Y-116332190D01*
X148997200Y-116332190D02*
X149044819Y-116427428D01*
X149044819Y-116427428D02*
X149044819Y-116713142D01*
X149044819Y-116713142D02*
X148997200Y-116808380D01*
X148997200Y-116808380D02*
X148949580Y-116855999D01*
X118483142Y-96974819D02*
X118149809Y-96498628D01*
X117911714Y-96974819D02*
X117911714Y-95974819D01*
X117911714Y-95974819D02*
X118292666Y-95974819D01*
X118292666Y-95974819D02*
X118387904Y-96022438D01*
X118387904Y-96022438D02*
X118435523Y-96070057D01*
X118435523Y-96070057D02*
X118483142Y-96165295D01*
X118483142Y-96165295D02*
X118483142Y-96308152D01*
X118483142Y-96308152D02*
X118435523Y-96403390D01*
X118435523Y-96403390D02*
X118387904Y-96451009D01*
X118387904Y-96451009D02*
X118292666Y-96498628D01*
X118292666Y-96498628D02*
X117911714Y-96498628D01*
X118816476Y-95974819D02*
X119435523Y-95974819D01*
X119435523Y-95974819D02*
X119102190Y-96355771D01*
X119102190Y-96355771D02*
X119245047Y-96355771D01*
X119245047Y-96355771D02*
X119340285Y-96403390D01*
X119340285Y-96403390D02*
X119387904Y-96451009D01*
X119387904Y-96451009D02*
X119435523Y-96546247D01*
X119435523Y-96546247D02*
X119435523Y-96784342D01*
X119435523Y-96784342D02*
X119387904Y-96879580D01*
X119387904Y-96879580D02*
X119340285Y-96927200D01*
X119340285Y-96927200D02*
X119245047Y-96974819D01*
X119245047Y-96974819D02*
X118959333Y-96974819D01*
X118959333Y-96974819D02*
X118864095Y-96927200D01*
X118864095Y-96927200D02*
X118816476Y-96879580D01*
X120054571Y-95974819D02*
X120149809Y-95974819D01*
X120149809Y-95974819D02*
X120245047Y-96022438D01*
X120245047Y-96022438D02*
X120292666Y-96070057D01*
X120292666Y-96070057D02*
X120340285Y-96165295D01*
X120340285Y-96165295D02*
X120387904Y-96355771D01*
X120387904Y-96355771D02*
X120387904Y-96593866D01*
X120387904Y-96593866D02*
X120340285Y-96784342D01*
X120340285Y-96784342D02*
X120292666Y-96879580D01*
X120292666Y-96879580D02*
X120245047Y-96927200D01*
X120245047Y-96927200D02*
X120149809Y-96974819D01*
X120149809Y-96974819D02*
X120054571Y-96974819D01*
X120054571Y-96974819D02*
X119959333Y-96927200D01*
X119959333Y-96927200D02*
X119911714Y-96879580D01*
X119911714Y-96879580D02*
X119864095Y-96784342D01*
X119864095Y-96784342D02*
X119816476Y-96593866D01*
X119816476Y-96593866D02*
X119816476Y-96355771D01*
X119816476Y-96355771D02*
X119864095Y-96165295D01*
X119864095Y-96165295D02*
X119911714Y-96070057D01*
X119911714Y-96070057D02*
X119959333Y-96022438D01*
X119959333Y-96022438D02*
X120054571Y-95974819D01*
X115974333Y-101038819D02*
X115641000Y-100562628D01*
X115402905Y-101038819D02*
X115402905Y-100038819D01*
X115402905Y-100038819D02*
X115783857Y-100038819D01*
X115783857Y-100038819D02*
X115879095Y-100086438D01*
X115879095Y-100086438D02*
X115926714Y-100134057D01*
X115926714Y-100134057D02*
X115974333Y-100229295D01*
X115974333Y-100229295D02*
X115974333Y-100372152D01*
X115974333Y-100372152D02*
X115926714Y-100467390D01*
X115926714Y-100467390D02*
X115879095Y-100515009D01*
X115879095Y-100515009D02*
X115783857Y-100562628D01*
X115783857Y-100562628D02*
X115402905Y-100562628D01*
X116831476Y-100038819D02*
X116641000Y-100038819D01*
X116641000Y-100038819D02*
X116545762Y-100086438D01*
X116545762Y-100086438D02*
X116498143Y-100134057D01*
X116498143Y-100134057D02*
X116402905Y-100276914D01*
X116402905Y-100276914D02*
X116355286Y-100467390D01*
X116355286Y-100467390D02*
X116355286Y-100848342D01*
X116355286Y-100848342D02*
X116402905Y-100943580D01*
X116402905Y-100943580D02*
X116450524Y-100991200D01*
X116450524Y-100991200D02*
X116545762Y-101038819D01*
X116545762Y-101038819D02*
X116736238Y-101038819D01*
X116736238Y-101038819D02*
X116831476Y-100991200D01*
X116831476Y-100991200D02*
X116879095Y-100943580D01*
X116879095Y-100943580D02*
X116926714Y-100848342D01*
X116926714Y-100848342D02*
X116926714Y-100610247D01*
X116926714Y-100610247D02*
X116879095Y-100515009D01*
X116879095Y-100515009D02*
X116831476Y-100467390D01*
X116831476Y-100467390D02*
X116736238Y-100419771D01*
X116736238Y-100419771D02*
X116545762Y-100419771D01*
X116545762Y-100419771D02*
X116450524Y-100467390D01*
X116450524Y-100467390D02*
X116402905Y-100515009D01*
X116402905Y-100515009D02*
X116355286Y-100610247D01*
X147774819Y-95947619D02*
X147298628Y-96280952D01*
X147774819Y-96519047D02*
X146774819Y-96519047D01*
X146774819Y-96519047D02*
X146774819Y-96138095D01*
X146774819Y-96138095D02*
X146822438Y-96042857D01*
X146822438Y-96042857D02*
X146870057Y-95995238D01*
X146870057Y-95995238D02*
X146965295Y-95947619D01*
X146965295Y-95947619D02*
X147108152Y-95947619D01*
X147108152Y-95947619D02*
X147203390Y-95995238D01*
X147203390Y-95995238D02*
X147251009Y-96042857D01*
X147251009Y-96042857D02*
X147298628Y-96138095D01*
X147298628Y-96138095D02*
X147298628Y-96519047D01*
X147774819Y-95042857D02*
X147774819Y-95519047D01*
X147774819Y-95519047D02*
X146774819Y-95519047D01*
X147727200Y-94757142D02*
X147774819Y-94614285D01*
X147774819Y-94614285D02*
X147774819Y-94376190D01*
X147774819Y-94376190D02*
X147727200Y-94280952D01*
X147727200Y-94280952D02*
X147679580Y-94233333D01*
X147679580Y-94233333D02*
X147584342Y-94185714D01*
X147584342Y-94185714D02*
X147489104Y-94185714D01*
X147489104Y-94185714D02*
X147393866Y-94233333D01*
X147393866Y-94233333D02*
X147346247Y-94280952D01*
X147346247Y-94280952D02*
X147298628Y-94376190D01*
X147298628Y-94376190D02*
X147251009Y-94566666D01*
X147251009Y-94566666D02*
X147203390Y-94661904D01*
X147203390Y-94661904D02*
X147155771Y-94709523D01*
X147155771Y-94709523D02*
X147060533Y-94757142D01*
X147060533Y-94757142D02*
X146965295Y-94757142D01*
X146965295Y-94757142D02*
X146870057Y-94709523D01*
X146870057Y-94709523D02*
X146822438Y-94661904D01*
X146822438Y-94661904D02*
X146774819Y-94566666D01*
X146774819Y-94566666D02*
X146774819Y-94328571D01*
X146774819Y-94328571D02*
X146822438Y-94185714D01*
X146774819Y-93566666D02*
X146774819Y-93471428D01*
X146774819Y-93471428D02*
X146822438Y-93376190D01*
X146822438Y-93376190D02*
X146870057Y-93328571D01*
X146870057Y-93328571D02*
X146965295Y-93280952D01*
X146965295Y-93280952D02*
X147155771Y-93233333D01*
X147155771Y-93233333D02*
X147393866Y-93233333D01*
X147393866Y-93233333D02*
X147584342Y-93280952D01*
X147584342Y-93280952D02*
X147679580Y-93328571D01*
X147679580Y-93328571D02*
X147727200Y-93376190D01*
X147727200Y-93376190D02*
X147774819Y-93471428D01*
X147774819Y-93471428D02*
X147774819Y-93566666D01*
X147774819Y-93566666D02*
X147727200Y-93661904D01*
X147727200Y-93661904D02*
X147679580Y-93709523D01*
X147679580Y-93709523D02*
X147584342Y-93757142D01*
X147584342Y-93757142D02*
X147393866Y-93804761D01*
X147393866Y-93804761D02*
X147155771Y-93804761D01*
X147155771Y-93804761D02*
X146965295Y-93757142D01*
X146965295Y-93757142D02*
X146870057Y-93709523D01*
X146870057Y-93709523D02*
X146822438Y-93661904D01*
X146822438Y-93661904D02*
X146774819Y-93566666D01*
D11*
%TO.C,RLS6*%
X164819064Y-99033000D02*
X164364936Y-99033000D01*
X164819064Y-97563000D02*
X164364936Y-97563000D01*
%TO.C,P_CFG1*%
X121606000Y-122891000D02*
X122936000Y-122891000D01*
X121606000Y-124221000D02*
X121606000Y-122891000D01*
X121606000Y-125491000D02*
X121606000Y-130631000D01*
X121606000Y-125491000D02*
X124266000Y-125491000D01*
X121606000Y-130631000D02*
X124266000Y-130631000D01*
X124266000Y-125491000D02*
X124266000Y-130631000D01*
%TO.C,CHV1*%
X118985420Y-108202000D02*
X119266580Y-108202000D01*
X118985420Y-109222000D02*
X119266580Y-109222000D01*
%TO.C,R621*%
X155968359Y-82820000D02*
X156275641Y-82820000D01*
X155968359Y-83580000D02*
X156275641Y-83580000D01*
D12*
%TO.C,USB_LED1*%
X174728000Y-115316000D02*
G75*
G03*
X174628000Y-115316000I-50000J0D01*
G01*
X174628000Y-115316000D02*
G75*
G03*
X174728000Y-115316000I50000J0D01*
G01*
D11*
%TO.C,RLS2*%
X156857000Y-94672936D02*
X156857000Y-95127064D01*
X155387000Y-94672936D02*
X155387000Y-95127064D01*
%TO.C,R7*%
X125967258Y-140730500D02*
X125492742Y-140730500D01*
X125967258Y-139685500D02*
X125492742Y-139685500D01*
%TO.C,R26*%
X122413500Y-139683258D02*
X122413500Y-139208742D01*
X123458500Y-139683258D02*
X123458500Y-139208742D01*
%TO.C,J_RST2*%
X114494000Y-144586000D02*
X114494000Y-143256000D01*
X115824000Y-144586000D02*
X114494000Y-144586000D01*
X117094000Y-144586000D02*
X119694000Y-144586000D01*
X117094000Y-144586000D02*
X117094000Y-141926000D01*
X119694000Y-144586000D02*
X119694000Y-141926000D01*
X117094000Y-141926000D02*
X119694000Y-141926000D01*
%TO.C,P_ENHV1*%
X126940000Y-101047000D02*
X128270000Y-101047000D01*
X126940000Y-102377000D02*
X126940000Y-101047000D01*
X126940000Y-103647000D02*
X126940000Y-108787000D01*
X126940000Y-103647000D02*
X129600000Y-103647000D01*
X126940000Y-108787000D02*
X129600000Y-108787000D01*
X129600000Y-103647000D02*
X129600000Y-108787000D01*
D13*
%TO.C,Q606*%
X167227000Y-85425000D02*
X167227000Y-86950000D01*
X167072000Y-87300000D02*
X167072000Y-90500000D01*
X162172000Y-87300000D02*
X167072000Y-87300000D01*
X167072000Y-90500000D02*
X162172000Y-90500000D01*
X162172000Y-90500000D02*
X162172000Y-87300000D01*
D11*
%TO.C,J_RST1*%
X108144000Y-144586000D02*
X108144000Y-143256000D01*
X109474000Y-144586000D02*
X108144000Y-144586000D01*
X110744000Y-144586000D02*
X113344000Y-144586000D01*
X110744000Y-144586000D02*
X110744000Y-141926000D01*
X113344000Y-144586000D02*
X113344000Y-141926000D01*
X110744000Y-141926000D02*
X113344000Y-141926000D01*
%TO.C,J201*%
X153670000Y-142180000D02*
X148530000Y-142180000D01*
X153670000Y-142180000D02*
X153670000Y-144840000D01*
X148530000Y-142180000D02*
X148530000Y-144840000D01*
X156270000Y-143510000D02*
X156270000Y-144840000D01*
X156270000Y-144840000D02*
X154940000Y-144840000D01*
X153670000Y-144840000D02*
X148530000Y-144840000D01*
%TO.C,R5*%
X118380742Y-101585500D02*
X118855258Y-101585500D01*
X118380742Y-102630500D02*
X118855258Y-102630500D01*
%TO.C,RsA3*%
X147473936Y-112041000D02*
X147928064Y-112041000D01*
X147473936Y-113511000D02*
X147928064Y-113511000D01*
D12*
%TO.C,D201*%
X159636000Y-129032000D02*
G75*
G03*
X159536000Y-129032000I-50000J0D01*
G01*
X159536000Y-129032000D02*
G75*
G03*
X159636000Y-129032000I50000J0D01*
G01*
D11*
%TO.C,R620*%
X151968359Y-82820000D02*
X152275641Y-82820000D01*
X151968359Y-83580000D02*
X152275641Y-83580000D01*
%TO.C,SC_T_1*%
X139894000Y-111446000D02*
X141224000Y-111446000D01*
X139894000Y-112776000D02*
X139894000Y-111446000D01*
X139894000Y-114046000D02*
X139894000Y-116646000D01*
X139894000Y-114046000D02*
X142494000Y-114046000D01*
X139894000Y-116646000D02*
X145094000Y-116646000D01*
X142494000Y-111446000D02*
X145094000Y-111446000D01*
X142494000Y-114046000D02*
X142494000Y-111446000D01*
X145094000Y-111446000D02*
X145094000Y-116646000D01*
%TO.C,R401*%
X177191641Y-110870000D02*
X176884359Y-110870000D01*
X177191641Y-110110000D02*
X176884359Y-110110000D01*
%TO.C,PrbV3*%
X159572000Y-116641000D02*
X158242000Y-116641000D01*
X159572000Y-115311000D02*
X159572000Y-116641000D01*
X159572000Y-114041000D02*
X159572000Y-111441000D01*
X159572000Y-114041000D02*
X156912000Y-114041000D01*
X159572000Y-111441000D02*
X156912000Y-111441000D01*
X156912000Y-114041000D02*
X156912000Y-111441000D01*
%TO.C,R616*%
X158968359Y-84020000D02*
X159275641Y-84020000D01*
X158968359Y-84780000D02*
X159275641Y-84780000D01*
%TO.C,RLS5*%
X166857000Y-94672936D02*
X166857000Y-95127064D01*
X165387000Y-94672936D02*
X165387000Y-95127064D01*
%TO.C,LBUCK1*%
X113883221Y-116584000D02*
X114208779Y-116584000D01*
X113883221Y-117604000D02*
X114208779Y-117604000D01*
%TO.C,RLS3*%
X159857000Y-94672936D02*
X159857000Y-95127064D01*
X158387000Y-94672936D02*
X158387000Y-95127064D01*
%TO.C,R212*%
X169317641Y-132460000D02*
X169010359Y-132460000D01*
X169317641Y-131700000D02*
X169010359Y-131700000D01*
D14*
%TO.C,IC403*%
X171114000Y-83125000D02*
G75*
G03*
X170789000Y-83125000I-162500J0D01*
G01*
X170789000Y-83125000D02*
G75*
G03*
X171114000Y-83125000I162500J0D01*
G01*
D11*
%TO.C,PrbA3*%
X155889000Y-116646000D02*
X154559000Y-116646000D01*
X155889000Y-115316000D02*
X155889000Y-116646000D01*
X155889000Y-114046000D02*
X155889000Y-111446000D01*
X155889000Y-114046000D02*
X153229000Y-114046000D01*
X155889000Y-111446000D02*
X153229000Y-111446000D01*
X153229000Y-114046000D02*
X153229000Y-111446000D01*
%TO.C,C213*%
X177438164Y-117877000D02*
X177653836Y-117877000D01*
X177438164Y-118597000D02*
X177653836Y-118597000D01*
D13*
%TO.C,S205*%
X170105000Y-139534000D02*
X170105000Y-139534000D01*
X170305000Y-139534000D02*
X170305000Y-139534000D01*
D12*
X167505000Y-138534000D02*
X167505000Y-134334000D01*
X169605000Y-138534000D02*
X168605000Y-138534000D01*
X170705000Y-138534000D02*
X170705000Y-134334000D01*
X168605000Y-134334000D02*
X169605000Y-134334000D01*
D13*
X170305000Y-139534000D02*
G75*
G03*
X170105000Y-139534000I-100000J0D01*
G01*
X170105000Y-139534000D02*
G75*
G03*
X170305000Y-139534000I100000J0D01*
G01*
D11*
%TO.C,PrbV2*%
X115833200Y-93532000D02*
X114503200Y-93532000D01*
X115833200Y-92202000D02*
X115833200Y-93532000D01*
X115833200Y-90932000D02*
X115833200Y-88332000D01*
X115833200Y-90932000D02*
X113173200Y-90932000D01*
X115833200Y-88332000D02*
X113173200Y-88332000D01*
X113173200Y-90932000D02*
X113173200Y-88332000D01*
%TO.C,RLS4*%
X163857000Y-94672936D02*
X163857000Y-95127064D01*
X162387000Y-94672936D02*
X162387000Y-95127064D01*
%TO.C,R210*%
X158649641Y-132460000D02*
X158342359Y-132460000D01*
X158649641Y-131700000D02*
X158342359Y-131700000D01*
D15*
%TO.C,IC1*%
X111417000Y-114110000D02*
G75*
G03*
X111167000Y-114110000I-125000J0D01*
G01*
X111167000Y-114110000D02*
G75*
G03*
X111417000Y-114110000I125000J0D01*
G01*
D11*
%TO.C,P_CFG0*%
X125416000Y-122891000D02*
X126746000Y-122891000D01*
X125416000Y-124221000D02*
X125416000Y-122891000D01*
X125416000Y-125491000D02*
X125416000Y-130631000D01*
X125416000Y-125491000D02*
X128076000Y-125491000D01*
X125416000Y-130631000D02*
X128076000Y-130631000D01*
X128076000Y-125491000D02*
X128076000Y-130631000D01*
D12*
%TO.C,SC1*%
X144345000Y-122182000D02*
X144345000Y-123182000D01*
X144845000Y-122682000D02*
X143845000Y-122682000D01*
X152045000Y-126082000D02*
X140045000Y-126082000D01*
X144345000Y-128982000D02*
X144345000Y-129982000D01*
D10*
X152045000Y-126082000D02*
G75*
G03*
X140045000Y-126082000I-6000000J0D01*
G01*
X140045000Y-126082000D02*
G75*
G03*
X152045000Y-126082000I6000000J0D01*
G01*
D11*
%TO.C,CLV1*%
X118985420Y-110742000D02*
X119266580Y-110742000D01*
X118985420Y-111762000D02*
X119266580Y-111762000D01*
%TO.C,R205*%
X163676359Y-129668000D02*
X163983641Y-129668000D01*
X163676359Y-130428000D02*
X163983641Y-130428000D01*
%TO.C,P_ENLV1*%
X122368000Y-101032000D02*
X123698000Y-101032000D01*
X122368000Y-102362000D02*
X122368000Y-101032000D01*
X122368000Y-103632000D02*
X122368000Y-108772000D01*
X122368000Y-103632000D02*
X125028000Y-103632000D01*
X122368000Y-108772000D02*
X125028000Y-108772000D01*
X125028000Y-103632000D02*
X125028000Y-108772000D01*
%TO.C,CSRC1*%
X107332580Y-114056000D02*
X107051420Y-114056000D01*
X107332580Y-113036000D02*
X107051420Y-113036000D01*
D12*
%TO.C,VReg_LED1*%
X166367000Y-115316000D02*
G75*
G03*
X166267000Y-115316000I-50000J0D01*
G01*
X166267000Y-115316000D02*
G75*
G03*
X166367000Y-115316000I50000J0D01*
G01*
D13*
%TO.C,S201*%
X178546000Y-125564000D02*
X178546000Y-125564000D01*
X178746000Y-125564000D02*
X178746000Y-125564000D01*
D12*
X175946000Y-124564000D02*
X175946000Y-120364000D01*
X178046000Y-124564000D02*
X177046000Y-124564000D01*
X179146000Y-124564000D02*
X179146000Y-120364000D01*
X177046000Y-120364000D02*
X178046000Y-120364000D01*
D13*
X178746000Y-125564000D02*
G75*
G03*
X178546000Y-125564000I-100000J0D01*
G01*
X178546000Y-125564000D02*
G75*
G03*
X178746000Y-125564000I100000J0D01*
G01*
D11*
%TO.C,R204*%
X158342359Y-129668000D02*
X158649641Y-129668000D01*
X158342359Y-130428000D02*
X158649641Y-130428000D01*
%TO.C,R617*%
X162968359Y-84020000D02*
X163275641Y-84020000D01*
X162968359Y-84780000D02*
X163275641Y-84780000D01*
%TO.C,PrbA2*%
X112074000Y-93532000D02*
X110744000Y-93532000D01*
X112074000Y-92202000D02*
X112074000Y-93532000D01*
X112074000Y-90932000D02*
X112074000Y-88332000D01*
X112074000Y-90932000D02*
X109414000Y-90932000D01*
X112074000Y-88332000D02*
X109414000Y-88332000D01*
X109414000Y-90932000D02*
X109414000Y-88332000D01*
D13*
%TO.C,Q6S12*%
X159069000Y-100538000D02*
X159069000Y-102063000D01*
X158914000Y-102413000D02*
X158914000Y-105613000D01*
X154014000Y-102413000D02*
X158914000Y-102413000D01*
X158914000Y-105613000D02*
X154014000Y-105613000D01*
X154014000Y-105613000D02*
X154014000Y-102413000D01*
D11*
%TO.C,CBATT1*%
X102869948Y-90225200D02*
X104292452Y-90225200D01*
X102869948Y-92045200D02*
X104292452Y-92045200D01*
%TO.C,R8*%
X125967258Y-139206500D02*
X125492742Y-139206500D01*
X125967258Y-138161500D02*
X125492742Y-138161500D01*
D13*
%TO.C,IC401*%
X173713000Y-104784000D02*
X173713000Y-107984000D01*
X173713000Y-104784000D02*
X180513000Y-104784000D01*
X173713000Y-107984000D02*
X174657000Y-107984000D01*
X180513000Y-104784000D02*
X180513000Y-107984000D01*
X180513000Y-107984000D02*
X179633000Y-107984000D01*
X174442680Y-108926000D02*
G75*
G03*
X174203320Y-108926000I-119680J0D01*
G01*
X174203320Y-108926000D02*
G75*
G03*
X174442680Y-108926000I119680J0D01*
G01*
D11*
%TO.C,C402*%
X177145836Y-113390000D02*
X176930164Y-113390000D01*
X177145836Y-112670000D02*
X176930164Y-112670000D01*
D12*
%TO.C,D203*%
X170304000Y-129032000D02*
G75*
G03*
X170204000Y-129032000I-50000J0D01*
G01*
X170204000Y-129032000D02*
G75*
G03*
X170304000Y-129032000I50000J0D01*
G01*
D16*
%TO.C,J_BATT1*%
X96634300Y-86093300D02*
X91441839Y-86093300D01*
X87769700Y-87902039D02*
X87769700Y-92437961D01*
X96634300Y-88341959D02*
X96634300Y-86093300D01*
X96634300Y-90341961D02*
X96634300Y-89998039D01*
X96634300Y-94246700D02*
X96634300Y-91998041D01*
X91441839Y-94246700D02*
X96634300Y-94246700D01*
D17*
X92883000Y-89170000D02*
G75*
G03*
X92121000Y-89170000I-381000J0D01*
G01*
X92121000Y-89170000D02*
G75*
G03*
X92883000Y-89170000I381000J0D01*
G01*
D11*
%TO.C,USB_SRC1*%
X187512000Y-118050000D02*
X187512000Y-119380000D01*
X186182000Y-118050000D02*
X187512000Y-118050000D01*
X184912000Y-118050000D02*
X182312000Y-118050000D01*
X184912000Y-118050000D02*
X184912000Y-120710000D01*
X182312000Y-118050000D02*
X182312000Y-120710000D01*
X184912000Y-120710000D02*
X182312000Y-120710000D01*
%TO.C,R614*%
X151968359Y-84020000D02*
X152275641Y-84020000D01*
X151968359Y-84780000D02*
X152275641Y-84780000D01*
%TO.C,C404*%
X170286000Y-87395164D02*
X170286000Y-87610836D01*
X169566000Y-87395164D02*
X169566000Y-87610836D01*
%TO.C,R206*%
X169010359Y-129668000D02*
X169317641Y-129668000D01*
X169010359Y-130428000D02*
X169317641Y-130428000D01*
%TO.C,LBOOST1*%
X109954000Y-118958000D02*
X105954000Y-118958000D01*
X105954000Y-114738000D02*
X109954000Y-114738000D01*
%TO.C,VRegT2*%
X168970000Y-104715000D02*
X168970000Y-106045000D01*
X167640000Y-104715000D02*
X168970000Y-104715000D01*
X166370000Y-104715000D02*
X161230000Y-104715000D01*
X166370000Y-104715000D02*
X166370000Y-107375000D01*
X161230000Y-104715000D02*
X161230000Y-107375000D01*
X166370000Y-107375000D02*
X161230000Y-107375000D01*
%TO.C,P30*%
X117796000Y-88332000D02*
X119126000Y-88332000D01*
X117796000Y-89662000D02*
X117796000Y-88332000D01*
X117796000Y-90932000D02*
X117796000Y-93532000D01*
X117796000Y-90932000D02*
X120456000Y-90932000D01*
X117796000Y-93532000D02*
X120456000Y-93532000D01*
X120456000Y-90932000D02*
X120456000Y-93532000D01*
D16*
%TO.C,J_PRIM1*%
X96473000Y-128019299D02*
X91280539Y-128019299D01*
X87608400Y-129828038D02*
X87608400Y-134363960D01*
X96473000Y-130267958D02*
X96473000Y-128019299D01*
X96473000Y-132267960D02*
X96473000Y-131924038D01*
X96473000Y-136172699D02*
X96473000Y-133924040D01*
X91280539Y-136172699D02*
X96473000Y-136172699D01*
D17*
X92721700Y-131095999D02*
G75*
G03*
X91959700Y-131095999I-381000J0D01*
G01*
X91959700Y-131095999D02*
G75*
G03*
X92721700Y-131095999I381000J0D01*
G01*
D11*
%TO.C,PrbA1*%
X101032000Y-116531000D02*
X102362000Y-116531000D01*
X101032000Y-117861000D02*
X101032000Y-116531000D01*
X101032000Y-119131000D02*
X101032000Y-121731000D01*
X101032000Y-119131000D02*
X103692000Y-119131000D01*
X101032000Y-121731000D02*
X103692000Y-121731000D01*
X103692000Y-119131000D02*
X103692000Y-121731000D01*
%TO.C,R29*%
X106157500Y-135111258D02*
X106157500Y-134636742D01*
X107202500Y-135111258D02*
X107202500Y-134636742D01*
%TO.C,CBUCK1*%
X114186580Y-119128000D02*
X113905420Y-119128000D01*
X114186580Y-118108000D02*
X113905420Y-118108000D01*
%TO.C,R25*%
X97552742Y-99998500D02*
X98027258Y-99998500D01*
X97552742Y-101043500D02*
X98027258Y-101043500D01*
%TO.C,RVd3*%
X147192000Y-114908359D02*
X147192000Y-115215641D01*
X146432000Y-114908359D02*
X146432000Y-115215641D01*
D16*
%TO.C,J_SRC1*%
X95364300Y-106121200D02*
X87515700Y-106121200D01*
X87515700Y-106121200D02*
X87515700Y-116382800D01*
X95364300Y-116382800D02*
X95364300Y-106121200D01*
X87515700Y-116382800D02*
X95364300Y-116382800D01*
D17*
X94018299Y-108752000D02*
G75*
G03*
X93256299Y-108752000I-381000J0D01*
G01*
X93256299Y-108752000D02*
G75*
G03*
X94018299Y-108752000I381000J0D01*
G01*
D11*
%TO.C,R618*%
X165968359Y-84020000D02*
X166275641Y-84020000D01*
X165968359Y-84780000D02*
X166275641Y-84780000D01*
%TO.C,R4*%
X99807500Y-101520258D02*
X99807500Y-101045742D01*
X100852500Y-101520258D02*
X100852500Y-101045742D01*
%TO.C,R624*%
X165968359Y-82820000D02*
X166275641Y-82820000D01*
X165968359Y-83580000D02*
X166275641Y-83580000D01*
D16*
%TO.C,J_SC1*%
X128574800Y-84442300D02*
X128574800Y-76593700D01*
X128574800Y-76593700D02*
X118313200Y-76593700D01*
X118313200Y-84442300D02*
X128574800Y-84442300D01*
X118313200Y-76593700D02*
X118313200Y-84442300D01*
D17*
X126325000Y-82715299D02*
G75*
G03*
X125563000Y-82715299I-381000J0D01*
G01*
X125563000Y-82715299D02*
G75*
G03*
X126325000Y-82715299I381000J0D01*
G01*
D11*
%TO.C,R3*%
X101331500Y-101520258D02*
X101331500Y-101045742D01*
X102376500Y-101520258D02*
X102376500Y-101045742D01*
%TO.C,P_CFG2*%
X117796000Y-122891000D02*
X119126000Y-122891000D01*
X117796000Y-124221000D02*
X117796000Y-122891000D01*
X117796000Y-125491000D02*
X117796000Y-130631000D01*
X117796000Y-125491000D02*
X120456000Y-125491000D01*
X117796000Y-130631000D02*
X120456000Y-130631000D01*
X120456000Y-125491000D02*
X120456000Y-130631000D01*
%TO.C,R211*%
X163983641Y-132460000D02*
X163676359Y-132460000D01*
X163983641Y-131700000D02*
X163676359Y-131700000D01*
%TO.C,R622*%
X158968359Y-82820000D02*
X159275641Y-82820000D01*
X158968359Y-83580000D02*
X159275641Y-83580000D01*
%TO.C,PrbV1*%
X97222000Y-116526000D02*
X98552000Y-116526000D01*
X97222000Y-117856000D02*
X97222000Y-116526000D01*
X97222000Y-119126000D02*
X97222000Y-121726000D01*
X97222000Y-119126000D02*
X99882000Y-119126000D01*
X97222000Y-121726000D02*
X99882000Y-121726000D01*
X99882000Y-119126000D02*
X99882000Y-121726000D01*
%TO.C,R615*%
X155968359Y-84020000D02*
X156275641Y-84020000D01*
X155968359Y-84780000D02*
X156275641Y-84780000D01*
%TO.C,J203*%
X177277000Y-142205000D02*
X159437000Y-142205000D01*
X177277000Y-142205000D02*
X177277000Y-144865000D01*
X159437000Y-142205000D02*
X159437000Y-144865000D01*
X179877000Y-143535000D02*
X179877000Y-144865000D01*
X179877000Y-144865000D02*
X178547000Y-144865000D01*
X177277000Y-144865000D02*
X159437000Y-144865000D01*
D13*
%TO.C,S204*%
X164771000Y-139534000D02*
X164771000Y-139534000D01*
X164971000Y-139534000D02*
X164971000Y-139534000D01*
D12*
X162171000Y-138534000D02*
X162171000Y-134334000D01*
X164271000Y-138534000D02*
X163271000Y-138534000D01*
X165371000Y-138534000D02*
X165371000Y-134334000D01*
X163271000Y-134334000D02*
X164271000Y-134334000D01*
D13*
X164971000Y-139534000D02*
G75*
G03*
X164771000Y-139534000I-100000J0D01*
G01*
X164771000Y-139534000D02*
G75*
G03*
X164971000Y-139534000I100000J0D01*
G01*
D11*
%TO.C,RLS1*%
X152857000Y-94672936D02*
X152857000Y-95127064D01*
X151387000Y-94672936D02*
X151387000Y-95127064D01*
%TO.C,R207*%
X177699641Y-127634000D02*
X177392359Y-127634000D01*
X177699641Y-126874000D02*
X177392359Y-126874000D01*
%TO.C,R619*%
X148968359Y-82820000D02*
X149275641Y-82820000D01*
X148968359Y-83580000D02*
X149275641Y-83580000D01*
D13*
%TO.C,D1*%
X111467000Y-136868000D02*
X115142000Y-136868000D01*
X112442000Y-138468000D02*
X115142000Y-138468000D01*
D11*
%TO.C,VRegT1*%
X168955000Y-101032000D02*
X168955000Y-102362000D01*
X167625000Y-101032000D02*
X168955000Y-101032000D01*
X166355000Y-101032000D02*
X161215000Y-101032000D01*
X166355000Y-101032000D02*
X166355000Y-103692000D01*
X161215000Y-101032000D02*
X161215000Y-103692000D01*
X166355000Y-103692000D02*
X161215000Y-103692000D01*
%TO.C,R613*%
X148968359Y-84020000D02*
X149275641Y-84020000D01*
X148968359Y-84780000D02*
X149275641Y-84780000D01*
%TO.C,RsV3*%
X148210000Y-115215641D02*
X148210000Y-114908359D01*
X148970000Y-115215641D02*
X148970000Y-114908359D01*
D12*
%TO.C,D202*%
X164970000Y-129032000D02*
G75*
G03*
X164870000Y-129032000I-50000J0D01*
G01*
X164870000Y-129032000D02*
G75*
G03*
X164970000Y-129032000I50000J0D01*
G01*
D11*
%TO.C,C401*%
X177145836Y-112120000D02*
X176930164Y-112120000D01*
X177145836Y-111400000D02*
X176930164Y-111400000D01*
%TO.C,J202*%
X185614000Y-103632000D02*
X185614000Y-116392000D01*
X185614000Y-103632000D02*
X188274000Y-103632000D01*
X185614000Y-116392000D02*
X188274000Y-116392000D01*
X186944000Y-101032000D02*
X188274000Y-101032000D01*
X188274000Y-101032000D02*
X188274000Y-102362000D01*
X188274000Y-103632000D02*
X188274000Y-116392000D01*
%TO.C,C_Load1*%
X147641000Y-107248000D02*
X147641000Y-105918000D01*
X148971000Y-107248000D02*
X147641000Y-107248000D01*
X150241000Y-107248000D02*
X152841000Y-107248000D01*
X150241000Y-107248000D02*
X150241000Y-104588000D01*
X152841000Y-107248000D02*
X152841000Y-104588000D01*
X150241000Y-104588000D02*
X152841000Y-104588000D01*
%TO.C,J_AEM_OUT1*%
X133417000Y-87824000D02*
X134747000Y-87824000D01*
X133417000Y-89154000D02*
X133417000Y-87824000D01*
X133417000Y-90424000D02*
X133417000Y-95564000D01*
X133417000Y-90424000D02*
X136077000Y-90424000D01*
X133417000Y-95564000D02*
X136077000Y-95564000D01*
X136077000Y-90424000D02*
X136077000Y-95564000D01*
%TO.C,LDO1*%
X132528000Y-101032000D02*
X133858000Y-101032000D01*
X132528000Y-102362000D02*
X132528000Y-101032000D01*
X132528000Y-103632000D02*
X132528000Y-108772000D01*
X132528000Y-103632000D02*
X135188000Y-103632000D01*
X132528000Y-108772000D02*
X135188000Y-108772000D01*
X135188000Y-103632000D02*
X135188000Y-108772000D01*
%TO.C,J_AEM_OUT2*%
X139894000Y-87824000D02*
X141224000Y-87824000D01*
X139894000Y-89154000D02*
X139894000Y-87824000D01*
X139894000Y-90424000D02*
X139894000Y-95564000D01*
X139894000Y-90424000D02*
X142554000Y-90424000D01*
X139894000Y-95564000D02*
X142554000Y-95564000D01*
X142554000Y-90424000D02*
X142554000Y-95564000D01*
%TO.C,P_SELMPP1*%
X129480000Y-122906000D02*
X130810000Y-122906000D01*
X129480000Y-124236000D02*
X129480000Y-122906000D01*
X129480000Y-125506000D02*
X129480000Y-130646000D01*
X129480000Y-125506000D02*
X132140000Y-125506000D01*
X129480000Y-130646000D02*
X132140000Y-130646000D01*
X132140000Y-125506000D02*
X132140000Y-130646000D01*
%TO.C,P_SELMPP0*%
X133290000Y-122906000D02*
X134620000Y-122906000D01*
X133290000Y-124236000D02*
X133290000Y-122906000D01*
X133290000Y-125506000D02*
X133290000Y-130646000D01*
X133290000Y-125506000D02*
X135950000Y-125506000D01*
X133290000Y-130646000D02*
X135950000Y-130646000D01*
X135950000Y-125506000D02*
X135950000Y-130646000D01*
D13*
%TO.C,S202*%
X178605000Y-137876000D02*
X178605000Y-137876000D01*
X178805000Y-137876000D02*
X178805000Y-137876000D01*
D12*
X176005000Y-136876000D02*
X176005000Y-132676000D01*
X178105000Y-136876000D02*
X177105000Y-136876000D01*
X179205000Y-136876000D02*
X179205000Y-132676000D01*
X177105000Y-132676000D02*
X178105000Y-132676000D01*
D13*
X178805000Y-137876000D02*
G75*
G03*
X178605000Y-137876000I-100000J0D01*
G01*
X178605000Y-137876000D02*
G75*
G03*
X178805000Y-137876000I100000J0D01*
G01*
D11*
%TO.C,PrbA_AEM1*%
X124146000Y-87819000D02*
X125476000Y-87819000D01*
X124146000Y-89149000D02*
X124146000Y-87819000D01*
X124146000Y-90419000D02*
X124146000Y-93019000D01*
X124146000Y-90419000D02*
X126806000Y-90419000D01*
X124146000Y-93019000D02*
X126806000Y-93019000D01*
X126806000Y-90419000D02*
X126806000Y-93019000D01*
D16*
%TO.C,J_PRIM2*%
X95453200Y-137807700D02*
X95453200Y-145656300D01*
X95453200Y-145656300D02*
X105714800Y-145656300D01*
X105714800Y-137807700D02*
X95453200Y-137807700D01*
X105714800Y-145656300D02*
X105714800Y-137807700D01*
D17*
X98465000Y-139534701D02*
G75*
G03*
X97703000Y-139534701I-381000J0D01*
G01*
X97703000Y-139534701D02*
G75*
G03*
X98465000Y-139534701I381000J0D01*
G01*
D11*
%TO.C,R2*%
X102855500Y-101520258D02*
X102855500Y-101045742D01*
X103900500Y-101520258D02*
X103900500Y-101045742D01*
%TO.C,CBOOST1*%
X112016000Y-117715420D02*
X112016000Y-117996580D01*
X110996000Y-117715420D02*
X110996000Y-117996580D01*
%TO.C,PrbV_AEM1*%
X127956000Y-87819000D02*
X129286000Y-87819000D01*
X127956000Y-89149000D02*
X127956000Y-87819000D01*
X127956000Y-90419000D02*
X127956000Y-93019000D01*
X127956000Y-90419000D02*
X130616000Y-90419000D01*
X127956000Y-93019000D02*
X130616000Y-93019000D01*
X130616000Y-90419000D02*
X130616000Y-93019000D01*
%TO.C,R28*%
X111967742Y-139685500D02*
X112442258Y-139685500D01*
X111967742Y-140730500D02*
X112442258Y-140730500D01*
%TO.C,R_Load1*%
X147641000Y-103565000D02*
X147641000Y-102235000D01*
X148971000Y-103565000D02*
X147641000Y-103565000D01*
X150241000Y-103565000D02*
X152841000Y-103565000D01*
X150241000Y-103565000D02*
X150241000Y-100905000D01*
X152841000Y-103565000D02*
X152841000Y-100905000D01*
X150241000Y-100905000D02*
X152841000Y-100905000D01*
%TO.C,R30*%
X119363258Y-95518500D02*
X118888742Y-95518500D01*
X119363258Y-94473500D02*
X118888742Y-94473500D01*
%TO.C,P26*%
X122368000Y-144586000D02*
X122368000Y-143256000D01*
X123698000Y-144586000D02*
X122368000Y-144586000D01*
X124968000Y-144586000D02*
X127568000Y-144586000D01*
X124968000Y-144586000D02*
X124968000Y-141926000D01*
X127568000Y-144586000D02*
X127568000Y-141926000D01*
X124968000Y-141926000D02*
X127568000Y-141926000D01*
%TO.C,R6*%
X118380742Y-100061500D02*
X118855258Y-100061500D01*
X118380742Y-101106500D02*
X118855258Y-101106500D01*
D16*
%TO.C,J_SC2*%
X117652800Y-84442300D02*
X117652800Y-76593700D01*
X117652800Y-76593700D02*
X107391200Y-76593700D01*
X107391200Y-84442300D02*
X117652800Y-84442300D01*
X107391200Y-76593700D02*
X107391200Y-84442300D01*
D17*
X115403000Y-82715299D02*
G75*
G03*
X114641000Y-82715299I-381000J0D01*
G01*
X114641000Y-82715299D02*
G75*
G03*
X115403000Y-82715299I381000J0D01*
G01*
D13*
%TO.C,S203*%
X159437000Y-139534000D02*
X159437000Y-139534000D01*
X159637000Y-139534000D02*
X159637000Y-139534000D01*
D12*
X156837000Y-138534000D02*
X156837000Y-134334000D01*
X158937000Y-138534000D02*
X157937000Y-138534000D01*
X160037000Y-138534000D02*
X160037000Y-134334000D01*
X157937000Y-134334000D02*
X158937000Y-134334000D01*
D13*
X159637000Y-139534000D02*
G75*
G03*
X159437000Y-139534000I-100000J0D01*
G01*
X159437000Y-139534000D02*
G75*
G03*
X159637000Y-139534000I100000J0D01*
G01*
D11*
%TO.C,R27*%
X115332742Y-139685500D02*
X115807258Y-139685500D01*
X115332742Y-140730500D02*
X115807258Y-140730500D01*
%TO.C,R1*%
X104379500Y-101520258D02*
X104379500Y-101045742D01*
X105424500Y-101520258D02*
X105424500Y-101045742D01*
D13*
%TO.C,Q604*%
X153227000Y-85425000D02*
X153227000Y-86950000D01*
X153072000Y-87300000D02*
X153072000Y-90500000D01*
X148172000Y-87300000D02*
X153072000Y-87300000D01*
X153072000Y-90500000D02*
X148172000Y-90500000D01*
X148172000Y-90500000D02*
X148172000Y-87300000D01*
D16*
%TO.C,J_BATT2*%
X105754800Y-84442300D02*
X105754800Y-76593700D01*
X105754800Y-76593700D02*
X95493200Y-76593700D01*
X95493200Y-84442300D02*
X105754800Y-84442300D01*
X95493200Y-76593700D02*
X95493200Y-84442300D01*
D17*
X103505000Y-82715299D02*
G75*
G03*
X102743000Y-82715299I-381000J0D01*
G01*
X102743000Y-82715299D02*
G75*
G03*
X103505000Y-82715299I381000J0D01*
G01*
D11*
%TO.C,R623*%
X162968359Y-82820000D02*
X163275641Y-82820000D01*
X162968359Y-83580000D02*
X163275641Y-83580000D01*
%TO.C,RLS0*%
X149857000Y-94672936D02*
X149857000Y-95127064D01*
X148387000Y-94672936D02*
X148387000Y-95127064D01*
D13*
%TO.C,Q605*%
X160227000Y-85425000D02*
X160227000Y-86950000D01*
X160072000Y-87300000D02*
X160072000Y-90500000D01*
X155172000Y-87300000D02*
X160072000Y-87300000D01*
X160072000Y-90500000D02*
X155172000Y-90500000D01*
X155172000Y-90500000D02*
X155172000Y-87300000D01*
D11*
%TO.C,R208*%
X177324359Y-139193000D02*
X177631641Y-139193000D01*
X177324359Y-139953000D02*
X177631641Y-139953000D01*
%TD*%
%LPC*%
D18*
%TO.C,Ha1*%
X91000000Y-80000000D03*
%TD*%
D19*
%TO.C,RLS6*%
X165504500Y-98298000D03*
X163679500Y-98298000D03*
%TD*%
D20*
%TO.C,P_CFG1*%
X122936000Y-124221000D03*
D21*
X122936000Y-126761000D03*
X122936000Y-129301000D03*
%TD*%
D22*
%TO.C,CHV1*%
X118351000Y-108712000D03*
X119901000Y-108712000D03*
%TD*%
D23*
%TO.C,R621*%
X155612000Y-83200000D03*
X156632000Y-83200000D03*
%TD*%
D24*
%TO.C,USB_LED1*%
X175283000Y-115316000D03*
X176253000Y-115316000D03*
%TD*%
D25*
%TO.C,RLS2*%
X156122000Y-93987500D03*
X156122000Y-95812500D03*
%TD*%
D26*
%TO.C,R7*%
X126555000Y-140208000D03*
X124905000Y-140208000D03*
%TD*%
D27*
%TO.C,R26*%
X122936000Y-140271000D03*
X122936000Y-138621000D03*
%TD*%
D20*
%TO.C,J_RST2*%
X115824000Y-143256000D03*
D21*
X118364000Y-143256000D03*
%TD*%
D20*
%TO.C,P_ENHV1*%
X128270000Y-102377000D03*
D21*
X128270000Y-104917000D03*
X128270000Y-107457000D03*
%TD*%
D28*
%TO.C,Q606*%
X166527000Y-86188000D03*
X165257000Y-86188000D03*
X163987000Y-86188000D03*
X162717000Y-86188000D03*
X162717000Y-91612000D03*
X163987000Y-91612000D03*
X165257000Y-91612000D03*
X166527000Y-91612000D03*
%TD*%
D20*
%TO.C,J_RST1*%
X109474000Y-143256000D03*
D21*
X112014000Y-143256000D03*
%TD*%
D20*
%TO.C,J201*%
X154940000Y-143510000D03*
D21*
X152400000Y-143510000D03*
X149860000Y-143510000D03*
%TD*%
D29*
%TO.C,R5*%
X117793000Y-102108000D03*
X119443000Y-102108000D03*
%TD*%
D30*
%TO.C,RsA3*%
X146788500Y-112776000D03*
X148613500Y-112776000D03*
%TD*%
D31*
%TO.C,D201*%
X158981000Y-129032000D03*
X158011000Y-129032000D03*
%TD*%
D23*
%TO.C,R620*%
X151612000Y-83200000D03*
X152632000Y-83200000D03*
%TD*%
D20*
%TO.C,SC_T_1*%
X141224000Y-112776000D03*
D21*
X143764000Y-112776000D03*
X141224000Y-115316000D03*
X143764000Y-115316000D03*
%TD*%
D32*
%TO.C,R401*%
X177548000Y-110490000D03*
X176528000Y-110490000D03*
%TD*%
D20*
%TO.C,PrbV3*%
X158242000Y-115311000D03*
D21*
X158242000Y-112771000D03*
%TD*%
D23*
%TO.C,R616*%
X158612000Y-84400000D03*
X159632000Y-84400000D03*
%TD*%
D25*
%TO.C,RLS5*%
X166122000Y-93987500D03*
X166122000Y-95812500D03*
%TD*%
D33*
%TO.C,LBUCK1*%
X113258500Y-117094000D03*
X114833500Y-117094000D03*
%TD*%
D25*
%TO.C,RLS3*%
X159122000Y-93987500D03*
X159122000Y-95812500D03*
%TD*%
D32*
%TO.C,R212*%
X169674000Y-132080000D03*
X168654000Y-132080000D03*
%TD*%
D34*
%TO.C,IC403*%
X171476000Y-84100000D03*
X171476000Y-84750000D03*
X171476000Y-85400000D03*
X171476000Y-86050000D03*
X171476000Y-86700000D03*
X171476000Y-87350000D03*
X171476000Y-88000000D03*
D35*
X172376000Y-88900000D03*
X173026000Y-88900000D03*
X173676000Y-88900000D03*
X174326000Y-88900000D03*
X174976000Y-88900000D03*
X175626000Y-88900000D03*
X176276000Y-88900000D03*
D34*
X177176000Y-88000000D03*
X177176000Y-87350000D03*
X177176000Y-86700000D03*
X177176000Y-86050000D03*
X177176000Y-85400000D03*
X177176000Y-84750000D03*
X177176000Y-84100000D03*
D35*
X176276000Y-83200000D03*
X175626000Y-83200000D03*
X174976000Y-83200000D03*
X174326000Y-83200000D03*
X173676000Y-83200000D03*
X173026000Y-83200000D03*
X172376000Y-83200000D03*
D36*
X174326000Y-86050000D03*
%TD*%
D20*
%TO.C,PrbA3*%
X154559000Y-115316000D03*
D21*
X154559000Y-112776000D03*
%TD*%
D37*
%TO.C,C213*%
X177066000Y-118237000D03*
X178026000Y-118237000D03*
%TD*%
D18*
%TO.C,H3*%
X185000000Y-142000000D03*
%TD*%
D38*
%TO.C,S205*%
X170180000Y-138684000D03*
X170180000Y-134184000D03*
X168030000Y-134184000D03*
X168030000Y-138684000D03*
%TD*%
D20*
%TO.C,PrbV2*%
X114503200Y-92202000D03*
D21*
X114503200Y-89662000D03*
%TD*%
D25*
%TO.C,RLS4*%
X163122000Y-93987500D03*
X163122000Y-95812500D03*
%TD*%
D32*
%TO.C,R210*%
X159006000Y-132080000D03*
X157986000Y-132080000D03*
%TD*%
D39*
%TO.C,IC1*%
X112042000Y-113610000D03*
X112542000Y-113610000D03*
X113042000Y-113610000D03*
X113542000Y-113610000D03*
X114042000Y-113610000D03*
X114542000Y-113610000D03*
X115042000Y-113610000D03*
D40*
X115892000Y-112760000D03*
X115892000Y-112260000D03*
X115892000Y-111760000D03*
X115892000Y-111260000D03*
X115892000Y-110760000D03*
X115892000Y-110260000D03*
X115892000Y-109760000D03*
D39*
X115042000Y-108910000D03*
X114542000Y-108910000D03*
X114042000Y-108910000D03*
X113542000Y-108910000D03*
X113042000Y-108910000D03*
X112542000Y-108910000D03*
X112042000Y-108910000D03*
D40*
X111192000Y-109760000D03*
X111192000Y-110260000D03*
X111192000Y-110760000D03*
X111192000Y-111260000D03*
X111192000Y-111760000D03*
X111192000Y-112260000D03*
X111192000Y-112760000D03*
D41*
X113542000Y-111260000D03*
%TD*%
D20*
%TO.C,P_CFG0*%
X126746000Y-124221000D03*
D21*
X126746000Y-126761000D03*
X126746000Y-129301000D03*
%TD*%
D42*
%TO.C,SC1*%
X146045000Y-122682000D03*
D43*
X146045000Y-129482000D03*
%TD*%
D22*
%TO.C,CLV1*%
X118351000Y-111252000D03*
X119901000Y-111252000D03*
%TD*%
D23*
%TO.C,R205*%
X163320000Y-130048000D03*
X164340000Y-130048000D03*
%TD*%
D20*
%TO.C,P_ENLV1*%
X123698000Y-102362000D03*
D21*
X123698000Y-104902000D03*
X123698000Y-107442000D03*
%TD*%
D44*
%TO.C,CSRC1*%
X107967000Y-113546000D03*
X106417000Y-113546000D03*
%TD*%
D31*
%TO.C,VReg_LED1*%
X165712000Y-115316000D03*
X164742000Y-115316000D03*
%TD*%
D38*
%TO.C,S201*%
X178621000Y-124714000D03*
X178621000Y-120214000D03*
X176471000Y-120214000D03*
X176471000Y-124714000D03*
%TD*%
D23*
%TO.C,R204*%
X157986000Y-130048000D03*
X159006000Y-130048000D03*
%TD*%
%TO.C,R617*%
X162612000Y-84400000D03*
X163632000Y-84400000D03*
%TD*%
D20*
%TO.C,PrbA2*%
X110744000Y-92202000D03*
D21*
X110744000Y-89662000D03*
%TD*%
D28*
%TO.C,Q6S12*%
X158369000Y-101301000D03*
X157099000Y-101301000D03*
X155829000Y-101301000D03*
X154559000Y-101301000D03*
X154559000Y-106725000D03*
X155829000Y-106725000D03*
X157099000Y-106725000D03*
X158369000Y-106725000D03*
%TD*%
D45*
%TO.C,CBATT1*%
X102106200Y-91135200D03*
X105056200Y-91135200D03*
%TD*%
D26*
%TO.C,R8*%
X126555000Y-138684000D03*
X124905000Y-138684000D03*
%TD*%
D46*
%TO.C,IC401*%
X175208000Y-108384000D03*
X176478000Y-108384000D03*
X177748000Y-108384000D03*
X179018000Y-108384000D03*
%TD*%
D47*
%TO.C,C402*%
X177518000Y-113030000D03*
X176558000Y-113030000D03*
%TD*%
D31*
%TO.C,D203*%
X169649000Y-129032000D03*
X168679000Y-129032000D03*
%TD*%
D48*
%TO.C,J_BATT1*%
X95157300Y-89169999D03*
X95157300Y-91170001D03*
D49*
X89407299Y-86819999D03*
X89407299Y-93520001D03*
%TD*%
D20*
%TO.C,USB_SRC1*%
X186182000Y-119380000D03*
D21*
X183642000Y-119380000D03*
%TD*%
D18*
%TO.C,Ha2*%
X133000000Y-80000000D03*
%TD*%
D23*
%TO.C,R614*%
X151612000Y-84400000D03*
X152632000Y-84400000D03*
%TD*%
D50*
%TO.C,C404*%
X169926000Y-87023000D03*
X169926000Y-87983000D03*
%TD*%
D23*
%TO.C,R206*%
X168654000Y-130048000D03*
X169674000Y-130048000D03*
%TD*%
D51*
%TO.C,LBOOST1*%
X109429000Y-116848000D03*
X106479000Y-116848000D03*
%TD*%
D20*
%TO.C,VRegT2*%
X167640000Y-106045000D03*
D21*
X165100000Y-106045000D03*
X162560000Y-106045000D03*
%TD*%
D20*
%TO.C,P30*%
X119126000Y-89662000D03*
D21*
X119126000Y-92202000D03*
%TD*%
D48*
%TO.C,J_PRIM1*%
X94996000Y-131095998D03*
X94996000Y-133096000D03*
D49*
X89245999Y-128745998D03*
X89245999Y-135446000D03*
%TD*%
D20*
%TO.C,PrbA1*%
X102362000Y-117861000D03*
D21*
X102362000Y-120401000D03*
%TD*%
D27*
%TO.C,R29*%
X106680000Y-135699000D03*
X106680000Y-134049000D03*
%TD*%
D44*
%TO.C,CBUCK1*%
X114821000Y-118618000D03*
X113271000Y-118618000D03*
%TD*%
D29*
%TO.C,R25*%
X96965000Y-100521000D03*
X98615000Y-100521000D03*
%TD*%
D52*
%TO.C,RVd3*%
X146812000Y-114552000D03*
X146812000Y-115572000D03*
%TD*%
D53*
%TO.C,J_SRC1*%
X91737299Y-108752000D03*
X91737299Y-113752000D03*
%TD*%
D23*
%TO.C,R618*%
X165612000Y-84400000D03*
X166632000Y-84400000D03*
%TD*%
D27*
%TO.C,R4*%
X100330000Y-102108000D03*
X100330000Y-100458000D03*
%TD*%
D23*
%TO.C,R624*%
X165612000Y-83200000D03*
X166632000Y-83200000D03*
%TD*%
D53*
%TO.C,J_SC1*%
X125944000Y-80815299D03*
X120944000Y-80815299D03*
%TD*%
D27*
%TO.C,R3*%
X101854000Y-102108000D03*
X101854000Y-100458000D03*
%TD*%
D20*
%TO.C,P_CFG2*%
X119126000Y-124221000D03*
D21*
X119126000Y-126761000D03*
X119126000Y-129301000D03*
%TD*%
D32*
%TO.C,R211*%
X164340000Y-132080000D03*
X163320000Y-132080000D03*
%TD*%
D23*
%TO.C,R622*%
X158612000Y-83200000D03*
X159632000Y-83200000D03*
%TD*%
D20*
%TO.C,PrbV1*%
X98552000Y-117856000D03*
D21*
X98552000Y-120396000D03*
%TD*%
D23*
%TO.C,R615*%
X155612000Y-84400000D03*
X156632000Y-84400000D03*
%TD*%
D20*
%TO.C,J203*%
X178547000Y-143535000D03*
D21*
X176007000Y-143535000D03*
X173467000Y-143535000D03*
X170927000Y-143535000D03*
X168387000Y-143535000D03*
X165847000Y-143535000D03*
X163307000Y-143535000D03*
X160767000Y-143535000D03*
%TD*%
D38*
%TO.C,S204*%
X164846000Y-138684000D03*
X164846000Y-134184000D03*
X162696000Y-134184000D03*
X162696000Y-138684000D03*
%TD*%
D25*
%TO.C,RLS1*%
X152122000Y-93987500D03*
X152122000Y-95812500D03*
%TD*%
D32*
%TO.C,R207*%
X178056000Y-127254000D03*
X177036000Y-127254000D03*
%TD*%
D23*
%TO.C,R619*%
X148612000Y-83200000D03*
X149632000Y-83200000D03*
%TD*%
D18*
%TO.C,H1*%
X143000000Y-80000000D03*
%TD*%
D54*
%TO.C,D1*%
X111992000Y-137668000D03*
X115592000Y-137668000D03*
%TD*%
D20*
%TO.C,VRegT1*%
X167625000Y-102362000D03*
D21*
X165085000Y-102362000D03*
X162545000Y-102362000D03*
%TD*%
D18*
%TO.C,Ha3*%
X133000000Y-142000000D03*
%TD*%
D23*
%TO.C,R613*%
X148612000Y-84400000D03*
X149632000Y-84400000D03*
%TD*%
D55*
%TO.C,RsV3*%
X148590000Y-115572000D03*
X148590000Y-114552000D03*
%TD*%
D31*
%TO.C,D202*%
X164315000Y-129032000D03*
X163345000Y-129032000D03*
%TD*%
D47*
%TO.C,C401*%
X177518000Y-111760000D03*
X176558000Y-111760000D03*
%TD*%
D20*
%TO.C,J202*%
X186944000Y-102362000D03*
D21*
X186944000Y-104902000D03*
X186944000Y-107442000D03*
X186944000Y-109982000D03*
X186944000Y-112522000D03*
X186944000Y-115062000D03*
%TD*%
D20*
%TO.C,C_Load1*%
X148971000Y-105918000D03*
D21*
X151511000Y-105918000D03*
%TD*%
D20*
%TO.C,J_AEM_OUT1*%
X134747000Y-89154000D03*
D21*
X134747000Y-91694000D03*
X134747000Y-94234000D03*
%TD*%
D20*
%TO.C,LDO1*%
X133858000Y-102362000D03*
D21*
X133858000Y-104902000D03*
X133858000Y-107442000D03*
%TD*%
D20*
%TO.C,J_AEM_OUT2*%
X141224000Y-89154000D03*
D21*
X141224000Y-91694000D03*
X141224000Y-94234000D03*
%TD*%
D20*
%TO.C,P_SELMPP1*%
X130810000Y-124236000D03*
D21*
X130810000Y-126776000D03*
X130810000Y-129316000D03*
%TD*%
D20*
%TO.C,P_SELMPP0*%
X134620000Y-124236000D03*
D21*
X134620000Y-126776000D03*
X134620000Y-129316000D03*
%TD*%
D38*
%TO.C,S202*%
X178680000Y-137026000D03*
X178680000Y-132526000D03*
X176530000Y-132526000D03*
X176530000Y-137026000D03*
%TD*%
D20*
%TO.C,PrbA_AEM1*%
X125476000Y-89149000D03*
D21*
X125476000Y-91689000D03*
%TD*%
D53*
%TO.C,J_PRIM2*%
X98084000Y-141434701D03*
X103084000Y-141434701D03*
%TD*%
D27*
%TO.C,R2*%
X103378000Y-102108000D03*
X103378000Y-100458000D03*
%TD*%
D56*
%TO.C,CBOOST1*%
X111506000Y-117081000D03*
X111506000Y-118631000D03*
%TD*%
D20*
%TO.C,PrbV_AEM1*%
X129286000Y-89149000D03*
D21*
X129286000Y-91689000D03*
%TD*%
D29*
%TO.C,R28*%
X111380000Y-140208000D03*
X113030000Y-140208000D03*
%TD*%
D20*
%TO.C,R_Load1*%
X148971000Y-102235000D03*
D21*
X151511000Y-102235000D03*
%TD*%
D26*
%TO.C,R30*%
X119951000Y-94996000D03*
X118301000Y-94996000D03*
%TD*%
D20*
%TO.C,P26*%
X123698000Y-143256000D03*
D21*
X126238000Y-143256000D03*
%TD*%
D29*
%TO.C,R6*%
X117793000Y-100584000D03*
X119443000Y-100584000D03*
%TD*%
D53*
%TO.C,J_SC2*%
X115022000Y-80815299D03*
X110022000Y-80815299D03*
%TD*%
D38*
%TO.C,S203*%
X159512000Y-138684000D03*
X159512000Y-134184000D03*
X157362000Y-134184000D03*
X157362000Y-138684000D03*
%TD*%
D18*
%TO.C,H4*%
X143000000Y-142000000D03*
%TD*%
D29*
%TO.C,R27*%
X114745000Y-140208000D03*
X116395000Y-140208000D03*
%TD*%
D27*
%TO.C,R1*%
X104902000Y-102108000D03*
X104902000Y-100458000D03*
%TD*%
D28*
%TO.C,Q604*%
X152527000Y-86188000D03*
X151257000Y-86188000D03*
X149987000Y-86188000D03*
X148717000Y-86188000D03*
X148717000Y-91612000D03*
X149987000Y-91612000D03*
X151257000Y-91612000D03*
X152527000Y-91612000D03*
%TD*%
D53*
%TO.C,J_BATT2*%
X103124000Y-80815299D03*
X98124000Y-80815299D03*
%TD*%
D23*
%TO.C,R623*%
X162612000Y-83200000D03*
X163632000Y-83200000D03*
%TD*%
D25*
%TO.C,RLS0*%
X149122000Y-93987500D03*
X149122000Y-95812500D03*
%TD*%
D28*
%TO.C,Q605*%
X159527000Y-86188000D03*
X158257000Y-86188000D03*
X156987000Y-86188000D03*
X155717000Y-86188000D03*
X155717000Y-91612000D03*
X156987000Y-91612000D03*
X158257000Y-91612000D03*
X159527000Y-91612000D03*
%TD*%
D18*
%TO.C,H2*%
X185000000Y-80000000D03*
%TD*%
%TO.C,Ha4*%
X91000000Y-142000000D03*
%TD*%
D23*
%TO.C,R208*%
X176968000Y-139573000D03*
X177988000Y-139573000D03*
%TD*%
D57*
%TO.C,J501*%
X183518000Y-125734500D03*
X183518000Y-131514500D03*
D58*
X183018000Y-124304500D03*
X183018000Y-132944500D03*
D59*
X187198000Y-124304500D03*
X187198000Y-132944500D03*
%TD*%
%LPD*%
M02*
