%TF.GenerationSoftware,KiCad,Pcbnew,7.0.10*%
%TF.CreationDate,2024-05-16T19:43:26+02:00*%
%TF.ProjectId,SolarEnergyManager_v1.0,536f6c61-7245-46e6-9572-67794d616e61,rev?*%
%TF.SameCoordinates,Original*%
%TF.FileFunction,Profile,NP*%
%FSLAX46Y46*%
G04 Gerber Fmt 4.6, Leading zero omitted, Abs format (unit mm)*
G04 Created by KiCad (PCBNEW 7.0.10) date 2024-05-16 19:43:26*
%MOMM*%
%LPD*%
G01*
G04 APERTURE LIST*
%TA.AperFunction,Profile*%
%ADD10C,0.100000*%
%TD*%
G04 APERTURE END LIST*
D10*
X135729999Y-145999999D02*
G75*
G03*
X136999999Y-144729999I1J1269999D01*
G01*
X138300000Y-87000000D02*
G75*
G03*
X139000000Y-86300000I0J700000D01*
G01*
X138300000Y-131700000D02*
G75*
G03*
X139000000Y-131000000I0J700000D01*
G01*
X138299999Y-137700001D02*
X137700001Y-137700001D01*
X188999999Y-77270001D02*
X188999999Y-144729999D01*
X137000001Y-86299999D02*
G75*
G03*
X137700001Y-86999999I699999J-1D01*
G01*
X87000001Y-144729999D02*
G75*
G03*
X88270001Y-145999999I1269999J-1D01*
G01*
X137000001Y-130999999D02*
G75*
G03*
X137700001Y-131699999I699999J-1D01*
G01*
X138999999Y-93700001D02*
X139000000Y-116000000D01*
X138300000Y-116700000D02*
G75*
G03*
X139000000Y-116000000I0J700000D01*
G01*
X136999999Y-77270001D02*
G75*
G03*
X135729999Y-76000001I-1269999J1D01*
G01*
X187729999Y-145999999D02*
G75*
G03*
X188999999Y-144729999I1J1269999D01*
G01*
X138999999Y-93700001D02*
G75*
G03*
X138299999Y-93000001I-699999J1D01*
G01*
X138999999Y-138400001D02*
X139000001Y-144729999D01*
X137000001Y-115999999D02*
G75*
G03*
X137700001Y-116699999I699999J-1D01*
G01*
X140270001Y-76000001D02*
G75*
G03*
X139000001Y-77270001I-1J-1269999D01*
G01*
X138999999Y-123400001D02*
G75*
G03*
X138299999Y-122700001I-699999J1D01*
G01*
X139000001Y-144729999D02*
G75*
G03*
X140270001Y-145999999I1269999J-1D01*
G01*
X137700001Y-137700001D02*
G75*
G03*
X137000001Y-138400001I-1J-699999D01*
G01*
X135729999Y-145999999D02*
X88270001Y-145999999D01*
X137700001Y-116699999D02*
X138300000Y-116700000D01*
X139000001Y-77270001D02*
X139000000Y-86300000D01*
X137700001Y-86999999D02*
X138300000Y-87000000D01*
X137700001Y-122700001D02*
G75*
G03*
X137000001Y-123400001I-1J-699999D01*
G01*
X137000001Y-93700001D02*
X137000001Y-115999999D01*
X138299999Y-93000001D02*
X137700001Y-93000001D01*
X136999999Y-77270001D02*
X137000001Y-86299999D01*
X88270000Y-76000000D02*
G75*
G03*
X87000000Y-77270000I0J-1270000D01*
G01*
X188999999Y-77270001D02*
G75*
G03*
X187729999Y-76000001I-1269999J1D01*
G01*
X137700001Y-131699999D02*
X138300000Y-131700000D01*
X87000001Y-144729999D02*
X87000000Y-77270000D01*
X137000001Y-138400001D02*
X136999999Y-144729999D01*
X137000001Y-123400001D02*
X137000001Y-130999999D01*
X138999999Y-138400001D02*
G75*
G03*
X138299999Y-137700001I-699999J1D01*
G01*
X88270000Y-76000000D02*
X135729999Y-76000001D01*
X137700001Y-93000001D02*
G75*
G03*
X137000001Y-93700001I-1J-699999D01*
G01*
X138299999Y-122700001D02*
X137700001Y-122700001D01*
X187729999Y-145999999D02*
X140270001Y-145999999D01*
X138999999Y-123400001D02*
X139000000Y-131000000D01*
X140270001Y-76000001D02*
X187729999Y-76000001D01*
M02*
